<svg xmlns="http://www.w3.org/2000/svg" viewBox="0 0 64 64">
  <path fill-rule="evenodd" d="M32.01 56.02v0c-13.26-.01-24-10.75-24-24.01 0-13.26 10.74-24 24-24 13.25 0 23.99 10.74 23.99 24v0c-.01 13.25-10.75 24-24.01 24Zm0-41v0c-2.21 0-4 1.79-4 4 0 2.2 1.79 4 4 4 2.2 0 4-1.8 4-4h0c0-2.21-1.8-4.01-4-4.01C32 15 32 15 32 15Zm10.93 10H21.06v0c-.59-.01-1.07.47-1.07 1.06 -.01.53.39.98.93 1.05l6.71.83v0c.21.02.38.18.42.39v0c.6 3.04.41 6.19-.57 9.14L25.06 46v0c-.28.78.14 1.63.92 1.9 .13.04.27.07.41.08h-.001c.56-.01 1.07-.36 1.28-.89l4.17-9.87 -.001-.001c.02-.07.1-.1.16-.07 .02.01.04.03.06.06l4.17 9.86v0c.21.52.71.87 1.28.88H37.5c.82-.05 1.46-.75 1.42-1.58 -.01-.15-.04-.29-.09-.42l-2.42-8.52v-.001c-.99-2.95-1.18-6.1-.57-9.15h0c.04-.22.21-.38.42-.4l6.71-.84v0c.58-.08.99-.61.92-1.19 -.07-.54-.52-.94-1.06-.94Z" fill="#D3D3D3"/>
</svg>