<svg xmlns="http://www.w3.org/2000/svg" viewBox="0 0 64 64">
  <path fill-rule="evenodd" d="M37.01 24.51l5.07 2.53c.13-1.19.54-2.04 1.87-2.04 2.04 0 2 1.85 2 3.96l8.95 4.47v0c.67.33 1.1 1.03 1.1 1.78v3.76h0c0 .55-.45 1-1 1 -.08 0-.15-.01-.23-.03l-18.03-4.1v0c-.19 5.62-.92 11.22-2.18 16.71l5.81 3.23v0c.56.31.76 1.02.45 1.59 -.23.41-.69.64-1.16.59v0l-.001-.001c-5.12-.57-10.28-.57-15.4 0v0 0c-.65.07-1.23-.4-1.3-1.04 -.06-.47.18-.93.59-1.16l5.81-3.23 0-.001c-1.27-5.49-1.99-11.09-2.18-16.72L9.14 39.89v0c-.54.12-1.08-.22-1.2-.76 -.02-.08-.03-.15-.03-.23v-3.77 0c0-.76.42-1.46 1.1-1.79l8.89-4.45h-.01c0-2.13-.06-4 1.93-4 1.38 0 1.8.85 1.93 2.06l5.13-2.567c.14-16.84 2.64-18.5 4.99-18.5s4.85 1.66 4.99 18.49Z" fill="#D3D3D3"/>
</svg>