<svg xmlns="http://www.w3.org/2000/svg" viewBox="0 0 64 64">
  <path fill-rule="evenodd" d="M22.81 9.32v-.001c.29.33.25.85-.09 1.14 -.01 0-.01 0-.01 0L10.29 20.83h0c-.35.28-.87.23-1.16-.11h0c-3.22-3.74-2.8-9.37.93-12.58 .01-.02.02-.03.04-.04H10.1c3.83-3.15 9.48-2.62 12.67 1.19ZM28 12.39V12v0c0-1.11.89-2 2-2h4v0c1.1 0 2 .89 2 2v.38l-.001 0c11.37 2.19 18.81 13.19 16.61 24.57 -.64 3.29-2.06 6.39-4.14 9.02l3.47 6.93v0c.18.37.03.82-.34 1 -.11.05-.22.07-.34.07h-3.99v0c-.54 0-1.04-.22-1.42-.59l-2.68-2.68v-.001c-6.84 4.34-15.57 4.34-22.41 0l-2.68 2.67v0c-.38.37-.89.58-1.42.58h-3.99 0c-.42 0-.75-.34-.76-.75 -.01-.12.02-.24.07-.34l3.47-6.94h0c-7.19-9.1-5.64-22.29 3.46-29.47 2.63-2.08 5.72-3.5 9.02-4.14Zm-3.933 27.5l9.55-4.48v-.001c.92-.43 1.48-1.4 1.38-2.42 -.02-.18-1.5-14.52-1.52-14.7v-.001c-.09-.83-.84-1.43-1.67-1.34 -.71.07-1.27.63-1.34 1.33L29.1 31.44l-6.64 5.99h-.001c-.61.53-.66 1.45-.13 2.05 .42.47 1.1.62 1.68.36Zm17.12-30.62v-.001c3.18-3.81 8.83-4.34 12.67-1.2v0c3.75 3.19 4.2 8.83 1 12.58 -.01.01-.02.02-.03.03h-.001c-.29.34-.81.39-1.16.1l-12.42-10.4v-.001c-.35-.3-.39-.81-.1-1.15 0-.01 0-.01 0-.01Z" fill="#D3D3D3"/>
</svg>