<svg xmlns="http://www.w3.org/2000/svg" viewBox="0 0 64 64">
  <path fill-rule="evenodd" d="M26 45.86l0-.001c-.01 1.05.81 1.92 1.86 1.99 1.33.08 2.72.12 4.13.12 1.41 0 2.8-.05 4.13-.13v0c1.05-.07 1.86-.95 1.86-2v-3.89h-12Zm21.26-18.65v-.001c-2.24-2.64-3.71-5.83-4.27-9.24 -.41-2.4-1.43-8.51-1.83-10.96v0c-.1-.61-.63-1.05-1.24-1.05h-1.94v-.001c-.56-.01-1.01.44-1.01.99 -.01.05 0 .11.01.16l1.61 9.67v0c.09.54-.28 1.05-.83 1.15 -.06 0-.11.01-.17.01H26.3v0c-.56-.01-1-.45-1-1.01 0-.06 0-.12.01-.17l1.61-9.68v0c.09-.55-.28-1.06-.83-1.16 -.06-.01-.11-.02-.17-.02h-1.94v0c-.62-.01-1.14.44-1.24 1.04 -.41 2.45-1.42 8.56-1.83 10.95h0c-.56 3.4-2.03 6.6-4.27 9.23v-.001c-.48.54-.74 1.24-.74 1.96V54.76v-.001c-.01.67.45 1.27 1.1 1.44l-.001-.001c4.87 1.19 9.87 1.75 14.89 1.66v0c5.01.09 10.02-.47 14.89-1.67h0c.65-.18 1.1-.78 1.1-1.45V29.05v0c0-.73-.27-1.43-.74-1.97Zm-7.27 18.64v0c0 2.11-1.64 3.86-3.75 3.99 -1.3.07-2.72.125-4.26.125 -1.55 0-2.97-.05-4.26-.125v0c-2.11-.14-3.75-1.89-3.75-4v-4.89 0c0-.56.44-1 1-1h14v0c.55 0 1 .44 1 1Z" fill="#D3D3D3"/>
</svg>