<svg xmlns="http://www.w3.org/2000/svg" viewBox="0 0 64 64">
  <path fill-rule="evenodd" d="M54.93 23.75v-.001c-.98.51-2.19.14-2.71-.84 -.01-.01-.01-.01-.01-.01 -1.06-2-1.66-2.94-2.64-2.94 -.98 0-1.58.93-2.64 2.93 -1.13 2.13-2.68 5.06-6.17 5.06 -3.5 0-5.04-2.93-6.17-5.07 -1.06-2-1.66-2.94-2.64-2.94 -.98 0-1.58.93-2.64 2.93 -1.13 2.13-2.68 5.06-6.17 5.06 -3.5 0-5.04-2.93-6.17-5.07 -1.06-2-1.66-2.94-2.64-2.94 -.98 0-1.58.93-2.64 2.93h0c-.52.97-1.73 1.35-2.71.83 -.98-.52-1.36-1.73-.84-2.71 1.12-2.14 2.67-5.07 6.16-5.07s5.04 2.92 6.16 5.06c1.05 1.99 1.65 2.93 2.63 2.93 .97 0 1.57-.94 2.63-2.94 1.12-2.14 2.67-5.07 6.16-5.07s5.03 2.92 6.16 5.06c1.05 1.99 1.65 2.93 2.63 2.93 .97 0 1.57-.94 2.63-2.94 1.12-2.14 2.67-5.07 6.16-5.07s5.04 2.92 6.16 5.06v0c.51.97.14 2.18-.84 2.7ZM14.39 35.98c3.49 0 5.04 2.92 6.16 5.06 1.05 1.99 1.65 2.93 2.63 2.93 .97 0 1.57-.94 2.63-2.94 1.12-2.14 2.67-5.07 6.16-5.07s5.03 2.92 6.16 5.06c1.05 1.99 1.65 2.93 2.63 2.93 .97 0 1.57-.94 2.63-2.94 1.12-2.14 2.67-5.07 6.16-5.07s5.04 2.92 6.16 5.06h0c.52.97.16 2.18-.81 2.71 -.98.52-2.19.16-2.72-.81 -.01-.02-.02-.03-.02-.04 -1.06-2-1.66-2.94-2.64-2.94 -.98 0-1.58.93-2.64 2.93 -1.13 2.13-2.68 5.06-6.17 5.06 -3.5 0-5.04-2.93-6.17-5.07 -1.06-2-1.66-2.94-2.64-2.94 -.98 0-1.58.93-2.64 2.93 -1.13 2.13-2.68 5.06-6.17 5.06 -3.5 0-5.04-2.93-6.17-5.07 -1.06-2-1.66-2.94-2.64-2.94 -.98 0-1.58.93-2.64 2.93h0c-.52.97-1.72 1.35-2.7.84 -.98-.52-1.36-1.72-.85-2.7 0-.01 0-.02 0-.02 1.12-2.14 2.67-5.07 6.16-5.07Z" fill="#D3D3D3"/>
</svg>