<svg xmlns="http://www.w3.org/2000/svg" viewBox="0 0 64 64">
  <path fill-rule="evenodd" d="M8.66 15.48l16.06 16.09v0c.56.56 1.46.56 2.03 0 0-.01 0-.01 0-.01l.79-.8v0c.56-.57.56-1.48-.001-2.04l-11.04-11.06c2.07.2 4.54.3 7.46.3 4.45 0 8.1.69 11.872 3.29v0c.39.28.93.23 1.28-.11l1.62-1.63v0c.29-.31.29-.79-.01-1.09 -.03-.03-.06-.06-.09-.08 -4.82-3.5-9.53-4.42-14.7-4.42 -6.81 0-10.94-.56-12.99-1.74v-.001c-.96-.56-2.18-.23-2.73.73 -.02.02-.04.05-.05.08v0c-.39.81-.21 1.78.44 2.4Zm35.85 1.15L22.77 38.39h0c-.38.37-.89.58-1.42.58H17.41v0c-.53 0-1.04.21-1.42.58l-5.7 5.71h0c-.4.39-.39 1.02 0 1.41 .18.18.44.29.7.29h5.48v0c.27 0 .49.22.49.49 -.01 0-.01 0-.01 0v5.51 0c-.01.55.44.99.99.99 .26 0 .52-.11.7-.3l5.69-5.72v0c.37-.38.58-.89.58-1.42v-3.92 -.001c-.01-.54.21-1.04.58-1.42l21.76-21.8v0c.19-.2.51-.2.7-.01 0 0 0 0 0 0l2.23 2.23v0c.39.39 1.02.39 1.41-.01 .1-.11.19-.25.24-.4l4-12.01V9.16c.17-.53-.11-1.1-.64-1.27 -.21-.07-.43-.07-.64-.01l-12.02 4v0c-.53.17-.81.74-.64 1.26 .04.14.13.28.24.39l2.24 2.24v0c.19.19.19.51 0 .7 -.01 0-.01 0-.01 0Zm5.44 23.38c0-5.18-.92-9.89-4.39-14.704V25.3c-.26-.34-.73-.42-1.07-.17 -.04.02-.06.04-.09.07l-1.63 1.62v0c-.34.34-.39.88-.11 1.28 2.58 3.77 3.27 7.42 3.27 11.88 0 2.93.09 5.4.3 7.48L35.2 36.41v0c-.57-.57-1.47-.57-2.04-.01 -.01 0-.01 0-.01 0l-.8.79v0c-.57.56-.57 1.47 0 2.03l16.06 16.09v0c.61.64 1.58.82 2.39.44v0c.98-.51 1.37-1.72.86-2.71 -.02-.03-.03-.06-.05-.08 -1.19-2.06-1.74-6.2-1.74-13.02Z" fill="#D3D3D3"/>
</svg>