<svg xmlns="http://www.w3.org/2000/svg" viewBox="0 0 64 64">
  <path fill-rule="evenodd" d="M42 33.98v0c-1.11 0-2-.9-2-2 0-1.11.89-2 2-2v0c4.41-.01 7.99-3.59 7.99-8.01 -.01-4.42-3.59-8-8.01-8s-8 3.57-8 7.99v0 30 0c0 1.1-.9 2-2 2 -1.11 0-2-.9-2-2v-30 -.01 0c-.01-4.42-3.59-8-8.01-8s-8 3.58-8 8c0 4.41 3.58 7.99 7.99 7.99v0c1.1 0 2 .89 2 2 0 1.1-.9 2-2 2v0c-6.63 0-12.01-5.37-12.01-12 -.01-6.63 5.36-12.01 11.99-12.01 4.02-.01 7.78 2.01 10 5.37v0c3.66-5.53 11.1-7.04 16.63-3.38 5.52 3.66 7.03 11.1 3.37 16.63 -2.23 3.35-5.98 5.37-10.01 5.36Z" fill="#D3D3D3"/>
</svg>