<svg xmlns="http://www.w3.org/2000/svg" viewBox="0 0 64 64">
  <path fill-rule="evenodd" d="M58 56H26v0c-1.11 0-2-.9-2-2 0-1.11.89-2 2-2h32v0c1.1 0 2 .89 2 2 0 1.1-.9 2-2 2ZM47.65 39.75l-24.64-5.13h0c-1.47-.31-2.89-.76-4.26-1.35l-5.61-2.43 0-.001c-1.09-.49-1.9-1.44-2.19-2.59L7.99 17.19v0c-.15-.52.14-1.05.65-1.2 .14-.05.29-.05.43-.03l2.19.45v0c.61.13 1.15.5 1.49 1.04l3.67 5.49v0c.13.21.35.36.59.41l6.77 1.4 -4.77-13.5 -.001 0c-.21-.5.03-1.06.53-1.27 .16-.07.34-.09.52-.06l2.81.58v0c.78.16 1.48.62 1.96 1.27l11.08 15.48 6.12 1.27c8.25 1.71 12.38 5.44 11.8 8.44 -.41 2.12-2.25 3.52-6.29 2.68Z" fill="#D3D3D3"/>
</svg>