<svg xmlns="http://www.w3.org/2000/svg" viewBox="0 0 64 64">
  <path fill-rule="evenodd" d="M32 56v0C18.74 56 8 45.25 8 32 8 18.74 18.74 8 32 8c13.25 0 24 10.74 24 24v0c0 13.25-10.75 24-24 24Zm0-44v0c-10.28 0-18.88 7.78-19.9 18h25.07l-7.59-7.573v0c-.78-.79-.77-2.06.01-2.84 .78-.78 2.03-.78 2.81 0l11.02 11v0c.78.77.78 2.04 0 2.82 -.01 0-.01 0-.01 0l-11.03 11h-.001c-.79.78-2.05.78-2.84 0 -.79-.79-.79-2.05-.01-2.84l7.62-7.61H12.03l-.001 0c1.1 10.99 10.9 19 21.89 17.89 10.99-1.11 19-10.91 17.89-21.9 -1.03-10.22-9.63-18.01-19.91-18Z" fill="#D3D3D3"/>
</svg>