<svg xmlns="http://www.w3.org/2000/svg" viewBox="0 0 64 64">
  <path fill-rule="evenodd" d="M61 28h-2v0c-.56 0-1-.45-1-1v-7H6v7 0c0 .55-.45 1-1 1H3v0c-.56 0-1-.45-1-1v-9 0c0-1.11.89-2 2-2h56v0c1.1 0 2 .89 2 2v9 0c0 .55-.45 1-1 1Zm-29 7c-3.66 0-6-3.125-6-8v-2 0c0-.56.44-1 1-1h10v0c.55 0 1 .44 1 1v2 0c0 4.87-2.35 8-6 8ZM11 24h2v0c.55 0 1 .44 1 1v8h-.001c2.92 0 5.42 2.11 5.91 5h24.18v0c.48-2.89 2.98-5 5.91-5v-8 0 0c0-.56.44-1 1-1h2v0c.55 0 1 .44 1 1v15 0c0 1.1-.9 2-2 2h-40v0c-1.11 0-2-.9-2-2V25v0c0-.56.44-1 1-1Zm2 20h38v0c.55 0 1 .44 1 1v1 0c0 1.1-.9 2-2 2H14v0c-1.11 0-2-.9-2-2v-1 0c0-.56.44-1 1-1Z" fill="#D3D3D3"/>
</svg>