<svg xmlns="http://www.w3.org/2000/svg" viewBox="0 0 64 64">
  <path fill-rule="evenodd" d="M48.68 36.41l-.75 1v0c-.47.61-1.32.78-1.98.38l-5.97-3.62V37v0c0 .55-.45.99-1 1h-14v0c-.56 0-1-.45-1-1v-2.84l-5.97 3.62v0c-.66.39-1.52.23-1.98-.39l-.75-1v0c-.46-.62-.39-1.47.17-2l7.77-7.33v0c.74-.7 1.72-1.09 2.74-1.09h12.01v0c1.01 0 1.99.38 2.74 1.08l7.77 7.32v-.001c.55.52.63 1.38.17 1.99ZM31.99 23.99v0c-4.42 0-8-3.59-8-8 0-4.42 3.58-8 8-8 4.41 0 8 3.58 8 8v0c0 4.41-3.59 8-8 8ZM23.27 41.45h-.001c.28-.46.87-.59 1.32-.31 .06.03.12.08.17.14l3.91 3.89v0c.32.33.37.84.12 1.23l-1.59 2.53 2.47 3.21h-.001c.43.58.37 1.4-.14 1.92l-1.46 1.46 -.001 0c-.57.56-1.48.57-2.05.01 -.01-.01-.01-.01-.02-.02l-4.93-4.98h0c-1.29-1.31-1.51-3.33-.53-4.88Zm13.48 7.49l-1.59-2.54v0c-.26-.39-.21-.91.12-1.24l3.91-3.9v0c.37-.38.98-.39 1.36-.01 .05.05.1.11.14.17l2.67 4.24v0c.97 1.55.75 3.56-.53 4.87l-4.93 4.97v0c-.57.56-1.48.57-2.05.01 -.01-.01-.01-.01-.02-.02l-1.46-1.47h0c-.52-.52-.57-1.34-.14-1.93Z" fill="#D3D3D3"/>
</svg>