<svg xmlns="http://www.w3.org/2000/svg" viewBox="0 0 64 64">
  <path fill-rule="evenodd" d="M16 30c0-7.62 2.56-12.42 7.84-14.61v0c.09-.04.15-.13.15-.23v-2.17c0-5.82 2.18-8 8-8 5.81 0 8 2.18 8 8v2.17 0c0 .09.06.18.15.22 5.27 2.18 7.84 6.98 7.84 14.6v22 0c0 2.2-1.8 4-4 4h-24v0c-2.21 0-4-1.8-4-4Zm19.72-15.76h0c.13.01.25-.08.27-.21 0-.02 0-.03 0-.04v-1c0-3.5-.5-4-4-4s-4 .5-4 4v.99 0c-.01.13.1.24.24.24 .01 0 .02-.01.03-.01l0-.001c2.46-.32 4.97-.32 7.44 0ZM43 40H21v0c-.56 0-1 .44-1 1v5 0c0 .55.44 1 1 1h2v0c.55 0 1-.45 1-1v-3.75 0c0-.14.11-.25.25-.25H43v0c.55 0 1-.45 1-1 0-.56-.45-1-1-1Z" fill="#D3D3D3"/>
</svg>