<svg xmlns="http://www.w3.org/2000/svg" viewBox="0 0 64 64">
  <path fill-rule="evenodd" d="M37 10v0c-.56 0-1 .44-1 1 0 .55.44 1 1 1h7v0c.55 0 1 .44 1 1v3 0c0 .55-.45 1-1 1h-7v0c-.56 0-1 .44-1 1 0 .55.44 1 1 1h7v0c.55 0 1 .44 1 1v3 0c0 .55-.45 1-1 1h-7v0c-.56 0-1 .44-1 1 0 .55.44 1 1 1h7v0c.55 0 1 .44 1 1v1.51 0c0 1.59-.64 3.11-1.76 4.24l-3.49 3.48 0 0c-1.13 1.12-2.66 1.75-4.25 1.75h-7.03l0-.001c-1.6-.01-3.12-.64-4.25-1.76l-3.49-3.49h0c-1.13-1.13-1.76-2.66-1.76-4.25V5.959v0c0-2.21 1.79-4 4-4h18v0c2.2 0 4 1.79 4 4v3 0c0 .55-.45 1-1 1Zm-9 30h8v0c.55 0 1 .44 1 1v2.37 0c-.01.39-.16.77-.44 1.06l-1.13 1.12v0c-.29.28-.67.43-1.07.43H29.6h-.001c-.4 0-.78-.16-1.07-.44l-1.13-1.13h-.001c-.29-.29-.44-.67-.44-1.07v-2.38 0c0-.56.44-1 1-1Zm3 8h2v0c.55 0 1 .44 1 1v1 0c-.01 4.41 3.57 7.99 7.99 8 0 0 0 0 0 0h1v0c.55 0 1 .44 1 1v2 0c0 .55-.45 1-1 1h-1v0c-6.63 0-12-5.38-12-12v-1 0c0-.56.44-1 1-1Z" fill="#D3D3D3"/>
</svg>