<svg xmlns="http://www.w3.org/2000/svg" viewBox="0 0 64 64">
  <path fill-rule="evenodd" d="M52 54v0c-1.66 0-3-1.35-3-3 0-1.66 1.34-3 3-3 1.65 0 3 1.34 3 3v0c0 1.65-1.35 3-3 3Zm-1-10h-3v0c-.56 0-1-.45-1-1V17v0c0-.56.44-1 1-1h3v0c1.65 0 3 1.34 3 3v22 0c0 1.65-1.35 3-3 3Zm-9 10v0c-1.66 0-3-1.35-3-3 0-1.66 1.34-3 3-3 1.65 0 3 1.34 3 3v0c0 1.65-1.35 3-3 3Zm2-10H20v0c-.56 0-1-.45-1-1V17v0c0-.56.44-1 1-1h2v-3 0c0-2.77 2.23-5 5-5h10v0c2.76 0 5 2.23 5 5v3h2v0c.55 0 1 .44 1 1v26 0c0 .55-.45 1-1 1Zm-6-31v0c0-.56-.45-1-1-1H27v0c-.56 0-1 .44-1 1v3h12ZM16 44h-3v0c-1.66 0-3-1.35-3-3V19v0c0-1.66 1.34-3 3-3h3v0c.55 0 1 .44 1 1v26 0c0 .55-.45 1-1 1Zm-1 7v0c0 1.65-1.35 3-3 3 -1.66 0-3-1.35-3-3 0-1.66 1.34-3 3-3v0c1.65 0 3 1.34 3 3Zm7-3v0c1.65 0 3 1.34 3 3 0 1.65-1.35 3-3 3 -1.66 0-3-1.35-3-3v0c0-1.66 1.34-3 3-3Zm10 0v0c1.65 0 3 1.34 3 3 0 1.65-1.35 3-3 3 -1.66 0-3-1.35-3-3v0c0-1.66 1.34-3 3-3Z" fill="#D3D3D3"/>
</svg>