<svg xmlns="http://www.w3.org/2000/svg" viewBox="0 0 64 64">
  <path fill-rule="evenodd" d="M35.64 53.38l2.15 3.06v-.001c.3.45.18 1.07-.28 1.38 -.18.11-.39.17-.61.16h-9.84 -.001c-.56.02-1.02-.4-1.05-.96 -.02-.22.04-.43.16-.61l2.15-3.07c-6.44-2.71-15.36-13.9-15.36-24.39 0-12.04 8.5-21.01 19-21.01 10.49-.001 19 8.96 19 21 0 10.48-8.92 21.68-15.36 24.38Zm-9.42-40.31l0-.001c-5.54 2.94-9.07 8.63-9.25 14.9v0c0 .56.46 1.02 1.02 1.02 .01-.01.02-.01.04-.01h2.83v0c.56.01 1.03-.43 1.06-.99 .16-5.45 1.87-10.71 4.959-14.35 .31-.38-.24-.83-.69-.61Z" fill="#D3D3D3"/>
</svg>