<svg xmlns="http://www.w3.org/2000/svg" viewBox="0 0 64 64">
  <path fill-rule="evenodd" d="M54.02 18.02v28 0c0 1.1-.9 2-2 2 -1.11 0-2-.9-2-2v-28 0c0-1.11.89-2 2-2 1.1 0 2 .89 2 2Zm-8-2v0c1.1 0 2 .89 2 2v28 0c0 1.1-.9 2-2 2h-2v0c-1.11 0-2-.9-2-2v-28 0c0-1.11.89-2 2-2Zm-10 0v0c1.1 0 2 .89 2 2v28 0c0 1.1-.9 2-2 2h-1v0c-1.11 0-2-.9-2-2v-28 0c0-1.11.89-2 2-2Zm-5 2v28 0c0 1.1-.9 2-2 2 -1.11 0-2-.9-2-2v-28 0c0-1.11.89-2 2-2 1.1 0 2 .89 2 2Zm-9 0v28 0c0 1.1-.9 2-2 2 -1.11 0-2-.9-2-2v-28 0c0-1.11.89-2 2-2 1.1 0 2 .89 2 2Zm-8-2v0c1.1 0 2 .89 2 2v28 0c0 1.1-.9 2-2 2h-2v0c-1.11 0-2-.9-2-2v-28 0c0-1.11.89-2 2-2Z" fill="#D3D3D3"/>
</svg>