<svg xmlns="http://www.w3.org/2000/svg" viewBox="0 0 64 64">
  <path fill-rule="evenodd" d="M11 17.98h42v0c1.65 0 3 1.34 3 3v10 0c0 1.65-1.35 3-3 3H11v0c-1.66 0-3-1.35-3-3v-10 0c0-1.66 1.34-3 3-3Zm34.09 5.08l3.01 6.02 -.001 0c.27.54.83.89 1.44.89h1.45v0c.55 0 1-.45 1-1v-6 0c0-.56-.45-1-1-1h-5.24v0c-.42-.01-.76.33-.76.74 -.01.11.02.23.07.33Zm-12.01 0l3.01 6.02h-.001c.27.54.83.89 1.44.89h4.69v0c.41-.01.74-.34.74-.76 -.01-.12-.03-.24-.08-.34l-3.01-6.02v0c-.28-.55-.84-.9-1.45-.9h-4.7v0c-.42 0-.75.33-.75.75 0 .11.02.23.07.33Zm-12 0l3.01 6.02h-.001c.27.54.83.89 1.44.89h4.69 0c.41-.01.74-.34.74-.76 -.01-.12-.03-.24-.08-.34l-3.01-6.02v0c-.28-.55-.84-.9-1.45-.9h-4.7v0c-.42 0-.75.33-.75.75 0 .11.02.23.07.33Zm-9.09 5.91v0c0 .55.44 1 1 1h5.24 -.001c.41-.01.74-.34.74-.76 -.01-.12-.03-.24-.08-.34l-3.01-6.02h0c-.28-.55-.84-.9-1.45-.9h-1.46v0c-.56 0-1 .44-1 1Zm1 7h4v0c.55 0 1 .44 1 1v16 0c0 .55-.45 1-1 1h-4v0c-.56 0-1-.45-1-1v-16h0c-.01-.56.44-1 .99-1Zm35 0h4v0c.55 0 1 .44 1 1v16 0c0 .55-.45 1-1 1h-4v0c-.56 0-1-.45-1-1v-16 0c-.01-.56.44-1 .99-1Zm4-20h-4v0c-.56 0-1-.45-1-1v-4 0c0-.56.44-1 1-1h4v0c.55 0 1 .44 1 1v4 0c0 .55-.45 1-1 1 -.01 0-.01-.01-.01-.01Zm-35 0h-4v0c-.56 0-1-.45-1-1v-4 0c0-.56.44-1 1-1h4v0c.55 0 1 .44 1 1v4 0c0 .55-.45 1-1 1 -.01 0-.01-.01-.01-.01Z" fill="#D3D3D3"/>
</svg>