<svg xmlns="http://www.w3.org/2000/svg" viewBox="0 0 64 64">
  <path fill-rule="evenodd" d="M45.07 46.01v0c-5.69.05-11.35-.91-16.69-2.86v0c-.33-.13-.5-.49-.38-.82 .06-.18.19-.31.36-.38l-.001-.001c5.56-1.95 10.87-4.57 15.8-7.8l-.001 0c.93-.88 2.22-1.29 3.5-1.1 8.43 2.06 12.32 2.7 12.32 4.28 0 4.41-7.3 8.64-14.94 8.64Zm-16.73-6.3C18.8 43.36 13.66 43.93 11.85 44v0c-.47 0-.88-.29-1.02-.74 -5.82-17.21-2.21-22.23 6.37-26.01v0c-.44-.69-.24-1.59.44-2.02 .1-.07.22-.13.34-.17l2.91-1.02v-.001c.79-.29 1.67.1 1.98.89h-.001c0 .04.01.09.02.14 8.76-2.78 15.04-1.38 21 15.48v-.001c.16.44.02.94-.34 1.24 -1.44 1.17-5.72 4.21-15.26 7.87Z" fill="#D3D3D3"/>
</svg>