<svg xmlns="http://www.w3.org/2000/svg" viewBox="0 0 64 64">
  <path fill-rule="evenodd" d="M58 34H40l-.001 0c-6.17.01-12.32-.68-18.33-2.06l-.001 0c-5.8-1.33-11.73-1.98-17.68-1.95v0c-1.11 0-2-.9-2-2 0-1.11.89-2 2-2h0c6.21-.03 12.41.66 18.47 2.04h0c5.75 1.32 11.64 1.98 17.54 1.97l11.99-.01v-19.9 -.001c.01-1.15-.91-2.1-2.05-2.11 -.02-.01-.04-.01-.06-.01h0c-.5.02-.97.23-1.32.58v0c-.55.54-.79 1.32-.66 2.08v-.001c.32 1.81-.27 3.67-1.58 4.97 -.67.66-1.56.71-5.14-2.88 -3.59-3.59-3.54-4.48-2.88-5.14v0c1.46-1.46 3.6-2 5.58-1.41v0c.64.18 1.34 0 1.82-.48V5.68c1.12-1.13 2.65-1.76 4.24-1.76h0c3.34.09 6.01 2.83 6 6.17V29.91l1.97-.01V29.9c1.09-.01 1.98.86 2.01 1.95v0c-.01 1.11-.9 2.02-2.02 2.04ZM6.75 31.99v0c4.89.19 9.75.82 14.53 1.88l-.001-.001c6.13 1.42 12.4 2.13 18.7 2.12 3.7 0 13.55-.01 16.24-.01h-.001c.4-.01.73.31.74.71 0 .07-.01.15-.04.22l-2.81 9.36v0c-.65 2.13-2.15 3.9-4.16 4.87v3.82 0c-.01.55-.45 1-1.01 1 -.01-.01-.01-.01-.01-.01h-1.31v-.001c-1.06 0-2.04-.56-2.58-1.46l-1.53-2.55H24.31l-1.53 2.54h-.001c-.55.9-1.52 1.45-2.58 1.45h-1.31v0c-.56 0-1-.45-1-1v-4.75 0c-1.68-1.01-3.08-2.41-4.09-4.09L5.99 33.04h0c-.22-.36-.1-.82.25-1.04 .12-.08.25-.11.39-.11Z" fill="#D3D3D3"/>
</svg>