<svg xmlns="http://www.w3.org/2000/svg" viewBox="0 0 64 64">
  <path fill-rule="evenodd" d="M57.02 37.02v0c-.56 0-1-.45-1-1v-8 0c0-.56.44-1 1-1v0c1.65 0 3 1.34 3 3v4 0c0 1.65-1.35 3-3 3Zm-7 7h-40v0c-2.21 0-4-1.8-4-4v-16 0c0-2.21 1.79-4 4-4h40v0c2.2 0 4 1.79 4 4v16 0c0 2.2-1.8 4-4 4 -.01 0-.01-.01-.01-.01ZM35.91 30.58v0c-.17-.35-.52-.57-.9-.57h-3.56l2.48-6.65v0c.19-.52-.07-1.1-.59-1.29 -.41-.16-.87-.03-1.14.31l-7.99 10v0c-.35.43-.28 1.06.15 1.4 .17.14.39.21.62.21h3.55l-2.49 6.64v0c-.18.46.01.97.44 1.22v0c.14.08.31.13.49.13v-.001c.3 0 .59-.14.78-.38l7.98-10v0c.23-.31.28-.72.11-1.06Z" fill="#D3D3D3"/>
</svg>