<svg xmlns="http://www.w3.org/2000/svg" viewBox="0 0 64 64">
  <path fill-rule="evenodd" d="M59 48h-1.38l0-.001c-.39-.01-.74.21-.92.55l-.45.89h-.001c-.17.33-.52.55-.9.55h-2.77v0c-.38 0-.73-.22-.9-.56l-.45-.9v0c-.17-.34-.52-.56-.89-.56H13.58v-.001c-.39-.01-.74.21-.92.55l-.45.89v0c-.17.33-.52.55-.9.55H8.54v0c-.38-.01-.73-.22-.9-.56l-.45-.9H7.19c-.17-.34-.52-.56-.89-.56H4.92v0c-.56 0-1-.45-1-1v-2 0c0-.56.44-1 1-1h54v0c.55 0 1 .44 1 1v2 0c0 .55-.45 1-1 1Zm-2-6H7v0c-1.66 0-3-1.35-3-3v-6 0c0-1.66 1.34-3 3-3h50v0c1.65 0 3 1.34 3 3v6 0c0 1.65-1.35 3-3 3Zm-2-14h-5v0c-.56 0-1-.45-1-1v-3 0c0-1.11-.9-2-2-2H37v0c-1.11 0-2 .89-2 2v3 0c0 .55-.45 1-1 1h-4v0c-.56 0-1-.45-1-1v-3 0c0-1.11-.9-2-2-2H17v0c-1.11 0-2 .89-2 2v3 0c0 .55-.45 1-1 1H9v0c-.56 0-1-.45-1-1v-9.18 0c-.01-1.34.87-2.51 2.14-2.89l-.001-.001c7.1-2.01 14.46-3.01 21.85-2.95l-.001-.001c7.38-.06 14.74.93 21.85 2.94v-.001c1.27.37 2.14 1.55 2.14 2.88v9.17 0c0 .55-.45 1-1 1Z" fill="#D3D3D3"/>
</svg>