<svg xmlns="http://www.w3.org/2000/svg" viewBox="0 0 64 64">
  <path fill-rule="evenodd" d="M39 46.02c0-9.48 6-18.64 6-27v0c-.05-3.57-.76-7.1-2.09-10.4v0c-.16-.37-.52-.61-.92-.61H21.98v0c-.4-.01-.76.23-.92.6l0-.001c-1.34 3.3-2.04 6.83-2.09 10.39 0 8.37 6 17.52 6 27l0 0c0 2.94-.65 5.85-1.89 8.53v0c-.26.48-.07 1.09.42 1.35 .14.07.3.11.46.11h16v0c.55-.01 1-.45.99-1.01 -.01-.17-.04-.33-.12-.47h-.001c-1.25-2.68-1.89-5.59-1.89-8.54Zm-15.44-28h-.001c-.28-.01-.51-.23-.51-.51 0-.02 0-.03 0-.04l-.001-.001c.14-1.74.45-3.45.94-5.11h0c.06-.22.25-.36.47-.36h15.02v0c.22-.01.41.14.47.35v0c.48 1.66.8 3.37.94 5.11v0c.01.27-.2.51-.48.53 -.02 0-.03 0-.04 0Z" fill="#D3D3D3"/>
</svg>