<svg xmlns="http://www.w3.org/2000/svg" viewBox="0 0 64 64">
  <path fill-rule="evenodd" d="M36.99 60h-10v0c-2.21-.01-4-1.8-4-4v-3 0c0-.56.44-1 1-1h15.99v0c.55 0 1 .44 1 1v3h0c0 2.2-1.8 3.99-4 4Zm2.99-10h-16v0c-.56 0-1-.45-1-1V33v0c0-.56.44-1 1-1h15.99v0c.55 0 1 .44 1 1v16 0c0 .55-.45 1-1 1ZM23.71 30v0c-.42 0-.75-.34-.76-.75 -.01-.01 0-.02 0-.03 .26-6.16 3.68-6.92 3.98-10.24 .19-2.1.37-5.26.57-7.93v0c.01-.27-.08-.52-.27-.7v0 0c-.24-.24-.34-.57-.28-.9l.67-3.11h0c.04-.23-.06-.46-.25-.59v0V5.74c-.28-.19-.44-.49-.44-.82v0 0c-.01-.54.43-.98.97-.98h8.04v0c.53 0 .97.43.97.97v0 0c0 .32-.17.63-.44.81v0 0c-.2.12-.29.35-.25.58l.67 3.11v0c.06.32-.05.65-.28.89v0 0c-.19.18-.29.43-.27.7 .19 2.67.37 5.82.57 7.92 .3 3.311 3.71 4.07 3.98 10.23v0c.01.41-.32.75-.73.76 -.01 0-.02 0-.03 0Z" fill="#D3D3D3"/>
</svg>