<svg xmlns="http://www.w3.org/2000/svg" viewBox="0 0 64 64">
  <path d="M52.21 43.31v0c-2.12-.56-3.63-2.42-3.74-4.6l-1.76-14.75 -.001 0c-.73-5.96-5-10.88-10.79-12.44v0c-.25-2.19-2.22-3.76-4.4-3.51 -1.85.2-3.31 1.66-3.51 3.5v0c-3.27.89-6.13 2.86-8.11 5.6v0c-.28.39-.23.93.11 1.27l28.99 29v0c.37.37.88.58 1.41.58h1.11v0c1.31.01 2.39-1.05 2.41-2.36 .01-1.09-.72-2.05-1.77-2.34ZM37.48 50h-11v0c-.28-.01-.51.21-.51.49 -.01.01 0 .02 0 .03l-.001-.001c.3 3.31 3.24 5.75 6.56 5.44 2.89-.27 5.18-2.56 5.44-5.45h0c.01-.28-.2-.52-.48-.53 -.02-.01-.03-.01-.04-.01Zm-.45-3.29L18.02 27.69h0c-.3-.3-.77-.3-1.07 0 -.12.11-.2.27-.22.44l-1.26 10.56v0c-.11 2.18-1.62 4.04-3.74 4.6v0c-1.28.34-2.03 1.65-1.69 2.92 .28 1.05 1.24 1.77 2.33 1.76h24.09v0c.41-.01.74-.34.74-.76 -.01-.2-.08-.39-.22-.53ZM11.4 12.53v-.001c-.79-.79-2.05-.79-2.84 0 -.79.78-.79 2.04 0 2.83l40.02 40.03v0c.78.78 2.04.78 2.83-.01 .78-.79.78-2.05-.01-2.84Z" fill="#D3D3D3"/>
</svg>