<svg xmlns="http://www.w3.org/2000/svg" viewBox="0 0 64 64">
  <path fill-rule="evenodd" d="M51.02 50.02v-.001c-6.07 0-11-4.91-11-10.98 -.01-3.17 1.35-6.18 3.72-8.27l-1.82-3.03 -8.25 12.37h-.001c-.38.55-1 .89-1.67.89h-8.2v0c-1.11 5.97-6.85 9.92-12.82 8.81 -5.98-1.11-9.93-6.85-8.82-12.82 1.1-5.98 6.84-9.93 12.81-8.82 .8.14 1.59.38 2.34.7l3.3-4.95 -2.37-3.95h-1.07v0c-1.14-.01-2.18-.65-2.69-1.66l-.45-.9v0c-.25-.5-.05-1.1.44-1.35 .13-.07.29-.11.44-.11h8.77v0c1.13-.01 2.17.64 2.68 1.65l.44.89v0c.24.49.04 1.09-.45 1.34 -.14.06-.3.1-.45.1h-3.05l1.2 2h14.33l-3.6-6h-4.67v0c-1.14-.01-2.18-.65-2.69-1.66l-.45-.9v0c-.25-.5-.05-1.1.44-1.35 .13-.07.29-.11.44-.11h8.03v0c.7 0 1.35.36 1.71.97l9.44 15.73v0c5.68-2.13 12.02.76 14.14 6.44 2.12 5.68-.77 12.02-6.45 14.14 -1.24.46-2.54.69-3.86.69Zm-38-18v0c-3.87-.01-7.01 3.13-7.01 6.99 -.01 3.86 3.13 7 6.99 7 3.09 0 5.82-2.04 6.71-5H13v0c-1.11 0-2.01-.9-2.01-2 -.01-.4.11-.79.33-1.12l3.72-5.59v0c-.67-.21-1.36-.31-2.06-.31Zm5.38 2.53l-1.65 2.46h2.96V37c-.27-.91-.72-1.75-1.33-2.47Zm4.52-6.8l-2.26 3.38v-.001c1.63 1.58 2.73 3.64 3.15 5.88h4.65Zm3.62-1.74l5.55 9.26L38.26 26Zm24.46 6v0c-.59 0-1.17.07-1.74.22l3.44 5.74h-.001c.56.94.26 2.17-.69 2.74 -.95.56-2.18.26-2.75-.69l-3.45-5.75v0c-2.6 2.85-2.39 7.27.46 9.87 2.85 2.59 7.27 2.38 9.87-.47 2.59-2.86 2.38-7.28-.47-9.88 -1.29-1.18-2.98-1.83-4.72-1.82Z" fill="#D3D3D3"/>
</svg>