<svg xmlns="http://www.w3.org/2000/svg" viewBox="0 0 64 64">
  <path fill-rule="evenodd" d="M25.99 34l0 0c1.72 0 3.4-.57 4.78-1.61h0c.72-.53 1.7-.53 2.43 0v-.001c3.52 2.65 8.53 1.94 11.18-1.58 1.04-1.39 1.6-3.08 1.6-4.82 0-4.42-1.45-7.06-3.01-12l0 0c-.76-2.36-1.38-4.76-1.86-7.19v0c-.09-.48-.51-.82-.99-.82h-2.17 0c-.55-.01-1 .43-1.01.98 -.01.05 0 .11.01.17 .23 1.35.88 3.8 1.62 6.83l-.001-.001c.36 1.52.81 3.02 1.33 4.5v0c.1.31.04.66-.17.92v-.001c-2.13 2.67-4.53 5.12-7.16 7.31v0c-.38.29-.91.29-1.28 0v-.001c-2.64-2.19-5.04-4.64-7.16-7.31v0c-.21-.26-.27-.61-.17-.93h-.001c.52-1.48.96-2.99 1.33-4.51 .73-3.04 1.38-5.48 1.62-6.84h0c.09-.55-.28-1.06-.82-1.16 -.06-.01-.12-.02-.18-.02h-2.17l-.001-.001c-.49-.01-.9.34-.99.81l0 0c-.49 2.42-1.11 4.82-1.86 7.18 -1.56 4.94-3.01 7.58-3.01 12v0c0 4.41 3.58 8 8 8Zm18.73 8h-.001c-4.22.61-8.47.94-12.73.99l-.001 0c-4.26-.05-8.52-.38-12.73-1v0c-.55-.08-1.06.31-1.13.85 -.01.02-.01.05-.01.08l-.15 2.94v0c-.03.53.37.99.91 1.04v0c5.29.42 9.52 4.58 10.02 9.87v-.001c.04.41.34.75.75.86h-.001c.76.19 1.54.29 2.32.32h-.001c.78-.03 1.56-.14 2.32-.33v0c.4-.11.7-.45.75-.87h-.001c.49-5.29 4.72-9.46 10.02-9.88h0c.53-.06.93-.52.91-1.05l-.15-2.95v0c-.03-.56-.5-.98-1.05-.95 -.03 0-.06 0-.09 0Z" fill="#D3D3D3"/>
</svg>