<svg xmlns="http://www.w3.org/2000/svg" viewBox="0 0 64 64">
  <path fill-rule="evenodd" d="M46.01 54.02c-5.53 0-10-4.03-10-9v-2.23h-.001c-2.57-1.04-5.44-1.04-8 0v2.22c0 4.97-4.48 9-10 9 -5.53 0-10-4.03-10-9v-10h0c.07-3.33 2-6.34 5-7.79V23c0-3.57 3.05-6.51 7-6.94V14c0-2.21 2.23-4 5-4 2.76 0 5 1.79 5 4v2.19 0c1.32-.27 2.67-.27 4 0v-2.2c0-2.21 2.23-4 5-4 2.76 0 5 1.79 5 4v2.06c3.94.43 7 3.37 7 6.94v4.21 0c2.99 1.45 4.92 4.45 5 7.78v10c0 4.97-4.48 9-10 9Zm-28-14c-3.32 0-6 2.23-6 5 0 2.76 2.68 5 6 5 3.31 0 6-2.24 6-5 0-2.77-2.69-5-6-5Zm18-14.61v0c-.05-.46-.37-.83-.82-.93v0c-2.08-.63-4.3-.63-6.38 0v0c-.45.09-.78.47-.82.92v4.11c0 .35.47.59.91.45l-.001-.001c2.01-.59 4.15-.59 6.16 0 .44.13.91-.1.91-.46Zm10 14.6c-3.32 0-6 2.23-6 5 0 2.76 2.68 5 6 5 3.31 0 6-2.24 6-5 0-2.77-2.69-5-6-5Z" fill="#D3D3D3"/>
</svg>