<svg xmlns="http://www.w3.org/2000/svg" viewBox="0 0 64 64">
  <path fill-rule="evenodd" d="M50 59c-3.74 0-6.33-1.28-7.41-3.48v0c-.18-.34-.53-.54-.9-.53h-11.7v0c-8.84 0-16-7.17-16-16v-2 0c0-.56.44-1 1-1h2v0c.55 0 1 .44 1 1v2 0c0 6.62 5.37 11.99 12 11.99h11.69v0c.37 0 .72-.2.89-.53 1.08-2.21 3.67-3.48 7.4-3.48 5 0 8 2.25 8 6s-3 6-8 6Zm-8-22v-8.52 0c0-.42-.25-.79-.64-.94v0c-4.18-1.46-6.38-6.02-4.92-10.19 1.45-4.18 6.01-6.38 10.18-4.92 4.17 1.45 6.37 6.01 4.91 10.18 -.81 2.3-2.62 4.11-4.92 4.91v0c-.39.14-.65.52-.64.93v8.51 0c0 5.52-4.48 10-10 10 -5.53 0-10-4.48-10-10v0c0-.56.44-1 1-1h2v0c.55 0 1 .44 1 1v0c0 3.31 2.68 6 6 6 3.31 0 6-2.69 6-6Zm3.28-18.1l-3.95-2.76v0c-.39-.27-.91-.18-1.18.2 -.21.28-.21.67-.01.96l2.76 3.94v0c.53.76 1.59.95 2.35.41s.95-1.6.41-2.36c-.12-.17-.26-.31-.42-.42ZM31.99 33.99h-6.37 0c-.35 0-.63-.28-.63-.62 -.01-.16.05-.32.16-.43h-.001c1.81-1.86 2.83-4.36 2.82-6.96v-12h-.001c0-2.6-1.02-5.1-2.83-6.96v0c-.24-.26-.22-.65.03-.88 .11-.11.26-.17.42-.17h6.36v0c1.1 0 2 .89 2 2v24 0c0 1.1-.9 2-2 2Zm-6-8v0c0 4.41-3.59 8-8 8h-6v0c-1.11 0-2-.9-2-2v-24 0c0-1.11.89-2 2-2h6v0c4.41 0 8 3.58 8 8Z" fill="#D3D3D3"/>
</svg>