<svg xmlns="http://www.w3.org/2000/svg" viewBox="0 0 64 64">
  <path fill-rule="evenodd" d="M32.02 58.02c-11.89 0-18-7.8-18-26 0-18.21 6.11-26 18-26 11.88 0 18 7.79 18 26 0 18.2-6.12 26-18 26Zm10.4-36.42l-9.01-9.001v-.001c-.79-.79-2.05-.79-2.83 0 -.38.37-.59.88-.59 1.41v13.17l-5.59-5.59h-.001c-.79-.79-2.05-.79-2.83-.01 -.79.78-.79 2.04-.01 2.82l7.59 7.58 -7.6 7.58v0c-.79.78-.79 2.04 0 2.82 .78.78 2.04.78 2.82-.01l5.59-5.59v13.17 0c0 1.1.89 2 2 2 .53-.01 1.03-.22 1.41-.59l9-9.01v0c.78-.79.78-2.05 0-2.83 -.01-.01-.01-.01-.01-.01l-7.56-7.59 7.55-7.59v0c.78-.79.78-2.05 0-2.83 -.01-.01-.01-.01-.01-.01ZM34 18.84l4.17 4.17 -4.18 4.17Zm0 26.34v-8.35L38.17 41Z" fill="#D3D3D3"/>
</svg>