<svg xmlns="http://www.w3.org/2000/svg" viewBox="0 0 64 64">
  <path fill-rule="evenodd" d="M56.02 56.02h-.001c-1.71.03-3.4-.39-4.9-1.22v0c-1.94-1.06-4.28-1.06-6.22 0v0c-3.07 1.61-6.73 1.61-9.79 0v0c-.95-.55-2.02-.83-3.11-.79v0c-1.09-.04-2.17.23-3.11.78v-.001c-1.5.82-3.19 1.24-4.9 1.21h-.001c-1.71.03-3.4-.39-4.9-1.22l-.001 0c-.95-.55-2.02-.83-3.11-.79v-.001c-1.09-.04-2.17.23-3.11.78h0c-1.5.82-3.19 1.24-4.9 1.21v0c-1.11 0-2-.9-2-2 0-1.11.89-2 2-2v0c1.08.03 2.16-.24 3.1-.79l-.001-.001c1.49-.83 3.18-1.25 4.89-1.22l-.001 0c1.7-.04 3.39.38 4.89 1.21v0c.94.54 2.01.82 3.1.78v0c1.08.03 2.16-.24 3.1-.79v-.001c1.49-.83 3.18-1.25 4.89-1.22v0c1.7-.04 3.39.38 4.89 1.21v0c1.93 1.05 4.27 1.05 6.21 0h0c3.06-1.62 6.72-1.62 9.78 0v-.001c.94.54 2.01.82 3.1.78v0c1.1 0 2 .89 2 2 0 1.1-.9 2-2 2Zm-13.79-6.58l-.001-.001c-1.38.77-3.06.77-4.43-.01v0c-1.78-.97-3.77-1.46-5.79-1.42v0c-2.03-.04-4.02.45-5.79 1.42h-.001c-.67.4-1.44.61-2.21.57v0c-.78.03-1.56-.17-2.22-.58h-.001c-1.42-.76-2.97-1.23-4.57-1.36v0c-.5-.05-.94-.35-1.16-.8 -1.91-3.7-4.1-9.18-4.07-13.54v-.001c.02-.92.66-1.7 1.56-1.89l2.68-.61L18.47 15.4v0c.28-1.98 1.96-3.44 3.96-3.44h2.03l.28-2.25v0c.12-1.01.97-1.76 1.98-1.76h10.46v0c1-.01 1.85.75 1.98 1.75l.28 2.24h2.03v-.001c1.99-.01 3.67 1.46 3.96 3.43l2.25 15.81 2.68.6v0c.89.18 1.54.97 1.56 1.88 .02 4.35-2.16 9.84-4.064 13.53v-.001c-.23.44-.67.74-1.16.79v-.001c-1.6.13-3.16.6-4.57 1.36Zm-.56-32.57h-.001c-.08-.5-.5-.86-.99-.86H23.34v0c-.5-.01-.92.36-.99.85l-1.93 13.45 9.4-2.11v-.001c1.42-.32 2.91-.32 4.33 0l9.4 2.1Z" fill="#D3D3D3"/>
</svg>