<svg xmlns="http://www.w3.org/2000/svg" viewBox="0 0 64 64">
  <path fill-rule="evenodd" d="M62 47v0c0 1.65-1.35 3-3 3H5v0c-1.66 0-3-1.35-3-3V23v0 0c0-1.66 1.34-3 3-3h4v-5 0c0-2.77 2.23-5 5-5h36v0c2.76 0 5 2.23 5 5v5h4v0c1.65 0 3 1.34 3 3v0ZM26 36v0c0 1.1.89 2 2 2h8v0c1.1 0 2-.9 2-2v-6 0c0-1.11-.9-2-2-2h-8v0c-1.11 0-2 .89-2 2ZM5 35v0c0 4.97 4.02 9 9 9 4.97 0 9-4.03 9-9 0-4.98-4.03-9-9-9v0c-4.98 0-9 4.02-9 9Zm46-20v0c0-.56-.45-1-1-1H14v0c-.56 0-1 .44-1 1v5h5v0c0-1.11.89-2 2-2h4v0c1.1 0 2 .89 2 2h2v0c0-1.11.89-2 2-2h4v0c1.1 0 2 .89 2 2h2v0c0-1.11.89-2 2-2h4v0c1.1 0 2 .89 2 2h5Zm-1 11v0c-4.98 0-9 4.02-9 9 0 4.97 4.02 9 9 9 4.97 0 9-4.03 9-9v0c0-4.98-4.03-9-9-9Zm0 12v0c-1.66 0-3-1.35-3-3 0-1.66 1.34-3 3-3 1.65 0 3 1.34 3 3v0c0 1.65-1.35 3-3 3Zm-33-3v0c0 1.65-1.35 3-3 3 -1.66 0-3-1.35-3-3 0-1.66 1.34-3 3-3v0c1.65 0 3 1.34 3 3Z" fill="#D3D3D3"/>
</svg>