<svg xmlns="http://www.w3.org/2000/svg" viewBox="0 0 64 64">
  <path fill-rule="evenodd" d="M37.02 22.03v-.001c-.57-.02-1.02-.48-1.01-1.05 0-.21.06-.41.18-.58l6.98-9.98v-.001c.31-.46.93-.57 1.38-.26 .09.06.18.15.25.25l6.98 9.97v0c.32.46.22 1.1-.25 1.43 -.17.12-.38.18-.58.18h-4.99v5.67c0 2.67-3.04 7.18-4.93 9.07l-5.314 5.314v0c-1.13 1.12-1.77 2.65-1.76 4.24v5.68 0c0 1.1-.9 2-2 2 -1.11 0-2-.9-2-2v-5.69 0c0-1.6-.63-3.12-1.76-4.25L22.882 36.7c-1.89-1.89-4.93-6.4-4.93-9.07v-5.68h-5v-.001c-.57-.02-1.02-.48-1.01-1.05 0-.21.06-.41.18-.58l6.98-9.98H19.1c.31-.46.93-.57 1.38-.26 .09.06.18.15.25.25l6.98 9.97v0c.32.46.22 1.1-.25 1.43 -.17.11-.37.18-.58.18h-4.99v5.67l0-.001c-.01 1.59.62 3.11 1.75 4.24l7.31 7.314v0c.33.34.64.7.92 1.08v0c.28-.39.59-.75.92-1.09L40.1 31.81v0c1.12-1.13 1.76-2.66 1.75-4.25v-5.68Z" fill="#D3D3D3"/>
</svg>