<svg xmlns="http://www.w3.org/2000/svg" viewBox="0 0 64 64">
  <path fill-rule="evenodd" d="M57.02 34.02h-4v0c-1.11 0-2-.9-2-2 0-1.11.89-2 2-2h4v0c1.1 0 2 .89 2 2 0 1.1-.9 2-2 2Zm-44-2v0c0 1.1-.9 2-2 2h-4v0c-1.11 0-2-.9-2-2 0-1.11.89-2 2-2h4v-.001c1.1-.01 2 .89 2 1.99 0 0 0 0 0 0Zm38.22 19.22v0c-.79.78-2.05.78-2.83 0l-2.83-2.83h0c-.79-.79-.79-2.05 0-2.83 .78-.79 2.04-.79 2.82 0l2.82 2.82 0-.001c.78.78.78 2.04 0 2.82 -.01 0-.01 0-.01 0Zm-2.81-38.47v-.001c.78-.79 2.04-.79 2.82 0 .78.78.78 2.04 0 2.82l-2.83 2.82v0c-.79.77-2.06.76-2.83-.03 -.77-.78-.77-2.03 0-2.81ZM30.01 57.01v-4H30c0-1.11.89-2 2-2 1.1 0 1.99.89 1.99 1.99v4 0c0 1.1-.9 2-2 2 -1.11 0-2-.9-2-2ZM18.44 45.57v0c.78.78.78 2.04 0 2.82l-2.83 2.86v0c-.79.77-2.06.76-2.83-.03 -.77-.78-.77-2.03 0-2.81l2.82-2.86h0c.78-.79 2.04-.79 2.82 0Zm-5.69-32.82v0c.78-.79 2.04-.79 2.82-.01 0 0 0 0 0 0l2.82 2.82h0c.78.78.78 2.04 0 2.82 -.79.78-2.05.78-2.83 0l-2.83-2.83 -.001 0c-.79-.79-.79-2.05-.01-2.83 0-.01 0-.01 0-.01Zm17.24-1.76v-4h-.001c-.01-1.11.89-2 1.99-2.01 1.1-.01 2 .89 2 1.99 0 0 0 0 0 0v4 0c0 1.1-.9 2-2 2 -1.11 0-2-.9-2-2Zm18 21v0c0 8.83-7.17 16-16 16 -8.84 0-16-7.17-16-16 0-8.84 7.16-16 16-16v0c8.83 0 15.99 7.16 15.99 15.99 -.01 0-.01 0-.01 0Zm-16-12.01v0c-6.63 0-12.01 5.37-12.01 12 0 6.62 5.37 12 12 12 6.62-.01 12-5.38 12-12.01v0c0-6.63-5.38-12.01-12-12.01 -.01-.01-.01-.01-.01-.01Z" fill="#D3D3D3"/>
</svg>