<svg xmlns="http://www.w3.org/2000/svg" viewBox="0 0 64 64">
  <path fill-rule="evenodd" d="M46.26 56h-6.63v0c-.37-.01-.68-.27-.74-.63l-.82-4.88v0c-.06-.33-.36-.54-.68-.49 -.26.04-.45.23-.49.48l-.82 4.88v0c-.07.36-.38.62-.74.62H17.72v0c-.42 0-.76-.34-.76-.75 -.01-.03 0-.06 0-.09l1.31-12.28v0c.05-.51.48-.9.99-.9h25.38v0c.51-.01.94.38.99.89l1.31 12.27h-.001c.04.41-.26.78-.67.82 -.03 0-.06 0-.09 0Zm-1.01-16H18.74v-.001c-.42 0-.76-.34-.76-.75 -.01-.05 0-.09.01-.13l.23-1.39v0c.07-.47.36-.87.78-1.09l10.16-5.24v0c.49-.26.8-.78.8-1.33V3.96v0c0-1.11.89-2.01 2-2.01 1.1 0 2 .89 2 2v26.09 -.001c-.01.55.31 1.07.8 1.33l10.16 5.23 0-.001c.41.21.7.61.78 1.08l.23 1.38v0c.06.4-.21.79-.62.86 -.05 0-.09.01-.13.01Z" fill="#D3D3D3"/>
</svg>