<svg xmlns="http://www.w3.org/2000/svg" viewBox="0 0 64 64">
  <path fill-rule="evenodd" d="M8.01 38.03V25.52v0c-.01-2.39.97-4.67 2.69-6.31l9.18-8.79v0C21.5 8.86 23.66 8 25.91 8h12.73v0c2.32 0 4.54.92 6.18 2.56l8.62 8.65h0c1.62 1.63 2.54 3.85 2.54 6.15v12.75 0c-.01 2.24-.87 4.4-2.42 6.03l-8.74 9.13v0c-1.65 1.72-3.93 2.69-6.31 2.69H25.98v0c-2.31-.01-4.53-.92-6.16-2.55l-9.29-9.26v0c-1.65-1.64-2.57-3.87-2.57-6.19Zm13.58 1.55h0c-.78.78-.78 2.05.01 2.83 .77.77 2.03.77 2.81 0l7.57-7.58 7.58 7.58 -.001-.001c.78.77 2.05.76 2.83-.02 .77-.78.77-2.04 0-2.82l-7.59-7.59 7.61-7.62v0c.77-.79.76-2.06-.02-2.84 -.78-.78-2.04-.78-2.82 0l-7.62 7.61 -7.61-7.61v0c-.8-.78-2.06-.76-2.84.03 -.76.77-.76 2.01 0 2.79l7.6 7.6Z" fill="#D3D3D3"/>
</svg>