<svg xmlns="http://www.w3.org/2000/svg" viewBox="0 0 32 32">
  <path fill-rule="evenodd" d="M54 37h-9.06l0-.01c-.06 1-.18 2-.34 2.99h1.39l-.01 0c4.41-.01 8 3.58 8 8v0 0c0 1.1-.9 2-2 2 -1.11 0-2-.9-2-2v0 0c0-2.21-1.8-4-4-4h-2.44c-1.81 4.84-5.2 7.6-9.45 8l0-.01c-.56.05-1.06-.36-1.11-.91 -.01-.04-.01-.07-.01-.1V22.95l-.01-.01c-.01-.56.43-1.01.99-1.01 .01-.01.02 0 .03 0 4.39.17 7.23 1.49 8.92 4.01h3.05l-.01-.001c2.2 0 4-1.8 4-4v0l0 0c-.01-1.11.89-2 2-2 1.1-.01 2 .89 2 2 0 0 0 0 0 0v0 0c0 4.41-3.59 8-8 8h-1.47l0 0c.2.98.33 1.99.39 2.99h9.06 -.01c1.1-.01 2 .89 2 2 0 1.1-.9 2-2 2ZM32 20c-7.91 0-9-1.26-9-3.6l-.01 0c.16-4.81 4.19-8.57 8.99-8.41l-.01 0c4.8-.17 8.83 3.59 9 8.4 0 2.34-1.1 3.6-9 3.6Zm-1 2.99v28l0-.01c-.01.55-.46 1.01-1.02 1 -.04-.01-.07-.01-.1-.01 -4.26-.41-7.65-3.16-9.45-8.01h-2.44l-.01 0c-2.21 0-4 1.79-4 4 0 0 0 0 0 0v0 0c0 1.1-.9 2-2 2 -1.11 0-2-.9-2-2v0l0 0c-.01-4.42 3.58-8 8-8h1.39l0 0c-.17-1-.28-2-.34-3H9.97h-.01c-1.11-.01-2-.9-2-2 0-1.11.89-2 2-2h9.06l0-.01c.05-1.01.19-2.02.39-3h-1.47l-.01-.001c-4.42-.01-8-3.59-8-8 0 0 0-.001 0-.001v0l0 0c-.01-1.11.89-2 2-2 1.1-.01 2 .89 2 2 0 0 0 0 0 0v0l0 0c0 2.2 1.79 4 4 4 0 0 0 0 0 0h3.05c1.69-2.52 4.53-3.84 8.92-4.01l-.01 0c.55-.02 1 .42 1.02.97 0 .01 0 .02 0 .03Z" transform="scale(0.5,0.5)" fill="#D3D3D3"/>
</svg>