<svg xmlns="http://www.w3.org/2000/svg" viewBox="0 0 64 64">
  <path fill-rule="evenodd" d="M55 56h-2v0c-.56 0-1-.45-1-1v-4.5 0c0-.28-.23-.5-.5-.5h-7v0c-.28 0-.5.22-.5.5V55v0c0 .55-.45 1-1 1h-2v0c-.56 0-1-.45-1-1v-4.5 0c0-.28-.23-.5-.5-.5h-27v0c-.28 0-.5.22-.5.5V55v0c0 .55-.45 1-1 1H9v0c-.56 0-1-.45-1-1V9v0c0-.56.44-1 1-1h2v0c.55 0 1 .44 1 1v8.5 0c0 .27.22.5.5.5h1v0c.27 0 .5-.23.5-.5V16v0c0-1.11.89-2 2-2h8v0c1.1 0 2 .89 2 2v1.5 0c0 .27.22.5.5.5h25v0c.27 0 .5-.23.5-.5V13v0c0-.56.44-1 1-1h2v0c.55 0 1 .44 1 1v42 0c0 .55-.45 1-1 1ZM40 24H12.5v0c-.28 0-.5.22-.5.5v19 0c0 .27.22.5.5.5h1v0c.27 0 .5-.23.5-.5V42v0c0-1.11.89-2 2-2h8v0c1.1 0 2 .89 2 2v1.5 0c0 .27.22.5.5.5h13v0c.27 0 .5-.23.5-.5Zm11.5 0h-7v0c-.28 0-.5.22-.5.5v3 0c0 .27.22.5.5.5h7v0c.27 0 .5-.23.5-.5v-3 0c0-.28-.23-.5-.5-.5Zm0 8h-7v0c-.28 0-.5.22-.5.5v3 0c0 .27.22.5.5.5h7v0c.27 0 .5-.23.5-.5v-3 0c0-.28-.23-.5-.5-.5Zm0 8h-7v0c-.28 0-.5.22-.5.5v3 0c0 .27.22.5.5.5h7v0c.27 0 .5-.23.5-.5v-3 0c0-.28-.23-.5-.5-.5Z" fill="#D3D3D3"/>
</svg>