<svg xmlns="http://www.w3.org/2000/svg" viewBox="0 0 64 64">
  <path fill-rule="evenodd" d="M54 30h-1.41l.36 5.65h0c.14 2.2-.18 4.41-.93 6.49l-1.44 3.94h0c1.05.32 1.64 1.44 1.31 2.49 -.26.83-1.04 1.4-1.91 1.4h-36v0c-1.11 0-2-.89-2.01-1.99 -.01-.88.56-1.66 1.4-1.92l-1.44-3.95v0c-.76-2.08-1.08-4.3-.93-6.5l.36-5.66H9.95v0c-1.11 0-2-.9-2-2v-6 0c0-1.11.89-2 2-2H12l.53-8.26h-.001c.13-2.11 1.88-3.75 3.99-3.75h30.85v0c2.1 0 3.85 1.63 3.99 3.74l.53 8.25h2.05v0c1.1 0 2 .89 2 2v6 0c0 1.1-.9 2-2 2ZM44 44v0c1.65 0 3-1.35 3-3 0-1.66-1.35-3-3-3 -1.66 0-3 1.34-3 3v0c0 1.65 1.34 3 3 3Zm-24 0v0c1.65 0 3-1.35 3-3 0-1.66-1.35-3-3-3 -1.66 0-3 1.34-3 3v0c0 1.65 1.34 3 3 3Zm-4.08-25.07l-.92 14h-.001c-.04.55.39 1.03.94 1.06 .02 0 .04 0 .06 0h12.96 0c.55 0 1.01-.45 1.01-1v-14 0c-.01-.56-.46-1.01-1.02-1H16.89l-.001-.001c-.54-.01-.98.4-1.02.93Zm22.07-7.94h-12v0c-1.11 0-2 .89-2 2 0 1.1.89 2 2 2h12v0c1.1 0 2-.9 2-2 0-1.11-.9-2-2-2Zm9.06 7H34.99v0c-.56-.01-1.02.44-1.02 1v14h0c0 .55.45 1 1.01 1h12.96v0c.55 0 1-.45 1.01-1 0-.03-.01-.05-.01-.07l-.92-14h0c-.04-.53-.49-.94-1.02-.94Zm-32.07 34h6v0c.55 0 1 .44 1 1v1 0c0 1.1-.9 2-2 2h-4v0c-1.11 0-2-.9-2-2v-1 0c0-.56.44-1 1-1Zm28 0h6v0c.55 0 1 .44 1 1v1 0c0 1.1-.9 2-2 2h-4v0c-1.11 0-2-.9-2-2v-1 0c0-.56.44-1 1-1Z" fill="#D3D3D3"/>
</svg>