<svg xmlns="http://www.w3.org/2000/svg" viewBox="0 0 64 64">
  <path fill-rule="evenodd" d="M51 36h-1v12 0c0 2.2-1.8 4-4 4H18v0c-2.21 0-4-1.8-4-4V36h-1v0c-1.11 0-2-.9-2-2v-6 0c0-1.11.89-2 2-2h1v-4l1.62-11.4v0c.22-1.65 1.45-2.98 3.07-3.34l-.001-.001c4.37-.9 8.83-1.33 13.29-1.27v0c4.46-.06 8.92.36 13.29 1.26v0c1.61.36 2.84 1.69 3.07 3.33l1.62 11.4v4h1v0c1.1 0 2 .89 2 2v6 0c0 1.1-.9 2-2 2ZM21 48v0c1.65 0 3-1.35 3-3 0-1.66-1.35-3-3-3 -1.66 0-3 1.34-3 3v0c0 1.65 1.34 3 3 3Zm23.99-30l-.59-4.29v0c-.13-.98-.95-1.71-1.93-1.721H21.49v0c-.98.01-1.81.74-1.93 1.71l-.6 4.28v0c-.15.94.5 1.83 1.44 1.97 .07.01.15.01.23.01h22.64v-.001c.95-.02 1.71-.81 1.7-1.77 -.01-.08-.01-.16-.02-.23Zm1 9.99v0c0-1.11-.9-2-2-2h-24v0c-1.11 0-2 .89-2 2v8 0c0 1.1.89 2 2 2h24v0c1.1 0 2-.9 2-2Zm-3 14v0c-1.66 0-3 1.34-3 3 0 1.65 1.34 3 3 3 1.65 0 3-1.35 3-3v0c0-1.66-1.35-3-3-3Zm-26 12h6v0c.55 0 1 .44 1 1v1 0c0 1.1-.9 2-2 2h-4v0c-1.11 0-2-.9-2-2v-1 0c0-.56.44-1 1-1Zm24 0h6v0c.55 0 1 .44 1 1v1 0c0 1.1-.9 2-2 2h-4v0c-1.11 0-2-.9-2-2v-1 0c0-.56.44-1 1-1Z" fill="#D3D3D3"/>
</svg>