<svg xmlns="http://www.w3.org/2000/svg" viewBox="0 0 64 64">
  <path fill-rule="evenodd" d="M53.02 30.02h-1.37l.16 1.83q.19 2.16.19 4.34v9.82 0c0 2.2-1.8 4-4 4H16v0c-2.21 0-4-1.8-4-4v-9.83q0-2.18.19-4.35l.16-1.84h-1.37v0c-1.11 0-2-.9-2-2v-6 0c0-1.11.89-2 2-2h2.27l.53-5.85v0c.12-1.44 1.02-2.7 2.34-3.29l-.001-.001c5.05-1.97 10.43-2.94 15.85-2.87l-.001 0c5.41-.07 10.8.9 15.85 2.86v0c1.31.59 2.21 1.84 2.34 3.28l.53 5.84h2.27v0c1.1 0 2 .89 2 2v6 0c0 1.1-.9 1.99-2 2Zm-8 14v0c1.65 0 3-1.35 3-3 0-1.66-1.35-3-3-3 -1.66 0-3 1.34-3 3v0c0 1.65 1.34 3 3 3Zm-26 0v0c1.65 0 3-1.35 3-3 0-1.66-1.35-3-3-3 -1.66 0-3 1.34-3 3v0c-.01 1.65 1.34 3 3 3 0 0 0-.01 0-.01Zm19-33h-12v0c-1.11 0-2 .89-2 2 0 1.1.89 2 2 2h12v0c1.1 0 2-.9 2-2 0-1.11-.9-2-2-2Zm10 21.19l-1.14-12.38v0c-.11-1.04-.98-1.83-2.02-1.82H19.15l0-.001c-1.05-.01-1.92.78-2.02 1.81l-1.14 12.37v0c-.08.91.6 1.72 1.51 1.8 .05 0 .1 0 .15 0h28.69v0c.91 0 1.65-.73 1.65-1.64 0-.06-.01-.11-.01-.16Zm-33.01 19.8h6v0c.55 0 1 .44 1 1v1 0c0 1.1-.9 2-2 2h-4v0c-1.11 0-2-.9-2-2v-1 0c0-.56.44-1 1-1Zm28 0h6v0c.55 0 1 .44 1 1v1 0c0 1.1-.9 2-2 2h-4v0c-1.11 0-2-.9-2-2v-1 0c-.01-.56.44-1 1-1 0-.001 0 0 0 0Z" fill="#D3D3D3"/>
</svg>