<svg xmlns="http://www.w3.org/2000/svg" viewBox="0 0 64 64">
  <path fill-rule="evenodd" d="M32 55.98v0c-13.26 0-24-10.75-24-24 0-13.26 10.74-24 24-24 13.25 0 24 10.74 24 24v0c0 13.25-10.75 24-24 24Zm3-31.5v0c0-.28-.23-.5-.5-.5h-14v0c-2.49 0-4.5 2.01-4.5 4.5 0 2.48 2.01 4.5 4.5 4.5 2.48 0 4.5-2.02 4.5-4.5v0c0-.28-.23-.5-.5-.5h-1v0c-.28 0-.5.22-.5.5v0c0 1.38-1.12 2.5-2.5 2.5 -1.39 0-2.5-1.12-2.5-2.5 0-1.39 1.11-2.5 2.5-2.5h14v0c.27 0 .5-.23.5-.5Zm0 7v0c0-.28-.23-.5-.5-.5h-7.53v-.001c-.29 0-.55.16-.67.41v0c-.18.34-.38.67-.62.98v0c-.13.16-.1.39.06.52 .06.04.14.07.22.07h8.5v0c.27 0 .5-.23.5-.5Zm7.58-8.5l-4.61-.01h-.001c-.55 0-.99.45-.99 1v.81 0c-.01.52.2 1.03.57 1.41l1.31 1.33v0c.31.32.82.32 1.14.01 0-.01.01-.02.01-.02V27.5c.15-.16.24-.38.24-.6v-.72 0c-.01-.14.1-.25.24-.25 0 0 .79-.02 1.87-.02v0c1.09.01 1.97.9 1.96 1.99 -.01 0-.01 0-.01 0v0c0 .5-.19.99-.54 1.36 -1.59 1.61-3.39-.43-4.42-.43 -1.05 0-2.43 1.41-2.43 3.07v1l0 0c-.01.54.43.99.98 1h4.6v0c3.03-.06 5.45-2.58 5.39-5.62 -.06-2.96-2.45-5.34-5.4-5.4Z" fill="#D3D3D3"/>
</svg>