<svg xmlns="http://www.w3.org/2000/svg" viewBox="0 0 64 64">
  <path fill-rule="evenodd" d="M51.99 56H12c-2.45 0-8.01-1.37-8-3.02v0c.01-.55.45-.99 1-.99h53.96v0c.54-.01.99.43 1 .98 .01 1.65-5.56 3.01-8 3.01Zm-38-18.64v0c-.01-.2.15-.36.35-.37 .05-.01.1 0 .14.03v0c1.41.63 2.94.96 4.49.96v0c2.17.01 4.31-.64 6.1-1.88v0c.23-.18.55-.18.79 0h0c3.68 2.49 8.52 2.49 12.2 0v0c.23-.18.55-.18.79 0l-.001 0c1.79 1.23 3.92 1.89 6.1 1.87v0c1.55 0 3.08-.33 4.49-.97h-.001c.18-.08.39 0 .47.18 .02.04.03.09.03.14v10.63 0c0 1.1-.9 2-2 2h-32v0c-1.11 0-2-.9-2-2Zm34.945-2.29v0c-1.23.6-2.59.92-3.96.91v0c-1.77.01-3.5-.52-4.96-1.52v0c-.93-.66-2.16-.66-3.08 0v0c-3 2.02-6.93 2.02-9.921 0v0c-.93-.66-2.16-.66-3.08 0h0c-1.47.99-3.2 1.52-4.97 1.51h-.001c-1.38 0-2.73-.31-3.96-.92v-.001c-.66-.35-1.06-1.03-1.05-1.77v-4.33c0-2.21 3.36-5 17.99-5 14.63 0 17.99 2.79 17.99 5v4.32 -.001c.01.73-.4 1.41-1.05 1.76ZM32.99 13.98v0c.55 0 1 .44 1 1v6 0c0 .55-.45 1-1 1h-2v0c-.56-.01-1-.45-1-1v-6 0c-.01-.56.44-1 .99-1Zm-1-2h-.001c-1.66 0-3-1.33-3-2.99 -.01-.01-.01-.02 0-.02 0-1.91 2.01-5 2.99-5 .98 0 2.99 3.09 2.99 5v0c0 1.65-1.33 2.99-2.98 2.99 -.01 0-.02 0-.02 0Z" fill="#D3D3D3"/>
</svg>