<svg xmlns="http://www.w3.org/2000/svg" viewBox="0 0 64 64">
  <path fill-rule="evenodd" d="M59 52H5v0c-.56 0-1-.45-1-1v-2 0c0-.56.44-1 1-1h2.78c4.54-5.24 16.63-20.18 23.03-37.52v0c.1-.3.38-.49.69-.49h.96v0c.31 0 .59.19.69.48 6.4 17.335 18.49 32.27 23.03 37.51h2.78v0c.55 0 1 .44 1 1v2 0c0 .55-.45 1-1 1ZM32.22 30.103v0c-.06-.12-.2-.17-.32-.12 -.05.02-.09.06-.12.11l0 0c-3.23 6.03-6.82 11.87-10.75 17.47v0c-.09.11-.07.28.05.36 .04.03.08.04.13.05h21.53v-.001c.14-.01.25-.14.24-.28 -.01-.06-.03-.1-.06-.14l-.001-.001c-3.94-5.61-7.53-11.44-10.75-17.48Z" fill="#D3D3D3"/>
</svg>