<svg xmlns="http://www.w3.org/2000/svg" viewBox="0 0 64 64">
  <path fill-rule="evenodd" d="M59 44H32.79h0c-.47 0-.88-.32-.98-.77v0c-.98-4.88-5.72-8.04-10.59-7.06 -3.57.71-6.35 3.49-7.06 7.05v-.001c-.11.45-.51.77-.98.76H5.97v0c-1.11 0-2-.9-2-2v-18 0c0-4.42 3.58-8 8-8h34v0c4.41 0 8 3.58 8 8v15.5 0c0 .27.22.5.5.5h4.5v0c.55 0 1 .44 1 1v2 0c0 .55-.45 1-1 1ZM46 26v0c0-1.11-.9-2-2-2h-8v0c-1.11 0-2 .89-2 2v6 0c0 1.1.89 2 2 2h8v0c1.1 0 2-.9 2-2ZM23 38v0c3.86 0 7 3.13 7 7 0 3.86-3.14 7-7 7 -3.87 0-7-3.14-7-7v0c0-3.87 3.13-7 7-7Zm34 8v0c1.65 0 3 1.34 3 3 0 1.65-1.35 3-3 3 -1.66 0-3-1.35-3-3v0c0-1.66 1.34-3 3-3Z" fill="#D3D3D3"/>
</svg>