<svg xmlns="http://www.w3.org/2000/svg" viewBox="0 0 64 64">
  <path fill-rule="evenodd" d="M50.757 19.54c-.07-.06-7.04-5.56-18.75-5.56v0c-2.48-.02-4.95.17-7.4.54v0c5.22 3.09 6.94 9.84 3.84 15.06 -3.1 5.22-9.85 6.94-15.07 3.84 -3.34-1.99-5.39-5.58-5.39-9.47 0-9.29 10.36-14 24-14 13.21 0 20.95 6.19 21.27 6.45v0c.85.7.97 1.95.27 2.81 -.7.84-1.95.97-2.81.28Zm-31.749-2.56v0c-3.87 0-7 3.13-7 7 0 3.86 3.13 7 7 7 3.86 0 7-3.14 7-7v0c0-3.87-3.14-7-7-7Zm-5.75 27.44c.06.05 7.03 5.55 18.74 5.55v0c2.47.01 4.94-.18 7.39-.55v0c-5.23-3.1-6.95-9.85-3.85-15.07 3.09-5.23 9.84-6.95 15.06-3.85 3.33 1.98 5.38 5.57 5.38 9.46 0 9.29-10.37 14-24 14 -13.22 0-20.96-6.2-21.28-6.46h-.001c-.86-.71-.98-1.96-.28-2.82 .69-.85 1.94-.98 2.8-.29Zm31.74 2.55v0c3.86 0 7-3.14 7-7 0-3.87-3.14-7-7-7 -3.87 0-7 3.13-7 7v0c0 3.86 3.13 7 7 7Z" fill="#D3D3D3"/>
</svg>