<svg xmlns="http://www.w3.org/2000/svg" viewBox="0 0 64 64">
  <path fill-rule="evenodd" d="M54.12 31.96v0c-.68.33-1.11 1.03-1.11 1.78V41c0 5.01-7.07 6-21 6 -13.94 0-21-.99-21-6v-7.27 0c-.01-.76-.43-1.46-1.11-1.79l-1.35-.68 0-.001c-.34-.17-.56-.52-.56-.9v-2.39 0c0-.56.44-1 1-1h3.22l3.27-9.84v0c.63-1.93 2.2-3.4 4.16-3.91 2.17-.58 5.25-1.26 12.33-1.26s10.16.68 12.33 1.26v0c1.95.51 3.52 1.98 4.16 3.9l3.27 9.83h3.22v0c.55 0 1 .44 1 1v2.38h0c-.01.37-.22.72-.56.89Zm-39.11 4.19v1.69H15c.02 1.21 1.02 2.17 2.23 2.14h3.52v0c1.21.02 2.21-.94 2.23-2.15v0c-.01-.83-.49-1.58-1.24-1.93l-3.53-1.7v0c-.32-.16-.66-.23-1-.23v0c-1.22-.03-2.22.93-2.24 2.15Zm31.93-10.46l-2.39-7.26v0c-.21-.64-.73-1.13-1.37-1.31 -1.58-.43-4.26-1.13-11.18-1.13s-9.61.7-11.18 1.12v0c-.65.17-1.17.66-1.38 1.3l-2.39 7.25h-.001c-.18.52.1 1.08.62 1.26 .09.03.2.05.3.05h27.99l-.001-.001c.55-.01.99-.46.98-1.01 -.01-.11-.02-.21-.06-.31ZM49 36.14v0c-.03-1.22-1.03-2.18-2.24-2.16v0c-.35-.01-.69.07-1 .22l-3.53 1.69v-.001c-.75.34-1.24 1.09-1.24 1.92v0c.02 1.2 1.02 2.17 2.23 2.14h3.52 -.001c1.21.02 2.21-.94 2.23-2.15ZM19.24 48.02v0c.45.1.76.5.75.97v1 0c-.01 1.1-.9 1.99-2 2h-4 0c-1.11-.01-2-.9-2-2v-2 0c-.06-.5.31-.95.81-1 .06-.01.12-.01.18 0 .47 0 3.42.78 6.24 1.03Zm31.75-1.03h-.001c.49-.06.94.31 1 .81 0 .06 0 .12 0 .18v2 0c-.01 1.1-.9 1.99-2 2h-4v0c-1.11-.01-2-.9-2-2v-1 0c-.01-.47.3-.87.75-.97 2.81-.25 5.77-1.03 6.24-1.03Z" fill="#D3D3D3"/>
</svg>