<svg xmlns="http://www.w3.org/2000/svg" viewBox="0 0 32 32">
  <path fill-rule="evenodd" d="M12.86 10.8L34 8l-.01 0c1.8-.24 3.45 1.03 3.68 2.83 0 0 0 0 0 0l.29 2.22 -.01-.01c.05.43-.26.84-.7.9 -.04 0-.07 0-.11 0H26.95l-.01 0c-2.77 0-5 2.24-5 5 0 0 0 0 0 0v29.75l0 0c0 .4-.3.74-.7.79l-3.31.43 0-.01c-1.81.23-3.46-1.04-3.69-2.84 -.01-.01-.01-.01-.01-.01L9.94 14.41l-.01-.01c-.24-1.81 1.03-3.46 2.83-3.7ZM27 15.97h21.99l0 0c1.65 0 2.99 1.34 2.99 3 -.01 0-.01 0-.01 0v34.01l0 0c0 1.65-1.35 3-3 3 -.01 0-.01 0-.01 0H26.969l0 0c-1.66-.01-3-1.35-3-3.01 0-.01 0-.01 0-.01V18.94l-.01-.01c-.01-1.66 1.34-3.01 2.99-3.01 0-.01 0-.01 0-.01Z" transform="scale(0.5,0.5)" fill="#D3D3D3"/>
</svg>