<svg xmlns="http://www.w3.org/2000/svg" viewBox="0 0 64 64">
  <path fill-rule="evenodd" d="M46 56H18v0c-2.21 0-4-1.8-4-4V12v0c0-2.21 1.79-4 4-4h28v0c2.2 0 4 1.79 4 4v40 0c0 2.2-1.8 4-4 4Zm-4.4-24.83c-2.61-1.96-7.28-6.98-8.94-11.67h0c-.11-.37-.49-.59-.86-.49 -.24.06-.42.24-.49.48 -1.66 4.69-6.33 9.7-8.94 11.66v0c-.46.36-.54 1.03-.17 1.48 .04.06.1.11.16.16 2.6 1.95 7.27 6.97 8.93 11.66v-.001c.1.36.48.58.85.48 .23-.07.41-.25.48-.49 1.65-4.69 6.32-9.71 8.93-11.67v0c.45-.37.53-1.04.16-1.5 -.05-.07-.11-.12-.17-.17Z" fill="#D3D3D3"/>
</svg>