<svg xmlns="http://www.w3.org/2000/svg" viewBox="0 0 64 64">
  <path fill-rule="evenodd" d="M46 56H18v0c-2.21 0-4-1.8-4-4V12v0c0-2.21 1.79-4 4-4h28v0c2.2 0 4 1.79 4 4v40 0c0 2.2-1.8 4-4 4Zm-3-22c-.01-5.61-7.73-10.75-10.23-14.582v0c-.29-.43-.87-.55-1.3-.26 -.11.06-.2.15-.26.25 -2.5 3.83-10.23 8.97-10.23 14.582v0 0 0 0 0c-.01 3.3 2.66 5.99 5.97 5.99 1.4 0 2.75-.49 3.83-1.39h-.001c-.53 1.63-1.41 3.13-2.59 4.39l-1.09 1.14h-.001c-.15.15-.18.38-.09.57h0c.07.16.24.27.42.27h9.06 -.001c.18-.01.34-.11.42-.28h0c.09-.2.05-.42-.09-.58l-1.09-1.15v0c-1.18-1.26-2.07-2.76-2.59-4.4v0c2.54 2.11 6.31 1.76 8.42-.79 .89-1.08 1.38-2.44 1.38-3.84v0 -.01 -.01Z" fill="#D3D3D3"/>
</svg>