<svg xmlns="http://www.w3.org/2000/svg" viewBox="0 0 64 64">
  <path fill-rule="evenodd" d="M58.01 17.02v0c-.01 1.65-1.35 3-3 3 -6.02 0-8.34.13-10.73 2.51 -.78.77-1.58.52-2.46-.36 -.89-.89-1.14-1.69-.36-2.46C43.84 17.32 44 15.01 44 9v0c-.01-1.66 1.33-3 2.98-3.01 1.49-.01 2.76 1.09 2.97 2.57l-.001 0c1.87-1.15 4.31-.55 5.46 1.32 .77 1.26.77 2.86 0 4.13l0-.001c1.47.21 2.57 1.48 2.57 2.97ZM41.45 36.68C30.94 47.19 10.47 57.91 8.29 55.73c-2.18-2.18 8.54-22.661 19.04-33.18 2.83-2.84 7.19-4.4 12.83 1.25s4.1 10.02 1.26 12.86Z" fill="#D3D3D3"/>
</svg>