<svg xmlns="http://www.w3.org/2000/svg" viewBox="0 0 64 64">
  <path fill-rule="evenodd" d="M52 54.01H12v0c-1.11 0-2-.9-2-2v-6 0c0-1.11.89-2 2-2h40v0c1.1 0 2 .89 2 2v6 0c0 1.1-.9 2-2 2Zm0-12H12v0c-1.11 0-2-.9-2-2v-2.49 0c0-.67.16-1.33.48-1.92l5.02-9.21h-.001c.32-.59.48-1.25.48-1.92V20v0c0-2.21 1.79-4 4-4h14v-4h-4.5v0c-.83 0-1.5-.68-1.5-1.5v-3 0c0-.83.67-1.5 1.5-1.5h13v0c.82 0 1.5.67 1.5 1.5v3 0c0 .82-.68 1.5-1.5 1.5h-4.5v4h6v0c2.2 0 4 1.79 4 4v4.47 0c0 .66.16 1.32.48 1.91l5.02 9.2v0c.32.58.48 1.24.48 1.91v2.49 0c-.01 1.1-.9 1.99-2 1.99Zm-8-21v0c0-.56-.45-1-1-1H29v0c-.56 0-1 .44-1 1v2 0c0 .55.44 1 1 1h14v0c.55 0 1-.45 1-1Z" fill="#D3D3D3"/>
</svg>