<svg xmlns="http://www.w3.org/2000/svg" viewBox="0 0 64 64">
  <path fill-rule="evenodd" d="M54 48.98h-2.44 0c-.65-.01-1.22-.42-1.43-1.03l-1.53-4.59v0c-.48-1.43-1.82-2.4-3.32-2.4h-26.6v0c-1.51-.01-2.85.96-3.32 2.39l-1.53 4.58h0c-.21.61-.78 1.02-1.43 1.02H9.96v0c-2.21 0-4-1.8-4-4v-26 0c0-2.21 1.79-4 4-4h44v0c2.2 0 4 1.79 4 4v26 0c-.001 2.2-1.8 4-4 4Zm-9-24H19v0c-3.32 0-6 2.68-6 6 0 3.31 2.68 6 6 6h26v0c3.31 0 6-2.69 6-6 0-3.32-2.69-6-6-6Zm-1 9v0c-1.66 0-3-1.35-3-3 0-1.66 1.34-3 3-3 1.65 0 3 1.34 3 3v0c-.01 1.65-1.35 2.99-3 2.99Zm-8 0h-8v0c-.56 0-1-.45-1-1v-4 0c0-.56.44-1 1-1h8v0c.55 0 1 .44 1 1v4 0c-.01.55-.45.99-1 .99Zm-16 0v0c-1.66 0-3-1.35-3-3 0-1.66 1.34-3 3-3 1.65 0 3 1.34 3 3v0c-.01 1.65-1.35 2.99-3 2.99ZM17.28 44v0c.2-.62.77-1.03 1.42-1.03h26.59v0c.64 0 1.21.41 1.42 1.02l1.21 3.65v0c.17.52-.11 1.09-.64 1.26 -.11.03-.21.05-.32.05H16.97v0c-.56-.01-1-.45-1-1.01 0-.11.01-.22.05-.32Z" fill="#D3D3D3"/>
</svg>