<svg xmlns="http://www.w3.org/2000/svg" viewBox="0 0 64 64">
  <path fill-rule="evenodd" d="M40.17 52.99c-1.67-.31-3.73-.69-5.36-.99l0 0c-.48-.09-.82-.51-.82-.99l-.01-12.62 -.001-.001c0-.42.26-.78.65-.91 3.67-1.4 6.34-5.77 6.34-12.51h-.001c-.1-5.45-.72-10.88-1.83-16.202v0c-.1-.47-.51-.8-.98-.8H25.76v0c-.48-.01-.89.33-.98.798l0-.001c-1.12 5.33-1.73 10.75-1.83 16.2 0 6.73 2.67 11.1 6.34 12.5h-.001c.38.13.64.49.65.9l0 12.61v0c0 .48-.35.89-.82.98 -1.63.29-3.68.67-5.35.98v-.001c-.48.08-.82.5-.82.98v1.02 -.001c-.01.55.44.99.99.99 0 0 0 0 0 0H39.91v0c.55-.01.99-.45.99-1 -.01-.01-.01-.01-.01-.01v-1.03 0c0-.49-.35-.9-.82-.99Zm-12.19-35l0-.001c-.28-.01-.51-.23-.51-.51 0-.02 0-.04 0-.06 .22-1.91.49-3.65.73-5.04v0c.04-.24.25-.42.49-.41h6.58v0c.24-.01.45.16.49.4 .24 1.39.5 3.12.73 5.03v0c.03.27-.17.52-.45.55 -.02 0-.04 0-.06 0Z" fill="#D3D3D3"/>
</svg>