<svg xmlns="http://www.w3.org/2000/svg" viewBox="0 0 64 64">
  <path fill-rule="evenodd" d="M56.01 47.02h-48v0c-1.11 0-2-.9-2-2v-26 0c0-1.11.89-2 2-2h48v0c1.1 0 2 .89 2 2v26 0c0 1.1-.9 2-2 2Zm-33-24h-12v0c-.56 0-1 .44-1 1 0 .55.44 1 1 1h12v0c.55 0 1-.45 1-1 0-.56-.45-1-1-1Zm16 8h-28v0c-.56 0-1 .44-1 1 0 .55.44 1 1 1h28v0c.55 0 1-.45 1-1 0-.56-.45-1-1-1Zm15-5v0c0-.56-.45-1-1-1h-8v0c-.56 0-1 .44-1 1v6 0c0 .55.44 1 1 1h8v0c.55 0 1-.45 1-1Zm-1 13h-12v0c-.56 0-1 .44-1 1 0 .55.44 1 1 1h12v0c.55 0 1-.45 1-1 0-.56-.45-1-1-1Z" fill="#D3D3D3"/>
</svg>