<svg xmlns="http://www.w3.org/2000/svg" viewBox="0 0 64 64">
  <path fill-rule="evenodd" d="M45 56c-6.51 0-11-4.42-11-10.8 0-5.2 3.2-8.2 6.5-8.2 1.58 0 3.14 1 4.5 1 1.35 0 2.91-1 4.5-1 3.29 0 6.5 3 6.5 8.2C56 51.58 51.5 56 45 56Zm-1-31v0c-.04 3.51.87 6.97 2.65 10 .35.58-.36.99-1.65.99 -1.34 0-2.56-.38-3.07-1.49v0c-1.31-3.01-1.97-6.25-1.93-9.52v-.001c-.11-6.03 2.34-11.82 6.74-15.94 -14.33.63-25.75 11.98-25.75 25.93 0 .55-.9 1-2 1 -1.11 0-2-.45-2-1 0-16.003 12.94-28.58 29.25-29.45l-.001 0c1-.98 2.34-1.54 3.74-1.55 1.69 0 3 1 3 2.5 0 4.81-9 6.75-9 18.5ZM23.5 37c3.29 0 6.5 3 6.5 8.2C30 51.58 25.5 56 19 56c-6.51 0-11-4.42-11-10.8C8 40 11.2 37 14.5 37c1.59 0 3.14 1 4.5 1 1.35 0 2.91-1 4.5-1Z" fill="#D3D3D3"/>
</svg>