<svg xmlns="http://www.w3.org/2000/svg" viewBox="0 0 64 64">
  <path fill-rule="evenodd" d="M44 43v0c0 .55-.45 1-1 1H21v0c-.56 0-1-.45-1-1 0-6.14-10-7.98-10-17.5h-.001c-.01-6.35 5.14-11.5 11.49-11.51 4.19-.01 8.06 2.28 10.08 5.96v-.001c.13.23.43.32.66.19 .07-.05.14-.12.19-.2l-.001-.001c3.05-5.57 10.04-7.6 15.6-4.55 3.67 2.02 5.96 5.88 5.96 10.08 0 9.52-10 11.36-10 17.5ZM24.42 26.49v0c-.5-.6-1.37-.68-1.97-.2h-.001c-.54.42-.63 1.19-.2 1.72 .01.02.03.04.05.06 1.19 1.33 2.49 3.09 3.87 7.28h-.001c.15.45.63.71 1.1.6v0c.46-.09.77-.54.69-1.01h-.001c-.48-3.08-1.7-5.99-3.56-8.48Zm17.11-.2v0c-.6-.49-1.48-.4-1.97.19l-.001 0c-1.87 2.48-3.09 5.39-3.56 8.47h0c-.09.46.22.91.69 1h-.001c.46.11.94-.15 1.1-.6 1.38-4.2 2.68-5.96 3.87-7.29v-.001c.45-.51.41-1.28-.09-1.74 -.03-.02-.05-.04-.07-.06ZM33 16.27v0c-.23.56-.87.84-1.44.62 -.29-.12-.51-.34-.63-.63l-2.71-6.78h0c-.6-1.5-.25-3.21.89-4.35v0 0c1.56-1.57 4.1-1.58 5.66-.02 0 0 0 0 .01.01v0V5.11c1.13 1.14 1.48 2.85.89 4.34ZM19.38 46.56v0c.37-.38.88-.59 1.41-.59h22.35v0c.53 0 1.03.21 1.41.58l4.83 4.82v0c.37.37.58.88.58 1.41v2.17h0c0 .55-.45 1-1 1 -.01 0-.01-.01-.01-.01H14.93v0c-.56 0-1.01-.45-1.01-1 -.01-.01-.01-.01-.01-.01v-2.18 0c0-.54.21-1.04.58-1.42Z" fill="#D3D3D3"/>
</svg>