<svg xmlns="http://www.w3.org/2000/svg" viewBox="0 0 64 64">
  <path fill-rule="evenodd" d="M46 56H18v0c-.56 0-1-.45-1-1v-2.18 0c-.01-.54.21-1.04.58-1.42l4.82-4.83v0c.37-.38.88-.59 1.41-.59h16.34v0c.53 0 1.03.21 1.41.58l4.82 4.82v0c.37.37.58.88.58 1.41v2.17 0c0 .55-.45 1-1 1ZM26.95 31.04v0c-.01-.57.43-1.03.99-1.05h8.07v0c.56.02 1 .48 1 1.04l0 0c.35 4.05 1.32 8.04 2.88 11.8l0-.001c.19.39.02.87-.38 1.06 -.1.04-.21.07-.32.07H24.7v0c-.45-.04-.78-.42-.75-.86 0-.11.03-.2.07-.3h-.001c1.54-3.77 2.51-7.75 2.88-11.81ZM40 27.99H24v0c-.56 0-1-.45-1-1v-.5h0c-.01-.38.21-.73.55-.9l2.28-1.15v-.001c.24-.13.34-.42.22-.67 -.03-.06-.07-.11-.11-.15h-.001c-3.69-3.34-3.97-9.03-.63-12.72 3.33-3.69 9.02-3.97 12.71-.63 3.68 3.33 3.96 9.02.62 12.71 -.2.21-.41.42-.63.62v-.001c-.2.18-.21.5-.03.7 .04.04.08.07.14.1l2.28 1.14v0c.33.16.55.51.55.89v.5 0c0 .55-.45 1-1 1Z" fill="#D3D3D3"/>
</svg>