<svg xmlns="http://www.w3.org/2000/svg" viewBox="0 0 64 64">
  <path fill-rule="evenodd" d="M46 56H18v0c-.56 0-1-.45-1-1v-2.18h0c-.01-.54.21-1.04.58-1.42l4.82-4.83v0c.37-.38.88-.59 1.41-.59h16.34v0c.53 0 1.03.21 1.41.58l4.82 4.82 -.001 0c.37.37.58.88.58 1.41v2.17h0c0 .55-.45 1-1 1Zm-5.75-12H23.76v0c-.45-.01-.84-.31-.96-.74 -1.37-4.52-4.8-10-4.8-16.27 0-5.33 3.97-10.5 9.64-12.31v0c.52-.18.8-.74.62-1.27 -.01-.02-.02-.04-.03-.06l0-.001c-.17-.44-.26-.91-.25-1.38v0c0-2.21 1.79-4 4-4 2.2 0 4 1.79 4 4 0 3.38-1.17 5.91-2.41 8.59 -1.28 2.75-2.6 5.59-2.6 9.42h0c0 .55.44.99.99.99 .55-.01.99-.45.99-1 0-3.39 1.17-5.92 2.41-8.59v0c.9-1.81 1.61-3.69 2.13-5.64v0c.05-.28.32-.45.59-.39 .03 0 .06.01.1.03 4.64 2.24 7.76 6.84 7.76 11.55 0 6.27-3.43 11.74-4.8 16.26h-.001c-.13.42-.52.72-.96.73Z" fill="#D3D3D3"/>
</svg>