<svg xmlns="http://www.w3.org/2000/svg" viewBox="0 0 64 64">
  <path fill-rule="evenodd" d="M52.06 25.98v0c-.21-.01-.39.11-.47.29l-7.21 16.81v0c-.24.55-.78.9-1.38.9H20.97v0c-.61-.01-1.15-.36-1.38-.91l-7.21-16.82v0c-.09-.19-.27-.3-.47-.3v0c-2.21-.04-3.98-1.86-3.94-4.07 .03-2.21 1.85-3.98 4.06-3.94 2.2.03 3.97 1.85 3.93 4.06 -.01.6-.16 1.2-.43 1.74h-.001c-.12.2-.07.45.1.61l6.55 5.9v0c.2.18.52.16.7-.04 .07-.09.12-.2.12-.31l.69-11.82v0c0-.22-.12-.42-.32-.49v0c-2.02-.88-2.95-3.22-2.08-5.24 .87-2.02 3.21-2.95 5.23-2.08 2.01.87 2.94 3.21 2.07 5.23 -.26.58-.65 1.09-1.14 1.49l0 0c-.18.13-.25.36-.17.57l4.15 11.09h0c.09.25.38.38.64.29 .13-.06.24-.16.29-.3l4.15-11.1v0c.07-.21 0-.44-.17-.58v0c-1.73-1.4-1.99-3.93-.59-5.65 1.39-1.73 3.92-1.99 5.64-.59 1.72 1.39 1.98 3.92.58 5.64 -.42.5-.95.9-1.55 1.16v0c-.2.07-.33.27-.32.48l.69 11.81v0c.01.27.25.48.52.46 .11-.01.22-.06.3-.13l6.558-5.91v0c.16-.16.21-.42.09-.62V23.6c-.29-.56-.43-1.17-.43-1.79v0c-.01-2.21 1.77-4.01 3.98-4.02 2.2-.01 4 1.77 4.01 3.98 0 2.19-1.75 3.98-3.94 4.01ZM19.4 46.58v0c.37-.38.88-.59 1.41-.59h22.35v0c.53 0 1.03.21 1.41.58l4.83 4.82v0c.37.37.58.88.58 1.41v2.17 0c0 .55-.45 1-1 1H14.96v0c-.56 0-1-.45-1-1v-2.18 0c-.01-.54.21-1.04.58-1.42Z" fill="#D3D3D3"/>
</svg>