<svg xmlns="http://www.w3.org/2000/svg" viewBox="0 0 64 64">
  <path fill-rule="evenodd" d="M15.82 43.13h0c.15.52.64.87 1.18.87h2.27v0c.41 0 .74-.33.75-.75 0-.07-.01-.12-.03-.18 -1.37-5.27-4.01-9.87-4.01-17.07v0c.07-3.96 1.41-7.79 3.8-10.93v0c.18-.25.24-.58.15-.88v-.001c-.38-1.13-.67-2.29-.85-3.46v0c-.02-.21-.2-.36-.41-.34 -.09 0-.16.04-.22.09l0-.001c-4.16 4.08-6.5 9.66-6.5 15.49 0 7.88 2.5 12.7 3.81 17.11ZM18 26.01c0 7.16 2.74 11.2 3.95 16.99l-.001-.001c.11.58.62 1 1.22 1 3.22 0 15 0 18.05 0v0c.41-.01.74-.35.74-.76 -.01-.06-.01-.11-.02-.16 -1.46-7.16-5.43-7.95-7.53-14.61v0c-.07-.2.04-.41.24-.47 .03-.02.06-.02.1-.02h8.3v0c.18-.01.36.1.44.27 0 0 .24.61.43.99v0c.19.38.5.7.89.89 .38.19.47.23 1.15.57v0c.67.33 1.49.26 2.09-.19 .6-.46 3.37-2.66 3.37-2.66v0c.4-.31.58-.82.46-1.31l-.57-2.28h0c-.38-1.25-1.23-2.3-2.36-2.94 -1.49-.95-5.59-3.54-8.48-5.38 -2.56-1.63-4.15-6-7.58-6V9.93c-2.19-.01-4.35.51-6.3 1.5h0c-.22.11-.48.05-.63-.15 -1.1-1.49-2.49-3.04-3.73-3.35v0c-.53-.11-1.05.17-1.26.66 -.39 1.35.37 4.07 1.04 6.03v0c.05.16.01.34-.1.47v0c-2.57 3.02-4 6.84-4.04 10.81ZM31.07 8.18c1.18-.18 1.04-.89.56-1.22v0c-1.17-.67-2.49-1.01-3.83-.97v0c-.94.01-1.87.16-2.76.44v0c-.2.06-.3.26-.24.45 .02.07.06.13.12.18v0c.66.46 1.26 1 1.8 1.59V8.64c.26.3.68.4 1.06.25v0c1.05-.38 2.14-.63 3.25-.77Zm16.26 43.23l-4.83-4.83v0c-.38-.38-.89-.59-1.42-.59H22.75v0c-.54 0-1.04.21-1.42.58l-4.83 4.82h0c-.38.37-.59.88-.59 1.41v2.17 0c-.01.55.44.99.99 1h29.97 0c.55-.01.99-.45.99-1 -.01-.01-.01-.01-.01-.01v-2.18 0c0-.54-.22-1.04-.59-1.42Z" fill="#D3D3D3"/>
</svg>