<svg xmlns="http://www.w3.org/2000/svg" viewBox="0 0 64 64">
  <path fill-rule="evenodd" d="M28.547 24.02h0c-.99-.01-1.94-.37-2.67-1.03l-8.34-7.61v0c-.6-.54-1.5-.51-2.06.05l-1.03 1.02v0c-.55.54-.59 1.42-.1 2.01l9.65 11.53 .74 4.29v0c.18 1.13.25 2.28.19 3.42l-.96 16.68v0c-.05.82.59 1.52 1.41 1.57 .02 0 .04 0 .07 0h1.98v0c.83-.01 1.54-.59 1.71-1.41l2.79-13.55 2.79 13.54h0c.16.81.87 1.4 1.71 1.4h1.98v0c.82-.01 1.49-.68 1.49-1.51 -.01-.03-.01-.05-.01-.08l-.96-16.7v0c-.06-1.15 0-2.3.19-3.43l.74-4.3 9.66-11.55v0c.49-.6.45-1.48-.1-2.03l-1.03-1.03v0c-.57-.57-1.47-.59-2.06-.06l-8.35 7.61h-.001c-.74.66-1.69 1.02-2.67 1.02Zm3.43-2.03v0c3.86 0 7-3.12 7.01-6.99 0-3.87-3.12-7.01-6.99-7.02 -3.87-.01-7.01 3.11-7.02 6.98 -.01 0-.01.01-.01.01l-.001-.001c-.01 3.86 3.12 6.99 6.98 7 0 0 0 0 0 0Z" fill="#D3D3D3"/>
</svg>