<svg xmlns="http://www.w3.org/2000/svg" viewBox="0 0 64 64">
  <path fill-rule="evenodd" d="M54 10c-1.43 0-2.01 1-2.01 5h-.001c-.04 1.84.29 3.67.97 5.38 .14.44-.44.78-.82.51v0c-1.98-1.37-4.23-2.29-6.6-2.68h-.001c-.39-.07-.65-.44-.59-.82 .01-.1.04-.19.09-.26h-.001c.89-1.61 1.54-3.35 1.9-5.15 1.05-4.42 3.37-6 6.01-6 1.8 0 3 .56 3 2v0c.15.95-.5 1.84-1.46 2 -.19.02-.37.02-.56-.01Zm-.02 18c0 15.25-15.77 28-29.04 28 -9.52 0-13.42-2.59-15.68-4.14H9.25c-1.29-.77-1.71-2.43-.94-3.71 .42-.71 1.14-1.19 1.96-1.3v0c7.46-1.01 14.38-4.48 19.65-9.86 7.49-7.49 5.39-17 13.01-17 3.21 0 11.01 1.92 11.01 8Z" fill="#D3D3D3"/>
</svg>