<svg xmlns="http://www.w3.org/2000/svg" viewBox="0 0 64 64">
  <path fill-rule="evenodd" d="M8 36v16 0c0 1.1.89 2 2 2h44v0c1.1 0 2-.9 2-2V36h1v0c.55 0 1-.45 1-1v0 0c0-.67-.11-1.33-.32-1.95l-1.23-3.69 -.001 0c-.28-.82-1.04-1.37-1.9-1.37H43.98v-3.07 0c0-.6-.27-1.16-.72-1.54l-8.56-7.14v0c-.46-.38-.72-.95-.72-1.54v-4.23 0c0-.28.22-.5.5-.5h2.5v0c.55 0 1-.45 1-1v-2 0c0-.56-.45-1-1-1h-2.5v0c-.28 0-.5-.23-.5-.5v-2.5 0c0-.56-.45-1-1-1h-2v0c-.56 0-1 .44-1 1v2.5 0c0 .27-.23.5-.5.5h-2.5v0c-.56 0-1 .44-1 1v2 0c0 .55.44 1 1 1h2.5v0c.27 0 .5.22.5.5v4.23 0c0 .59-.27 1.15-.72 1.53l-8.57 7.13v0c-.46.37-.73.94-.72 1.53v3.06H9.41v0c-.87-.01-1.63.55-1.9 1.36l-1.23 3.68v0c-.21.62-.32 1.28-.32 1.94h0v0c0 .55.44 1 1 1Zm24-12v0c3.31 0 6 2.68 6 6 0 3.31-2.69 6-6 6 -3.32 0-6-2.69-6-6v0c0-3.32 2.68-6 6-6Zm-7 16h14v0c.55 0 1 .44 1 1v8 0c0 .55-.45 1-1 1H25v0c-.56 0-1-.45-1-1v-8 0c0-.56.44-1 1-1Z" fill="#D3D3D3"/>
</svg>