<svg xmlns="http://www.w3.org/2000/svg" viewBox="0 0 64 64">
  <path fill-rule="evenodd" d="M51.4 18.15l-1.56 1.55v0c-.39.38-1.01.38-1.4 0 -.01-.01-.01-.01-.01-.01l-4.18-4.18v0c-.39-.39-.39-1.01 0-1.4l1.55-1.56 -.001-.001c.45-.46.96-.86 1.51-1.19l5.46-3.29v0c.38-.24.88-.18 1.2.14l1.69 1.69v0c.31.31.38.81.14 1.2l-3.29 5.46v0c-.34.55-.73 1.06-1.19 1.51ZM18.67 57.82c-.41.4-1.2.19-2.79-1.4l-8.35-8.35c-1.59-1.59-1.8-2.38-1.4-2.79 1.15-1.16 4.84 2.09 14.6-7.66l6.56-6.57v0c.19-.2.19-.51 0-.7l-.74-.74c-.95-.95-.95-1.84.69-3.48l.86-.87c1.64-1.65 2.53-1.64 3.47-.7l.73.74v-.001c.19.19.5.19.69 0 0-.01 0-.01 0-.01l1.24-1.25v-.001c.19-.2.19-.51 0-.7l-.74-.74c-.95-.95-.95-1.84.69-3.48l.86-.87c1.64-1.65 2.53-1.65 3.47-.7l.73.73v0c.19.19.5.19.69 0 0-.01 0-.01 0-.01l1.11-1.12v0c.38-.39 1-.39 1.38-.01 0 0 0 0 0 0l4.17 4.17v0c.38.38.38 1 0 1.39l-20.39 20.4c-9.69 9.68-6.49 13.45-7.65 14.61Z" fill="#D3D3D3"/>
</svg>