<svg xmlns="http://www.w3.org/2000/svg" viewBox="0 0 64 64">
  <path fill-rule="evenodd" d="M51 55.98H13v0c-.56 0-1-.45-1-1v-2 0c0-.56.44-1 1-1h38v0c.55 0 1 .44 1 1v2 0c0 .55-.45 1-1 1Zm-31.92-9.84L15.98 9.05h-.001c-.05-.56.36-1.04.91-1.08 .02-.01.05-.01.08-.01h30v0c.55 0 1 .44 1 1 -.01.02-.01.05-.01.08l-3.1 37.08h-.001c-.09 1.03-.96 1.83-2 1.83h-21.83v0c-1.04-.01-1.91-.8-2-1.84Zm24.1-34.17h-22.4v0c-.28 0-.5.22-.5.5 0 .01 0 .02 0 .04l.58 7v0c.02.25.23.45.49.45h21.23v0c.26 0 .47-.2.49-.46l.58-7v0c.02-.28-.19-.52-.46-.54 -.02-.01-.03-.01-.05-.01Z" fill="#D3D3D3"/>
</svg>