<svg xmlns="http://www.w3.org/2000/svg" viewBox="0 0 64 64">
  <path fill-rule="evenodd" d="M57.4 47.64l-5.22 2.22v0c-.52.21-1.11-.02-1.33-.54 -.02-.04-.03-.07-.04-.1 -.18-.57-6.82-22.25-6.82-22.25s1.92 27.4 2 28.53v0c.06 1.1-.78 2.06-1.88 2.12 -.02 0-.04 0-.05 0l-7.99.33 0 0c-1.11.04-2.05-.81-2.1-1.92 -.01-.02-.01-.03-.01-.04 -.03-1.12-.97-35.88-.97-35.88v0c-.04-1.45.12-2.89.47-4.29l1.48-5.28 0 0c.06-.27-.1-.55-.37-.61 -.05-.01-.09-.02-.13-.02h-5.01v0c-.28-.01-.51.22-.51.49 -.01.04 0 .08.01.12l1.48 5.27v0c.35 1.4.51 2.84.47 4.286 0 0-.94 34.75-.97 35.87v0c-.04 1.1-.96 1.98-2.07 1.95 -.02-.01-.03-.01-.04-.01l-7.99-.33v0c-1.11-.05-1.98-.98-1.94-2.09 0-.02 0-.04 0-.05 .07-1.13 2-28.53 2-28.53s-6.65 21.67-6.82 22.24h-.001c-.17.53-.74.83-1.27.66 -.04-.02-.07-.03-.1-.04l-5.22-2.22h0c-.47-.2-.71-.71-.58-1.19 .13-.49 7.29-26.81 7.89-29.01l-.001-.001c.6-2.21 2.12-4.05 4.17-5.06v0c1.99-.88 3.95-1.85 5.85-2.91l0 0c.68-.63 1.29-1.34 1.81-2.11v0c.76-.89 1.88-1.4 3.06-1.4h6.37v0c1.17-.01 2.29.5 3.06 1.39V7.23c.52.76 1.13 1.47 1.81 2.1l0 0c1.9 1.06 3.85 2.03 5.85 2.9v-.001c2.04 1.01 3.56 2.85 4.17 5.05 .6 2.19 7.76 28.51 7.89 29v0c.13.48-.12.98-.58 1.18Z" fill="#D3D3D3"/>
</svg>