<svg xmlns="http://www.w3.org/2000/svg" viewBox="0 0 64 64">
  <path fill-rule="evenodd" d="M49.008 18.02h-.91l-.67 8h.59v0c.55 0 .99.44.99 1 -.01.02-.01.05-.01.08l-1.34 15.99v0c-.05.51-.48.91-1 .91h-.77l-.85 10.16h0c-.09 1.03-.96 1.83-2 1.83H20.86v0c-1.05 0-1.91-.8-2-1.84l-.85-10.17h-.74v0c-.53 0-.96-.4-1-.92l-1.34-16v0c-.05-.56.36-1.04.91-1.08 .02-.01.05-.01.08-.01h.57l-.67-8h-.9 -.001c-.56-.01-1.01-.45-1-1.01 0-.09.01-.17.02-.25l.99-4v0c.11-.45.51-.76.97-.76h1.22l.81-3.25v0c.11-.45.51-.76.97-.76h25.98v0c.45 0 .85.31.96.75l.81 3.24h1.22v0c.45 0 .85.31.96.75l.99 4v0c.13.53-.2 1.07-.73 1.21 -.08.01-.17.02-.25.02Zm-25.78 33.99h17.57v0c.26 0 .47-.2.49-.46l.62-7.55h-19.84l.62 7.54v0c.02.25.23.45.49.45Zm-3.25-33.46l.62 7.45h22.83l.62-7.46h-.001c.02-.28-.19-.52-.46-.54 -.02-.01-.03-.01-.05-.01H20.456v-.001c-.28 0-.5.22-.5.5 0 .01 0 .02 0 .04Z" fill="#D3D3D3"/>
</svg>