<svg xmlns="http://www.w3.org/2000/svg" viewBox="0 0 64 64">
  <path fill-rule="evenodd" d="M51 56H14.98h0c-.56 0-1.01-.45-1.01-1 -.01-.03 0-.06 0-.09l.42-5.09v0c.08-1.04.95-1.84 1.99-1.84h26.59v0c.55 0 1-.45 1-1 0-.03-.01-.06-.01-.09l-1.84-22v0c-.05-.52-.48-.92-1-.92H21.85v0c-2.71 0-4.91-2.2-4.91-4.91 -.01-.14 0-.28.01-.41l.74-8.86v0c.08-1.04.95-1.84 1.99-1.84h26.49V7.94c1.04-.01 1.9.79 1.99 1.83l3.76 45.08v0c.04.55-.37 1.03-.92 1.08 -.03 0-.06 0-.09 0ZM37.98 27.41v0l0 0c-.01.37-.15.73-.42 1l-1.26 1.25v0c-.84.83-1.26 1.98-1.16 3.16l.82 9.91 -.001 0c.13 1.65-1.09 3.1-2.74 3.23 -.09 0-.17.01-.25.01H17.95v0c-1.66-.01-3-1.35-3-3.01 0-.09 0-.17.01-.25l.06-.75h-4.08v0c-1.66 0-3.01-1.35-3.01-3 -.01-.09 0-.17.01-.26l.75-9.09v0c.17-2.08 1.9-3.67 3.98-3.67H36.5v0c.78-.01 1.41.63 1.41 1.41 0 0 0 0-.01 0Zm-25.25 2.58l-.67 8h3.32l.66-8Z" fill="#D3D3D3"/>
</svg>