<svg xmlns="http://www.w3.org/2000/svg" viewBox="0 0 64 64">
  <path fill-rule="evenodd" d="M32.01 8.02v-.001c13.25 0 24 10.74 24 24 0 6.61-5.98 11-13 11h-5c-1.77 0-4 .32-4 3 0 2.62 2 4.28 2 7 0 1.61-1.28 3-4 3v0c-13.26 0-24-10.75-24-24 0-13.26 10.74-24 24-24Zm13.5 27v0c2.48 0 4.5-2.02 4.5-4.5 0-2.49-2.02-4.5-4.5-4.5 -2.49 0-4.5 2.01-4.5 4.5h0c0 2.48 2.01 4.49 4.49 4.49Zm-7-11v0c2.48 0 4.5-2.02 4.5-4.5 0-2.49-2.02-4.5-4.5-4.5 -2.49 0-4.5 2.01-4.5 4.5v0c0 2.48 2.01 4.49 4.49 4.49Zm-13 0v0c2.48 0 4.5-2.02 4.5-4.5 0-2.49-2.02-4.5-4.5-4.5 -2.49 0-4.5 2.01-4.5 4.5v0c0 2.48 2.01 4.49 4.49 4.49Zm-11.5 6.5v0c0 2.48 2.01 4.5 4.5 4.5 2.48 0 4.5-2.02 4.5-4.5 0-2.49-2.02-4.5-4.5-4.5h0c-2.49-.01-4.51 2.01-4.51 4.49 -.01 0-.01 0-.01 0Z" fill="#D3D3D3"/>
</svg>