<svg xmlns="http://www.w3.org/2000/svg" viewBox="0 0 64 64">
  <path fill-rule="evenodd" d="M59.69 20.43l-1.27 1.26v0c-.37.36-.96.39-1.36.05l-9.08-7.75 -1 .99 7.74 9.06v-.001c.33.39.31.98-.06 1.35l-.27.26v0c-.37.36-.96.39-1.36.05l-9.08-7.75 -1 .99 7.74 9.06v0c.33.39.31.98-.06 1.35l-.27.26v0c-.37.36-.96.39-1.36.05L39.92 21.9l-1 .99 7.74 9.07v0c.33.39.31.98-.06 1.35l-.27.26v0c-.37.36-.96.39-1.36.05l-9.08-7.75 -1 .99 7.74 9.07v0c.33.39.31.98-.06 1.35l-.27.26v0c-.37.36-.96.39-1.36.05l-9.073-7.75 -1 .99 7.74 9.07v0c.33.39.31.98-.06 1.35l-1.25 1.24v0c-.4.39-1.03.39-1.43 0l-4.16-4.16v0c-2.04-2.02-5.32-2.01-7.34.02 -.04.03-.07.06-.1.1h-.001c-3.31 3.48-6.12 7.4-8.35 11.66l-2.513 4.74v0c-.46.85-1.52 1.17-2.37.72 -.16-.09-.3-.19-.42-.31l-3.04-3.04h0c-2.36-2.36-2.36-6.18-.01-8.54 0-.01 0-.01 0-.01L41.71 9.53v0c2.35-2.36 6.17-2.36 8.53 0l9.24 9.24v0c.39.39.39 1.02 0 1.42Z" fill="#D3D3D3"/>
</svg>