<svg xmlns="http://www.w3.org/2000/svg" viewBox="0 0 32 32">
  <path fill-rule="evenodd" d="M32 54l-.01-.01c-1.58-.03-3.15-.19-4.69-.5l-.01-.01c-.73-.13-1.48.06-2.06.53l0-.01c-2.96 2.16-6.42 3.53-10.06 3.95l0-.01c-.6.06-1.14-.38-1.2-.98 -.03-.26.03-.52.18-.73l-.01 0c1.4-1.76 2.41-3.79 2.96-5.97l-.01 0c.1-.6-.13-1.21-.61-1.58l-.01-.01C11.16 44.72 8 38.52 7.93 31.91c0-12.14 10.74-22 24-22 13.25 0 24 9.86 24 22 0 12.13-10.75 22-24 22Zm10-24h-8v-8 0c0-1.11-.9-2-2-2 -1.11 0-2 .89-2 2v8h-8l-.01 0c-1.11 0-2 .89-2 2 0 1.1.89 2 2 2h8v8l0-.01c-.01 1.1.89 2 2 2 1.1 0 2-.9 2-2 0-.01 0-.01 0-.01v-8h8 -.01c1.1 0 2-.9 2-2 0-1.11-.9-2-2-2Z" transform="scale(0.5,0.5)" fill="#D3D3D3"/>
</svg>