<svg xmlns="http://www.w3.org/2000/svg" viewBox="0 0 64 64">
  <path fill-rule="evenodd" d="M32.01 56.02v0c-13.26 0-24-10.75-24-24 0-13.26 10.74-24 24-24 13.25 0 24 10.74 24 24v0c0 13.25-10.75 24-24 24Zm12.1-37.81l-14.73 9.82v0c-.54.35-1 .81-1.35 1.34l-9.82 14.74h0c-.38.55-.23 1.31.33 1.68 .4.27.93.27 1.34 0l14.72-9.83v0c.53-.36.99-.82 1.34-1.35l9.81-14.741v0c.37-.56.22-1.32-.34-1.69 -.41-.28-.94-.28-1.35-.01ZM32 35.01v0c-1.66 0-3-1.35-3-3 0-1.66 1.34-3 3-3 1.65 0 3 1.34 3 3v0c0 1.65-1.35 3-3 3Z" fill="#D3D3D3"/>
</svg>