<svg xmlns="http://www.w3.org/2000/svg" viewBox="0 0 64 64">
  <path fill-rule="evenodd" d="M32 36c-14.92 0-27-2.24-27-5 0-1.61 4.11-3.04 10.47-3.95 1.48-11.16 4-19.06 7.52-19.06 3.92 0 5.65 2 9 2 3.34 0 5.07-2 9-2 3.52 0 6.04 7.89 7.52 19.052 6.36.91 10.47 2.34 10.47 3.94 0 2.76-12.09 5-27 5Zm12.39-11.13v0c-.03-.27-.27-.47-.54-.44 -2.98.26-7.27.55-11.87.55s-8.89-.29-11.86-.56v0c-.27-.03-.51.16-.54.43q-.2 1.68-.38 3.49h-.001c-.03.25.14.49.39.54l0-.001c4.08.75 8.22 1.11 12.37 1.08l0 0c4.15.03 8.29-.33 12.37-1.09v0c.25-.06.42-.29.39-.55q-.18-1.82-.38-3.5ZM10.95 38.99l0 0c3.31-.65 6.67-.99 10.04-1 7.23 0 8.04 1.59 10.99 1.59 2.94 0 3.76-1.6 10.99-1.6h-.001c3.37.01 6.73.34 10.04.99v0c.55.11.95.6.95 1.17v1.6 0c-.02.51-.28 1-.69 1.31 -.98.79-1.16 3.01-1.87 5.3 -1.11 3.57-3.04 5.59-8.45 5.59 -6.3 0-7.21-1.92-8.5-5.6 -.89-2.52-.45-5.6-2.51-5.6 -2.07 0-1.63 3.08-2.51 5.59 -1.3 3.68-2.2 5.59-8.5 5.59 -5.42 0-7.34-2.02-8.45-5.6 -.71-2.29-.9-4.51-1.87-5.31h0c-.42-.31-.67-.8-.69-1.31v-1.61 -.001c-.01-.57.39-1.07.95-1.18Zm30.38 11.93c.46.03 1 .05 1.62.05v0c.5 0 1.01-.03 1.51-.08v0c.16-.03.29-.15.32-.31l2.19-8.87v0c.06-.23-.08-.46-.3-.52 -.01-.01-.02-.01-.03-.01v0c-1.02-.16-2.04-.23-3.06-.23v0c-.19 0-.35.13-.39.31l-2.26 9.1v0c-.07.22.06.44.28.51 .02 0 .04 0 .06.01Zm-22.02-.04v0c.54.06 1.09.09 1.64.08 .56 0 1.05-.02 1.49-.05v0c.17-.02.3-.15.34-.31l2.19-8.87v0c.06-.23-.07-.46-.29-.52 -.01-.01-.01-.01-.01-.01v0c-1.02-.19-2.05-.27-3.08-.27v0c-.19 0-.35.13-.39.31l-2.25 9.07v0c-.07.21.06.44.28.51 .01 0 .02 0 .03 0Z" fill="#D3D3D3"/>
</svg>