<svg xmlns="http://www.w3.org/2000/svg" viewBox="0 0 64 64">
  <path fill-rule="evenodd" d="M54 39v0c-1.11 0-2-.9-2-2v-3 0c0-1.11.89-2 2-2 1.1 0 2 .89 2 2v3 0c0 1.1-.9 2-2 2Zm1.28-11.04l-10.52-2.37h-.001c-.08 3.11-.46 6.22-1.14 9.26l2.95 1.78v0c.24.11.41.35.42.62v0c-.04.43-.42.75-.85.71 -.03-.01-.05-.01-.07-.01v0c-2.73-.33-5.49-.33-8.21 0h-.001c-.43.06-.83-.23-.9-.65 -.01-.03-.01-.05-.01-.07v0c0-.28.17-.52.42-.63l2.95-1.79h0c-.69-3.05-1.07-6.15-1.14-9.27L28.65 27.9v0c-.32.07-.63-.13-.7-.44 -.01-.05-.02-.09-.02-.13v-2.55 0c0-.44.25-.84.64-1.04l4.35-2.16c.01-3.29.31-3.67 1.49-3.67 .98 0 1.34.26 1.45 2.2l3.13-1.55c.08-9.71 1.54-10.67 2.91-10.67s2.83.95 2.91 10.66l3.13 1.54c.11-1.94.47-2.21 1.45-2.21 1.18 0 1.47.37 1.49 3.66l4.35 2.15 -.001 0c.39.19.64.59.64 1.03v2.54 0c-.01.32-.27.57-.59.57 -.05-.01-.09-.01-.13-.02ZM29.99 12h-3v0c-1.11 0-2-.9-2-2 0-1.11.89-2 2-2h3v0c1.1 0 2 .89 2 2 0 1.1-.9 2-2 2Zm-.5 24c1.186 0 1.47.37 1.49 3.66l4.35 2.15v0c.39.19.64.59.64 1.03v2.54h0c-.01.32-.27.57-.59.57 -.05-.01-.09-.01-.13-.02l-10.52-2.37h0c-.08 3.11-.46 6.22-1.14 9.26l2.95 1.78v0c.24.11.41.35.42.62h-.001c-.04.43-.42.75-.85.71 -.03-.01-.05-.01-.07-.01v0c-2.73-.33-5.49-.33-8.21 0h-.001c-.43.06-.83-.23-.9-.65 -.01-.03-.01-.05-.01-.07v0c0-.28.17-.52.42-.63l2.95-1.79 0 0c-.69-3.05-1.07-6.15-1.14-9.27L8.62 45.87H8.62c-.32.07-.63-.13-.7-.44 -.01-.05-.02-.09-.02-.13v-2.55 0c0-.44.25-.84.64-1.04l4.359-2.16c.01-3.29.31-3.67 1.49-3.67 .98 0 1.34.26 1.45 2.2l3.13-1.55c.08-9.71 1.54-10.67 2.91-10.67s2.83.95 2.91 10.66l3.13 1.54c.11-1.94.47-2.21 1.45-2.21ZM16.4 18.39v0c-.79.78-2.06.78-2.85-.01s-.79-2.06 0-2.85l2.01-2.02v0c.79-.78 2.06-.77 2.84.03 .76.78.76 2.03-.01 2.81Zm-6.42 13.6v0c-1.11 0-2-.9-2-2v-3 0c0-1.11.89-2 2-2 1.1 0 2 .89 2 2v3 0c0 1.1-.9 2-2 2Zm24 20h3v0c1.1 0 2 .89 2 2 0 1.1-.9 2-2 2h-3v0c-1.11 0-2-.9-2-2 0-1.11.89-2 2-2Zm13.58-6.4h0c.78-.79 2.05-.79 2.84 0 .78.78.78 2.05-.01 2.84l-2.02 2.01v0c-.8.77-2.07.75-2.85-.04 -.77-.79-.77-2.03 0-2.81Z" fill="#D3D3D3"/>
</svg>