<svg xmlns="http://www.w3.org/2000/svg" viewBox="0 0 64 64">
  <path fill-rule="evenodd" d="M56.01 45.02v4 0c0 .55-.45 1-1 1h-1.44v0c-.36-.01-.68-.19-.86-.49l-2.42-4.03v0c-.19-.31-.51-.49-.86-.49H14.56v0c-.36-.01-.68.18-.86.48l-2.42 4.02h0c-.19.3-.51.48-.86.48H8.98v0c-.56 0-1-.45-1-1v-4 0c-3.32 0-6-2.69-6-6v-12 0c0-1.11.89-2 2-2h4v0c1.1 0 2 .89 2 2v7.5 0c0 .27.22.5.5.5h43v0c.27 0 .5-.23.5-.5v-7.5 0c0-1.11.89-2 2-2h4v0c1.1 0 2 .89 2 2v12 0c0 3.31-2.69 6-6 6Zm-6-28v0c1.1 0 2 .89 2 2v12 0c0 1.1-.9 2-2 2h-15v0c-1.11 0-2-.9-2-2v-12 0c0-1.11.89-2 2-2Zm-21 0v0c1.1 0 2 .89 2 2v12 0c0 1.1-.9 2-2 2h-15v0c-1.11 0-2-.9-2-2v-12 0c0-1.11.89-2 2-2Z" fill="#D3D3D3"/>
</svg>