<svg xmlns="http://www.w3.org/2000/svg" viewBox="0 0 64 64">
  <path fill-rule="evenodd" d="M36.99 30.03c-.66 0-3.01-2.4-3.01-3.01 0-1.48 1.59-4.2 3.6-6.21C40.67 17.71 55.05 6 56.39 6v0c.8.16 1.43.79 1.6 1.6 0 1.33-11.72 15.72-14.81 18.81 -2.01 2-4.73 3.6-6.21 3.6Zm-9.633 9.98c-2.74 0-5.36-1.68-5.36-2.36 0-.69.8-.19 2.04-1.45 1.03-1.07.64-3.55 2.8-5.77l-.001-.001c1.79-1.87 4.75-1.92 6.61-.13 .04.04.08.08.12.12v0c1.86 1.93 1.86 4.98 0 6.92h-.001c-1.63 1.7-3.88 2.66-6.24 2.65ZM34.997 12v0c1.1 0 2 .89 2 2 0 1.1-.9 2-2.01 2h-17v0c-1.11 0-2 .89-2 2v28 0c0 1.1.89 1.99 2 2h28 0c1.1-.01 1.99-.9 2-2.01V28.98v0c0-1.11.89-2 2-2 1.1 0 2 .89 2 2v17 0c-.01 3.31-2.69 5.99-6 6h-28v0c-3.32-.01-6-2.69-6-6.01V17.96v0c0-3.32 2.68-6 6-6.01Z" fill="#D3D3D3"/>
</svg>