<svg xmlns="http://www.w3.org/2000/svg" viewBox="0 0 64 64">
  <path fill-rule="evenodd" d="M54.52 49.02h-5.5v5.5 0c0 .82-.68 1.5-1.5 1.5h-3v0c-.83 0-1.5-.68-1.5-1.5v-5.5h-23.5v0c-2.49 0-4.5-2.02-4.5-4.5v-23.5h-5.5v0c-.83 0-1.5-.68-1.5-1.5v-3 0c0-.83.67-1.5 1.5-1.5h5.5v-5.5 0c0-.83.67-1.5 1.5-1.5h3v0c.82 0 1.5.67 1.5 1.5v33 0c0 .27.22.5.5.5h33v0c.82 0 1.5.67 1.5 1.5v3 0c0 .82-.68 1.5-1.5 1.5Zm-10-34v0c2.48 0 4.5 2.01 4.5 4.5v21 0c0 .27-.23.5-.5.5h-5v0c-.28 0-.5-.23-.5-.5v-19 0c0-.28-.23-.5-.5-.5h-19v0c-.28 0-.5-.23-.5-.5v-5 0c0-.28.22-.5.5-.5Z" fill="#D3D3D3"/>
</svg>