<svg xmlns="http://www.w3.org/2000/svg" viewBox="0 0 64 64">
  <path fill-rule="evenodd" d="M55 56H37v0c-.56 0-1-.45-1-1v-2 0c0-.56.44-1 1-1h18v0c.55 0 1 .44 1 1v2 0c0 .55-.45 1-1 1Zm0-8.01l-10.15 0h0c-.47-.01-.85-.38-.85-.85 0-.18.05-.35.15-.5l8.7-12.165 0 0c.38-.55 1.14-.68 1.68-.29 .09.06.18.15.25.24v0c.76 1.02 1.17 2.26 1.17 3.53v8.99 0c-.01.55-.45.99-1 .99Zm-9.01-18v0c-4.42 0-8-3.59-8-8 -.001-.01 0-.01 0-.01v-2l-3.77-.01v-.001c-.69-.01-1.24-.56-1.24-1.24 0-.47.26-.9.68-1.11l2.68-1.35v0c.41-.21.87-.32 1.34-.32h15.29v0c.55 0 1 .44 1 1v4.99 0c0 4.41-3.59 8-8 8 -.01 0-.01 0-.01 0Zm7-16.01H37.81v0c-.54 0-1.04-.22-1.42-.59l-1-1v-.001c-.56-.56-.56-1.45 0-2.01 .26-.27.62-.42.99-.42h16.58v0c.55 0 1 .44 1 1v2 0c0 .55-.45 1-1 1 -.01 0-.01 0-.01 0Zm-4.87 18v0c.46-.01.84.37.84.84 0 .17-.06.34-.16.49L38.71 47.35v0c-.29.39-.74.62-1.22.62h-.52v0c-.56 0-1-.45-1-1v-3.01l-2.91 2.9v0c-.71.7-1.66 1.09-2.66 1.09h-9.45v0c-.56 0-1-.45-1-1v-.19 0c-.01-.58.38-1.08.94-1.22l8.3-2.11 5.97-8.21v0c1.5-2.07 3.9-3.3 6.46-3.29ZM31.98 50.96v1.99 0c-.01 1.65-1.35 2.99-3 2.99H14.97v0c-1.66 0-3-1.35-3-3v-2.5 0c0-.28-.23-.5-.5-.5h-2.5v0c-1.66 0-3-1.35-3-3v-14 0c-.01-1.66 1.34-3 2.99-3 0-.01 0-.01 0-.01h2v0c.55 0 .99.44.99 1v14.16 0c0 .53.21 1.03.58 1.41l2.82 2.82h0c.37.37.88.58 1.41.58h14.17v0c.55 0 .99.44.99.99Z" fill="#D3D3D3"/>
</svg>