<svg xmlns="http://www.w3.org/2000/svg" viewBox="0 0 64 64">
  <path fill-rule="evenodd" d="M44 28l0-.001c-1.54-.07-3.05-.39-4.48-.95v-.001c-.12-.05-.24.01-.28.13 -.04.08-.01.18.06.24v0c1.17.91 2.18 2.01 2.98 3.26v0c1.34 2.29.58 5.24-1.71 6.58 -.04.02-.08.04-.12.06v0c-2.38 1.34-5.4.55-6.82-1.79v0c-.74-1.38-1.23-2.88-1.46-4.42v0c-.03-.12-.14-.2-.26-.18 -.1.01-.17.08-.18.17h0c-.23 1.54-.72 3.03-1.45 4.41h-.001c-1.42 2.34-4.44 3.13-6.82 1.78h0c-2.33-1.29-3.18-4.22-1.9-6.54 .02-.04.04-.08.06-.12h0c.8-1.25 1.8-2.34 2.97-3.25v0c.09-.08.1-.22.02-.31 -.06-.08-.16-.1-.25-.07v0c-1.43.55-2.94.87-4.46.93h0c-2.77-.02-5-2.28-4.98-5.04 .01-2.74 2.23-4.96 4.97-4.98h-.001c1.53.06 3.04.38 4.47.94v-.001c.11.04.23-.02.27-.14 .03-.09 0-.19-.07-.25v0c-1.18-.92-2.19-2.02-2.99-3.27v0c-1.35-2.3-.59-5.25 1.7-6.59 .03-.03.07-.05.11-.07h-.001c2.37-1.35 5.39-.56 6.81 1.78V10.3c.73 1.37 1.22 2.87 1.45 4.41v0c.02.11.13.19.25.17 .09-.02.16-.09.17-.18v0c.22-1.55.71-3.04 1.44-4.42v0c1.41-2.35 4.43-3.14 6.81-1.79v0c2.32 1.28 3.17 4.21 1.89 6.53 -.03.03-.05.07-.07.11v0c-.81 1.24-1.81 2.33-2.98 3.24l0 0c-.1.07-.11.21-.03.3 .05.07.15.09.24.06v0c1.42-.56 2.93-.88 4.45-.94v0c2.76.01 4.99 2.27 4.97 5.03 -.02 2.73-2.24 4.95-4.98 4.97Zm-12-9.99v0c-2.77 0-5 2.23-5 5 0 2.76 2.23 5 5 5 2.76 0 5-2.24 5-5v0c0-2.77-2.24-5-5-5ZM17.46 47.5c.85-.82 1.95-1.51 4.54-1.51 2.69 0 6.05 1.19 7.56 2.9v0c.08.1.24.11.34.03 .05-.05.08-.12.08-.2l-.02-9.22h-.001c-.01-.54.21-1.05.58-1.42l.88-.89v0c.29-.3.76-.3 1.06 0l.88.88v0c.37.37.58.88.58 1.41l.01 9.22v0c-.01.13.1.24.24.25 .07 0 .14-.04.19-.09 1.5-1.71 4.86-2.9 7.56-2.9 2.58 0 3.69.68 4.54 1.5h-.001c.37.38.48.95.26 1.45 -1.32 2.65-5.1 7.04-14.81 7.04 -9.72 0-13.494-4.4-14.81-7.05v0c-.23-.5-.12-1.07.26-1.46Z" fill="#D3D3D3"/>
</svg>