<svg xmlns="http://www.w3.org/2000/svg" viewBox="0 0 64 64">
  <path d="M32.01 56.02v0c-13.26 0-24-10.75-24-24 0-13.26 10.74-24 24-24 13.25 0 24 10.74 24 24v0c0 13.25-10.75 24-24 24Zm-13-12v0c0 1.1.89 2 2 2h22v0c1.1 0 2-.9 2-2v-2 0c0-1.11-.9-2-2-2h-22v0c-1.11 0-2 .89-2 2Zm13-32v0c-11.05 0-20 8.95-20 20v.02 0c.02 1.1.93 1.99 2.04 1.98h13.58l-2.6-15.166v0c-.15-.75.27-1.49.98-1.76l0-.001c.71-.24 1.49.1 1.81.78l7.6 16.138h14.51v-.001c1.1.01 2.01-.88 2.04-1.98v-.02h-.001c-.01-11.05-8.96-20-20-20Z" fill="#D3D3D3"/>
</svg>