<svg xmlns="http://www.w3.org/2000/svg" viewBox="0 0 64 64">
  <path fill-rule="evenodd" d="M32 54c-11.05 0-20-4.03-20-9v-1.53h-.001c-.01-.81.64-1.46 1.44-1.47 .33-.01.65.11.91.32 3.43 2.78 10.07 4.66 17.63 4.66 7.55 0 14.19-1.89 17.63-4.67v0c.62-.51 1.54-.41 2.04.22 .2.26.32.58.32.91v1.52c0 4.97-8.96 9-20 9Zm0-11c-11.05 0-20-4.03-20-9v-1.53l-.001 0c-.01-.81.64-1.46 1.44-1.47 .33-.01.65.11.91.32 3.43 2.78 10.07 4.66 17.63 4.66 7.55 0 14.19-1.89 17.63-4.67v0c.62-.51 1.54-.41 2.04.22 .2.26.32.58.32.91v1.52c0 4.97-8.96 9-20 9Zm0-11c-11.05 0-20-4.03-20-9v-4c0-4.98 8.95-9 20-9 11.04 0 20 4.02 20 9v4c0 4.97-8.96 9-20 9Z" fill="#D3D3D3"/>
</svg>