<svg xmlns="http://www.w3.org/2000/svg" viewBox="0 0 64 64">
  <path fill-rule="evenodd" d="M32 55.98c-4.03 0-24-14.36-24-31.03v0c-.12-7.05 5.49-12.86 12.54-12.98h-.001c5.01.04 9.52 3.07 11.45 7.69l0-.001c1.93-4.63 6.43-7.66 11.45-7.7v0c7.04.12 12.66 5.92 12.54 12.97 0 16.67-19.98 31.02-24 31.02Zm6.62-23.01H34.1l2.79-7.57v0c.23-.51.01-1.1-.49-1.34 -.4-.19-.88-.09-1.17.23l-10.9 12.38 -.001-.001c-.51.57-.45 1.44.12 1.94 .24.21.56.33.89.34h4.52l-2.8 7.56h0c-.24.5-.02 1.09.48 1.33 .39.18.87.08 1.16-.24l10.89-12.39v0c.5-.58.44-1.45-.13-1.95 -.25-.22-.57-.34-.9-.35Z" fill="#D3D3D3"/>
</svg>