<svg xmlns="http://www.w3.org/2000/svg" viewBox="0 0 64 64">
  <path fill-rule="evenodd" d="M49.01 20.02h-34v0c-1.11 0-2-.9-2-2v-2 0c0-1.11.89-2 2-2h6c0-2.94.61-4.65 1.98-6.02 1.36-1.37 3.07-1.99 6-1.99H35c2.93 0 4.63.61 6 1.98 1.36 1.36 1.98 3.08 1.98 6.01h6v0c1.1 0 2 .89 2 2v2 0c0 1.1-.9 2-2 2Zm-11-9.006v0c-.82-.75-1.91-1.11-3.01-1h-6.01v0c-1.1-.12-2.2.24-3.003.99v0c-.75.81-1.11 1.9-1 3h14v0c.11-1.1-.25-2.2-1-3.01Zm8.98 11.006v-.001c.55-.01 1 .44 1 .99 0 .02-.01.04-.01.06l-1.77 28.12v0c-.11 1.58-1.42 2.81-3.01 2.81H20.75h0c-1.59 0-2.91-1.23-3.01-2.82l-1.77-28.13v0c-.04-.56.38-1.03.93-1.07 .02-.01.04-.01.06-.01Z" fill="#D3D3D3"/>
</svg>