<svg xmlns="http://www.w3.org/2000/svg" viewBox="0 0 64 64">
  <path fill-rule="evenodd" d="M46 56v0c-1.11 0-2-.9-2-2V24h-5v0c-.55 0-1-.44-1-.99 -.01-.08 0-.16.02-.24 .13-.85.97-.76.97-1.78s-.85-.94-.98-1.78v0c-.04-.15-.04-.3 0-.45 .13-.85.97-.76.97-1.78s-.85-.94-.98-1.78v0c-.04-.15-.04-.3 0-.45 .13-.85.97-.76.97-1.78s-.85-.94-.98-1.78l0-.001c-.13-.54.2-1.07.73-1.2 .07-.02.15-.03.23-.03h5v0c0-1.11.89-2 2-2 1.1 0 2 .89 2 2v44 0c0 1.1-.9 2-2 2Zm-13.04 0H15.03v-.001c-.56.01-1.02-.43-1.03-.99 -.01-.09 0-.18.02-.26l.52-2.05 0-.001c.12-.48.19-.96.23-1.45l1.95-32.34h0c.04-.54.49-.95 1.03-.94h12.44v0c.53-.01.98.4 1.03.93l1.95 32.33 -.001-.001c.03.48.1.96.23 1.44l.52 2.04v0c.12.54-.21 1.08-.75 1.21 -.09.02-.17.02-.26.02Zm-4.99-40H20h-.001c-.57.01-1.03-.44-1.04-1 -.01-.05 0-.09 0-.14l.78-6v0c.07-.51.51-.89 1.03-.88h6.4V7.97c.51-.01.95.36 1.03.87l.78 6v0c.06.55-.35 1.05-.9 1.11 -.05 0-.09 0-.14 0Z" fill="#D3D3D3"/>
</svg>