<svg xmlns="http://www.w3.org/2000/svg" viewBox="0 0 64 64">
  <path fill-rule="evenodd" d="M45.98 30H19.59v0c-.93 0-1.82-.37-2.48-1.03l-4.57-4.57v0c-.79-.79-.79-2.05-.01-2.83 0-.01 0-.01 0-.01l4.56-4.57h0c.65-.66 1.54-1.03 2.47-1.03H45.94v0c1.1-.01 2 .89 2 1.99 0 0 0 0 0 0v10 0c0 1.1-.9 2-2 2 -.01 0-.01-.01-.01-.01ZM33.99 14h-4.01v0c-.56 0-1-.45-1-1v-3 0c0-1.11.89-2 2-2h2v0c1.1 0 2 .89 2 2v3 0c0 .55-.45.99-1 1Zm-4.01 18h4v0c.55 0 1 .44 1 1v21 0c0 1.1-.9 2-2 2h-2v0c-1.11 0-2-.9-2-2V33v0c-.01-.56.44-1 .99-1Z" fill="#D3D3D3"/>
</svg>