<svg xmlns="http://www.w3.org/2000/svg" viewBox="0 0 64 64">
  <path fill-rule="evenodd" d="M17.98 30h26.4v0c.92 0 1.81-.37 2.47-1.03l4.56-4.57v0c.78-.79.78-2.05 0-2.83 -.01-.01-.01-.01-.01-.01l-4.57-4.57v0c-.66-.66-1.55-1.03-2.48-1.03H17.94h0c-1.11-.01-2.01.89-2.01 1.99 -.001 0-.001 0-.001 0v10 0c0 1.1.89 2 2 2 0-.001 0-.001 0-.001Zm11.99-16h4v0c.55 0 1-.45 1-1 0-.01 0-.01 0-.01v-3 0c-.01-1.11-.9-2.01-2.01-2 -.01 0-.01 0-.01 0h-2.01v0c-1.11-.01-2.01.89-2.01 1.99 -.001 0-.001 0-.001 0v3h0c0 .55.44 1 1 1Zm4 18h-4.01v0c-.56-.01-1.01.44-1.01.99 -.01 0-.01 0-.01 0v21l-.001 0c0 1.1.89 2 2 2 0-.001 0-.001 0-.001h2 0c1.1 0 2-.9 2-2 0-.01 0-.01 0-.01v-21 0c0-.56-.45-1.01-1-1.01 -.01-.001-.01 0-.01 0Z" fill="#D3D3D3"/>
</svg>