<svg xmlns="http://www.w3.org/2000/svg" viewBox="0 0 64 64">
  <path fill-rule="evenodd" d="M57.1 34.12l-23 22.99v0c-1.18 1.17-3.08 1.17-4.25 0l-23-23H6.84c-1.18-1.18-1.18-3.08-.001-4.25l22.99-23V6.85c1.17-1.18 3.07-1.18 4.24-.01 0 0 0 0 0 0l22.99 22.99h-.001c1.17 1.17 1.17 3.07-.01 4.24ZM45.56 27.2l-9.948-6.99v0c-.47-.33-1.11-.22-1.43.24 -.13.16-.19.37-.19.57V26H30v0c-4.42 0-8 3.58-8 8v8 0c0 1.1.89 2 2 2 1.1 0 2-.9 2-2v-8 0c0-2.21 1.79-4 4-4h3.99v4.99 -.001c0 .56.47 1.01 1.04 1 .2-.01.4-.07.57-.19l9.948-6.99h0c.45-.32.56-.94.25-1.39 -.07-.1-.16-.19-.26-.26Z" fill="#D3D3D3"/>
</svg>