<svg xmlns="http://www.w3.org/2000/svg" viewBox="0 0 64 64">
  <path fill-rule="evenodd" d="M51.43 24.41l-4.57 4.56v0c-.66.65-1.55 1.02-2.48 1.02H17.97v0c-1.11 0-2.01-.9-2.01-2 -.01-.01-.01-.01-.01-.01v-10 0c0-1.11.89-2.01 2-2.01 0 0 0 0 0 0h26.4v0c.92-.01 1.82.36 2.47 1.02l4.56 4.56h0c.78.78.78 2.04 0 2.82 -.01 0-.01 0-.01 0ZM34 13.99h-4v0c-.56 0-1-.45-1-1v-3 0c0-1.11.89-2 2-2h2v0c1.1 0 2 .89 2 2v3 0c0 .55-.45 1-1 1Zm-14.41 18h26.38v0c1.1 0 2 .89 2 2v10 0c0 1.1-.9 2-2 2H19.58v0c-.93 0-1.82-.37-2.48-1.03l-4.57-4.57h0c-.79-.79-.79-2.05-.01-2.83 0-.01 0-.01 0-.01l4.56-4.57h0c.65-.66 1.54-1.03 2.47-1.03Zm10.4 16h4v0c.55 0 1 .44 1 1v5 0c0 1.1-.9 2-2 2h-2v0c-1.11 0-2-.9-2-2v-5 0c0-.56.44-1 1-1Z" fill="#D3D3D3"/>
</svg>