<svg xmlns="http://www.w3.org/2000/svg" viewBox="0 0 64 64">
  <path fill-rule="evenodd" d="M44 47v6 0c0 1.65-1.35 3-3 3H23v0c-1.66 0-3-1.35-3-3v-6 -.001c-.13-6.39 1.18-12.71 3.83-18.52v0c.11-.35.16-.7.16-1.06v0c-.01-.92-.37-1.79-1.01-2.44l-1.41-1.41v-.001c-.38-.38-.59-.89-.59-1.42v-2.27 0c0-.58.24-1.13.68-1.51l6.46-5.66v0c.54-.48 1.24-.75 1.97-.75h3.74v0c.72-.01 1.42.26 1.97.74l6.46 5.66v0c.43.37.68.92.68 1.5v2.26h-.001c0 .53-.22 1.03-.59 1.41l-1.41 1.4v0c-.65.64-1.01 1.52-1.01 2.43v0c-.01.35.05.71.16 1.05l-.001 0c2.64 5.8 3.95 12.13 3.83 18.51ZM35.73 8.24V8.23c-.32.32-.55.72-.66 1.17v0c-.08.33-.38.58-.73.58h-4.7l-.001-.001c-.35-.01-.65-.25-.73-.59v0c-.12-.45-.35-.85-.66-1.17v0c-.18-.19-.28-.43-.27-.68v-.82 0c0-.42.33-.75.75-.75h6.5v0c.41 0 .75.33.75.75v.81 0c0 .25-.1.49-.27.68Z" fill="#D3D3D3"/>
</svg>