<svg xmlns="http://www.w3.org/2000/svg" viewBox="0 0 64 64">
  <path fill-rule="evenodd" d="M28.24 29.606v0c.87-.69 1.02-1.95.33-2.82 -.08-.09-.15-.18-.24-.26 -.97-.85-1.67-1.63-2.53-2.54h12.35l-.001 0c-2.32 2.31-4.8 4.46-7.42 6.42 -7.25 5.68-14.73 11.57-14.77 23.48h-.001c-.02 1 .69 1.86 1.67 2.05h0c1.09.17 2.11-.57 2.29-1.66 .01-.11.02-.22.02-.33 0-.7.03-1.36.09-2h23.8c.05.61.09 1.25.1 1.91h0c-.02.99.67 1.85 1.64 2.05l0 0c1.08.19 2.12-.53 2.32-1.62 .02-.12.03-.24.03-.36 0-9.28-4.3-14.82-9.71-19.53v0c-.84-.73-2.11-.63-2.83.2 -.72.82-.64 2.06.17 2.79 .96.84 1.66 1.62 2.53 2.53H25.71l0 0c2.31-2.32 4.79-4.47 7.41-6.43 7.24-5.69 14.72-11.58 14.76-23.49v0c.01-1.01-.7-1.87-1.68-2.06V7.93c-1.1-.18-2.12.56-2.3 1.65 -.02.1-.03.21-.03.32 0 .69-.04 1.35-.1 2h-23.8c-.06-.62-.1-1.26-.1-1.92V9.98c.01-1-.68-1.86-1.65-2.06V7.92c-1.09-.2-2.13.52-2.33 1.61 -.03.11-.04.23-.04.35 0 9.28 4.29 14.81 9.7 19.53v0c.72.63 1.79.65 2.54.06Zm-7.35 18.39v0c.44-1.41 1.05-2.75 1.82-4h18.54l-.001 0c.76 1.25 1.38 2.59 1.83 3.99Zm22.19-32v0c-.45 1.4-1.06 2.74-1.83 3.99H22.7v0c-.77-1.26-1.39-2.6-1.84-4Z" fill="#D3D3D3"/>
</svg>