<svg xmlns="http://www.w3.org/2000/svg" viewBox="0 0 64 64">
  <path fill-rule="evenodd" d="M40 56H24v0c-2.21 0-4-1.8-4-4V30.96v0c0-.91.6-1.7 1.48-1.94l12.07-3.24v0c2.79-.75 4.65-3.39 4.43-6.27v0c-.28-3.08-2.82-5.46-5.91-5.54v0c-3.32-.05-6.04 2.6-6.08 5.91 -.01.02-.01.05-.01.08v1.81 0c-.01.45-.31.84-.75.96l-4.32 1.15v0c-.41.1-.82-.14-.92-.54 -.02-.07-.03-.13-.03-.2V11.92v0c0-2.21 1.79-4 4-4h16v0c2.2 0 4 1.79 4 4v40 0c0 2.2-1.8 4-4 4Zm-8-22v0c-3.39 0-6.4 2.12-7.53 5.31v0c-.1.26.03.55.29.65 .05.02.11.03.17.03h14.12 0c.27-.01.5-.24.49-.52 -.01-.06-.02-.12-.04-.18v-.001c-1.14-3.19-4.15-5.32-7.53-5.32Zm-7.07 10v0c-.28 0-.51.23-.5.51 0 .05.01.11.03.17v0c1.47 4.15 6.04 6.33 10.2 4.85 2.26-.81 4.04-2.59 4.85-4.86h0c.09-.27-.04-.56-.3-.66 -.06-.03-.12-.04-.18-.04Z" fill="#D3D3D3"/>
</svg>