<svg xmlns="http://www.w3.org/2000/svg" viewBox="0 0 64 64">
  <path fill-rule="evenodd" d="M6.12 39.49v0c1.61-1.59 2.92-3.45 3.87-5.5l-.01 10.09H9.97c0 .59.17 1.17.5 1.66l2.38 3.57h-.001c.27.41.74.66 1.24.66h2.86v0c.55 0 1-.45 1-1v-.53 0c0-.32-.08-.62-.22-.9l-1.58-3.16h0c-.14-.28-.22-.59-.22-.9v-7.01h0c0-.29.22-.51.5-.51 0 0 .01 0 .02 0 3.61.16 6.92 1.98 11.46 1.98v0c1.8.08 3.6-.15 5.32-.68v-.001c.25-.1.54.03.64.29 .02.05.03.11.03.17v6.29h0c0 .59.17 1.17.5 1.66l2.38 3.57v0c.27.41.74.66 1.24.66h2.86v0c.55 0 1-.45 1-1v-.53h-.001c-.01-.32-.08-.62-.22-.9l-1.58-3.16v0c-.14-.28-.22-.59-.22-.9v-6.15 0c0-.91.24-1.8.71-2.58l5.12-8.54h0c.06-.12.2-.17.32-.11 .02.01.05.03.06.05l1.63 1.63v0c.79.69 1.36 1.6 1.63 2.61v-.001c.05.8.69 1.45 1.5 1.52l3-.01h0c.81.01 1.48-.64 1.5-1.45 0-.02 0-.04 0-.06 .08-.96.5-5.57.5-8.5 0-2.94-.62-4.65-1.99-6.02v0c-.15-.15-.31-.29-.47-.42v-.001c-.16-.13-.23-.33-.18-.53 .57-2.37 1.21-7.05-.42-7.05 -1.41 0-2.55 2.32-4.31 5.74v0c-.09.16-.27.26-.46.25 -.07-.01-.14-.01-.21-.01v0c-1.05-.08-2.08.22-2.93.83l-7.85 6.06v0c-.93.71-2.07 1.09-3.23 1.09l-13.99 0c-7.269 0-9.62 1.32-12.01 8v-.001c-1.01 2.91-2.28 5.74-3.79 8.43 -.76 1.21.72 2.18 1.92 1.06Z" fill="#D3D3D3"/>
</svg>