<svg xmlns="http://www.w3.org/2000/svg" viewBox="0 0 64 64">
  <path fill-rule="evenodd" d="M48.99 16.04h-1.75l-3.19 38.14v0c-.09 1.03-.96 1.83-2 1.83H21.88v0c-1.04 0-1.91-.8-2-1.84l-3.19-38.15h-1.74v-.001c-.56-.01-1-.45-1-1.01 0-.09.01-.17.02-.25l.5-2v-.001c.11-.45.51-.76.96-.76h19.74l.75-9.11v0c.04-.56.52-.96 1.08-.92l1.99.16v0c.55.04.95.52.91 1.07l-.74 8.76h9.22v-.001c.45 0 .85.31.97.75l.5 1.99v0c.13.53-.2 1.07-.73 1.21 -.08.01-.16.02-.25.02Zm-28.22.54l.58 6.99v0c.02.25.23.45.49.45h12.39l.66-8H21.24v0c-.28-.01-.51.22-.51.49 -.01.01 0 .02 0 .04Zm18.15-.55l-.67 7.99h3.83v0c.25-.01.47-.2.49-.46l.58-7v0c.02-.28-.19-.52-.46-.54 -.02-.01-.03-.01-.05-.01Z" fill="#D3D3D3"/>
</svg>