<svg xmlns="http://www.w3.org/2000/svg" viewBox="0 0 64 64">
  <path fill-rule="evenodd" d="M54 23.99c0 .91-.57 1.41-1.75 1.74v0c-.22.06-.34.28-.28.49 .03.11.11.2.22.25 2.54 1.14 3.79 2.5 3.79 4 0 .88-.88 1.5-2 1.5h-3.16v-.001c-.23 0-.4.18-.4.4 0 .08.03.17.08.24v0c.85.91 1.37 2.1 1.47 3.35 0 1.18-.62 2-1.5 2 -1.82 0-4.76-4-10.5-4v0c-2.15-.02-4.29.29-6.34.92h-.001c-.69.18-1.43-.02-1.93-.52l-2.15-2.15h-.001c-.51-.5-.71-1.24-.52-1.93h-.001c.62-2.06.93-4.19.92-6.334 0-5.75-4-8.69-4-10.5 0-.88.81-1.5 2-1.5v-.001c1.25.09 2.43.61 3.35 1.47v0c.17.13.42.1.56-.07 .05-.07.08-.16.08-.25V9.93c0-1.13.61-2 1.5-2 1.5 0 2.86 1.25 4 3.79v0c.08.2.32.29.52.2 .1-.05.18-.15.22-.26 .32-1.19.83-1.75 1.74-1.75v0c1 .22 1.86.88 2.32 1.8v0c.22.34.64.5 1.04.41v0c.52-.14 1.07-.21 1.62-.22v0c3.86-.01 6.99 3.13 7 6.99h-.001c-.01.54-.08 1.09-.22 1.62h-.001c-.1.4.06.82.41 1.04v0c.91.46 1.58 1.32 1.8 2.32Zm-26.11 9.24h-.001c.84 1.06 1.8 2.02 2.86 2.87h0c.28.21.33.62.11.9 -.03.02-.05.05-.07.07L11.59 55.38l0-.001c-.86.81-2.22.78-3.04-.08 -.39-.4-.6-.93-.6-1.49h0v0c-.01-.56.21-1.09.59-1.48l18.31-19.19v0c.24-.27.65-.28.91-.03 .02.02.04.04.07.07Z" fill="#D3D3D3"/>
</svg>