<svg xmlns="http://www.w3.org/2000/svg" viewBox="0 0 64 64">
  <path fill-rule="evenodd" d="M53.99 33.99h-4V52v0c0 1.1-.9 2-2 2h-9.88 -.001c-.63-.01-1.13-.51-1.13-1.13 0-.07 0-.13.01-.19l2.99-17.95v0c.13-.82-.42-1.6-1.24-1.73 -.09-.02-.17-.03-.25-.03h-4.39 0c-.21-.01-.38-.17-.38-.38 0-.02 0-.04 0-.05l1.23-9.9v0c.1-.83-.49-1.58-1.31-1.68 -.6-.08-1.19.21-1.49.73 -.83 1.41-10.43 17.01-11.02 18.01v0c-.42.71-.18 1.63.53 2.05 .22.13.49.2.75.2h6.15 -.001c.2 0 .37.16.37.37 -.01.02-.01.04-.01.06l-1.75 10.45v0c-.11.63-.66 1.1-1.31 1.1h-9.98v0c-1.11 0-2-.9-2-2V33.91H9.88v0c-1.11-.01-2.01-.9-2-2.01 0-.53.21-1.04.58-1.42L30.45 8.46V8.45c.78-.79 2.04-.79 2.82-.01 0 0 0 0 0 0l21.99 22.01h0c.78.78.78 2.04-.01 2.83 -.38.37-.89.58-1.42.58Zm-5.28-13.22l-6.134-5.99h0c-.38-.37-.59-.86-.59-1.38v-1.47h-.001c.01-1.1.9-1.97 2-1.95h4v0c1.09-.02 1.98.85 2 1.95v8.31l-.001 0c-.02.41-.36.74-.78.73 -.2-.01-.38-.09-.51-.22Z" fill="#D3D3D3"/>
</svg>