<svg xmlns="http://www.w3.org/2000/svg" viewBox="0 0 64 64">
  <path fill-rule="evenodd" d="M54.988 46c-5.51 0-7.38-5.97-8.988-6v4.37h0c0 .39.15.77.43 1.06l1.12 1.12h-.001c.28.28.43.66.43 1.06v1.37 0c0 .55-.45 1-1 1h-10v0c-.56 0-1-.45-1-1v-8.49 0c0-.28-.23-.51-.51-.51 -.01-.01-.02 0-.02 0 -3.62.16-6.93 1.98-11.49 1.98v0c-1.81.08-3.62-.15-5.34-.68v-.001c-.26-.1-.54.03-.64.29 -.03.05-.04.11-.03.17v2.58h-.001c0 .39.15.77.43 1.06l1.12 1.12h0c.28.28.43.66.43 1.06v1.37 0c0 .55-.45 1-1 1h-10v0c-.56 0-1-.45-1-1v-17c0-6.6 1.38-10.45 4.46-13.53 3.08-3.09 6.92-4.47 13.51-4.47l4.02-.01 4.02 0c6.59 0 10.43 1.38 13.51 4.46s4.46 6.93 4.46 13.52v3c0 4.45 1.54 6 3.48 6v0c1.23 0 2.28-.93 2.41-2.16v0c.05-.51.5-.88 1.01-.83l2.2.27v0c.49.06.86.47.87.97 .09 3.81-3.43 6.74-7.02 6.74Z" fill="#D3D3D3"/>
</svg>