<svg xmlns="http://www.w3.org/2000/svg" viewBox="0 0 64 64">
  <path fill-rule="evenodd" d="M60.95 29.02H46.97v0c-.57-.01-1.02-.48-1.01-1.05 0-.21.06-.41.18-.58l6.98-9.97v0c.31-.46.93-.57 1.38-.26 .09.06.18.15.25.25l6.98 9.96v0c.32.46.22 1.1-.25 1.43 -.17.12-.38.18-.58.18ZM37.98 49.99H9.99 9.98c-2.21-.01-4-1.8-4-4v-28 0c-.01-2.21 1.78-4 3.99-4h27.98 -.001c2.2 0 3.99 1.79 3.99 4v28 0c0 2.2-1.79 3.99-4 4Zm-14-32v0c-1.66 0-3 1.34-3 3 0 1.65 1.34 3 3 3 1.65 0 3-1.35 3-3v0c0-1.66-1.35-3-3-3Zm6 10.75v0c0-1.52-1.24-2.75-2.75-2.75h-6.5v0c-1.52 0-2.75 1.23-2.75 2.75v6.75 0c0 .27.22.5.5.5h.8v0c.25 0 .46-.19.49-.44l.69-5.57 .35 2.33h0c.09.6.11 1.22.06 1.84l-.93 11.42v-.001c-.02.2.13.38.33.39 0 0 .01 0 .02 0h1.55v0c.24 0 .45-.18.49-.42l1.58-9.58 1.58 9.58 0-.001c.03.24.24.42.49.42h1.55 0c.2 0 .36-.17.36-.37 0-.01-.01-.02-.01-.03l-.93-11.43v0c-.05-.62-.03-1.24.06-1.85l.35-2.34 .69 5.56v0c.03.25.24.43.49.43h.8v0c.27 0 .5-.23.5-.5Zm17 6.25h13.97v0c.56 0 1.01.47 1 1.03 -.01.2-.07.4-.19.57l-6.99 9.94h-.001c-.32.45-.94.56-1.39.24 -.1-.07-.19-.16-.25-.25l-6.99-9.95v-.001c-.33-.47-.23-1.1.24-1.43 .16-.13.37-.19.57-.19Z" fill="#D3D3D3"/>
</svg>