<svg xmlns="http://www.w3.org/2000/svg" viewBox="0 0 32 32">
  <path fill-rule="evenodd" d="M32 56l-.01-.001c13.25 0 24-10.75 24-24 0-13.26-10.75-24-24-24 -13.26-.01-24 10.74-24 24l0-.01c-.01 13.25 10.74 24 24 24 0 0 0 0 0 0Zm8-32c1.78 0 3 1.87 3 4.48 0 2.66-1.4 3.51-3 3.51s-3-.85-3-3.52c0-2.62 1.21-4.49 3-4.49Zm-16 0c1.78 0 3 1.87 3 4.48 0 2.66-1.4 3.51-3 3.51s-3-.85-3-3.52c0-2.62 1.21-4.49 3-4.49Zm9 14c4.96 0 9 2.57 9 4l0-.01c-.01.54-.46.99-1 1 -.93 0-2.42-1-8-1 -7.02 0-10.73 4-12 4l-.01 0c-.55.01-.99-.42-1-.96 -.01-.02-.01-.03 0-.05 -.01-1.94 5.75-7 13-7Z" transform="scale(0.5,0.5)" fill="#D3D3D3"/>
</svg>