<svg xmlns="http://www.w3.org/2000/svg" viewBox="0 0 32 32">
  <path fill-rule="evenodd" d="M32 56l-.01-.001c-13.26-.01-24-10.75-24-24 0-13.26 10.74-24 24-24 13.25 0 24 10.74 24 24l0-.01c0 13.25-10.75 24-24 24Zm-8-32c-1.79 0-3 1.87-3 4.48 0 2.66 1.4 3.51 3 3.51s3-.85 3-3.52c-.01-2.62-1.22-4.49-3-4.49Zm16 0c-1.79 0-3 1.87-3 4.48 0 2.66 1.4 3.51 3 3.51s3-.85 3-3.52c-.01-2.62-1.22-4.49-3-4.49Zm-8 16c-8.28 0-12 1.54-12 2.75 0 .66.7 1.25 2 1.25h20c1.29 0 2-.59 2-1.25C44 41.54 40.27 40 32 40Z" transform="scale(0.5,0.5)" fill="#D3D3D3"/>
</svg>