<svg xmlns="http://www.w3.org/2000/svg" viewBox="0 0 32 32">
  <path fill-rule="evenodd" d="M32 56l-.01-.001c-13.26-.01-24-10.75-24-24 0-13.26 10.74-24 24-24 13.25 0 24 10.74 24 24l0-.01c0 13.25-10.75 24-24 24Zm11-23.52c0-2.62-1.22-4.49-3-4.49 -1.79 0-3 1.87-3 4.48 0 2.66 1.4 3.51 3 3.51s3-.85 3-3.52Zm-19 3.51c1.6 0 3-.85 3-3.52 0-2.62-1.22-4.49-3-4.49 -1.79 0-3 1.87-3 4.48 0 2.66 1.4 3.51 3 3.51Zm1.02-13.26c-3.49-1.51-5.61-.38-5.94.43l-.01 0c-.22.43-.03.96.41 1.17 .02.01.04.02.06.02 .66.28 2.02-.13 4.43.91 2.41 1.04 3.08 2.33 3.75 2.61l0 0c.4.2.9.03 1.1-.37 .02-.05.03-.09.05-.14 .32-.82-.42-3.18-3.9-4.68Zm-1.03 22.69l-.01 0c-.03.28.19.54.48.56 .02 0 .05 0 .07 0 1.04 0 2.74-2 7.43-2 4.69 0 6.39 2 7.43 2l-.01-.01c.28.02.54-.2.56-.49 0-.03 0-.06-.001-.08 -.01-.97-2.69-5.44-8-5.44 -5.31 0-8 4.46-8 5.43Zm20.9-22.29c-.33-.82-2.46-1.94-5.94-.44 -3.49 1.5-4.23 3.86-3.9 4.67l0 0c.13.43.59.68 1.02.55 .04-.02.08-.04.13-.06 .66-.29 1.34-1.58 3.75-2.62 2.41-1.05 3.76-.63 4.43-.92l-.01 0c.45-.18.68-.69.5-1.14 -.01-.03-.02-.05-.03-.07Z" transform="scale(0.5,0.5)" fill="#D3D3D3"/>
</svg>