<svg xmlns="http://www.w3.org/2000/svg" viewBox="0 0 32 32">
  <path fill-rule="evenodd" d="M32 56l-.01-.001c-13.26-.01-24-10.75-24-24 0-13.26 10.74-24 24-24 13.25 0 24 10.74 24 24l0-.01c0 13.25-10.75 24-24 24Zm-8-34.003c-3.11 0-5 3.23-5 6.006l-.01 0c-.03.52.38.97.9 1 .04 0 .09 0 .14-.01 1.37 0 1.48-2.5 3.95-2.5 2.46 0 2.57 2.49 3.95 2.49l-.01-.01c.52.05.99-.34 1.04-.86 0-.05 0-.1 0-.15 -.01-2.78-1.9-6.006-5-6.006Zm16 0c-3.11 0-5 3.23-5 6.006l-.01 0c-.03.52.38.97.9 1 .04 0 .09 0 .14-.01 1.37 0 1.48-2.5 3.95-2.5 2.46 0 2.57 2.49 3.95 2.49l-.01-.01c.52.05.99-.34 1.04-.86 0-.05 0-.1 0-.15 -.01-2.78-1.9-6.006-5-6.006ZM45.25 36c-1.39 0-4.69 2-13.25 2 -8.57 0-11.87-2-13.25-2l-.01-.01c-.39-.03-.73.26-.75.64 -.01.03-.01.06 0 .1 -.01 5.25 6 11.25 14 11.25s14-6 14-11.25l0-.01c.02-.39-.27-.73-.65-.75 -.04-.01-.07-.01-.11 0Z" transform="scale(0.5,0.5)" fill="#D3D3D3"/>
</svg>