<svg xmlns="http://www.w3.org/2000/svg" viewBox="0 0 32 32">
  <path fill-rule="evenodd" d="M32 56l-.01-.001c-13.26-.01-24-10.75-24-24 0-13.26 10.74-24 24-24 13.25 0 24 10.74 24 24l0-.01c0 13.25-10.75 24-24 24Zm-8-32c-1.79 0-3 1.875-3 4.48 -.01 2.66 1.39 3.51 3 3.51 1.6 0 2.99-.85 2.99-3.52 0-2.62-1.22-4.49-3-4.49Zm-3.26 14l-.01-.01c-.39-.03-.73.26-.75.64 -.01.03-.01.06 0 .1 -.01 1.29 4.49 7.25 12 7.25 7.5 0 12-5.96 12-7.25l0-.01c.02-.39-.27-.73-.65-.75 -.04-.01-.07-.01-.11 0 -1.39 0-4.13 4-11.25 4 -7.13 0-9.87-4-11.25-4Zm19.25-12c-3.58 0-6 2.5-6 4l-.01 0c-.03.52.38.97.91 1 .04 0 .09 0 .13-.01 1.37 0 1.82-2 4.95-2 3.12 0 3.57 2 4.95 2l0 0c.52.05.99-.34 1.04-.86 0-.05 0-.1 0-.14 0-1.51-2.43-4.01-6-4.01Z" transform="scale(0.5,0.5)" fill="#D3D3D3"/>
</svg>