<svg xmlns="http://www.w3.org/2000/svg" viewBox="0 0 32 32">
  <path fill="#D3D3D3" fill-rule="evenodd" d="M31.99 56l-.01-.001c-13.26-.01-24-10.75-24-24 0-13.26 10.74-24 24-24 13.25 0 24 10.74 24 24l0-.01c0 13.25-10.75 24-24 24Zm-8-32c-1.79 0-3.01 1.87-3.01 4.48 -.01 2.66 1.39 3.51 3 3.51 1.6 0 3-.85 3-3.52 -.01-2.62-1.22-4.49-3-4.49Zm16 0c-1.79 0-3 1.87-3 4.48 0 2.66 1.4 3.51 3 3.51s3-.85 3-3.52c-.01-2.62-1.22-4.49-3-4.49Zm3.25 14c-1.39 0-4.13 4-11.25 4 -7.13 0-9.87-4-11.25-4l-.01-.01c-.39-.03-.73.26-.75.64 -.01.03-.01.06 0 .1 0 1.29 4.49 7.25 12 7.25 7.5 0 12-5.96 12-7.25l0-.01c.02-.39-.27-.73-.65-.76 -.04-.01-.08-.01-.11 0Z" transform="scale(0.5,0.5)"/>
</svg>