<svg xmlns="http://www.w3.org/2000/svg" viewBox="0 0 32 32">
  <path fill-rule="evenodd" d="M32 56l-.01-.001c-13.26-.01-24-10.75-24-24 0-13.26 10.74-24 24-24 13.25 0 24 10.74 24 24l0-.01c0 13.25-10.75 24-24 24Zm-3.09-32.59l-.01-.01c-.31-2.18-2.32-3.69-4.5-3.4l0-.01c-1.55.23-2.81 1.36-3.2 2.87l0 0c-1.14-1.85-3.55-2.43-5.39-1.3 -1.37.83-2.09 2.42-1.82 4 .77 5.09 7.63 8.57 8.88 8.38 1.24-.19 6.78-5.49 6-10.59ZM18.74 37.99l-.01-.01c-.39-.03-.73.26-.75.64 -.01.03-.01.06 0 .1 -.01 5.25 6 11.25 14 11.25s14-6 14-11.25l0-.01c.02-.39-.27-.73-.65-.75 -.04-.01-.07-.01-.11 0 -1.39 0-4.69 2-13.25 2 -8.57 0-11.87-2-13.25-2Zm27.93-16.93l0 0c-1.56-.22-3.09.49-3.91 1.82l0 0c-.4-1.52-1.66-2.65-3.2-2.88l0 0c-2.18-.3-4.19 1.21-4.5 3.39 -.78 5.09 4.76 10.39 6.01 10.58 1.24.18 8.11-3.29 8.881-8.39l0-.01c.34-2.16-1.12-4.19-3.28-4.54 -.01-.01-.02-.01-.02-.01Z" transform="scale(0.5,0.5)" fill="#D3D3D3"/>
</svg>