<svg xmlns="http://www.w3.org/2000/svg" viewBox="0 0 32 32">
  <path fill-rule="evenodd" d="M32 56l-.01-.001c-13.26-.01-24-10.75-24-24 0-13.26 10.74-24 24-24 13.25 0 24 10.74 24 24l0-.01c0 13.25-10.75 24-24 24Zm0-10c7.5 0 12-5.96 12-7.25l0-.01c.02-.39-.27-.73-.65-.75 -.04-.01-.07-.01-.11 0 -1.39 0-4.13 4-11.25 4 -7.13 0-9.87-4-11.25-4l-.01-.01c-.39-.03-.73.26-.75.64 -.01.03-.01.06 0 .1 0 1.29 4.49 7.25 12 7.25Zm18.18-23.18l0 0c-2.87-.53-5.77-.8-8.68-.81 -6.25 0-6.96.98-9.5.98 -2.55 0-3.26-.99-9.5-.99l-.01 0c-2.92.01-5.82.28-8.68.8l-.01 0c-.47.07-.82.48-.83.95v1.3l-.01-.01c.02.42.24.82.59 1.06 .84.64.99 2.44 1.61 4.3 .95 2.9 2.09 4.54 6.76 4.54 5.43 0 6.22-1.56 7.33-4.55 .76-2.05.91-4.46 2.69-4.46 1.78 0 1.92 2.41 2.69 4.45 1.11 2.98 1.9 4.54 7.33 4.54 4.67 0 5.8-1.64 6.76-4.55 .61-1.86.77-3.66 1.61-4.31l-.01 0c.35-.25.57-.64.59-1.07v-1.31l0 0c-.01-.48-.36-.88-.83-.96Zm-7.39 9.13c-.36.03-.75.05-1.2.05 -.49 0-.92-.02-1.28-.04l0 0c-.17-.01-.3-.15-.29-.31 0-.03 0-.05 0-.07l1.77-6.39 -.01 0c.04-.14.16-.23.3-.22l0-.01c.8-.01 1.61.04 2.41.15l0 0c.16.01.27.16.25.32 -.01.01-.01.02-.01.03l-1.74 6.21 0-.01c-.04.11-.14.2-.26.21Zm-19.02.02c-.35.02-.74.03-1.18.03l0-.01c-.44 0-.87-.02-1.3-.07l-.01-.01c-.17-.02-.28-.16-.27-.32 0-.02 0-.04 0-.05l1.77-6.37 -.01 0c.04-.14.16-.23.3-.22l0-.01c.81-.01 1.62.05 2.42.18l0 0c.15.02.26.17.23.33 -.01 0-.01.01-.01.02l-1.73 6.21 0-.01c-.04.12-.15.21-.28.21Z" transform="scale(0.5,0.5)" fill="#D3D3D3"/>
</svg>