<svg xmlns="http://www.w3.org/2000/svg" viewBox="0 0 32 32">
  <path fill-rule="evenodd" d="M32 56l-.01-.001c-13.26-.01-24-10.75-24-24 0-13.26 10.74-24 24-24 13.25 0 24 10.74 24 24l0-.01c0 13.25-10.75 24-24 24Zm-8-34c-1.79 0-3 1.87-3 4.48 0 2.66 1.4 3.51 3 3.51s3-.85 3-3.52c0-2.62-1.22-4.49-3-4.49Zm16 0c-1.79 0-3 1.87-3 4.48 0 2.66 1.4 3.51 3 3.51s3-.85 3-3.52c0-2.62-1.22-4.49-3-4.49Zm5.25 14c-1.39 0-4.69 2-13.25 2 -8.57 0-11.87-2-13.25-2l-.01-.01c-.39-.03-.73.26-.75.64 -.01.03-.01.06 0 .1 -.01 5.25 6 11.25 14 11.25s14-6 14-11.25l0-.01c.02-.39-.27-.73-.65-.75 -.04-.01-.07-.01-.11 0Z" transform="scale(0.5,0.5)" fill="#D3D3D3"/>
</svg>