<svg xmlns="http://www.w3.org/2000/svg" viewBox="0 0 64 64">
  <path fill-rule="evenodd" d="M53.601 44.19l-8.74 9.13h-.001c-1.65 1.72-3.93 2.69-6.308 2.69h-12.53v-.001c-2.31-.01-4.53-.92-6.16-2.55l-9.29-9.26v0C8.92 42.55 8 40.32 8 38V25.49h-.001c-.01-2.39.97-4.67 2.69-6.31l9.18-8.79 0-.001c1.62-1.56 3.78-2.42 6.03-2.42h12.73 0c2.32 0 4.54.92 6.18 2.56l8.62 8.65h-.001c1.62 1.63 2.54 3.85 2.54 6.15v12.75l0 0c-.01 2.24-.87 4.4-2.42 6.03Zm-21.59 1.82v0c1.65 0 3-1.35 3-3 0-1.66-1.35-3-3-3 -1.66 0-3 1.34-3 3v0c0 1.65 1.34 3 3 3Zm1.99-28h-3.98v0c-.56-.01-1.02.44-1.03.99 -.01.01 0 .03 0 .05l.91 17v0c.03.53.48.95 1.02.94h2.14v0c.53 0 .98-.42 1.02-.95l.91-17v0c.02-.56-.41-1.03-.97-1.06 -.02-.01-.04-.01-.06-.01Z" fill="#D3D3D3"/>
</svg>