<svg xmlns="http://www.w3.org/2000/svg" viewBox="0 0 64 64">
  <path fill-rule="evenodd" d="M54 51.69v.58 0c0 .45-.18.88-.5 1.2v0 0c-.33.32-.76.5-1.21.5h-.59v0c-.46 0-.89-.18-1.21-.5l-1-1h0c-.33-.33-.76-.5-1.21-.5h-.59v0c-.46 0-.89.17-1.21.5l-1 1h0c-.33.32-.76.49-1.21.5h-.59v0c-.46 0-.89-.18-1.21-.5l-1-1v0c-.33-.33-.76-.5-1.21-.5h-.59v0c-.46 0-.89.17-1.21.5l-1 1h0c-.33.32-.76.49-1.21.5h-.59v0c-.46 0-.89-.18-1.21-.5l-1-1v0c-.33-.33-.76-.5-1.21-.5h-.59v0c-.46 0-.89.17-1.21.5l-1 1h0c-.33.32-.76.49-1.21.5h-.59v0c-.46 0-.89-.18-1.21-.5l-1-1h0c-.33-.33-.76-.5-1.21-.5h-.59v0c-.46 0-.89.17-1.21.5l-1 1v0c-.33.32-.76.49-1.21.5h-.59v0c-.46 0-.89-.18-1.21-.5l-1-1h0c-.33-.33-.76-.5-1.21-.5h-.59v0c-.46 0-.89.17-1.21.5l-1 1v0c-.33.32-.76.49-1.21.5h-.59v0c-.46-.01-.89-.18-1.21-.5v0h-.001c-.33-.33-.5-.76-.5-1.21v-.59 0c0-.46.17-.89.5-1.21l1-1v0c.32-.33.49-.76.5-1.21v-.59 0c-.01-.46-.18-.89-.5-1.21l-1-1h-.001c-.33-.33-.5-.76-.5-1.21v-.59 0c0-.46.17-.89.5-1.21l1-1v0c.32-.33.49-.76.5-1.21v-.59 0c-.01-.46-.18-.89-.5-1.21l-1-1v0c-.33-.33-.5-.76-.5-1.21v-.59 0c0-.46.17-.89.5-1.21l1-1v0c.32-.33.49-.76.5-1.21v-.59 0c-.01-.46-.18-.89-.5-1.21l-1-1v0c-.33-.33-.5-.76-.5-1.21v-.59 0c0-.46.17-.89.5-1.21l1-1h-.001c.32-.33.49-.76.5-1.21v-.59 0c-.01-.46-.18-.89-.5-1.21l-1-1v0c-.33-.33-.5-.76-.5-1.21v-.59 -.001c0-.46.17-.89.5-1.21l1-1h-.001c.32-.33.49-.76.5-1.21v-.59 -.001c-.01-.46-.18-.89-.5-1.21l-1-1v0c-.33-.33-.5-.76-.5-1.21v-.59 0c0-.46.17-.89.5-1.21v0 0c.32-.33.75-.5 1.2-.5h.58v0c.45 0 .88.17 1.2.5l1 1v0c.32.32.75.49 1.2.5h.58v0c.45-.01.88-.18 1.2-.5l1-1v0c.32-.33.75-.5 1.2-.5h.58v0c.45 0 .88.17 1.2.5l1 1v0c.32.32.75.49 1.2.5h.58 -.001c.45-.01.88-.18 1.2-.5l1-1v0c.32-.33.75-.5 1.2-.5h.58 -.001c.45 0 .88.17 1.2.5l1 1v0c.32.32.75.49 1.2.5h.58v0c.45-.01.88-.18 1.2-.5l1-1v0c.32-.33.75-.5 1.2-.5h.58v0c.45 0 .88.17 1.2.5l1 1v0c.32.32.75.49 1.2.5h.58v0c.45-.01.88-.18 1.2-.5l1-1v0c.32-.33.75-.5 1.2-.5H44v0c.45 0 .88.17 1.2.5l1 1v0c.32.32.75.49 1.2.5h.58v0c.45-.01.88-.18 1.2-.5l1-1v0c.32-.33.75-.5 1.2-.5h.58v0c.45 0 .88.17 1.2.5v0 -.001c.32.32.5.75.5 1.2v.58 0c0 .45-.18.88-.5 1.2l-1 1v0c-.33.32-.51.75-.5 1.2v.58 -.001c-.01.45.17.88.5 1.2l1 1v0c.32.32.5.75.5 1.2v.58 0c0 .45-.18.88-.5 1.2l-1 1h-.001c-.33.32-.51.75-.5 1.2v.58 0c-.01.45.17.88.5 1.2l1 1v-.001c.32.32.5.75.5 1.2v.58 0c0 .45-.18.88-.5 1.2l-1 1v0c-.33.32-.51.75-.5 1.2v.58 -.001c-.01.45.17.88.5 1.2l1 1v0c.32.32.5.75.5 1.2v.58 0c0 .45-.18.88-.5 1.2l-1 1v0c-.33.32-.51.75-.5 1.2v.58 0c-.01.45.17.88.5 1.2l1 1v0c.32.32.5.75.5 1.2v.58 0c0 .45-.18.88-.5 1.2l-1 1v0c-.33.32-.51.75-.5 1.2v.58 0c-.01.45.17.88.5 1.2l1 1v0c.32.32.5.75.5 1.2Z" fill="#D3D3D3"/>
</svg>