<svg xmlns="http://www.w3.org/2000/svg" viewBox="0 0 64 64">
  <path fill-rule="evenodd" d="M51 52H13v0c-1.66 0-3-1.35-3-3V31v0c0-1.66 1.34-3 3-3h38v0c1.65 0 3 1.34 3 3v18 0c0 1.65-1.35 3-3 3Zm-8.98-26.98h0c-.02.54-.46.97-1 .97H22.96v0c-.54-.01-.98-.44-1-.98v0c-.05-3.57-.69-7.1-1.9-10.45v-.001c-.21-.48-.02-1.02.43-1.27v0c1.42-.94 3.11-1.4 4.81-1.32 6.66-.001 6.66 2 13.33 2v0c1.48-.03 2.94-.35 4.29-.96V13c.37-.17.81.01.98.38 .07.17.08.37.01.55l-.001-.001c-1.22 3.55-1.87 7.27-1.94 11.03Z" fill="#D3D3D3"/>
</svg>