<svg xmlns="http://www.w3.org/2000/svg" viewBox="0 0 64 64">
  <path fill-rule="evenodd" d="M45.96 12.32l-.52 1.93v0c-.15.53-.7.84-1.23.7l-9.22-2.48v3.5h0c3.86 0 6.99 3.13 6.99 7v30l0-.001c0 1.65-1.35 2.99-3 3h-14 -.001c-1.66-.01-3-1.35-3-3v-30h0c-.01-3.87 3.13-7 6.99-7v-4 0c-4.97 0-9 4.03-8.997 9v14.5 0c0 .27-.23.5-.5.5h-3v0c-.28 0-.5-.23-.5-.5v-14.5 0c-.01-7.18 5.81-13 12.99-13v-2h-.001c-.01-1.11.89-2 1.99-2h1.99v0c1.1 0 2 .89 2 2v2.35l10.25 2.74v0c.53.14.84.69.7 1.22ZM26.99 25.99v0c-.56 0-1 .44-1 1v10 0c0 .55.44 1 1 1h9.99v0c.55 0 1-.45 1-1v-10 0c0-.56-.45-1-1-1Zm-10.5 12h2.99v0c.27 0 .5.22.5.5v6.5 0c0 .55-.45 1-1 1h-2v0c-.56 0-1-.45-1-1v-6.5 0c0-.28.22-.5.5-.5Z" fill="#D3D3D3"/>
</svg>