<svg xmlns="http://www.w3.org/2000/svg" viewBox="0 0 64 64">
  <path fill-rule="evenodd" d="M50 52H14v0c-2.21 0-4-1.8-4-4V24v0c0-2.21 1.79-4 4-4h36v0c2.2 0 4 1.79 4 4v24 0c0 2.2-1.8 4-4 4Zm-6-18v0c0-.56-.45-1-1-1h-8v-8 0c0-.56-.45-1-1-1h-4v0c-.56 0-1 .44-1 1v8h-8v0c-.56 0-1 .44-1 1v4 0c0 .55.44 1 1 1h8v8 0c0 .55.44 1 1 1h4v0c.55 0 1-.45 1-1v-8h8v0c.55 0 1-.45 1-1Zm-.77-16h-2.36v0c-.52 0-.98-.32-1.17-.79l-1.96-4.9v0c-.08-.19-.26-.32-.47-.32h-10.6v0c-.21 0-.39.12-.47.31l-1.96 4.9v-.001c-.19.47-.65.78-1.17.78h-2.36v0c-.42 0-.76-.34-.76-.75 -.01-.1.01-.19.05-.28l2.58-6.46 0 0c.6-1.52 2.07-2.52 3.71-2.52h11.27v0c1.63-.01 3.1.99 3.71 2.51l2.58 6.45h-.001c.15.38-.04.82-.42.97 -.09.03-.19.05-.28.05Z" fill="#D3D3D3"/>
</svg>