<svg xmlns="http://www.w3.org/2000/svg" viewBox="0 0 64 64">
  <path fill-rule="evenodd" d="M62.01 32.02c0-6.31-12.15-15.19-26.12-17.95 -1.6-.32-2.32.66-1.64 2.15v0c.29.57.54 1.17.75 1.79 -9.17 0-16.716 5.79-19.7 8.46v0c-.78.66-1.92.67-2.7 0l0 0c-2.59-2.5-5.92-4.07-9.48-4.49h0c-.55-.1-1.06.27-1.15.81 -.02.1-.02.2-.01.3 .55 4.54 4.02 8.88 4.02 8.88s-3.47 4.34-4.03 8.88h0c-.08.54.29 1.04.84 1.12 .1.01.2.01.3-.01h-.001c3.56-.43 6.9-2.01 9.47-4.52h0c.77-.67 1.92-.67 2.69 0 2.98 2.68 10.5 8.49 23.69 8.49 13.18 0 23-9.77 23-14Zm-15-6v0c-1.66-.01-3.01 1.34-3.01 2.99 -.01 1.65 1.34 3 2.99 3 1.65 0 3-1.35 3-3 0-.01 0-.01 0-.01l0-.001c0-1.66-1.35-3-3-3Z" fill="#D3D3D3"/>
</svg>