<svg xmlns="http://www.w3.org/2000/svg" viewBox="0 0 64 64">
  <path fill-rule="evenodd" d="M20.02 13.878v0c.02-1.18.85-2.18 2-2.42 10.17-1.65 20.33 2.13 30.509.99v0c.74-.1 1.42.42 1.51 1.16 .04.32-.04.65-.22.92 -2.192 4.22-4.384 8.19-6.58 12.02v0c-.09.15-.09.34 0 .5 2.19 3.936 4.38 7.72 6.57 11.26v0c.41.84.06 1.86-.78 2.28 -.17.08-.35.13-.53.15 -10.17 1.13-20.34-2.65-30.509-1l0 0c-.88.2-1.75-.33-1.96-1.2 -.04-.15-.05-.29-.05-.44v0c.02-1.18.85-2.18 2-2.42V15.43v0c-.88.2-1.75-.33-1.96-1.2 -.04-.15-.05-.29-.05-.44Zm-2-1.86v44 0c0 1.1-.9 2-2 2 -1.11 0-2-.9-2-2v-44 0c0-1.11.89-2 2-2 1.1 0 2 .89 2 2Z" fill="#D3D3D3"/>
</svg>