<svg xmlns="http://www.w3.org/2000/svg" viewBox="0 0 64 64">
  <path fill-rule="evenodd" d="M54.02 40.58c-10.67 1.72-21.34-2.52-32-.8l0 0c-.88.2-1.75-.33-1.96-1.2 -.04-.15-.05-.29-.05-.44v0c.02-1.18.85-2.18 2-2.42V15.48v0c-.88.2-1.75-.33-1.96-1.2 -.04-.15-.05-.29-.05-.44v0c.02-1.18.85-2.18 2-2.42 10.66-1.73 21.33 2.51 32 .79l-.001 0c.87-.21 1.74.32 1.95 1.19 .03.14.04.28.04.43v24.28 0c-.03 1.17-.86 2.17-2 2.42Zm-40 15.43v-44 0c0-1.11.89-2 2-2 1.1 0 2 .89 2 2v44 0c0 1.1-.9 2-2 2 -1.11 0-2-.9-2-2Z" fill="#D3D3D3"/>
</svg>