<svg xmlns="http://www.w3.org/2000/svg" viewBox="0 0 64 64">
  <path fill-rule="evenodd" d="M58.88 23.78l-7.99 4h0c-1 .48-2.2.08-2.68-.91 -.49-.99-.09-2.18.89-2.68l7.98-4.01v0c.98-.5 2.19-.1 2.68.89 .49.98.09 2.19-.9 2.68Zm-11.49-4.37v0c-.79.78-2.06.77-2.84-.01 -.78-.79-.78-2.05 0-2.83l6-6.01v0c.78-.79 2.04-.79 2.83 0 .78.78.78 2.04-.01 2.83Zm-7.64-4.526v-.001c-.51.98-1.72 1.37-2.7.86 -.97-.5-1.37-1.68-.89-2.66l4-8.01v0c.48-1 1.68-1.41 2.67-.92 .99.48 1.4 1.68.91 2.67 -.01.01-.02.02-.02.03Zm5.76 16.26l-2.38 2.37v0c-.59.58-1.54.58-2.12 0C41 33.5 41 33.5 41 33.5L30.39 22.89v0c-.59-.59-.59-1.54 0-2.12l2.37-2.38v0c.58-.59 1.53-.59 2.11-.01 0 0 0 0 0 0l10.6 10.61v-.001c.58.58.58 1.53 0 2.11Zm-5.98 6.02l-.49.48h-.001c-.66.65-1.47 1.15-2.35 1.45l-5.81 1.93 -.001-.001c-.89.29-1.69.79-2.35 1.45L17.6 53.37h0c-.79.78-2.06.78-2.84 0l-4.25-4.25v0c-.79-.79-.79-2.05-.01-2.84 0-.01 0-.01 0-.01l10.91-10.91v0c.65-.66 1.15-1.47 1.45-2.35l1.93-5.81v0c.29-.89.79-1.69 1.45-2.35l.48-.49h0c.58-.59 1.53-.59 2.12 0l10.62 10.625v0c.58.58.58 1.53 0 2.12 -.01 0-.01 0-.01 0Z" fill="#D3D3D3"/>
</svg>