<svg xmlns="http://www.w3.org/2000/svg" viewBox="0 0 64 64">
  <path fill-rule="evenodd" d="M52 55.98h-2v0c-1.11 0-2-.9-2-2V36.99v0c0-.58-.25-1.12-.68-1.5 -1.14-.98-3.33-3.62-3.33-9.53 0-11.98 4.94-18.06 9.05-18.01v0c.53.02.95.46.94 1v45.01 0c0 1.1-.9 2-2 2 -.01 0-.01 0-.01 0Zm-17-2v0c0 1.1-.9 2-2 2h-2v0c-1.11 0-2-.9-2-2V36.19c0-4.7-5-6.83-5-13.22 0-5.43 3.29-15 8-15 4.7 0 8 9.57 8 15 0 6.38-5 8.51-5 13.21Zm-19 0v0c0 1.1-.9 2-2 2h-2v0c-1.11 0-2-.9-2-2V36.19c0-4.7-4-3.83-4-10.22 0-5.29.78-15.31.96-17.55l-.001 0c.02-.26.23-.46.49-.46h1.05v0c.27-.01.49.21.5.48 0 0 .32 13.94.34 14.5v0c.01.56.48 1.02 1.05 1 .54-.02.98-.45 1-1 .02-.56.56-14.53.56-14.53v0c.01-.27.23-.49.5-.49h1.03v0c.26-.01.48.21.5.48 0 0 .54 13.97.56 14.52v0c.02.56.5 1.01 1.07.99 .54-.03.98-.47.99-1.01 .01-.56.34-14.51.34-14.51v0c0-.28.22-.49.5-.49h1.05V7.89c.25-.01.47.19.49.45 .18 2.24.96 12.26.96 17.54 0 6.39-4 5.51-4 10.21Z" fill="#D3D3D3"/>
</svg>