<svg xmlns="http://www.w3.org/2000/svg" viewBox="0 0 64 64">
  <path fill-rule="evenodd" d="M56 55.99v-.001c-1.71.03-3.4-.39-4.9-1.22v0c-1.94-1.06-4.28-1.06-6.22 0v0c-3.07 1.61-6.73 1.61-9.79 0v0c-.95-.55-2.02-.83-3.11-.79l-.001 0c-1.09-.04-2.17.23-3.11.78v-.001c-1.5.82-3.19 1.24-4.9 1.21h0c-1.71.03-3.4-.39-4.9-1.22v-.001c-.95-.55-2.02-.83-3.11-.79v0c-1.09-.04-2.17.23-3.11.78l-.001-.001c-1.5.82-3.19 1.24-4.9 1.21v0c-1.11 0-2.01-.9-2.01-2.01 0-1.11.89-2.01 2-2.01v0c1.08.03 2.16-.24 3.1-.79l-.001-.001c1.49-.83 3.18-1.25 4.89-1.22v0c1.7-.04 3.39.38 4.89 1.21h0c.94.54 2.01.82 3.1.78l0-.001c1.08.03 2.16-.24 3.1-.79h-.001c1.49-.83 3.18-1.25 4.89-1.22v0c1.7-.04 3.39.38 4.89 1.21v0c1.93 1.05 4.27 1.05 6.21-.001V51.1c3.06-1.62 6.72-1.62 9.78 0h0c.94.54 2.01.82 3.1.78v0c1.1 0 2 .89 2 2 0 1.1-.9 2-2.01 2Zm-2.01-22.01h-4v12.03 0c-.01 1.09-.89 1.97-1.98 1.97h-.03 -.001c-2.03-.04-4.02.45-5.79 1.42v0c-1.38.77-3.06.77-4.43-.01l-.01-.01v0c-.48-.24-.78-.73-.78-1.26v-8.18 0c0-1.11-.9-2-2-2h-6v0c-1.11 0-2 .89-2 2v8.17 0c-.01.53-.31 1.01-.78 1.25l-.02 0h-.001c-.67.4-1.44.61-2.21.57v0c-.78.03-1.56-.17-2.22-.58v0c-1.78-.97-3.77-1.46-5.79-1.43h-.03 0c-1.1-.01-1.98-.89-1.98-1.98V33.9H9.94v0c-1.11 0-2.01-.9-2.01-2.01 -.01-.54.21-1.04.58-1.42L30.5 8.45h0c.77-.79 2.04-.79 2.82-.01 0 0 0 0 0 0l21.99 22.01v0c.78.78.78 2.04-.01 2.83 -.38.37-.89.58-1.42.58Zm-5.28-12.96l-6.14-6.14v0c-.38-.38-.59-.89-.59-1.42v-1.51 0c0-1.11.89-2 2-2h4v0c1.1 0 2 .89 2 2v8.52l-.001 0c-.01.41-.34.74-.76.74 -.2-.01-.39-.08-.53-.22Z" fill="#D3D3D3"/>
</svg>