<svg xmlns="http://www.w3.org/2000/svg" viewBox="0 0 64 64">
  <path fill-rule="evenodd" d="M54 29v0c0 3.86-3.14 7-7 7H19h0c-4.98-.01-9-4.04-9-9.01 0-4.6 3.47-8.46 8.04-8.95v-.001c.51-6.05 5.83-10.53 11.88-10.02 3.54.3 6.72 2.3 8.53 5.37v0c4.16-1.43 8.68.79 10.1 4.96 .42 1.25.53 2.6.31 3.91v-.001c3.01.83 5.1 3.57 5.11 6.71ZM20 48h24v0c1.1 0 2 .89 2 2 0 1.1-.9 2-2 2H20v0c-1.11 0-2-.9-2-2 0-1.11.89-2 2-2Zm-2-6v0c0-1.11.89-2 2-2h24v0c1.1 0 2 .89 2 2 0 1.1-.9 2-2 2H20v0c-1.11 0-2-.9-2-2Z" fill="#D3D3D3"/>
</svg>