<svg xmlns="http://www.w3.org/2000/svg" viewBox="0 0 32 32">
  <path fill="#D3D3D3" fill-rule="evenodd" d="M55.999 34.02h-6v6 0c0 1.1-.9 2-2 2 -1.11 0-2-.9-2-2v-6h-6 -.01c-1.11-.01-2-.9-2-2 0-1.11.89-2 2-2h6v-6l0 0c-.01-1.11.89-2 2-2 1.1-.01 2 .89 2 2 0 0 0 0 0 0v6h6l0 0c1.1 0 2 .89 2 2 -.01 1.1-.9 2-2 2Zm-16.21 18H7.17l0 0c-.68-.02-1.22-.57-1.21-1.24 0-.04 0-.08 0-.12C6.49 45.1 12.15 39 23.459 39c11.3 0 16.96 6.1 17.49 11.66l0 0c.07.66-.42 1.27-1.08 1.34 -.04 0-.08 0-.12 0ZM23.47 36.01c-5.61 0-10.51-4.77-10.51-12.43 0-6.6 4.24-11.57 10.51-11.57 6.26 0 10.51 4.97 10.51 11.56 -.01 7.66-4.91 12.42-10.51 12.42Z" transform="scale(0.5,0.5)"/>
</svg>