<svg xmlns="http://www.w3.org/2000/svg" viewBox="0 0 64 64">
  <path fill-rule="evenodd" d="M52.63 55.97c-.53.19-.88-.64-.46-1.03 1.24-1.14 2.06-3.08 2.73-5.46h0c.06-.21-.06-.43-.26-.5 -.04-.02-.08-.02-.11-.02v-.001c-1.72.08-3.42.39-5.05.92v0c-.21.07-.43-.03-.51-.23 -.04-.1-.04-.2 0-.29h0c.69-1.79 1.02-3.69.98-5.6h0c-.12-2.87-1.28-5.6-3.27-7.67v-.001c-.13-.17-.36-.2-.52-.07 -.06.04-.11.1-.13.18 -1.14 3.66-6.1 8.46-6.1 13.73 0 3.16 1.82 4.43 1.97 5.17 .12.6-.18.94-.75.75 -3.81-1.22-9.24-6.76-9.24-13.64 0-12.51 12.009-15.01 12.009-21.3 0-1.04-.78-1.75-.97-2.29v0c-.11-.31.06-.63.36-.73 .1-.04.22-.04.33-.01 3.86 1.05 13.26 5.41 13.26 17.017v0c-.13 2.75-.8 5.46-2 7.95l0 0c2.04-.44 4.11-.76 6.19-.96 .49-.05.8.39.8.89h-.001c-.19 5.85-3.88 11.02-9.37 13.09ZM29.98 42.28h-.001c-.04-3.02.69-5.99 2.12-8.65h-.001c.72-1.16 1.55-2.25 2.46-3.27v0c.41-.33.48-.93.15-1.35 -.02-.02-.03-.04-.04-.05v0c-2.95-2.89-5.53-6.13-7.69-9.64v0c.52-.18 1.02-.41 1.49-.7h-.001c.45-.24.62-.79.39-1.24 -.05-.09-.11-.17-.18-.24l-.001 0c-3.07-2.99-5.43-6.64-6.89-10.66V6.47c-.21-.47-.75-.68-1.22-.48 -.22.09-.39.26-.48.47l0 0c-1.47 4.02-3.82 7.66-6.89 10.65h0c-.36.35-.37.93-.01 1.29 .06.06.14.12.23.17h-.001c.47.28.97.52 1.49.69l-.001-.001c-2.17 3.51-4.75 6.74-7.7 9.63H7.2c-.36.34-.37.92-.02 1.27 .03.04.08.07.12.1l0 0c.79.52 1.65.94 2.56 1.25l0 0c-2.06 3.41-4.64 6.47-7.66 9.07h0c-.39.33-.43.91-.1 1.3 0 0 .01.01.01.01h0c1.68 1.95 4.16 3.04 6.75 2.94v0c1.9-.05 3.79-.31 5.64-.76l-.001 0c1.93 1.1 4.12 1.71 6.35 1.75v-.001c2.23-.04 4.41-.65 6.35-1.76 0 0 .6.15 1.51.32h0c.45.15.94-.09 1.09-.54 .03-.11.05-.22.04-.34Zm-12.29 6.58v0c.06-.5.48-.88.99-.88h4.59v0c.5 0 .92.37.99.87v-.001c.28 2.15.84 4.25 1.66 6.26v0c.12.32-.04.68-.37.81 -.09.03-.18.04-.27.04h-8.67v0c-.35.01-.65-.25-.67-.6 -.01-.09 0-.18.04-.27h0c.82-2.01 1.38-4.12 1.66-6.27Z" fill="#D3D3D3"/>
</svg>