<svg xmlns="http://www.w3.org/2000/svg" viewBox="0 0 64 64">
  <path fill-rule="evenodd" d="M49.16 10.55v0c.77-.78 2.04-.79 2.82-.01 0 0 0 0 0 0l1.41 1.41v-.001c.77.78.77 2.04 0 2.82L36.06 32.09c-3.32 3.31.12 5.52-4.39 10.03 -3.73 3.73-11.35 10.25-13.07 11.71v0c-.2.16-.5.15-.68-.04l-.75-.75v0c-.2-.2-.2-.51-.01-.7 0 0 9.6-10.08 9.99-10.49v0c.39-.42.37-1.07-.04-1.46 -.4-.38-1.01-.38-1.41-.02 -.41.37-10.66 9.85-10.66 9.85h0c-.2.18-.51.17-.7-.02l-.74-.74h0c-.19-.19-.2-.5-.02-.7 0 0 9.47-10.26 9.85-10.66v0c.38-.42.36-1.07-.06-1.46 -.4-.37-1.02-.37-1.41.01l-10.48 10v0c-.2.18-.51.18-.7-.01l-.75-.75v-.001c-.19-.19-.2-.48-.04-.68 1.45-1.72 7.97-9.34 11.7-13.07 4.509-4.52 6.71-1.07 10.02-4.39Z" fill="#D3D3D3"/>
</svg>