<svg xmlns="http://www.w3.org/2000/svg" viewBox="0 0 64 64">
  <path fill-rule="evenodd" d="M34.82 39.69v0c-.48.08-.83.5-.83.98l.01 9.79v0c-.01.48.34.89.81.98 3.27.59 8.27 1.52 8.37 1.54v-.001c.46.1.79.51.77.99v1 0c0 .55-.45 1-1 1H21v0c-.56 0-1-.45-1-1v-1 0c-.02-.48.31-.9.77-1 .1-.02 5.1-.95 8.37-1.55h-.001c.47-.09.81-.5.81-.98 -.01-2.12-.01-7.7-.02-9.82v0c-.01-.49-.36-.89-.83-.98v0c-6.5-1.35-11.17-7.07-11.18-13.7 0-6.15 2.91-16.88 3.04-17.29v0c.12-.43.51-.72.95-.72h6.25 0c.41 0 .74.33.74.75 -.01.04-.01.08-.02.12l-2 11.96v0c-.1.54.27 1.06.82 1.15 .05 0 .1.01.16.01h2.59v0c.13-.01.25.11.25.24 0 .01-.01.02-.01.03l-.83 6.59v0c-.07.54.32 1.04.86 1.11 .39.04.78-.15.98-.49l7-12.01v0c.27-.48.11-1.09-.36-1.37 -.16-.09-.33-.14-.51-.14h-3.78v0c-.14 0-.26-.12-.26-.25 -.01-.02 0-.03 0-.05l1.16-6.98v0c.07-.43.43-.74.86-.74h5.98v0c.44-.01.82.28.95.71 .12.41 3.04 11.14 3.04 17.28h0c-.02 6.63-4.68 12.35-11.18 13.69Z" fill="#D3D3D3"/>
</svg>