<svg xmlns="http://www.w3.org/2000/svg" viewBox="0 0 64 64">
  <path fill-rule="evenodd" d="M59.5 24v0c-1.39 0-2.5 1.11-2.5 2.5v14.3h0c.04 3.78-2.89 6.94-6.67 7.19v0c-3.87.18-7.15-2.8-7.34-6.66 -.01-.12-.01-.23-.01-.34v0 -8 0 0c0-1.66-1.35-3-3-3v0 0c-.56 0-1-.45-1-1v-2 0c0-.56.44-1 1-1v0 0c3.86 0 7 3.13 7 7v0 8 0 0c0 1.65 1.34 3 3 3 1.65 0 3-1.35 3-3v0 -14c0-4.69-4-8.54-7.36-9.81v-.001c-.39-.15-.65-.52-.65-.94v-1.25 0c-.01-.56.45-1.01 1-1.01 .02-.01.04 0 .07 0v0c5.7.63 10.8 3.87 13.8 8.76v0c.07.14.11.3.11.47v.24 0c0 .27-.23.5-.5.5ZM41 52v2 0c0 1.1-.9 2-2 2H9v0c-1.11 0-2-.9-2-2v-2 0c0-1.11.89-2 2-2h2V14v0c0-3.32 2.68-6 6-6h14v0c3.31 0 6 2.68 6 6v36h2v0c1.1 0 2 .89 2 2Zm-8-36v0c0-1.11-.9-2-2-2H17v0c-1.11 0-2 .89-2 2v8 0c0 1.1.89 2 2 2h14v0c1.1 0 2-.9 2-2Z" fill="#D3D3D3"/>
</svg>