<svg xmlns="http://www.w3.org/2000/svg" viewBox="0 0 64 64">
  <path fill-rule="evenodd" d="M9.32 54.67h-.001c1.76 1.75 4.61 1.75 6.37-.01 .05-.06.11-.12.16-.18l16.62-18.33h-.001c.71-.8.67-2.01-.08-2.77l-1.8-1.79v0c-.76-.76-1.98-.79-2.78-.08L9.45 48.11h0c-1.86 1.65-2.02 4.49-.36 6.34 .05.06.11.12.17.18Zm16.1-33.27c.78-.79 11.24-11.25 12.02-12.03v0c.78-.78.79-2.05.01-2.84s-2.05-.8-2.84-.02c-.01 0-.01 0-.02.01L22.56 18.54v-.001c-.79.78-.79 2.05-.01 2.83 .78.78 2.05.78 2.83 0Zm2.89.52c-1.14 1.13 1.01 5.14 4.81 8.93 3.79 3.79 7.79 5.95 8.93 4.81l9.62-9.63c1.13-1.14-1.02-5.14-4.82-8.94 -3.8-3.8-7.8-5.96-8.94-4.82Zm14.27 19.47v0c.78.78 2.05.78 2.83 0 0-.01 0-.01 0-.01 .78-.79 11.24-11.25 12.02-12.03v-.001c.78-.78.79-2.05.01-2.84s-2.05-.8-2.84-.02c-.01 0-.01 0-.02.01L42.55 38.51l0-.001c-.79.78-.79 2.05-.01 2.83 0 0 0 0 0 0Z" fill="#D3D3D3"/>
</svg>