<svg xmlns="http://www.w3.org/2000/svg" viewBox="0 0 64 64">
  <path fill-rule="evenodd" d="M45.12 40.12l2.7 4.33v0c.29.46.14 1.08-.32 1.37 -.01 0-.01 0-.01 0l-.85.52h-.001c-3.23 2-6.89 3.21-10.67 3.52v2.1h4c2.44 0 8 1.36 7.99 3.01v0c-.02.54-.46.98-1.01.98H20.95v0c-.55 0-1-.44-1.01-.99 -.02-1.66 5.55-3.02 7.99-3.02h4v-2.12 0C18.75 48.75 8.93 37.2 10 24.02c.61-7.57 4.77-14.39 11.22-18.4l.84-.53v0c.46-.3 1.08-.15 1.37.31l2.7 4.33h0c8.94-4.31 19.68-.56 23.99 8.39 3.66 7.59 1.54 16.72-5.09 21.93Zm.77-6.8v0c.64-1.06 1.15-2.21 1.5-3.4v0c.03-.14-.05-.28-.19-.32 -.07-.02-.14-.01-.2.02l-1.79 1.11v0c-.19.11-.28.34-.22.55q.25.98.41 1.91v0c.02.13.15.22.28.2 .07-.02.13-.06.17-.12ZM21.74 10.2h0c-8.74 6.74-10.35 19.28-3.6 28.02 5.8 7.51 16.1 9.9 24.63 5.71l-1.07-1.72 -.001 0c-8.96 4.28-19.69.49-23.98-8.47 -3.63-7.58-1.52-16.65 5.06-21.86ZM30 26.11l5.8-3.63v0c.23-.16.3-.47.15-.71 -.01-.01-.01-.02-.02-.02 -.61-.87-1.22-1.68-1.83-2.44v0c-.17-.2-.45-.24-.66-.11l-5.37 3.35h0c-.22.13-.3.4-.2.63 .4.87.87 1.78 1.38 2.71v0c.13.24.44.33.69.19 0-.01.01-.01.01-.02Zm-6.32 9.35l-.001 0c.74.8 1.57 1.51 2.48 2.12h0c.16.1.38.11.54 0l3.55-2.22v0c.23-.15.3-.45.16-.68 -.02-.03-.03-.05-.05-.07 -.63-.74-1.24-1.53-1.83-2.36h0c-.16-.22-.45-.28-.67-.14l-4.1 2.55v0c-.24.14-.31.45-.17.69 .01.02.03.04.05.06Zm8.29-5.25c.6.86 1.22 1.68 1.83 2.43v0c.16.19.44.23.65.1l5.36-3.36v0c.21-.14.29-.41.19-.64 -.41-.88-.87-1.79-1.39-2.71v0c-.14-.25-.45-.34-.7-.2 -.01 0-.02 0-.02 0l-5.81 3.62v0c-.24.15-.31.46-.16.7 0 0 0 .01.01.01Zm-.37 9.54v0c1.22.2 2.47.25 3.71.13h0c.13-.02.23-.14.22-.28 -.01-.08-.05-.14-.11-.18q-.77-.55-1.55-1.22l0-.001c-.17-.15-.41-.17-.59-.05l-1.79 1.11v0c-.12.07-.16.23-.08.35 .03.05.09.09.16.11Zm5.85-4.18l-.001-.001c-.24.14-.31.45-.17.68 .02.04.06.08.1.11 1.69 1.39 3.13 1.98 3.97 1.46 .83-.53.93-2.08.42-4.22v0c-.07-.27-.35-.43-.61-.37 -.06.01-.1.03-.15.06ZM22.03 18.65v0c-.65 1.05-1.16 2.2-1.51 3.39v0c-.04.13.04.27.18.31 .06.01.13 0 .19-.03l1.78-1.12v0c.18-.12.27-.35.21-.56q-.26-.99-.42-1.92h0c-.03-.14-.16-.23-.29-.21 -.08.01-.14.05-.18.11Zm-1.94 9.24v0c.14 1.08.42 2.14.81 3.16v0c.1.25.39.38.65.27 .02-.02.05-.03.07-.04l4.09-2.56v-.001c.22-.15.29-.43.16-.66q-.73-1.35-1.32-2.68v-.001c-.11-.25-.4-.37-.65-.26 -.03.01-.05.02-.07.03l-3.55 2.21v0c-.17.1-.27.29-.24.49Zm6.42-13.79c-.84.52-.94 2.07-.43 4.21v0c.06.26.34.42.6.36 .05-.02.09-.04.14-.07l3.58-2.25v0c.23-.15.3-.46.16-.69 -.03-.05-.07-.09-.11-.12 -1.7-1.4-3.14-1.99-3.98-1.47Zm5.93-1.59q.76.54 1.54 1.21v0c.16.14.4.16.59.04l1.78-1.12 0-.001c.11-.08.15-.24.07-.36 -.04-.06-.1-.1-.17-.12v-.001c-1.23-.21-2.48-.26-3.72-.14v0c-.14.01-.24.13-.23.27 0 .07.04.13.1.17Zm8.72 1.85l-3.55 2.21v-.001c-.24.14-.31.44-.17.67 .01.02.02.04.04.06 .62.73 1.23 1.52 1.82 2.35v0c.15.21.44.27.66.13l4.09-2.56v0c.23-.15.3-.46.16-.7 -.02-.03-.04-.05-.06-.07v0c-.75-.81-1.58-1.52-2.49-2.12v-.001c-.17-.11-.39-.12-.55-.01Zm5.04 6.27l-4.1 2.55 0-.001c-.23.14-.3.42-.17.66q.73 1.34 1.31 2.67l-.001 0c.1.24.39.36.64.25 .02-.02.04-.03.06-.04l3.55-2.22h0c.16-.11.26-.3.23-.5v0c-.15-1.09-.43-2.15-.82-3.17v0c-.11-.26-.4-.39-.66-.28 -.03.01-.06.02-.08.03Z" fill="#D3D3D3"/>
</svg>