<svg xmlns="http://www.w3.org/2000/svg" viewBox="0 0 64 64">
  <path fill-rule="evenodd" d="M52 30H35v0c-.56 0-1-.45-1-1v-6 0c0-.56.44-1 1-1h17v0c1.1 0 2 .89 2 2v4 0c0 1.1-.9 2-2 2Zm-6-10H35.76v-.001c-.98 0-1.76-.79-1.76-1.76 -.01-.47.18-.92.51-1.25l7.23-7.24v0c2.34-2.35 6.14-2.35 8.48-.01 2.34 2.34 2.34 6.14 0 8.48 -1.13 1.12-2.66 1.75-4.25 1.75Zm0-8l0 0c-.54-.01-1.04.21-1.42.58l-3.42 3.41h4.82v0c1.1 0 2-.9 2-2 0-1.11-.9-2-2-2ZM29 54H16v0c-1.11 0-2-.9-2-2V33v0c0-.56.44-1 1-1h14v0c.55 0 1 .44 1 1v20 0c0 .55-.45 1-1 1ZM12 30v0c-1.11 0-2-.9-2-2v-4 0c0-1.11.89-2 2-2h17v0c.55 0 1 .44 1 1v6 0c0 .55-.45 1-1 1H12Zm16.23-10H17.99h0c-3.32 0-6.01-2.69-6.01-6 -.01-3.32 2.68-6.01 5.99-6.01 1.59-.01 3.11.63 4.24 1.75l7.23 7.23v-.001c.68.68.68 1.8-.01 2.48 -.33.32-.78.51-1.25.51Zm-8.83-7.42v0c-.79-.79-2.05-.79-2.83-.01 -.79.78-.79 2.04-.01 2.82 .37.37.88.58 1.41.58h4.82Zm30.58 39.41v0c0 1.1-.9 2-2 2h-13v0c-.56 0-1-.45-1-1v-20 0c0-.56.44-1 1-1h14v0c.55 0 1 .44 1 1Z" fill="#D3D3D3"/>
</svg>