<svg xmlns="http://www.w3.org/2000/svg" viewBox="0 0 64 64">
  <path fill-rule="evenodd" d="M51 56H13v0c-.56 0-1-.45-1-1v-1.97 0c0-.53.27-1.01.71-1.28l2.8-1.72h0c.29-.19.47-.51.47-.86v-8.19 0c0-.56-.45-1-1-1.01 -.01-.01-.02 0-.02 0h-.001c-.55 0-1-.45-1-.99 -.01-.01 0-.01 0-.02v-4.01 0c0-.56.44-1 1-1h34v0c.55 0 1 .44 1 1v4h-.001c0 .54-.44.99-.99 1 -.01 0-.01 0-.01 0h-.001c-.56-.01-1.01.43-1.01.98 -.01 0-.01.01-.01.01v8.18 0c-.01.34.18.67.47.85l2.8 1.71v0c.44.27.71.75.71 1.28v1.96 0c0 .55-.45 1-1 1ZM25 41v0c0-.56-.45-1-1-1h-2v0c-.56 0-1 .44-1 1v7.98 0c0 .55.44 1 1 1h2v0c.55 0 1-.45 1-1Zm9 0v0c0-.56-.45-1-1-1h-2v0c-.56 0-1 .44-1 1v7.98 0c0 .55.44 1 1 1h2v0c.55 0 1-.45 1-1Zm9 0v0c0-.56-.45-1-1-1h-2v0c-.56 0-1 .44-1 1v7.98 0c0 .55.44 1 1 1h2v0c.55 0 1-.45 1-1Zm-27-9.01v-3 0c0-.56.44-1 1-1h.5v0c.27 0 .5-.23.5-.5v-1.5 0c0-6.58 4.57-12.27 11-13.67V8.73h0c0-.42.33-.75.75-.75h.5l.69-5.57V2.4c.03-.26.24-.44.49-.44h1.11V1.96c.25-.01.46.18.49.43l.69 5.56h.5v0c.41 0 .75.33.75.75v3.58 0c6.42 1.4 10.99 7.09 11 13.67v1.5 0c0 .27.22.5.5.5h.5v0c.55 0 1 .44 1 1v2.99Z" fill="#D3D3D3"/>
</svg>