<svg xmlns="http://www.w3.org/2000/svg" viewBox="0 0 64 64">
  <path fill-rule="evenodd" d="M13.1 30.8l-7.45-3.72v-.001c-.6-.3-.84-1.02-.54-1.62 .11-.24.3-.43.53-.54l25.5-12.73 -.001 0c.52-.27 1.14-.27 1.67 0l25.5 12.72v0c.59.29.83 1.01.53 1.61 -.12.23-.31.42-.54.53l-25.51 12.72v0c-.53.26-1.15.26-1.67 0l-11.4-5.69v0c-.25-.13-.35-.43-.23-.68 .04-.1.12-.18.22-.23l12.67-6.33v0c.49-.26.68-.86.42-1.35 -.25-.48-.83-.68-1.32-.45L17.8 31.85v0c-.61.29-1.02.87-1.1 1.54 -.09.66-1.58 12.57-1.58 12.57h-.001c1.06 1.2.97 3.04-.21 4.13l.94 5.97v0c.06.42-.15.84-.53 1.04h0c-2.29 1.32-5.18.96-7.08-.88H8.24c-.33-.29-.43-.75-.27-1.15l2.35-5.58 0 0c-.87-1.35-.51-3.14.8-4.05Zm17.16 10.76h0c1.08.54 2.36.54 3.45-.01l13.55-6.75v-.001c.24-.13.54-.03.66.22 .02.05.04.1.04.16 .46 4.02.95 8.28.99 8.48v0c.07.37-.08.75-.38.98v0c-4.91 3.32-10.67 5.16-16.59 5.31v0c-4.96-.14-9.8-1.44-14.16-3.79h0c-.36-.2-.56-.6-.51-1l1.07-8.79v0c.03-.28.28-.47.55-.44 .05 0 .11.02.16.04Z" fill="#D3D3D3"/>
</svg>