<svg xmlns="http://www.w3.org/2000/svg" viewBox="0 0 64 64">
  <path fill-rule="evenodd" d="M50 56H20.48v0c-1.6 0-3.12-.64-4.25-1.76l-3.08-3.08h0c-.76-.76-1.18-1.77-1.18-2.83V11.98v0c0-1.11.89-2 2-2h30v0c1.1 0 2 .89 2 2v36 0c0 1.1-.9 2-2 2H18.8v0c-.28 0-.5.22-.5.5 0 .13.05.25.14.35l.56.56v0c.37.37.88.58 1.41.58h27.04v0c.27 0 .5-.23.5-.5v-35 0c0-.28.22-.5.5-.5h1.5v0c1.1 0 2 .89 2 2v36 0c0 1.1-.9 2-2 2ZM33 23h2v2 0c0 .55.44 1 1 1 .55 0 1-.45 1-1v-2h2v0c.55 0 1-.45 1-1 0-.56-.45-1-1-1h-2v-2 0c0-.56-.45-1-1-1 -.56 0-1 .44-1 1v2h-2v0c-.56 0-1 .44-1 1 0 .55.44 1 1 1ZM18.61 33.91v0c.5.21 1.09-.02 1.31-.53 0-.01 0-.01 0-.01l1.47-3.45 6.63-1.33 2.04 4.77v0c.21.5.79.74 1.3.53 .5-.22.74-.8.53-1.31 -.01-.01-.01-.02-.01-.02L30 28.17l1.16-.24v0c.54-.11.89-.64.78-1.18 -.11-.55-.64-.9-1.18-.79l-1.58.31 -3.31-7.74v0c-.22-.51-.81-.75-1.31-.53 -.24.1-.43.28-.53.52l-6 14v0c-.22.5.01 1.09.52 1.31Zm8.61-7.19l-4.87.97 2.64-6.18Z" fill="#D3D3D3"/>
</svg>