<svg xmlns="http://www.w3.org/2000/svg" viewBox="0 0 64 64">
  <path fill-rule="evenodd" d="M53 54H11v0c-.56 0-1-.45-1-1v-2 0c0-.56.44-1 1-1h2v0c.55 0 1-.45 1-1V20v0c0-1.11.89-2 2-2h1.06v0c.49 0 .92-.37.98-.87 .61-5.12 6.62-9.14 13.94-9.14 7.32 0 13.33 4.01 13.94 9.13l0 0c.06.49.48.86.98.86h1.06v0c1.1 0 2 .89 2 2v29 0c0 .55.44 1 1 1h2v0c.55 0 1 .44 1 1v2 0c0 .55-.45 1-1 1ZM41.77 34.74v0c-.84-.5-1.8-.76-2.77-.75v0c-2.19-.03-4.29.86-5.79 2.45h0c-.05.05-.13.05-.18.01 -.03-.03-.05-.06-.05-.1l-.01-5.37c3.36-.4 6-2.86 6-7.2v0c-.08-1.98-.69-3.9-1.76-5.56v0c-.16-.25-.49-.33-.74-.17 -.05.02-.09.06-.12.1 -.24.26-1.26 1.31-1.51 1.59v-.001c-.23.25-.62.28-.88.05 -.03-.02-.05-.04-.06-.06 -.25-.29-1.35-1.36-1.56-1.61v0c-.2-.23-.53-.25-.75-.06 -.02.01-.04.03-.06.05 -.22.24-1.32 1.32-1.56 1.6v0c-.23.25-.62.28-.88.05 -.03-.02-.05-.04-.06-.06 -.25-.29-1.27-1.33-1.51-1.6v0c-.2-.23-.53-.25-.75-.06 -.04.03-.08.07-.11.11v0c-1.08 1.66-1.68 3.58-1.76 5.55 0 4.33 2.62 6.71 5.99 7.1l0 5.45h0c0 .06-.06.12-.13.12 -.04 0-.08-.02-.1-.05h-.001c-1.5-1.6-3.6-2.48-5.79-2.46h-.001c-.98-.01-1.93.25-2.77.74v0c-.22.13-.3.4-.19.62v0c1.72 3.36 5.16 5.51 8.94 5.58v4.04h-.001c-.01.55.44 1 .99 1s1-.45 1-1c0-.01 0-.01 0-.01v-4.05 -.001c3.78-.07 7.23-2.22 8.95-5.59h0c.1-.23.02-.5-.19-.63Z" fill="#D3D3D3"/>
</svg>