<svg xmlns="http://www.w3.org/2000/svg" viewBox="0 0 64 64">
  <path fill-rule="evenodd" d="M50.5 54c-1.46 0-2.38-1-3.5-1 -1.13 0-2.05 1-3.5 1 -2.48 0-7.5-4.37-7.5-12.31 0-4.67 2.88-7.7 6.5-7.7 1.97 0 2.87 1 4.5 1 1.62 0 2.52-1 4.5-1 3.61 0 6.5 3.03 6.5 7.69 0 7.93-5.03 12.3-7.5 12.3Zm-2.63-21.56v0c-.19.34-.55.55-.94.55 -.72-.001-.94-.33-.94-1.12 0-1.68 1.53-3.89 3.12-3.89 .9 0 1.87.49 1.87 1.11 0 1.1-1.94 1.12-3.13 3.33ZM30.49 53.99h-19v0c-.83 0-1.5-.68-1.5-1.5V21.22h0c-.01-.88.38-1.71 1.04-2.28l7.43-6.39v0c.33-.29.52-.71.52-1.14V8.97v0c0-.56.44-1 1-1h2v0c.55 0 1 .44 1 1v2.44h0c-.01.43.19.85.52 1.13l7.43 6.38v0c.66.56 1.04 1.4 1.04 2.27v31.26 0c0 .82-.68 1.5-1.5 1.5Zm-2.5-31.85h0c0-.3-.13-.57-.35-.76l-6-5.16v0c-.38-.33-.93-.33-1.31 0l-6 5.15v0c-.23.18-.35.46-.35.75v1.34 0c0 .27.22.5.5.5h13v0c.27 0 .5-.23.5-.5Z" fill="#D3D3D3"/>
</svg>