<svg xmlns="http://www.w3.org/2000/svg" viewBox="0 0 32 32">
  <path fill-rule="evenodd" d="M63.11 46H50.45l-.01 0c-.6 0-1.13-.35-1.37-.89l-.01-.01c-1.22-2.67-3.24-4.88-5.79-6.32l-.01-.01c-.3-.18-.4-.56-.23-.85 .05-.1.13-.18.23-.24l-.01 0c2.38-1.19 5.01-1.78 7.67-1.71 8.39 0 12.6 4.68 12.99 8.95l0 0c.06.5-.3.96-.81 1.03 -.03 0-.06 0-.08 0ZM50.99 33.99c-3.74 0-7-3.18-7-8.28 0-4.4 2.82-7.71 6.99-7.71 4.16 0 6.99 3.31 6.99 7.7 0 5.1-3.27 8.28-7 8.28Zm-19 1.01c-4.81 0-9.01-4.17-9.01-10.88 -.001-5.78 3.63-10.13 9-10.13 5.36 0 9 4.35 9 10.125 -.001 6.7-4.2 10.875-9.01 10.875Zm15.99 13.75l0 0c.06.61-.38 1.16-.99 1.23 -.04 0-.07 0-.11 0H17.06l0 0c-.62-.02-1.12-.53-1.1-1.15 0-.04 0-.07 0-.11 .48-5.13 5.66-10.76 15.99-10.76s15.5 5.62 15.99 10.75ZM.87 45.99l0 0c-.52-.02-.92-.45-.9-.96 0-.03 0-.06 0-.08 .39-4.27 4.6-8.96 12.99-8.96l-.01 0c2.65-.07 5.29.52 7.67 1.7l0 0c.3.16.41.54.24.84 -.06.09-.14.18-.24.23l-.01 0c-2.55 1.44-4.57 3.65-5.78 6.31l0-.01c-.24.53-.78.88-1.37.88Zm12.11-12.01c-3.74 0-7-3.18-7-8.28 0-4.4 2.82-7.71 6.99-7.71 4.16 0 6.99 3.31 6.99 7.7 0 5.1-3.27 8.28-7 8.28Z" transform="scale(0.5,0.5)" fill="#D3D3D3"/>
</svg>