<svg xmlns="http://www.w3.org/2000/svg" viewBox="0 0 64 64">
  <path fill-rule="evenodd" d="M58 35v0 8 0c0 .55-.45 1-1 1h-2v0c-.56 0-1-.45-1-1V21v0c0-.56.44-1 1-1h2v0c.55 0 1 .44 1 1v8 0 0c1.1 0 2 .89 2 2v2 0c0 1.1-.9 2-2 2Zm-8 13h-2v0c-1.11 0-2-.9-2-2V35H18v11 0c0 1.1-.9 2-2 2h-2v0c-1.11 0-2-.9-2-2V18v0c0-1.11.89-2 2-2h2v0c1.1 0 2 .89 2 2v11h28V18v0c0-1.11.89-2 2-2h2v0c1.1 0 2 .89 2 2v28 0c0 1.1-.9 2-2 2ZM9 44H7v0c-.56 0-1-.45-1-1v-8 0 0c-1.11 0-2-.9-2-2v-2 0c0-1.11.89-2 2-2v0 -8 0c0-.56.44-1 1-1h2v0c.55 0 1 .44 1 1v22 0c0 .55-.45 1-1 1Z" fill="#D3D3D3"/>
</svg>