<svg xmlns="http://www.w3.org/2000/svg" viewBox="0 0 64 64">
  <path fill-rule="evenodd" d="M54 29v0c0 3.86-3.14 7-7 7H19h0c-4.98-.01-9-4.04-9-9.01 0-4.6 3.47-8.46 8.04-8.95h0c.51-6.05 5.83-10.53 11.88-10.02 3.54.3 6.72 2.3 8.53 5.37v-.001c4.16-1.43 8.68.79 10.1 4.95 .42 1.25.53 2.6.31 3.91v0c3.01.83 5.1 3.57 5.11 6.71ZM18 48v0c1.65 0 3 1.34 3 3 0 1.65-1.35 3-3 3 -1.66 0-3-1.35-3-3v0c0-1.66 1.34-3 3-3Zm1-5v0c0-1.66 1.34-3 3-3 1.65 0 3 1.34 3 3 0 1.65-1.35 3-3 3v0c-1.66 0-3-1.35-3-3Zm9 5v0c1.65 0 3 1.34 3 3 0 1.65-1.35 3-3 3 -1.66 0-3-1.35-3-3v0c0-1.66 1.34-3 3-3Zm1-5v0c0-1.66 1.34-3 3-3 1.65 0 3 1.34 3 3 0 1.65-1.35 3-3 3v0c-1.66 0-3-1.35-3-3Zm9 5v0c1.65 0 3 1.34 3 3 0 1.65-1.35 3-3 3 -1.66 0-3-1.35-3-3v0c0-1.66 1.34-3 3-3Zm1-5v0c0-1.66 1.34-3 3-3 1.65 0 3 1.34 3 3 0 1.65-1.35 3-3 3v0c-1.66 0-3-1.35-3-3Z" fill="#D3D3D3"/>
</svg>