<svg xmlns="http://www.w3.org/2000/svg" viewBox="0 0 64 64">
  <path fill-rule="evenodd" d="M51 56H37v0c-1.66 0-3-1.35-3-3V23v0c0-2.77 2.23-5 5-5h10v0c2.76 0 5 2.23 5 5v30 0c0 1.65-1.35 3-3 3Zm-1-32.5v0c0-.83-.68-1.5-1.5-1.5h-9v0c-.83 0-1.5.67-1.5 1.5v7 0c0 .82.67 1.5 1.5 1.5h9v0c.82 0 1.5-.68 1.5-1.5Zm0 24v0c0-.83-.68-1.5-1.5-1.5h-9v0c-.83 0-1.5.67-1.5 1.5v3 0c0 .82.67 1.5 1.5 1.5h9v0c.82 0 1.5-.68 1.5-1.5ZM46.5 16h-5v0c-.83 0-1.5-.68-1.5-1.5v-5 0c0-.83.67-1.5 1.5-1.5h5v0c.82 0 1.5.67 1.5 1.5v5 0c0 .82-.68 1.5-1.5 1.5ZM27 56H13v0c-1.66 0-3-1.35-3-3V23v0c0-2.77 2.23-5 5-5h10v0c2.76 0 5 2.23 5 5v30 0c0 1.65-1.35 3-3 3Zm-1-22.5v0c0-.83-.68-1.5-1.5-1.5h-9v0c-.83 0-1.5.67-1.5 1.5v11 0c0 .82.67 1.5 1.5 1.5h9v0c.82 0 1.5-.68 1.5-1.5ZM22.5 16h-5v0c-.83 0-1.5-.68-1.5-1.5v-5 0c0-.83.67-1.5 1.5-1.5h5v0c.82 0 1.5.67 1.5 1.5v5 0c0 .82-.68 1.5-1.5 1.5Z" fill="#D3D3D3"/>
</svg>