<svg xmlns="http://www.w3.org/2000/svg" viewBox="0 0 32 32">
  <path fill-rule="evenodd" d="M44 56H20l-.01-.001c-2.21-.01-4-1.8-4-4 0 0 0 0 0 0v-40l0 0c-.01-2.21 1.79-4 4-4h24l-.01 0c2.2-.01 4 1.79 4 4v40h0c0 2.2-1.8 4-4 4ZM30 14l-.01 0c-5.53 0-10 4.47-10 10 0 5.52 4.47 10 10 10 5.52-.01 10-4.48 10-10l0 0c0-5.53-4.48-10-10-10Zm14 30.49l0-.01c0-.49-.2-.96-.56-1.29l-.01-.01c-6.19-5.65-15.25-6.82-22.67-2.94l-.01 0c-.49.26-.79.76-.78 1.31v9.41l0 0c0 .55.44 1 1 1h22 -.01c.55 0 1-.45 1-1Z" transform="scale(0.5,0.5)" fill="#D3D3D3"/>
</svg>