<svg xmlns="http://www.w3.org/2000/svg" viewBox="0 0 64 64">
  <path fill-rule="evenodd" d="M50 54H14v0c-2.21 0-4-1.79-4-4 -.01-.01-.01-.01-.01-.01v-5.65h-.001c-.01-2.88.51-5.74 1.52-8.43 1.01-2.7 3.49-9.69 3.84-10.63h-.001c.34-.94 1.33-1.48 2.31-1.25 .96.22 2.33.56 4.01.89h0c.13.02.27-.07.3-.21 0-.02 0-.03 0-.05v-4.71c0-7.78 2.22-10 10-10 7.77 0 10 2.22 10 10v4.7 -.001c0 .14.11.25.26.25 .01-.01.02-.01.04-.01 1.67-.34 3.04-.67 4.01-.89l-.001 0c.97-.23 1.96.3 2.31 1.24 .35.93 2.83 7.92 3.84 10.62l-.001 0c1.01 2.69 1.52 5.54 1.52 8.42v5.64 0c-.01 2.2-1.8 3.99-4 3.99 -.01-.001-.01-.001-.01-.001ZM38 20c0-5.42-.59-6-6-6 -5.42 0-6 .58-6 6v5.4 -.001c-.01.12.09.23.21.25l-.001-.001c1.91.22 3.84.34 5.78.34l-.001-.001c1.93-.01 3.86-.13 5.78-.35v0c.12-.02.22-.13.21-.25Z" fill="#D3D3D3"/>
</svg>