<svg xmlns="http://www.w3.org/2000/svg" viewBox="0 0 64 64">
  <path fill-rule="evenodd" d="M50.99 29v0c1.07-.08 2.13.35 2.85 1.15v0c.17.24.17.57 0 .82 -1.02 1.42-5.09 6.64-6.9 12.3 -2.96 9.24-9.17 12.71-16.96 12.71v0c-7.74-.01-14-6.27-14-14v-22 0c0-1.11.89-2 2-2 1.1 0 2 .89 2 2v12 0c0 .55.44.99 1 .99v0 0c.55 0 .99-.45 1-1V13.46h0c-.03-1.39 1.07-2.53 2.45-2.55 1.38-.03 2.52 1.07 2.54 2.45 0 .03 0 .06 0 .09v17.5 0c0 .55.44.99 1 .99v0h0c.55 0 .99-.45.99-1 0-.01 0-.01 0-.01V10.42v0c-.02-1.39 1.08-2.52 2.46-2.54 1.38-.02 2.51 1.08 2.53 2.46 0 .02 0 .04 0 .07v20.5 0c0 .55.44.99.99.99 0-.01 0-.01 0-.01v0 0c.55 0 .99-.45 1-1V13.38v-.001c-.03-1.39 1.07-2.52 2.45-2.55 1.38-.03 2.51 1.07 2.54 2.45 0 .02 0 .05 0 .08V37.4v0c-.01.36.29.66.65.66 .23 0 .44-.13.56-.33 2.37-4.01 5.67-8.9 8.77-8.9Z" fill="#D3D3D3"/>
</svg>