<svg xmlns="http://www.w3.org/2000/svg" viewBox="0 0 64 64">
  <path fill-rule="evenodd" d="M7.99 48v0c-1.11 0-2.01-.9-2.01-2 -.01-.63.29-1.22.79-1.6l27.02-20.5v0c.74-.57 1.18-1.46 1.18-2.39v-2.52 0c.02-1.66-1.31-3.02-2.96-3.05 -1.66-.03-3.02 1.3-3.05 2.95 -.01.02-.01.05 0 .08v0c0 1.1-.9 2-2 2 -1.11 0-2-.9-2-2v-.001c-.04-3.87 3.06-7.04 6.92-7.07 3.86-.04 7.03 3.06 7.06 6.92 0 .04 0 .09 0 .13v2.51 0c-.01 2.18-1.03 4.24-2.77 5.57l-.92.69 21.9 16.62v0c.87.66 1.05 1.92.38 2.8 -.38.49-.97.79-1.6.79Zm42.071-4l-18.07-13.704L13.921 44Z" fill="#D3D3D3"/>
</svg>