<svg xmlns="http://www.w3.org/2000/svg" viewBox="0 0 64 64">
  <path fill-rule="evenodd" d="M55.01 36.02c-5.81 0-6.88 2.29-9.64 3.62C40.36 42.05 37 45.16 37 51.01c0 3.09-.03 5-1 5 -1.78 0-2.683-1.85-3.51-3.26v0c-.57.18-1.16.27-1.75.25 -2.28 0-14.75-4.5-14.75-7 0-1.47 1-2.26 1-4v-.03 -.001c-.05-1.48-.78-2.85-1.98-3.71h0c-1.61-1.15-2.82-2.77-3.48-4.62v0c-.49.23-1.02.35-1.55.35 -1.92 0-4-2.34-4-6s.71-5 1.5-5c1.01 0 1.25.5 1.25.5s.69-2.51 2.1-2.51v0c.73 0 1.39.42 1.72 1.08v-.001c2.37-2.7 5.82-4.19 9.41-4.08 14.5 0 15.47 9 20 9 1.67 0 3-2.39 3-3 0-1.93-9-5.54-9-14 0-1.33 1.06-2 2.5-2 1.25 0 3.91 1.62 5.5 4 2.41 3.62 2.04 8 5 10 1.1.74 3.92.69 6 2 2.08 1.3 3.36 3.47 4 4l0 0c.58.5.94 1.22 1 2 -.001.96-2.18 6-5 6Zm-24 8v0c-2.68-.06-5.31-.67-7.74-1.8v0c-.17.58-.26 1.18-.27 1.79 0 1.67 1.29 2.31 6 4v0c1.05.35 2.07.81 3.04 1.36l0 0c.1-1.83.31-3.64.6-5.44 -.55.03-1.09.07-1.66.07Z" fill="#D3D3D3"/>
</svg>