<svg xmlns="http://www.w3.org/2000/svg" viewBox="0 0 64 64">
  <path fill-rule="evenodd" d="M50 25h-7.34l-1.28 14h6.6v0c1.1 0 2 .89 2 2 0 1.1-.9 2-2 2h-6.97l-.84 9.18v0c-.1 1.03-.96 1.81-2 1.81v0 0c-1.11-.01-2-.9-2-2.01 0-.07 0-.13 0-.19l.8-8.82H24.93l-.84 9.18h-.001c-.09 1.1-1.06 1.92-2.16 1.83 -1.11-.09-1.93-1.06-1.84-2.16 0-.02 0-.03 0-.04l.8-8.82h-6.97v0c-1.11 0-2-.9-2-2 0-1.11.89-2 2-2h7.33l1.27-14H15.9v0c-1.11 0-2-.9-2-2 0-1.11.89-2 2-2h6.96l.83-9.19v0c.1-1.1 1.07-1.91 2.17-1.81 1.09.1 1.9 1.07 1.8 2.16l-.81 8.81h12.03l.83-9.19h0c.1-1.1 1.07-1.91 2.17-1.81 1.09.1 1.9 1.07 1.8 2.16l-.81 8.81h6.96v0c1.1 0 2 .89 2 2 0 1.1-.9 2-2 2Zm-23.39 0l-1.28 14h12.03l1.27-14Z" fill="#D3D3D3"/>
</svg>