<svg xmlns="http://www.w3.org/2000/svg" viewBox="0 0 64 64">
  <path fill-rule="evenodd" d="M32 54C26.77 54 7 41.4 7 24.38h-.001c-.09-7.85 6.18-14.28 14.02-14.39V9.98c4.3.01 8.35 2.02 10.97 5.44v0c2.61-3.42 6.67-5.43 10.97-5.45v0c7.84.1 14.11 6.54 14.02 14.38 0 17.01-19.78 29.61-25 29.61Zm10.97-40c-6.49 0-8.69 6-10.98 6 -2.3 0-4.5-6-10.98-6L21 13.999c-5.64.1-10.12 4.75-10.03 10.38 -.001 15.1 18.38 25.584 21 25.61 2.61-.04 21-10.52 21-25.62v-.001c.09-5.64-4.4-10.28-10.03-10.39Z" fill="#D3D3D3"/>
</svg>