<svg xmlns="http://www.w3.org/2000/svg" viewBox="0 0 64 64">
  <path fill-rule="evenodd" d="M58.02 52.02h-24v0c-1.11 0-2-.9-2-2 0-1.11.89-2 2-2h24v0c1.1 0 2 .89 2 2 0 1.1-.9 2-2 2Zm-4.2-6H36.97v0c-3.04-.01-5.8-1.72-7.16-4.43l-5.57-11.13h0c-.15-.29-.42-.49-.73-.54l-10.22-1.71v0c-.35-.06-.7.06-.93.33l-3.78 4.4h0c-.57.66-1.41 1.04-2.28 1.04H3.49v0c-.28-.01-.5-.23-.5-.51 0-.08.01-.16.05-.23l3.52-7.06h0c.07-.15.07-.31-.001-.45l-4.53-9.06h0c-.13-.25-.03-.55.22-.68 .06-.04.14-.06.22-.06h2.72v-.001c.92 0 1.79.42 2.36 1.15l3.46 4.45v0c.18.24.48.38.78.38H26.4 26.4c.33 0 .64-.17.83-.45l1.4-2.11h-.001c.18-.28.49-.45.83-.45h2.45v-1.88l-18.002.85v0c-1.11-.01-2-.91-1.99-2.02 0-1.1.89-1.98 1.98-1.99l18.002.85v-.85 0c0-1.11.89-2 2-2 1.1 0 2 .89 2 2v.84l18-.86v0c1.1 0 1.99.9 1.98 2.01 -.01 1.09-.9 1.97-1.99 1.98l-18.01-.86v1.87h2.47v0c.33-.01.64.16.83.44l1.4 2.1v0c.18.27.49.44.83.44h1.23v0c4.01 0 7.76 2 9.98 5.34l6.21 9.32h0c1.64 2.47 1.23 5.77-.96 7.77v0c-1.17 1.02-2.68 1.58-4.23 1.55Zm1.1-8.78l-5.41-8.105v-.001c-1.3-1.95-3.49-3.12-5.83-3.12h-6.16v0c-.28 0-.5.22-.5.5 0 .07.01.15.05.22l5.35 10.72v0c.16.33.51.55.89.55h11.16v0c.27 0 .5-.23.5-.5 0-.1-.03-.2-.09-.28Z" fill="#D3D3D3"/>
</svg>