<svg xmlns="http://www.w3.org/2000/svg" viewBox="0 0 64 64">
  <path fill-rule="evenodd" d="M8.49 20.61l5.43 3.17h0c.42.25.6.78.41 1.24v0c-1.78 4.47-1.78 9.46 0 13.93v0c.19.45.01.98-.42 1.24l-5.44 3.17 0 0c-.49.28-.65.89-.37 1.38l.99 1.75h-.001c.27.47.88.64 1.36.37 0-.01 0-.01 0-.01l5.47-3.2 0 0c.43-.25.97-.15 1.28.25h0c2.96 3.67 7.2 6.11 11.87 6.82v-.001c.49.06.86.48.86.98v6.24 0c-.01.55.44.99.99 1h1.99v0c.55 0 1-.45 1-1v-6.25 -.001c0-.5.37-.92.86-.99v0c4.67-.72 8.9-3.15 11.87-6.83h-.001c.3-.4.85-.5 1.28-.26l5.47 3.19v0c.47.27 1.08.11 1.36-.36 0-.01 0-.01 0-.01l.99-1.75v0c.27-.49.11-1.11-.37-1.39l-5.43-3.17h0c-.43-.26-.61-.79-.42-1.25v0c1.77-4.48 1.77-9.47 0-13.94v0c-.2-.46-.02-.99.41-1.25l5.43-3.18v0c.47-.28.64-.9.36-1.38l-1.01-1.76v0c-.28-.48-.89-.65-1.37-.38 -.01 0-.01 0-.01 0l-5.47 3.19h0c-.44.24-.98.14-1.29-.26l0 0c-2.97-3.68-7.21-6.12-11.88-6.83l-.001 0c-.5-.07-.87-.49-.87-.99V5.83v0c0-.56-.45-1-1-1h-2v0c-.56 0-1 .44-1 1v6.24 0c-.01.49-.38.91-.87.98l-.001 0c-4.68.71-8.91 3.14-11.88 6.82v0c-.31.39-.86.49-1.29.25l-5.48-3.2v0c-.48-.28-1.09-.12-1.36.35 -.01 0-.01 0-.01 0l-1.01 1.75v0c-.28.48-.12 1.09.36 1.37Zm12.46 20.16l5.25-3.07c.76-.45 1.2-.45 1.52-.2h-.001c.5.38 1.06.7 1.66.93h0c.37.16.61.53.61.94v6.57 0c0 .41-.33.74-.74.75 -.05 0-.1-.01-.14-.02h0c-3.25-.64-6.19-2.33-8.37-4.81v0c-.27-.32-.23-.79.08-1.05 .03-.03.07-.06.11-.08Zm13.04 5.19v-6.58 -.001c-.01-.41.23-.79.61-.95v0c.59-.24 1.15-.56 1.66-.94v0c.32-.24.76-.26 1.1-.05 1.29.75 4.26 2.48 5.66 3.3v0c.35.2.47.65.27 1.01 -.03.03-.05.07-.08.11v0c-2.19 2.48-5.13 4.17-8.37 4.8h-.001c-.41.07-.8-.2-.87-.61 -.01-.05-.02-.1-.02-.14Zm11.08-8.68l-5.69-3.32h-.001c-.36-.21-.55-.6-.49-1v0c.1-.66.1-1.33 0-1.99v0c-.06-.4.13-.8.48-1l5.68-3.32v0c.35-.22.81-.1 1.02.26 .02.03.04.07.05.12v0c1.1 3.18 1.1 6.65-.001 9.84v0c-.15.38-.58.58-.97.44 -.05-.02-.09-.04-.13-.06Zm-2.04-14.09l-5.26 3.06c-.76.44-1.21.44-1.53.19v0c-.51-.39-1.07-.71-1.67-.94v0c-.38-.17-.62-.54-.61-.95v-6.58 -.001c-.01-.42.32-.75.73-.76 .04-.01.09 0 .13.01v0c3.24.63 6.18 2.32 8.36 4.8v-.001c.26.31.22.78-.09 1.04 -.04.02-.08.05-.12.07Zm-13.05-5.2v6.57 0c0 .4-.24.78-.61.94l-.001 0c-.6.23-1.16.55-1.67.93h-.001c-.33.23-.77.25-1.11.04l-5.67-3.31v-.001c-.36-.21-.48-.66-.28-1.02 .02-.04.04-.08.07-.12l0-.001c2.18-2.49 5.12-4.18 8.36-4.81v0c.4-.08.79.19.86.6 0 .04.01.09.01.13Zm-11.09 8.67l5.68 3.31v0c.35.2.54.59.48.99v0c-.11.65-.11 1.32 0 1.98v0c.05.39-.14.79-.49.99l-5.69 3.31v0c-.36.21-.82.09-1.03-.27 -.03-.04-.05-.08-.06-.13v0c-1.11-3.19-1.11-6.66-.001-9.84v0c.14-.39.57-.59.96-.45 .04.01.08.03.12.05Z" fill="#D3D3D3"/>
</svg>