<svg xmlns="http://www.w3.org/2000/svg" viewBox="0 0 64 64">
  <path fill-rule="evenodd" d="M48.01 10.02v0c1.1 0 2 .89 2 2v8.52 0c-.01.41-.34.74-.76.74 -.2-.01-.39-.08-.53-.22l-6.14-6.14v0c-.38-.38-.59-.89-.59-1.42v-1.51 0c0-1.11.89-2 2-2Zm0 44h-9v0c-1.11 0-2-.9-2-2v-12 0c0-1.11-.9-2-2-2h-6v0c-1.11 0-2 .89-2 2v12 0c0 1.1-.9 2-2 2h-9v0c-1.11 0-2-.9-2-2V34h-3.99 -.001c-1.11-.01-2.01-.9-2-2.01 0-.54.21-1.04.58-1.42l21.99-22.01h0c.78-.79 2.04-.79 2.82-.01 0 0 0 0 0 0l21.994 22v0c.78.78.78 2.04-.01 2.82 -.38.37-.89.58-1.42.58h-4v18.01 0c0 1.1-.9 2-2 2Z" fill="#D3D3D3"/>
</svg>