<svg xmlns="http://www.w3.org/2000/svg" viewBox="0 0 64 64">
  <path fill-rule="evenodd" d="M36.88 47.7v0c-.1.23-.37.34-.61.24 -.2-.09-.32-.3-.28-.51 2.46-11.79 6.99-13.47 6.99-23.43 0-8.82-2.97-12.8-4.86-15.07 -.35-.42.06-1.11.58-.93 4.8 1.74 12.27 6.73 12.27 15.97 0 10.8-10.01 13.94-14.12 23.7Zm-2.39-.58v0c-.07.49-.49.85-.99.86h-3.02v0c-.5-.01-.92-.38-.99-.87 -1.65-10.94-6.51-13.12-6.51-23.15 0-10.29 5.28-16.01 9-16.01 3.71-.001 9 5.71 9 16 0 10.02-4.87 12.2-6.51 23.14ZM20.99 24c0 9.95 4.53 11.64 6.99 23.42v0c.04.25-.13.49-.38.53 -.22.03-.43-.08-.51-.28 -4.11-9.77-14.12-12.9-14.12-23.71 0-9.24 7.46-14.23 12.27-15.97 .52-.19.92.5.58.92 -1.89 2.26-4.86 6.25-4.86 15.06Zm7.5 27.97h7v0c.82 0 1.5.67 1.5 1.5v3 0c0 .82-.68 1.5-1.5 1.5h-7v0c-.83 0-1.5-.68-1.5-1.5v-3.01 0c-.01-.83.67-1.51 1.49-1.51 0-.01 0-.01 0-.01Z" fill="#D3D3D3"/>
</svg>