<svg xmlns="http://www.w3.org/2000/svg" viewBox="0 0 64 64">
  <path fill-rule="evenodd" d="M53 52H6.75h0c-.42 0-.76-.34-.76-.75 -.01-.12.02-.24.07-.34l1.04-2.09h0c.25-.51.77-.83 1.34-.83h3.6v0c.56-.01 1.08-.33 1.34-.83l1.17-2.35h-.001c.25-.51.77-.83 1.34-.83h2.14 -.001c.56 0 1.08.32 1.34.83l1.17 2.34h-.001c.25.5.77.82 1.34.82h14.14v-.001c.56-.01 1.08-.33 1.34-.83l1.17-2.35v0c.25-.51.77-.83 1.34-.83H42v0c.56 0 1.08.32 1.34.83l1.17 2.34v0c.25.5.77.82 1.34.82h5.07v0c1.66-.01 3-1.36 2.99-3.02 -.01-.78-.31-1.52-.84-2.08v0c-.11-.1-.16-.24-.17-.38v0c0-.3.23-.54.53-.54 .01 0 .03 0 .05 0v0c2.75.33 4.7 2.84 4.37 5.59 -.31 2.5-2.44 4.39-4.97 4.4ZM39.99 41.99c-8 0-14.34-4.03-15.76-4.86v0c-.12-.07-.28-.04-.34.08 -.01.01-.02.02-.02.03l-1.52 3.78h0c-.23.56-.78.94-1.4.94h-8l-.001 0c-.62 0-1.18-.38-1.4-.95l0 0c-1.03-3.6-1.57-7.32-1.6-11.06 0-4.8 1.85-9.75 1.99-16.27h0c0-.5.25-.95.67-1.22 1.8-1.157 7-4.15 16.01-4.52l0 0c.69-.05 1.29.49 1.33 1.18 0 0 0 .01 0 .01 .2 6.9 1.04 12.51 7.98 17.79 5.67 4.31 12.31 5.2 14.375 5.99 1.34.51 1.625 1.81 1.625 3.5 0 2.15-6.95 5.49-14 5.49Z" fill="#D3D3D3"/>
</svg>