<svg xmlns="http://www.w3.org/2000/svg" viewBox="0 0 64 64">
  <path fill-rule="evenodd" d="M49.01 54.02h-34v0c-2.77 0-5-2.24-5-5v-7.68 0c-.01-.89.05-1.77.17-2.65l3.24-24.35v0c.33-2.49 2.45-4.34 4.95-4.34h27.24v0c2.5 0 4.62 1.85 4.95 4.33L53.8 38.67v0c.11.87.17 1.75.17 2.64v7.67h0c-.01 2.76-2.24 4.99-5.01 4.99 -.01-.01-.01-.01-.01-.01Zm.81-15.14l-3.2-24v0c-.07-.5-.49-.87-1-.87H18.37V14c-.51 0-.93.37-1 .86l-3.2 24h-.001c-.08.54.31 1.05.85 1.12 .04 0 .08 0 .13 0h7.1v0c.43-.01.81.27.94.68l1.54 4.63v0c.13.4.51.68.94.68h12.55v0c.43 0 .81-.28.94-.69l1.54-4.64v0c.13-.41.51-.69.94-.69h7.1v0c.55-.01.99-.45.99-1.01 -.01-.05-.01-.09-.01-.14Z" fill="#D3D3D3"/>
</svg>