<svg xmlns="http://www.w3.org/2000/svg" viewBox="0 0 64 64">
  <path fill-rule="evenodd" d="M32 55.98v0c-13.26 0-24-10.75-24-24 0-13.26 10.74-24 24-24 13.25 0 24 10.74 24 24v0c0 13.25-10.75 24-24 24Zm1.5-32v0c-1.8.12-3.36-1.22-3.5-3v0c.14-1.79 1.7-3.13 3.5-3v0c1.79-.13 3.35 1.21 3.5 3v0c-.15 1.78-1.71 3.12-3.51 3Zm1.42 6.76l-2.79 10.5v0c-.28 1.02.26 2.08 1.24 2.47v0c.37.15.62.51.62.92v.32 0c0 .55-.45.99-1 1H30l0-.001c-1.66 0-3.02-1.34-3.02-2.99 -.01-.27.03-.53.09-.78l2.78-10.51v0c.27-1.03-.27-2.09-1.25-2.48v0c-.38-.16-.63-.52-.63-.93v-.33h-.001c-.01-.56.44-1 .99-1h2.98v-.001c1.65-.01 3.01 1.33 3.01 2.98 0 .26-.04.52-.1.77Z" fill="#D3D3D3"/>
</svg>