<svg xmlns="http://www.w3.org/2000/svg" viewBox="0 0 64 64">
  <path fill-rule="evenodd" d="M55.37 25.21l-7.35 5.51v0c-.57.42-1.37.3-1.79-.27 -.17-.22-.26-.49-.26-.76v-2.73 0c0-1.66-1.35-3.01-3-3.01 -.01-.01-.01-.01-.01-.01h-22 0c-1.66 0-3.01 1.34-3 3 0 0 0 0 0 0v2.72 0c-.01.7-.58 1.27-1.28 1.27 -.28-.01-.54-.09-.76-.26l-7.36-5.52v0c-.68-.51-.82-1.47-.31-2.14 .08-.12.18-.22.3-.31L30.13 6.51v0c1.06-.81 2.53-.81 3.59-.001l21.59 16.18v0c.67.5.81 1.46.3 2.13 -.09.11-.19.21-.31.3ZM9.16 28.13L28.97 43v0c1.77 1.33 4.22 1.33 5.99 0l19.81-14.87v0c.32-.25.79-.18 1.03.14 .09.12.14.28.14.44v22.27 0c0 1.65-1.35 3-3 3 -.01 0-.01 0-.01 0h-42 0c-1.66-.01-3.01-1.35-3-3.01 0-.01 0-.01 0-.01V28.68h0c-.01-.41.33-.75.73-.75 .16-.01.31.05.44.14Z" fill="#D3D3D3"/>
</svg>