<svg xmlns="http://www.w3.org/2000/svg" viewBox="0 0 64 64">
  <path fill-rule="evenodd" d="M52.01 20.02h-40v0c-1.11 0-2-.9-2-2v-4 0c0-1.11.89-2 2-2h40v0c1.1 0 2 .89 2 2v4 0c0 1.1-.9 2-2 2Zm-2.01 2v0c.55-.01 1 .44 1 .99 0 .02-.01.04-.01.06L49.24 49.2v-.001c-.11 1.57-1.43 2.8-3.01 2.8H17.74v0c-1.59 0-2.9-1.23-3.01-2.8l-1.75-26.14 -.001 0c-.04-.56.38-1.03.93-1.07 .02-.01.04-.01.06-.01ZM24.61 41.58v0c-.79.78-.79 2.04-.01 2.82 .78.78 2.04.78 2.82 0L32 39.81l4.58 4.58v0c.77.78 2.04.79 2.82.01 .78-.78.79-2.05.01-2.83 -.01-.01-.01-.01-.02-.02l-4.59-4.59 4.59-4.6v0c.78-.79.78-2.05 0-2.84 -.79-.79-2.05-.79-2.84-.01l-4.6 4.59 -4.6-4.6v0c-.79-.78-2.06-.78-2.83.01 -.78.78-.78 2.03 0 2.81l4.59 4.59Z" fill="#D3D3D3"/>
</svg>