<svg xmlns="http://www.w3.org/2000/svg" viewBox="0 0 64 64">
  <path fill-rule="evenodd" d="M56.5 28v0c-.68-.01-1.25.48-1.36 1.15l-3.25 19.5h-.001c-.33 1.92-2 3.34-3.95 3.34h-31.9v0c-1.96-.01-3.63-1.42-3.95-3.35L8.83 29.13H8.83c-.12-.67-.69-1.16-1.36-1.16v0c-.83 0-1.5-.68-1.5-1.5v-3.01 0c-.01-.83.67-1.51 1.49-1.51 0-.01 0-.01 0-.01h49v0c.82 0 1.5.67 1.5 1.5v3 0c0 .82-.68 1.5-1.5 1.5 -.01 0-.01 0-.01 0ZM17 29.99v0c-1.66 0-3 1.34-3 3 0 1.65 1.34 3 3 3 1.65 0 3-1.35 3-3v0c0-1.66-1.35-3-3-3Zm5 10v0c-1.66 0-3 1.34-3 3 0 1.65 1.34 3 3 3 1.65 0 3-1.35 3-3v0c0-1.66-1.35-3-3-3Zm5-10v0c-1.66 0-3 1.34-3 3 0 1.65 1.34 3 3 3 1.65 0 3-1.35 3-3v0c0-1.66-1.35-3-3-3Zm5 10v0c-1.66 0-3 1.34-3 3 0 1.65 1.34 3 3 3 1.65 0 3-1.35 3-3v0c0-1.66-1.35-3-3-3Zm5-10v0c-1.66 0-3 1.34-3 3 0 1.65 1.34 3 3 3 1.65 0 3-1.35 3-3v0c0-1.66-1.35-3-3-3Zm5 10v0c-1.66 0-3 1.34-3 3 0 1.65 1.34 3 3 3 1.65 0 3-1.35 3-3v0c0-1.66-1.35-3-3-3Zm5-10v0c-1.66 0-3 1.34-3 3 0 1.65 1.34 3 3 3 1.65 0 3-1.35 3-3v0c0-1.66-1.35-3-3-3Zm4.76-10H16.23v0c-.69 0-1.24-.56-1.24-1.24 -.01-.47.26-.9.68-1.11l2.14-1.07v0c.77-.39 1.62-.59 2.49-.59h2.18 0c.32 0 .64-.11.9-.3l6.8-5.1v0c1.06-.8 2.53-.8 3.6 0l6.81 5.11v0c.24.18.55.24.84.17l2.87-.72v0c1.28-.33 2.65-.18 3.84.42l4.14 2.07v0c.61.3.85 1.04.55 1.65 -.21.41-.64.68-1.11.68Z" fill="#D3D3D3"/>
</svg>