<svg xmlns="http://www.w3.org/2000/svg" viewBox="0 0 64 64">
  <path fill-rule="evenodd" d="M47 56H17v0c-1.11 0-2-.9-2-2V23v0c0-.56.44-1 1-1h32v0c.55 0 1 .44 1 1v31 0c0 1.1-.9 2-2 2ZM32 26v0c-6.63 0-12 5.37-12 12 0 6.62 5.37 12 12 12 6.62 0 12-5.38 12-12v0c0-6.63-5.38-12-12-12Zm0 22v0c-5.53-.01-10.01-4.49-10-10.01 0-.94.13-1.87.38-2.76v0c.2-.72.84-1.23 1.59-1.24v0c.85-.02 1.7.19 2.46.6h0c.96.52 2.13.52 3.1-.001v0c1.53-.81 3.36-.81 4.89 0v0c.96.52 2.13.52 3.1 0h0c.75-.42 1.6-.63 2.46-.61v0c.74.01 1.39.51 1.59 1.23v0c1.52 5.3-1.55 10.85-6.86 12.37 -.9.25-1.83.38-2.76.38Zm16-28H16v0c-.56 0-1-.45-1-1v-9 0c0-1.11.89-2 2-2h30v0c1.1 0 2 .89 2 2v9 0c0 .55-.45 1-1 1Zm-7-9v0c-1.66 0-3 1.34-3 3 0 1.65 1.34 3 3 3 1.65 0 3-1.35 3-3v0c0-1.66-1.35-3-3-3Z" fill="#D3D3D3"/>
</svg>