<svg xmlns="http://www.w3.org/2000/svg" viewBox="0 0 64 64">
  <path fill-rule="evenodd" d="M47 56H17v0c-1.66 0-3-1.35-3-3 0-21.73 4.92-31.76 7.04-35.5v0c.53-.94 1.52-1.51 2.6-1.51h8.35c10.06 0 18 11.55 18 28v9 0c0 1.65-1.35 3-3 3Zm-6.65-31.53v0c-.26-.31-.64-.48-1.04-.48v0c-.74-.01-1.34.57-1.34 1.3 -.01.05 0 .1 0 .15l1.85 15.42v0c.08.63.62 1.1 1.26 1.1h3.88v0c.55 0 1.01-.45 1.02-1 0-.03-.01-.05-.01-.07 -.48-6.9-2.56-12.73-5.66-16.47Zm-7.86-10.48h-9v0c-.83 0-1.5-.68-1.5-1.5v-5 0c0-.83.67-1.5 1.5-1.5h9v0c.82 0 1.5.67 1.5 1.5v5 0c0 .82-.68 1.5-1.5 1.5Z" fill="#D3D3D3"/>
</svg>