<svg xmlns="http://www.w3.org/2000/svg" viewBox="0 0 64 64">
  <path fill-rule="evenodd" d="M47 56H17v0c-1.11 0-2-.9-2-2V23v0c0-.56.44-1 1-1h32v0c.55 0 1 .44 1 1v31 0c0 1.1-.9 2-2 2ZM32 26v0c-6.63 0-12 5.37-12 12 0 6.62 5.37 12 12 12 6.62 0 12-5.38 12-12v0c0-6.63-5.38-12-12-12Zm0 22v0c-5.53 0-10-4.48-10-10 0-5.53 4.47-10 10-10 5.52 0 10 4.47 10 10v0c0 5.52-4.48 10-10 10Zm-2.45-13.19V34.8c.46-.31.58-.93.27-1.39 -.31-.47-.93-.59-1.39-.28h0c-.91.66-1.45 1.71-1.45 2.83h-.001c.11.97.53 1.88 1.2 2.6v0c.36.4.64.88.8 1.4h0c0 .45-.21.88-.56 1.16h0c-.47.3-.59.92-.28 1.38 .3.46.92.58 1.38.27v0c.9-.67 1.44-1.72 1.44-2.84v0c-.12-.98-.54-1.89-1.2-2.61h-.001c-.37-.41-.65-.89-.8-1.41h-.001c-.01-.46.2-.89.55-1.17Zm6 0h-.001c.45-.31.58-.93.27-1.39 -.31-.46-.93-.59-1.39-.28v0c-.91.65-1.45 1.71-1.45 2.83v0c.11.97.53 1.88 1.2 2.6l-.001-.001c.36.4.64.88.8 1.4v0c0 .45-.21.88-.56 1.16v0c-.46.3-.59.92-.28 1.38 .3.45.92.58 1.38.27h-.001c.9-.67 1.44-1.72 1.44-2.84v0c-.12-.98-.54-1.89-1.2-2.61v0c-.37-.41-.65-.89-.8-1.41v0c-.01-.46.2-.89.55-1.17ZM47.99 20h-32v0c-.56 0-1-.45-1-1v-9 0c0-1.11.89-2 2-2h30v0c1.1 0 2 .89 2 2v9 0c0 .55-.45 1-1 1Zm-7-9v0c-1.66 0-3 1.34-3 3 0 1.65 1.34 3 3 3 1.65 0 3-1.35 3-3v0c0-1.66-1.35-3-3-3Z" fill="#D3D3D3"/>
</svg>