<svg xmlns="http://www.w3.org/2000/svg" viewBox="0 0 64 64">
  <path fill-rule="evenodd" d="M25.01 56.02h-.001c-1.83-.01-3.64-.33-5.35-.95v-.001c-.53-.19-.8-.76-.62-1.29 .01-.05.03-.09.05-.13l0 0c4.79-8.9 10.07-17.53 15.81-25.86l0 0c.16-.23.1-.55-.13-.71 -.19-.13-.44-.13-.61.02 -8.96 7.6-15.628 17.3-19.18 23.38v0c-.27.46-.87.62-1.34.35 -.11-.07-.2-.15-.28-.24h-.001c-2.21-2.73-3.41-6.12-3.4-9.62 0-23.66 27.75-31.17 38.828-33.01V7.95c.72-.12 1.42.3 1.64 1 .59 1.79 1.52 5.9 1.52 13 0 18.5-11.51 34-27 34Z" fill="#D3D3D3"/>
</svg>