<svg xmlns="http://www.w3.org/2000/svg" viewBox="0 0 64 64">
  <path fill-rule="evenodd" d="M24.008 20.98c0 3.18 1.24 5.14 2.69 7.43 1.55 2.45 3.31 5.22 3.31 9.56h0c.01 5.53-4.47 10.03-10 10.04 -5.54.01-10.04-4.47-10.05-10 -.02-5.54 4.46-10.04 9.99-10.05 .64-.01 1.29.06 1.93.18v0c-1.25-2.2-1.9-4.67-1.89-7.19v0c0-7.18 5.82-13 13-13 7.17 0 13 5.82 13 13 0 4.99-1.6 9.17-3.14 13.21 -1.48 3.87-2.87 7.53-2.87 11.78v0c0 3.31 2.68 6 6 6 3.31 0 6-2.69 6-6v0c0-1.11.89-2 2-2 1.1 0 2 .89 2 2v0c0 5.52-4.48 10-10 10 -5.53 0-10-4.48-10-10 0-5 1.59-9.18 3.13-13.22 1.47-3.88 2.86-7.54 2.86-11.79v0 0c0-4.98-4.03-9-9-9 -4.98 0-9 4.02-9 9Zm-10 17v0c0 3.31 2.68 6 6 6 3.31 0 6-2.69 6-6 0-3.32-2.69-6-6-6v0c-3.32 0-6 2.68-6 6Z" fill="#D3D3D3"/>
</svg>