<svg xmlns="http://www.w3.org/2000/svg" viewBox="0 0 64 64">
  <path fill-rule="evenodd" d="M44 25.98v0c0-6.63-5.37-12.01-11.99-12.02 -6.63-.01-12.01 5.36-12.02 11.98 -.01 4.43 2.44 8.51 6.35 10.6h0c1.02.55 1.65 1.63 1.64 2.79v0 0c-.01 1.45-1.18 2.62-2.63 2.62H9.97v0c-1.11 0-2-.9-2-2 0-1.11.89-2 2-2h11.442l0 0c-6.64-5.84-7.3-15.95-1.47-22.59 5.83-6.64 15.94-7.3 22.58-1.47 6.63 5.83 7.29 15.94 1.46 22.58 -.46.51-.95 1-1.47 1.46h11.44v0c1.1 0 2 .89 2 2 0 1.1-.9 2-2 2H38.57v0c-1.46 0-2.63-1.18-2.63-2.63 -.01-.01-.01-.01-.01-.01v0h-.001c-.01-1.17.62-2.24 1.64-2.8v0c3.91-2.08 6.35-6.15 6.35-10.58Zm-34 24h44v0c1.1 0 2 .89 2 2 0 1.1-.9 2-2 2H10v0c-1.11 0-2-.9-2-2 0-1.11.89-2 2-2Z" fill="#D3D3D3"/>
</svg>