<svg xmlns="http://www.w3.org/2000/svg" viewBox="0 0 64 64">
  <path fill-rule="evenodd" d="M30.97 6.31l0-.001c.63-.4 1.44-.4 2.08 0l22.23 13.57 -.001-.001c.44.27.72.76.72 1.28v1.84 0c-.01.55-.45 1-1.01 1 -.01-.01-.01-.01-.01-.01h-3v0c-.56 0-1 .44-1 1v18.18 0c0 .34.18.67.47.85l3.79 2.31v0c.44.27.72.76.72 1.28v3.34 0c-.01.55-.45 1-1.01 1h-46v0c-.56 0-1-.45-1-1v-3.36l0-.001c0-.53.27-1.02.72-1.29l3.8-2.33v0c.29-.19.47-.51.47-.86V24.91v0c0-.56-.45-1-1-1h-3v0c-.56 0-1-.45-1-1v-1.86 0c0-.53.27-1.01.72-1.29Zm9.04 36.7v0c0 .55.44 1 1 1h4v0c.55 0 1-.45 1-1V25.02v0c0-.56-.45-1-1-1h-4v0c-.56 0-1 .44-1 1Zm-11 0v0c0 .55.44 1 1 1h4v0c.55 0 1-.45 1-1V25.02v0c0-.56-.45-1-1-1h-4v0c-.56 0-1 .44-1 1Zm3-24v0c1.65-.01 2.99-1.35 2.99-3 -.01-1.66-1.35-3-3-3 -1.66 0-3 1.34-3 2.99v0c0 1.65 1.34 2.99 2.99 2.99ZM18.01 43v0c0 .55.44 1 1 1h4v0c.55 0 1-.45 1-1V25.01v0c0-.56-.45-1-1-1h-4v0c-.56 0-1 .44-1 1Z" fill="#D3D3D3"/>
</svg>