<svg xmlns="http://www.w3.org/2000/svg" viewBox="0 0 64 64">
  <path fill-rule="evenodd" d="M24 34.01l0 0c-2.66 0-5.2-1.06-7.08-2.93l-4.01-4.01h0C9 23.16 9 16.82 12.9 12.92c3.9-3.91 10.24-3.91 14.14-.01l4 4v-.001c3.08 3.09 3.81 7.82 1.79 11.7l2.5 2.5V31.1c3.87-2.02 8.61-1.3 11.7 1.79l4 4v0c3.9 3.9 3.9 10.24 0 14.14 -3.91 3.9-10.25 3.9-14.15 0l-4.01-4.01v0c-3.09-3.1-3.82-7.83-1.8-11.71l-2.51-2.51h0c-1.43.74-3.02 1.13-4.63 1.13Zm12.46 9.54l4 4v0c1.95 1.94 5.12 1.93 7.07-.03 1.93-1.96 1.93-5.1-.01-7.05l-4.01-4.01v-.001c-1.12-1.11-2.68-1.63-4.23-1.4l3.81 3.81v0c1.17 1.16 1.18 3.06.02 4.24 -1.17 1.17-3.07 1.18-4.25.02 -.01-.01-.02-.02-.03-.03l-3.82-3.82v0c-.23 1.55.29 3.11 1.39 4.22Zm-8.94-23.09l-4.01-4.01v0c-1.96-1.96-5.13-1.96-7.08 0 -1.96 1.95-1.96 5.12 0 7.07 0 0 0 0 0 0l4 4v0c1.08 1.13 2.67 1.66 4.22 1.39l-3.82-3.82v0c-1.18-1.18-1.18-3.08-.01-4.25 1.17-1.18 3.07-1.18 4.24-.01l3.81 3.81v0c.22-1.56-.3-3.12-1.4-4.23Z" fill="#D3D3D3"/>
</svg>