<svg xmlns="http://www.w3.org/2000/svg" viewBox="0 0 64 64">
  <path fill-rule="evenodd" d="M44.01 28.02h1v-.001c2.29.09 4.08 2.03 4 4.33v17.33 0c.08 2.29-1.71 4.23-4 4.33h-26v0c-2.3-.1-4.09-2.04-4-4.34V32.32h0c-.09-2.3 1.7-4.24 4-4.34h1v-7.01c0-4.04.84-6.38 2.72-8.262 1.88-1.89 4.22-2.73 8.25-2.73H33c4.02 0 6.37.84 8.25 2.73 1.88 1.88 2.72 4.23 2.72 8.262Zm-4-7.01c0-2.57-.54-4.06-1.74-5.26 -1.2-1.2-2.7-1.74-5.26-1.74h-2.02c-2.57 0-4.06.53-5.26 1.73 -1.2 1.19-1.74 2.69-1.74 5.25v7h16Z" fill="#D3D3D3"/>
</svg>