<svg xmlns="http://www.w3.org/2000/svg" viewBox="0 0 64 64">
  <path fill-rule="evenodd" d="M47 22c4 0 2.41 5 6 5 2.95 0 5-2.08 5-7 0-4.55-1.07-6-4-6 -1.37 0-2.12 1-4 1 -2.15 0-3-.95-3-4 0-1.99-.85-2.99-3.04-2.99 -6.3 0-2.62 4.66-7.98 10.07 0 0-14.48 14.56-19.91 19.91s-12.1.71-12.1 6.96c0 2.77 1.31 3.98 4.03 3.98h1.51c1.09 0 1.51.41 1.51 1.5v1.5c0 2.71 1.2 4.02 3.98 4.02 6.26 0 1.61-6.66 6.97-12.08 0 0 8.56-8.56 13.989-13.92 1.38-1.39 2.2-2 4-2 2.95 0 4-1.02 4-3v0c-.21-1.46.8-2.8 2.25-3.01 .24-.04.49-.04.74-.01Z" fill="#D3D3D3"/>
</svg>