<svg xmlns="http://www.w3.org/2000/svg" viewBox="0 0 64 64">
  <path fill-rule="evenodd" d="M53.31 22.84v-.001c-.42 1.05-.44 2.22-.04 3.28v-.001c1.68 4.43 2.59 9.12 2.7 13.86 0 12.68-4.03 16-9 16s-9-3.32-9-16v-1.79l-2.11 7.59 -.02-.01v0c-.42 1.59-2.05 2.55-3.65 2.13 -1.6-.42-2.56-2.05-2.14-3.65 0-.04.01-.07.02-.1l-.02-.01 4.57-16.47v0c.51-1.84.4-3.8-.31-5.56l-.32-.8v0c-.21-.52.04-1.1.55-1.3 .11-.05.24-.08.37-.08H52.9v0c.55 0 .99.44.99 1 -.01.12-.03.25-.08.37Zm-32.42 31l-.84 7.48v0c-.05.37-.37.66-.75.66h-.66v-.001c-.39-.01-.71-.29-.75-.67l-.83-7.43 -9.07-32.64h0c-.15-.54.16-1.09.69-1.24 .08-.03.17-.04.25-.04v0c.61 0 1.2.24 1.64.67h-.001c1.89 1.76 4.83 1.76 6.72-.01v0c.9-.9 2.35-.9 3.25 0v0c1.89 1.76 4.82 1.77 6.72 0v0c.44-.43 1.02-.67 1.63-.68h.01 0c.55 0 .99.44.99.99 -.01.09-.02.18-.04.26Zm6.09-40.85v0c-1.11-.01-2-.9-2-2v-3h-.001c.02-1.11-.86-2.02-1.96-2.05 -1.11-.03-2.02.85-2.05 1.95 -.01.02-.01.05 0 .08v9 0c0 .55-.45 1-1 1h-2v0c-.56 0-1-.45-1-1v-9 0c0-3.32 2.68-6 5.99-6s5.99 2.68 5.99 5.99v3 0c0 1.1-.9 1.99-2 2Z" fill="#D3D3D3"/>
</svg>