<svg xmlns="http://www.w3.org/2000/svg" viewBox="0 0 64 64">
  <path fill-rule="evenodd" d="M56.01 40.81v1.18 0c0 1.1-.9 2-2.01 2 -.01 0-.01 0-.01 0v4 -.001c-.02.57-.5 1.01-1.07 1h-1.53v-.001c-.37 0-.72-.18-.92-.49l-2.58-4.04v0c-.21-.31-.55-.49-.92-.49H25.53v0c-.36-.01-.68.18-.86.48l-2.42 4.03v0c-.19.3-.51.48-.86.48h-1.44v0c-.56 0-1-.45-1-1v-4.01 0c-1.18-.01-2.2-.79-2.52-1.92 -1.67-5.92-3.45-10.56-5.49-13.1v0c-2.77-.01-5.01-2.25-5.01-5.01 0-.27.02-.53.06-.79H5.98c.49-2.34 2.48-4.07 4.86-4.22 4.85-.09 7.25 7.06 9.639 14.6v0c.26.83 1.03 1.39 1.9 1.39h32.39 0c1.59-.04 2.95 1.15 3.14 2.74v0c.11 1.35-.71 2.62-1.99 3.07ZM15.14 18.46l0-.001c-.22-.18-.25-.49-.08-.7 .04-.06.09-.1.15-.13v0c1.77-.99 3.75-1.55 5.77-1.65 7.92 0 13.1 10 25 10 4.74 0 8.63 2.85 8.97 6.47v0c.01.27-.19.5-.47.52 -.02 0-.03 0-.04 0H22.79v0c-.22-.01-.42-.15-.48-.35 -1.85-5.82-3.82-11.57-7.22-14.19Z" fill="#D3D3D3"/>
</svg>