<svg xmlns="http://www.w3.org/2000/svg" viewBox="0 0 64 64">
  <path fill-rule="evenodd" d="M54 48H13v0c-2.77 0-5-2.24-5-5V15v0c0-.56-.45-1-1-1H6v0c-1.11 0-2-.9-2-2 0-1.11.89-2 2-2h1v0c2.76 0 5 2.23 5 5v28 0c0 .55.44 1 1 1h41v0c1.1 0 2 .89 2 2 0 1.1-.9 2-2 2Zm-3-6h-2v0c-.56 0-1-.45-1-1V19v0c0-.56.44-1 1-1h2v0c1.65 0 3 1.34 3 3v18 0c0 1.65-1.35 3-3 3Zm-6 0H25v0c-.56 0-1-.45-1-1V19v0c0-.56.44-1 1-1h1v-3 0c0-2.77 2.23-5 5-5h8v0c2.76 0 5 2.23 5 5v3h1v0c.55 0 1 .44 1 1v22 0c0 .55-.45 1-1 1Zm-5-27v0c0-.56-.45-1-1-1h-8v0c-.56 0-1 .44-1 1v3h10ZM21 42h-2v0c-1.66 0-3-1.35-3-3V21v0c0-1.66 1.34-3 3-3h2v0c.55 0 1 .44 1 1v22 0c0 .55-.45 1-1 1Zm-5 8v0c2.2 0 4 1.79 4 4 0 2.2-1.8 4-4 4 -2.21 0-4-1.8-4-4v0c0-2.21 1.79-4 4-4Zm32 0v0c2.2 0 4 1.79 4 4 0 2.2-1.8 4-4 4 -2.21 0-4-1.8-4-4v0c0-2.21 1.79-4 4-4Z" fill="#D3D3D3"/>
</svg>