<svg xmlns="http://www.w3.org/2000/svg" viewBox="0 0 64 64">
  <path fill-rule="evenodd" d="M52 54c-7.13 0-14.01-5.75-14.01-16v-.01 0c-.01-1.13-.45-2.2-1.24-3l-4.07-4.08 0 0c-.38-.39-1-.39-1.39-.01 -.01 0-.01 0-.01 0l-4.07 4.07h0c-.8.79-1.24 1.87-1.24 2.99v0c-.001 10.24-6.88 15.99-14.01 15.99 -2.75 0-4-1.26-4-4 0-26.21 9.5-32 17-32v0c.54.02.97.45 1 1v10.68 0c-.01.2.16.37.36.37 .09 0 .19-.04.26-.11l1.61-1.62v0c1.12-1.13 1.75-2.65 1.75-4.24v-10.1c0-4.75-1-5.125-1-6.5 0-.62.46-1.5 3-1.5 2.53 0 3 .88 3 1.5 0 1.375-1 1.75-1 6.5v10.09h0c-.01 1.58.63 3.11 1.75 4.23l1.61 1.61v0c.14.14.37.14.52 0 .06-.07.1-.17.1-.27V18.9v0c.02-.55.45-.98 1-1 7.5 0 16.99 5.79 17 32 0 2.74-1.25 4-4 4Z" fill="#D3D3D3"/>
</svg>