<svg xmlns="http://www.w3.org/2000/svg" viewBox="0 0 32 32">
  <path fill-rule="evenodd" d="M47 56H17h-.01c-1.66-.01-3-1.35-3-3 0 0 0 0 0 0V19l0 0c-.01-1.66 1.34-3 3-3h30l-.01 0c1.65-.01 3 1.34 3 3v34 0c0 1.65-1.35 3-3 3Zm-3-29v0c0-1.11-.9-2-2-2h-8v-3 0c0-1.11-.9-2-2-2 -1.11 0-2 .89-2 2v3h-8l-.01 0c-1.11 0-2 .89-2 2 0 0 0 0 0 0v12l0 0c0 1.1.89 2 2 2 1.1-.01 2-.9 2-2h6v11l0 0c0 1.1.89 2 2 2 1.1-.01 2-.9 2-2V39h6l0 0c0 1.1.89 2 2 2 1.1-.01 2-.9 2-2Zm-10 2h6v6h-6Zm-10 0h6v6h-6Zm23-15H17l-.01-.001c-1.66-.01-3-1.35-3-3 0-1.66 1.34-3 3-3h30l-.01 0c1.65-.01 3 1.34 3 3 0 1.65-1.35 3-3 3Z" transform="scale(0.5,0.5)" fill="#D3D3D3"/>
</svg>