<svg xmlns="http://www.w3.org/2000/svg" viewBox="0 0 64 64">
  <path fill-rule="evenodd" d="M52.38 23.65L46 26.59h-.001c-1.65.75-3.59.41-4.87-.87l-2.91-2.9v0c-1.28-1.28-1.63-3.22-.87-4.86l2.94-6.37v0c1.01-2.21 3.22-3.61 5.64-3.607v0c2.61.17 5.09 1.22 7.03 2.99v0c1.77 1.92 2.82 4.4 3 7.01h0c-.01 2.42-1.42 4.62-3.62 5.63Zm-11.96 6.78l-8.2 7.37v-.001c-.32.28-.79.26-1.09-.03l-4.93-4.93h0c-.3-.3-.31-.78-.03-1.09l7.37-8.2v0c.64-.72 1.73-.77 2.44-.13 .02.02.04.04.06.06l4.4 4.4h0c.67.67.67 1.77 0 2.45 -.03.02-.05.04-.07.06Zm-10.58 9.5L12.81 55.25h0c-1.19 1.06-3.02.97-4.09-.22 -.99-1.1-.99-2.77 0-3.87l15.32-17.03v0c.16-.19.45-.21.63-.04 0 0 .01.01.01.01l5.14 5.14v0c.17.17.17.46-.01.63 -.01 0-.02.01-.02.01Z" fill="#D3D3D3"/>
</svg>