<svg xmlns="http://www.w3.org/2000/svg" viewBox="0 0 64 64">
  <path fill-rule="evenodd" d="M51 54H13v0c-.56 0-1-.45-1-1v-2 0c0-.56.44-1 1-1h.5v0c.27 0 .5-.23.5-.5V36v0c0-1.11.89-2 2-2h1.5v0c.27 0 .5-.23.5-.5V26v0c0-1.11.89-2 2-2h1.5v0c.27 0 .5-.23.5-.5V18v0c0-1.11.89-2 2-2h.5v0c.27 0 .5-.23.5-.5v-2.52 0c0-.66.08-1.31.23-1.94l.51-2.08v0c.14-.58.65-.98 1.24-.97v0 0c.58 0 1.09.39 1.24.97l.63 2.54v0c.07.28.32.48.62.48v0h-.001c.29-.01.55-.21.62-.49l.63-2.55v0c.14-.58.65-.98 1.24-.97v0 0c.58 0 1.09.39 1.24.97l.63 2.54v0c.07.28.32.48.62.48v0 0c.29 0 .55-.2.62-.49l.63-2.55V8.91c.14-.58.65-.98 1.24-.97v0V7.94c.58-.01 1.1.39 1.24.97l.51 2.07h0c.15.63.23 1.28.23 1.94v2.51 0c0 .27.22.5.5.5h.5v0c1.1 0 2 .89 2 2v5.5 0c0 .27.22.5.5.5h1.5v0c1.1 0 2 .89 2 2v7.5 0c0 .27.22.5.5.5h1.5v0c1.1 0 2 .89 2 2v13.5 0c0 .27.22.5.5.5h.5v0c.55 0 1 .44 1 1v2 0c0 .55-.45 1-1 1ZM26 42v7.5 0c0 .27.22.5.5.5h11v0c.27 0 .5-.23.5-.5V42v0c0-3.32-2.69-6-6-6 -3.32 0-6 2.68-6 6Z" fill="#D3D3D3"/>
</svg>