<svg xmlns="http://www.w3.org/2000/svg" viewBox="0 0 64 64">
  <path fill-rule="evenodd" d="M55 48H37v0c-.56 0-1-.45-1-1v-2 0c0-.56.44-1 1-1h18v0c.55 0 1 .44 1 1v2 0c0 .55-.45 1-1 1Zm-6-10v0c0 1.65-1.35 3-3 3 -1.66 0-3-1.35-3-3 0-1.66 1.34-3 3-3v0c1.65 0 3 1.34 3 3Zm6-18H37v0c-.56 0-1-.45-1-1v-2 0c0-.56.44-1 1-1h18v0c.55 0 1 .44 1 1v2 0c0 .55-.45 1-1 1Zm-28 0h-7v7 0c0 .55-.45 1-1 1h-2v0c-.56 0-1-.45-1-1v-7H9v0c-.56 0-1-.45-1-1v-2 0c0-.56.44-1 1-1h7V9v0c0-.56.44-1 1-1h2v0c.55 0 1 .44 1 1v7h7v0c.55 0 1 .44 1 1v2 0c0 .55-.45 1-1 1ZM9.28 38.69l1.41-1.42h0c.38-.39 1.02-.39 1.41 0l5.89 5.89 5.89-5.9h0c.38-.39 1.02-.39 1.41-.01 0 0 0 0 0 0l1.41 1.41v-.001c.38.38.38 1.02 0 1.41 -.01 0-.01 0-.01 0l-5.9 5.89 5.89 5.89h0c.38.38.38 1.02 0 1.41 -.01 0-.01 0-.01 0l-1.42 1.41h-.001c-.39.38-1.03.38-1.42 0 -.01-.01-.01-.01-.01-.01l-5.9-5.9 -5.9 5.89h-.001c-.39.38-1.03.38-1.42 0l-1.42-1.42v0c-.39-.39-.39-1.03-.01-1.42 0-.01 0-.01 0-.01l5.89-5.9 -5.9-5.9v0c-.39-.39-.39-1.03-.01-1.42 0-.01 0-.01 0-.01Zm36.71 12.3v0c1.65 0 3 1.34 3 3 0 1.65-1.35 3-3 3 -1.66 0-3-1.35-3-3v0c0-1.66 1.34-3 3-3Z" fill="#D3D3D3"/>
</svg>