<svg xmlns="http://www.w3.org/2000/svg" viewBox="0 0 64 64">
  <path fill-rule="evenodd" d="M31.01 56.02c-3.98 0-10-1.99-10-8 0-17.95-11-18.93-11-27 0-6.04 3.87-11 11-11 3.9 0 4.95 2 8 2 3.04 0 4.05-4 11-4 9 0 14 5.13 14 13 0 10.95-14.86 35-23 35Zm9-44c-5.42 0-8.59 4-11 4 -2.26 0-4.53-2-8-2 -4.25 0-6 2.6-6 4v0c-.05.51.34.95.85 1 .04 0 .09 0 .14 0 1.03 0 2.18-1 5-1 4.44 0 8 3 8 12 0 9.94-2 16.01-2 19v0c-.03.52.37.97.89 1 .03 0 .06 0 .1 0 2.08 0 5-8.02 5-20 0-10.01 1.83-14 8-14 2.43 0 5.07 1 6 1v0c.5.05.94-.32 1-.82 0-.07 0-.13 0-.19 0-1.69-3.59-4-8-4Z" fill="#D3D3D3"/>
</svg>