<svg xmlns="http://www.w3.org/2000/svg" viewBox="0 0 64 64">
  <path fill-rule="evenodd" d="M46 16H18v0c-.56 0-1-.45-1-1v-4 0c0-.56.44-1 1-1h3V7v0c0-.56.44-1 1-1h20v0c.55 0 1 .44 1 1v3h3v0c.55 0 1 .44 1 1v4 0c0 .55-.45 1-1 1Zm-25 2h22v0c.55 0 1 .44 1 1v4 0c0 .55-.45 1-1 1H21v0c-.56 0-1-.45-1-1v-4 0c0-.56.44-1 1-1Zm0 8h22v0c.55 0 1 .44 1 1v22 0c0 .55-.45 1-1 1H21v0c-.56 0-1-.45-1-1V27v0c0-.56.44-1 1-1Zm0 26h22v0c.55 0 1 .44 1 1v2 0c0 1.65-1.35 3-3 3H23v0c-1.66 0-3-1.35-3-3v-2 0c0-.56.44-1 1-1Z" fill="#D3D3D3"/>
</svg>