<svg xmlns="http://www.w3.org/2000/svg" viewBox="0 0 64 64">
  <path fill-rule="evenodd" d="M58 45h-8v0c-.56 0-1-.45-1-1v-7l-1.27 1.26h0c-.47.46-1.11.73-1.77.73h-4.3v0c-.38 0-.67-.3-.67-.67v-.75 0c-.01-.35.23-.65.56-.73l3.43-.86 4.1-5.75v0c.56-.79 1.47-1.26 2.44-1.26h3.45v0c2.2 0 4 1.79 4 4v11 0c0 .55-.45 1-1 1Zm-4-18v0c-2.77 0-5-2.24-5-5 0-2.77 2.23-5 5-5 2.76 0 5 2.23 5 5v0c0 2.76-2.24 5-5 5ZM38 39H26v0c-.56 0-1-.45-1-1v-5 0c0-2.21 1.79-4 4-4h6v0c2.2 0 4 1.79 4 4v5 0c0 .55-.45 1-1 1Zm-6-12v0c-2.77 0-5-2.24-5-5 0-2.77 2.23-5 5-5 2.76 0 5 2.23 5 5v0c0 2.76-2.24 5-5 5Zm-9.67 12h-4.3v0c-.67-.01-1.3-.27-1.77-.74l-1.27-1.27v7 0c0 .55-.45 1-1 1h-8v0c-.56 0-1-.45-1-1v-11 0c0-2.21 1.79-4 4-4h3.45v0c.96-.01 1.87.46 2.44 1.25l4.1 5.74 3.43.85v0c.33.08.56.38.56.72v.74 0c0 .37-.3.67-.67.67ZM10 27v0c-2.77 0-5-2.24-5-5 0-2.77 2.23-5 5-5 2.76 0 5 2.23 5 5v0c0 2.76-2.24 5-5 5Zm10 14h24v0c.55 0 1 .44 1 1v2 0c0 .55-.45 1-1 1H20v0c-.56 0-1-.45-1-1v-2 0c0-.56.44-1 1-1Z" fill="#D3D3D3"/>
</svg>