<svg xmlns="http://www.w3.org/2000/svg" viewBox="0 0 64 64">
  <path fill-rule="evenodd" d="M51.87 30.62v-.001c-1.22 1.19-2.52 2.3-3.89 3.31v0c-.77.56-1.1 1.55-.83 2.46l.84 2.92v0c.24.85 0 1.77-.63 2.39l-5.64 5.61h0c-.64.62-1.56.86-2.41.62l-2.93-.84v0c-.92-.27-1.9.06-2.47.82H33.9c-1.02 1.37-2.13 2.66-3.33 3.88v0c-4.83 5.05-12.74 5.51-18.12 1.04v0c-5.45-4.69-6.06-12.9-1.37-18.34 .21-.25.43-.49.66-.72l0-.001c1.32-1.34 2.75-2.58 4.27-3.7v0c.76-.57 1.09-1.56.83-2.47l-.85-2.94v0c-.25-.86-.01-1.78.62-2.4l5.64-5.62h0c.63-.63 1.55-.87 2.4-.63l2.93.83h0c.91.26 1.89-.07 2.47-.84l-.001 0c1.12-1.52 2.37-2.96 3.71-4.29v0c5.09-5.09 13.35-5.09 18.44.01 .21.21.43.44.63.68v-.001c4.47 5.36 4.01 13.28-1.06 18.09Zm-2.436-15.97l0 0c-3.53-3.53-9.24-3.53-12.76-.001 -4.76 4.75-5.14 7.51-9.83 12.2 -4.7 4.68-7.47 5.06-12.22 9.81v0c-3.52 3.53-3.5 9.23.03 12.74 3.51 3.49 9.2 3.49 12.71-.01 4.75-4.753 5.13-7.52 9.82-12.21 4.69-4.69 7.46-5.07 12.21-9.82v0c3.51-3.52 3.51-9.23 0-12.75ZM35.794 35.8c-4.87 4.85-5.25 7.62-9.83 12.19h-.001c-2.74 2.73-7.18 2.74-9.92 0s-2.75-7.18-.01-9.92c4.57-4.58 7.35-4.96 12.21-9.81 4.86-4.86 5.24-7.63 9.82-12.2h-.001c2.72-2.76 7.16-2.78 9.91-.05 2.75 2.72 2.77 7.16.04 9.91 -.02.01-.03.02-.04.03 -4.58 4.57-7.36 4.95-12.22 9.81Z" fill="#D3D3D3"/>
</svg>