<svg xmlns="http://www.w3.org/2000/svg" viewBox="0 0 64 64">
  <path fill-rule="evenodd" d="M35.77 31.95l5.31 5.31c1.88 1.88 4.92 6.39 4.92 9.07v5.68 0c0 1.1-.9 2-2 2 -1.11 0-2-.9-2-2v-5.69 0c0-1.6-.63-3.12-1.76-4.25l-7.32-7.32h-.001c-.34-.35-.65-.71-.93-1.09v0c-.29.38-.6.74-.93 1.08l-7.32 7.31v0c-1.13 1.12-1.77 2.65-1.76 4.24v5.68 0c0 1.1-.9 2-2 2 -1.11 0-2-.9-2-2v-5.69c0-2.68 3.04-7.19 4.92-9.07l5.31-5.32 0-.001c1.12-1.13 1.76-2.66 1.75-4.25v-5.68h-5v-.001c-.57-.02-1.02-.48-1.01-1.05 0-.21.06-.41.18-.58l6.98-9.98v0c.31-.46.93-.57 1.38-.26 .09.06.18.15.25.25l6.98 9.97v-.001c.32.46.22 1.1-.25 1.43 -.17.11-.37.18-.58.18h-4.99v5.67 0c-.01 1.59.62 3.11 1.75 4.24Z" fill="#D3D3D3"/>
</svg>