<svg xmlns="http://www.w3.org/2000/svg" viewBox="0 0 64 64">
  <path fill-rule="evenodd" d="M49.34 21.47L34.81 35.99h5.91v0c.2 0 .37-.17.37-.37 0-.03-.01-.05-.01-.08l-.39-1.95v0c-.07-.33.03-.67.27-.91l2.53-2.54v0c.14-.15.37-.15.52-.01 .05.05.08.11.1.18l3.85 19.25h0c.21 1.08-.49 2.13-1.57 2.35 -.13.02-.27.03-.4.03h-.39 0c-.38 0-.73.21-.9.55l-.45.89v0c-.17.33-.52.55-.9.55h-2.77 -.001c-.38-.01-.73-.22-.9-.56l-.45-.9v0c-.17-.34-.52-.56-.9-.56H25.54v-.001c-.38-.01-.73.21-.9.55l-.45.89v0c-.17.33-.52.55-.9.55h-2.77l-.001 0c-.38 0-.73-.22-.9-.56l-.45-.9v0c-.17-.34-.52-.56-.9-.56h-.39v0c-1.11 0-2.01-.9-2.01-2.01 -.01-.14.01-.27.03-.4l7.92-39.6v0c.23-1.17 1.26-2.01 2.45-2.01h11.19v0c1.19-.01 2.21.84 2.45 2.01l1.94 9.71v0c.06.32-.04.66-.28.9L39.03 23v0c-.15.14-.38.14-.53 0 -.06-.06-.09-.12-.11-.19l-2.12-10.57 0-.001c-.05-.24-.26-.41-.5-.41h-7.91 0c-.24 0-.45.16-.5.4l-4.64 23.15v0c-.05.2.08.39.29.43 .02 0 .04 0 .07 0h5.84l17.43-17.43v0c.78-.79 2.05-.79 2.83 0 .07.07.15.16.21.25v-.001c.55.83.43 1.95-.3 2.65Z" fill="#D3D3D3"/>
</svg>