<svg xmlns="http://www.w3.org/2000/svg" viewBox="0 0 64 64">
  <path fill-rule="evenodd" d="M38.91 33.28v0c.23.23.6.23.84 0 .09-.1.15-.22.16-.35h-.001c.03-.32.05-.63.05-.95v-16 0c.01-4.42-3.56-8.01-7.97-8.03 -4.42-.02-8.01 3.55-8.03 7.96 -.01.01-.01.03 0 .05v1.53 0c-.01.53.21 1.03.58 1.41Zm14.51 17.29L13.4 10.53v0c-.79-.79-2.05-.79-2.84 0 -.79.78-.79 2.04 0 2.83l40.01 40.03h0c.78.78 2.04.78 2.83-.01 .78-.79.78-2.05-.01-2.84ZM32.88 39.93v-.001c.32-.04.56-.34.52-.67 -.02-.14-.08-.26-.17-.36l-8.25-8.25v0c-.24-.24-.61-.24-.85 0 -.12.11-.18.26-.18.41v.89 0c-.01 4.41 3.57 7.99 7.99 8 0 0 0 0 0 0v0c.3-.01.6-.02.9-.06Zm12.39-.29h0c.19.19.5.19.7 0 .03-.04.06-.08.08-.12v0c1.24-2.32 1.9-4.92 1.9-7.55v-4 0c0-1.11-.89-2.01-1.99-2.02 -1.11-.01-2.01.88-2.02 1.98 -.01 0-.01.01 0 .02v4h-.001c-.01 1.61-.33 3.21-.97 4.69v0c-.13.28-.07.61.15.83Zm-3.31 12.34h-8v-4.14 0c1.93-.25 3.8-.85 5.52-1.78v0c.24-.14.32-.44.19-.68 -.03-.05-.06-.08-.09-.12l-2.12-2.12v-.001c-.23-.22-.56-.28-.84-.16v0c-2.03.86-4.25 1.15-6.43.83h-.001c-5.95-.96-10.31-6.12-10.26-12.14v-3.74 0c0-1.11-.9-2-2-2 -1.11 0-2 .89-2 1.99v4h-.001c0 8.05 5.99 14.85 13.99 15.86v4.13h-8v0c-1.11 0-2 .89-2 2 0 1.1.89 2 2 2H41.9v0c1.1 0 2-.9 2-2 0-1.11-.9-2-2-2Z" fill="#D3D3D3"/>
</svg>