<svg xmlns="http://www.w3.org/2000/svg" viewBox="0 0 64 64">
  <path fill-rule="evenodd" d="M46.99 57.99H12.98v0c-.55 0-.99-.44-1-.98V57c-.01-1.19.79-2.22 1.94-2.51l13.3-3.33v0c.44-.12.75-.52.75-.97v-1.44 0c-.01-.46-.32-.86-.76-.97l-9.31-2.33v0c-1.15-.29-1.96-1.33-1.95-2.51v0c.01-.55.45-.99 1-.98H37v-.001c1.46.01 2.81-.78 3.5-2.07v0c1.37-2.67 1.78-5.73 1.15-8.66h0c-.15-.68-.63-1.23-1.28-1.46l-4.95-1.8 -1.97 5.34v0c-.39 1.03-1.54 1.56-2.58 1.18l-1.03 2.8h-.001c-.19.51-.77.78-1.28.59l-3.79-1.37 -.001 0c-.52-.19-.78-.76-.6-1.27 0-.01 0-.01 0-.01l1.02-2.8v0c-1.04-.37-1.58-1.5-1.21-2.53 0-.01 0-.02 0-.02l5.82-15.87v0c.38-1.04 1.53-1.57 2.57-1.19l3.76-10.26 0 0c.19-.52.76-.79 1.28-.61l3.77 1.35 -.001-.001c.51.18.78.75.6 1.27 -.01 0-.01 0-.01 0l-3.77 10.25h0c1.03.36 1.57 1.49 1.2 2.52 -.01 0-.01.01-.01.01l-.19.49v0c8.83 5.55 11.48 17.21 5.93 26.05 -.23.35-.47.7-.72 1.04h0c-.23.3-.26.69-.1 1.03l4.48 8.97v0c.49.98.09 2.18-.9 2.68 -.28.13-.59.21-.9.21Z" fill="#D3D3D3"/>
</svg>