<svg xmlns="http://www.w3.org/2000/svg" viewBox="0 0 64 64">
  <path fill-rule="evenodd" d="M54 22v0c-.01 11.03-8.18 20.35-19.12 21.8v0c-.51.05-.89.48-.89.98v3.26h-.001c0 .62.14 1.23.42 1.78l1.3 2.6v0c.16.33.51.55.89.55h8.38v0c.55 0 1 .44 1 1v3 0c0 .55-.45 1-1 1h-26v0c-.56 0-1-.45-1-1v-3 0c0-.56.44-1 1-1h8.38v0c.37-.01.72-.22.89-.56l1.3-2.61v0c.27-.56.42-1.17.42-1.79v-3.27 -.001c-.01-.51-.39-.93-.89-.99h-.001C18.13 42.29 9.95 32.97 9.95 21.93v-1 0c0-.56.44-1 1-1h4.71v0c.24-.01.45-.19.48-.43v0c1.33-8.73 9.48-14.73 18.21-13.4 6.91 1.05 12.33 6.47 13.39 13.39v0c.03.24.24.42.48.42h4.71v0c.55 0 1 .44 1 1ZM32 10v0c-6.63 0-12 5.37-12 12 0 6.62 5.37 12 12 12 6.62 0 12-5.38 12-12v0c0-6.63-5.38-12-12-12Zm16.29 14v0c-.25 0-.46.18-.49.42v0c-1.34 8.72-9.49 14.72-18.22 13.39 -6.92-1.06-12.34-6.48-13.4-13.4v0c-.04-.25-.25-.43-.49-.43h-1.02v0c-.29 0-.51.22-.51.5 0 .02 0 .04 0 .06h-.001c1.41 9.83 10.54 16.66 20.37 15.24 7.89-1.14 14.1-7.35 15.24-15.25v0c.03-.28-.17-.54-.44-.57 -.03-.01-.05-.01-.07-.01Z" fill="#D3D3D3"/>
</svg>