<svg xmlns="http://www.w3.org/2000/svg" viewBox="0 0 64 64">
  <path fill-rule="evenodd" d="M50 51.98v0c-3.32 0-6-2.69-6-6 0-3.32 2.68-6 6-6 3.31 0 6 2.68 6 6v0c0 3.31-2.69 6-6 6Zm0-16v0c-1.11-.01-2.01-.9-2-2.01V26.4v0c0-.38-.22-.73-.56-.9l-13.45-6.73v13.18 0c0 1.1-.9 2-2 2 -1.11 0-2-.9-2-2V18.76l-13.45 6.72v0c-.35.16-.56.51-.56.89v7.56 0c0 1.1-.9 2-2 2 -1.11 0-2-.9-2-2v-7.57 -.001c-.01-1.9 1.06-3.64 2.76-4.48l11.23-5.63v-4.35 0c0-1.11.89-2 2-2h8v0c1.1 0 2 .89 2 2v4.34L49.2 21.86v0c1.69.84 2.77 2.57 2.76 4.47v7.56 0c0 1.1-.9 2-2.01 2 -.01 0-.01 0-.01 0Zm-32.12 5.45h0c.12.11.14.3.02.43 -.06.05-.13.09-.21.1v0c-2.21.15-3.87 2.07-3.71 4.27 .14 1.98 1.72 3.56 3.7 3.7v0c.17.01.29.16.28.33 -.01.07-.05.15-.11.2h-.001c-1.08.94-2.46 1.46-3.9 1.46v0c-3.32-.01-6.01-2.69-6.01-6.01s2.68-6.01 6-6.01v0c1.43 0 2.81.52 3.89 1.46Zm6.81.66l4.55-.65 2.03-4.06v0c.2-.4.69-.56 1.08-.36 .15.07.27.2.35.35l2.03 4.05 4.55.65v0c.43.05.73.44.68.87 -.03.17-.11.34-.24.46l-3.3 3.15 .77 4.45h-.001c.06.43-.23.84-.67.91 -.18.02-.35-.01-.5-.09l-4.07-2.11 -4.07 2.1v0c-.4.2-.88.05-1.09-.34 -.09-.16-.12-.33-.09-.5l.77-4.46 -3.3-3.16h0c-.32-.31-.33-.8-.03-1.12 .12-.13.28-.22.46-.24Z" fill="#D3D3D3"/>
</svg>