<svg xmlns="http://www.w3.org/2000/svg" viewBox="0 0 64 64">
  <path fill-rule="evenodd" d="M51.4 37.94l-2.34 9.44C48.39 50.07 45.6 52 42.37 52h-1.4v0c-.56 0-1-.45-1-1v-5.01 0c0-2.21-1.79-4.01-4-4.01 -.01-.01-.01-.01-.01-.01h-8v0c-2.21-.01-4 1.79-4 4 -.001 0 0 0 0 0v5 0c0 .55-.45 1-1 1h-1.39c-3.23 0-6.02-1.93-6.69-4.63l-2.33-9.44h0c-.72-2.89-.78-5.89-.18-8.8l2.8-13.73h0c.7-2.66 3.02-4.57 5.76-4.77 2.25-.28 4.52-.44 6.8-.54v0c.72-.03 1.38-.45 1.7-1.1l1.06-2.14v0c.27-.55.83-.9 1.44-.9v0h0c.61-.01 1.17.34 1.44.89l1.06 2.13V8.93c.32.64.98 1.07 1.7 1.1 2.27.09 4.54.25 6.8.53v0c2.74.19 5.05 2.11 5.76 4.76l2.8 13.74v0c.59 2.9.53 5.9-.18 8.77Zm-7.42.06v0c1.65 0 3-1.35 3-3 0-1.66-1.35-3.01-3-3.01 -1.66-.01-3.01 1.34-3.01 3 -.01 0-.01 0-.01 0v0c-.01 1.65 1.34 3 2.99 3 0 0 0 0 0 0ZM19.97 38v0c1.65 0 3-1.35 3-3 0-1.66-1.35-3.01-3-3.01 -1.66-.01-3.01 1.34-3.01 3 -.01 0-.01 0-.01 0h-.001c-.01 1.65 1.34 3 2.99 3 0 0 0 0 0 0Zm24.86-21.75v0c-.39-.96-1.3-1.59-2.33-1.61v-.001c-7-.86-14.07-.86-21.07 0v0c-1.03.02-1.94.65-2.33 1.6l-2.13 10.54v0c-.11.54.23 1.06.78 1.17 .06.01.13.01.19.01h28.01v0c.55-.01.99-.45.99-1.01 -.01-.07-.01-.14-.02-.2Zm-16.88 27.73h8v-.001c1.1-.01 2 .89 2 1.99 0 0 0 0 0 0v7.997 0c0 1.1-.9 2-2 2 -.01 0-.01-.01-.01-.01h-8.01v0c-1.11 0-2.01-.9-2.01-2 -.01-.01-.01-.01-.01-.01V45.94v0c0-1.11.89-2 2-2 0 0 0 0 0 0Z" fill="#D3D3D3"/>
</svg>