<svg xmlns="http://www.w3.org/2000/svg" viewBox="0 0 64 64">
  <path fill-rule="evenodd" d="M52.81 54.32v-.001c-.17.96-1 1.67-1.98 1.67H39.19v0c-.98 0-1.82-.71-1.98-1.68L34 35.14v0c-.1-.55.27-1.07.82-1.16 .05-.01.1-.02.16-.02H55v0c.55-.01 1 .44 1 .99 0 .05-.01.11-.02.16Zm-20.82 1.67v0c-.77-.07-1.51-.31-2.16-.72h0c-.83-.47-1.85-.36-2.56.25v-.001c-.36.3-.82.46-1.29.46 -1.32 0-2.48-2-4-2 -2.02 0-2.22 2-4 2 -1.76 0-2.199-1.71-3.52-3.66h0c-.33-.41-.92-.47-1.32-.14 -.14.1-.24.24-.29.4 -.47 1.24-1.09 3.38-2.88 3.38H9.96c-1.1-.03-1.98-.91-2-2 0-2.04 2-3.63 2-10 0-6.05 2.44-10.09 6.58-11.47v0c.83-.27 1.4-1.04 1.41-1.91V3.93v0c0-1.11.89-2 2-2 1.1 0 2 .89 2 2v26.63h-.001c.01.87.58 1.64 1.41 1.9 4.14 1.37 6.58 5.41 6.58 11.46 0 7.43 4 7.38 4 9.99v0c-.01 1.1-.9 1.99-2 1.99Z" fill="#D3D3D3"/>
</svg>