<svg xmlns="http://www.w3.org/2000/svg" viewBox="0 0 64 64">
  <path fill-rule="evenodd" d="M54.29 50.29l1.41 1.41v0c.18.18.29.44.29.7v.58 0c0 .55-.45 1-1 1h-46v0c-.56 0-1-.45-1-1v-.59 0c0-.27.1-.52.29-.71l1.41-1.42v0c.18-.19.29-.45.29-.71V30.37v0c0-.27-.11-.52-.3-.71l-1.42-1.42v0c-.19-.19-.3-.45-.3-.71v-.59 0c0-.56.44-1 1-1h10.65v-.001c-1.15-1.86-1.73-4.01-1.67-6.19 0-10.47 9.41-10.58 13.36-17.36 .36-.63.9-.63 1.26 0 3.95 6.78 13.36 6.89 13.36 17.35v0c.06 2.18-.52 4.33-1.67 6.18h10.66v0c.55 0 1 .44 1 1v.58 0c-.01.26-.11.51-.3.7l-1.42 1.41v0c-.19.18-.3.44-.3.7v19.17 0c0 .26.1.51.29.7Zm-28.3-1.3v0c0 .55.44 1 1 1h10v0c.55 0 1-.45 1-1v-9c0-6.24-2.7-4.21-5.19-7.61v0c-.33-.46-.96-.56-1.41-.23 -.09.06-.17.14-.23.22 -2.5 3.4-5.19 1.31-5.19 7.54Zm-7.7-10.87v0c-.12-.17-.36-.22-.53-.1 -.04.02-.07.05-.1.09 -.94 1.27-2.7 1.52-2.7 3.86v7 0c0 .55.44 1 1 1h4v0c.55 0 1-.45 1-1v-7c0-2.34-1.76-2.59-2.7-3.87Zm30.694 3.86c0-2.34-1.76-2.59-2.7-3.87v0c-.12-.17-.36-.22-.53-.1 -.04.02-.07.05-.1.09 -.94 1.27-2.7 1.52-2.7 3.86v7 0c0 .55.44 1 1 1h4v0c.55 0 1-.45 1-1Z" fill="#D3D3D3"/>
</svg>