<svg xmlns="http://www.w3.org/2000/svg" viewBox="0 0 64 64">
  <path fill-rule="evenodd" d="M51.02 50.02v-.001c-6.07 0-11-4.91-11.01-10.98 -.01-3.17 1.35-6.17 3.72-8.26l-1.87-3.11v0c-3.13 2.94-4.9 7.05-4.86 11.34v.02 -.001c-.01 1.09-.89 1.97-1.98 1.98H23.8v0c-1.11 5.96-6.85 9.9-12.82 8.8 -5.97-1.11-9.91-6.85-8.81-12.82 1.1-5.97 6.84-9.91 12.81-8.81 .79.14 1.57.38 2.32.7l2.12-3.19 0-.001c-1.98-1.12-4.2-1.7-6.47-1.71H6.92v0c-.56-.01-1-.45-1-1.01 0-.2.05-.4.16-.56l1.12-1.68H7.19c.74-1.11 1.98-1.77 3.32-1.77h11.84v0c.33-.01.64.16.83.44l2.72 4.1v0c.18.27.49.44.83.44h4.31v0c.33 0 .64-.17.83-.45l2.73-4.11 0 0c.18-.28.49-.45.83-.45h6.93l-1.82-3h-3.45v0c-1.14 0-2.18-.65-2.69-1.66l-.45-.9v0c-.25-.5-.05-1.1.44-1.35 .13-.07.29-.11.44-.11h9.33v0c1.05 0 2.03.55 2.57 1.45l3.41 5.69v0c.46.77.71 1.66.71 2.57v1.3 0c0 .51-.39.94-.9.99V23.9c-1.72.12-3.4.58-4.95 1.34l1.99 3.32v0c5.68-2.13 12.02.76 14.14 6.45 2.12 5.68-.77 12.02-6.46 14.14 -1.24.46-2.54.69-3.86.69ZM18.4 34.54l-1.65 2.47h2.97 -.001c-.27-.91-.72-1.75-1.33-2.48Zm-5.39 6.47v0c-1.11 0-2.01-.9-2.01-2 -.01-.4.11-.79.33-1.12l3.72-5.59 0-.001c-3.7-1.14-7.62.93-8.76 4.63 -1.14 3.69.93 7.61 4.63 8.75 3.69 1.13 7.61-.94 8.75-4.64 0-.02.01-.04.01-.06Zm9.642-12.86l-1.99 2.97 0-.001c1.63 1.58 2.73 3.64 3.14 5.88h3.05v0c-.4-3.34-1.89-6.45-4.22-8.86ZM58 39v0c.01-3.86-3.1-6.99-6.96-7.01 -.61-.01-1.21.07-1.79.22l3.4 5.67h0c.5.8.39 1.85-.28 2.53h0c-.8.77-2.06.75-2.83-.04 -.11-.12-.21-.24-.29-.37l-3.45-5.75h0c-2.61 2.85-2.41 7.27.44 9.88 2.85 2.6 7.27 2.4 9.88-.45 1.17-1.3 1.83-2.98 1.83-4.73Z" fill="#D3D3D3"/>
</svg>