<svg xmlns="http://www.w3.org/2000/svg" viewBox="0 0 64 64">
  <path fill-rule="evenodd" d="M49.76 43.44L38.25 27.08v0c-.33-.46-.32-1.08.02-1.53l2.34-3.08v-.001c.23-.32.6-.5.99-.5h1.76 -.001c.39 0 .75.18.99.49l15.47 20.3v0c.09.13.15.28.15.45v0 0c0 .41-.34.74-.75.74 -.01 0-.01 0-.01 0h-8.43v0c-.43-.01-.82-.21-1.07-.56Zm-3.53.55H4.74v0c-.42 0-.76-.34-.76-.76 -.01-.01-.01-.01 0-.01v0 0c-.01-.16.04-.31.13-.44L16.97 24.5v0c.23-.34.61-.54 1.02-.53h1.35l5.25-7.47v0c.23-.34.61-.54 1.02-.54h1.7 -.001c.4 0 .78.19 1.02.53l18.48 26.27v0c.09.12.13.28.13.43v0 0c0 .41-.34.75-.76.76Z" fill="#D3D3D3"/>
</svg>