<svg xmlns="http://www.w3.org/2000/svg" viewBox="0 0 64 64">
  <path fill-rule="evenodd" d="M49.01 52.02h-34v0c-2.77 0-5-2.24-5-5v-26 0c0-.56.44-1 1-1h3.17v0c.26 0 .51.1.7.29l2.53 2.53v0c.75.75 1.76 1.17 2.82 1.17h31.75v0c1.1 0 2 .89 2 2v21 0c-.01 2.76-2.24 4.99-5.01 4.99 -.01-.01-.01-.01-.01-.01Zm-6.56-14.9l-16-8v0c-.5-.25-1.1-.05-1.35.44 -.07.13-.11.29-.11.44v16 0c-.01.55.44 1 .99 1 .15 0 .3-.04.44-.11l16-8v0c.49-.25.69-.85.44-1.35 -.1-.2-.26-.36-.45-.45ZM52 22.01H19.82V22c-.27 0-.52-.11-.71-.3l-2.54-2.54v0c-.76-.76-1.77-1.18-2.83-1.18h-2.76v0c-.56 0-1-.45-1-1v0c0-2.77 2.23-5 5-5h34v0c2.76 0 5 2.23 5 5v3 0c0 1.1-.9 1.99-2 2Zm-26.21-4.2l-2.2-2.2v0c-.39-.39-.91-.6-1.45-.6h-3.46v0c-.39 0-.71.31-.71.7 0 .18.07.36.2.49l2.19 2.2v0c.38.38.9.6 1.44.6h3.45v0c.38-.01.7-.32.7-.71 -.01-.19-.08-.37-.21-.5Zm12 0l-2.2-2.2v0c-.39-.39-.91-.6-1.45-.6h-3.46v0c-.39 0-.71.31-.71.7 0 .18.07.36.2.49l2.19 2.2v-.001c.38.38.9.6 1.44.6h3.45v0c.38-.01.7-.32.7-.71 -.01-.19-.08-.37-.21-.5Zm12 0l-2.2-2.2v0c-.39-.39-.91-.6-1.45-.6h-3.46v0c-.39 0-.71.31-.71.7 0 .18.07.36.2.49l2.19 2.2 0-.001c.38.38.9.6 1.44.6h3.45v0c.38-.01.7-.32.7-.71 -.01-.19-.08-.37-.21-.5Z" fill="#D3D3D3"/>
</svg>