<svg xmlns="http://www.w3.org/2000/svg" viewBox="0 0 64 64">
  <path fill-rule="evenodd" d="M52.55 43.89l-7.73-3.87v0c-.51-.26-.83-.78-.83-1.35v-5.39 0c-.01-.57.32-1.09.82-1.35l7.72-3.87v0c.49-.25 1.09-.05 1.34.44 .06.13.1.29.1.44v14.01 0c0 .55-.45 1-1 1 -.16 0-.31-.04-.45-.11Zm-14.56-19.9v0c-4.42 0-8-3.59-8-8 0-4.42 3.58-8 8-8 4.41 0 8 3.58 8 8v0c0 4.41-3.59 8-8 8Zm0-12v0c-2.21 0-4 1.79-4 4 0 2.2 1.79 4 4 4 2.2 0 4-1.8 4-4v0c0-2.21-1.8-4-4-4Zm-18 12v0c-4.42 0-8-3.59-8-8 0-4.42 3.58-8 8-8 4.41 0 8 3.58 8 8v0c0 4.41-3.59 8-8 8Zm0-12v0c-2.21 0-4 1.79-4 4 0 2.2 1.79 4 4 4 2.2 0 4-1.8 4-4v0c0-2.21-1.8-4-4-4Zm-2 14h22v0c1.1 0 2 .89 2 2v14 0c0 1.1-.9 2-2 2h-22v0c-1.11 0-2-.9-2-2v-14 0c0-1.11.89-2 2-2Zm3.71 21.12v0c.26-.68.91-1.13 1.63-1.13h1.63v0c.55-.01 1 .44 1 .99 0 .12-.03.24-.07.36l-3.67 9.51 -.001 0c-.27.67-.92 1.12-1.64 1.12h-1.64v0c-.56 0-1.01-.45-1.01-1 -.01-.13.02-.25.06-.37Zm11.26-1.13h1.64v0c.72-.01 1.37.44 1.64 1.12l3.68 9.52v0c.19.51-.07 1.09-.58 1.29 -.12.04-.24.06-.37.06h-1.65v0c-.73 0-1.38-.45-1.65-1.13l-3.69-9.52v0c-.2-.52.05-1.1.57-1.3 .11-.05.23-.07.36-.07Z" fill="#D3D3D3"/>
</svg>