<svg xmlns="http://www.w3.org/2000/svg" viewBox="0 0 64 64">
  <path fill-rule="evenodd" d="M48.83 23.33q-7.74 4.3-11.57-2.55 -3.84-6.85 3.89-11.16 7.73-4.31 11.56 2.54 3.83 6.84-3.9 11.15Zm-11.42 3.34s-2.8 1.32-6.45 3.06h-.001c.01.08.02.16.02.25v24 0c0 1.1-.9 2-2 2h-2v0c-1.11 0-2-.9-2-2v-12l-5.46-6.82c-2.99 1.42-5.24 2.48-5.53 2.62v0c-.97.45-2.11.08-2.63-.85l-1.13-2.02h0c-.52-.93-.24-2.1.65-2.69 .88-.59 21.73-14.1 21.73-14.1v-.001c.47-.31 1.1-.17 1.4.3 .06.1.11.21.13.32v0c.3 1.16.76 2.28 1.36 3.32v0c.57 1.05 1.28 2.03 2.11 2.9v0c.4.39.41 1.03.01 1.43 -.09.08-.19.15-.29.2Z" fill="#D3D3D3"/>
</svg>