<svg xmlns="http://www.w3.org/2000/svg" viewBox="0 0 64 64">
  <path fill-rule="evenodd" d="M39.42 51.38l-5.98 5.98h0c-.8.79-2.09.79-2.88 0 -.01-.01-.01-.01-.01-.01l-5.98-5.99v0c-.47-.47-.68-1.12-.58-1.76l4.6-29.53v-.001c.19-1.22 1.23-2.12 2.47-2.12h1.82v0c1.23-.01 2.27.89 2.47 2.11l4.6 29.52h-.001c.1.64-.12 1.29-.58 1.75ZM36 13.85v0c-.39 1.26-1.55 2.13-2.88 2.13h-2.23v0c-1.33 0-2.5-.87-2.88-2.14l-1.98-6.57v0c-.16-.53.14-1.09.67-1.25 .09-.03.19-.05.28-.05h10v0c.55-.01.99.44.99.99 0 .09-.02.19-.05.28Z" fill="#D3D3D3"/>
</svg>