<svg xmlns="http://www.w3.org/2000/svg" viewBox="0 0 64 64">
  <path fill-rule="evenodd" d="M54.02 34.02h-8v6h3v0c1.65 0 3 1.34 3 3v8 0c0 1.65-1.35 3-3 3h-10v0c-1.66 0-3-1.35-3-3v-8 0c0-1.66 1.34-3 3-3h3v-6h-20v6h3v0c1.65 0 3 1.34 3 3v8 0c0 1.65-1.35 3-3 3h-10v0c-1.66 0-3-1.35-3-3v-8 0c0-1.66 1.34-3 3-3h3v-6h-8v0c-1.11 0-2-.9-2-2 0-1.11.89-2 2-2h20v-6h-3v0c-1.66 0-3-1.35-3-3v-8 0c0-1.66 1.34-3 3-3h10v0c1.65 0 3 1.34 3 3v8 0c0 1.65-1.35 3-3 3h-3v6h20v0c1.1 0 2 .89 2 2 0 1.1-.9 2-2 2Z" fill="#D3D3D3"/>
</svg>