<svg xmlns="http://www.w3.org/2000/svg" viewBox="0 0 32 32">
  <path fill="#D3D3D3" fill-rule="evenodd" d="M54.36 49.23l0-.01c-.13 1.56-1.43 2.77-3 2.77H12.61l0-.001c-1.57 0-2.88-1.21-3-2.77L7.98 28.13l0 0c-.09-1.11.74-2.07 1.84-2.15 .05-.01.1-.01.15-.01h43.98l-.001 0c1.1-.01 2 .89 2 1.99 0 .05-.01.1-.01.15ZM38.99 37h-5v-5 0c0-1.11-.9-2-2-2 -1.11 0-2 .89-2 2v5h-5 -.01c-1.11 0-2 .89-2 2 0 1.1.89 2 2 2h5v5l0 0c0 1.1.89 2 2 2 1.1-.01 2-.9 2-2v-5h5 -.01c1.1 0 2-.9 2-2 0-1.11-.9-2-2-2Zm14-13h-42 -.01c-.56-.01-1-.45-1-1 0 0 0-.001 0-.001v-9l0 0c-.01-1.11.89-2 2-2h11.34l0-.001c1.06-.01 2.07.42 2.82 1.17l3.65 3.65 0 0c.75.75 1.76 1.17 2.82 1.17h19.34l-.01 0c1.1-.01 2 .89 2 2v3l0 0c0 .55-.45.99-1 1Z" transform="scale(0.5,0.5)"/>
</svg>