<svg xmlns="http://www.w3.org/2000/svg" viewBox="0 0 64 64">
  <path fill-rule="evenodd" d="M16.02 54.02v0c-3.32 0-6-2.69-6-6v-37c0-.56.89-1 2-1 1.1 0 2 .44 2 1 0 .55.89 1 2 1 1.1 0 2-.45 2-1 0-.56.89-1 2-1 1.1 0 2 .44 2 1 0 .55.89 1 2 1 1.1 0 2-.45 2-1 0-.56.89-1 2-1 1.1 0 2 .44 2 1 0 .55.89 1 2 1 1.1 0 2-.45 2-1 0-.56.89-1 2-1 1.1 0 2 .44 2 1 0 .55.89 1 2 1 1.1 0 2-.45 2-1 0-.56.89-1 2-1 1.1 0 2 .44 2 1 0 .55.89 1 2 1 1.1 0 2-.45 2-1 0-.56.89-1 2-1 1.1 0 2 .44 2 1v37 0c0 3.31-2.69 6-6 6Zm1-22v0c-.56 0-1 .44-1 1v12 0c0 .55.44 1 1 1h10v0c.55 0 1-.45 1-1v-12 0c0-.56-.45-1-1-1Zm27-11v0c0-.56-.45-1-1-1h-22v0c-.56 0-1 .44-1 1v2 0c0 .55.44 1 1 1h22v0c.55 0 1-.45 1-1Zm3 11h-14v0c-.56 0-1 .44-1 1 0 .55.44 1 1 1h14v0c.55 0 1-.45 1-1 0-.56-.45-1-1-1Zm0 6h-14v0c-.56 0-1 .44-1 1 0 .55.44 1 1 1h14v0c.55 0 1-.45 1-1 0-.56-.45-1-1-1Zm0 6h-14v0c-.56 0-1 .44-1 1 0 .55.44 1 1 1h14v0c.55 0 1-.45 1-1 0-.56-.45-1-1-1Z" fill="#D3D3D3"/>
</svg>