<svg xmlns="http://www.w3.org/2000/svg" viewBox="0 0 32 32">
  <path fill-rule="evenodd" d="M44.56 31.21l0-.01c2.13-1.8 3.38-4.43 3.43-7.22 0-8.21-12.17-10.5-14.05-16.51l0 0c-.29-1.08-1.39-1.72-2.46-1.43 -.88.23-1.5 1.02-1.5 1.93v30.77l0 0c0 1.37-.94 2.57-2.28 2.91l-6.06 1.51 -.01 0c-3.34.83-5.67 3.82-5.67 7.26l-.01-.01c.01 4.17 3.4 7.55 7.58 7.53 .04-.01.08-.01.12-.01 5.92 0 10.28-3.43 10.28-8.3V31.92c1.99 1.01 9 4.37 9 8s-3 4.57-3 6l-.01 0c-.02.53.41.98.95.99 .01 0 .03 0 .04-.01 2.03 0 7-3.52 7-9 0-2.84-1.46-4.97-3.44-6.79ZM42 29.16c-2.73-1.99-5.69-3.75-7.23-6l0 0c-.54-.81-.81-1.75-.8-2.71v-2.47c1.99 1.01 9 4.37 9 8l0 0c.01 1.13-.33 2.24-.99 3.16Z" transform="scale(0.5,0.5)" fill="#D3D3D3"/>
</svg>