<svg xmlns="http://www.w3.org/2000/svg" viewBox="0 0 64 64">
  <path fill-rule="evenodd" d="M49.38 49.39c-1.81 1.8-4.06 2.62-7.93 2.62H22.54c-3.87-.01-6.12-.82-7.926-2.63 -1.81-1.81-2.62-4.07-2.62-7.94V22.55c0-3.87.81-6.13 2.62-7.94 1.8-1.81 4.06-2.63 7.93-2.63 0 0 14.34-.01 15.45-.01v0c1.1 0 2 .89 2 2v0c0 5.52 4.47 10 10 10v0c1.1 0 2 .89 2 2 0 1.1-.01 15.44-.01 15.44 -.01 3.87-.82 6.12-2.63 7.93ZM50 22.01v0c-4.42-.01-8-3.59-8-8.01s3.58-8 8-8c4.41 0 7.99 3.58 7.99 8h0c0 4.41-3.59 8-8 8 -.01 0-.01-.01-.01-.01Z" fill="#D3D3D3"/>
</svg>