<svg xmlns="http://www.w3.org/2000/svg" viewBox="0 0 64 64">
  <path fill-rule="evenodd" d="M34.29 52.85v0c-.96 1.26-2.76 1.51-4.02.56 -.22-.17-.41-.36-.57-.57C23.08 45.85 9.99 40.46 9.99 27.4c0-9.9 7.7-17.43 22-17.43 14.29-.001 22 7.52 22 17.42 0 13.06-13.1 18.44-19.71 25.43Zm15.67-31.19l-.001 0c-.12-.48-.59-.77-1.06-.66 -.08.01-.14.04-.21.07 -3.48 1.87-9.67 2.9-16.72 2.9 -7.05 0-13.21-1.03-16.69-2.91h0c-.43-.23-.96-.06-1.19.36 -.04.06-.06.13-.08.2l-.01.01v0c-.12.37.01.78.31 1.03 3.77 2.93 10.03 5.28 17.64 5.28 7.6 0 13.86-2.36 17.64-5.29v0c.3-.26.42-.67.31-1.04Z" fill="#D3D3D3"/>
</svg>