<svg xmlns="http://www.w3.org/2000/svg" viewBox="0 0 64 64">
  <path fill-rule="evenodd" d="M51 56v0c1.1 0 2-.9 2-2V25v0c0-.56-.45-1-1-1H12v0c-.56 0-1 .44-1 1v29 0c0 1.1.89 2 2 2Zm-7-28H20v0c-.56 0-1 .44-1 1 0 .55.44 1 1 1h24v0c.55 0 1-.45 1-1 0-.56-.45-1-1-1Zm1 11v0c0-1.66-1.35-3-3-3H22v0c-1.66 0-3 1.34-3 3v8 0c0 1.65 1.34 3 3 3h20v0c1.65 0 3-1.35 3-3Zm7-17H12v0c-.56 0-1-.45-1-1v-9 0c0-1.11.89-2 2-2h38v0c1.1 0 2 .89 2 2v9 0c0 .55-.45 1-1 1Zm-33-9v0c-1.66 0-3 1.34-3 3 0 1.65 1.34 3 3 3 1.65 0 3-1.35 3-3v0c0-1.66-1.35-3-3-3Z" fill="#D3D3D3"/>
</svg>