<svg xmlns="http://www.w3.org/2000/svg" viewBox="0 0 64 64">
  <path fill-rule="evenodd" d="M13.99 47.27v0c-.02.34.16.66.46.84v0c.32.17.53.51.53.88v3.99 0c0 .55-.45 1-1 1H9.97v0c-.56 0-1-.45-1-1v-4 0c0-.38.2-.72.53-.89h-.001c.29-.18.47-.5.46-.85v-11.6 0c-.01-.22-.14-.41-.35-.47H9.6c-3.15-1.05-5.82-3.16-7.57-5.97h0c-.15-.24-.09-.55.14-.7l.69-.47h0c.22-.14.51-.09.67.12h0c.92 1.23 2.42 1.91 3.96 1.79 1.87 0 3.9-1.87 5.65-3.49h-.001c.37-.32.84-.5 1.33-.53h4.93v0c.27 0 .5-.23.5-.5v-3.3H19.9c-.01-.24-.18-.45-.41-.49v-.001c-3.94-.72-7.4-3.07-9.5-6.48v0c-.15-.24-.09-.55.14-.7l.69-.47v0c.22-.14.51-.09.67.12v0c.92 1.23 2.42 1.91 3.96 1.79 1.87 0 3.91-1.88 5.67-3.5v0c.36-.31.81-.49 1.29-.51h18.93v0c.47.02.92.2 1.29.5 1.75 1.62 3.79 3.49 5.67 3.49v0c1.54.11 3.03-.57 3.96-1.8v0c.16-.21.45-.26.67-.13l.69.46v0c.22.15.29.46.14.69v0c-2.11 3.4-5.56 5.76-9.51 6.47v0c-.24.04-.41.24-.41.48v3.29 0c0 .27.22.5.5.5h4.93v0c.49.02.95.2 1.33.52 1.74 1.61 3.78 3.48 5.65 3.48v0c1.54.11 3.03-.57 3.96-1.8v0c.16-.21.45-.26.67-.13l.69.46v0c.22.15.29.46.14.69h0c-1.75 2.81-4.43 4.92-7.57 5.97v0c-.21.06-.35.24-.35.46v11.59 0c-.02.34.16.66.46.83v0c.32.17.53.51.53.88v3.99 0c0 .55-.45 1-1 1h-4.01v0c-.56 0-1-.45-1-1v-4 0c0-.38.2-.72.53-.89v-.001c.29-.18.47-.5.46-.85V36.25h0c0-.28-.23-.51-.5-.51 -.01-.01-.01 0-.01 0l-5.01 0v0c-.28 0-.5.22-.5.5V47v0c-.02.34.16.66.46.84v0c.32.17.53.51.53.88v3.99 0c0 .55-.45 1-1 1h-4.01v0c-.56 0-1-.45-1-1v-4 0c-.01-.38.2-.72.53-.89h-.001c.29-.18.47-.5.46-.85V36.2v0c0-.28-.23-.5-.5-.5H24.2v0c-.28 0-.5.22-.5.5v10.76H23.7c-.02.34.16.66.46.84v0c.32.17.53.51.53.88v3.99 0c0 .55-.45 1-1 1h-4.01v0c-.56 0-1-.45-1-1v-4 0c0-.38.2-.72.53-.89h-.001c.29-.18.47-.5.46-.85V36.16v0c0-.28-.23-.5-.5-.5l-5.01-.01v0c-.28-.01-.51.22-.51.49 -.01 0-.01 0-.01 0ZM24.49 22h15v0c.27 0 .5.22.5.5v2.98 0c0 .27-.23.5-.5.5H24.48v0c-.28 0-.5-.23-.5-.5v-2.99 0c0-.28.22-.5.49-.5Z" fill="#D3D3D3"/>
</svg>