<svg xmlns="http://www.w3.org/2000/svg" viewBox="0 0 64 64">
  <path fill-rule="evenodd" d="M49.99 52.76v0c.13.53-.2 1.07-.74 1.21 -.08.01-.16.02-.24.02H39v-.001c-.45-.01-.83-.29-.96-.71v0c-.68-2.33-1.19-4.7-1.55-7.09l0-.001c-.36 2.39-.88 4.76-1.55 7.08v0c-.13.42-.52.7-.96.7H14.97v0c-.56 0-1.01-.45-1.01-1 -.01-.09 0-.17.02-.25h0c1.2-5.18 1.86-10.46 1.97-15.77v0c0-.56.44-1 1-1h30.01v0c.55 0 1 .44 1 1h-.001c.1 5.3.76 10.59 1.97 15.76Zm-1.98-22.77v3 0c0 .55-.45.99-1 1H17.03v0c-.56-.01-1-.45-1-1v-3.01c0-5 11.99-5.98 11.99-11.01 0-3.97-2-5.99-2.01-8.98v0c0-3.32 2.68-6 6-6 3.31 0 6 2.68 6 6 -.02 2.99-2 5-2 8.97 -.01 5.02 11.98 6 11.98 11Z" fill="#D3D3D3"/>
</svg>