<svg xmlns="http://www.w3.org/2000/svg" viewBox="0 0 64 64">
  <path fill-rule="evenodd" d="M26.45 12.08l-1.4-5.569v0c-.27-1.08.37-2.16 1.44-2.43 1.07-.27 2.15.37 2.42 1.44 0 0 0 0 0 0l1.6 6.42 18.71 18.7v0c.97.96.97 2.54 0 3.51 -.01 0-.01 0-.01 0l-20.01 20h-.001c-2.43 2.42-6.35 2.42-8.77 0L6.73 40.471h0c-2.43-2.43-2.43-6.36-.01-8.78 0-.01 0-.01 0-.01Zm6.56 18.94v0c1.65 0 3-1.35 3-3 0-1.66-1.35-3-3-3 -1.66 0-3 1.34-3 3v-.001c0 1.65 1.34 2.99 3 2.99Zm18.72-1.27l-6-6v0c-.33-.33-.33-.85 0-1.18v0c.78-.79 2.04-.79 2.82-.01 0 0 0 0 0 0l6.17 6.18c2.625 2.625 4.26 10.38 4.26 15.25v0c0 2.2-1.8 4-4 4 -2.21 0-4-1.8-4-4 0-4.17 1.5-7.14 1.93-10.97h0c.11-1.23-.33-2.44-1.21-3.31Z" fill="#D3D3D3"/>
</svg>