<svg xmlns="http://www.w3.org/2000/svg" viewBox="0 0 64 64">
  <path fill-rule="evenodd" d="M37.91 55.09l-1.83-18.22h0c-.06-.6-.19-1.18-.38-1.74l-3.25-9.732v0c-.09-.27-.38-.41-.64-.32 -.15.04-.27.16-.32.31l-3.25 9.732h0c-.19.56-.32 1.14-.38 1.73l-1.83 18.21v0c-.06.51-.49.9-1 .9h-7.11l-.001-.001c-.56-.01-1.01-.45-1.01-1.01 0-.03 0-.05 0-.07l2.84-40.68v0c.05-.83.24-1.65.55-2.42l1.28-3.21v0c.15-.38.51-.63.92-.63h18.8v0c.4 0 .77.24.92.62l1.28 3.2 0-.001c.3.77.49 1.58.55 2.41l2.84 40.68v0c.03.55-.38 1.02-.93 1.06 -.03 0-.05 0-.07 0h-7.11v0c-.52 0-.95-.39-1-.91Z" fill="#D3D3D3"/>
</svg>