<svg xmlns="http://www.w3.org/2000/svg" viewBox="0 0 64 64">
  <path fill-rule="evenodd" d="M50.41 57.515q-2.78-3.14-5.61-6.01h-.001c-.5-.48-.79-1.13-.82-1.814V14.75c0-.82.95-1.05 1.62-.36q2.82 2.9 5.59 6.07v0c.47.52.75 1.2.78 1.9v34.93c0 .81-.93.92-1.59.18Zm-22.42.48c-7.74 0-14-3.14-14-7.01v-.01 -32.45 0c-.01-.3.23-.54.52-.54 .12-.01.24.04.34.12 2.89 2.33 7.69 3.86 13.13 3.86 5.43 0 10.24-1.54 13.13-3.87v0c.22-.19.56-.16.74.07 .07.09.12.21.12.34v32.44 0c0 3.86-6.27 7-14 7Zm0-38.01c-7.74 0-14-3.14-14-7.01 0-3.87 6.26-7.01 14-7.01 7.73 0 14 3.13 14 7 0 3.86-6.27 7-14 7Zm0-10.01c-3.32 0-6 1.34-6 3 0 1.65 2.68 3 6 3 3.31 0 6-1.35 6-3 0-1.66-2.69-3-6-3Z" fill="#D3D3D3"/>
</svg>