<svg xmlns="http://www.w3.org/2000/svg" viewBox="0 0 64 64">
  <path fill-rule="evenodd" d="M32 56v0C18.74 56 8 45.25 8 32 8 18.74 18.74 8 32 8c13.25 0 24 10.74 24 24v0c0 13.25-10.75 24-24 24ZM12 32v0c-.01 11.04 8.94 19.99 19.99 20 4.61 0 9.08-1.6 12.65-4.52L16.5 19.34v0c-2.93 3.56-4.52 8.03-4.52 12.64Zm20-20v-.001c-4.62-.01-9.1 1.59-12.66 4.52l28.14 28.14h-.001c6.99-8.55 5.73-21.15-2.82-28.14 -3.58-2.93-8.05-4.53-12.67-4.53Zm8.64 22.98l-3.2-3.2v0c-.27-.28-.29-.71-.05-1.01h0c.38-.52.6-1.14.6-1.79v0c0-1.66-1.35-3-3-3h-2.52v0c-.54-.01-1.04-.22-1.42-.59l-4.57-4.57v0c-.2-.2-.2-.52-.01-.71 .09-.1.22-.15.35-.15h8.136v0c4.96-.01 8.99 4.01 8.99 8.98 0 2.19-.8 4.31-2.25 5.95h-.001c-.28.31-.76.35-1.08.08 -.02-.02-.03-.03-.04-.04Zm-9.51 3.01h-3.14v5 0c0 .55-.45 1-1 1h-4v0c-.56 0-1-.45-1-1V28.85h0c-.01-.28.22-.51.49-.51 .13-.01.25.05.35.14l8.63 8.636v0c.19.19.19.51-.01.7 -.1.09-.23.14-.36.14Z" fill="#D3D3D3"/>
</svg>