<svg xmlns="http://www.w3.org/2000/svg" viewBox="0 0 64 64">
  <path fill-rule="evenodd" d="M58.9 25.8v-.001c-2.09 4.43-6.56 7.24-11.46 7.2v0c-.27-.01-.49-.23-.49-.49v0c-.27-5.33-4.66-9.51-9.99-9.51v0c-.41-.01-.82.02-1.23.07v0c-.26.03-.51-.14-.56-.39v0c-.09-.44-.15-.87-.18-1.31v0c-.4-5.2 2.45-10.1 7.16-12.32v0c.48-.23 1.04-.02 1.27.46 .1.21.11.46.04.69v0c-.91 2.85-.62 5.96.81 8.6l0-.001c1.09 2.07 2.78 3.76 4.85 4.85h-.001c2.63 1.41 5.72 1.7 8.57.8v0c.5-.17 1.04.11 1.2.62 .07.22.05.47-.05.68Zm-13.94 7.19v0c-.01.42-.04.84-.11 1.26h-.001c3.71 1.04 5.88 4.89 4.84 8.61 -.85 3.02-3.6 5.1-6.74 5.1H14.95v0c-4.97-.01-9-4.03-9-9 0-4.6 3.46-8.46 8.03-8.94h0c.51-6.05 5.83-10.53 11.88-10.01 3.54.3 6.72 2.3 8.52 5.37v0c4.17-1.41 8.7.84 10.11 5.02 .27.82.41 1.68.41 2.55Z" fill="#D3D3D3"/>
</svg>