<svg xmlns="http://www.w3.org/2000/svg" viewBox="0 0 64 64">
  <path fill-rule="evenodd" d="M21.02 18.02v0c-.56 0-1-.45-1-1v-5 0c0-1.11.89-2 2-2h1.5v0c.31 0 .61-.15.8-.4l1.8-2.4V7.21c.56-.76 1.45-1.2 2.4-1.2h7v0c.94 0 1.83.44 2.4 1.2l1.8 2.4v0c.18.25.48.4.8.4h1.5v0c1.1 0 2 .89 2 2v5 0c0 .55-.45 1-1 1Zm26-4h2v0c1.65 0 3 1.34 3 3v36 0c0 1.65-1.35 3-3 3h-34v0c-1.66 0-3-1.35-3-3v-36 0c0-1.66 1.34-3 3-3h2v0c.55 0 1 .44 1 1v2 0c0 1.65 1.34 3 3 3h22v0c1.65 0 3-1.35 3-3v-2h0c0-.56.44-1 1-1Z" fill="#D3D3D3"/>
</svg>