<svg xmlns="http://www.w3.org/2000/svg" viewBox="0 0 32 32">
  <path fill-rule="evenodd" d="M32 56l-.01-.001c-13.26-.01-24-10.75-24-24 0-13.26 10.74-24 24-24 13.25 0 24 10.74 24 24l0-.01c0 13.25-10.75 24-24 24Zm12.64-8.53L33.99 36.82v15.07l0-.01c3.9-.4 7.61-1.94 10.64-4.43ZM29.99 12.09l0-.01c-10.98 1.09-19 10.87-17.91 21.85 .38 3.92 1.93 7.64 4.43 10.69l13.47-13.48Zm0 24.72L19.34 47.45l-.01-.01c3.03 2.49 6.73 4.03 10.64 4.42Zm4-24.73v19.07l13.47 13.47 0-.01c6.99-8.54 5.74-21.12-2.79-28.12 -3.05-2.5-6.77-4.05-10.7-4.44Z" transform="scale(0.5,0.5)" fill="#D3D3D3"/>
</svg>