<svg xmlns="http://www.w3.org/2000/svg" viewBox="0 0 64 64">
  <path fill-rule="evenodd" d="M49.07 30.55l-.001-.001c-1.92 1.94-4.28 3.4-6.87 4.25v0c-3.48 1.08-6.2 3.81-7.28 7.28v-.001c-.85 2.6-2.31 4.96-4.25 6.88 -5.55 5.55-13.73 6.72-18.05 2.39 -4.33-4.33-3.17-12.53 2.38-18.08v0c1.91-1.95 4.27-3.41 6.87-4.26L21.86 29c3.47-1.09 6.19-3.81 7.28-7.29v0c.84-2.6 2.3-4.96 4.25-6.88 4.24-4.26 9.93-5.83 14.31-4.4 1.33.44 3.73-.04 4.75.97 1.01 1.01.53 3.41.97 4.75 1.43 4.38-.14 10.07-4.39 14.33ZM26.7 46.69l0 0c-1.08-.77-2.11-1.59-3.1-2.46v0c-.39-.33-.95-.32-1.32.01 -1.35 1.19-1.88 1.63-3.05 2.55h0c-.3.23-.36.66-.13.96 .04.05.09.1.14.13h0c1.04.79 2.17 1.47 3.37 2.01v0c.28.13.61.11.89-.04l-.001 0c1.12-.6 2.18-1.3 3.18-2.08l-.001 0c.3-.23.36-.66.14-.96 -.05-.06-.1-.11-.16-.16Zm19.02-31.41v0c-.59-.45-1.23-.83-1.91-1.14v0c-.34-.16-.72-.19-1.07-.08l0-.001c-2.51.84-4.77 2.28-6.59 4.21l0 0c-.25.24-.26.64-.02.89l2.51 2.62v0c.22.23.58.23.82.01 0-.01.01-.02.02-.03l0 0c1.87-2.05 3.95-3.89 6.22-5.49v0c.28-.21.34-.61.13-.89 -.04-.06-.09-.1-.14-.14Z" fill="#D3D3D3"/>
</svg>