<svg xmlns="http://www.w3.org/2000/svg" viewBox="0 0 64 64">
  <path fill-rule="evenodd" d="M54.989 38h-1.1v0c-.52-.01-.95-.39-1-.91l-1.09-10.87 -.62 4.33 0-.001c-.14.95-.19 1.91-.15 2.87l.9 23.51v0c.02.55-.41 1.01-.97 1.03 -.02 0-.03 0-.04 0h-2.06v0c-.52 0-.95-.39-1-.9l-1.9-19.1 -1.9 19.1v0c-.06.51-.49.89-1 .9h-2.06v0c-.56 0-1.01-.45-1.01-1 -.01-.02 0-.03 0-.04l.9-23.52v0c.03-.97-.02-1.93-.15-2.88l-.62-4.34 -1.09 10.86v0c-.06.51-.49.9-1 .9h-1.1v0c-.56 0-1-.45-1-1v-14 0c0-2.77 2.23-5 5-5h9.97v0c2.76 0 5 2.23 5 5v14 0c0 .55-.45 1-1 1Zm-8.99-22v0c-2.77 0-5-2.24-5-5 0-2.77 2.23-5 5-5 2.76 0 5 2.23 5 5v0c0 2.76-2.24 5-5 5ZM28.97 36h-.92v0c-.53 0-1-.32-1.2-.8l-3.54-8.9 -1.32 3.21h0c-.11.29-.06.61.12.87h-.001c2.46 3.72 3.8 8.08 3.84 12.55v0c.02.55-.42 1.02-.98 1.04 -.01 0-.02 0-.03 0H21l-.96 13.07v0c-.05.52-.49.93-1.02.92h-2.18v-.001c-.54 0-.98-.41-1.02-.93l-.96-13.08h-3.94v0c-.56-.01-1.01-.47-1.01-1.03 0-.01 0-.02 0-.03v0c.04-4.47 1.38-8.83 3.84-12.56h0c.17-.26.22-.59.12-.88l-1.32-3.22 -3.54 8.89v0c-.2.48-.67.79-1.2.79h-.92v0c-.56 0-1.02-.44-1.02-1 -.01-.08 0-.16.02-.23l2.74-12.09h0c.65-2.78 3.13-4.72 5.98-4.7h6.5v-.001c2.84-.03 5.33 1.92 5.98 4.69l2.74 12.08v0c.11.54-.23 1.07-.78 1.19 -.08.01-.15.02-.23.02ZM17.98 16v0c-2.77 0-5-2.24-5-5 0-2.77 2.23-5 5-5 2.76 0 5 2.23 5 5v0c0 2.76-2.24 5-5 5Z" fill="#D3D3D3"/>
</svg>