<svg xmlns="http://www.w3.org/2000/svg" viewBox="0 0 64 64">
  <path fill-rule="evenodd" d="M26 15.5v0c0 .27.22.5.5.5h2v0c.82 0 1.5.67 1.5 1.5v7 0c0 .82-.68 1.5-1.5 1.5h-9v0c-.83 0-1.5-.68-1.5-1.5v-7 0c0-.83.67-1.5 1.5-1.5h2v0c.27 0 .5-.23.5-.5V9v0c0-.56.44-1 1-1h5v0c14.35 0 26 11.64 26 26v1.32 0c-.01.57.32 1.09.83 1.33 3.01 1.43 5.16 5.06 5.16 9.34 0 5.52-3.59 10-8 10 -4.42 0-8-4.48-8-10 0-4.28 2.14-7.91 5.16-9.34h-.001c.51-.25.83-.77.83-1.34l0-1.33v0c-.01-12.16-9.86-22.01-22.01-22.01l-1.5 0v0c-.28 0-.5.22-.5.5ZM40 42c0 7.04-2.84 11.01-4.61 12.81v0c-.76.76-1.78 1.18-2.85 1.18h-17.1l-.001-.001c-1.07 0-2.1-.43-2.85-1.19 -1.78-1.8-4.61-5.78-4.61-12.82 0-7.6 5.87-14 16-14 10.12 0 16 6.4 16 14Z" fill="#D3D3D3"/>
</svg>