<svg xmlns="http://www.w3.org/2000/svg" viewBox="0 0 64 64">
  <path fill-rule="evenodd" d="M42.98 36h-.92v0c-.53 0-1-.32-1.2-.8l-3.54-8.9L36 29.51v0c-.11.29-.06.61.12.87v0c2.46 3.72 3.8 8.08 3.84 12.55v0c.01.55-.42 1.02-.98 1.04 -.01 0-.02 0-.03 0h-3.94l-.96 13.07v0c-.05.52-.49.93-1.02.92h-2.18v0c-.54 0-.98-.41-1.02-.93l-.96-13.08h-3.94v0c-.56-.01-1.01-.47-1.01-1.03 0-.01 0-.02 0-.03l0-.001c.04-4.47 1.38-8.83 3.84-12.56l0-.001c.17-.26.22-.59.12-.88l-1.32-3.22 -3.54 8.89v0c-.2.48-.67.79-1.19.79h-.92v0c-.56 0-1.02-.44-1.02-1 -.01-.08 0-.16.02-.23l2.74-12.09h-.001c.65-2.78 3.13-4.72 5.98-4.7h6.5v0c2.84-.03 5.33 1.92 5.98 4.69l2.74 12.08h-.001c.11.54-.23 1.07-.78 1.19 -.08.01-.15.02-.23.02ZM31.99 16v0c-2.77 0-5-2.24-5-5 0-2.77 2.23-5 5-5 2.76 0 5 2.23 5 5v0c0 2.76-2.24 5-5 5Z" fill="#D3D3D3"/>
</svg>