<svg xmlns="http://www.w3.org/2000/svg" viewBox="0 0 64 64">
  <path fill-rule="evenodd" d="M50.12 51.72v0c-.26.79-1.01 1.32-1.84 1.3 -3.61-.08-13.63-1.39-24.77-12.53 -11.14-11.14-12.45-21.16-12.53-24.77v-.001c-.02-.84.51-1.58 1.3-1.83l8.54-2.79v0c.95-.31 1.98.16 2.38 1.08l3.41 7.9h0c.31.71.16 1.55-.4 2.11l-4.01 4v0c-.27.26-.35.65-.22.99v-.001c1.19 3.4 3.17 6.49 5.76 9v0c2.51 2.59 5.59 4.56 9 5.76v0c.34.12.73.04.99-.22l4-4.01h-.001c.55-.56 1.39-.71 2.11-.4l7.9 3.41v0c.91.39 1.38 1.42 1.08 2.38Z" fill="#D3D3D3"/>
</svg>