<svg xmlns="http://www.w3.org/2000/svg" viewBox="0 0 64 64">
  <path fill-rule="evenodd" d="M54.73 40.94v0c-.47.89-1.53 1.29-2.46.92l-8.03-3.19v0c-.74-.29-1.22-.99-1.22-1.78v-5.68 0c0-.38-.22-.71-.56-.87v0c-3.27-1.57-6.86-2.36-10.48-2.3v0c-3.63-.06-7.21.72-10.48 2.29v-.001c-.34.15-.56.49-.56.86v5.67 0c-.01.78-.49 1.49-1.23 1.77l-8.02 3.18v0c-.94.37-2-.03-2.46-.92l-4.09-8.04v0c-.38-.75-.23-1.65.37-2.22 2.6-2.51 10.64-8.68 26.42-8.68 15.78 0 23.81 6.17 26.42 8.67v0c.6.57.75 1.47.37 2.21Z" fill="#D3D3D3"/>
</svg>