<svg xmlns="http://www.w3.org/2000/svg" viewBox="0 0 64 64">
  <path fill-rule="evenodd" d="M54 33.98v0c-1.11 0-2-.9-2-2v0c-.02-11.05-8.96-19.99-20-20v0c-1.11 0-2-.9-2-2 0-1.11.89-2 2-2V7.97c13.24.01 23.98 10.75 24 24v0c0 1.1-.9 2-2 2Zm-14-2v0c-.01-4.42-3.59-8-8.01-8.01v0c-1.11 0-2-.9-2-2 0-1.11.89-2 2-2v-.001c6.62 0 11.99 5.37 12 12v0c0 1.1-.9 2-2 2 -1.11 0-2-.9-2-2Zm-15.22 7.2h0c2.51 2.59 5.59 4.56 9 5.76v0c.34.12.73.04 1-.22l4-4.01h0c.55-.56 1.39-.71 2.11-.4l7.9 3.41v0c.91.39 1.38 1.42 1.08 2.38l-2.8 8.55v0c-.26.79-1.01 1.32-1.84 1.3 -3.61-.08-13.63-1.39-24.77-12.53C9.32 32.28 8.01 22.26 7.93 18.65l0 0c-.02-.84.51-1.58 1.3-1.83l8.54-2.79v0c.95-.31 1.98.16 2.38 1.08l3.41 7.9h-.001c.31.71.16 1.55-.4 2.11l-4.01 4v0c-.27.26-.35.65-.22.99v0c1.19 3.4 3.17 6.49 5.76 9Z" fill="#D3D3D3"/>
</svg>