<svg xmlns="http://www.w3.org/2000/svg" viewBox="0 0 32 32">
  <path fill="#D3D3D3" fill-rule="evenodd" d="M51.99 51h-40l-.01-.001c-2.21-.01-4-1.8-4-4 0 0 0 0 0 0v-30l0 0c-.01-2.21 1.79-4 4-4h40l-.01 0c2.2-.01 4 1.79 4 4v30l-.001 0c0 2.2-1.8 4-4 4Zm-.01-5.52l0-27.49v0c0-.56-.45-1-1-1h-38 -.01c-.56 0-1 .44-1 1 0 0 0 0 0 0v27.53l-.01-.01c0 .25.2.45.46.45 .14-.01.28-.08.37-.2l4.41-6.28 -.01 0c.23-.34.61-.54 1.02-.54h2.35l5.25-7.47 0-.01c.23-.34.61-.54 1.02-.54h1.45l0-.001c.4-.01.78.19 1.02.53l10.65 15.14 -.01-.01c.14.2.37.32.62.32h.58l0-.001c.42-.01.76-.35.76-.77 -.01-.16-.05-.32-.14-.44l-2.61-3.71 0 0c-.33-.46-.32-1.08.02-1.53l2.34-3.08 0-.01c.23-.32.6-.5.99-.5h1.13l-.01-.001c.39 0 .75.18.99.49l6.32 8.3 -.01-.01c.17.22.49.26.71.09 .12-.1.2-.25.2-.41Zm-11-14.49l-.01-.001c-2.77-.01-5-2.24-5-5 0-2.77 2.23-5 5-5 2.76 0 5 2.23 5 5l0-.01c0 2.76-2.24 5-5 5Z" transform="scale(0.5,0.5)"/>
</svg>