<svg xmlns="http://www.w3.org/2000/svg" viewBox="0 0 64 64">
  <path fill-rule="evenodd" d="M53 17.97H38.82v0c-.54 0-1.04.21-1.42.58l-.83.82v0c-.38.37-.89.58-1.42.58H28.8v0c-.54-.01-1.04-.22-1.42-.59l-.83-.83 -.001 0c-.38-.38-.89-.59-1.42-.59H10.94v0c-.56 0-1-.45-1-1v-4 0c0-.56.44-1 1-1h42v0c.55 0 1 .44 1 1v4 0c0 .55-.45.99-1 1Zm-22.98 4h3.97v-.001c.55-.01 1 .44 1.01.99 0 0-.01.01-.01.02l-.29 9.96q-.32 10.78-1.37 21.5v0c0 .77-.58 1.42-1.35 1.51h-.001c-.77-.09-1.35-.75-1.35-1.52q-1.05-10.71-1.37-21.51l-.29-9.97 0-.001c-.02-.56.42-1.02.98-1.03 0-.01.01-.01.02-.01Z" fill="#D3D3D3"/>
</svg>