<svg xmlns="http://www.w3.org/2000/svg" viewBox="0 0 64 64">
  <path fill-rule="evenodd" d="M52 33.98h-9.94c.56 10.5 5.43 16.68 5.48 16.74h0c.69.85.56 2.11-.3 2.81 -.86.69-2.11.56-2.81-.29 -.25-.31-5.81-7.29-6.39-19.28H25.89c-.58 11.97-6.14 18.95-6.39 19.25v0c-.7.85-1.96.97-2.82.28 -.86-.7-.98-1.96-.29-2.81 .05-.07 4.91-6.24 5.48-16.74h-9.94v0c-1.11 0-2-.9-2-2 0-1.11.89-2 2-2h9.93c-.57-10.51-5.44-16.69-5.49-16.75v0c-.7-.86-.57-2.12.29-2.82 .85-.7 2.1-.57 2.8.28 .24.3 5.8 7.28 6.38 19.27h12.14c.57-11.98 6.13-18.96 6.38-19.26v0c.69-.86 1.95-.99 2.81-.29 .85.69.98 1.95.28 2.81 -.06.06-4.92 6.24-5.49 16.73h9.933v0c1.1 0 2 .89 2 2 0 1.1-.9 2-2 2Z" fill="#D3D3D3"/>
</svg>