<svg xmlns="http://www.w3.org/2000/svg" viewBox="0 0 64 64">
  <path fill-rule="evenodd" d="M51.58 10.41l-1.91 1.91v0c-.67.66-1.08 1.55-1.16 2.49l-3.29 39.34 0-.001c-.09 1.03-.96 1.83-2 1.83H23.23v-.001c-1.04-.01-1.91-.8-2-1.84l-.01-.07h-.001c-.12-1.42-.74-2.75-1.74-3.75l-9.186-9.19v0c-1.51-1.5-2.35-3.54-2.35-5.66V22.94h0c0-2.77 2.23-5 5-5h4.71v0c.27 0 .5-.23.5-.5 0-.02-.01-.03-.01-.05l-.2-2.38v0c-.05-.56.36-1.04.91-1.08 .02-.01.05-.01.08-.01h8.33v-.001c1.08-.01 2.15-.3 3.08-.86l7.14-4.29v0c.93-.56 1.99-.86 3.08-.86h9.92v0c.78 0 1.41.63 1.41 1.41 -.01.37-.15.73-.42.99ZM18.62 22.45v0c-.03-.26-.24-.46-.5-.46H12.99v0c-.56 0-1 .44-1 1V35.5v0c-.01 1.06.42 2.07 1.17 2.83l6.62 6.62v0c.15.15.4.15.56 0 .08-.09.12-.2.11-.32Zm22.03-10.46v0c-.37-.01-.72.09-1.03.28l-7.15 4.28v0c-1.56.93-3.34 1.42-5.15 1.42h-4.54v0c-.28-.01-.51.22-.51.49 -.01.01 0 .02 0 .04l.25 3v0c.02.25.23.45.49.45h20.38v0c.26 0 .47-.2.49-.46l.58-7.06v0c.06-.74.22-1.47.48-2.16v0c.05-.13-.02-.27-.14-.32 -.03-.02-.07-.02-.1-.02Z" fill="#D3D3D3"/>
</svg>