<svg xmlns="http://www.w3.org/2000/svg" viewBox="0 0 64 64">
  <path fill-rule="evenodd" d="M51.33 49.88v0c.39.14.66.51.66.94v2.34 0c-.01.42-.27.8-.67.94v0c-.57.2-1.02.65-1.22 1.22v0c-.15.39-.52.66-.95.66H46.8v0c-.43-.01-.81-.27-.95-.67h-.001c-.37-1.05-1.51-1.59-2.56-1.23 -.58.2-1.02.65-1.23 1.22v0c-.15.39-.52.66-.95.66h-2.35v0c-.43-.01-.81-.27-.95-.67v0c-.37-1.05-1.51-1.59-2.56-1.23 -.58.2-1.02.65-1.23 1.22h-.001c-.15.39-.52.66-.95.66h-2.35v0c-.43-.01-.81-.27-.95-.67v0c-.37-1.05-1.51-1.59-2.56-1.23 -.58.2-1.02.65-1.23 1.22v0c-.15.39-.52.66-.95.66h-2.35v0c-.43 0-.81-.27-.95-.67v0c-.37-1.05-1.51-1.59-2.56-1.23 -.58.2-1.02.65-1.23 1.22v0c-.15.39-.52.66-.95.66h-2.35v0c-.43-.01-.81-.27-.95-.67h0c-.21-.57-.66-1.02-1.22-1.22v0c-.4-.15-.67-.52-.67-.95v-2.35h-.001c0-.43.26-.81.66-.95v0c1.04-.37 1.58-1.52 1.21-2.56 -.21-.57-.65-1.02-1.22-1.22h-.001c-.4-.15-.67-.52-.67-.95v-2.35 0c0-.43.26-.81.66-.95v0c1.04-.37 1.58-1.52 1.21-2.56 -.21-.57-.65-1.02-1.22-1.22l-.001 0c-.4-.15-.67-.52-.67-.95v-2.35 0c0-.43.26-.81.66-.95v0c1.04-.37 1.58-1.52 1.21-2.56 -.21-.57-.65-1.02-1.22-1.22v0c-.4-.15-.67-.52-.67-.95v-2.35 0c0-.43.26-.81.66-.95v0c1.04-.37 1.58-1.52 1.21-2.56 -.21-.57-.65-1.02-1.22-1.22v0c-.4-.15-.67-.52-.67-.95v-2.35 0c0-.43.26-.81.66-.95v0c1.04-.37 1.58-1.52 1.21-2.56 -.21-.57-.65-1.02-1.22-1.22v0c-.4-.15-.67-.52-.67-.95v-2.35 0c0-.43.26-.81.66-.95V9.6c.56-.21 1.01-.66 1.22-1.22h-.001c.14-.4.51-.67.94-.67h2.34v0c.42 0 .8.26.94.66v0c.36 1.04 1.5 1.58 2.55 1.22 .57-.21 1.01-.66 1.22-1.23v0c.14-.4.51-.67.94-.67h2.34v0c.42 0 .8.26.94.66V8.35c.36 1.04 1.5 1.58 2.55 1.22 .57-.21 1.01-.66 1.22-1.23l-.001-.001c.14-.4.51-.67.94-.67h2.34V7.67c.42 0 .8.26.94.66v0c.36 1.04 1.5 1.58 2.55 1.22 .57-.21 1.01-.66 1.22-1.23v0c.14-.4.51-.67.94-.67h2.34v0c.42-.01.8.26.94.66V8.31c.36 1.04 1.5 1.58 2.55 1.22 .57-.21 1.01-.66 1.22-1.23v0c.14-.4.51-.67.94-.67h2.34v0c.42 0 .8.26.94.66V8.29c.2.56.65 1.01 1.22 1.22v0c.39.14.66.51.66.94v2.34 0c-.01.42-.27.8-.67.94v0c-1.05.36-1.59 1.5-1.23 2.55 .2.57.65 1.01 1.22 1.22v0c.39.14.66.51.66.94v2.34 0c-.01.42-.27.8-.67.94v0c-1.05.36-1.59 1.5-1.23 2.55 .2.57.65 1.01 1.22 1.22v0c.39.14.66.51.66.94v2.34 0c-.01.42-.27.8-.67.94v0c-1.05.36-1.59 1.5-1.23 2.55 .2.57.65 1.01 1.22 1.22v0c.39.14.66.51.66.94v2.34 0c-.01.42-.27.8-.67.94v0c-1.05.36-1.59 1.5-1.23 2.55 .2.57.65 1.01 1.22 1.22v0c.39.14.66.51.66.94v2.34 0c-.01.42-.27.8-.67.94v0c-1.05.36-1.59 1.5-1.23 2.55 .2.57.65 1.01 1.22 1.22Zm-6.34-32.89v0c0-1.11-.9-2-2-2h-22v0c-1.11 0-2 .89-2 2v30 0c0 1.1.89 2 2 2h22v0c1.1 0 2-.9 2-2Zm-2.5 30h-21v0c-.28 0-.5-.23-.5-.5v-29 0c0-.28.22-.5.5-.5h21v0c.27 0 .5.22.5.5v29 0c0 .27-.23.5-.5.5Z" fill="#D3D3D3"/>
</svg>