<svg xmlns="http://www.w3.org/2000/svg" viewBox="0 0 64 64">
  <path fill-rule="evenodd" d="M55.17 27.41l-2.76 1.37v-.001c-.26.12-.42.38-.42.67v18.53 0c0 3.31-2.69 6-6 6H17.98v0c-3.32 0-6-2.69-6-6V28.96v0c-.01-.27-.17-.51-.42-.62L8.8 27.08v0c-.5-.22-.82-.7-.83-1.23v-.99 0c.02-.53.47-.94 1-.92h46v0c.55 0 1 .44 1 1v1.07 0c-.01.56-.33 1.08-.83 1.34Zm-44.24-7.9l-.001-.001c3.08-1.32 6.32-2.22 9.64-2.68v-.001c.34-.06.64-.29.77-.62l2.28-5.72v0c.6-1.52 2.07-2.52 3.71-2.52h9.27V7.96c1.63-.01 3.1.99 3.71 2.51l2.28 5.72v0c.13.32.42.55.77.61V16.8c3.32.46 6.56 1.36 9.64 2.67l0 0c.57.26.93.84.93 1.47v0 0c0 .55-.45 1-1 1h-42v0c-.56 0-1-.45-1-1v0 0c-.01-.64.36-1.21.93-1.48Zm27.25-3.65l-1.43-3.57 -.001 0c-.08-.19-.26-.32-.47-.32h-8.6v0c-.21 0-.39.12-.47.31l-1.43 3.56v-.001c-.06.12 0 .26.13.32 .03.01.07.02.11.01 1.81-.14 3.78-.23 5.94-.23 2.16 0 4.12.08 5.94.22v0c.13.01.25-.1.26-.23 0-.04-.01-.08-.02-.12Z" fill="#D3D3D3"/>
</svg>