<svg xmlns="http://www.w3.org/2000/svg" viewBox="0 0 64 64">
  <path fill-rule="evenodd" d="M31.574 42.58c-4.23 2.1-5.13 2.1-8.69-1.45 -3.56-3.56-3.56-4.46-1.45-8.69 2.91-5.85 5.22-15.35 10.12-20.26l-.001-.001c5.58-5.61 14.65-5.62 20.25-.03 5.6 5.58 5.61 14.65.02 20.25 -.01 0-.02.01-.03.02 -4.91 4.9-14.42 7.21-20.26 10.12Zm-16.12.14c3.64-1.51 2.89-2.94 5.83 0v0c2.94 2.93 1.5 2.19 0 5.82 -.96 2.3-.69 5.05-2.19 6.55h0c-1.21 1.2-3.17 1.21-4.37 0 -.01-.01-.01-.01-.01-.01 -1.31-1.3-1.13-2.58-2.19-3.65v0c-1.07-1.07-2.35-.89-3.65-2.19H8.87c-1.21-1.2-1.22-3.15-.03-4.35 0-.01.01-.02.02-.03 1.5-1.5 4.26-1.24 6.57-2.19Z" fill="#D3D3D3"/>
</svg>