<svg xmlns="http://www.w3.org/2000/svg" viewBox="0 0 64 64">
  <path fill-rule="evenodd" d="M48.05 26v0c.28-3.24 2.13-6.12 4.95-7.74v0c.95-.55 2.17-.22 2.72.74 .54.95.21 2.17-.75 2.72 -.01 0-.02 0-.02.01v0c-1.81 1.05-2.93 2.96-2.97 5.05v7.35h0c0 4.33-3.52 7.84-7.85 7.84 -.01 0-.01 0-.01 0H17.81h0c-4.34 0-7.85-3.52-7.85-7.85 -.01-.01-.01-.01-.01-.01V24.8h0c0-9.31 7.54-16.85 16.84-16.845h3.56v0c.87-.01 1.58.71 1.58 1.58 0 .14-.02.28-.06.42l-3.89 13.97h0c-.24.84.25 1.71 1.1 1.95 .13.03.28.05.42.05ZM17.99 44v0c3.31 0 6 2.68 6 6 0 3.31-2.69 6-6 6 -3.32 0-6-2.69-6-6v0c0-3.32 2.68-6 6-6Zm28 0v0c3.31 0 6 2.68 6 6 0 3.31-2.69 6-6 6 -3.32 0-6-2.69-6-6v0c0-3.32 2.68-6 6-6Z" fill="#D3D3D3"/>
</svg>