<svg xmlns="http://www.w3.org/2000/svg" viewBox="0 0 64 64">
  <path fill-rule="evenodd" d="M52.8 38.49v0c-.27.49-.89.67-1.38.4 -.05-.03-.09-.06-.13-.09v-.001c-1.56-1.04-3.17-2-4.83-2.86v0c-.45-.27-.61-.83-.38-1.29v0c1.2-2.74 1.84-5.69 1.89-8.68 0-4.33-2.63-7.62-6.78-7.97v0c-.54-.07-1.01-.39-1.25-.87h0c-1.19-2.05-2.78-3.82-4.68-5.23v0c-.33-.26-.4-.73-.14-1.06 .09-.14.23-.23.39-.27l0-.001c1.61-.42 3.27-.63 4.94-.63 8.83 0 15.5 6.87 15.5 16v0c-.11 4.35-1.21 8.62-3.2 12.49ZM39.99 25v0c.01 1.52-.25 3.03-.78 4.46v0c-.14.4-.58.62-.98.49 -.05-.02-.1-.04-.15-.07 -8.08-4.85-6.84-11.89-14.61-11.89 -4.42 0-7.5 3.29-7.5 8h-.001c.04 2.98.68 5.93 1.88 8.66v0c.23.46.06 1.02-.38 1.29l-.001 0c-1.66.86-3.27 1.81-4.82 2.85l-.001-.001c-.45.33-1.08.25-1.42-.2 -.04-.05-.06-.09-.09-.14h-.001c-2-3.88-3.09-8.15-3.2-12.5 0-9.13 6.66-16 15.5-16 9.25 0 16.5 6.58 16.5 15ZM24.9 34.45v0c1.36 1.8 2.97 3.41 4.78 4.78h-.001c.32.25.39.72.13 1.05 -.06.06-.12.12-.19.17 -3.82 2.4-8.41 4.65-12.16 7.65v0c-1.73 1.37-4.25 1.09-5.63-.64 -.19-.23-.34-.48-.47-.74h-.001c-.81-1.76-.29-3.85 1.26-5.01l-.001-.001c3.49-2.72 7.13-5.25 10.89-7.59H23.5c.45-.29 1.05-.16 1.35.29Zm.97 10.79h0c.54-.31 1.2-.34 1.77-.08h-.001c1.36.59 2.84.88 4.33.83v0c1.48.04 2.97-.24 4.33-.84v0c.57-.27 1.23-.24 1.77.07v0c1.92.98 3.79 2.08 5.59 3.28l0-.001c.33.24.41.71.16 1.05 -.05.05-.1.11-.16.15h0c-3.35 2.64-7.47 4.13-11.73 4.25v0c-4.27-.13-8.38-1.62-11.73-4.26v0c-.34-.26-.4-.73-.15-1.07 .04-.06.09-.11.15-.16h0c1.8-1.21 3.67-2.3 5.59-3.29Zm-1.89-20.25v0c-.01-1.35.19-2.68.56-3.97v0c.16-.55.73-.85 1.28-.69 .01 0 .02 0 .04.01 2.6.95 4.02 5.564 8.12 9.32 3.76 3.46 10.61 6.721 17.37 12.08h0c1.55 1.19 2.04 3.31 1.17 5.06v0c-1.03 1.96-3.45 2.72-5.41 1.69 -.23-.12-.45-.27-.65-.43 -9.52-7.61-22.51-10.41-22.51-23.13Z" fill="#D3D3D3"/>
</svg>