<svg xmlns="http://www.w3.org/2000/svg" viewBox="0 0 64 64">
  <path fill-rule="evenodd" d="M55.02 52.02h-46v0c-.56 0-1-.45-1-1v-16 0c0-2.77 2.23-5 5-5h38v0c2.76 0 5 2.23 5 5v16 0c0 .55-.45 1-1 1Zm-4.16-5.56l-4.01-6v0c-.19-.28-.5-.45-.84-.45H17.99v0c-.34-.01-.65.16-.84.44l-4.01 6h-.001c-.31.45-.19 1.08.27 1.38 .16.1.35.16.55.16h36.01v0c.55 0 1-.45 1-1 0-.2-.06-.4-.17-.56Zm-4.85-18.45h-28v0c-.56 0-1-.45-1-1v-16 0c0-1.66 1.34-3 3-3h24v0c1.65 0 3 1.34 3 3v16 0c0 .55-.45 1-1 1Z" fill="#D3D3D3"/>
</svg>