<svg xmlns="http://www.w3.org/2000/svg" viewBox="0 0 64 64">
  <path fill-rule="evenodd" d="M22.99 35.99c0-5.67-6.01-8.85-6.01-16v-.001c0-8.84 7.16-16.01 16-16 0 0 0 0 0 0v0c7.98-.21 14.65 6.02 15 13.99v0c0 .82-1 1.25-1 2v0c-.02.18.02.37.11.53l4.64 7.08v-.001c.45.72.23 1.68-.5 2.14 -.25.15-.54.23-.83.23h-.95v0c-.28 0-.5.22-.5.5v7.47 0c-.01 1.12-.92 2.02-2.04 2.02 -.01-.01-.02-.01-.03-.01l0-.001c-1.45-.13-2.88-.37-4.29-.74l-1.19-.24v0h0c-1.14-.23-2.26.43-2.63 1.52l-.77 2.29v0c-.22.64-.09 1.35.34 1.88 1.87 2.33 4.63 6.24 4.56 9.37v0c-.07 1.05-.94 1.88-2 1.88H15.89v0c-1.1 0-1.99-.88-2-1.98 -.03-7.29 9-12.35 9-18.03Z" fill="#D3D3D3"/>
</svg>