<svg xmlns="http://www.w3.org/2000/svg" viewBox="0 0 64 64">
  <path fill-rule="evenodd" d="M32.01 56.02v0c-13.26 0-24-10.75-24-24 0-13.26 10.74-24 24-24 13.25 0 24 10.74 24 24v0c0 13.25-10.75 24-24 24Zm3.5-41v0c-1.94 0-3.5 1.56-3.5 3.5 0 1.93 1.56 3.5 3.5 3.5 1.93 0 3.5-1.57 3.5-3.5v0c-.01-1.94-1.57-3.5-3.51-3.5 -.01 0-.01 0-.01 0Zm7.6 14.83l-4.38-.8v0c-.15-.03-.28-.12-.35-.25l-1.54-2.73v0c-.4-.7-.99-1.26-1.7-1.62l-1.72-.86v0c-1.19-.6-2.55-.75-3.85-.44l-5.31 1.28v0c-1.35.32-2.3 1.53-2.3 2.91v4.57 0c0 .58.47 1.06 1.06 1.06 .53-.01.98-.4 1.05-.93l.58-4.29v0c.02-.17.15-.31.32-.32l4.23-.45v0c.06-.01.13.04.13.11 0 .02-.01.04-.02.06L26.96 32v0c-.71 1.45-1.19 3.01-1.42 4.61l-.62 4.13h-.001c-.02.13-.08.25-.16.35l-3.55 4.43v0c-.22.26-.33.59-.33.93l0-.001c0 .81.65 1.47 1.47 1.47v0c.45.02.89-.15 1.21-.47l3.67-3.86v0c.58-.62 1.07-1.33 1.43-2.1l1.63-3.45h0c.02-.07.1-.09.16-.06 0 0 .01 0 .02.01l4.21 3.27h-.001c.1.08.17.19.18.32l.78 5.97v0c.12.77.8 1.34 1.59 1.32v0c.86.02 1.58-.66 1.6-1.53 0-.03 0-.06-.01-.09l-.43-6.56h-.001c-.06-1.03-.5-1.99-1.24-2.69l-4.29-4.09v0c-.04-.04-.05-.1-.03-.15l1.88-4.24v0c.02-.07.1-.1.16-.07 .01 0 .03.02.04.03l.82 1.02v0c.66.83 1.66 1.31 2.73 1.31h4.22v0c.6 0 1.09-.49 1.09-1.09 0-.53-.38-.99-.9-1.08Z" fill="#D3D3D3"/>
</svg>