<svg xmlns="http://www.w3.org/2000/svg" viewBox="0 0 64 64">
  <path fill-rule="evenodd" d="M43 56H21v0c-1.66 0-3-1.35-3-3V29v0c0-1.66 1.34-3 3-3h22v0c1.65 0 3 1.34 3 3v24 0c0 1.65-1.35 3-3 3Zm-.1-45.54v0c-.21.41-.69.63-1.14.52l-3.41-.86v-.001c-.32-.08-.65-.12-.98-.12l-2.4-.02v2.5 0c0 .82-.68 1.5-1.5 1.5h-3v0c-.83 0-1.5-.68-1.5-1.5v-5 0c0-.83.67-1.5 1.5-1.5h7.5 -.001c.7 0 1.4.08 2.08.24l3.16.79v0c.53.13.86.67.72 1.21 -.02.07-.05.13-.08.2Zm-5.91 7.04v5 0c0 .82-.68 1.5-1.5 1.5h-7v0c-.83 0-1.5-.68-1.5-1.5v-5 0c0-.83.67-1.5 1.5-1.5h7v0c.82 0 1.5.67 1.5 1.5Z" fill="#D3D3D3"/>
</svg>