<svg xmlns="http://www.w3.org/2000/svg" viewBox="0 0 64 64">
  <path fill-rule="evenodd" d="M33.98 39.98H30v0c-.56-.01-1.01.44-1.02.99 -.01.01 0 .03 0 .04l.09 1.89h-.001c.22 4.71.71 9.41 1.46 14.07v0c.3.79 1.2 1.19 2 .88 .4-.16.73-.49.88-.89l0-.001c.74-4.67 1.23-9.36 1.46-14.08l.09-1.9v0c.02-.56-.41-1.03-.97-1.05 -.02-.01-.04-.01-.05-.01Zm5.98-11.72v0c-.59-.2-1-.72-1.05-1.34l-.83-10.67v0c-.05-.71.36-1.36 1.02-1.62l-.001 0c2.01-.84 3.67-2.37 4.67-4.31v0c.12-.24.19-.51.19-.78v0c0-.88-.72-1.59-1.59-1.59h-20.82v0c-.88 0-1.59.71-1.59 1.59h0c-.01.27.06.53.19.77v0c1 1.94 2.66 3.46 4.67 4.3v0c.66.25 1.07.9 1.02 1.61l-.82 10.66v0c-.06.61-.47 1.13-1.05 1.33 -2.46.87-6.04 3.26-6.04 7.71v.4 0c0 .87.71 1.59 1.59 1.59h24.81v0c.87 0 1.59-.72 1.59-1.59v-.41c0-4.46-3.58-6.85-6.04-7.72Z" fill="#D3D3D3"/>
</svg>