<svg xmlns="http://www.w3.org/2000/svg" viewBox="0 0 64 64">
  <path fill-rule="evenodd" d="M9.97 25c0 2.2 1.36 4 3.02 4s3.23-3 6-3c2.76 0 5 2.68 5 6 0 3.31-2.24 6-5 6 -2.77 0-4.339-3-6-3 -1.67 0-2.86 1.8-3.13 4 -.23 1.85-1.47 12.4-1.88 15.884v0c-.07.54.32 1.04.87 1.1 .03 0 .07 0 .11 0h11.9c2.21 0 4.09-1.35 4.09-3 0-1.66-3-3.24-3-6 0-2.77 2.67-5 6-5 3.32 0 6 2.23 6 5 0 2.76-3 4.34-3 6 0 1.65 1.72 3 3.93 3h8.05v0c.55 0 1-.45 1-1 0-.01 0-.01 0-.01v-8c0-2.21 1.34-4 3-4s3.23 3 6 3c2.76 0 5-2.69 5-6 0-3.32-2.24-6-5-6 -2.77 0-4.37 3-6.04 3s-3.15-1.8-2.98-4c.15-1.96.8-9.94 1.01-12.95v0c.03-.55-.38-1.03-.93-1.07 -.06-.01-.12-.01-.18 0 -2.27.22-7.3.81-8.97.97 -2.21.21-3.94-1.32-3.94-2.97 0-1.66 3-3.24 3-6 0-2.77-2.68-5-6-5 -3.33 0-6 2.23-6 5 0 2.76 3 4.343 3 6s-1.89 3.16-4.1 2.96c-1.8-.17-7.426-.78-9.85-1v0c-.55-.06-1.04.35-1.09.9 -.01.03-.01.06-.01.09Z" fill="#D3D3D3"/>
</svg>