<svg xmlns="http://www.w3.org/2000/svg" viewBox="0 0 64 64">
  <path fill-rule="evenodd" d="M51 54.006H13v0c-2.77-.01-5.01-2.24-5-5.01v-26.01 -.001c-.01-2.77 2.23-5.01 5-5.01 0 0 0-.001 0-.001h31.7L21.5 3.85V3.85c-.48-.3-.64-.93-.34-1.41 .28-.46.86-.62 1.34-.37l30.83 16.49v0c1.62.86 2.64 2.54 2.65 4.39v26 0c0 2.76-2.24 5-5 5ZM22 50v0c4.41 0 8-3.59 8-8 0-4.42-3.59-8-8-8 -4.42 0-8 3.58-8 8v0c0 4.41 3.58 8 8 8Zm30-27v0c0-.56-.45-1-1-1H13v0c-.56 0-1 .44-1 1v6 0c-.001.55.44 1 1 1h19.99v0c.32 0 .62-.13.85-.36l3.29-3.3v0c.47-.48 1.23-.48 1.7-.01 0 0 0 0 0 0l3.29 3.29v0c.22.22.53.35.85.35h8v0c.55-.01.99-.45.99-1Zm-3 10.99h-.001c-1.66-.01-3.01 1.34-3.01 2.99 -.01 1.65 1.34 3 2.99 3 1.65 0 3-1.35 3-3 0-.01 0-.01 0-.01v0c0-1.66-1.35-3.01-3-3.01 -.01-.001-.01-.001-.01-.001Zm0 10h-.001c-1.66-.01-3.01 1.34-3.01 2.99 -.01 1.65 1.34 3 2.99 3 1.65 0 3-1.35 3-3 0-.01 0-.01 0-.01v0c0-1.66-1.35-3.01-3-3.01 -.01-.01-.01-.01-.01-.01Zm-27-5.01v0c1.65 0 3 1.34 3 3 0 1.65-1.35 3-3 3 -1.66 0-3-1.35-3-3v0c0-1.66 1.34-3 3-3Z" fill="#D3D3D3"/>
</svg>