<svg xmlns="http://www.w3.org/2000/svg" viewBox="0 0 64 64">
  <path fill-rule="evenodd" d="M54 29v0c0 3.86-3.14 7-7 7H19h0c-4.98-.01-9-4.04-9-9.01 0-4.6 3.47-8.46 8.04-8.95h0c.51-6.05 5.83-10.53 11.88-10.02 3.54.3 6.72 2.3 8.53 5.37v0c4.16-1.43 8.68.8 10.1 4.96 .42 1.25.53 2.6.31 3.91v-.001c3.01.83 5.1 3.57 5.11 6.71ZM20.17 39.11h-.001c.49-.99 1.69-1.39 2.68-.9 .98.49 1.38 1.69.89 2.68l-7.01 14h-.001c-.5.98-1.7 1.39-2.69.89 -.99-.5-1.4-1.7-.9-2.69 0-.01 0-.01 0-.01Zm10 0v0c.49-.99 1.69-1.39 2.68-.9 .98.49 1.38 1.69.89 2.68l-7.01 14v0c-.5.98-1.7 1.38-2.69.89 -.99-.5-1.39-1.7-.9-2.69Zm10 0v0c.49-.99 1.69-1.39 2.68-.9 .98.49 1.38 1.69.89 2.68l-7.003 14v0c-.5.98-1.7 1.38-2.69.89 -.99-.5-1.39-1.7-.9-2.69Z" fill="#D3D3D3"/>
</svg>