<svg xmlns="http://www.w3.org/2000/svg" viewBox="0 0 32 32">
  <path fill-rule="evenodd" d="M60 44h-2 -.01c-1.11-.01-2-.9-2-2 0 0 0-.001 0-.001h-.01v0c0-13.26-10.75-24-24-24 -13.26 0-24 10.74-24 23.99h-.01v0c0 1.1-.9 2-2 2h-2 -.01c-1.11-.01-2-.9-2-2 0 0 0-.001 0-.001h0l0 0c-.01-16.57 13.43-30 29.99-30 16.56-.01 29.99 13.43 29.99 29.99 0 0 0 0 0 0h0l0 0c0 1.1-.9 2-2 2 -.01 0-.01-.001-.01-.001ZM32 20l-.01 0c12.14-.01 21.99 9.84 21.99 21.99 0 0 0 0 0 0h0v0c0 1.1-.9 2-2 2h-2 -.01c-1.11-.01-2-.9-2-2 0 0 0-.001 0-.001h-.01v0c0-8.84-7.17-16-16-16 -8.84 0-16 7.16-16 15.99h-.01v0c0 1.1-.9 2-2 2h-2 -.01c-1.11-.01-2-.9-2-2 0 0 0-.001 0-.001h0l-.001-.01c-.01-12.15 9.84-22 21.99-22 0-.001 0 0 0 0Zm0 8l-.01 0c7.73-.01 13.99 6.26 13.99 13.99h0v0c0 1.1-.9 2-2 2h-2 -.01c-1.11-.01-2-.9-2-2 0 0 0-.001 0-.001v0 0c0-4.42-3.59-8-8-8 -4.42 0-8 3.58-8 8v0 0c0 1.1-.9 2-2 2h-2 -.01c-1.11-.01-2-.9-2-2 0 0 0-.001 0-.001h0l-.001 0c0-7.74 6.26-14 13.99-14Z" transform="scale(0.5,0.5)" fill="#D3D3D3"/>
</svg>