<svg xmlns="http://www.w3.org/2000/svg" viewBox="0 0 64 64">
  <path fill-rule="evenodd" d="M38.02 9.02c0-.56.89-1 2-1 1.1 0 2 .44 2 1 0 .55.89 1 2 1 1.1 0 2-.45 2-1 0-.56.89-1 2-1 1.1 0 2 .44 2 1v46c0 .55-.9 1-2 1 -1.11 0-2-.45-2-1 0-.56-.9-1-2-1 -1.11 0-2 .44-2 1 0 .55-.9 1-2 1 -1.11 0-2-.45-2-1 0-.56-.9-1-2-1 -1.11 0-2 .44-2 1 0 .55-.9 1-2 1 -1.11 0-2-.45-2-1 0-.56-.9-1-2-1 -1.11 0-2 .44-2 1 0 .55-.9 1-2 1 -1.11 0-2-.45-2-1 0-.56-.9-1-2-1 -1.11 0-2 .44-2 1 0 .55-.9 1-2 1 -1.11 0-2-.45-2-1v-46c0-.56.89-1 2-1 1.1 0 2 .44 2 1 0 .55.89 1 2 1 1.1 0 2-.45 2-1 0-.56.89-1 2-1 1.1 0 2 .44 2 1 0 .55.89 1 2 1 1.1 0 2-.45 2-1 0-.56.89-1 2-1 1.1 0 2 .44 2 1 0 .55.89 1 2 1 1.1 0 2-.45 2-1Zm1 33h6v0c.55 0 1-.45 1-1 0-.56-.45-1-1-1h-6v0c-.56 0-1 .44-1 1 0 .55.44 1 1 1Zm0-6h6v0c.55 0 1-.45 1-1 0-.56-.45-1-1-1h-6v0c-.56 0-1 .44-1 1 0 .55.44 1 1 1Zm0-6h6v0c.55 0 1-.45 1-1 0-.56-.45-1-1-1h-6v0c-.56 0-1 .44-1 1 0 .55.44 1 1 1Zm-20 12h8v0c.55 0 1-.45 1-1 0-.56-.45-1-1-1h-8v0c-.56 0-1 .44-1 1 0 .55.44 1 1 1Zm0-6h14v0c.55 0 1-.45 1-1 0-.56-.45-1-1-1h-14v0c-.56 0-1 .44-1 1 0 .55.44 1 1 1Zm0-8v0c-.56 0-1 .44-1 1 0 .55.44 1 1 1h12v0c.55 0 1-.45 1-1 0-.56-.45-1-1-1Zm8-10v0c-.56 0-1 .44-1 1v2 0c0 .55.44 1 1 1h10v0c.55 0 1-.45 1-1v-2 0c0-.56-.45-1-1-1Z" fill="#D3D3D3"/>
</svg>