<svg xmlns="http://www.w3.org/2000/svg" viewBox="0 0 64 64">
  <path fill-rule="evenodd" d="M55.3 33.52L37.27 48.51v0c-.86.7-2.12.59-2.83-.26 -.3-.36-.47-.82-.47-1.28v-7.99h-8.52l2.42 7.73h-.001c.28.92-.24 1.9-1.16 2.19 -.18.05-.35.07-.53.07H8.95v0c-.55 0-1-.44-1.01-.99 -.01-.38.21-.73.54-.9l8.45-4.23 -4.91-15.62h0c-.29-.93.23-1.91 1.15-2.2 .17-.06.34-.08.52-.08h20.2v-8.02 0c0-1.11.89-2.01 2-2.01 .46 0 .91.16 1.27.46l18.02 14.99v-.001c.84.7.96 1.96.25 2.81 -.08.09-.17.18-.26.25Z" fill="#D3D3D3"/>
</svg>