<svg xmlns="http://www.w3.org/2000/svg" viewBox="0 0 64 64">
  <path fill-rule="evenodd" d="M30 14.12v-5.1 -.001c0-.57.47-1.02 1.04-1.01 .2 0 .4.06.57.18l9.94 6.98v-.001c.45.31.56.93.25 1.38 -.07.09-.16.18-.26.25l-9.95 6.98v0c-.47.32-1.11.22-1.43-.25 -.13-.17-.19-.38-.19-.58v-4.85 0C21.2 19.2 15 27.2 16.12 35.97c1.11 8.76 9.11 14.96 17.88 13.84 7.99-1.02 13.98-7.82 13.97-15.88v0c0-1.11.89-2 2-2 1.1 0 2 .89 2 2v0c0 11.04-8.96 20-20 20 -11.05 0-20.01-8.96-20.01-20 -.01-10.27 7.77-18.87 17.99-19.9Z" fill="#D3D3D3"/>
</svg>