<svg xmlns="http://www.w3.org/2000/svg" viewBox="0 0 64 64">
  <path fill-rule="evenodd" d="M60.31 51.02v0c-.74 0-1.39-.47-1.61-1.17 -2.26-7.31-8.5-10.84-18.7-10.835v8.01h0c-.01 1.1-.9 2-2.01 2 -.47-.01-.93-.17-1.29-.47l-18.03-15.02v0c-.85-.71-.97-1.97-.26-2.82 .07-.1.16-.18.25-.26l18.02-15.02 -.001-.001c.84-.71 2.11-.6 2.82.25 .29.35.46.81.46 1.28v8.01c14.27.72 21.46 9.36 21.98 24.22h0c.04.93-.69 1.73-1.63 1.77 -.03 0-.05 0-.07 0ZM17.411 28.94v0c-1.7 1.41-1.93 3.93-.52 5.63 .15.18.32.35.51.51l5.15 4.28v0c.91.76 1.44 1.88 1.44 3.07v4.56 0c0 1.1-.9 2-2.01 2 -.47 0-.93-.17-1.29-.47L2.66 33.5h0c-.85-.71-.97-1.97-.26-2.82 .07-.1.16-.18.25-.26l18.02-15.02h-.001c.85-.71 2.11-.6 2.82.25 .29.36.46.81.46 1.28v4.56 0c0 1.18-.53 2.31-1.45 3.07Z" fill="#D3D3D3"/>
</svg>