<svg xmlns="http://www.w3.org/2000/svg" viewBox="0 0 64 64">
  <path fill-rule="evenodd" d="M32.02 56.02v0c-13.26 0-24-10.75-24-24 0-13.26 10.74-24 24-24 13.25 0 24 10.74 24 24v0c0 13.25-10.75 24-24 24Zm0-44v0c-11.05 0-20 8.95-20 20 0 11.04 8.95 20 20 20 11.04 0 20-8.96 20-20h-.001c-.01-11.05-8.96-20-20-20Zm1.07 25h-2.15 0c-.54 0-.99-.42-1.03-.95l-.92-17v0c-.03-.56.4-1.03.96-1.06 .01-.01.03-.01.05-.01h3.97v0c.55-.01 1.01.44 1.02.99 0 .01-.01.03-.01.05l-.92 17v-.001c-.04.53-.49.95-1.03.94Zm-1.09 3v0c1.65 0 3 1.34 3 3 0 1.65-1.35 3-3 3 -1.66 0-3-1.35-3-3v0c0-1.66 1.34-3 3-3Z" fill="#D3D3D3"/>
</svg>