<svg xmlns="http://www.w3.org/2000/svg" viewBox="0 0 64 64">
  <path fill-rule="evenodd" d="M40 42c-8 0-14.34-4.03-15.76-4.86h0c-.12-.07-.28-.04-.34.08 -.01.01-.02.02-.02.03l-1.52 3.78h-.001c-.23.56-.78.94-1.4.94h-8l0 0c-.62 0-1.18-.38-1.4-.95l-.001-.001c-1.03-3.6-1.57-7.32-1.6-11.06 0-4.8 1.85-9.744 1.99-16.27v0c0-.5.25-.95.67-1.22 1.8-1.157 7-4.15 16.01-4.52v0c.69-.05 1.29.49 1.33 1.18 0 0 0 .01 0 .01 .2 6.9 1.04 12.51 7.98 17.79 5.67 4.31 12.31 5.2 14.37 5.99 1.34.51 1.62 1.81 1.62 3.5 0 2.15-6.95 5.49-14 5.49Zm-23 1.99v0c3.31 0 6 2.68 6 6 0 3.31-2.69 6-6 6 -3.32 0-6-2.69-6-6v0c0-3.32 2.68-6 6-6Zm7.76 0h14.49v0c.41 0 .74.33.74.75 -.01.11-.03.23-.08.33l-1.05 2.08v0c-.26.5-.78.82-1.35.82H26.44h0c-.57-.01-1.09-.33-1.35-.83l-1.05-2.09v0c-.19-.38-.04-.83.33-1.01 .1-.06.21-.08.33-.08Zm22.23 0v0c3.31 0 6 2.68 6 6 0 3.31-2.69 6-6 6 -3.32 0-6-2.69-6-6v0c0-3.32 2.68-6 6-6Z" fill="#D3D3D3"/>
</svg>