<svg xmlns="http://www.w3.org/2000/svg" viewBox="0 0 64 64">
  <path fill-rule="evenodd" d="M8.29 44.28h0c-.4.39-.4 1.02-.001 1.41l9.99 10v0c.38.39 1.02.39 1.41 0 0-.01 0-.01 0-.01l36.013-36.01v0c.39-.4.39-1.03 0-1.42l-10-10.01v-.001c-.39-.4-1.03-.4-1.42-.01 -.01 0-.01 0-.01 0l-1.59 1.59v0c-.39.39-.39 1.02 0 1.41l3.02 3.02 0-.001c.38.38.38 1.01 0 1.4 -.39.38-1.02.38-1.41 0l-3.03-3.03v0c-.39-.39-1.03-.4-1.42-.01 -.01 0-.01 0-.01 0l-2.2 2.18v0c-.4.39-.4 1.02 0 1.41l5.02 5.02v0c.38.38.38 1.01 0 1.4 -.39.38-1.02.38-1.41 0l-5.03-5.03v0c-.39-.39-1.03-.4-1.42-.01 -.01 0-.01 0-.01 0l-2.19 2.18v0c-.4.39-.4 1.02 0 1.41l3.02 3.02v0c.38.38.38 1.01 0 1.4 -.39.38-1.02.38-1.41 0 0 0-.01-.01-.01-.01l-3.03-3.03v0c-.39-.39-1.03-.4-1.42-.01 -.01 0-.01 0-.01 0l-2.19 2.18v0c-.4.39-.4 1.02-.001 1.41l5.02 5.02v-.001c.38.38.38 1.01 0 1.4 -.39.38-1.02.38-1.41 0l-5.03-5.03h-.001c-.39-.39-1.03-.4-1.42-.01 -.01 0-.01 0-.01 0l-2.19 2.18v0c-.4.39-.4 1.02-.001 1.41l3.02 3.02h-.001c.38.38.38 1.01 0 1.4 -.39.38-1.02.38-1.41 0l-3.03-3.03h-.001c-.39-.39-1.03-.4-1.42-.01 -.01 0-.01 0-.01 0l-2.19 2.18v0c-.4.39-.4 1.02-.001 1.41l5.02 5.03v0c.38.38.38 1.01 0 1.4 -.39.38-1.02.38-1.41 0 -.01-.01-.01-.01-.01-.01l-5.03-5.04v0c-.39-.39-1.03-.4-1.42-.01 -.01 0-.01 0-.01 0l-2.2 2.18h-.001c-.4.39-.4 1.02 0 1.41l3.02 3.02h-.001c.38.38.38 1.01 0 1.4 -.39.38-1.02.38-1.41 0l-3.03-3.03h-.001c-.39-.39-1.03-.4-1.42-.01 -.01 0-.01 0-.01 0Z" fill="#D3D3D3"/>
</svg>