<svg xmlns="http://www.w3.org/2000/svg" viewBox="0 0 64 64">
  <path fill-rule="evenodd" d="M52.76 26.76l-6.64 6.63h-.001c-.79.78-2.05.78-2.83 0l-1.42-1.42c-2.35-2.35-2.36-6.34-.85-7.84 1.49-1.5 6.97-1.22 6.97-5.78v0c-.02-1.03-.44-2-1.17-2.71v0c-1.57-1.57-4.1-1.57-5.66-.01 -.01 0-.01 0-.01 0 -1.57 1.56-2.69 2.73-2.69 2.73v0c-.2.19-.2.51-.01.7 0 0 0 0 0 0l1.01 1.01v0c.65.65.65 1.71 0 2.37 -.32.31-.75.49-1.19.49h-3.78v0c-1.07 0-2.08-.43-2.83-1.18l-1.15-1.15v0c-.79-.79-.79-2.05-.01-2.83 0-.01 0-.01 0-.01l6.64-6.64v0c4.29-4.3 11.26-4.3 15.56-.01 4.29 4.29 4.29 11.26 0 15.56Zm-22.33-.31c-6.11 6.11-15.84 15.83-17.01 17h-.001c-1.96 1.95-1.96 5.11 0 7.07 1.95 1.95 5.11 1.95 7.07-.01 1.95-1.96 1.95-5.12 0-7.07v0c-.23-.2-.46-.39-.7-.57v0c-.91-.65-1.11-1.91-.46-2.81 .05-.09.12-.16.19-.24v0c.67-.69 1.74-.79 2.53-.25v0c.44.3.85.64 1.24 1.01h-.001c3.51 3.51 3.51 9.21-.01 12.72 -3.52 3.51-9.22 3.51-12.73-.01 -3.52-3.52-3.52-9.22-.001-12.73l17-17v0c.79-.77 2.06-.74 2.82.05 .74.77.74 1.99-.01 2.76Zm7.08 7.07v0c.78-.78 2.04-.78 2.82 0 .77.78.77 2.04-.01 2.82 -2.4 2.39-7.62 7.61-10.3 10.29h0c-.47.46-1.23.46-1.7-.01 -.23-.23-.36-.54-.36-.85v-1.51h-.001c-.01-.8.31-1.56.87-2.12 2.09-2.1 6.79-6.8 8.64-8.65Z" fill="#D3D3D3"/>
</svg>