<svg xmlns="http://www.w3.org/2000/svg" viewBox="0 0 64 64">
  <path fill-rule="evenodd" d="M50 35.96v0c-1.11 0-2.01-.9-2.01-2 -.01-.01-.01-.01-.01-.01V18.8L30.8 35.95l8.57 8.56v0c.78.78.77 2.04-.01 2.82 -.79.78-2.05.77-2.83-.01l-8.58-8.57 -12.62 12.59h-.001c-.78.77-2.04.77-2.82-.01 -.78-.78-.78-2.04 0-2.82 0-.01 0-.01 0-.01l12.6-12.59 -8.63-8.62v-.001c-.79-.79-.78-2.05 0-2.83 .78-.79 2.04-.78 2.82 0l8.62 8.61 17.2-17.19h-15.23v0c-1.11 0-2.01-.89-2.02-1.99 -.01-1.11.88-2.01 1.98-2.02 0-.01.01-.01.02 0h20.01v0c1.1-.01 2 .89 2 1.99v19.98 0c-.01 1.1-.9 1.99-2.01 1.99Z" fill="#D3D3D3"/>
</svg>