<svg xmlns="http://www.w3.org/2000/svg" viewBox="0 0 64 64">
  <path fill-rule="evenodd" d="M55.98 56.01h0c-1.71.03-3.4-.39-4.9-1.22v0c-1.94-1.06-4.28-1.06-6.21 0v0c-3.07 1.61-6.73 1.61-9.79 0v0c-.94-.55-2.02-.83-3.11-.79v0c-1.09-.04-2.17.24-3.11.79v0c-1.5.82-3.19 1.24-4.9 1.21v0c-1.71.03-3.4-.39-4.9-1.22v0c-.94-.55-2.02-.83-3.11-.79v0c-1.09-.04-2.17.24-3.11.79v0c-1.5.82-3.19 1.24-4.9 1.21v0c-1.11 0-2.01-.9-2.01-2.01 0-1.11.89-2.01 2-2.01v0c1.08.03 2.16-.24 3.1-.79h-.001c1.49-.83 3.18-1.25 4.89-1.22v0c1.7-.04 3.39.38 4.89 1.21v0c.93.54 2.01.82 3.1.78v0c1.08.03 2.16-.24 3.1-.79v0c1.49-.83 3.18-1.25 4.89-1.22v0c1.7-.04 3.39.38 4.89 1.21v-.001c1.93 1.05 4.27 1.05 6.2 0h-.001c3.06-1.62 6.72-1.62 9.78 0v0c.93.54 2.01.82 3.1.78v0c1.1 0 2 .89 2 2 0 1.1-.9 2-2.01 2Zm-1-18.03H36.82h-.001c-.46-.01-.83-.37-.83-.83 0-.01 0-.01 0-.01v0c-.01-.12.02-.23.06-.33h-.001c1.34-3.46 1.99-7.14 1.91-10.85v0c.07-3.73-.59-7.43-1.92-10.91l-.001 0c-.05-.1-.07-.21-.07-.32l0-.001c0-.45.36-.81.8-.81 .01 0 .03 0 .05 0 10.14.68 18.53 13.28 19.12 22.94l-.001 0c.03.55-.39 1.03-.95 1.06 -.03 0-.05 0-.07 0Zm-.46 2.01l0-.001c.79 0 1.44.64 1.44 1.44 -.01.36-.14.7-.38.97l-.001-.001c-1.73 1.83-3.66 3.47-5.74 4.88v0c-.65.44-1.42.68-2.2.69v0c-1.92.02-3.79.5-5.47 1.41h0c-1.38.77-3.05.77-4.43-.01v-.001c-1.78-.97-3.77-1.46-5.79-1.43v0c-2.02-.04-4.02.45-5.79 1.42v-.001c-.67.4-1.44.61-2.21.57h-.001c-.78.03-1.55-.17-2.22-.58l0-.001c-1.78-.97-3.77-1.46-5.79-1.43v0c-1.63-.03-3.25.28-4.74.92v0c-.46.19-.99-.01-1.19-.46 -.06-.12-.08-.24-.08-.37v-6.62 0c-.01-.83.67-1.51 1.49-1.51 0-.01 0-.01 0-.01Zm-22.04-2.01H6.96v0c-.56 0-1-.45-1.01-1 -.01-.25.08-.48.24-.66L32.2 6.33v0c.36-.42.99-.47 1.41-.11 .21.18.34.46.34.75v29.48 0c-.01.82-.68 1.49-1.51 1.49 -.01-.01-.01-.01-.01-.01Z" fill="#D3D3D3"/>
</svg>