<svg xmlns="http://www.w3.org/2000/svg" viewBox="0 0 64 64">
  <path fill-rule="evenodd" d="M46.01 54.02h-28v0c-3.32-.01-6-2.69-6-6.01V44h0c0-1.11.89-2 2-2 1.1 0 2 .89 2 2v4 0c0 1.1.89 1.99 2 2h28v0c1.1-.01 1.99-.9 2-2.01v-4.01 0c0-1.11.89-2 2-2 1.1 0 2 .89 2 2v4h0c-.01 3.31-2.69 5.99-6 6Zm-14-46.01v0c1.1 0 2 .89 2 2v19.98H39v-.001c.56.01 1.01.47 1 1.04 -.01.2-.07.4-.19.57l-6.99 9.97h-.001c-.32.45-.94.56-1.39.25 -.1-.07-.19-.16-.26-.26l-6.99-9.98 0 0c-.33-.47-.23-1.11.24-1.44 .16-.13.36-.19.57-.19h4.98V9.95h-.001c0-1.11.89-2 2-2Z" fill="#D3D3D3"/>
</svg>