<svg xmlns="http://www.w3.org/2000/svg" viewBox="0 0 64 64">
  <path fill-rule="evenodd" d="M52 25.98h-6.98v0c-.56 0-1-.45-1-1v-10 0c0-.56.44-1 1-1h6.97v0c1.1 0 2 .89 2 2v8 0c0 1.1-.9 2-2 2 -.01 0-.01-.01-.01-.01Zm-9.22 30.78l-7.42 3.06v0c-1.03.42-2.21-.07-2.63-1.1 -.02-.04-.03-.07-.04-.1v0c-1.93-5.91-2.85-12.1-2.71-18.31V13.97v0c0-1.11.89-2.01 2-2 0 0 0 0 0 0h8.01v0c1.1-.01 2 .89 2 1.99 0 0 0 0 0 0v26.335h0c-.12 4.72.52 9.43 1.89 13.94v0c.33.99-.16 2.08-1.13 2.48ZM9.99 23.97v-8 0c-.001-1.11.89-2 2-2h14.98v0c.55 0 1 .44 1 1v10 0c0 .55-.45 1-1 1H11.98v0c-1.11 0-2.01-.9-2.01-2 -.01-.01-.01-.01-.01-.01Zm43.93 21.78v0c.28 1.06-.35 2.16-1.42 2.44l-6.47 1.73v0c-.59.15-1.19-.2-1.34-.78 -.01-.04-.02-.07-.03-.11l0 0c-.48-2.89-.7-5.82-.68-8.75V28.93v0c0-.56.44-1 1-1h3.18v0c.56 0 1.06.38 1.2.92Z" fill="#D3D3D3"/>
</svg>