<svg xmlns="http://www.w3.org/2000/svg" viewBox="0 0 64 64">
  <path fill-rule="evenodd" d="M54 50.99v2 0c0 .55-.45 1-1 1H11v0c-.56 0-1-.45-1-1v-2 0c0-.56.44-1 1-1h.75v0c.13 0 .25-.12.25-.25v-25.5 0c0-.14-.12-.25-.25-.25H11v0c-.56 0-1-.45-1-1v-2 0c0-.56.44-1 1-1h4.75v0c.13 0 .25-.12.25-.25v-2.75 0c0-.56.44-1 1-1h13.75v0c.13 0 .25-.12.25-.25V7.52v0c0-.85.68-1.54 1.53-1.54v0h-.001c.3 0 .59.08.85.25l5.03 3.35v0c.36.24.57.64.58 1.08v0 0c0 .71-.59 1.3-1.31 1.3 -.01 0-.01 0-.01 0h-4.45v0c-.14 0-.25.11-.25.25v3.5 0c0 .13.11.25.25.25h13.75v0c.55 0 1 .44 1 1v2.75 0c0 .13.11.25.25.25h4.75v0c.55 0 1 .44 1 1v2 0c0 .55-.45 1-1 1h-.75v0c-.14 0-.25.11-.25.25v25.5 0c0 .13.11.25.25.25h.75v0c.55 0 1 .44 1 1Zm-30-22v0c0-.56-.45-1-1-1h-6v0c-.56 0-1 .44-1 1v4 0c0 .55.44 1 1 1h6v0c.55 0 1-.45 1-1Zm0 12v0c0-.56-.45-1-1-1h-6v0c-.56 0-1 .44-1 1v4 0c0 .55.44 1 1 1h6v0c.55 0 1-.45 1-1Zm12-12v0c0-.56-.45-1-1-1h-6v0c-.56 0-1 .44-1 1v4 0c0 .55.44 1 1 1h6v0c.55 0 1-.45 1-1Zm0 13v0c0-2.21-1.8-4-4-4 -2.21 0-4 1.79-4 4v7 0 0c0 .55.44 1 1 1h6v0c.55 0 1-.45 1-1v-7Zm12-13v0c0-.56-.45-1-1-1h-6v0c-.56 0-1 .44-1 1v4 0c0 .55.44 1 1 1h6v0c.55 0 1-.45 1-1Zm0 12v0c0-.56-.45-1-1-1h-6v0c-.56 0-1 .44-1 1v4 0c0 .55.44 1 1 1h6v0c.55 0 1-.45 1-1Z" fill="#D3D3D3"/>
</svg>