<svg xmlns="http://www.w3.org/2000/svg" viewBox="0 0 64 64">
  <path fill-rule="evenodd" d="M58.02 39.02v0c0 1.1-.9 2-2 2h-48v0c-1.11 0-2-.9-2-2H6.01c-.01-1.32.34-2.6.99-3.74l6.37-11.15h0c.39-.69 1.12-1.12 1.91-1.12h10.51v0c1.21-.01 2.2.98 2.2 2.2v0c-.03.94-.66 1.77-1.57 2.04l0-.001c-2.23.73-3.65 2.91-3.42 5.24h-.001c.39 2.57 2.59 4.48 5.19 4.5h9.98 -.001c.66-3.24 2.88-5.95 5.93-7.23l-4.76-13.78h-2.19v0c-1.14 0-2.18-.65-2.69-1.66l-.45-.9v0c-.25-.5-.05-1.1.44-1.35 .13-.07.29-.11.44-.11h8.14v0c1.65-1.36 3.74-2.08 5.89-2 1.1 0 2 1.79 2 4 0 2.2-.9 4-2 4v-.001c-1.47.01-2.93-.31-4.26-.94l4.12 11.97v0c5.16.45 9.12 4.77 9.12 9.95Zm-41.81-18h-.001c-1.14-.01-2.18-.65-2.69-1.66l-.45-.9v0c-.25-.5-.05-1.1.44-1.35 .13-.07.29-.11.44-.11h10.77v0c1.13-.01 2.17.64 2.68 1.65l.44.89h0c.24.49.04 1.09-.45 1.34 -.14.06-.3.1-.45.1Zm8.7 22v0c.64.03 1.14.59 1.1 1.23 -.01.15-.05.3-.12.44h0C24.54 47.86 21.45 49.94 18 50v-.001c-3.45-.06-6.55-2.14-7.89-5.32h-.001c-.29-.59-.05-1.29.53-1.58 .14-.07.29-.11.44-.12Zm30 0v0c.64.03 1.14.59 1.1 1.23 -.01.15-.05.3-.12.44v0c-1.77 4.35-6.74 6.45-11.1 4.68 -2.14-.87-3.83-2.56-4.69-4.69v0c-.29-.59-.05-1.29.53-1.58 .14-.07.29-.11.44-.12Z" fill="#D3D3D3"/>
</svg>