<svg xmlns="http://www.w3.org/2000/svg" viewBox="0 0 64 64">
  <path fill-rule="evenodd" d="M55.43 49.39l-6.01 6v0c-.79.78-2.05.78-2.83 0 -.79-.79-.79-2.05 0-2.83l2.58-2.59h-3.18v0c-4.42 0-8-3.59-8-8v-22 0 0c0-2.21-1.8-4-4-4 -2.21 0-4 1.79-4 4v30 0c0 1.1-.9 2-2 2 -1.11 0-2-.9-2-2v-30 0c0-2.21-1.8-4-4-4 -2.21 0-4 1.79-4 4v30 0c0 1.1-.9 2-2 2 -1.11 0-2-.9-2-2v-30 0c0-2.21-1.8-4-4-4v0c-1.11 0-2-.9-2-2 0-1.11.89-2 2-2v0c2.29-.01 4.48.99 6 2.72v0c2.9-3.32 7.94-3.65 11.25-.75 .26.23.51.48.74.74l0-.001c2.91-3.32 7.96-3.65 11.27-.74 1.73 1.51 2.72 3.71 2.72 6.01v22 0c0 2.2 1.79 4 4 4h3.18l-2.6-2.6 -.001-.001c-.79-.79-.79-2.05 0-2.83 .78-.79 2.04-.79 2.83-.001l6 6v0c.78.78.78 2.04-.01 2.82 -.01 0-.01 0-.01 0Z" fill="#D3D3D3"/>
</svg>