<svg xmlns="http://www.w3.org/2000/svg" viewBox="0 0 64 64">
  <path fill-rule="evenodd" d="M25.84 48.03h-.001c.86-.91 1.27-2.16 1.13-3.4l0 0c-.05-2.54 1.97-4.62 4.51-4.67 .04-.01.09-.01.14 0v0c1.24.14 2.49-.27 3.4-1.14l1.06-1.07v0c1.17-1.18 1.17-3.07 0-4.25 -.01-.01-.01-.01-.01-.01l-5.67-5.66 -.001-.001c-1.18-1.18-3.08-1.18-4.25 0l-1.07 1.06 0 0c-.87.9-1.28 2.15-1.14 3.4v0c.06 1.24-.43 2.46-1.35 3.31v0c-.86.91-2.07 1.4-3.32 1.34v0c-1.25-.15-2.5.26-3.41 1.13l-5.91 5.89h0c-2.74 2.73-2.74 7.17 0 9.9 2.73 2.73 7.17 2.73 9.9-.01 0-.01 0-.01 0-.01Zm24.08-37.76l4.44-2.23v0c.19-.1.42-.06.57.09l.9.9v0c.15.15.18.38.09.57l-2.23 4.44v0c-.29.57-.67 1.09-1.12 1.55L37.46 30.68v-.001c-.39.38-1.02.38-1.41 0l-2.82-2.82v-.001c-.39-.39-.39-1.02-.01-1.41 0-.01 0-.01 0-.01l15.1-15.1v0c.45-.46.97-.84 1.55-1.12Z" fill="#D3D3D3"/>
</svg>