<svg xmlns="http://www.w3.org/2000/svg" viewBox="0 0 64 64">
  <path fill-rule="evenodd" d="M54 33H10v0c-1.11 0-2-.9-2-2v-4 0c0-1.11.89-2 2-2h5.76l-.001 0c.5 0 .95-.35 1.08-.84l1.13-4.23h0c.1-.41-.14-.82-.54-.92 -.07-.02-.13-.03-.2-.03h-3.26v0c-1.11 0-2-.9-2-2 0-1.11.89-2 2-2h30v0c6.62 0 12 5.37 12 12v4 0c0 1.1-.9 2-2 2Zm-9.97-14h-19.8v0c-.51 0-.96.34-1.09.83L22 24.05h-.001c-.11.4.13.81.53.91 .06.01.12.02.19.02h26.76v-.001c.27 0 .5-.22.5-.5 0-.02-.01-.03-.01-.04v0c-.28-3.1-2.87-5.48-5.98-5.48ZM12.3 35h39.38v0c.51-.01.94.38.99.89l1.31 12.27h-.001c.04.41-.26.78-.67.82 -.03 0-.06 0-.09 0h-2.96 0c-.37 0-.68-.27-.74-.63l-.48-2.88v0c-.05-.29-.3-.5-.59-.5h-1v0c-.29 0-.54.2-.59.49l-.48 2.88v0c-.07.36-.38.62-.74.62h-4.4v0c-.37 0-.68-.27-.74-.63l-.48-2.88v0c-.06-.33-.36-.54-.68-.49 -.26.04-.45.23-.49.48l-.48 2.88v0c-.07.36-.38.62-.75.62h-20.4v0c-.37 0-.68-.27-.74-.63l-.48-2.88v0c-.06-.33-.36-.54-.68-.49 -.26.04-.45.23-.49.48l-.48 2.88h-.001c-.07.36-.38.62-.75.62h-2.95v0c-.42 0-.76-.34-.76-.75 -.01-.03 0-.06 0-.09l1.31-12.28h-.001c.05-.51.48-.9.99-.9Z" fill="#D3D3D3"/>
</svg>