<svg xmlns="http://www.w3.org/2000/svg" viewBox="0 0 64 64">
  <path fill-rule="evenodd" d="M29.01 10.02v-.001c10.47-.02 18.98 8.46 19 18.94 0 4.09-1.32 8.07-3.76 11.35l10.25 8.67v0c1.64 1.4 1.84 3.88.43 5.52 -1.41 1.64-3.89 1.84-5.53.43 -.16-.14-.31-.29-.44-.44l-8.68-10.26v0c-8.43 6.24-20.33 4.47-26.57-3.95 -6.25-8.43-4.48-20.33 3.94-26.57 3.27-2.43 7.24-3.74 11.31-3.74Zm0 34v0c8.28 0 15-6.72 15-15 0-8.29-6.72-15-15-15 -8.29 0-15 6.71-15 15v0c0 8.28 6.71 14.99 15 14.99Z" fill="#D3D3D3"/>
</svg>