<svg xmlns="http://www.w3.org/2000/svg" viewBox="0 0 64 64">
  <path fill-rule="evenodd" d="M52 54H12v0c-1.11 0-2-.9-2-2v-8 0c0-1.11.89-2 2-2h40v0c1.1 0 2 .89 2 2v8 0c0 1.1-.9 2-2 2Zm-30-7v0c0-.56-.45-1-1-1h-6v0c-.56 0-1 .44-1 1v2 0c0 .55.44 1 1 1h6v0c.55 0 1-.45 1-1Zm30-9H12v0c-1.11 0-2-.9-2-2v-8 0c0-1.11.89-2 2-2h40v0c1.1 0 2 .89 2 2v8 0c0 1.1-.9 2-2 2Zm-30-7v0c0-.56-.45-1-1-1h-6v0c-.56 0-1 .44-1 1v2 0c0 .55.44 1 1 1h6v0c.55 0 1-.45 1-1Zm30-9H12v0c-1.11 0-2-.9-2-2v-8 0c0-1.11.89-2 2-2h40v0c1.1 0 2 .89 2 2v8 0c0 1.1-.9 2-2 2Zm-30-7v0c0-.56-.45-1-1-1h-6v0c-.56 0-1 .44-1 1v2 0c0 .55.44 1 1 1h6v0c.55 0 1-.45 1-1Z" fill="#D3D3D3"/>
</svg>