<svg xmlns="http://www.w3.org/2000/svg" viewBox="0 0 64 64">
  <path fill-rule="evenodd" d="M6.57 50.57h-.001c-.79.78-.79 2.04 0 2.82 .37.37.88.58 1.41.58h42.99v0c1.65 0 3-1.35 3-3v-43 0c-.01-1.11-.9-2-2.01-2 -.54 0-1.04.21-1.42.58l-5.59 5.58v0c-.4.39-.4 1.02 0 1.41l2.73 2.73v-.001c.38.38.38 1.01 0 1.4 -.39.38-1.02.38-1.41 0l-2.74-2.74v0c-.4-.4-1.03-.4-1.42-.01 -.01 0-.01 0-.01 0l-7.19 7.18v0c-.4.39-.4 1.02 0 1.41l2.73 2.73v0c.38.38.38 1.01 0 1.4 -.39.38-1.02.38-1.41 0l-2.74-2.74v-.001c-.4-.4-1.03-.4-1.42-.01 -.01 0-.01 0-.01 0l-7.19 7.18v0c-.4.39-.4 1.02 0 1.41l2.73 2.74v0c.38.38.38 1.01 0 1.4 -.39.38-1.02.38-1.41 0l-2.74-2.75v0c-.4-.4-1.03-.4-1.42-.01 -.01 0-.01 0-.01 0l-7.19 7.18h-.001c-.4.39-.4 1.02 0 1.41l2.74 2.74v-.001c.38.38.38 1.01 0 1.4 -.39.38-1.02.38-1.41 0 -.01-.01-.01-.01-.01-.01l-2.75-2.75h0c-.4-.4-1.03-.4-1.42-.01 -.01 0-.01 0-.01 0Zm36.52-22.39L28.17 43.09v0c-.21.2-.21.52 0 .73 .09.09.22.15.36.15h14.918l-.001-.001c.28 0 .51-.24.51-.52 0-.01-.01-.01-.01-.01v-14.92 0c0-.29-.24-.52-.52-.52 -.14-.01-.27.05-.37.15Z" fill="#D3D3D3"/>
</svg>