<svg xmlns="http://www.w3.org/2000/svg" viewBox="0 0 64 64">
  <path fill-rule="evenodd" d="M6 30.83c0 4.21 1.27 6.33 10.34 12.957h0c1.03.75 1.64 1.95 1.65 3.23v1.58 0c-.05 1.8 1.38 3.3 3.19 3.34 .36 0 .73-.05 1.08-.16l3.14-1.09v0c.3-.11.63-.06.9.12 1.5 1.03 2.72 1.87 3.63 2.48v0c1.23.84 2.85.84 4.08-.001 .9-.62 2.12-1.45 3.62-2.49v0c.26-.19.59-.23.9-.13l3.15 1.08v0c1.71.55 3.55-.38 4.11-2.1 .11-.35.16-.72.16-1.09v-1.6 0c0-1.29.61-2.49 1.65-3.24 9.07-6.62 10.34-8.75 10.34-12.957h0c-.11-3.17-1.04-6.25-2.7-8.95v0c-.5-.86-1.6-1.16-2.46-.66 -.2.11-.38.26-.52.44l-7.18 9.18v0c-.1.11-.27.13-.38.04 -.11-.08-.14-.22-.08-.34l6.01-12.017h0c.51-1.03.29-2.26-.55-3.04l0-.001c-1.8-1.68-3.8-3.12-5.96-4.29v0c-.9-.48-2.02-.14-2.49.75 -.06.09-.1.19-.13.29l-4.42 13.5v-.001c-.05.14-.2.21-.35.17 -.12-.04-.2-.16-.19-.28l1.33-14.84v0c.09-1.21-.74-2.3-1.94-2.51v0c-2.7-.45-5.45-.45-8.15 0h-.001c-1.2.21-2.04 1.3-1.94 2.51l1.33 14.83h-.001c.01.14-.11.27-.25.28 -.13 0-.24-.07-.28-.19l-4.42-13.51v0c-.32-.97-1.35-1.5-2.32-1.19 -.11.03-.21.07-.3.12l0-.001c-2.16 1.17-4.16 2.61-5.96 4.28h0c-.84.77-1.06 2.01-.55 3.03l6.01 12.017v-.001c.06.13.01.29-.13.36 -.12.05-.26.02-.34-.08l-7.18-9.19 0 0c-.62-.79-1.75-.92-2.53-.31 -.18.14-.34.31-.45.51h0c-1.67 2.69-2.6 5.77-2.7 8.94Z" fill="#D3D3D3"/>
</svg>