<svg xmlns="http://www.w3.org/2000/svg" viewBox="0 0 64 64">
  <path fill-rule="evenodd" d="M34.24 20.28c1.25 1.29 3.49.76 4.6-.7 1.1-1.47 3.57-4.7 4.01-5.279v0c.41-.43.73-.94.91-1.5v0c.13-.58.71-.93 1.28-.79 .11.02.23.07.33.14 .61.41.01 0 .01.01 0 0 1.31.88 2.67 1.8v0c1.36.92 2.35 2.29 2.81 3.87 .45 1.58 6.93 25.51 7.06 25.95v0c.12.43-.11.89-.53 1.06 -.43.16-4.92 1.86-5.37 2.03v0c-.45.16-.95-.06-1.12-.51 -.01-.01-.01-.01-.01-.02 -.17-.46-5.97-18.39-5.97-18.39v23 0c0 .55-.45 1-1 1h-10v0c-.56 0-1-.45-1-1V20.64v0c.01-.39.34-.69.73-.67 .2 0 .38.1.51.26Zm2.86-1.69v0c-.31.41-.9.5-1.32.2 -.05-.04-.09-.07-.13-.11 -.41-.43-2.02-2.09-2.39-2.47v0c-.38-.4-.38-1.01 0-1.41 .37-.39 5.94-6.15 6.31-6.53v0c.35-.38.94-.39 1.32-.04 .01.01.02.02.03.03v0c1.25 1.31 1.37 3.35.29 4.81 -1.1 1.44-3.79 5.02-4.14 5.49Zm-7.355 1.68l0-.001c.24-.31.68-.35.98-.11 .15.12.25.31.26.51v30.3 0c0 .55-.45.99-1 1h-10v0c-.56-.01-1-.45-1-1v-23.01s-5.81 17.93-5.97 18.38h0c-.16.44-.66.68-1.11.52 -.01-.01-.02-.01-.02-.01l-5.37-2.03H6.51c-.43-.17-.66-.63-.53-1.07 .12-.44 6.606-24.37 7.06-25.96v0c.45-1.59 1.44-2.96 2.81-3.88l2.67-1.81c0-.01-.61.4.01-.02v0c.49-.33 1.15-.19 1.47.3 .06.1.11.21.14.33v0c.18.56.5 1.07.91 1.49 .43.58 2.9 3.8 4.01 5.279 1.1 1.47 3.34 1.99 4.59.7Zm-1.44-1.6v0c-.36.37-.96.38-1.33.03 -.04-.04-.08-.08-.11-.13 -.36-.48-3.05-4.05-4.14-5.5v0c-1.09-1.46-.97-3.5.29-4.81v0c.35-.38.94-.39 1.32-.04 .01.01.02.02.03.03 .37.38 5.94 6.14 6.31 6.52v-.001c.37.39.37 1 0 1.4 -.38.38-1.99 2.04-2.39 2.46Z" fill="#D3D3D3"/>
</svg>