<svg xmlns="http://www.w3.org/2000/svg" viewBox="0 0 64 64">
  <path fill-rule="evenodd" d="M20.9 39.77v0c-1.07.13-1.87 1.03-1.87 2.1v0 0c0 1.17.95 2.12 2.12 2.12h26.92v0c1.1 0 2 .89 2 2 0 1.1-.9 2-2 2H20.53v0c-2.99 0-5.53-2.2-5.95-5.16l-3.89-27.14v0c-.15-.99-.99-1.72-1.99-1.72H3.97v0c-1.11 0-2-.9-2-2 0-1.11.89-2 2-2h4.72V9.96c2.98-.01 5.52 2.19 5.94 5.15l.12.84h36.23v0c1.1-.01 2 .89 2 1.99 0 .09-.01.19-.02.28l-2.28 15.9v0c-.17 1.11-1.05 1.98-2.17 2.12ZM20.03 50v0c2.2 0 3.99 1.79 3.99 4 -.01 2.2-1.8 3.99-4.01 3.99 -2.21-.01-4-1.8-4-4v0c0-2.22 1.79-4.01 4-4Zm24.04 0v0c2.2 0 3.99 1.79 3.99 4 -.01 2.2-1.8 3.99-4.01 3.99 -2.21-.01-4-1.8-4-4v0c0-2.22 1.79-4.01 4-4Z" fill="#D3D3D3"/>
</svg>