<svg xmlns="http://www.w3.org/2000/svg" viewBox="0 0 64 64">
  <path fill-rule="evenodd" d="M50.04 32.029v-.001c.55-.01 1 .44 1 .99 0 .05-.01.11-.02.16l-2.59 15.49h-.001c-.33 1.92-2 3.34-3.95 3.34H19.49v0c-1.96-.01-3.63-1.42-3.95-3.35l-2.59-15.5v0c-.1-.55.27-1.07.82-1.16 .05-.01.1-.02.16-.02ZM36.11 8.19l-.001-.001c.99-.5 2.19-.1 2.69.89l6.48 12.93h6.72v0c1.1 0 2 .89 2 2v4 0c0 1.1-.9 2-2 2h-40v0c-1.11 0-2-.9-2-2V24v0c0-1.11.89-2 2-2h6.75L25.2 9.09v0c.49-.99 1.69-1.39 2.68-.9 .98.49 1.38 1.69.89 2.68L23.2 21.98h17.54l-5.59-11.15v-.001c-.5-.99-.1-2.2.89-2.69 0-.01 0-.01 0-.01Z" fill="#D3D3D3"/>
</svg>