<svg xmlns="http://www.w3.org/2000/svg" viewBox="0 0 64 64">
  <path fill-rule="evenodd" d="M15.03 14.75c.41-1.72.77-2.92.98-3.6h0c.12-.4.47-.68.89-.7 2.07-.12 8.33-.46 15.09-.46 6.75 0 13.02.34 15.09.45l-.001-.001c.41.02.77.29.89.69 .21.67.56 1.88.98 3.59v0c.13.53-.2 1.08-.74 1.21 -.08.01-.16.02-.24.02h-32v0c-.56-.01-1.01-.46-1-1.02 0-.08.01-.16.02-.24Zm34.83 4.04l-.001 0c2.11 10.61 3.16 21.41 3.13 32.24v0c0 .31-.15.6-.4.79 -.93.68-3.64 2.16-9.61 2.16v-.001c-2.8.08-5.59-.19-8.31-.79h-.001c-.42-.11-.72-.47-.75-.9l-.92-11.86v0c-.03-.27-.24-.47-.5-.47h-1.08v0c-.27 0-.48.2-.5.46l-.92 11.85v0c-.04.42-.33.78-.75.89v0c-2.73.6-5.52.86-8.32.78 -5.97 0-8.68-1.49-9.61-2.17h0c-.26-.19-.4-.49-.4-.8h0c-.03-10.83 1.02-21.63 3.13-32.25v0c.09-.47.5-.8.97-.8h33.77 0c.47-.01.88.32.97.79Z" fill="#D3D3D3"/>
</svg>