<svg xmlns="http://www.w3.org/2000/svg" viewBox="0 0 64 64">
  <path fill-rule="evenodd" d="M57.008 53.98h-16v0c-.56 0-1-.45-1-1v-14 0c0-3.32 2.68-6 6-6v0 0c.55 0 1-.45 1-1v-11 0c0-.56-.45-1-1-1v0 0c-2.21 0-4-1.8-4-4v-7 0c0-.56.44-1 1-1h12v0c.55 0 1 .44 1 1v7 0c0 2.2-1.8 4-4 4v0 0c-.56 0-1 .44-1 1v11 0c0 .55.44 1 1 1v0 0c3.31 0 6 2.68 6 6v14 0c0 .55-.45 1-1 1Zm-6-38v0c.55 0 1-.45 1-1v-2.5 0c0-.28-.23-.5-.5-.5h-5v0c-.28 0-.5.22-.5.5v2.5 0c0 .55.44 1 1 1Zm-15 12H6v0c-1.11 0-2-.9-2-2v-2 0c0-1.11.89-2 2-2h30v0c1.1 0 2 .89 2 2v2 0c0 1.1-.9 2-2 2Zm-1.01 3.06l-1.27 20.11h0c-.1 1.58-1.42 2.82-3.01 2.82H11.25v0c-1.6 0-2.91-1.24-3.01-2.83L6.97 31.02H6.97c-.04-.56.38-1.03.93-1.07 .02-.01.04-.01.06-.01h26v0c.55 0 .99.44.99 1 -.01.02-.01.04-.01.06Z" fill="#D3D3D3"/>
</svg>