<svg xmlns="http://www.w3.org/2000/svg" viewBox="0 0 64 64">
  <path fill-rule="evenodd" d="M53.99 19.99v-1.5 0c0-.28-.23-.5-.5-.5h-6.28 -.001c-.27 0-.52.1-.71.29l-.48.47v0c-.25.25-.33.61-.23.95l0-.001c.45 1.72-.04 3.55-1.3 4.81l-.97.96v-.001c-.27.27-.36.67-.24 1.03v0c1.48 4.46.32 9.38-3 12.71 -1.45 1.45-3.41 1.57-11.28-6.32 -7.87-7.89-7.76-9.85-6.31-11.3v-.001c3.32-3.34 8.25-4.5 12.71-3v0c.36.12.76.03 1.03-.23l.94-.95v0c1.25-1.26 3.09-1.76 4.8-1.3v0c.33.1.69.01.95-.23l.43-.44v0c.94-.96 2.23-1.5 3.57-1.51h6.27v0c.27 0 .5-.23.5-.5v-1.51h-.001c-.01-1.11.89-2 1.99-2h.99v0c.55 0 .99.44.99 1v10 0c0 .55-.45.99-1 1h-1v-.001c-1.11-.01-2-.9-2-2ZM24.44 37.57h-.001c.78.78.78 2.05 0 2.84l-1.02 1.01v-.001c-.8.77-2.07.76-2.85-.04 -.77-.79-.77-2.04 0-2.82l1.01-1.02h-.001c.78-.79 2.05-.79 2.83-.01 0 0 0 0 0 0Zm-9.04-.18h0c-.8.77-2.07.75-2.84-.04 -.76-.78-.76-2.03 0-2.81l5.01-5.02v0c.79-.78 2.06-.76 2.83.04 .75.77.75 2.01-.01 2.79Zm-6 5.99h0c-.8.77-2.07.76-2.85-.04 -.77-.79-.77-2.04 0-2.82l1.01-1.02h0c.79-.78 2.06-.77 2.84.03 .76.78.76 2.03-.01 2.81Zm6.19.17h-.001c.77-.8 2.04-.82 2.83-.04 .79.77.81 2.04.03 2.83 -.02.01-.03.02-.04.03l-5.02 5.01v0c-.78.79-2.05.8-2.84.02 -.8-.78-.81-2.05-.03-2.84 0-.01.01-.02.02-.03Zm3.97 7.96l0-.001c.79-.78 2.06-.76 2.84.03 .76.78.76 2.02-.01 2.8l-1.02 1.01v0c-.79.78-2.06.78-2.85-.01s-.79-2.06 0-2.85Zm9.99-10h-.001c.77-.8 2.04-.82 2.83-.04 .79.77.81 2.04.03 2.83 -.02.01-.03.02-.04.03l-5.02 5.01v0c-.8.77-2.07.76-2.84-.03s-.77-2.03 0-2.82Z" fill="#D3D3D3"/>
</svg>