<svg xmlns="http://www.w3.org/2000/svg" viewBox="0 0 64 64">
  <path fill-rule="evenodd" d="M45.62 49.82v0c-.47.32-1.11.22-1.43-.25 -.13-.17-.19-.38-.19-.58V44h-4.17v0c-3.04-.01-5.91-1.39-7.8-3.76l-1.6-2.003v0c-.59-.74-.59-1.78-.001-2.51v0 0c.68-.87 1.94-1.01 2.8-.32 .11.09.22.19.31.31l1.59 2v0c1.13 1.42 2.86 2.25 4.69 2.25h4.15v-5 -.001c0-.57.47-1.02 1.03-1.01 .2 0 .4.06.57.18l9.94 6.98v0c.45.31.56.93.25 1.38 -.07.09-.16.18-.26.25Zm0-20v-.001c-.47.32-1.11.22-1.43-.25 -.13-.17-.19-.38-.19-.58v-4.99h-4.16v0c-1.83-.01-3.55.82-4.69 2.25l-11.2 13.99h-.001c-1.9 2.37-4.77 3.76-7.81 3.75H9.98v0c-1.11 0-2-.9-2-2 0-1.11.89-2 2-2h6.154l0-.001c1.82 0 3.54-.83 4.68-2.26l11.19-14v0c1.89-2.38 4.76-3.77 7.8-3.76h4.15v-5 0c0-.57.47-1.02 1.03-1.01 .2 0 .4.06.57.18l9.94 6.98v0c.45.31.56.93.25 1.38 -.07.09-.16.18-.26.25Zm-21.65-6.05l1.58 1.99v0c.68.86.54 2.12-.32 2.81 -.86.68-2.11.55-2.8-.31l-1.61-2.02v0c-1.14-1.43-2.86-2.26-4.68-2.26h-6.06v0C9.07 24 8.2 23.29 8 22.31v0c-.19-1.1.55-2.13 1.64-2.31 .1-.02.22-.03.33-.03h6.15l0 0c3.04 0 5.91 1.38 7.81 3.76Z" fill="#D3D3D3"/>
</svg>