<svg xmlns="http://www.w3.org/2000/svg" viewBox="0 0 64 64">
  <path fill-rule="evenodd" d="M47.95 31.27c-1.19 4.15-6.73 6.7-11.47 6.7v0c-.27 0-.49.22-.48.49 0 0 0 .01 0 .02l.97 18.44 -.001 0c.02.55-.41 1.02-.97 1.05 -.02 0-.04 0-.05 0h-7.97 -.001c-.56 0-1.01-.46-1.01-1.01 -.01-.02 0-.04 0-.05l.97-18.45h-.001c.01-.27-.19-.5-.46-.52 -.01-.01-.02-.01-.03-.01 -4.74 0-10.29-2.56-11.47-6.71v0c-.15-.55.18-1.1.72-1.24 .08-.03.17-.04.26-.04h29.94v0c.56-.01 1.01.44 1.01 1 0 .08-.02.17-.04.26Zm-8.96-3.28h-14v0c-1.66 0-3-1.35-3-3v-16 0c0-1.66 1.34-3 3-3h14v0c1.65 0 3 1.34 3 3v16 0c0 1.65-1.35 3-3 3Zm-1-17.5v0c0-.28-.23-.5-.5-.5h-11v0c-.28 0-.5.22-.5.5v13 0c0 .27.22.5.5.5h11v0c.27 0 .5-.23.5-.5Z" fill="#D3D3D3"/>
</svg>