<svg xmlns="http://www.w3.org/2000/svg" viewBox="0 0 64 64">
  <path fill-rule="evenodd" d="M61.75 26.2c-.14.31-3.57 7.79-14.76 7.79H16.98c-11.18 0-14.6-7.48-14.74-7.8v0c-.67-1.52.01-3.29 1.53-3.96 1.49-.67 3.25 0 3.93 1.49 .12.25 2.22 4.25 9.27 4.25h30c7.05 0 9.15-4.01 9.28-4.26v0c.68-1.52 2.45-2.19 3.96-1.51 1.51.68 2.18 2.45 1.5 3.96ZM15 36v0c2.76 0 5 2.23 5 5 0 2.76-2.24 5-5 5 -2.77 0-5-2.24-5-5v0c0-2.77 2.23-5 5-5Zm34 0v0c2.76 0 5 2.23 5 5 0 2.76-2.24 5-5 5 -2.77 0-5-2.24-5-5v0c0-2.77 2.23-5 5-5Z" fill="#D3D3D3"/>
</svg>