<svg xmlns="http://www.w3.org/2000/svg" viewBox="0 0 64 64">
  <path fill-rule="evenodd" d="M51 23c0-10.33-7.04-17-19-17 -11.97 0-19 6.67-19 17 0 6.33 3 8.58 3 10 0 1.41-1 2.9-1 4 0 1.92.99 2.84 7.57 3.93h-.001c.24.04.42.24.42.49 .05 5.56 1.2 6.57 8.99 6.57s8.94-1.02 8.99-6.58v0c0-.25.18-.46.42-.5 6.58-1.09 7.57-2.01 7.57-3.94 0-1.1-1-2.59-1-4 0-1.42 3-3.67 3-10ZM22.5 35c-2.88 0-3.5-3.34-3.5-5.5 0-2.17 2.93-3.5 6.5-3.5 2.87 0 3.5 3.33 3.5 5.5 0 2.16-2.94 3.5-6.5 3.5Zm11.27 8c-1.13 0-1-2-1.78-2 -.79 0-.66 2-1.78 2 -.7 0-1.23-.5-1.23-1.67 0-2.02 1.2-6.34 3-6.34 1.79 0 3 4.31 3 6.33 0 1.16-.54 1.66-1.23 1.66Zm7.72-8c-3.57 0-6.5-1.34-6.5-3.5 0-2.17.62-5.5 3.5-5.5 3.56 0 6.5 1.33 6.5 3.5 0 2.16-.63 5.5-3.5 5.5Zm3 7.07c-1.31.29-1.5.81-1.5 1.94v3.97c0 1.41-.44 3-1 3 -.57 0-.06-3-1-3 -.61 0-1.93 2-9 2 -7.08 0-8.4-2-9-2 -.95 0-.44 3-1 3 -.57 0-1-1.59-1-3V44c0-1.14-.19-1.66-1.5-1.95 -1.1-.25-1.5.11-1.5 1.19v4.72c0 4.36 5.2 10 14 10 8.79 0 14-5.64 14-10v-4.73c0-1.09-.41-1.45-1.5-1.2Z" fill="#D3D3D3"/>
</svg>