<svg xmlns="http://www.w3.org/2000/svg" viewBox="0 0 64 64">
  <path fill-rule="evenodd" d="M53 36c0 1.05 1 3.96 1 5 0 1.03-.17 2-5 2 -4.84 0-5.82-1-7-1 -.96 0-2 2.24-2 4 0 1.24.46 2 1 2 .53 0 .99-3 2-3l-.001-.001c1.98.27 3.99.44 6 .5 2.57 0 3.04-.5 4-.5 .72 0 1 .41 1 3 0 2.29 1 3.6 1 5 0 2.16-1.19 3-9 3 -9.01 0-10.05-.59-13-10 -1.08-3.43-2.3-5.38-4.06-5.88 -.71-.2-.83.21-.68.65 .35 1.06.99 2.97 1.38 4.16 .23.69.02 1.05-.61 1.05h-4.05c-9.48 0-17-6.14-17-18 0-13.26 7.46-22 22-22 13.4 0 22.99 6.95 22.99 17.99v0c.04 1.07.38 2.11 1 3 .95 1.73 2 3.09 2 4 0 1.52-3 3.94-3 5ZM38.19 20.05v0c-.46-.19-.97.02-1.16.47 -.03.05-.04.1-.05.16 -.15.47 1.36 2.28 1.07 3.24 -.29.96-1.62 1.98-2.55 5.07 -.93 3.09-.38 4.61-.67 5.57 -.29.96-2.67 1.69-2.81 2.16v0c-.18.42.02.91.44 1.08 .07.02.14.04.22.05 1.5.4 4.11-.46 4.49-1.72 .37-1.27 0-3.36.93-6.47 .93-3.12 2.43-4.71 2.81-5.97 .37-1.27-1.26-3.29-2.77-3.7Zm10.05 3.94c-1.2 0-3.25 1.2-3.25 4.5s2.05 4.5 3.25 4.5c1.08 0 1.75-.93 1.75-4.5 0-3.58-.67-4.5-1.75-4.5Z" fill="#D3D3D3"/>
</svg>