<svg xmlns="http://www.w3.org/2000/svg" viewBox="0 0 64 64">
  <path fill-rule="evenodd" d="M54 29v0c0 3.86-3.14 7-7 7H19h0c-4.98-.01-9-4.04-9-9.01 0-4.6 3.47-8.46 8.04-8.95l0-.001c.51-6.05 5.83-10.53 11.88-10.02 3.54.3 6.72 2.3 8.53 5.37v0c4.16-1.43 8.68.79 10.1 4.95 .42 1.25.53 2.6.31 3.91v0c3.01.83 5.1 3.57 5.11 6.71ZM14.21 51.11h0c.48-1 1.67-1.42 2.67-.94 .99.48 1.41 1.67.93 2.67 -.01.01-.02.03-.03.04l-1 2v0c-.5.98-1.71 1.38-2.69.88 -.98-.5-1.38-1.69-.9-2.68Zm3-6.01l3-6.01 0-.001c.49-.99 1.69-1.39 2.68-.9 .98.49 1.38 1.69.89 2.68l-3.01 6v0c-.5.98-1.7 1.38-2.69.89 -.99-.5-1.39-1.7-.9-2.69Zm9 2h0c.49-.99 1.69-1.39 2.68-.9 .98.49 1.38 1.69.89 2.68l-3.01 6h0c-.5.98-1.7 1.38-2.69.89 -.99-.5-1.39-1.7-.9-2.69Zm3-6.01l1-2.01v0c.49-.99 1.69-1.39 2.68-.9 .98.49 1.38 1.69.89 2.68l-1 2v0c-.5.98-1.7 1.38-2.69.89 -.99-.5-1.39-1.7-.9-2.69Zm5 10v0c.49-.99 1.7-1.39 2.68-.89 .97.49 1.37 1.68.89 2.67l-1 2v0c-.5.98-1.71 1.38-2.69.88 -.98-.5-1.38-1.69-.9-2.68Zm3-6.01l3-6.01v0c.49-.99 1.69-1.39 2.68-.9 .98.49 1.38 1.69.89 2.68l-3.01 6v0c-.5.98-1.7 1.38-2.69.89 -.99-.5-1.39-1.7-.9-2.69Z" fill="#D3D3D3"/>
</svg>