<svg xmlns="http://www.w3.org/2000/svg" viewBox="0 0 64 64">
  <path fill-rule="evenodd" d="M56.02 42.02v0c0 1.1-.9 2-2 2h-20v1.27l11.99 6.99v0c.94.55 1.27 1.77.72 2.73v0c-.54.94-1.74 1.27-2.69.74 -.01-.01-.02-.01-.03-.02l-10.02-5.84v4.1 0c0 1.1-.9 2-2 2 -1.11 0-2-.9-2-2v-4.11l-10.02 5.83h0c-.95.54-2.15.22-2.7-.72 -.01-.01-.01-.02-.02-.03v-.001c-.55-.96-.23-2.18.72-2.74l11.99-7v-1.28h-20v0c-1.11 0-2-.9-2-2 0-1.11.89-2 2-2v-24 0c-1.11 0-2-.9-2-2 0-1.11.89-2 2-2h20v-2 0c0-1.11.89-2 2-2 1.1 0 2 .89 2 2v2h20v0c1.1 0 2 .89 2 2 0 1.1-.9 2-2 2v24 0c1.1-.01 2 .89 2 1.99 0 0 0 0 0 0Zm-13.56-14.9l-16-8 0-.001c-.5-.25-1.1-.05-1.35.44 -.07.13-.11.29-.11.44v16 0c-.01.55.44 1 .99 1 .15 0 .3-.04.44-.11l16-8v0c.49-.25.69-.85.44-1.35 -.1-.2-.26-.36-.45-.45Z" fill="#D3D3D3"/>
</svg>