<svg xmlns="http://www.w3.org/2000/svg" viewBox="0 0 64 64">
  <path fill-rule="evenodd" d="M32 56v0C18.74 56 8 45.25 8 32 8 18.74 18.74 8 32 8c13.25 0 24 10.74 24 24v0c0 13.25-10.75 24-24 24Zm0-44v0c-11.05 0-20 8.95-20 20 0 11.04 8.95 20 20 20 11.04 0 20-8.96 20-20v0c0-11.05-8.96-20-20-20Zm15 25h-2v0c-.56 0-1-.45-1-1v-4 0c0-.56.44-1 1-1h2v0c.55 0 1 .44 1 1v4 0c0 .55-.45 1-1 1Zm-1-8v0c-1.11 0-2-.9-2-2v-.5 0c-.01-.28-.23-.5-.5-.5h-6 -.001c-3.04-.01-5.5-2.47-5.5-5.5V20h0c0-1.11.89-2 2-2 1.1 0 2 .89 2 2v.5 0c0 .82.67 1.49 1.5 1.5h6 -.001c2.48 0 4.49 2.01 4.5 4.5v.5 0c0 1.1-.9 2-2 2Zm-4 3v4 0c0 .55-.45 1-1 1H17v0c-.56 0-1-.45-1-1v-4 0c0-.56.44-1 1-1h24v0c.55 0 1 .44 1 1Z" fill="#D3D3D3"/>
</svg>