<svg xmlns="http://www.w3.org/2000/svg" viewBox="0 0 64 64">
  <path fill-rule="evenodd" d="M32 56v0C18.74 56 8 45.25 8 32 8 18.74 18.74 8 32 8c13.25 0 24 10.74 24 24v0c0 13.25-10.75 24-24 24ZM12 32v0c-.01 11.04 8.94 19.99 19.99 20 4.61 0 9.08-1.6 12.65-4.52L16.5 19.34l0 0c-2.93 3.56-4.52 8.03-4.52 12.64Zm20-20v-.001c-4.62-.01-9.1 1.59-12.66 4.52l28.14 28.14h-.001c6.99-8.55 5.73-21.15-2.82-28.14 -3.58-2.93-8.05-4.53-12.67-4.53Zm15 25h-2v0c-.56 0-1-.45-1-1v-4 0c0-.56.44-1 1-1h2v0c.55 0 1 .44 1 1v4 0c0 .55-.45 1-1 1Zm-1-8v0c-1.11 0-2-.9-2-2v-.5 -.001c-.01-.28-.23-.5-.5-.5h-6v0c-3.04-.01-5.5-2.47-5.5-5.5v-.5 0c0-1.11.89-2 2-2 1.1 0 2 .89 2 2v.5 -.001c0 .82.67 1.49 1.5 1.5h6v0c2.48 0 4.49 2.01 4.5 4.5v.5 0c0 1.1-.9 2-2 2Zm-4 3v3.13 0c0 .27-.23.5-.5.5 -.14 0-.27-.06-.36-.15l-3.64-3.64v0c-.2-.2-.2-.52 0-.71 .09-.1.22-.15.35-.15h3.13v0c.55 0 1 .44 1 1Zm-26 4v-4 0c0-.56.44-1 1-1h7.51v0c.53 0 1.03.21 1.41.58l4.56 4.56v0c.19.19.19.51 0 .7 -.1.09-.23.14-.36.14H16.98v0c-.56 0-1-.45-1-1Z" fill="#D3D3D3"/>
</svg>