<svg xmlns="http://www.w3.org/2000/svg" viewBox="0 0 64 64">
  <path fill-rule="evenodd" d="M51.89 22.791l-3.99 2.3 2.99 1.72v0c.92.5 1.31 1.62.92 2.6v0c-.45 1-1.63 1.46-2.64 1.01 -.07-.03-.13-.06-.19-.1l-4.1-2.37v0c-.63-.36-1.39-.36-2.01 0l-6.94 4.01 6.93 4.01v0c.61.35 1.38.35 2 0l3.99-2.31v-.001c.85-.52 1.96-.35 2.62.4v0c.7.84.59 2.1-.26 2.81 -.09.07-.18.13-.28.19l-3.11 1.79 3.98 2.3v0c.92.5 1.32 1.62.92 2.6h-.001c-.45 1-1.63 1.45-2.64 1.01 -.07-.03-.13-.07-.19-.1l-4.01-2.32v3.48 0c.02 1-.68 1.87-1.67 2.07v0c-1.09.18-2.13-.54-2.32-1.63 -.02-.11-.03-.23-.03-.34v-4.77h0c-.01-.72-.39-1.38-1-1.74l-7.01-4.06v8.15 0c0 .71.38 1.37 1 1.73l3.9 2.25v0c.92.5 1.31 1.62.92 2.6v0c-.45 1-1.63 1.46-2.64 1.01 -.07-.03-.13-.06-.19-.1l-3.02-1.74v4.5 0c.02 1-.68 1.88-1.67 2.07v0c-1.1.18-2.13-.55-2.31-1.64 -.02-.12-.03-.23-.03-.34v-4.61l-2.92 1.68h0c-.86.51-1.97.35-2.63-.41h0c-.71-.85-.6-2.11.25-2.82 .08-.08.17-.14.27-.2l4.01-2.32v0c.61-.36 1-1.02 1-1.74v-8.16l-7.01 4.05v0c-.62.35-1 1.01-1 1.73v4.64 0c.02 1-.68 1.87-1.67 2.07h0c-1.09.18-2.13-.54-2.32-1.63 -.02-.11-.03-.23-.03-.34v-3.6l-3.91 2.26v-.001c-.86.52-1.97.35-2.63-.4l-.001 0c-.71-.86-.59-2.12.26-2.83 .08-.08.17-.14.27-.19l4.08-2.37 -3-1.73 -.001 0c-.93-.51-1.32-1.63-.93-2.6v-.001c.44-1.01 1.62-1.47 2.63-1.02 .06.02.12.05.18.09l4.09 2.36v0c.62.35 1.38.35 2-.01l6.93-4.02 -6.94-4.02v0c-.62-.36-1.39-.36-2.01-.01l-4 2.3v0c-.86.51-1.97.35-2.63-.41h0c-.71-.85-.6-2.11.25-2.82 .08-.08.17-.14.27-.2l3.1-1.79 -3.99-2.31h-.001c-.93-.51-1.33-1.63-.93-2.61h-.001c.44-1.01 1.62-1.46 2.63-1.02 .06.02.12.06.18.09l4 2.31v-3.49 0c-.03-1.01.67-1.88 1.66-2.08v0c1.08-.19 2.12.53 2.31 1.62 .01.1.02.21.02.33v4.76h0c0 .71.38 1.37.99 1.73l7 4.05v-8.16h-.001c-.01-.72-.39-1.38-1.01-1.74l-3.91-2.26v0c-.93-.51-1.32-1.63-.93-2.6v0c.44-1.01 1.62-1.47 2.63-1.02 .06.02.12.05.18.09l3.01 1.74v-4.5h0c-.03-1.01.67-1.89 1.66-2.08v0c1.09-.19 2.12.54 2.3 1.63 .01.11.02.22.02.33v4.6l2.91-1.69v0c.85-.52 1.96-.36 2.62.4v0c.7.84.59 2.1-.26 2.81 -.09.07-.18.13-.28.19l-4.02 2.31v0c-.62.35-1.01 1.01-1.01 1.73v8.15l7-4.06v-.001c.61-.36.99-1.02.99-1.74v-4.65 0c-.03-1.01.67-1.88 1.66-2.08v0c1.08-.19 2.12.53 2.31 1.62 .01.1.02.22.02.33v3.6l4-2.32v0c.95-.56 2.17-.23 2.72.72 .03.06.06.12.09.18v0c.39.97-.01 2.09-.93 2.6Z" fill="#D3D3D3"/>
</svg>