<svg xmlns="http://www.w3.org/2000/svg" viewBox="0 0 64 64">
  <path fill-rule="evenodd" d="M55.11 35.31c-1.81 2.18-5.07 5.9-10.49 11.317 -5.42 5.41-9.13 8.68-11.32 10.48v-.001c-1.42 1.16-3.46 1.18-4.9.04l0 0c-2.51-2-4.91-4.14-7.18-6.41h0c-2.27-2.27-4.41-4.67-6.41-7.18h-.001c-1.15-1.44-1.13-3.48.04-4.9 1.8-2.19 5.06-5.9 10.486-11.32 5.41-5.42 9.12-8.69 11.31-10.49v-.001c1.41-1.17 3.45-1.19 4.89-.05l0 0c2.5 1.99 4.9 4.13 7.17 6.4v-.001c2.26 2.26 4.4 4.66 6.4 7.17v0c1.14 1.43 1.12 3.47-.05 4.89Zm-4.83-4.44c-1.18-1.39-2.67-3.03-4.41-4.77 -1.74-1.74-3.39-3.23-4.78-4.4v0c-1.13-.96-2.78-.95-3.9.02 -2.14 1.86-5.11 4.59-9 8.48 -3.89 3.88-6.63 6.85-8.49 8.98h-.001c-.98 1.11-.99 2.76-.03 3.88 1.17 1.38 2.66 3.03 4.4 4.76 1.73 1.73 3.38 3.22 4.77 4.39h0c1.12.95 2.77.94 3.89-.03 2.13-1.87 5.1-4.6 8.99-8.49 3.89-3.89 6.62-6.86 8.49-8.99l-.001 0c.97-1.12.98-2.77.02-3.89Zm-9.9 11.51c-3.77 3.76-6.67 6.44-8.77 8.28h0c-.49.42-1.22.43-1.71 0 -1.32-1.13-2.86-2.53-4.49-4.16 -1.63-1.63-3.03-3.18-4.151-4.49h-.001c-.43-.49-.43-1.22 0-1.71 1.84-2.1 4.51-5 8.28-8.77 3.76-3.77 6.66-6.45 8.76-8.29v0c.48-.43 1.21-.44 1.7-.01 1.31 1.12 2.85 2.52 4.48 4.15 1.62 1.62 3.02 3.17 4.15 4.48v-.001c.42.48.42 1.21-.01 1.7 -1.85 2.09-4.52 4.99-8.29 8.76ZM25.99 17.99v0c-2.21 0-4-1.8-4-4 0-2.21 1.79-4 4-4 2.2 0 4 1.79 4 4v0c0 2.2-1.8 4-4 4Zm-12 12v0c-3.32 0-6-2.69-6-6 0-3.32 2.68-6 6-6 3.31 0 6 2.68 6 6v0c0 3.31-2.69 6-6 6Zm1-18v0c-1.66 0-3-1.35-3-3 0-1.66 1.34-3 3-3 1.65 0 3 1.34 3 3v0c0 1.65-1.35 3-3 3Z" fill="#D3D3D3"/>
</svg>