<svg xmlns="http://www.w3.org/2000/svg" viewBox="0 0 64 64">
  <path fill-rule="evenodd" d="M48.92 52.01v0c-2.21 3.82-7.1 5.13-10.93 2.93 -.01-.01-.01-.01-.01-.01l-14-8.05v0c-3.72-2.15-6.01-6.11-6-10.4V20.96v0c0-.56.44-1 1-1h14v0c.55 0 1 .44 1 1v11.46 0c-.01 1.07.57 2.06 1.5 2.6l10.49 6.01v0c3.82 2.21 5.13 7.1 2.92 10.93ZM32.99 18h-14v0c-.56 0-1.01-.45-1.01-1 -.001-.01 0-.01 0-.01v-2.01 0c-.01-.56.44-1.01.99-1.01 0-.01 0-.01 0-.01h14v0c.55-.01 1 .44 1 .99 0 0-.01 0-.01 0v2 0c0 .55-.45 1-1 1 -.01 0-.01 0-.01 0Zm0-6h-14v-.001c-.56 0-1.01-.45-1.01-1 -.001-.01 0-.01 0-.01V8.97v0c-.01-.56.44-1.01.99-1.01 0-.01 0-.01 0-.01h14v0c.55-.01 1 .44 1 .99 0 0-.01 0-.01 0v2 0c0 .55-.45 1-1 1 -.01 0-.01 0-.01 0Z" fill="#D3D3D3"/>
</svg>