<svg xmlns="http://www.w3.org/2000/svg" viewBox="0 0 64 64">
  <path fill-rule="evenodd" d="M41 39H23v0c-.56 0-1-.45-1-1v-7 0c0-.56.44-1 1-1h18v0c.55 0 1 .44 1 1v7 0c0 .55-.45 1-1 1Zm.02-11H22.97v0c-.32-.01-.6-.2-.71-.5v0c-.18-.49-.28-1-.27-1.51 0-5.125 6-10.67 6-15v-1 0c-.56 0-1-.45-1-1v-4 0c0-.56.44-1 1-1h8v0c.55 0 1 .44 1 1v4 0c0 .55-.45 1-1 1v1c0 4.33 6 9.87 6 15v0c0 .51-.1 1.02-.27 1.5v0c-.11.29-.4.49-.71.49Zm-18.2 13h18.33 -.001c.49.07.85.5.83 1 0 1.88-1 2.91-1 5.5 0 3.49 1 4.58 1 7 0 2.08-2.45 5.5-3.25 5.5h-1.13c-.82 0-1.49-2-2.375-2 -.89 0-1.7 2-2.75 2h-1c-1.06 0-1.87-2-2.75-2 -.89 0-1.57 2-2.38 2h-1.13c-.81 0-3.25-3.42-3.25-5.5 0-2.42 1-3.51 1-7 0-2.59-1-3.62-1-5.5v-.001c-.02-.5.34-.93.83-1Z" fill="#D3D3D3"/>
</svg>