<svg xmlns="http://www.w3.org/2000/svg" viewBox="0 0 64 64">
  <path fill-rule="evenodd" d="M24.125 55.74v-.001c-4.07.57-8.22.15-12.09-1.24v0c-1.22-.38-2.06-1.51-2.05-2.79v0 0c-.01-.5.12-.99.37-1.42 1.61-2.84 6.593-13.57 20.63-15.31 3.36-13.49 13.19-20.17 15.67-26.09v0c.23-.56.77-.91 1.37-.91h1.51v0c.58-.01 1.11.33 1.36.86v0c2.36 4.81 3.39 10.16 2.99 15.51h-.001c-1.18 16.22-13.65 29.35-29.79 31.36Zm9.38-13.95v0c-.31-.59-.8-1.05-1.4-1.31v0c-2.96-.9-6.14-.56-8.84.95v0c-2.67 1.45-4.58 3.96-5.28 6.91l-.001 0c-.07.64.09 1.28.46 1.82h0c.3.58.79 1.04 1.39 1.3v0c2.95.89 6.13.55 8.83-.96v0c2.66-1.46 4.57-3.97 5.27-6.92v-.001c.06-.65-.1-1.29-.47-1.83Zm15.98-19.92v-.001c-.26-.61-.72-1.1-1.31-1.4v-.001c-.54-.37-1.18-.54-1.82-.47v0c-2.96.69-5.47 2.6-6.92 5.26h0c-1.51 2.69-1.86 5.87-.96 8.82v0c.25.6.71 1.09 1.3 1.39v0c.53.36 1.17.53 1.82.46v0c2.95-.7 5.46-2.61 6.92-5.27v0c1.5-2.7 1.85-5.88.95-8.83Z" fill="#D3D3D3"/>
</svg>