<svg xmlns="http://www.w3.org/2000/svg" viewBox="0 0 64 64">
  <path fill-rule="evenodd" d="M54.9 36.33L40.97 50.25v0c-.47.49-1.13.75-1.81.72v0c-1.65-.12-3.08 1.12-3.2 2.77 -.02.14-.02.28 0 .42l0 0c.02.67-.24 1.33-.73 1.8l-.93.92v0c-1.43 1.42-3.73 1.42-5.15-.001L15 42.72v0c-1.43-1.43-1.43-3.73-.001-5.15l8.92-8.93h-.001c.46-.5 1.12-.76 1.8-.73v0c1.64.11 3.07-1.13 3.19-2.78 0-.14 0-.28 0-.42v-.001c-.03-.68.23-1.34.72-1.81l5.92-5.93v0c1.42-1.43 3.72-1.43 5.14-.01 0 0 0 0 0 0v0c.78.78 1.22 1.84 1.22 2.94h0c-.01 1.63 1.32 2.97 2.96 2.97 0 0 0 0 .01 0h-.001c1.1-.01 2.16.43 2.94 1.22l7 7h-.001c1.42 1.42 1.42 3.72 0 5.14 -.01 0-.01 0-.01 0Zm-24.91 6.66v0c0 1.65 1.34 3 3 3 1.65 0 3-1.35 3-3 0-1.66-1.35-3-3-3v0c-1.66 0-3 1.34-3 3Zm5-15v0c-1.66 0-3 1.34-3 3 0 1.65 1.34 3 3 3 1.65 0 3-1.35 3-3v0c0-1.66-1.35-3-3-3Zm10 4v0c-1.66 0-3 1.34-3 3 0 1.65 1.34 3 3 3 1.65 0 3-1.35 3-3v0c0-1.66-1.35-3-3-3Zm-19-14v0c-2.21 0-4-1.8-4-4 0-2.21 1.79-4 4-4 2.2 0 4 1.79 4 4v0c0 2.2-1.8 4-4 4Zm-12 12v0c-3.32 0-6-2.69-6-6 0-3.32 2.68-6 6-6 3.31 0 6 2.68 6 6v0c0 3.31-2.69 6-6 6Zm1-18v0c-1.66 0-3-1.35-3-3 0-1.66 1.34-3 3-3 1.65 0 3 1.34 3 3v0c0 1.65-1.35 3-3 3Z" fill="#D3D3D3"/>
</svg>