<svg xmlns="http://www.w3.org/2000/svg" viewBox="0 0 64 64">
  <path fill-rule="evenodd" d="M45 10v0c.55 0 1-.45 1-1V7v0c0-.56-.45-1-1-1H33c-5.04 0-7.76 1.89-8.66 2.67v-.001c-.22.19-.35.46-.35.75v0c0 .35.18.67.48.86l4.14 2.48v0c.22.13.36.37.36.64v1.57 0c0 .55.44 1 1 1h6v0c.55 0 1-.45 1-1v-1.44 0c-.01-.32.25-.57.56-.57 .19-.01.37.1.47.26l2.74 4.39v0c.13.21.36.34.61.34v0 0c.33-.01.59-.27.59-.6v-6.91 0c0-.28.22-.5.5-.5Zm-15.02 8h5.01v0c.55 0 1 .44 1 1v7.5 -.001c0 .94.44 1.83 1.2 2.4l4.8 3.6v0c1.25.94 2 2.42 2 4v16.5 0c0 1.65-1.35 3-3 3h-16v0c-1.66 0-3-1.35-3-3v-16.49 0c0-1.66.34-3.3 1-4.81l5.6-12.81h0c.23-.55.77-.9 1.37-.9Z" fill="#D3D3D3"/>
</svg>