<svg xmlns="http://www.w3.org/2000/svg" viewBox="0 0 32 32">
  <path fill-rule="evenodd" d="M32 56l-.01-.001c-13.26-.01-24-10.75-24-24 0-13.26 10.74-24 24-24 13.25 0 24 10.74 24 24l0-.01c0 13.25-10.75 24-24 24Zm4-6.96l0 0c0 1.07.87 1.94 1.95 1.93 .21-.01.43-.04.64-.12l-.01 0c5.74-2.02 10.26-6.53 12.28-12.28l0-.01c.36-1.02-.17-2.13-1.18-2.49 -.21-.08-.43-.12-.65-.12h-1.07l-.01 0c-6.63 0-12 5.37-12 12 0 0 0 0 0 0ZM13.116 38.59l0 0c2.01 5.74 6.53 10.26 12.28 12.27l0 0c1.01.36 2.12-.17 2.48-1.18 .07-.21.11-.43.11-.65v-1.05 0c0-6.63-5.38-12-12-12 0 0-.01 0-.01 0h-1.07l-.01 0c-1.08 0-1.94.87-1.94 1.95 0 .22.03.43.11.64ZM32 11.99l0-.001c-8.51 0-16.09 5.37-18.89 13.41l0-.01c-.36 1.01.17 2.12 1.18 2.47 .2.07.42.11.64.11 3.98 0 6.92-4 17.06-4 10.13 0 13.07 4 17.06 4l-.01 0c1.07-.01 1.93-.88 1.93-1.95 -.01-.22-.04-.44-.12-.65l-.01-.01c-2.81-8.04-10.39-13.41-18.89-13.41Z" transform="scale(0.5,0.5)" fill="#D3D3D3"/>
</svg>