<svg xmlns="http://www.w3.org/2000/svg" viewBox="0 0 64 64">
  <path fill-rule="evenodd" d="M60 38h-.001c-.01 3.42-2.19 6.47-5.44 7.56h-.001c-.38.13-.63.47-.66.86v0c-.79 8.24-8.12 14.29-16.37 13.5 -7.7-.74-13.58-7.21-13.58-14.94v0 0c-.01-.68-.47-1.26-1.12-1.43v-.001c-3.78-1.02-6.84-3.78-8.23-7.43L8.48 19.83H8.48c-1.71-4.53.57-9.58 5.1-11.29 .06-.03.12-.05.18-.07v0c.31-.12.57-.34.74-.63v0c1.15-1.89 3.62-2.49 5.51-1.33 1.88 1.15 2.48 3.62 1.32 5.51 -1.16 1.88-3.63 2.48-5.52 1.32 -.32-.2-.61-.43-.86-.71v-.001c-.17-.17-.42-.2-.62-.09h0c-.64.34-1.19.83-1.6 1.43v0c-.91 1.28-1.11 2.93-.55 4.4l6.1 16.27h-.001c1.57 4.19 6.25 6.31 10.44 4.73 2.18-.83 3.91-2.55 4.73-4.74l6.1-16.28 0 0c.56-1.47.35-3.12-.55-4.41v0c-.42-.6-.97-1.09-1.6-1.44v0c-.21-.12-.46-.09-.62.08v-.001c-1.51 1.61-4.03 1.7-5.65.2 -1.62-1.51-1.71-4.03-.21-5.65s4.02-1.71 5.64-.21c.26.24.49.52.68.82v0c.17.28.43.5.74.62h-.001c4.56 1.6 6.96 6.6 5.35 11.16 -.03.06-.05.12-.07.18l-6.11 16.27v0c-1.39 3.65-4.45 6.41-8.23 7.42h0c-.66.16-1.11.75-1.12 1.42v0h0c0 6.07 4.92 11 11 10.99 5.46-.01 10.1-4.02 10.88-9.43v0c.06-.47-.21-.92-.65-1.09h-.001c-4.15-1.54-6.26-6.14-4.72-10.28 1.53-4.15 6.13-6.26 10.27-4.72 3.13 1.16 5.21 4.15 5.21 7.5Zm-8.01-3v0c-1.66 0-3 1.34-3 3 0 1.65 1.34 2.99 3 2.99 1.65-.01 2.99-1.35 2.99-3h0c-.01-1.66-1.35-3.01-3.01-3 -.01 0-.01 0-.01 0Z" fill="#D3D3D3"/>
</svg>