<svg xmlns="http://www.w3.org/2000/svg" viewBox="0 0 64 64">
  <path fill-rule="evenodd" d="M27.01 10.61v-2.6 0c0-1.11.89-2 2-2h6v0c1.1 0 2 .89 2 2v2.59 0c3.28.77 6.35 2.29 8.96 4.44l1.53-1.54v0c-.72-.79-.7-2 .05-2.75l1.18-1.19v0c.78-.79 2.04-.79 2.82 0l2.82 2.82v0c.78.78.78 2.04 0 2.82l-1.19 1.18v0c-.75.73-1.93.77-2.72.09l-1.53 1.52v-.001c7.72 9.37 6.38 23.23-3 30.95 -9.38 7.72-23.24 6.38-30.96-3 -7.73-9.38-6.39-23.24 2.99-30.96 2.61-2.16 5.68-3.68 8.98-4.45ZM30 38.94h0c-.05 1.1.82 2.03 1.93 2.08 1.1.04 2.03-.83 2.08-1.94 0-.05 0-.1 0-.15l-.15-3.42v0c1.94-1.03 2.7-3.43 1.68-5.38 -.43-.83-1.14-1.47-1.99-1.83l-.56-13.35v0c-.03-.56-.5-.99-1.05-.96 -.52.02-.94.43-.96.95l-.56 13.34 0-.001c-2.03.85-2.99 3.19-2.13 5.21 .35.85 1 1.55 1.82 1.98Z" fill="#D3D3D3"/>
</svg>