<svg xmlns="http://www.w3.org/2000/svg" viewBox="0 0 64 64">
  <path fill-rule="evenodd" d="M53.98 29.6l-.001 0c-.42 3.67-3.56 6.44-7.26 6.38h-8.47v0c-.28 0-.51-.23-.51-.5 -.01-.05 0-.09.01-.13l1.1-4.43v0c.53-2.15-.77-4.31-2.91-4.85 -.32-.08-.65-.12-.98-.12h-7.71 -.001c-2.3-.01-4.3 1.55-4.85 3.78l-1.42 5.65h0c-.09.33-.39.56-.73.56h-.99v0c-4.98.06-9.1-3.83-9.33-8.8v0c-.11-4.68 3.39-8.66 8.04-9.15h-.001c.52-6.05 5.85-10.53 11.9-10.01 3.54.3 6.71 2.3 8.52 5.37v0c4.15-1.43 8.68.79 10.1 4.95 .43 1.25.53 2.6.31 3.91v0c3.23.89 5.37 3.97 5.08 7.32Zm-29.63.64h-.001c.33-1.34 1.53-2.28 2.91-2.28h7.72v0c1.1 0 2 .89 2 2 -.01.16-.03.32-.06.48l-1.88 7.51h5.94 -.001c1.1 0 2 .89 2 2 -.01.5-.2.99-.54 1.36l-13.01 14 -.001-.001c-.76.8-2.02.85-2.83.1 -.54-.5-.76-1.25-.58-1.96l1.88-7.52h-4.95v0c-1.11-.01-2.01-.9-2.01-2.01 0-.17.02-.33.05-.49Z" fill="#D3D3D3"/>
</svg>