<svg xmlns="http://www.w3.org/2000/svg" viewBox="0 0 64 64">
  <path fill-rule="evenodd" d="M51 54H13v0c-1.11 0-2-.9-2-2v-9 0c0-.56.44-1 1-1h40v0c.55 0 1 .44 1 1v9 0c0 1.1-.9 2-2 2Zm-34-9v0c-1.66 0-3 1.34-3 3 0 1.65 1.34 3 3 3 1.65 0 3-1.35 3-3v0c0-1.66-1.35-3-3-3Zm9 0v0c-1.66 0-3 1.34-3 3 0 1.65 1.34 3 3 3 1.65 0 3-1.35 3-3v0c0-1.66-1.35-3-3-3Zm12 0v0c-1.66 0-3 1.34-3 3 0 1.65 1.34 3 3 3 1.65 0 3-1.35 3-3v0c0-1.66-1.35-3-3-3Zm9 0v0c-1.66 0-3 1.34-3 3 0 1.65 1.34 3 3 3 1.65 0 3-1.35 3-3v0c0-1.66-1.35-3-3-3Zm5-5H12v0c-.56 0-1-.45-1-1V12v0c0-1.11.89-2 2-2h38v0c1.1 0 2 .89 2 2v27 0c0 .55-.45 1-1 1Zm-29-3v0c2.76 0 5-2.24 5-5 0-2.77-2.24-5-5-5 -2.77 0-5 2.23-5 5v0c0 2.76 2.23 5 5 5Zm0-24v0c-3.32 0-6 2.68-6 6 0 3.31 2.68 6 6 6 3.31 0 6-2.69 6-6v0c0-3.32-2.69-6-6-6Zm18 0v0c-2.77 0-5 2.23-5 5 0 2.76 2.23 5 5 5 2.76 0 5-2.24 5-5v0c0-2.77-2.24-5-5-5Zm0 12v0c-3.32 0-6 2.68-6 6 0 3.31 2.68 6 6 6 3.31 0 6-2.69 6-6v0c0-3.32-2.69-6-6-6Zm0 10v0c-2.21 0-4-1.8-4-4 0-2.21 1.79-4 4-4 2.2 0 4 1.79 4 4v0c0 2.2-1.8 4-4 4Zm0-14v0c-1.66 0-3-1.35-3-3 0-1.66 1.34-3 3-3 1.65 0 3 1.34 3 3v0c0 1.65-1.35 3-3 3Zm-18 2v0c-2.21 0-4-1.8-4-4 0-2.21 1.79-4 4-4 2.2 0 4 1.79 4 4v0c0 2.2-1.8 4-4 4Zm0 6v0c1.65 0 3 1.34 3 3 0 1.65-1.35 3-3 3 -1.66 0-3-1.35-3-3v0c0-1.66 1.34-3 3-3Z" fill="#D3D3D3"/>
</svg>