<svg xmlns="http://www.w3.org/2000/svg" viewBox="0 0 64 64">
  <path fill-rule="evenodd" d="M32 56v0c-7.21 0-20-16.17-20-28l-.001 0c-.22-5.87 4.36-10.79 10.23-11 .25-.01.51-.01.76-.001 3.55 0 5.74 1 9 1s5.44-1 9-1h0c5.86-.22 10.78 4.36 11 10.23 0 .25 0 .51 0 .76 0 11.83-12.8 28-20 28Zm0-40c-7.63 0-15-1.9-15-3.92 0-.86.51-1.12 1-1.12 .33 0 3.37.51 7.53.84v0c-1.24-1.33-2.11-2.95-2.54-4.71v0c-.05-.58.39-1.07.96-1.11 .01-.01.02-.01.03-.01 .78 0 2.31.71 4.587 2.05v0c2.1 1.25 4.73 1.25 6.83-.01 2.26-1.34 3.79-2.05 4.57-2.05h-.001c.57.01 1.02.5 1 1.07 -.01.01-.01.02-.01.03v0c-.43 1.75-1.3 3.37-2.54 4.7 4.15-.33 7.2-.84 7.53-.84 .48 0 1 .25 1 1.11 0 2.01-7.37 3.91-15 3.91Z" fill="#D3D3D3"/>
</svg>