<svg xmlns="http://www.w3.org/2000/svg" viewBox="0 0 64 64">
  <path fill-rule="evenodd" d="M44.82 40.65v-.001c.75.75 1.17 1.76 1.17 2.82v.88l-.001 0c-3.13 1.1-4.77 4.53-3.66 7.65 1.1 3.12 4.53 4.76 7.65 3.65 3.12-1.11 4.76-4.54 3.65-7.66 -.61-1.71-1.95-3.06-3.66-3.66v-.89h-.001c0-2.13-.84-4.16-2.35-5.66L22.12 12.28v0c-1.63-1.63-3.88-2.49-6.18-2.35h-.001c-4.42 0-8 3.58-8 8v0c0 1.1.89 2 2 2 1.1 0 2-.9 2-2v0c0-2.21 1.79-4 4-4 3.19 0 5.03 2.51 5.83 5.48l4.77 17.86 0 .01v-.001c.33 1.22.19 2.53-.38 3.67l-1.52 3.03 -.001 0c-.24-.04-.48-.07-.73-.08v0c-3.33-.02-6.04 2.67-6.05 6 -.02 3.32 2.67 6.03 6 6.04 3.32.01 6.03-2.68 6.04-6.01 0-1.57-.6-3.08-1.69-4.21v0c1.03-2.13 3.05-3.61 5.39-3.94 .34-.06 5.19-1.37 7.936-2.11v0c1.13-.31 2.35.01 3.18.85Z" fill="#D3D3D3"/>
</svg>