<svg xmlns="http://www.w3.org/2000/svg" viewBox="0 0 64 64">
  <path fill-rule="evenodd" d="M32.01 52.02v-.001c-1.58-.03-3.15-.19-4.69-.5v0c-.73-.13-1.48.06-2.06.53v-.001c-2.96 2.16-6.42 3.53-10.06 3.95v0c-.6.06-1.14-.38-1.2-.98 -.03-.26.03-.52.18-.73l-.001 0c1.4-1.76 2.41-3.79 2.96-5.97v0c.1-.6-.13-1.21-.61-1.58v0c-5.31-3.95-8.47-10.15-8.54-16.76 0-12.14 10.74-22 24-22 13.25 0 24 9.86 24 22 0 12.13-10.75 22-24 22ZM22 27.02v0c-1.66 0-3 1.34-3 3 0 1.65 1.34 3 3 3 1.65 0 3-1.35 3-3v-.001c-.01-1.66-1.35-3-3-3Zm10 0v0c-1.66 0-3 1.34-3 3 0 1.65 1.34 3 3 3 1.65 0 3-1.35 3-3v0c-.01-1.66-1.35-3-3-3Zm10 0v0c-1.66 0-3 1.34-3 3 0 1.65 1.34 3 3 3 1.65 0 3-1.35 3-3v0c-.01-1.66-1.35-3-3-3Z" fill="#D3D3D3"/>
</svg>