<svg xmlns="http://www.w3.org/2000/svg" viewBox="0 0 64 64">
  <path fill-rule="evenodd" d="M57.34 45.58l-6.2 2.31v0c-.53.19-1.11-.07-1.3-.6 -.01-.02-.02-.04-.02-.06l-6.81-22.17V36.5v0c-.01 1.05.1 2.11.31 3.14l2.66 12.17 0-.001c.14.74-.29 1.48-1.01 1.72l-6.83 2.22v0c-2.12.7-4.4-.44-5.11-2.56 -.04-.1-.06-.19-.09-.29l-.99-3.97 -.99 3.96v0c-.56 2.15-2.75 3.46-4.91 2.91 -.1-.03-.19-.06-.28-.09l-6.83-2.23h-.001c-.73-.24-1.16-.98-1.01-1.73l2.66-12.18v0c.2-1.04.31-2.09.31-3.15V24.96l-6.81 22.16v0c-.17.53-.73.83-1.27.66 -.02-.01-.04-.02-.06-.02l-6.2-2.32v0c-.49-.19-.76-.71-.62-1.21l8.35-30.6 -.001-.001c.3-1.11 1.06-2.03 2.08-2.54l6.151-3.06v0c.99-.5 2.2-.1 2.7.9 .07.14.12.3.16.46l6.49 29.44 6.49-29.45V9.38c.24-1.09 1.32-1.78 2.41-1.53 .15.03.31.09.46.16l6.15 3.05v0c1.02.5 1.78 1.42 2.08 2.53l8.35 30.59v0c.13.5-.14 1.02-.62 1.2ZM33.79 12.2v0c-.18.57-.22 1.17-.13 1.76l.62 4h0c.07.49.06.99-.05 1.48l-1.81 8.18v0c-.06.25-.31.41-.57.35 -.18-.04-.32-.18-.36-.36l-1.8-8.12 0-.001c-.11-.49-.13-.99-.05-1.49l.64-4.07v-.001c.09-.6.05-1.2-.13-1.77l-1.18-3.9v0c-.16-.54.14-1.09.67-1.25 .09-.03.19-.05.28-.05h4.01v0c.55-.01 1 .44 1 1 0 .09-.02.19-.05.28Z" fill="#D3D3D3"/>
</svg>