<svg xmlns="http://www.w3.org/2000/svg" viewBox="0 0 64 64">
  <path fill-rule="evenodd" d="M22.01 26.025v0c.54 0 1.08.04 1.62.12l0 0c-3.94-4.63-3.38-11.57 1.25-15.51 4.62-3.94 11.56-3.38 15.5 1.25 3.49 4.1 3.49 10.14 0 14.25v0c6-.9 11.6 3.24 12.5 9.25 .89 6-3.25 11.6-9.26 12.5 -3.71.55-7.44-.82-9.91-3.64h0c.89 3.17 2.59 6.07 4.92 8.41l1.91 1.91v0c.32.32.32.85 0 1.17 -.16.15-.37.24-.59.24H23.97v0c-.47-.01-.84-.38-.84-.84 0-.23.08-.44.24-.59l1.91-1.92h-.001c2.33-2.34 4.02-5.24 4.92-8.41v0c-4.01 4.56-10.96 5.02-15.52 1.02 -4.57-4.01-5.03-10.96-1.03-15.52 2.08-2.39 5.1-3.75 8.27-3.75Z" fill="#D3D3D3"/>
</svg>