<svg xmlns="http://www.w3.org/2000/svg" viewBox="0 0 64 64">
  <path fill-rule="evenodd" d="M59.12 36.37c-1.24.99-1.47 3.76-2.38 6.63 -1.42 4.47-3.86 6.99-10.75 6.99 -8.02 0-9.17-2.4-10.82-7 -1.13-3.15-.57-7-3.19-7 -2.63 0-2.07 3.85-3.19 6.99 -1.65 4.6-2.8 6.99-10.82 6.99 -6.89 0-9.34-2.53-10.75-7 -.91-2.87-1.14-5.64-2.38-6.63H4.83c-.53-.39-.86-.99-.88-1.64v-2.02h0c-.01-.72.5-1.34 1.21-1.48h0c4.21-.81 8.49-1.23 12.79-1.25 9.2 0 10.24 1.99 14 1.99 3.75 0 4.79-2 14-2h-.001c4.29.01 8.57.43 12.79 1.24v0c.7.13 1.21.75 1.21 1.47v2.01 0c-.03.65-.35 1.25-.88 1.63Zm-40.76-1.99l-2.91 10.88v0c-.08.26.08.53.34.61 .02 0 .04.01.06.01l-.001-.001c.7.07 1.41.1 2.12.1 .73 0 1.36-.02 1.93-.06h-.001c.21-.02.39-.17.44-.38l2.83-10.63v0c.07-.27-.09-.54-.35-.61 -.02-.01-.03-.01-.04-.01v0c-1.32-.22-2.65-.33-3.98-.32v0c-.24-.01-.44.14-.5.37Zm28-.01l-2.92 10.92v0c-.08.26.08.54.35.61 .03 0 .06.01.09.01 .6.04 1.29.06 2.09.06h0c.65 0 1.31-.03 1.96-.1v-.001c.2-.03.37-.18.42-.37l2.83-10.64v0c.07-.27-.1-.55-.36-.62 -.02-.01-.04-.01-.06-.02l-.001 0c-1.31-.19-2.64-.28-3.96-.27v0c-.24-.01-.44.14-.5.37ZM57.16 29c-.54-.08-2.22-.18-2.77-.25v0c-.56-.09-1.02-.47-1.2-1.01 -3.35-9.77-4.37-16.14-7.15-7.47v0c-.17.5-.71.79-1.22.63 -.16-.05-.3-.14-.41-.26 -.52-.53-.49-.51-.99-1.02v0c-.51-.52-.58-1.32-.19-1.92 1.29-1.97 4.21-5.75 6.2-5.75 2.55 0 4.82 4.24 8.48 16.02h-.001c.13.39-.09.82-.49.95 -.11.03-.22.04-.33.03Zm-37.62-8.34v-.001c-.38.38-.99.39-1.37.02 -.12-.12-.21-.26-.26-.41 -2.79-8.68-3.8-2.31-7.15 7.46v0c-.18.53-.64.91-1.19 1 -.55.07-2.24.17-2.77.24v0c-.42.04-.79-.25-.84-.67 -.02-.11-.01-.22.03-.33 3.65-11.79 5.933-16.03 8.48-16.03 1.99 0 4.9 3.77 6.2 5.74h-.001c.39.6.31 1.39-.19 1.91 -.5.51-.48.48-.99 1.01Z" fill="#D3D3D3"/>
</svg>