<svg xmlns="http://www.w3.org/2000/svg" viewBox="0 0 64 64">
  <path fill-rule="evenodd" d="M56 50h-6v0c-1.11 0-2-.9-2-2 0-1.11.89-2 2-2h6v0c1.1 0 2 .89 2 2 0 1.1-.9 2-2 2Zm-9.61-13.6v0c-.79.77-2.06.77-2.83-.02 -.78-.78-.78-2.04 0-2.82l4.02-4.03v0c.77-.79 2.03-.81 2.82-.03 .78.77.8 2.03.02 2.82 -.01 0-.02.01-.03.02ZM38.98 18h-4.99v11.98 0c0 1.1-.9 2-2 2 -1.11 0-2-.9-2-2V17.99h-5 0c-.57-.01-1.02-.48-1.01-1.05 0-.21.06-.41.18-.58l6.98-9.95v0c.31-.46.93-.57 1.38-.26 .09.06.18.15.25.25l6.98 9.94v-.001c.32.46.22 1.1-.25 1.42 -.17.12-.38.18-.58.18ZM17.57 36.39l-4.03-4.03v0c-.79-.78-.8-2.05-.02-2.83 .77-.79 2.04-.8 2.82-.02 0 0 0 0 .01.01l4.02 4.02v0c.77.78.76 2.05-.03 2.82 -.78.76-2.03.76-2.81 0Zm-1.58 11.59v0c0 1.1-.9 2-2 2h-6v0c-1.11 0-2-.9-2-2 0-1.11.89-2 2-2h6v0c1.1 0 2 .89 2 2Zm16-12v0c6.62 0 12 5.37 12 12v0 0c0 1.1-.9 2-2 2h-20v0c-1.11 0-2-.9-2-2v0 0c0-6.63 5.37-12 12-12Z" fill="#D3D3D3"/>
</svg>