<svg xmlns="http://www.w3.org/2000/svg" viewBox="0 0 64 64">
  <path fill-rule="evenodd" d="M42 56H22v0c-2.77 0-5-2.24-5-5V22c0-3.32 6.71-6 15-6 8.28 0 15 2.68 15 6v29 0c0 2.76-2.24 5-5 5Zm.53-21.69l-4-1.64v0c-.26-.11-.38-.4-.28-.66 0-.01 0-.01 0-.01l1.67-3.99v0c.15-.38-.02-.82-.4-.98 -.19-.08-.4-.08-.58 0l-3.99 1.67v-.001c-.26.1-.55-.02-.66-.27 -.01-.01-.01-.01-.01-.01l-1.64-4v0c-.16-.39-.6-.57-.98-.41 -.19.07-.34.22-.41.4l-1.64 3.99v0c-.11.25-.4.37-.66.27 -.01-.01-.01-.01-.01-.01l-3.99-1.67v0c-.38-.16-.82.01-.98.39 -.08.18-.08.39-.01.57l1.67 3.98v0c.1.25-.02.54-.27.65 -.01 0-.01 0-.01 0l-4 1.63h-.001c-.39.15-.57.59-.41.97 .07.18.22.33.4.4l3.99 1.63v0c.25.1.37.39.27.65 -.01 0-.01 0-.01 0l-1.67 3.98v0c-.16.37.01.81.39.97 .18.07.39.07.57-.01l3.98-1.67v0c.25-.11.54.01.65.26 0 0 0 0 0 0l1.63 3.99h-.001c.15.38.59.56.97.4 .18-.08.33-.23.4-.41l1.63-4v0c.1-.26.39-.38.65-.28 0 0 0 0 0 0l3.98 1.67v0c.37.15.81-.02.97-.4 .07-.19.07-.4 0-.58l-1.67-3.99v0c-.11-.26.01-.55.26-.66 0-.01 0-.01 0-.01l3.99-1.64v0c.38-.16.56-.6.4-.98 -.08-.19-.23-.34-.41-.41Zm-10.54 4.68v0c-2.21 0-4-1.8-4-4 0-2.21 1.79-4 4-4 2.2 0 4 1.79 4 4v0c0 2.2-1.8 4-4 4Zm4.5-25h-9v0c-.83 0-1.5-.68-1.5-1.5v-5 0c0-.83.67-1.5 1.5-1.5h9v0c.82 0 1.5.67 1.5 1.5v5 0c0 .82-.68 1.5-1.5 1.5Z" fill="#D3D3D3"/>
</svg>