<svg xmlns="http://www.w3.org/2000/svg" viewBox="0 0 64 64">
  <path fill-rule="evenodd" d="M61 38H51v0c-.56 0-1 .44-1 1v8 0c0 .55-.45 1-1 1h-2v0c-.56 0-1-.45-1-1v-8 0c0-.56-.45-1-1-1H19v0c-.56 0-1 .44-1 1v8 0c0 .55-.45 1-1 1h-2v0c-.56 0-1-.45-1-1v-8 0c0-.56-.45-1-1-1H3v0c-.56 0-1-.45-1-1v-5.32 0c0-.49.35-.9.82-.99l-.001 0c6.5-1.34 11.16-7.06 11.17-13.7v-2 0 0c0-.56.44-1 1-1h2v0c.55 0 1 .44 1 1v0 2 0c0 7.73 6.26 14 14 14 7.73 0 14-6.27 14-14v-2 0 0c0-.56.44-1 1-1h2v0c.55 0 1 .44 1 1v0 2 0c0 6.63 4.67 12.35 11.17 13.69l0-.001c.47.08.82.5.82.98v5.31 0c0 .55-.45 1-1 1Zm-47.74-8.86v0c-1.55 1.68-3.39 3.06-5.45 4.05h0c-.21.1-.3.35-.19.56 .07.14.21.23.37.23h4.98 -.001c.54 0 .99-.45.99-.99 0-.01 0-.01 0-.01v-3.59 0c0-.24-.19-.43-.43-.43 -.12-.01-.24.04-.32.13Zm4.73.3V33v0c0 .54.44.99.99.99 0-.01 0-.01 0-.01h5.54v0c.16 0 .29-.14.29-.3 0-.12-.07-.23-.18-.28v0c-2.25-1.01-4.27-2.46-5.94-4.28v0c-.16-.18-.43-.19-.6-.03 -.09.07-.14.19-.14.31Zm27.26-.29v-.001c-1.54 1.67-3.38 3.04-5.43 4.03h-.001c-.21.1-.3.36-.19.56 .07.14.21.23.37.23h4.96 0c.54 0 .99-.45.99-.99 0-.01 0-.01 0-.01v-3.57 -.001c0-.24-.19-.43-.43-.43 -.12-.01-.24.04-.32.13Zm4.73.26v3.58 0c0 .54.44.99.99.99 0-.01 0-.01 0-.01h4.98 0c.23 0 .42-.19.42-.43 0-.17-.09-.31-.24-.39h0c-2.06-1-3.91-2.38-5.45-4.06v0c-.16-.18-.43-.19-.6-.03 -.09.07-.14.19-.14.31Z" fill="#D3D3D3"/>
</svg>