<svg xmlns="http://www.w3.org/2000/svg" viewBox="0 0 64 64">
  <path fill-rule="evenodd" d="M43.62 25.82v-.001c-.47.32-1.11.22-1.43-.25 -.13-.17-.19-.38-.19-.58v-4.99H23.01v0c-2.77 0-5 2.23-5 5 0 2.76 2.23 5 5 5h18v0c4.97 0 9 4.02 9 9 0 4.97-4.03 9-9 9H22.02v4.99 0c-.01.56-.48 1.01-1.05 1 -.21-.01-.41-.07-.58-.19l-9.95-6.99h-.001c-.46-.32-.57-.94-.26-1.39 .06-.1.15-.19.25-.26l9.94-6.99v0c.46-.33 1.1-.23 1.42.24 .12.16.18.37.18.57v4.98h18.98v0c2.76 0 5-2.24 5-5 0-2.77-2.24-5-5-5h-18v0c-4.98 0-9-4.03-9-9 0-4.98 4.02-9 9-9h18.98v-5 0c0-.57.47-1.02 1.04-1.01 .2 0 .4.06.57.18l9.94 6.98v0c.45.31.56.93.25 1.38 -.07.09-.16.18-.26.25Z" fill="#D3D3D3"/>
</svg>