<svg xmlns="http://www.w3.org/2000/svg" viewBox="0 0 64 64">
  <path d="M17.7 30.25v0c-.39-.4-1.03-.4-1.42-.01 -.01 0-.01 0-.01 0l-1.01 1v0c-.31.3-.38.77-.19 1.15l3.82 7.65v0c.15.3.09.67-.15.92l-5.58 5.58h-.001c-.69.68-1.66.99-2.62.83L8.35 47h0c-.48-.08-.97.07-1.31.41l-.82.81h0c-.4.39-.4 1.02-.001 1.41l8 8.01v0c.39.39 1.02.39 1.41 0 0-.01 0-.01 0-.01l.81-.82v0c.34-.35.49-.84.41-1.31l-.36-2.14v0c-.16-.96.15-1.94.83-2.62l5.6-5.61v0c.24-.25.61-.31.91-.15l7.61 3.8h-.001c.38.19.85.11 1.15-.19l1-1.01v0c.39-.4.39-1.03 0-1.42ZM54.69 8.02l-8.88 2.95 -.001 0c-.59.19-1.13.52-1.57.96L24.272 31.87v0c-.4.39-.4 1.02 0 1.41l1.43 1.43h0c.3.3.79.31 1.11.03l13.09-11.64v0c.26-.24.67-.22.9.05 .21.24.21.61 0 .85L29.18 37.1h0c-.29.32-.28.81.03 1.11l1.404 1.4h0c.39.39 1.02.39 1.41 0l19.96-19.95v0c.43-.44.77-.98.96-1.57l2.95-8.87v0c.17-.53-.11-1.1-.64-1.27 -.21-.07-.43-.07-.64-.01Z" fill="#D3D3D3"/>
</svg>