<svg xmlns="http://www.w3.org/2000/svg" viewBox="0 0 32 32">
  <path fill-rule="evenodd" d="M49 48h-4 -.01c-1.11-.01-2-.9-2-2 0 0 0-.001 0-.001v-2l0 0c-.01-1.11.89-2 2-2h4 -.01c1.1-.01 2 .89 2 2v2 0c0 1.1-.9 2-2 2Zm0-16h-4l-.01-.001c-1.11-.01-2-.9-2-2 0 0 0 0 0 0v-2l0 0c-.01-1.11.89-2 2-2h4l-.01 0c1.1-.01 2 .89 2 2v2 0c0 1.1-.9 2-2 2Zm-1.01-8.75l-.01 0c-.33.62-1.08.9-1.73.64l-5.42-2.14 0 0c-.52-.2-.86-.7-.86-1.25v-4.32l-.01 0c0-.27-.16-.5-.39-.61l0 0c-2.39-1.09-4.98-1.64-7.59-1.61l0 0c-2.63-.03-5.24.52-7.63 1.6l0-.01c-.24.1-.39.34-.39.6v4.31l0-.01c-.01.55-.35 1.04-.86 1.24l-5.38 2.13 -.01 0c-.66.25-1.41-.02-1.73-.65l-2.87-5.64 -.01-.01c-.27-.52-.16-1.16.26-1.56 1.83-1.76 7.48-6.08 18.57-6.08s16.74 4.32 18.58 6.07l0 0c.42.4.53 1.03.26 1.55Zm-33 2.74h4l-.01 0c1.1-.01 2 .89 2 2v2 0c0 1.1-.9 2-2 2h-4l-.01-.001c-1.11-.01-2-.9-2-2 0 0 0 0 0 0v-2l0 0c-.01-1.11.89-2 2-2Zm0 16h4 -.01c1.1-.01 2 .89 2 2v2 0c0 1.1-.9 2-2 2h-4 -.01c-1.11-.01-2-.9-2-2 0 0 0-.001 0-.001v-2l0 0c-.01-1.11.89-2 2-2Zm24 6h-4 -.01c-1.11-.01-2-.9-2-2 0 0 0-.001 0-.001v-2l0 0c-.01-1.11.89-2 2-2h4 -.01c1.1-.01 2 .89 2 2v2 0c0 1.1-.9 2-2 2Zm7-12v2 0c0 1.1-.9 2-2 2h-4 -.01c-1.11-.01-2-.9-2-2 0 0 0-.001 0-.001v-2l0 0c-.01-1.11.89-2 2-2h4l-.01 0c1.1-.01 2 .89 2 2 0 0 0 0 0 0Zm-11-10h4l-.01 0c1.1-.01 2 .89 2 2v2 0c0 1.1-.9 2-2 2h-4l-.01-.001c-1.11-.01-2-.9-2-2 0 0 0 0 0 0v-2l0 0c-.01-1.11.89-2 2-2Zm1 10v2 0c0 1.1-.9 2-2 2h-4 -.01c-1.11-.01-2-.9-2-2 0 0 0-.001 0-.001v-2l0 0c-.01-1.11.89-2 2-2h4l-.01 0c1.1-.01 2 .89 2 2 0 0 0 0 0 0Zm-11-10h4l-.01 0c1.1-.01 2 .89 2 2v2 0c0 1.1-.9 2-2 2h-4l-.01-.001c-1.11-.01-2-.9-2-2 0 0 0 0 0 0v-2l0 0c-.01-1.11.89-2 2-2Zm4 16h-.01c1.1-.01 2 .89 2 2v2 0c0 1.1-.9 2-2 2h-4 -.01c-1.11-.01-2-.9-2-2 0 0 0-.001 0-.001v-2l0 0c-.01-1.11.89-2 2-2Zm-11-4v-2l0 0c-.01-1.11.89-2 2-2h4 -.01c1.1-.01 2 .89 2 2v2 0c0 1.1-.9 2-2 2h-4l-.01-.001c-1.11-.01-2-.9-2-2Zm2 12h24 -.01c1.1-.01 2 .89 2 2v2 0c0 1.1-.9 2-2 2h-24 -.01c-1.11-.01-2-.9-2-2 0 0 0-.001 0-.001v-2l0 0c-.01-1.11.89-2 2-2Z" transform="scale(0.5,0.5)" fill="#D3D3D3"/>
</svg>