<svg xmlns="http://www.w3.org/2000/svg" viewBox="0 0 64 64">
  <path fill-rule="evenodd" d="M54 54.01H10v0c-1.11 0-2-.9-2-2V40v0c0-1.11.89-2 2-2h1v0c.55 0 1-.45 1-1V15.99v0c0-1.66 1.34-3 3-3 1.65 0 3 1.34 3 3v5L30.54 6.64h0c.7-.81 1.92-.89 2.72-.19 .06.05.12.11.18.18l12.54 14.34v-5.01 0c0-1.66 1.34-3 3-3 1.65 0 3 1.34 3 3v21 0c0 .55.44 1 1 1h1v0c1.1 0 2 .89 2 2v12 0c0 1.1-.9 2-2 2ZM37.8 20.829h-.001c.34-.58.15-1.33-.43-1.67 -.17-.11-.37-.17-.56-.18h-2.51l-1.35-2.39v0c-.29-.55-.96-.75-1.5-.47 -.2.1-.36.26-.47.46l-1.35 2.38h-2.51v0c-.68.03-1.19.6-1.16 1.27 .01.19.06.38.17.55l1.22 2.17 -1.23 2.17h-.001c-.35.57-.16 1.32.42 1.66 .16.1.36.16.55.17h2.51l1.34 2.38v0c.28.54.95.74 1.49.46 .19-.11.35-.27.46-.47l1.34-2.39h2.51v0c.67-.04 1.18-.61 1.15-1.28 -.02-.2-.07-.39-.18-.56l-1.23-2.18Zm.19 19.42h0c-.01-1.1-.5-2.14-1.36-2.82l-4.03-3.23v0c-.37-.3-.89-.3-1.26 0l-4.03 3.22 -.001-.001c-.86.68-1.36 1.72-1.36 2.81v8.73 0c0 .55.44 1 1 1h10v0c.55 0 1-.45 1-1Z" fill="#D3D3D3"/>
</svg>