<svg xmlns="http://www.w3.org/2000/svg" viewBox="0 0 64 64">
  <path fill-rule="evenodd" d="M52.83 43.6v0c-.32.45-.94.56-1.39.25 -.1-.07-.19-.16-.26-.26l-6.99-9.98v0c-.33-.47-.23-1.11.24-1.44 .16-.13.37-.19.57-.19h4.98 0c-.01-9.95-8.08-18-18.02-17.99 -4.14 0-8.15 1.42-11.36 4.03v0c-.85.71-2.11.6-2.82-.24 -.72-.85-.61-2.11.23-2.82H18c9.39-7.71 23.26-6.34 30.96 3.06 3.22 3.93 4.98 8.85 4.98 13.93h4.99v0c.56.01 1.01.47 1 1.04 -.01.2-.07.4-.19.57ZM12.81 20.42l6.98 9.97v0c.32.46.22 1.1-.25 1.43 -.17.12-.37.18-.58.18h-4.99 -.001c0 9.94 8.07 17.99 18.01 17.98 4.13-.01 8.14-1.43 11.35-4.04v0c.84-.72 2.1-.62 2.81.23 .71.84.61 2.1-.24 2.81v0c-9.4 7.7-23.26 6.33-30.97-3.07 -3.23-3.94-4.99-8.86-4.99-13.94h-5v0c-.57-.02-1.02-.48-1.01-1.05 0-.21.06-.41.18-.58l6.98-9.98v0c.31-.46.93-.57 1.38-.26 .09.06.18.15.25.25Z" fill="#D3D3D3"/>
</svg>