<svg xmlns="http://www.w3.org/2000/svg" viewBox="0 0 64 64">
  <path fill-rule="evenodd" d="M57.74 8.14l-7.43 8.81v0c-.19.21-.27.5-.23.78l.73 5.12v0c.13.93-.19 1.87-.85 2.54l-1.89 1.88v0c-.4.39-1.03.39-1.42 0 -.01-.01-.01-.01-.01-.01l-4.03-4.04v0c-.4-.38-1.03-.37-1.41.02 -.37.38-.37.98 0 1.37l4.02 4.03v0c.39.39.39 1.02 0 1.41 -.01 0-.01 0-.01 0l-2.19 2.18v0c-.4.39-1.03.39-1.42 0 -.01-.01-.01-.01-.01-.01l-4.03-4.03v-.001c-.4-.39-1.02-.38-1.41.01 -.38.38-.38.99 0 1.38l4.02 4.02v0c.39.39.39 1.02 0 1.41l-2.19 2.18h-.001c-.4.39-1.03.39-1.42 0 -.01-.01-.01-.01-.01-.01l-4.03-4.03h0c-.39-.4-1.01-.41-1.41-.02 -.4.38-.41 1-.02 1.4 0 0 .01.01.01.01l4.02 4.02v0c.39.39.39 1.02-.01 1.41l-2.6 2.59v0c-.4.39-1.03.39-1.42 0 -.01-.01-.01-.01-.01-.01l-10.01-10.01v0c-.4-.4-.4-1.03-.01-1.42 0-.01 0-.01 0-.01l17.29-17.3V13.8c.66-.67 1.61-.99 2.54-.85l5.12.73v0c.28.04.56-.05.78-.23l8.81-7.43v0c.39-.34.98-.31 1.35.05l.5.5v0c.36.36.39.95.05 1.35ZM32.67 48.28l-1.42 1.41v0c-.4.39-1.03.39-1.42 0 -.01-.01-.01-.01-.01-.01l-4.38-4.38h-.001c-.4-.4-1.03-.4-1.42-.01 -.01 0-.01 0-.01 0l-6.75 6.75v0c-.4.39-.4 1.02-.01 1.41 0 0 0 0 0 0l1.37 1.37h0c.39.39.39 1.02-.001 1.41l-1.42 1.41 -.001 0c-.4.39-1.03.39-1.42 0 -.01-.01-.01-.01-.01-.01l-9.58-9.59 0 0c-.4-.4-.4-1.03 0-1.42l1.41-1.42H7.59c.39-.4 1.02-.4 1.41-.01 0 0 0 0 0 0l.4.4v0c.39.39 1.02.39 1.41 0 0-.01 0-.01 0-.01l6.74-6.76v0c.39-.4.39-1.03 0-1.42 -.01-.01-.01-.01-.01-.01l-3.41-3.41v0c-.4-.4-.4-1.03-.001-1.42l1.41-1.42h0c.39-.4 1.02-.4 1.41-.01 0 0 0 0 0 0l15.57 15.58v0c.39.39.39 1.02 0 1.41Z" fill="#D3D3D3"/>
</svg>