<svg xmlns="http://www.w3.org/2000/svg" viewBox="0 0 64 64">
  <path fill-rule="evenodd" d="M59.74 42.35v0c-.12.44-.58.71-1.02.59 -.15-.04-.28-.12-.39-.22L46.46 30.71v0c-.65-.66-.65-1.72-.01-2.37l6.09-6.17 -.001 0c.32-.33.84-.32 1.17 0 .16.16.25.39.23.63 -.001 6.9 7.47 12.82 5.75 19.51ZM15.69 55.68v0c-.4.39-1.03.39-1.42 0 -.01-.01-.01-.01-.01-.01l-6-6.01v0c-.4-.4-.4-1.03 0-1.42l4.61-4.6h0c.38-.39 1.02-.4 1.41-.01 0 0 0 0 0 0l3.02 3.03H17.3c.38.38 1.01.38 1.4-.01 .38-.39.38-1.02-.01-1.41 -.01-.01-.01-.01-.01-.01l-3.03-3.03h-.001c-.4-.4-.4-1.03 0-1.42l4.18-4.19v0c.38-.39 1.02-.4 1.41-.01 0 0 0 0 0 0l3.02 3.02h0c.38.38 1.01.38 1.4-.01 .38-.39.38-1.02-.01-1.41l-3.03-3.03v0c-.4-.4-.4-1.03 0-1.42l4.18-4.19v0c.38-.39 1.02-.4 1.41-.01 0 0 0 0 0 0l3.02 3.02h-.001c.38.38 1.01.38 1.4-.01 .38-.39.38-1.02-.01-1.41L29.6 28.1v0c-.39-.4-.39-1.03 0-1.42l4.18-4.19v0c.38-.39 1.02-.4 1.41-.01 0 0 0 0 0 0l3.02 3.02v0c.38.38 1.01.38 1.4-.01 .38-.39.38-1.02-.01-1.41l-3.02-3.026v0c-.4-.4-.4-1.03 0-1.42l8.59-8.6v0c.38-.4 1.02-.4 1.41-.01 0 0 0 0 0 0l5.99 6v0c.39.39.39 1.02 0 1.41Zm19.91-38.2v0c-.66.64-1.72.64-2.37-.01L21.22 5.6V5.59c-.33-.33-.33-.86-.01-1.19 .1-.11.23-.19.38-.22 6.68-1.72 12.6 5.75 19.51 5.75v0c.45-.03.84.31.87.77 .01.23-.08.46-.24.63Z" fill="#D3D3D3"/>
</svg>