<svg xmlns="http://www.w3.org/2000/svg" viewBox="0 0 64 64">
  <path fill-rule="evenodd" d="M53.5 21.52l-21.62 21.6v0c-1.15 1.14-3.01 1.14-4.15 0l-6.91-6.91v0c-1.15-1.15-1.15-3.01-.01-4.15 0-.01 0-.01 0-.01l21.61-21.61v-.001c2.94-3.16 7.89-3.33 11.05-.39 3.15 2.94 3.32 7.89.38 11.05 -.13.12-.25.25-.38.37ZM22.17 40.27l1.55 1.54v0c.35.36.35.94-.01 1.29 -.02.01-.04.03-.06.04 -4.85 4.21-10.41 3.35-12.77 5.71h-.001c-1.18 1.15-1.2 3.04-.04 4.22 .17.17.37.33.58.46h-.001c.45.29.99.45 1.54.43v0c1.1 0 2 .89 2 2 0 1.1-.9 2-2 2v0c-1.86 0-3.64-.74-4.95-2.05l.01 0h0c-2.74-2.71-2.77-7.12-.06-9.86 .02-.03.05-.06.07-.08 3.38-3.38 8.74-2.32 12.86-5.82v-.001c.36-.3.88-.28 1.21.06Z" fill="#D3D3D3"/>
</svg>