<svg xmlns="http://www.w3.org/2000/svg" viewBox="0 0 64 64">
  <path fill-rule="evenodd" d="M32 56v0C18.74 56 8 45.25 8 32 8 18.74 18.74 8 32 8c13.25 0 24 10.74 24 24v0c0 13.25-10.75 24-24 24Zm0-42v0c-9.95 0-18 8.05-18 18 0 9.94 8.05 18 18 18 9.94 0 18-8.06 18-18v0c0-9.95-8.06-18-18-18Zm0 32v0c-7.74 0-14-6.27-14-14 0-7.74 6.26-14 14-14 7.73 0 14 6.26 14 14v-.001c0 7.73-6.27 14-14 14Zm0-22v0c-4.42 0-8 3.58-8 8 0 4.41 3.58 8 8 8 4.41 0 8-3.59 8-8v0c0-4.42-3.59-8-8-8Zm0 12v0c-2.21 0-4-1.8-4-4 0-2.21 1.79-4 4-4 2.2 0 4 1.79 4 4v0c0 2.2-1.8 4-4 4Z" fill="#D3D3D3"/>
</svg>