<svg xmlns="http://www.w3.org/2000/svg" viewBox="0 0 64 64">
  <path fill-rule="evenodd" d="M52 13.98c-4.07 0-6.11 2.44-8.47 5.28v0c-1.28 1.65-2.74 3.13-4.38 4.42l0 0c7.9 3.95 11.1 13.56 7.14 21.46s-13.57 11.1-21.47 7.14c-7.91-3.96-11.11-13.57-7.15-21.47 1.54-3.1 4.05-5.6 7.14-7.15v-.001c-1.64-1.29-3.11-2.78-4.38-4.43 -2.37-2.84-4.4-5.28-8.47-5.28v0c-1.11 0-2-.9-2-2 0-1.11.89-2 2-2 5.93 0 8.91 3.57 11.53 6.72 2.36 2.83 4.4 5.28 8.46 5.28 4.06 0 6.1-2.45 8.46-5.28 2.62-3.15 5.6-6.72 11.53-6.72v0c1.1 0 2 .89 2 2 0 1.1-.9 2-2 2Zm-32 24v0c0 6.62 5.37 12 12 12 6.62 0 12-5.38 12-12 0-6.63-5.38-12-12-12v0c-6.63-.01-12.01 5.37-12.01 11.99 -.01 0-.01 0-.01 0Z" fill="#D3D3D3"/>
</svg>