<svg xmlns="http://www.w3.org/2000/svg" viewBox="0 0 64 64">
  <path fill-rule="evenodd" d="M54.12 31.96v0c-.68.33-1.11 1.03-1.11 1.78V41c0 5.01-7.07 6-21 6 -13.94 0-21-.99-21-6v-7.27 0c-.01-.76-.43-1.46-1.11-1.79l-1.35-.68 0-.001c-.34-.17-.56-.52-.56-.9v-2.39 0c0-.56.44-1 1-1h3.22l3.27-9.84v0c.63-1.93 2.2-3.4 4.16-3.91h-.001c1.57-.43 3.17-.73 4.79-.9l.32-2.61v0c.12-1.01.97-1.76 1.98-1.76h10.46V7.94c1-.01 1.85.75 1.98 1.75l.32 2.6 -.001 0c1.61.17 3.21.47 4.79.9v0c1.95.51 3.52 1.98 4.16 3.9l3.27 9.83h3.22v0c.55 0 1 .44 1 1v2.38 0c-.01.37-.22.72-.56.89Zm-40.11 5.05h0c0 1.65 1.34 3 3 3 1.65 0 3-1.35 3-3 0-1.66-1.35-3-3-3v0c-1.66 0-3 1.34-3 3Zm32.93-11.32l-2.39-7.26v0c-.21-.64-.73-1.13-1.37-1.31 -1.58-.43-4.26-1.13-11.17-1.13h-.02c-6.92 0-9.6.7-11.17 1.12v0c-.65.17-1.17.66-1.38 1.3l-2.39 7.25v0c-.18.52.1 1.08.62 1.26 .09.03.2.05.3.05h27.99v-.001c.55-.01.99-.46.98-1.01 -.01-.11-.02-.21-.06-.31ZM47 34v0c-1.66 0-3 1.34-3 3 0 1.65 1.34 3 3 3 1.65 0 3-1.35 3-3v0c0-1.66-1.35-3-3-3ZM19.24 48.03v0c.45.1.76.5.75.97v1 -.001c-.01 1.1-.9 1.99-2 2h-4 0c-1.11-.01-2-.9-2-2v-2 0c-.06-.5.31-.95.81-1 .06-.01.12-.01.18 0 .47 0 3.42.78 6.24 1.02ZM50.99 47v0c.49-.06.94.31 1 .81 0 .06 0 .12 0 .18v2 0c-.01 1.1-.9 1.99-2 2h-4v0c-1.11-.01-2-.9-2-2v-1h-.001c-.01-.47.3-.87.75-.97 2.81-.25 5.76-1.03 6.24-1.03Z" fill="#D3D3D3"/>
</svg>