<svg xmlns="http://www.w3.org/2000/svg" viewBox="0 0 64 64">
  <path fill-rule="evenodd" d="M53.35 14.3l-8.52 3.38v0c-.46.17-.97 0-1.22-.41l-.21-.34L20.44 31.3v-.001c-.47.29-1.09.15-1.38-.32 -.01-.01-.01-.01-.01-.01l-.53-.86 -5.96 3.72h0c-.47.29-1.09.15-1.38-.32 -.01-.01-.01-.01-.01-.01l-1.06-1.72v0c-.3-.48-.15-1.1.32-1.39l5.95-3.73 -.53-.86h0c-.3-.48-.15-1.1.32-1.39l22.95-14.38 -.2-.33v0c-.26-.42-.19-.96.17-1.29l6.78-6.2V2.2c.4-.38 1.03-.35 1.4.06 .04.04.08.09.11.15l6.36 10.31v0c.29.47.14 1.09-.33 1.39 -.05.03-.11.05-.16.07ZM29.99 39.13V28.76v0c0-.69.35-1.32.93-1.68l1.47-.92v0c.48-.31 1.12-.16 1.42.32 .1.16.15.34.15.54V39.1L47.3 52.45v0c.72.69.85 1.81.29 2.65v0c-.64.9-1.89 1.11-2.8.47 -.1-.07-.18-.14-.26-.22l-10.6-10.61v9.08 0c.02 1-.68 1.87-1.67 2.07v0c-1.09.18-2.13-.55-2.31-1.64 -.02-.12-.03-.23-.03-.34v-9.2L19.4 55.23v0c-.7.72-1.82.85-2.65.29v0c-.91-.65-1.12-1.9-.48-2.8 .06-.1.13-.18.21-.26Z" fill="#D3D3D3"/>
</svg>