<svg xmlns="http://www.w3.org/2000/svg" viewBox="0 0 64 64">
  <path fill-rule="evenodd" d="M32 12v0c12.604 0 26 3.87 26 11.06h-.001c.03 1.7-.69 3.33-1.97 4.45v-.001c-.5.42-1.16.57-1.79.41l-6.74-1.7h0c-.9-.23-1.52-1.04-1.52-1.96v-2.93 -.001c0-.41-.25-.78-.625-.94v0c-4.27-1.64-8.81-2.46-13.38-2.44v0c-4.58-.03-9.11.8-13.38 2.43h0c-.39.15-.63.52-.63.93v2.92 0c0 .92-.63 1.72-1.52 1.95L9.7 27.86v0c-.63.16-1.3 0-1.79-.42v-.001c-1.28-1.13-2-2.76-1.97-4.46 0-7.19 13.39-11.07 26-11.07ZM19.58 27.23h-.001c.27-.82.41-1.67.41-2.53v-1.66h-.001c-.01-.44.27-.82.68-.95v0c1.34-.45 2.71-.82 4.11-1.09v0c.54-.12 1.07.24 1.18.78 .01.06.01.12.02.19v1.01 0c0 .55.44 1 1 1h10v0c.55 0 1-.45 1-1v-1.02 0c0-.56.45-1.01 1.01-1.01 .06 0 .13 0 .19.02v0c1.39.27 2.76.64 4.11 1.09v0c.4.13.68.51.68.94v1.65 0c-.01.85.13 1.71.41 2.53l5.17 15.53v0c.27.81.41 1.66.41 2.52v4.7 0c0 1.1-.9 2-2 2h-32v0c-1.11 0-2-.9-2-2v-4.71h0c-.01-.86.13-1.72.41-2.53Zm12.41 16.76c4.97 0 9-3.14 9-7 0-3.87-4.03-7-9-7 -4.98 0-9 3.13-9 7 0 3.86 4.02 7 9 7Zm0-10c2.2 0 4 1.34 4 3 0 1.65-1.8 3-4 3 -2.21 0-4-1.35-4-3 0-1.66 1.79-3 4-3Z" fill="#D3D3D3"/>
</svg>