<svg xmlns="http://www.w3.org/2000/svg" viewBox="0 0 64 64">
  <path fill-rule="evenodd" d="M61.6 26.98v0c-2.5 1.86-5.51 2.91-8.62 2.99v0c-.54.01-.97.45-.98.99v18.02 0c0 .55.44 1 1 1h1.99v0c.55 0 1 .44 1 1v2 0c0 .55-.45 1-1 1h-46v0c-.56 0-1-.45-1-1v-2 0c0-.56.44-1 1-1h1.99v0c.55 0 1-.45 1-1V30.95v0c-.01-.55-.44-.99-.98-1v-.001c-3.12-.09-6.13-1.14-8.62-3H2.37c-.44-.32-.53-.92-.22-1.35 .08-.13.2-.23.33-.3 3.96-1.83 8.64-6.63 12.12-12.35l-.57-1.68h0c-.18-.53.1-1.1.63-1.28 .1-.04.21-.06.31-.06h33.92v0c.55-.01 1 .44 1 1 0 .1-.02.21-.06.31l-.57 1.67c3.47 5.71 8.15 10.51 12.12 12.34l-.001 0c.47.24.65.82.41 1.29 -.07.13-.17.25-.3.33ZM39.01 31v0c0-.56-.45-1-1-1H25.98v0c-.56 0-1 .44-1 1v18 0c0 .55.44 1 1 1H38v0c.55 0 1-.45 1-1Z" fill="#D3D3D3"/>
</svg>