<svg xmlns="http://www.w3.org/2000/svg" viewBox="0 0 64 64">
  <path fill-rule="evenodd" d="M32 60v0c-6.63 0-12-5.36-12-11.98 -.01-3.42 1.45-6.68 3.99-8.96V13.98v0c0-4.42 3.58-8 8-8 4.41 0 8 3.58 8 8v25.07 0c4.93 4.41 5.36 11.98.95 16.92 -2.28 2.54-5.54 4-8.96 3.99Zm8-12v0c0-2.53-1.19-4.9-3.22-6.4h0c-.5-.38-.8-.97-.79-1.59V13.99v0c0-2.21-1.8-4-4-4 -2.21 0-4 1.79-4 4V40h-.001c0 .62-.3 1.2-.79 1.58v0c-3.54 2.64-4.26 7.65-1.62 11.19 2.64 3.53 7.65 4.25 11.19 1.61 2.01-1.52 3.2-3.89 3.2-6.41Zm-6.01-30v22.18 0c.02 1.2.62 2.32 1.6 3.02v0c2.64 1.99 3.17 5.75 1.18 8.4 -2 2.64-5.76 3.17-8.41 1.18 -2.65-2-3.18-5.76-1.19-8.41 .33-.45.73-.85 1.18-1.19h-.001c.98-.7 1.58-1.83 1.6-3.03V17.96v0c0-1.11.89-2 2-2 1.1 0 2 .89 2 2Z" fill="#D3D3D3"/>
</svg>