<svg xmlns="http://www.w3.org/2000/svg" viewBox="0 0 64 64">
  <path fill-rule="evenodd" d="M32 57.99c-4.9 0-22-6.93-22-29.002 0-11.94 3.3-18.28 3.44-18.51v0c.28-.42.8-.6 1.28-.46l-.001-.001c5.65 1.37 11.45 2.02 17.27 1.95v-.001c5.81.07 11.61-.59 17.27-1.96l0-.001c.48-.15.99.03 1.28.45 .14.22 3.44 6.56 3.44 18.5 0 22.07-17.11 29-22 29Zm-9.5-34.01c-2.19-.001-4.51 2.62-4.51 6h0c0 .55.45 1 1 .99 .31-.01.6-.15.79-.4v0c.78-.91 1.88-1.49 3.07-1.62v0c1.24-.14 2.49.15 3.56.81v0c.45.32 1.08.21 1.4-.25 .14-.2.2-.45.17-.69 -.2-1.7-2.2-4.9-5.51-4.9Zm9.49 19.01v0c-3.67.01-7.28-.97-10.43-2.84v0c-.46-.31-1.08-.19-1.39.27 -.16.23-.21.51-.15.79v0c1.51 5.3 6.43 8.91 11.95 8.77v0c5.51.14 10.43-3.47 11.95-8.78v0c.13-.54-.2-1.08-.74-1.21 -.28-.07-.57-.02-.8.14v-.001c-3.16 1.87-6.76 2.85-10.43 2.82Zm9.49-19.02c-3.31 0-5.308 3.19-5.51 4.89v0c-.06.55.34 1.04.89 1.1 .24.02.48-.04.68-.18h0c1.06-.67 2.31-.96 3.56-.82l-.001 0c1.19.13 2.28.7 3.07 1.61h0c.33.43.96.52 1.4.18 .24-.19.39-.49.39-.8 -.01-3.39-2.32-6.01-4.51-6.01Z" fill="#D3D3D3"/>
</svg>