<svg xmlns="http://www.w3.org/2000/svg" viewBox="0 0 64 64">
  <path fill-rule="evenodd" d="M50.78 39.33v0c-.5.3-.84.81-.93 1.39h0c-.97 5.99-6.61 10.07-12.6 9.11 -1.44-.24-2.82-.75-4.06-1.52v0c-.74-.47-1.68-.47-2.41-.001v0c-2.92 1.81-6.53 2.15-9.73.91h0c-.29-.13-.62-.1-.89.06h0c-1.83 1.21-4.3.72-5.52-1.11 -.9-1.34-.89-3.09 0-4.42h-.001c.16-.27.19-.6.06-.89h-.001c-.27-.7-.47-1.42-.59-2.16v0c-.1-.59-.44-1.1-.93-1.42h0c-5.17-3.18-6.78-9.95-3.6-15.11 .89-1.47 2.12-2.7 3.59-3.6v0c.49-.31.83-.82.92-1.4h0c.96-6 6.6-10.08 12.59-9.12 1.43.23 2.81.74 4.05 1.51v0c.73.46 1.67.46 2.4-.001v0c5.16-3.2 11.93-1.61 15.13 3.55 .76 1.23 1.28 2.61 1.51 4.05l0-.001c.09.57.43 1.08.92 1.39v0c5.16 3.18 6.77 9.94 3.58 15.1 -.9 1.46-2.13 2.68-3.59 3.58ZM22 26.98v0c-1.66 0-3 1.34-3 3 0 1.65 1.34 3 3 3 1.65 0 3-1.35 3-3v0c0-1.66-1.35-3-3-3Zm10 0v0c-1.66 0-3 1.34-3 3 0 1.65 1.34 3 3 3 1.65 0 3-1.35 3-3v0c0-1.66-1.35-3-3-3Zm10 0v0c-1.66 0-3 1.34-3 3 0 1.65 1.34 3 3 3 1.65 0 3-1.35 3-3v0c0-1.66-1.35-3-3-3Zm-31 23v0c1.65 0 3 1.34 3 3 0 1.65-1.35 3-3 3 -1.66 0-3-1.35-3-3v0c-.01-1.66 1.34-3 3-3 0-.001 0 0 0 0Z" fill="#D3D3D3"/>
</svg>