<svg xmlns="http://www.w3.org/2000/svg" viewBox="0 0 64 64">
  <path fill-rule="evenodd" d="M51.76 27.62v0c.45.72.23 1.68-.5 2.14 -.25.15-.54.23-.83.23l-12.18-.01v0c-2.6-.01-4.9 1.65-5.72 4.11L25.68 54.6h0c-.28.81-1.04 1.36-1.9 1.36h-7.83v-.001c-1.1 0-1.99-.88-2-1.98 -.03-7.29 9-12.35 9-18.03v-.01c0-5.67-6.01-8.85-6.01-16v0c0-8.84 7.16-16.01 16-16 0 0 0 0 0 0h-.001c7.98-.21 14.65 6.02 15 13.99v0c0 .82-1 1.25-1 2h-.001c-.02.18.02.37.11.53Zm-15.42 7.75v-.001c.27-.83 1.04-1.38 1.91-1.38h9.73v0c.55 0 1 .44 1 1l-.01 2.97v0c0 1.11-.9 2.01-2.02 2.02v0c-1.47-.12-2.91-.37-4.33-.74 -.59-.12-.72-.15-1.19-.24h0c-1.14-.23-2.26.42-2.63 1.52l-.77 2.3v0c-.22.64-.09 1.35.33 1.88 1.87 2.33 4.63 6.25 4.57 9.37v0c-.07 1.05-.94 1.88-2 1.88h-9.65l-.001 0c-.75-.01-1.36-.61-1.36-1.36 0-.15.02-.3.06-.43Z" fill="#D3D3D3"/>
</svg>