<svg xmlns="http://www.w3.org/2000/svg" viewBox="0 0 64 64">
  <path fill-rule="evenodd" d="M57.33 37.11v0c-1.05.36-1.59 1.51-1.23 2.55 .2.57.64 1.01 1.22 1.22v-.001c.39.14.66.51.66.94l-.02 1.17v0c-.01.5-.38.92-.88.99v0c-2.66.38-4.74 2.46-5.12 5.12v0c-.08.49-.5.86-1 .86h-38 0c-.51 0-.93-.37-1-.87v0c-.39-2.66-2.47-4.74-5.12-5.13h0c-.5-.08-.87-.5-.88-1l-.02-1.18v0c-.01-.43.26-.81.66-.95h0c1.04-.37 1.58-1.52 1.22-2.56 -.21-.58-.65-1.02-1.23-1.23h0c-.4-.15-.67-.52-.67-.95v-1.35 0c-.01-.43.26-.81.66-.95h0c1.04-.37 1.58-1.52 1.22-2.56 -.21-.58-.65-1.02-1.23-1.23v0c-.4-.15-.67-.52-.67-.95v-1.35 0c-.01-.43.26-.81.66-.95v-.001c1.04-.37 1.58-1.52 1.22-2.56 -.21-.58-.65-1.02-1.23-1.23v0c-.4-.15-.67-.52-.67-.95l.01-1.18v-.001c0-.51.37-.93.87-1H6.75c2.65-.39 4.73-2.47 5.12-5.13v-.001c.07-.5.49-.87.99-.87h37.99v0c.5-.01.92.36.99.86v0c.38 2.65 2.46 4.73 5.12 5.12l0 0c.49.07.86.49.87.99l.01 1.17v0c-.01.42-.27.8-.67.94v0c-1.05.36-1.59 1.51-1.23 2.55 .2.57.64 1.01 1.22 1.22v0c.39.14.66.51.66.94v1.34 0c-.01.42-.27.8-.67.94v0c-1.05.36-1.59 1.51-1.23 2.55 .2.57.64 1.01 1.22 1.22v0c.39.14.66.51.66.94v1.34 0c-.01.42-.27.8-.67.94Zm-7.34-12.62v0c0-1.39-1.12-2.5-2.5-2.5h-31v0c-1.39 0-2.5 1.11-2.5 2.5v15 0c0 1.38 1.11 2.5 2.5 2.5h31v0c1.38 0 2.5-1.12 2.5-2.5Zm-2.5 15.5h-31v0c-.28 0-.5-.23-.5-.5v-15 0c0-.28.22-.5.5-.5h31v0c.27 0 .5.22.5.5v15 0c0 .27-.23.5-.5.5Z" fill="#D3D3D3"/>
</svg>