<svg xmlns="http://www.w3.org/2000/svg" viewBox="0 0 64 64">
  <path fill-rule="evenodd" d="M55.17 35.41l-2.76 1.37v-.001c-.26.12-.42.38-.42.67v7.53 0c0 .55-.45 1-1 1h-38v0c-.56 0-1-.45-1-1v-13 0c0-3.32 2.68-6 6-6h28v0c3.31-.01 5.99 2.68 6 5.99 0 0 0 0 0 0h3v0c.55 0 1 .44 1 1v1.07 0c-.01.56-.33 1.08-.83 1.34ZM43.99 22.99v0c0 .55-.45 1-1 1h-22v0c-.56 0-1-.45-1-1v0c-.1-1.6.66-3.13 2-4v0c-1.35-.87-2.12-2.41-2-4 -.001-4.46 5.28-7.01 12-7.01 6.71 0 12 2.55 12 7.007v0c.11 1.59-.66 3.13-2 3.99v0c1.33.87 2.09 2.4 2 3.99Zm6 30.99v0c1.1 0 2-.9 2-2v-3 0c0-.56-.45-1-1-1h-38v0c-.56 0-1 .44-1 1v2.99 0c0 1.1.89 2 2 2Z" fill="#D3D3D3"/>
</svg>