<svg xmlns="http://www.w3.org/2000/svg" viewBox="0 0 64 64">
  <path fill-rule="evenodd" d="M52 28h1.49v0c.27 0 .5.22.5.5V52v0c0 1.1-.9 2-2 2h-24v0c-1.11 0-2-.9-2-2V28.5v0c0-.28.22-.5.5-.5h1.49v0c.55 0 1-.45 1-1 0-.56-.45-1-1-1h-1.51v0c-.28-.01-.5-.23-.5-.5 -.09-5.51-1.54-10.39-3.78-13.59v-.001c-.39-.56-.25-1.33.31-1.71 .2-.15.45-.22.7-.22h22.75c4.33 0 7.85 6.88 7.99 15.48v0c0 .28-.23.51-.51.51 -.01 0-.01 0-.01 0h-1.49v0c-.56 0-1 .44-1 1 0 .55.44 1 1 1Zm-15.01-2h-3v0c-.56 0-1 .44-1 1 0 .55.44 1 1 1h3v0c.55 0 1-.45 1-1 0-.56-.45-1-1-1Zm9 0h-3v0c-.56 0-1 .44-1 1 0 .55.44 1 1 1h3v0c.55 0 1-.45 1-1 0-.56-.45-1-1-1ZM15.98 42c-4.42 0-8.01-7.17-8.01-16 0-8.84 3.58-16 8-16 4.41 0 8 7.16 8 16 0 8.83-3.59 16-8 16Zm0-22c-1.657 0-3 2.68-3 6 0 3.31 1.34 6 3 6 1.65 0 3-2.69 3-6 0-3.32-1.35-6-3-6Zm7.31 18.21h-.001c.08-.18.3-.26.48-.17 .12.06.19.18.2.31v3.12h-.001c-.01.27-.23.49-.51.49h-2.21v-.001c-.17 0-.31-.14-.31-.3 -.01-.09.03-.16.08-.22v0c.89-.98 1.64-2.08 2.23-3.26Z" fill="#D3D3D3"/>
</svg>