<svg xmlns="http://www.w3.org/2000/svg" viewBox="0 0 64 64">
  <path fill-rule="evenodd" d="M32 56v0C18.74 56 8 45.25 8 32 8 18.74 18.74 8 32 8c13.25 0 24 10.74 24 24v0c0 13.25-10.75 24-24 24Zm3.96-29.01l-2.7-8.07v0c-.25-.71-1.02-1.07-1.72-.83 -.39.13-.69.43-.83.82l-2.7 8.07h-8.698v-.001c-.72-.02-1.32.54-1.33 1.25 -.02.43.19.84.54 1.09l7.02 4.93 -2.51 7.97v0c-.24.68.12 1.43.81 1.67 .4.13.84.07 1.19-.18l6.9-4.98 6.9 4.98V43.7c.58.42 1.41.29 1.83-.3 .24-.35.31-.8.17-1.2l-2.51-7.99 7.02-4.94v0c.58-.42.72-1.22.31-1.81 -.25-.36-.67-.57-1.1-.56Z" fill="#D3D3D3"/>
</svg>