<svg xmlns="http://www.w3.org/2000/svg" viewBox="0 0 64 64">
  <path fill-rule="evenodd" d="M59.95 13.29l-1.23 3.81v0c-.18.54-.65.94-1.21 1.02 -.63.09-1.58.22-2.78.36l-1.34 2.67v0c-.26.5-.78.83-1.35.83h-3.21l.26 3.98h2.87v0c.55 0 1 .44 1 1v1.99 0c0 .55-.45 1-1 1h-2.61l1.62 24.94v0c.03.54-.38 1.02-.93 1.06 -.03 0-.05 0-.07 0h-3.76l-.001-.001c-.66-.01-1.2-.52-1.25-1.17l-1.63-24.85H20.49l-1.63 24.84v0c-.05.65-.59 1.16-1.24 1.16h-3.76v0c-.56-.01-1-.45-1-1 0-.03 0-.05 0-.07l1.62-24.95h-2.62v0c-.56 0-1-.45-1-1v-2 0c0-.56.44-1 1-1h2.87l.26-3.99h-3.21v0c-.57-.01-1.09-.33-1.35-.84L9.09 18.4c-1.2-.15-2.15-.28-2.78-.37v0c-.57-.09-1.04-.49-1.21-1.03L3.87 13.19v0c-.18-.53.11-1.09.63-1.26 .14-.05.29-.07.43-.05l0-.001c8.9 1.23 17.88 1.9 26.87 2l-.001-.001c8.99-.1 17.97-.77 26.88-2v-.001c.54-.08 1.04.31 1.11.86 .01.14 0 .29-.05.43ZM28.99 21.99H21.1l-.26 3.98h8.14Zm13.89 0h-7.89v3.98h8.15Z" fill="#D3D3D3"/>
</svg>