<svg xmlns="http://www.w3.org/2000/svg" viewBox="0 0 64 64">
  <path fill-rule="evenodd" d="M48.77 42.72v0c-.36 1.89-2.01 3.27-3.94 3.27H19.14h-.001c-1.93-.01-3.59-1.38-3.94-3.28l0 0c-.89-5.2-1.3-10.46-1.23-15.73l0-.001c-.08-5.27.33-10.54 1.22-15.73l-.001-.001c.35-1.9 2-3.28 3.93-3.28h25.68l-.001-.001c1.92 0 3.58 1.37 3.93 3.27l-.001 0c.88 5.19 1.29 10.45 1.22 15.72h0c.07 5.26-.34 10.53-1.23 15.72Zm-27.78-2.73v0c1.65 0 3-1.35 3-3 0-1.66-1.35-3-3-3 -1.66 0-3 1.34-3 3v0c0 1.65 1.34 3 3 3Zm17-29h-12v0c-1.11 0-2 .89-2 2 0 1.1.89 2 2 2h12v0c1.1 0 2-.9 2-2 0-1.11-.9-2-2-2Zm7.7 7.91v-.001c-.05-.52-.48-.92-1-.92H19.27v-.001c-.53-.01-.96.39-1 .91 -.18 2.27-.3 4.94-.3 8.08 0 .69 0 1.36.01 2.01v0c0 .54.45.98 1 .98h25.96v0c.54-.01.99-.44 1-.99 .01-.65.01-1.32.01-2.02 0-3.15-.12-5.82-.3-8.09Zm-2.71 15.08v0c-1.66 0-3 1.34-3 3 0 1.65 1.34 3 3 3 1.65 0 3-1.35 3-3v0c0-1.66-1.35-3-3-3ZM21.17 48.42h-.001c.18-.28.49-.45.82-.45h.99v0c.55 0 .99.45.99 1 -.01.1-.02.21-.06.31l-.23.68h16.5l-.23-.69v-.001c-.18-.53.1-1.09.62-1.27 .1-.04.2-.06.31-.06h.99v0c.33 0 .64.16.82.44l3.98 6v0c.3.45.18 1.08-.28 1.38 -.17.1-.36.16-.56.16h-2.99v0c-.43-.01-.82-.28-.95-.69l-.44-1.32H22.28l-.44 1.31v0c-.14.4-.52.68-.95.68h-2.99v0c-.56-.01-1-.46-1-1.01 0-.2.05-.39.16-.56Z" fill="#D3D3D3"/>
</svg>