<svg xmlns="http://www.w3.org/2000/svg" viewBox="0 0 64 64">
  <path fill-rule="evenodd" d="M47.6 41.3c-3.2 2.36-8.89 5.69-15.61 5.69 -6.73 0-12.42-3.33-15.61-5.7v0c-1.73-1.3-2.63-3.43-2.34-5.58l2.99-23.38v0c.31-2.49 2.41-4.36 4.92-4.36h20.06v0c2.5 0 4.61 1.87 4.92 4.36l2.99 23.37h-.001c.28 2.14-.61 4.27-2.34 5.57Zm-29.61-4.94c0 2.15 2.68 3.14 4.73 3.59v-.001c1.04.19 2.04-.5 2.23-1.54 .02-.14.03-.28.03-.42v0c0-.57-.22-1.12-.62-1.52 -.92-.93-2.68-2.49-4.06-2.49v0c-1.25-.05-2.29.92-2.34 2.17 -.01.06-.01.12 0 .18Zm20-25.38h-12v0c-1.11 0-2 .89-2 2 0 1.1.89 2 2 2h12v0c1.1 0 2-.9 2-2 0-1.11-.9-2-2-2Zm5.88 7.87v0c-.07-.51-.5-.88-1-.88H21.12v0c-.51-.01-.94.37-1 .87L19 27.45h-.001c-.06.43.18.86.59 1.04l8.08 3.56v0c2.75 1.21 5.88 1.21 8.64 0l8.07-3.56v0c.4-.18.64-.61.59-1.05Zm-.22 15.14c-1.38 0-3.14 1.56-4.06 2.48v0c-.4.4-.62.94-.62 1.51v0c-.04 1.05.79 1.94 1.85 1.97 .13 0 .27-.01.41-.04 2.04-.45 4.73-1.44 4.73-3.6l0-.001c.05-1.25-.91-2.3-2.15-2.36 -.07-.01-.13-.01-.19-.01ZM21.17 48.42h-.001c.18-.28.49-.45.82-.45h.99v0c.55 0 .99.45.99 1 -.01.1-.02.21-.06.31l-.23.68h16.5l-.23-.69h-.001c-.18-.53.1-1.09.62-1.27 .1-.04.2-.06.31-.06h.99 0c.33 0 .64.16.82.44l3.98 6h-.001c.3.45.18 1.08-.28 1.38 -.17.1-.36.16-.56.16h-2.99v0c-.43-.01-.82-.28-.95-.69l-.44-1.32H22.28l-.44 1.31v0c-.14.4-.52.68-.95.68H17.9v0c-.56-.01-1-.46-1-1.01 0-.2.05-.39.16-.56Z" fill="#D3D3D3"/>
</svg>