<svg xmlns="http://www.w3.org/2000/svg" viewBox="0 0 64 64">
  <path fill-rule="evenodd" d="M48.28 44.63l-.76 1.13v0c-.93 1.39-2.49 2.22-4.16 2.22H20.59h0c-1.68-.01-3.24-.84-4.16-2.23l-.76-1.14 -.001 0c-1.67-2.46-2.6-5.35-2.68-8.32h-.001c-.03-1.46.05-2.91.25-4.35l2.25-16.53 -.001-.001c.26-1.99 1.95-3.46 3.95-3.46h10.51v-4h-6.01v0c-1.11 0-2-.9-2-2 0-1.11.89-2 2-2h16v0c1.1 0 2 .89 2 2 0 1.1-.9 2-2 2h-6.01v4h10.51v0c1.99 0 3.68 1.47 3.95 3.45l2.25 16.52v0c.19 1.44.28 2.89.25 4.34v-.001c-.09 2.96-1.02 5.85-2.68 8.3Zm-6.31-2.64v0c1.65 0 3-1.34 3-3s-1.34-3.01-3-3.01c-1.66-.01-3.01 1.33-3.01 2.99 -.01 0-.01 0-.01 0l-.001 0c-.01 1.65 1.34 2.99 2.99 3Zm-19.98 0v0c1.65 0 3-1.34 3-3s-1.34-3.01-3-3.01c-1.66-.01-3.01 1.33-3.01 2.99 -.01 0-.01 0-.01 0h-.001c-.01 1.65 1.34 2.99 2.99 3Zm22.89-23.14v0c-.07-.5-.49-.87-.99-.87H20.05v0c-.5 0-.93.36-.99.86l-1.64 12h-.001c-.08.54.3 1.05.85 1.12 .04 0 .08 0 .13 0H45.5v0c.55-.01.99-.45.99-1.01 -.01-.05-.01-.1-.01-.14ZM21.17 50.43h0c.18-.28.49-.45.82-.45h.99v0c.32 0 .62.15.8.41v0c.18.26.23.59.13.9l-.23.68h16.48l-.23-.69v-.001c-.18-.53.1-1.09.62-1.27 .1-.04.2-.06.31-.06h.99v0c.33 0 .64.16.82.44l3.98 6v0c.2.3.22.7.04 1.02v0c-.18.32-.51.52-.88.52h-2.99v0c-.43-.01-.81-.28-.95-.69l-.44-1.32H22.29l-.44 1.31v0c-.14.4-.52.68-.95.68h-2.99v0c-.56-.01-1-.46-1-1.01 0-.2.05-.39.16-.56Z" fill="#D3D3D3"/>
</svg>