<svg xmlns="http://www.w3.org/2000/svg" viewBox="0 0 64 64">
  <path fill-rule="evenodd" d="M43.22 53c-.1-.02-4.62-.86-7.88-1.46v0c-.31-.06-.51-.35-.46-.66 .01-.11.06-.2.13-.28v0c1.32-1.51 1.32-3.77-.01-5.27v0c-.19-.21-.17-.53.03-.71 .05-.06.12-.1.2-.12v0c5.16-1.47 8.73-6.18 8.73-11.56 0-6.63-3-9.06-3-14v0c0-3.08.94-6.08 2.69-8.6v0c.15-.22.26-.47.29-.74l0 0c.09-.83-.5-1.57-1.32-1.66 -.06-.01-.12-.01-.18-.01H21.51v0c-.77-.02-1.43.54-1.55 1.3h-.001c-.05.37.04.75.27 1.06v0c1.76 2.53 2.71 5.54 2.71 8.63 0 4.94-3 7.37-3 14v0c-.01 5.37 3.57 10.09 8.75 11.55v0c.26.07.42.34.35.61 -.03.07-.06.14-.12.2h0c-1.33 1.5-1.34 3.75-.01 5.26v0c.2.23.18.58-.05.79 -.08.06-.18.11-.28.13 -3.26.59-7.77 1.43-7.87 1.45v0c-.47.1-.8.51-.78.99v1 0c-.01.55.44.99.99 1h21.95v-.001c.55-.01 1-.45 1-1.01v-1 0c.01-.48-.32-.9-.78-1ZM27.5 17.99v0c-.26-.01-.47-.21-.49-.47v0c-.13-1.66-.47-3.3-1.01-4.87v0c-.1-.26.03-.55.29-.65 .05-.02.1-.04.16-.04h11.03 -.001c.27 0 .49.23.49.5 -.01.05-.02.11-.04.16v0c-.55 1.57-.89 3.2-1.02 4.86v-.001c-.02.25-.23.46-.49.46Z" fill="#D3D3D3"/>
</svg>