<svg xmlns="http://www.w3.org/2000/svg" viewBox="0 0 64 64">
  <path fill-rule="evenodd" d="M52 36h-.82l.37 2.77 -.001 0c.29 2.14.44 4.31.44 6.48v3.74 0c0 1.65-1.35 3-3 3h-34v0c-1.66 0-3-1.35-3-3v-3.75 0c-.01-2.17.14-4.34.44-6.49l.37-2.78h-.82v0c-1.11 0-2-.9-2-2v-6 0c0-1.11.89-2 2-2h2.18l.22-1.68h0c.33-2.48 2.45-4.33 4.95-4.33h25.27v0c2.5-.01 4.61 1.84 4.95 4.32l.22 1.67h2.18v0c1.1 0 2 .89 2 2v6 0c0 1.1-.9 2-2 2Zm-7.01 10v0c1.65 0 3-1.35 3-3 0-1.66-1.35-3-3-3 -1.66 0-3 1.34-3 3v0c0 1.65 1.34 3 3 3Zm-19.01 0v0c0 1.1.89 2 2 2h8v0c1.1 0 2-.9 2-2v-4 0c0-1.11-.9-2-2-2h-8v0c-1.11 0-2 .89-2 2Zm-7 0v0c1.65 0 3-1.35 3-3 0-1.66-1.35-3-3-3 -1.66 0-3 1.34-3 3v0c0 1.65 1.34 3 3 3ZM45.6 24.86v0c-.07-.5-.5-.87-1-.87H19.32v0c-.51-.01-.93.36-1 .86l-1.37 10h0c-.08.54.3 1.05.85 1.12 .04 0 .08 0 .13 0h27.99v0c.55 0 1-.45 1-1 0-.05-.01-.1-.01-.14Zm2.28-6.04v0c-1.01-.55-2.14-.83-3.28-.83H19.32v0c-1.15 0-2.27.28-3.28.82v0c-.69.37-1.55.11-1.93-.58 -.12-.21-.18-.44-.18-.68V9.97v0c0-2.21 1.79-4 4-4h28v0c2.2 0 4 1.79 4 4v7.57 0c0 .78-.64 1.41-1.42 1.41 -.24 0-.47-.06-.68-.17ZM14.97 53.99h6v0c.55 0 1 .44 1 1v1 0c0 1.1-.9 2-2 2h-4v0c-1.11 0-2-.9-2-2v-1 0c0-.56.44-1 1-1Zm28 0h6v0c.55 0 1 .44 1 1v1 0c0 1.1-.9 2-2 2h-4v0c-1.11 0-2-.9-2-2v-1 0c0-.56.44-1 1-1Z" fill="#D3D3D3"/>
</svg>