<svg xmlns="http://www.w3.org/2000/svg" viewBox="0 0 64 64">
  <path fill-rule="evenodd" d="M57.76 19.77c-1.13 1.13-7.96-2.07-17.31 6.12v-.001c5.75 1.9 8.88 8.1 6.97 13.86 -.54 1.63-1.46 3.11-2.68 4.33l-8.7 8.69v0c-4.31 4.25-11.25 4.22-15.51-.09 -1.22-1.23-2.13-2.73-2.66-4.38l-2.25 2.24c-2.51 2.5-1.88 4.69-2.48 5.29 -.28.27-.65.06-1.06-.36L6.42 49.8c-.42-.42-.64-.79-.36-1.06 .6-.6 2.79.02 5.29-2.48l8.14-8.15 -1.2-1.19c-.57-.57-.57-1.1.41-2.09l.11-.12c.98-.99 1.51-.99 2.07-.42l1.19 1.19 1.38-1.39 -1.2-1.19c-.57-.57-.57-1.1.41-2.09l.11-.12c.98-.99 1.51-.99 2.07-.42l1.19 1.19 1.38-1.39 -1.2-1.19c-.57-.57-.57-1.1.41-2.09l.11-.12c.98-.99 1.51-.99 2.07-.42l1.19 1.19 4.26-4.27c10.26-10.26 6.57-17.88 7.77-19.08 .55-.56 1.29-.13 2.11.7L56.84 17.5c.82.82 1.26 1.56.7 2.11ZM23.97 42.58h-.001c-1.33 2.4-.45 5.42 1.95 6.74 1.49.82 3.31.82 4.8-.01Zm9.5 4.302l1.4-1.41 -7.08-7.06 -1.4 1.39Zm-3.07-11.07l7.06 7.06 1.4-1.41 -7.08-7.06Zm4.15-3.849l6.76 6.76h-.001c1.34-2.4.49-5.42-1.9-6.77 -1.52-.86-3.37-.86-4.88 0Z" fill="#D3D3D3"/>
</svg>