<svg xmlns="http://www.w3.org/2000/svg" viewBox="0 0 64 64">
  <path fill-rule="evenodd" d="M57.59 24.81l-7.01 4.99 0-.001c-.43.3-1.02.22-1.35-.18l-3.24-3.88v29.22 0c0 .55-.45 1-1 1H18.98v0c-.56 0-1-.45-1-1V25.72l-3.24 3.87h-.001c-.34.4-.93.47-1.35.17l-7.01-5h0c-.42-.3-.54-.85-.3-1.3l4.83-8.85 -.001 0c.86-1.59 2.24-2.84 3.91-3.54l7.08-2.98v0c.92-.38 1.96.07 2.33.99 .02.06.04.13.06.19l0-.001c1.28 4.22 5.75 6.6 9.97 5.31 2.54-.78 4.53-2.78 5.31-5.32v0c.26-.96 1.24-1.53 2.2-1.27 .06.01.13.04.2.06l7.09 2.98v0c1.66.7 3.05 1.95 3.91 3.54l4.83 8.84h-.001c.24.44.11.99-.3 1.29Z" fill="#D3D3D3"/>
</svg>