<svg xmlns="http://www.w3.org/2000/svg" viewBox="0 0 64 64">
  <path fill-rule="evenodd" d="M32 55.98c-13.46 0-19.693-10.64-20.91-13.26l0 0c-.21-.46-.05-.99.37-1.26l-.001-.001c1.67-.99 3.58-1.51 5.53-1.5 4.63 0 9.98 3.96 12.56 6.9v0c.09.1.24.11.34.02 .05-.05.08-.12.08-.2v-9.74 0c0-.56.44-1 1-1h2v0c.55 0 1 .44 1 1v9.73 0c-.01.13.1.24.24.25 .07 0 .14-.03.19-.09 2.58-2.94 7.92-6.91 12.56-6.91v-.001c1.94-.02 3.85.5 5.53 1.49V41.4c.42.26.58.8.37 1.25 -1.22 2.62-7.46 13.25-20.91 13.25Zm0-22.01c-7.68 0-14-4.86-14-14.38v0c.15-3.96 1.36-7.8 3.51-11.12v0c.31-.5.96-.65 1.46-.33 .08.05.16.12.23.2 .47.53 2.51 2.63 3.01 3.19v-.001c.44.51 1.22.56 1.74.11 .04-.04.08-.08.11-.12 .49-.57 2.69-2.73 3.11-3.21v0c.38-.45 1.05-.49 1.49-.11 .03.03.06.06.1.1 .42.48 2.62 2.64 3.11 3.2v0c.44.51 1.22.56 1.74.11 .04-.04.08-.08.11-.12 .49-.57 2.54-2.66 3.01-3.2v0c.38-.45 1.05-.5 1.49-.12 .07.06.14.14.2.23v-.001c2.14 3.32 3.35 7.16 3.51 11.11 0 9.52-6.32 14.38-14 14.38Z" fill="#D3D3D3"/>
</svg>