<svg xmlns="http://www.w3.org/2000/svg" viewBox="0 0 64 64">
  <path fill-rule="evenodd" d="M55.99 33.48v0c0 .28-.23.51-.51.51 -.01 0-.01 0-.01 0h-.52v0c-.34-.01-.66-.18-.84-.47v0c-2.46-3.67-7.42-4.64-11.08-2.19 -.87.57-1.61 1.31-2.19 2.18h0c-.19.28-.5.46-.84.46h-.57 -.001c-.34-.01-.66-.18-.84-.47h-.001c-2.46-3.67-7.42-4.64-11.09-2.18 -.87.57-1.61 1.31-2.18 2.17l0-.001c-.19.28-.5.45-.84.46h-.57 0c-.34-.01-.66-.18-.84-.47h-.001c-2.46-3.67-7.42-4.64-11.08-2.19 -.87.57-1.61 1.31-2.19 2.18v0c-.19.28-.5.46-.84.46h-.52v0c-.29-.01-.51-.23-.51-.51 0-.01 0-.01 0-.01v0c.27-12.4 9.95-22.55 22.32-23.41l.6-5.416 -.001 0c.04-.38.36-.67.74-.67h.65v0c.38 0 .7.28.74.66l.6 5.41v0c12.36.86 22.04 11 22.31 23.4ZM24 46.99v0c1.1 0 1.99.89 1.99 2v3 0c-.01 1.1.88 2 1.98 2.01 1.1 0 2-.89 2.01-1.99 0-.01 0-.02 0-.03v-19 0c0-.56.44-1 1-1h2v0c.55 0 1 .44 1 1v19 0c.01 3.31-2.67 6-5.98 6.02 -3.32.01-6.01-2.67-6.03-5.98 -.01-.02-.01-.04 0-.05v-3h-.001c-.01-1.11.89-2 1.99-2Z" fill="#D3D3D3"/>
</svg>