<svg xmlns="http://www.w3.org/2000/svg" viewBox="0 0 64 64">
  <path fill-rule="evenodd" d="M8.95 29.98c10.33 2.48 16.81 7.1 19.18 15.79l0-.001c.07.43.39.78.81.89v-.001c2.01.43 4.09.43 6.11 0v0c.42-.12.74-.47.81-.9 2.37-8.69 8.85-13.32 19.18-15.8v0c.56-.07.98-.57.94-1.14 -.3-2.18-1.08-6.96-1.35-8.98v0c-.07-.53-.54-.91-1.07-.87 -3.03.23-12.91.92-21.6.92 -8.69 0-18.57-.7-21.6-.93v0c-.53-.05-1 .33-1.07.86 -.28 2.02-1.06 6.8-1.35 8.97H7.93c-.04.56.37 1.06.94 1.13ZM55.19 32c-9.19 1.99-15.3 7.68-17.2 13.16v0c-.08.36.16.72.52.79 .14.02.29.01.42-.06v-.001c6.22-3.44 11.93-7.74 16.94-12.79v0c.07-.1.12-.21.12-.33v0c0-.45-.38-.9-.82-.81ZM8.81 32c-.44-.1-.82.35-.82.8v0h0c-.01.12.04.23.12.32H8.1c5 5.04 10.71 9.35 16.94 12.78v0c.33.15.73.01.89-.33 .06-.14.07-.28.05-.43 -1.91-5.48-8.02-11.18-17.2-13.17Z" fill="#D3D3D3"/>
</svg>