<svg xmlns="http://www.w3.org/2000/svg" viewBox="0 0 32 32">
  <path fill-rule="evenodd" d="M32 56l-.01-.001c-13.26-.01-24-10.75-24-24 0-13.26 10.74-24 24-24 13.25 0 24 10.74 24 24l0-.01c0 13.25-10.75 24-24 24Zm0-38.99c-5.37 0-9.01 4.14-9.01 9.64 0 6.39 4.19 10.35 9 10.35 4.8 0 9-3.97 9-10.36 0-5.51-3.64-9.65-9.01-9.65Zm0 22.98c-6.62 0-11.12 2.31-13.63 5.31l-.01 0c-.35.4-.32 1.01.06 1.38l-.01-.01c7.65 7.07 19.46 7.07 27.12-.01l-.01 0c.38-.38.41-.98.06-1.39 -2.52-3.01-7.01-5.32-13.63-5.32Z" transform="scale(0.5,0.5)" fill="#D3D3D3"/>
</svg>