<svg xmlns="http://www.w3.org/2000/svg" viewBox="0 0 32 32">
  <path fill-rule="evenodd" d="M32 56l-.01-.001c-13.26-.01-24-10.75-24-24 0-13.26 10.74-24 24-24 13.25 0 24 10.74 24 24l0-.01c0 13.25-10.75 24-24 24Zm20-24l-.01 0c0-11.05-8.95-20.01-20-20.01 -11.05-.01-20.01 8.94-20.01 19.99 -.01 4.96 1.84 9.76 5.18 13.44l0 0c.27.3.74.32 1.04.04 .02-.03.04-.05.06-.08 2.49-3.06 7.01-5.41 13.7-5.41 6.68 0 11.2 2.35 13.69 5.4l0 0c.26.31.73.35 1.04.09 .02-.03.04-.05.07-.07l0-.01c3.34-3.68 5.19-8.47 5.18-13.43Zm-20 5.01c-4.81 0-9.01-3.97-9.01-10.36 0-5.51 3.63-9.65 9-9.65 5.36 0 9 4.14 9 9.64 0 6.38-4.2 10.35-9.01 10.35Z" transform="scale(0.5,0.5)" fill="#D3D3D3"/>
</svg>