<svg xmlns="http://www.w3.org/2000/svg" viewBox="0 0 64 64">
  <path fill-rule="evenodd" d="M32 50.03l-.001 0c2.93 0 5.82-.72 8.42-2.1v0c.96-.54 2.18-.2 2.72.77 .53.96.19 2.18-.78 2.72v0c-10.72 5.73-24.06 1.69-29.8-9.02 -5.74-10.72-1.7-24.06 9.01-29.8 10.71-5.74 24.05-1.7 29.79 9.01 1.71 3.19 2.6 6.76 2.6 10.38 0 6.07-3.58 11-8 11l-.001-.001c-2.89-.01-5.55-1.56-6.96-4.07h0c-1.77 3.06-5 4.98-8.54 5.07 -5.8 0-10.5-5.38-10.5-12.01s4.69-12.01 10.49-12.01l0 0c2.9.03 5.65 1.36 7.49 3.61v-.51 0c-.03-1.01.67-1.89 1.66-2.08v-.001c1.08-.19 2.12.54 2.3 1.63 .01.11.02.22.02.33v12 0c-.01 2.2 1.78 4 3.99 4 0 0 0 0 0 0 2.2 0 3.99-3.14 3.99-7.01v0h0c-.01-9.94-8.07-18-18.01-17.99 -9.94 0-18 8.06-17.99 18 0 9.93 8.06 17.98 18 17.98Zm-1-26.01c-3.87 0-7 3.58-7 8 0 4.41 3.13 8 6.99 8 3.86 0 6.99-3.59 6.99-8.01s-3.14-8.01-7-8.01Z" fill="#D3D3D3"/>
</svg>