<svg xmlns="http://www.w3.org/2000/svg" viewBox="0 0 64 64">
  <path fill-rule="evenodd" d="M30 47h0c0-.56-.45-1-1-1h-1.99c-3.8-.04-6.09-2.36-7.71-7.21l-4.43-13.28c-2.13-6.4-.39-10.18 5.67-12.43v0c.35-.14.54-.53.41-.89 -.02-.04-.03-.07-.05-.1 -1.14-2.11-2.7-3.23-5.61-4.25V7.83c-1.04-.37-1.58-1.5-1.22-2.54l0 0c.34-1.03 1.45-1.59 2.47-1.25 0 0 .01 0 .02 0 5.06 1.76 7.44 4.18 9.09 9.23 .98 2.99 4.82 14.69 7.65 23.29v0c.26.81 1.03 1.37 1.89 1.37h1.53c.77 0 1.21.44 1.21 1v2.21 0c0 .45.31.85.75.97l5.72 1.43v0c.88.22 1.51 1.02 1.51 1.94v.65h-.001c0 .45.31.85.75.97l5.72 1.43v0c.88.22 1.51 1.02 1.51 1.94v4.43 0c0 .55-.45 1-1 1H26.89v0c-.56-.01-1-.45-1-1v-3 0c-.01-1.66 1.34-3 2.99-3 0-.01 0 0 .01 0v0c.54-.01.98-.46.97-1Zm-.04-8.33l-7-20.99v0c-.18-.53-.76-.81-1.28-.63 -.53.17-.81.74-.64 1.26l6.99 20.98h0c.17.52.74.81 1.27.63 .52-.18.81-.75.63-1.28Z" fill="#D3D3D3"/>
</svg>