<svg xmlns="http://www.w3.org/2000/svg" viewBox="0 0 64 64">
  <path fill-rule="evenodd" d="M54.97 34.39l-4 3.99v0c-.64.63-1 1.5-1 2.41v5.75 0c0 1.88-1.53 3.41-3.42 3.41h-5.76v0c-.91 0-1.78.35-2.42.99l-4 3.99v0c-1.34 1.33-3.5 1.33-4.83 0 -.01-.01-.01-.01-.01-.01l-4-4v-.001c-.64-.64-1.51-1-2.42-1h-5.76l-.001-.001c-1.89-.01-3.42-1.53-3.42-3.42v-5.76h-.001c0-.91-.36-1.78-1-2.42l-4-4h0c-1.34-1.34-1.34-3.5-.01-4.83 0-.01 0-.01 0-.01l3.99-4v-.001c.63-.64.99-1.51.99-2.42v-5.76h0c0-1.89 1.52-3.42 3.41-3.42h5.75v-.001c.9 0 1.77-.36 2.41-1l3.99-4v0c1.33-1.34 3.49-1.34 4.82-.001l3.99 3.99h0c.63.63 1.5.99 2.41.99h5.75v-.001c1.88 0 3.41 1.52 3.41 3.41v5.75 0c0 .9.35 1.77.99 2.41l3.99 3.99v-.001c1.33 1.33 1.33 3.49 0 4.82 -.01 0-.01 0-.01 0Zm-9.58-13.81v-.001c-.79-.78-2.06-.78-2.84.01 -.09.08-.16.16-.22.26L29.48 39.23l-5.88-8.42h-.001c-.64-.91-1.88-1.13-2.79-.5 -.1.06-.19.13-.27.21h0c-.7.73-.77 1.85-.18 2.67l6.62 9.48h0c.95 1.36 2.83 1.69 4.19.74 .28-.21.54-.46.74-.75l13.59-19.47v0c.59-.82.52-1.94-.18-2.67Z" fill="#D3D3D3"/>
</svg>