<svg xmlns="http://www.w3.org/2000/svg" viewBox="0 0 64 64">
  <path fill-rule="evenodd" d="M51.02 48.02c-8.51 0-7.94-10-19-10 -11.07 0-10.5 10-19 10v0c-3.87 0-7-3.14-7-7 0-23.12 7.63-27 26-27 18.36 0 26 3.88 26 27v0c0 3.86-3.14 7-7 7Zm-24-21v0c0-.56-.45-1-1-1h-4v-4 0c0-.56-.45-1-1-1h-2v0c-.56 0-1 .44-1 1v4h-4v0c-.56 0-1 .44-1 1v2 0c0 .55.44 1 1 1h4v4 0c0 .55.44 1 1 1h2v0c.55 0 1-.45 1-1v-4h4v0c.55 0 1-.45 1-1Zm13 0v0c-1.66 0-3 1.34-3 3 0 1.65 1.34 3 3 3 1.65 0 3-1.35 3-3v0c0-1.66-1.35-3-3-3Zm8-4v0c-1.66 0-3 1.34-3 3 0 1.65 1.34 3 3 3 1.65 0 3-1.35 3-3v0c0-1.66-1.35-3-3-3Z" fill="#D3D3D3"/>
</svg>