<svg xmlns="http://www.w3.org/2000/svg" viewBox="0 0 64 64">
  <path fill-rule="evenodd" d="M56 48.98H8v0c-1.11 0-2-.9-2-2v-23 0c0-.56.44-1 1-1h50v0c.55 0 1 .44 1 1v23 0c0 1.1-.9 2-2 2Zm-36-8.54v0c-.01-.27-.21-.48-.47-.5v0c-2.2-.26-3.77-2.25-3.51-4.44 .21-1.85 1.66-3.3 3.5-3.51v0c.25-.03.46-.24.46-.5v-1.54 0c0-.56-.45-1-1-1h-5.89l-.001 0c-.54 0-1.05.21-1.43.58l-.001-.001c-3.55 3.47-3.6 9.16-.13 12.7 .03.04.08.08.12.12h-.001c.37.37.88.58 1.42.58h5.88v0c.55 0 1-.45 1-1Zm20 1.53v0c0 .55-.45 1-1 1H25v0c-.56 0-1-.45-1-1v-12 0c0-.56.44-1 1-1h14v0c.55 0 1 .44 1 1Zm12.3-12.42v0c-.38-.38-.89-.59-1.43-.59h-5.89v0c-.56 0-1 .44-1 1v1.53 0c0 .26.2.47.46.49v0c2.19.25 3.76 2.24 3.5 4.43 -.22 1.84-1.67 3.29-3.51 3.5v-.001c-.26.02-.47.23-.47.49v1.53 0c0 .55.44 1 1 1h5.88v-.001c.53-.01 1.04-.22 1.42-.59v0c3.54-3.48 3.59-9.17.11-12.71 -.04-.05-.08-.09-.12-.12Zm4.69-8.59h-50v0c-.56 0-1-.45-1-1v-3 0c0-1.11.89-2 2-2h48v0c1.1 0 2 .89 2 2v3 0c-.01.55-.45.99-1.01.99 -.01-.01-.01-.01-.01-.01Z" fill="#D3D3D3"/>
</svg>