<svg xmlns="http://www.w3.org/2000/svg" viewBox="0 0 64 64">
  <path fill-rule="evenodd" d="M32 48.02c-14.68 0-21.97-11.68-23.78-15.08v0c-.31-.58-.31-1.27 0-1.85C10.03 27.68 17.32 16.01 32 16.01c14.67 0 21.96 11.67 23.78 15.07v0c.3.57.3 1.26 0 1.84 -1.82 3.4-9.11 15.07-23.78 15.07Zm.01-27v0c-6.08 0-11 4.92-11 11 0 6.07 4.92 10.99 11 10.99C38.08 43 43 38.08 43 32.01v0C43 25.93 38.07 21 32 21c-.01-.01-.01-.01-.01-.01Zm0 18v0c-3.87 0-7-3.14-7-7 0-3.87 3.13-7 7-7 3.86 0 7 3.13 7 7v0c-.01 3.86-3.14 6.99-7 6.99Z" fill="#D3D3D3"/>
</svg>