<svg xmlns="http://www.w3.org/2000/svg" viewBox="0 0 64 64">
  <path fill-rule="evenodd" d="M57.16 44.15l-1.93 3.83 .2.1v0c.49.24.69.84.44 1.34 -.01 0-.01 0-.01 0l-3.01 6h0c-.25.49-.85.69-1.35.44l-4.01-2.01v-.001c-.5-.25-.7-.85-.45-1.35 0-.01 0-.01 0-.01l3-6.01h-.001c.24-.5.84-.7 1.34-.45l.21.1 1.92-3.84 -.001-.001c.27-.56.42-1.17.42-1.79v-26.6l-.001-.001c0-1.11.91-2.01 2.02-2 1.09 0 1.98.89 1.99 1.99v26.59 0c-.01 1.24-.3 2.46-.85 3.57Zm-29.17 9.82h0c-12.16 0-22-9.85-22-22 0-12.16 9.84-22 22-22 12.15 0 22 9.84 22 22v0c0 12.15-9.85 22-22 22Zm0-32.02l-.001-.001c-5.53 0-10.02 4.48-10.02 10.01 0 5.52 4.48 10.01 10.01 10.01 5.52-.01 10.01-4.49 10.01-10.02v-.001c0-5.53-4.49-10.02-10.02-10.02 -.01-.001-.01 0-.01 0Zm0 18.01v0c-4.42-.01-8.01-3.59-8.01-8.01s3.58-8.01 8-8.01c4.41 0 8 3.58 8 8v0c0 4.41-3.59 8-8 8 -.01 0-.01 0-.01-.01Zm0-10.01v0c-1.12 0-2.01.89-2.01 2.01 0 1.11.89 2.01 2.01 2.01 1.11 0 2.01-.9 2.01-2.01v0c0-1.11-.9-2.01-2.01-2.02 -.01-.01-.01-.01-.01-.01Z" fill="#D3D3D3"/>
</svg>