<svg xmlns="http://www.w3.org/2000/svg" viewBox="0 0 64 64">
  <path fill-rule="evenodd" d="M18.272 43.31v0c-.27-.39-.8-.48-1.18-.21 -.08.05-.15.12-.21.2 -1.76 1.76-2.6 5.07-6.9 9.34v0c-.41.38-1.04.38-1.44 0 -4.55-4.55-4.63-11.21-1.01-14.82 2.93-2.94 4.49-2.64 5.43-3.51 1.01-1.02.88-1.81 1.29-2.23 .84-.85 3.47 2.94 7.39-.99 3.27-3.28.81-6.11 1.42-6.72 .39-.4 1.49-.14 2.64-1.3 .62-.63.68-1.69 1.76-2.77 2.49-2.5 7.78-3.6 12.42-.45L51.36 9.51c-.81-1.18-.63-2.18.63-3.44 1.54-1.55 2.72-1.55 4.26 0l1.5 1.5c1.54 1.54 1.54 2.72 0 4.26 -1.27 1.26-2.26 1.44-3.44.63L43.97 23.94c3.14 4.63 2.04 9.93-.45 12.42 -1.08 1.08-2.15 1.14-2.77 1.76 -1.16 1.15-.9 2.25-1.3 2.64 -.62.61-3.44-1.85-6.72 1.42 -3.93 3.92-.14 6.55-.99 7.39 -.42.41-1.21.28-2.23 1.29 -.88.93-.57 2.497-3.51 5.43 -3.62 3.61-10.28 3.53-14.818-1.01h-.001c-.39-.41-.39-1.04 0-1.44 4.27-4.3 7.58-5.14 9.34-6.9h0c.38-.27.47-.8.2-1.18 -.06-.08-.13-.15-.21-.21Z" fill="#D3D3D3"/>
</svg>