<svg xmlns="http://www.w3.org/2000/svg" viewBox="0 0 64 64">
  <path fill-rule="evenodd" d="M46.008 37.98h-4v12 0c0 1.1-.9 2-2 2 -1.11 0-2-.9-2-2v-12h-4v0c-1.11 0-2-.9-2-2 0-1.11.89-2 2-2h4v-14 0c0-2.21-1.8-4-4-4 -2.21 0-4 1.79-4 4v30 0c0 1.1-.9 2-2 2 -1.11 0-2-.9-2-2v-30 0c0-2.21-1.8-4-4-4 -2.21 0-4 1.79-4 4v30 0c0 1.1-.9 2-2 2 -1.11 0-2-.9-2-2v-30 0c0-2.21-1.8-4-4-4v0c-1.11 0-2-.9-2-2 0-1.11.89-2 2-2v0c2.29-.01 4.48.99 6 2.72v-.001c2.9-3.32 7.94-3.65 11.25-.75 .26.23.51.48.74.74v-.001c2.9-3.32 7.94-3.65 11.25-.75 .26.23.51.48.74.74v0c2.91-3.32 7.96-3.65 11.27-.74 1.73 1.51 2.72 3.71 2.72 6.01v10 0c0 4.41-3.59 8-8 8Zm-4-4v-14 0c0-2.21 1.79-4 4-4 2.2 0 4 1.79 4 4v10 0c0 2.2-1.8 4-4 4Z" fill="#D3D3D3"/>
</svg>