<svg xmlns="http://www.w3.org/2000/svg" viewBox="0 0 64 64">
  <path fill-rule="evenodd" d="M52.01 50.02h-40v0c-3.32 0-6-2.69-6-6v-24 0c0-3.32 2.68-6 6-6h40v0c3.31 0 6 2.68 6 6v24 0c0 3.31-2.69 6-6 6Zm-8-28h-.001c-5.52-.01-10 4.45-10 9.97 -.01 2.17.7 4.29 2.01 6.02h-8.03v0c3.3-4.42 2.41-10.68-2.01-13.99 -4.42-3.31-10.68-2.42-13.99 2 -3.31 4.41-2.42 10.67 2 13.98 1.73 1.29 3.83 1.99 5.99 1.99h24v0c5.52 0 10-4.48 10-10 0-5.53-4.48-10-10-10Zm0 16v0c-3.32 0-6-2.69-6-6 0-3.32 2.68-6 6-6 3.31 0 6 2.68 6 6v0c0 3.31-2.69 6-6 6 -.01 0-.01 0-.01 0Zm-24 0v0c-3.32 0-6-2.69-6-6 0-3.32 2.68-6 6-6 3.31 0 6 2.68 6 6v0c0 3.31-2.69 6-6 6 -.01 0-.01 0-.01 0Z" fill="#D3D3D3"/>
</svg>