<svg xmlns="http://www.w3.org/2000/svg" viewBox="0 0 64 64">
  <path fill-rule="evenodd" d="M57.25 54H6.75v0c-.42 0-.75-.34-.75-.75v-.81 0c0-.29.12-.56.33-.75 12.69-11.27 16.06-22.86 16.58-25.32v0c.04-.23.25-.4.48-.4h.48v0c.22-.01.42.14.47.36v0c.34 1.76 2.05 2.92 3.81 2.57 .51-.1.99-.33 1.4-.65v-.001c.24-.2.55-.3.86-.3h.31v0c.39 0 .77.16 1.04.45v-.001c.9.98 2.19 1.54 3.53 1.54v0c1.82-.01 3.48-1.07 4.25-2.72v0c.08-.18.25-.29.44-.29h.56v0c.22 0 .42.14.48.36h0c3.22 9.45 8.94 17.86 16.55 24.34v-.001c.22.18.34.46.35.75v.79 0c-.01.41-.34.74-.75.74ZM35.79 24.21v0c.23.36.24.82.01 1.19v0c-.7.69-1.79.81-2.61.27l-.02-.01v0c-.87-.51-1.93-.52-2.8-.04l-.05.02v0c-.55.31-1.2.39-1.81.22 -1.09-.27-1.78-1.12-1.55-1.91 .37-1.27 2.01-.6 1.96-2.02v0c.02-.53-.37-.99-.89-1.05 -3.42-.31-5.97-2.17-6.14-4.61h0c-.04-1.4.54-2.74 1.59-3.66l0-.001c.56-.54.59-1.43.05-2 -.06-.06-.12-.12-.19-.17 -1.74-1.3-2.7-2.94-2.4-4.55 .53-2.93 4.97-4.61 9.92-3.77 4.94.84 8.52 3.89 7.99 6.81v0c-.22.97-.79 1.82-1.62 2.38v0c-.36.25-.43.75-.17 1.1 0 0 .01.01.02.02v0c.48.6.76 1.33.83 2.1v0c-.01 1.83-.99 3.53-2.58 4.46 -2.05 1.43-.25 4.03.35 5.11Z" fill="#D3D3D3"/>
</svg>