<svg xmlns="http://www.w3.org/2000/svg" viewBox="0 0 64 64">
  <path fill-rule="evenodd" d="M9.02 17.02v0c0-1.11.89-2 2-2h18v0c1.1 0 2 .89 2 2v6 0c0 1.1-.9 2-2 2h-18v0c-1.11 0-2-.9-2-2Zm0 12v0c0-1.11.89-2 2-2h6v0c1.1 0 2 .89 2 2v6 0c0 1.1-.9 2-2 2h-6v0c-1.11 0-2-.9-2-2Zm20 20h-18v0c-1.11 0-2-.9-2-2v-6 0c0-1.11.89-2 2-2h18v0c1.1 0 2 .89 2 2v6 0c0 1.1-.9 2-2 2 -.01 0-.01-.01-.01-.01Zm-8-14v-6 0c0-1.11.89-2 2-2h18v0c1.1 0 2 .89 2 2v6 0c0 1.1-.9 2-2 2h-18v0c-1.11 0-2.01-.9-2.01-2 -.01-.01-.01-.01-.01-.01Zm34 12v0c0 1.1-.9 2-2 2h-18v0c-1.11 0-2-.9-2-2v-6 0c0-1.11.89-2 2-2h18v0c1.1 0 2 .89 2 2Zm0-12v0c0 1.1-.9 2-2 2h-6v0c-1.11 0-2-.9-2-2v-6 0c0-1.11.89-2 2-2h6v0c1.1 0 2 .89 2 2Zm0-18v6 0c0 1.1-.9 2-2 2h-18v0c-1.11 0-2-.9-2-2v-6 0c0-1.11.89-2 2-2h18v0c1.1 0 1.99.89 1.99 2Z" fill="#D3D3D3"/>
</svg>