<svg xmlns="http://www.w3.org/2000/svg" viewBox="0 0 64 64">
  <path fill-rule="evenodd" d="M55 52H9.01v-.001c-1.66-.01-3.01-1.35-3-3.01 0-.55.15-1.09.43-1.56L29.437 9.4v0c.85-1.42 2.69-1.88 4.11-1.02 .41.25.76.59 1.01 1.01l22.99 38.01 -.001-.001c.85 1.41.4 3.26-1.02 4.12 -.47.28-1.01.43-1.56.43Zm-23-3.99v0c1.65 0 3-1.35 3-3 0-1.66-1.35-3-3-3 -1.66 0-3 1.34-3 3v0c0 1.65 1.34 3 3 3Zm1.99-28h-3.98v0c-.56-.01-1.02.44-1.03.99 -.01.01 0 .03 0 .05l.91 17v0c.03.53.48.95 1.02.94h2.14v0c.53 0 .98-.42 1.02-.95l.91-17v0c.02-.56-.41-1.03-.97-1.06 -.02-.01-.04-.01-.06-.01Z" fill="#D3D3D3"/>
</svg>