<svg xmlns="http://www.w3.org/2000/svg" viewBox="0 0 64 64">
  <path fill-rule="evenodd" d="M40 45.842v7.15 0c0 1.65-1.35 3-3 3H27v0c-1.66 0-3-1.35-3-3v-7.16h0c-7.65-4.41-10.28-14.18-5.87-21.82 1.4-2.44 3.42-4.47 5.86-5.87v-7.16 0c0-1.66 1.34-3 3-3h10v0c1.65 0 3 1.34 3 3v7.15 0c7.64 4.4 10.27 14.17 5.86 21.81 -1.41 2.43-3.43 4.46-5.87 5.86ZM32 20v0c-6.63 0-12 5.37-12 12 0 6.62 5.37 12 12 12 6.62 0 12-5.38 12-12v0c0-6.63-5.38-12-12-12Zm5.53 16.89l-6.62-3.21 0-.001c-.62-.3-.98-.96-.91-1.64l0-.05 1.01-9.11v0c.06-.56.56-.97 1.11-.91 .47.05.84.42.9.9l.9 8.12 4.7 4.18v0c.42.37.46 1.01.08 1.44 -.31.34-.8.44-1.21.24Z" fill="#D3D3D3"/>
</svg>