<svg xmlns="http://www.w3.org/2000/svg" viewBox="0 0 64 64">
  <path fill-rule="evenodd" d="M35.21 42.99c-5.04 0-7.77-3.49-11.01-2.91v0c-.14.02-.27-.06-.3-.19 -.01-.04-.01-.07-.01-.11 .58-3.24-2.91-5.97-2.91-11.01 0-.99-.94-1.03-1.62-.35 -4.83 4.81-.19 13.54-6.31 19.65 -1.8 1.79-4.81 4.77-4.81 4.77v-.001c-.4.39-.4 1.02 0 1.41l1.41 1.41v0c.39.39 1.02.39 1.41 0 0-.01 0-.01 0-.01s2.99-3.01 4.78-4.8c6.1-6.12 14.83-1.48 19.65-6.31 .67-.68.63-1.62-.35-1.62Zm-7.23-9c.9 0 4-3.14 4-7 0-3.87-3.1-7-4-7 -.91 0-4 3.13-4 6.99 0 3.86 3.09 6.99 3.99 6.99Zm8.02-8c.9 0 4-3.14 4-7 0-3.87-3.1-7-4-7 -.91 0-4 3.13-4 6.99 0 3.86 3.09 6.99 3.99 6.99Zm8.98-2c-3.87 0-7 3.09-7 3.99 0 .9 3.13 3.99 7 3.99 3.86 0 7-3.1 7-4 0-.91-3.14-4-7-4Zm-8 7.99c-3.87 0-7 3.09-7 3.99 0 .9 3.13 3.99 7 3.99 3.86 0 7-3.1 7-4 0-.91-3.14-4-7-4ZM51.4 18.42c2.82-2.86 2.85-7.46 2.19-8.13 -.67-.67-5.23-.64-8.05 2.21 -2.83 2.85-2.86 7.45-2.2 8.12 .66.66 5.22.64 8.05-2.22Z" fill="#D3D3D3"/>
</svg>