<svg xmlns="http://www.w3.org/2000/svg" viewBox="0 0 64 64">
  <path fill-rule="evenodd" d="M53.48 50.69l-4.36 1.2h-.001c-1.26.35-2.6-.14-3.33-1.23l-7.17-10.69h-9.64v0c-2.77-.01-5.01-2.25-5-5.01 0-.48.06-.96.2-1.42l3.11-10.6h-5.45l-3.6 6.49v0c-.27.46-.85.63-1.32.39l-.41-.21V29.6c-.44-.22-.65-.72-.52-1.18l2.41-8.36v0c.37-1.28 1.54-2.16 2.88-2.16h9.64v0c2.76 0 5 2.24 4.99 5 -.01.47-.07.95-.21 1.41l-2.53 8.59 8.45 2.33v0c1.45.42 2.64 1.48 3.23 2.88l4.07 9.78h4.01 -.001c.35 0 .66.25.73.6l.24 1.21v0c.07.38-.16.76-.53.86ZM34 15.98v0c-2.77-.01-5.01-2.24-5.01-5.01 0-2.77 2.23-5.01 5-5.01 2.76 0 5 2.23 5 5v-.001c-.01 2.76-2.24 5-5.01 5ZM23.08 30.21c-.26.9-.59 2.04-.8 2.82h-.001c-.14.54-.44 1.03-.86 1.41h-.001c-4.18 3.61-4.62 9.93-1 14.1 3.61 4.17 9.93 4.61 14.1.99 1.49-1.31 2.57-3.02 3.09-4.94v0c.11-.45.57-.72 1.01-.6 .19.05.36.17.48.34l1.41 2.1h0c.29.42.34.96.13 1.43v0c-3.27 7-11.6 10.04-18.61 6.78 -7.01-3.27-10.05-11.6-6.79-18.61 1.38-2.98 3.77-5.38 6.74-6.77v0c.37-.18.82-.01.99.37 .07.16.08.34.03.51Z" fill="#D3D3D3"/>
</svg>