<svg xmlns="http://www.w3.org/2000/svg" viewBox="0 0 64 64">
  <path fill-rule="evenodd" d="M26.99 18h2.19 -.001c.5 0 .96.25 1.24.66l1.1 1.66h0c.27.41.74.66 1.24.66h6.39v0c.5 0 .96-.26 1.24-.67l1.1-1.67v0c.27-.42.74-.67 1.24-.67H57.92v0c1.1 0 2 .89 2 2v2.3 0c0 1.02-.63 1.94-1.58 2.32L43.49 30.53h0c-.98.4-1.6 1.36-1.58 2.41v.01 0c0 8.27-6.7 14.99-14.98 14.99 -5.1 0-9.84-2.58-12.6-6.85h0c-.18-.27-.49-.4-.8-.33h-.001c-.96.2-1.94.22-2.9.06h0c-3.99-.7-6.86-4.22-6.73-8.26v0c.19-4.28 3.71-7.64 7.99-7.64v-.001c.54 0 1.09.05 1.63.17v0c.3.06.62-.06.79-.33l0 0c2.75-4.28 7.49-6.86 12.573-6.86ZM12.38 29.63v0c.06-.27-.1-.55-.37-.61 -.05-.02-.09-.02-.13-.02v0c-2.21.04-3.95 1.87-3.9 4.07 .04 2.13 1.76 3.85 3.89 3.89v-.001c.27 0 .5-.22.51-.5 0-.05-.01-.09-.02-.13h-.001c-.53-2.22-.53-4.52-.001-6.73Z" fill="#D3D3D3"/>
</svg>