<svg xmlns="http://www.w3.org/2000/svg" viewBox="0 0 64 64">
  <g fill="#D3D3D3">
    <path d="M10.06 26.6l-.02-.05v0c-.33-1.03.23-2.13 1.25-2.45 0-.01 0-.01.01-.01l-.001-.001c1.96-.6 3.95-1.08 5.96-1.46 6.48-1.38 10.71-2.51 10.67-5.7v0c-.02-1.65-1.37-2.97-3.01-2.95 -.05 0-.09 0-.13 0l0 0c-.93-.01-1.8.46-2.29 1.24l-.001-.001c-.62.81-1.76 1.01-2.62.46l-.02-.01v0c-.94-.57-1.23-1.79-.67-2.72 .02-.05.05-.09.08-.13v0c1.28-1.88 3.45-2.96 5.72-2.87v0c3.81.08 6.86 3.17 6.89 6.99 0 6.63-7.36 8.19-13.85 9.56v0c-1.88.35-3.73.8-5.56 1.35v0c-1.05.32-2.17-.26-2.5-1.31Z"/>
    <path d="M47.21 38.97c-7.19-.32-12.91-4.99-21.236-4.99v0c-5.27.03-10.44 1.35-15.08 3.82v0c-.95.48-2.11.13-2.64-.79l-.01-.01v0c-.55-.97-.22-2.2.75-2.75 .02-.02.04-.03.07-.05l-.001 0c5.2-2.77 10.99-4.23 16.88-4.26 9.23 0 15.3 4.82 21.67 4.99v-.001c2.04.11 3.87-1.3 4.28-3.31v0c.37-2.19-1.09-4.26-3.27-4.64 -.23-.04-.46-.06-.68-.06v0c-.66-.04-1.3.17-1.79.6h-.001c-.82.64-2 .55-2.7-.22l-.02-.02v0c-.75-.81-.71-2.06.1-2.81 .02-.03.05-.06.08-.08v0c1.2-1.01 2.73-1.55 4.3-1.5v0c4.42 0 8 3.59 8 8.01 -.01.2-.01.41-.03.62v0c-.48 4.39-4.34 7.63-8.75 7.34Z"/>
    <path d="M31.98 56v0c-2.87.12-5.53-1.49-6.75-4.09h0c-.52-.98-.15-2.18.82-2.7 .05-.03.1-.06.16-.08v0 0c.94-.4 2.04-.01 2.52.91v0c.55 1.26 1.84 2.03 3.21 1.94v0c2.2 0 4-1.79 4.01-3.99 0-.03-.01-.05-.01-.08 -.05-3.67-3.87-5.94-10.01-5.94v0c-3.91.02-7.7 1.31-10.82 3.67H15.1c-.87.61-2.07.44-2.73-.39v0 0c-.69-.87-.54-2.13.33-2.82 .02-.03.05-.05.08-.07l-.001-.001c3.79-2.84 8.38-4.38 13.12-4.41 10.33 0 14 5.38 14 10v0c-.01 4.41-3.59 7.99-8.01 8Z"/>
  </g>
</svg>