<svg xmlns="http://www.w3.org/2000/svg" viewBox="0 0 64 64">
  <path fill-rule="evenodd" d="M33.996 40.701v0c0-.49.35-.9.82-.99v0c6.49-1.35 11.16-7.07 11.17-13.7 0-6.15-2.92-16.88-3.05-17.29v0c-.13-.43-.52-.72-.96-.72H21.96v0c-.45-.01-.84.28-.96.71 -.13.41-3.05 11.14-3.05 17.28h-.001c.01 6.63 4.67 12.35 11.17 13.69v0c.47.08.82.5.82.98l.01 9.79v0c0 .48-.35.89-.82.98 -3.28.59-8.28 1.52-8.38 1.54v0c-.47.1-.8.51-.78.99v1 0c0 .55.44 1 1 1h21.94v0c.55 0 1-.45 1-1v-1h0c.01-.48-.32-.9-.78-1 -.11-.02-5.11-.95-8.38-1.55v0c-.48-.09-.82-.51-.82-.99Zm-11.11-18.68v0c-.28 0-.51-.22-.51-.5 -.01-.03 0-.05 0-.07l-.001 0c.42-3.06 1.02-6.09 1.77-9.07v0c.05-.22.25-.37.48-.37h14.69v0c.22-.01.42.14.48.36l0-.001c.75 2.98 1.34 6.01 1.77 9.06v0c.03.27-.16.52-.44.55 -.03 0-.05 0-.07 0Z" fill="#D3D3D3"/>
</svg>