<svg xmlns="http://www.w3.org/2000/svg" viewBox="0 0 64 64">
  <path fill-rule="evenodd" d="M61.33 45.98H18.39v0c-.71-.04-1.39-.32-1.91-.79q-3.17-2.76-6.08-5.6c-.7-.68-.47-1.63.35-1.63h42.93v0c.68.02 1.33.31 1.81.81q2.87 2.83 6 5.61c.74.65.62 1.58-.19 1.58Zm-9.34-10H10.43v0c-.25-.01-.45-.2-.45-.45 0-.09.02-.17.06-.24v0c1.31-2.21 1.98-4.75 1.92-7.32h0c.05-2.58-.62-5.11-1.93-7.32v0c-.14-.21-.08-.49.13-.62 .07-.05.15-.07.23-.07h41.55c2.2 0 4 3.58 4 8 0 4.41-1.8 8-4 8Zm-46.01 0c-2.21 0-4-3.59-4-8.01s1.79-8.01 4-8.01c2.2 0 4 3.58 4 8 0 4.41-1.8 8-4 8Z" fill="#D3D3D3"/>
</svg>