<svg xmlns="http://www.w3.org/2000/svg" viewBox="0 0 64 64">
  <path fill-rule="evenodd" d="M45 26v0c.55 0 1 .44 1 1v2 0c0 .55-.45 1-1 1H34.45h0c-.26.02-.45.23-.45.48v18.81h0c0 .28.22.5.5.5 .01-.01.03-.01.05-.01v0c4.42-.57 8.52-2.61 11.65-5.78l-1.92-1.92h-.001c-.41-.41-.41-1.06 0-1.47 .15-.16.34-.26.55-.29l7.92-1.39v0c.56-.1 1.1.27 1.19.84 .02.11.02.23 0 .35l-1.39 7.92v-.001c-.1.56-.64.94-1.21.84 -.22-.04-.41-.14-.56-.29l-1.82-1.82v0c-2.29 2.3-5.01 4.13-8.01 5.36v0c-3.1 1.25-5.91 3.1-8.28 5.45v0 0c-.42.41-1.1.41-1.52 0h0c-2.37-2.36-5.19-4.21-8.28-5.47h-.001c-3-1.23-5.72-3.05-7.99-5.35l-1.83 1.83h0c-.41.4-1.07.4-1.47 0 -.16-.16-.26-.35-.29-.56l-1.39-7.96v0c-.1-.57.27-1.11.84-1.2 .11-.03.23-.03.35 0L19 40.25v0c.56.09.94.63.84 1.2 -.04.2-.14.4-.29.55l-1.91 1.91h-.001c3.12 3.16 7.22 5.2 11.64 5.77l0-.001c.27.03.53-.17.56-.45 0-.02 0-.04 0-.06V30.35v0c-.01-.26-.2-.47-.45-.49H18.83v0c-.56 0-1-.45-1-1v-2 0c0-.56.44-1 1-1l10.5-.01v0c.27 0 .5-.23.5-.5v-5.47 0c-.01-.22-.14-.4-.34-.47l0 0c-3.65-1.3-5.56-5.3-4.27-8.94 1.29-3.65 5.29-5.56 8.93-4.27 3.64 1.29 5.55 5.29 4.26 8.93 -.71 1.99-2.28 3.55-4.27 4.26v0c-.21.06-.34.25-.34.46v5.47 0c0 .27.22.5.5.5ZM32 9.99V9.98c-1.66 0-3 1.34-3 3 0 1.65 1.34 2.99 3 2.99 1.65-.01 2.99-1.35 2.99-3.01v0c-.01-1.66-1.35-3-3.01-3 -.01 0-.01 0-.01 0Z" />
</svg>