<svg xmlns="http://www.w3.org/2000/svg" viewBox="0 0 64 64">
  <path fill-rule="evenodd" d="M8 32v0C8 18.74 18.74 8 32 8c13.25 0 24 10.74 24 24 0 13.25-10.75 24-24 24v0C18.74 56 8 45.25 8 32Zm44 0v0c0-11.05-8.96-20.01-20-20.01 -11.05-.01-20.01 8.95-20.01 19.99 -.01 10.27 7.77 18.87 18 19.9V26.8l-7.573 7.58 -.001-.001c-.79.77-2.06.76-2.84-.02 -.78-.79-.78-2.04 0-2.82l11-11.03V20.5c.77-.79 2.04-.79 2.82-.01 0 0 0 0 0 0l11 11.02 0 0c.78.78.78 2.04 0 2.83 -.79.78-2.05.78-2.84 0l-7.61-7.63v25.1 -.001c10.21-1.03 17.99-9.63 18-19.9Z" />
</svg>