<svg xmlns="http://www.w3.org/2000/svg" viewBox="0 0 64 64">
  <path fill-rule="evenodd" d="M8 32v0C8 18.74 18.74 8 32 8c13.25 0 24 10.74 24 24 0 13.25-10.75 24-24 24v0C18.74 56 8 45.25 8 32Zm44 0v0c-.01-10.28-7.79-18.88-18-19.9v25.07l7.57-7.59v-.001c.78-.79 2.04-.79 2.83 0 .78.78.78 2.04-.01 2.83l-11.01 11.02v0c-.78.78-2.05.78-2.83 0 -.01-.01-.01-.01-.01-.01l-11.01-11.03v0c-.79-.79-.79-2.05-.01-2.84s2.04-.79 2.83-.01l7.6 7.62v-25.11 -.001c-11 1.1-19.01 10.9-17.9 21.89 1.1 10.99 10.9 19 21.89 17.89 10.21-1.03 18-9.63 18-19.91Z" />
</svg>