<svg xmlns="http://www.w3.org/2000/svg" viewBox="0 0 64 64">
  <path fill-rule="evenodd" d="M32 56v0C18.74 56 8 45.25 8 32 8 18.74 18.74 8 32 8c13.25 0 24 10.74 24 24v0c0 13.25-10.75 24-24 24Zm0-44h-.001c-11.05-.01-20.01 8.95-20.01 19.99 -.01 11.04 8.95 20 19.99 20 10.27 0 18.87-7.78 19.9-18H26.79l7.58 7.57 0 0c.78.78.78 2.04-.01 2.83 -.79.78-2.05.78-2.84-.01L20.49 33.37h0c-.79-.78-.79-2.05-.01-2.83 0-.01 0-.01 0-.01L31.5 19.52v-.001c.78-.78 2.05-.78 2.83.01 .77.77.77 2.03 0 2.81l-7.63 7.6h25.1l-.001 0c-1.03-10.22-9.63-18-19.9-18Z" />
</svg>