<svg xmlns="http://www.w3.org/2000/svg" viewBox="0 0 64 64">
  <path fill-rule="evenodd" d="M51.06 43.02v0c-.82 1.43-2.66 1.94-4.09 1.12 -.09-.06-.18-.11-.26-.17l-13.37-9.63 1.65 16.38v0c.14 1.65-1.08 3.12-2.74 3.27 -1.66.14-3.13-1.08-3.28-2.74 -.02-.18-.02-.36 0-.54l1.65-16.39 -13.36 9.62v0c-1.37.95-3.25.62-4.2-.74 -.96-1.37-.63-3.25.73-4.2 .14-.11.3-.2.46-.27l15.01-6.76 -15.015-6.76V25.2c-1.52-.71-2.17-2.5-1.47-4.01 .7-1.52 2.49-2.17 4-1.47 .16.07.31.16.46.26l13.36 9.625 -1.66-16.39h-.001c-.15-1.66 1.07-3.13 2.73-3.28 1.65-.15 3.12 1.07 3.27 2.73 .01.17.01.35 0 .53l-1.66 16.38 13.36-9.63v-.001c1.36-.96 3.24-.63 4.19.73 .95 1.36.62 3.24-.74 4.19 -.15.1-.31.19-.47.26l-15.02 6.75 15.01 6.75v0c1.5.68 2.16 2.46 1.48 3.97 -.05.09-.09.18-.14.26Z" />
</svg>