<svg xmlns="http://www.w3.org/2000/svg" viewBox="0 0 64 64">
  <path fill-rule="evenodd" d="M45.94 31.59v0c.78-.79 2.05-.79 2.84-.001v0c.78.77.78 2.03.01 2.81 -.01 0-.01 0-.02.01L30.59 52.46v0c-4.73 4.68-12.36 4.68-17.08 0h0c-4.69-4.66-4.73-12.23-.07-16.92 .02-.03.04-.05.06-.07l25-24.86v0c3.54-3.52 9.26-3.52 12.81 0v0c3.51 3.48 3.53 9.16.05 12.68 -.02.01-.04.03-.06.05L31.31 43.2h0c-2.37 2.34-6.18 2.34-8.54 0h0c-2.35-2.33-2.36-6.12-.04-8.46 .01-.02.02-.03.03-.04l13.28-13.2h-.001c.78-.79 2.05-.79 2.84 0v0c.78.77.78 2.03.01 2.81 -.01 0-.01 0-.02.01l-13.29 13.19v0h-.001c-.79.77-.79 2.03-.02 2.81 0 0 0 0 .01.01h0c.78.78 2.05.78 2.84 0v0l19.99-19.87v0 0c1.95-1.94 1.96-5.1.02-7.05 -.01-.01-.02-.02-.03-.03v-.001c-1.98-1.96-5.15-1.96-7.12 0v0l-25.01 24.85v0h0c-3.13 3.1-3.15 8.14-.05 11.27 .01.01.03.03.04.04v0c3.15 3.12 8.23 3.12 11.38 0v0Z" />
</svg>