<svg xmlns="http://www.w3.org/2000/svg" viewBox="0 0 64 64">
  <path fill-rule="evenodd" d="M11.78 43.33h-.001c2.11-.56 3.63-2.42 3.73-4.6l1.75-14.741v0c.72-5.96 4.99-10.88 10.78-12.44v0c.24-2.19 2.21-3.76 4.39-3.51 1.84.2 3.3 1.66 3.5 3.5l-.001-.001c5.79 1.56 10.06 6.48 10.78 12.43l1.75 14.74h0c.1 2.18 1.61 4.04 3.73 4.59h-.001c1.27.34 2.02 1.64 1.68 2.92 -.29 1.05-1.25 1.78-2.34 1.76h-39.17v0c-1.32.01-2.4-1.04-2.42-2.36 -.02-1.1.71-2.06 1.76-2.34Zm20.23 12.69v0c-3.12 0-5.73-2.37-6.01-5.48v0c-.02-.28.19-.52.47-.53 .01-.01.02-.01.03-.01h11v0c.27-.01.5.21.5.49 0 .01-.01.02-.01.03v0c-.29 3.1-2.89 5.48-6.01 5.47Z" />
</svg>