<svg xmlns="http://www.w3.org/2000/svg" viewBox="0 0 64 64">
  <path fill-rule="evenodd" d="M12 13v0c0-2.77 2.23-5 5-5h30v0c2.76 0 5 2.23 5 5v38 0c0 2.76-2.24 5-5 5H17v0c-2.77 0-5-2.24-5-5Zm28 38v0c0 .55.44 1 1 1h6v0c.55 0 1-.45 1-1V37v0c0-.56-.45-1-1-1h-6v0c-.56 0-1 .44-1 1Zm0-20v0c0 .55.44 1 1 1h6v0c.55 0 1-.45 1-1v-4 0c0-.56-.45-1-1-1h-6v0c-.56 0-1 .44-1 1ZM28 51v0c0 .55.44 1 1 1h6v0c.55 0 1-.45 1-1v-4 0c0-.56-.45-1-1-1h-6v0c-.56 0-1 .44-1 1Zm0-10v0c0 .55.44 1 1 1h6v0c.55 0 1-.45 1-1v-4 0c0-.56-.45-1-1-1h-6v0c-.56 0-1 .44-1 1Zm0-10v0c0 .55.44 1 1 1h6v0c.55 0 1-.45 1-1v-4 0c0-.56-.45-1-1-1h-6v0c-.56 0-1 .44-1 1ZM16 51v0c0 .55.44 1 1 1h6v0c.55 0 1-.45 1-1v-4 0c0-.56-.45-1-1-1h-6v0c-.56 0-1 .44-1 1Zm0-10v0c0 .55.44 1 1 1h6v0c.55 0 1-.45 1-1v-4 0c0-.56-.45-1-1-1h-6v0c-.56 0-1 .44-1 1Zm0-10v0c0 .55.44 1 1 1h6v0c.55 0 1-.45 1-1v-4 0c0-.56-.45-1-1-1h-6v0c-.56 0-1 .44-1 1Zm0-10v0c0 .55.44 1 1 1h30v0c.55 0 1-.45 1-1v-8 0c0-.56-.45-1-1-1H17v0c-.56 0-1 .44-1 1Z" />
</svg>