<svg xmlns="http://www.w3.org/2000/svg" viewBox="0 0 32 32">
  <path fill-rule="evenodd" d="M52 50H12l-.01-.001c-2.21-.01-4-1.8-4-4 0 0 0 0 0 0v-28l0 0c-.01-2.21 1.79-4 4-4h40l-.01 0c2.2-.01 4 1.79 4 4v28h0c0 2.2-1.8 4-4 4ZM25 20c-3.58 0-6 2.9-6 6.75 0 4.47 2.79 7.25 5.99 7.25s5.99-2.78 5.99-7.25c0-3.85-2.43-6.75-6-6.75Zm0 16c-7.11 0-10.67 3.75-11 7.17l0-.01c-.05.41.26.78.67.82 .02 0 .04 0 .07 0h20.49l-.01 0c.41-.01.75-.35.75-.76 -.01-.03-.01-.05-.01-.08 -.34-3.42-3.9-7.17-11-7.17Zm25.99-8h-14 -.01c-.56 0-1 .44-1 1 0 .55.44 1 1 1h14 -.01c.55 0 1-.45 1-1 0-.56-.45-1-1-1Zm0 6h-12 -.01c-.56 0-1 .44-1 1 0 .55.44 1 1 1h12 -.01c.55 0 1-.45 1-1 0-.56-.45-1-1-1Z" transform="scale(0.5,0.5)" />
</svg>