<svg xmlns="http://www.w3.org/2000/svg" viewBox="0 0 64 64">
  <path fill-rule="evenodd" d="M32.01 8.02v0c13.25 0 24 10.74 24 24 0 13.25-10.75 24-24 24 -13.26 0-24-10.75-24-24v0c0-13.26 10.74-24 24-24Zm0 32.99v0c4.97 0 8.99-4.03 8.99-9 0-4.98-4.03-9-9-9 -4.98 0-9 4.02-9 8.99v0c0 4.97 4.02 8.99 8.99 8.99Zm0-16v0C35.87 25 39 28.14 39 32c0 3.86-3.14 6.99-7 6.99 -3.87 0-7-3.14-7-7v0c-.01-3.87 3.13-7 6.99-7 0-.01 0-.01 0-.01Zm0 9.99v0c1.65 0 3-1.35 3-3 0-1.66-1.35-3.01-3-3.01 -1.66-.01-3.01 1.34-3.01 2.99 -.01 0-.01 0-.01 0v0c-.01 1.65 1.34 2.99 2.99 3Z" />
</svg>