<svg xmlns="http://www.w3.org/2000/svg" viewBox="0 0 64 64">
  <path fill-rule="evenodd" d="M40.04 27.78l11.45 20.25 -.001 0c1.08 1.92.4 4.36-1.52 5.45 -.61.33-1.28.51-1.98.51H15.96v0c-2.21 0-4.01-1.79-4.01-4 -.01-.7.17-1.37.51-1.98l11.45-20.26 0-.001c.67-1.21 1.03-2.56 1.03-3.94V11.95h-1v0c-1.11 0-2-.9-2-2 0-1.11.89-2 2-2h16v0c1.1 0 2 .89 2 2 0 1.1-.9 2-2 2h-1v11.84l0-.001c0 1.37.35 2.73 1.03 3.93ZM35 12h-6v11.84 0c-.01 2.06-.54 4.1-1.56 5.9l-1.99 3.5v0c-.14.24-.06.54.18.68 .07.04.15.06.24.06h12.19v0c.27 0 .5-.23.5-.5 0-.09-.03-.18-.07-.25l-1.99-3.51v-.001c-1.02-1.81-1.56-3.84-1.56-5.91Z" />
</svg>