<svg xmlns="http://www.w3.org/2000/svg" viewBox="0 0 64 64">
  <path fill-rule="evenodd" d="M32.01 8.02h-.001c13.25-.01 24 10.74 24 24 0 13.25-10.75 24-24 24 -13.26 0-24.01-10.75-24.01-24 -.01-.01-.01-.01-.01-.01H7.98C7.98 18.75 18.72 8 31.988 8ZM21.59 39.594v0c-.78.79-.76 2.06.04 2.83 .77.75 2.01.75 2.78-.01l7.573-7.58 7.58 7.58h-.001c.79.77 2.05.75 2.83-.04 .75-.78.75-2.02-.01-2.8l-7.59-7.59 7.61-7.62 -.001 0c.76-.8.74-2.07-.06-2.83 -.78-.75-2-.75-2.78-.001l-7.62 7.61 -7.61-7.602v0c-.79-.79-2.05-.79-2.84-.01s-.79 2.04-.01 2.83l7.6 7.602Z" />
</svg>