<svg xmlns="http://www.w3.org/2000/svg" viewBox="0 0 64 64">
  <path fill-rule="evenodd" d="M58.02 60.02h-6v0c-1.11 0-2-.9-2-2 0-1.11.89-2 2-2h4v-4 0c0-1.11.89-2 2-2 1.1 0 2 .89 2 2v6 0c0 1.1-.9 2-2 2Zm0-46v0c-1.11 0-2-.9-2-2v-4h-4v0c-1.11 0-2-.9-2-2 0-1.11.89-2 2-2h6v0c1.1 0 2 .89 2 2v6 0c0 1.1-.9 2-2 2Zm-52-10h6v0c1.1 0 2 .89 2 2 0 1.1-.9 2-2 2h-4v4 0c0 1.1-.9 2-2 2 -1.11 0-2-.9-2-2v-6 0c-.01-1.11.89-2 2-2 0-.001 0 0 0 0Zm0 46v0c1.1 0 2 .89 2 2v4h4v0c1.1 0 2 .89 2 2 0 1.1-.9 2-2 2h-6v0c-1.11 0-2-.9-2-2v-6 0c-.01-1.11.89-2 2-2 0-.001 0 0 0 0Zm44 2h-4v0c-1.11 0-2-.9-2-2 0-1.11.89-2 2-2h4v0c1.1 0 2 .89 2 2 0 1.1-.9 2-2 2Zm2-14v0c0 1.1-.9 2-2 2h-1.5v0c-.28 0-.5.22-.5.5v1.5 0c0 1.1-.9 2-2 2 -1.11 0-2-.9-2-2v-4 0c0-1.11.89-2 2-2h1.5v0c.27 0 .5-.23.5-.5v-3 0c0-.28-.23-.5-.5-.5h-1.5v0c-1.11 0-2-.9-2-2 0-1.11.89-2 2-2h4v0c1.1 0 2 .89 2 2Zm0-22v4 0c0 2.2-1.8 4-4 4h-4v0c-2.21 0-4-1.8-4-4v-4 0c0-2.21 1.79-4 4-4h4v0c2.2-.01 4 1.79 4 4 0 0-.01 0-.01 0Zm-4 1v0c0-.56-.45-1-1-1h-2v0c-.56 0-1 .44-1 1v2 0c0 .55.44 1 1 1h2v0c.55 0 1-.45 1-1Zm-36-1v0c0-2.21 1.79-4 4-4h4v0c2.2 0 4 1.79 4 4v4 0c0 2.2-1.8 4-4 4h-4v0c-2.21 0-4-1.8-4-4Zm4 3v0c0 .55.44 1 1 1h2v0c.55 0 1-.45 1-1v-2 0c0-.56-.45-1-1-1h-2v0c-.56 0-1 .44-1 1Zm-2 13h1.5v0c.27 0 .5-.23.5-.5v-1.5 0c0-1.11.89-2 2-2 1.1 0 2 .89 2 2v1.5 0c0 .27.22.5.5.5h1.5v0c1.1 0 2 .89 2 2 0 1.1-.9 2-2 2h-8v0c-1.11 0-2-.9-2-2 0-1.11.89-2 2-2Zm6 20h-4v0c-2.21 0-4-1.8-4-4v-4 0c0-2.21 1.79-4 4-4h4v0c2.2 0 4 1.79 4 4v4 0c0 2.2-1.8 3.99-4 4Zm0-7v0c0-.56-.45-1-1-1h-2v0c-.56 0-1 .44-1 1v2 0c0 .55.44 1 1 1h2v0c.55 0 1-.45 1-1Zm8-12.5v0c0-.28-.23-.5-.5-.5h-1.5v0c-1.11 0-2-.9-2-2 0-1.11.89-2 2-2h4v0c1.1 0 2 .89 2 2v4 0c0 1.1-.9 2-2 2 -1.11 0-2-.9-2-2Zm10-4.5h-4v0c-1.11 0-2-.9-2-2v-1.5 0c0-.28-.23-.5-.5-.5h-1.5v0c-1.11 0-2-.9-2-2 0-1.11.89-2 2-2h1.5v0c.27 0 .5-.23.5-.5v-3.5h-2v0c-1.11 0-2-.9-2-2 0-1.11.89-2 2-2h4v0c1.1 0 2 .89 2 2v9.5 0c0 .27.22.5.5.5h1.5v0c1.1 0 2 .89 2 2 0 1.1-.9 2-2 2Zm-8 12h1.5v0c.27 0 .5-.23.5-.5v-1.5 0c0-1.11.89-2 2-2h1.5v0c.27 0 .5-.23.5-.5v-1.5 0c0-1.11.89-2 2-2 1.1 0 2 .89 2 2v4 0c0 1.1-.9 2-2 2h-1.5v0c-.28 0-.5.22-.5.5v1.5 0c0 1.1-.9 2-2 2h-4v0c-1.11 0-2-.9-2-2 0-1.11.89-2 2-2Zm8 4v0c1.1 0 2 .89 2 2v4 0c0 1.1-.9 2-2 2h-8v0c-1.11 0-2-.9-2-2 0-1.11.89-2 2-2h5.5v0c.27 0 .5-.23.5-.5v-1.5 0c0-1.11.89-2 2-2Z" />
</svg>