<svg xmlns="http://www.w3.org/2000/svg" viewBox="0 0 64 64">
  <path fill-rule="evenodd" d="M33.17 26.66l4.18 4.189v0c.88.88.89 2.32 0 3.21 -.01 0-.01 0-.01 0l-15.82 15.78c-3.62 3.62-6.88 1.94-8.61 3.66h0c-.72.62-1.77.64-2.51.06h0c-.59-.75-.56-1.8.06-2.51 1.72-1.73.04-4.99 3.66-8.6L29.9 26.62v0c.88-.89 2.32-.9 3.21-.01 0 0 0 0 0 0Zm19.3-7.69l-7.43 7.41 .96.96v0c1.3 1.28 1.31 3.38.02 4.69 -1.29 1.3-3.39 1.31-4.7.02 -.01-.01-.02-.02-.03-.03l-9.39-9.38 -.001 0c-1.3-1.3-1.3-3.4 0-4.7 1.29-1.3 3.39-1.3 4.69 0 0 0 0 0 0 0l.99.99 7.42-7.42v0c2.04-2.06 5.37-2.06 7.42-.01 2.05 2.04 2.05 5.37 0 7.42 0 0-.01 0-.01 0Z" />
</svg>