<svg xmlns="http://www.w3.org/2000/svg" viewBox="0 0 64 64">
  <path fill-rule="evenodd" d="M52.98 51.98h-42v0c-1.66 0-3-1.35-3-3v-34 0c0-1.66 1.34-3 3-3h41.99v0c1.65 0 3 1.34 3 3v34 0c0 1.65-1.35 3-3 3Zm-24.1-25.79l-12.02-6v-.001c-.99-.5-2.19-.1-2.69.89 -.5.98-.1 2.18.89 2.68 0 0 0 0 0 0l8.43 4.21 -8.44 4.21h0c-.99.49-1.39 1.69-.9 2.68 .49.98 1.69 1.38 2.68.89l12.01-6h0c.98-.5 1.38-1.7.89-2.69 -.2-.39-.51-.7-.9-.9Zm19.09 4.78h-12v0c-1.11 0-2 .89-2 2 0 1.1.89 2 2 2h11.99v0c1.1 0 2-.9 2-2 0-1.11-.9-2-2-2Z" />
</svg>