<svg xmlns="http://www.w3.org/2000/svg" viewBox="0 0 64 64">
  <path fill-rule="evenodd" d="M41.02 56.02h-26v0c-1.66 0-3-1.35-3-3v-34 0c0-1.66 1.34-3 3-3h7v29 0c0 2.76 2.23 5 5 5h17v3 0c0 1.65-1.35 3-3 3Zm2-34v0c-.56 0-1-.45-1-1V10.43h-.001c-.01-.56.44-1.01.99-1.01 .26-.01.51.1.7.29l10.58 10.58v0c.39.39.39 1.02-.01 1.41 -.19.18-.45.29-.71.29Zm13 5v18 0c0 1.65-1.35 3-3 3h-26v0c-1.66 0-3-1.35-3-3v-34 0c0-1.66 1.34-3 3-3h10v0c1.65 0 3 1.34 3 3v10 0c0 1.65 1.34 3 3 3h10 0c1.65-.01 3 1.34 3 3 0 0-.01 0-.01 0Z" />
</svg>