<svg xmlns="http://www.w3.org/2000/svg" viewBox="0 0 64 64">
  <path fill-rule="evenodd" d="M51.99 50h-40v0c-2.21 0-4-1.8-4-4V18v0c0-2.21 1.79-4 4-4h40v0c2.2 0 4 1.79 4 4v28 0c0 2.2-1.8 4-4 4Zm-38-9v0c0 .55.44 1 1 1h4v0c.55 0 1-.45 1-1v-2 0c0-.56-.45-1-1-1h-4v0c-.56 0-1 .44-1 1Zm8-14v0c0-.56-.45-1-1-1h-8v0c-.56 0-1 .44-1 1v6 0c0 .55.44 1 1 1h8v0c.55 0 1-.45 1-1Zm8 12v0c0-.56-.45-1-1-1h-4v0c-.56 0-1 .44-1 1v2 0c0 .55.44 1 1 1h4v0c.55 0 1-.45 1-1Zm10 0v0c0-.56-.45-1-1-1h-4v0c-.56 0-1 .44-1 1v2 0c0 .55.44 1 1 1h4v0c.55 0 1-.45 1-1Zm10 0v0c0-.56-.45-1-1-1h-4v0c-.56 0-1 .44-1 1v2 0c0 .55.44 1 1 1h4v0c.55 0 1-.45 1-1Z" />
</svg>