<svg xmlns="http://www.w3.org/2000/svg" viewBox="0 0 64 64">
  <path fill-rule="evenodd" d="M36.53 29.08l-2.7-4.38v-.001c-.4-.65-.4-1.46 0-2.1l8.7-14.13v0c.26-.44.82-.61 1.28-.38 1.71.82 5.16 3.3 1.68 8.95 -1.03 1.66-3.93 6.47-7.27 12.01v0c-.29.47-.9.62-1.38.34 -.14-.09-.26-.2-.34-.34Zm15.24 15.24c2.28 3.96 1.32 8.81-2.13 10.81 -3.46 2-8.11.41-10.39-3.56 -.89-1.55-3.83-6.47-7.24-12.16 -3.41 5.68-6.35 10.61-7.24 12.15 -2.29 3.96-6.94 5.56-10.39 3.55 -3.46-2.01-4.41-6.85-2.13-10.82h-.001c1.51-2.84 4.54-4.52 7.75-4.32v0c1.65.13 3.26-.59 4.27-1.91l3.51-5.7c-4.13-6.87-8.05-13.36-9.28-15.35 -3.49-5.66-.04-8.14 1.68-8.96h-.001c.46-.23 1.01-.06 1.28.37l18.24 29.62v0c1.01 1.31 2.62 2.03 4.27 1.9l-.001-.001c3.2-.21 6.23 1.48 7.75 4.31Zm-31.36.1c-1.61-1-3.77-.21-4.83 1.76s-.62 4.38.98 5.38c1.6.99 3.76.2 4.82-1.77 1.05-1.98.61-4.39-.99-5.38Zm27.98 1.79c-1.064-1.97-3.24-2.76-4.85-1.77 -1.62.99-2.06 3.39-1 5.35 1.06 1.96 3.23 2.75 4.84 1.76 1.61-1 2.05-3.4.99-5.36Z" />
</svg>