<svg xmlns="http://www.w3.org/2000/svg" viewBox="0 0 64 64">
  <path fill-rule="evenodd" d="M48 54H16v0c-3.32 0-6-2.69-6-6V16v0c0-3.32 2.68-6 6-6h32v0c3.31 0 6 2.68 6 6v32 0c0 3.31-2.69 6-6 6ZM20 16v0c-2.21 0-4 1.79-4 4 0 2.2 1.79 4 4 4 2.2 0 4-1.8 4-4v0c0-2.21-1.8-4-4-4Zm0 24v0c-2.21 0-4 1.79-4 4 0 2.2 1.79 4 4 4 2.2 0 4-1.8 4-4v0c0-2.21-1.8-4-4-4Zm12-12v0c-2.21 0-4 1.79-4 4 0 2.2 1.79 4 4 4 2.2 0 4-1.8 4-4v0c0-2.21-1.8-4-4-4Zm12-12v0c-2.21 0-4 1.79-4 4 0 2.2 1.79 4 4 4 2.2 0 4-1.8 4-4v0c0-2.21-1.8-4-4-4Zm0 24v0c-2.21 0-4 1.79-4 4 0 2.2 1.79 4 4 4 2.2 0 4-1.8 4-4v0c0-2.21-1.8-4-4-4Z" />
</svg>