<svg xmlns="http://www.w3.org/2000/svg" viewBox="0 0 64 64">
  <path fill-rule="evenodd" d="M59.36 21.89l-2.9 2.88v-.001c-.3.29-.77.29-1.07 0l-4.2-4.18v0c-.3-.3-.3-.77-.01-1.06 0-.01 0-.01 0-.01l2.89-2.89v0c.87-.88 2.3-.88 3.18 0l2.06 2.06v0c.87.87.87 2.28 0 3.16 -.01 0-.01 0-.01 0Zm-5.59 5.57L36.26 44.97v0c-.71.7-1.57 1.22-2.52 1.5l-5.05 1.51v0c-.3.08-.62-.08-.71-.38 -.04-.11-.04-.22-.01-.33l1.51-5.06h-.001c.28-.96.8-1.82 1.5-2.52l17.5-17.52v0c.29-.3.76-.3 1.05-.01 0 0 0 0 0 0l4.18 4.19h0c.29.29.29.76 0 1.06ZM35.99 22.01h-26v0c-1.11 0-2-.9-2-2 0-1.11.89-2 2-2h26v0c1.1 0 2 .89 2 2 0 1.1-.9 2-2 2Zm-26 8h18v-.001c1.1 0 2 .89 1.99 2 -.01 1.1-.9 1.99-2 1.99h-18v0c-1.11 0-2-.9-2-2 0-1.11.89-2 2-2Zm0 12h10v0c1.1 0 2 .89 2 2 0 1.1-.9 2-2 2h-10v0c-1.11 0-2-.9-2-2 0-1.11.89-2 2-2Z" />
</svg>