<svg xmlns="http://www.w3.org/2000/svg" viewBox="0 0 64 64">
  <path fill-rule="evenodd" d="M55.1 20.2l-4.43 4.42v0c-.45.44-1.18.44-1.63 0 -.01-.01-.01-.01-.01-.01l-7.73-7.72v-.001c-.45-.45-.45-1.18-.01-1.63 0-.01 0-.01 0-.01l4.42-4.44V10.8c1.17-1.18 3.07-1.18 4.25 0l5.09 5.09v0c1.17 1.17 1.17 3.07-.01 4.25Zm-18.42-4.73l-5.21-3.04h-.001c-.55-.32-.74-1.03-.42-1.58l3.15-5.42V5.42c.83-1.44 2.67-1.92 4.11-1.09l5.79 3.37v0c.5.29.67.93.37 1.44 -.05.07-.11.15-.17.21l-.02.01 -5.82 5.82v0c-.49.48-1.23.57-1.82.23Zm-9.31 9.31l-2.32-1.35v0c-.55-.32-.74-1.03-.42-1.58l4.24-7.29v-.001c.31-.55 1.02-.74 1.57-.42 0 0 0 0 0 0l4.63 2.69v0c.47.27.63.89.36 1.36 -.05.07-.1.14-.16.2l-6.11 6.11v-.001c-.49.48-1.23.57-1.82.23Zm-8.72 9.65v0 0c-.55-.32-.74-1.03-.42-1.58l4.24-7.29v0c.31-.55 1.02-.74 1.57-.42 0 0 0 0 0 0l1.73 1.01v0c.47.27.63.89.36 1.36 -.05.07-.1.14-.16.2l-6.59 6.59v0c-.2.2-.51.24-.76.09Zm3.26 1.89l7.72 7.72v0c.44.44.44 1.17 0 1.62 -.01 0-.01 0-.01 0l-9.43 9.43v0c-1.18 1.17-3.08 1.17-4.26-.01l-5.1-5.1h-.001c-1.18-1.18-1.18-3.08 0-4.26l9.41-9.424h0c.44-.45 1.17-.45 1.62-.01 0 0 0 0 0 0Zm-5.95 13.63v0c-.01 1.1.89 2 1.99 2s2-.9 2-2c0-1.11-.9-2.01-2-2.01 -.01-.01-.01-.01-.01-.01v0c-1.11-.01-2.01.89-2.01 1.99 -.01 0-.01 0-.01 0Zm7.36-16.68l5.95-5.96v0c.44-.45 1.17-.45 1.62-.01 0 0 0 0 0 0l7.72 7.72v0c.44.44.44 1.17 0 1.62l-5.96 5.96v0c-.45.44-1.18.44-1.63 0 -.01-.01-.01-.01-.01-.01l-7.73-7.72h0c-.45-.45-.45-1.18-.01-1.63Zm8.99-9.01l5.95-5.96v-.001c.44-.45 1.17-.45 1.62-.01 0 0 0 0 0 0l7.72 7.71v0c.44.44.44 1.17 0 1.62l-5.96 5.96v0c-.45.44-1.18.44-1.63 0 -.01-.01-.01-.01-.01-.01l-7.73-7.72v-.001c-.45-.45-.45-1.18-.01-1.63Z" />
</svg>