<svg xmlns="http://www.w3.org/2000/svg" viewBox="0 0 64 64">
  <path fill-rule="evenodd" d="M49.02 54.02h-34v0c-2.77 0-5-2.24-5-5v-34 0c0-2.77 2.23-5 5-5h34v0c2.76 0 5 2.23 5 5v34 0c0 2.76-2.24 5-5 5Zm-27-39v0c0-.56-.45-1-1-1h-6v0c-.56 0-1 .44-1 1v6 0c0 .55.44 1 1 1h6v0c.55 0 1-.45 1-1Zm27 0h-22v0c-.56 0-1 .44-1 1 0 .55.44 1 1 1h22v0c.55 0 1-.45 1-1 0-.56-.45-1-1-1Zm-23 5v0c0 .55.44 1 1 1h14v0c.55 0 1-.45 1-1 0-.56-.45-1-1-1h-14v0c-.56-.01-1 .44-1 1 -.001 0 0 0 0 0Zm24 7v0c0-.56-.45-1-1-1h-34v0c-.56 0-1 .44-1 1v22 0c0 .55.44 1 1 1h34v0c.55 0 1-.45 1-1Z" />
</svg>