<svg xmlns="http://www.w3.org/2000/svg" viewBox="0 0 64 64">
  <path fill-rule="evenodd" d="M38.26 54.65h0c2.18-1.86 3.82-4.28 4.72-7l-.001 0c.08-.28-.07-.57-.35-.65 -.05-.02-.1-.03-.15-.03v-.001c-2.3.04-4.59.37-6.81.97v0c-.27.1-.57-.04-.67-.3 -.05-.13-.05-.27 0-.39l0-.001c.77-2.35 1.1-4.82.97-7.28 0-5.31-3.22-9.41-4.36-10.82H31.6c-.17-.22-.48-.26-.7-.09 -.08.06-.14.14-.17.23 -1.51 4.81-7.79 11.73-7.79 18.65 0 4.16 2.76 5.97 2.96 6.93 .16.79-.24 1.23-1 .99 -5.07-1.6-12.98-8.88-12.98-17.93 0-16.44 16-19.73 16-27.99V9.93c-.11-1.06-.43-2.08-.96-3.01v0c-.14-.4.08-.83.48-.97 .14-.05.29-.05.44-.01C33.02 7.32 44.9 14.5 44.9 28.89v0c-.1 3.09-.78 6.14-2 8.99 0 0 3.36-.59 7.92-1.01v0c.58-.02 1.06.43 1.08 1.01 0 .05-.01.1-.01.15 0 6.94-5.43 14.94-13.14 17.82 -.7.26-1.17-.84-.61-1.35Z" />
</svg>