<svg xmlns="http://www.w3.org/2000/svg" viewBox="0 0 32 32">
  <path  fill-rule="evenodd" d="M57.63 25.17l-10.5 15.01 0-.01c-.64.9-1.88 1.12-2.79.49 -.17-.12-.31-.25-.43-.41l-5.5-7.01 -.01-.01c-.7-.86-.58-2.12.28-2.82 .85-.7 2.11-.58 2.81.28 .01.01.03.03.04.05l3.83 4.88 8.94-12.81 -.01 0c.63-.91 1.88-1.13 2.78-.49 .9.63 1.12 1.88.48 2.78ZM39.78 52.02H7.17l-.01-.01c-.68-.02-1.22-.57-1.2-1.24 0-.04 0-.08 0-.12 .53-5.56 6.19-11.66 17.49-11.66 11.3 0 16.96 6.1 17.49 11.66l-.01-.01c.07.66-.42 1.27-1.08 1.34 -.04 0-.08 0-.12 0ZM23.47 36.01c-5.61 0-10.51-4.77-10.51-12.43 0-6.6 4.24-11.57 10.51-11.57 6.26 0 10.51 4.97 10.51 11.56 -.01 7.66-4.91 12.42-10.51 12.42Z" transform="scale(0.5,0.5)"/>
</svg>