<svg xmlns="http://www.w3.org/2000/svg" viewBox="0 0 32 32">
  <path fill-rule="evenodd" d="M46.48 35.99c-5.61 0-10.51-4.77-10.51-12.43 0-6.6 4.24-11.57 10.51-11.57 6.26 0 10.51 4.97 10.51 11.56 -.01 7.66-4.91 12.42-10.51 12.42Zm0 2.99c11.3 0 16.96 6.1 17.49 11.66l0 0c.07.66-.42 1.27-1.08 1.34 -.04 0-.08 0-.12 0H38.66l-.01-.001c-.88-.01-1.61-.67-1.7-1.54v0l0 0c-.27-2.42-1.22-4.71-2.74-6.61l-.01-.01c-.41-.52-.31-1.27.21-1.67 .02-.02.04-.04.07-.06l0-.01c3.58-2.21 7.73-3.31 11.94-3.15Zm-29-3c-5.61 0-10.51-4.77-10.51-12.43 -.01-6.6 4.243-11.57 10.5-11.57 6.26 0 10.5 4.97 10.5 11.56 0 7.66-4.9 12.42-10.51 12.42Zm0 2.99c11.3 0 16.96 6.1 17.49 11.66l0 0c.07.66-.42 1.27-1.08 1.34 -.04 0-.08 0-.12 0H1.16l0 0c-.68-.02-1.22-.57-1.2-1.24 0-.04 0-.08 0-.12 .53-5.56 6.19-11.67 17.49-11.67Z" transform="scale(0.5,0.5)" />
</svg>