<svg xmlns="http://www.w3.org/2000/svg" viewBox="0 0 64 64">
  <path fill-rule="evenodd" d="M57.28 34.22l-3.99 1.13v0c-.37.1-.64.4-.71.77v0c-.18.88-.42 1.74-.71 2.59v0c-.13.35-.04.75.22 1.02l2.88 2.98h0c.31.32.37.8.14 1.19l-1.25 2.15v0c-.23.38-.68.57-1.11.47L48.7 45.5v0c-.37-.09-.75.03-1 .31l0-.001c-.59.66-1.22 1.3-1.89 1.89v0c-.29.24-.41.62-.32.99l1.01 4.04v0c.1.43-.09.88-.47 1.11l-2.16 1.24v0c-.39.22-.88.16-1.2-.15l-3-2.91v0c-.28-.27-.67-.35-1.03-.23v0c-.85.28-1.71.52-2.59.7v0c-.37.07-.67.34-.78.7l-1.15 4v0c-.13.42-.52.72-.97.72h-2.49v0c-.45-.01-.84-.3-.97-.73l-1.15-4.01v0c-.11-.37-.41-.64-.78-.71h0c-.88-.18-1.75-.41-2.59-.7v-.001c-.36-.13-.75-.04-1.03.22l-3 2.89v0c-.33.31-.81.37-1.2.14l-2.16-1.25v0c-.39-.23-.58-.68-.47-1.11l1.01-4.06v0c.08-.37-.04-.75-.32-1v0c-.68-.59-1.31-1.22-1.9-1.89v0c-.25-.29-.63-.41-1-.32l-4.05 1.01h0c-.44.1-.89-.09-1.11-.48l-1.25-2.16h0c-.23-.39-.17-.88.14-1.2l2.89-2.99h-.001c.26-.28.34-.67.22-1.03h-.001c-.3-.85-.53-1.72-.71-2.6l-.001-.001c-.08-.37-.35-.67-.71-.78L6.52 34v0c-.43-.13-.73-.52-.73-.97v-2.49 0c-.01-.45.29-.84.72-.97l3.98-1.14v0c.36-.11.63-.41.7-.78l0-.001c.17-.89.41-1.75.7-2.6v0c.12-.36.03-.76-.23-1.03l-2.89-2.99v0c-.32-.33-.38-.81-.15-1.2l1.24-2.16v0c.22-.39.67-.58 1.11-.47l4.05 1.01 -.001 0c.36.08.74-.04.99-.32l0-.001c.58-.67 1.21-1.31 1.88-1.9v0c.28-.25.4-.63.31-1l-1.02-4.05v0c-.11-.44.08-.89.47-1.11l2.15-1.25h0c.38-.23.87-.17 1.19.14l2.99 2.9v0c.27.26.66.34 1.02.22v0c.84-.29 1.7-.53 2.58-.71v0c.36-.08.66-.35.77-.71l1.14-4.01 0 0c.12-.43.51-.73.96-.73h2.49v0c.44 0 .83.29.96.72l1.14 4V10.4c.1.36.4.63.77.7v0c.87.17 1.74.4 2.58.69v0c.35.12.74.03 1.02-.23l2.99-2.9v0c.32-.32.8-.38 1.19-.15l2.15 1.24v0c.38.22.57.67.47 1.11l-1.02 4.05v0c-.09.36.03.74.31.99V15.9c.67.58 1.3 1.21 1.89 1.88v0c.24.28.62.4.99.31l4.04-1.02h-.001c.43-.11.88.08 1.11.47l1.24 2.15h0c.22.38.16.87-.15 1.19l-2.9 2.99v0c-.27.27-.35.66-.23 1.02v0c.29.84.52 1.71.7 2.59v0c.07.36.34.66.7.77l3.98 1.14v0c.42.12.72.51.72.96v2.49h0c-.01.44-.3.83-.73.96ZM22.63 19.78v0c-.14-.25-.45-.33-.7-.19 -.03.01-.05.02-.07.04v0c-6.84 5.56-7.86 15.61-2.3 22.44 .68.84 1.45 1.61 2.29 2.29h-.001c.21.17.53.13.71-.09 .01-.02.02-.05.04-.07l5.76-9.98v0c.8-1.4.8-3.11 0-4.5ZM31.99 16v0c-1.94-.01-3.86.34-5.67 1.03v0c-.26.1-.39.39-.29.65 0 .02.02.04.03.06l5.77 9.99h-.001c.8 1.39 2.28 2.24 3.89 2.25h11.52v0c.27 0 .5-.23.5-.51 0-.03-.01-.05-.01-.08v0c-1.27-7.74-7.95-13.42-15.78-13.43Zm15.27 18H35.73v0c-1.61 0-3.1.85-3.9 2.25l-5.78 9.99h-.001c-.14.24-.06.54.18.68 .02.01.04.02.06.03l-.001 0c8.26 3.12 17.49-1.05 20.62-9.31 .37-1 .65-2.03.82-3.08h-.001c.04-.28-.16-.54-.43-.58 -.03-.01-.05-.01-.08-.01Z" />
</svg>