<svg xmlns="http://www.w3.org/2000/svg" viewBox="0 0 64 64">
  <path fill-rule="evenodd" d="M49 52H37v0c-1.66 0-3-1.35-3-3V37v0c0-1.66 1.34-3 3-3h12v0c1.65 0 3 1.34 3 3v12 0c0 1.65-1.35 3-3 3Zm0-22H37v0c-1.66 0-3-1.35-3-3V15v0c0-1.66 1.34-3 3-3h12v0c1.65 0 3 1.34 3 3v12 0c0 1.65-1.35 3-3 3Zm-34 4h12v0c1.65 0 3 1.34 3 3v12 0c0 1.65-1.35 3-3 3H15v0c-1.66 0-3-1.35-3-3V37v0c0-1.66 1.34-3 3-3Zm-3-19v0c0-1.66 1.34-3 3-3h12v0c1.65 0 3 1.34 3 3v12 0c0 1.65-1.35 3-3 3H15v0c-1.66 0-3-1.35-3-3Z" />
</svg>