<svg xmlns="http://www.w3.org/2000/svg" viewBox="0 0 64 64">
  <path d="M54.99 35.98H42.84v0c-.38 0-.73.21-.9.55l-3.17 6.33v0c-.5.98-1.7 1.38-2.69.89 -.39-.2-.71-.51-.9-.9L26.97 26.43l-3.39 6.76v0c-.85 1.69-2.58 2.76-4.48 2.76H8.95v0c-.56 0-1 .44-1 1v12 0c0 1.65 1.34 3 3 3h41.99v0c1.65 0 3-1.35 3-3v-12 0c0-.56-.45-1-1-1Zm-2-24h-42v0c-1.66 0-3 1.34-3 3v16 0c0 .55.44 1 1 1h10.14v-.001c.37-.01.72-.22.89-.56l5.16-10.34v0c.49-.99 1.69-1.39 2.68-.9 .38.19.7.5.89.89l8.21 16.41 1.38-2.77v0c.84-1.7 2.57-2.77 4.47-2.77h12.14v0c.55 0 1-.45 1-1V14.92v0c-.01-1.66-1.35-3-3-3Z" />
</svg>