<svg xmlns="http://www.w3.org/2000/svg" viewBox="0 0 64 64">
  <path fill-rule="evenodd" d="M32 55.98v0c-13.26 0-24-10.75-24-24 0-13.26 10.74-24 24-24 13.25 0 24 10.74 24 24v-.001c0 13.25-10.75 24-24 24Zm2.25-20v0c0 .55-.45 1-1 1H31v0c-.56 0-1-.45-1-1 0-6.65 5.625-6.02 5.625-11 0-1.66-1.88-3-3.82-3s-3.85 1.34-3.85 3h-.001c-.01.56.08 1.13.26 1.67h-.001c.18.51-.1 1.08-.62 1.26 -.11.03-.22.05-.33.05h-2.04 -.001c-.46 0-.85-.3-.97-.74v0c-.2-.74-.3-1.51-.29-2.27 0-3.87 3.58-7 8-7 4.41 0 8 3.13 8 7 -.01 6.41-5.76 6.16-5.76 11Zm-2.25 4v0c1.65 0 3 1.34 3 3 0 1.65-1.35 3-3 3 -1.66 0-3-1.35-3-3h-.001c0-1.66 1.34-3 3-3Z" />
</svg>