<svg xmlns="http://www.w3.org/2000/svg" viewBox="0 0 64 64">
  <path fill-rule="evenodd" d="M39.933 38.88l-9.56-4.46v0c-.93-.43-1.49-1.39-1.39-2.41 .01-.18 1.49-14.48 1.51-14.66h-.001c.09-.83.83-1.43 1.66-1.34 .7.07 1.25.63 1.33 1.33l1.35 13.13 6.63 5.98v0c.59.53.65 1.45.11 2.04 -.43.47-1.11.61-1.69.35ZM5 31.98h4.99l0-.001c0-12.15 9.85-21.99 22-21.99v0 0c12.15-.01 22 9.84 22 21.99 0 12.15-9.85 22-22 22h-.01v0c-5.09 0-10.03-1.76-13.96-4.99h-.001c-.85-.72-.95-1.98-.24-2.82 .71-.85 1.97-.95 2.81-.24v0c7.7 6.27 19.04 5.11 25.32-2.6 6.27-7.71 5.11-19.05-2.6-25.33 -3.21-2.62-7.23-4.04-11.37-4.04v0 0c-9.94-.01-18 8.05-18.01 17.98h4.98v0c.56.01 1.01.47 1 1.04 -.01.2-.07.4-.19.57l-6.99 9.97h-.001c-.32.45-.94.56-1.39.25 -.1-.07-.19-.16-.26-.26l-6.99-9.98h0c-.33-.47-.23-1.11.24-1.44 .16-.12.36-.19.57-.19Z" />
</svg>