<svg xmlns="http://www.w3.org/2000/svg" viewBox="0 0 64 64">
  <path fill-rule="evenodd" d="M13.42 53.43l-2.83-2.83v0c-.38-.38-.59-.89-.59-1.42v-2.35 0c-.01-.54.21-1.04.58-1.42L27.7 28.29l-.001-.001c.18-.19.29-.45.29-.71v-4.2h-.001c-.08-7.28 5.73-13.26 13-13.39V9.98c7.17 0 12.99 5.81 12.99 12.99v0c-.14 7.27-6.12 13.07-13.39 13h-6.2v0c-.27-.01-.52.1-.71.29l-1.42 1.41v0c-.19.18-.3.44-.3.7v2.17 0c0 .26-.11.51-.3.7l-1.42 1.41h0c-.19.18-.45.29-.71.29h-1.18v0c-.27 0-.52.1-.71.29l-1.42 1.41v0c-.19.18-.3.44-.3.7v1.17 0c0 .26-.11.51-.3.7l-1.42 1.41v0c-.19.18-.45.29-.71.29H21.3v0c-.27-.01-.52.1-.71.29l-1.42 1.41v0c-.19.18-.3.44-.3.7v1.17 0c0 .26-.11.51-.3.7l-.42.41h0c-.19.18-.45.29-.71.29h-2.76 0c-.54 0-1.04-.22-1.42-.59ZM45 22.01v0c1.65 0 3-1.35 3-3 0-1.66-1.35-3-3-3 -1.66 0-3 1.34-3 3v0c0 1.65 1.34 3 3 3Zm-30.29 26.7l15.99-16v0c.39-.39.4-1.02.01-1.42 -.39-.4-1.02-.41-1.42-.02 -.01 0-.02.01-.02.01l-16 15.99h0c-.39.39-.38 1.02.01 1.41 .38.37 1 .37 1.39-.01Z" />
</svg>