<svg xmlns="http://www.w3.org/2000/svg" viewBox="0 0 64 64">
  <path fill-rule="evenodd" d="M54 49H10v0c-2.77 0-5-2.24-5-5V20v0c0-2.77 2.23-5 5-5h44v0c2.76 0 5 2.23 5 5v24 0c0 2.76-2.24 5-5 5Zm-36-5v0c0 .55.44 1 1 1h26v0c.55 0 1-.45 1-1v-3 0c0-.56-.45-1-1-1H19v0c-.56 0-1 .44-1 1Zm-9 0v0c0 .55.44 1 1 1h3v0c.55 0 1-.45 1-1v-3 0c0-.56-.45-1-1-1h-3v0c-.56 0-1 .44-1 1Zm6-21v0c0-.56-.45-1-1-1h-4v0c-.56 0-1 .44-1 1v3 0c0 .55.44 1 1 1h4v0c.55 0 1-.45 1-1Zm1 8h-6v0c-.56 0-1 .44-1 1v3 0c0 .55.44 1 1 1h6v0c.55 0 1-.45 1-1v-3 0c0-.56-.45-1-1-1Zm8-8v0c0-.56-.45-1-1-1h-3v0c-.56 0-1 .44-1 1v3 0c0 .55.44 1 1 1h3v0c.55 0 1-.45 1-1Zm1 8h-3v0c-.56 0-1 .44-1 1v3 0c0 .55.44 1 1 1h3v0c.55 0 1-.45 1-1v-3 0c0-.56-.45-1-1-1Zm8-8v0c0-.56-.45-1-1-1h-3v0c-.56 0-1 .44-1 1v3 0c0 .55.44 1 1 1h3v0c.55 0 1-.45 1-1Zm1 8h-3v0c-.56 0-1 .44-1 1v3 0c0 .55.44 1 1 1h3v0c.55 0 1-.45 1-1v-3 0c0-.56-.45-1-1-1Zm8-8v0c0-.56-.45-1-1-1h-3v0c-.56 0-1 .44-1 1v3 0c0 .55.44 1 1 1h3v0c.55 0 1-.45 1-1Zm1 8h-3v0c-.56 0-1 .44-1 1v3 0c0 .55.44 1 1 1h3v0c.55 0 1-.45 1-1v-3 0c0-.56-.45-1-1-1Zm12-8v0c0-.56-.45-1-1-1h-7v0c-.56 0-1 .44-1 1v3 0c0 .55.44 1 1 1h7v0c.55 0 1-.45 1-1Zm0 9v0c0-.56-.45-1-1-1h-5v0c-.56 0-1 .44-1 1v3 0c0 .55.44 1 1 1h5v0c.55 0 1-.45 1-1Zm0 9v0c0-.56-.45-1-1-1h-3v0c-.56 0-1 .44-1 1v3 0c0 .55.44 1 1 1h3v0c.55 0 1-.45 1-1Z" />
</svg>