<svg xmlns="http://www.w3.org/2000/svg" viewBox="0 0 64 64">
  <path fill-rule="evenodd" d="M41 14v0c0-1.11.89-2 2-2h10v0c1.1 0 2 .89 2 2v8 0c0 1.1-.9 2-2 2H43v0c-1.11 0-2-.9-2-2Zm2 26h10v0c1.1 0 2 .89 2 2v8 0c0 1.1-.9 2-2 2H43v0c-1.11 0-2-.9-2-2v-8 0c0-1.11.89-2 2-2Zm-2-12v0c0-1.11.89-2 2-2h10v0c1.1 0 2 .89 2 2v8 0c0 1.1-.9 2-2 2H43v0c-1.11 0-2-.9-2-2ZM25 14v0c0-1.11.89-2 2-2h10v0c1.1 0 2 .89 2 2v8 0c0 1.1-.9 2-2 2H27v0c-1.11 0-2-.9-2-2Zm2 26h10v0c1.1 0 2 .89 2 2v8 0c0 1.1-.9 2-2 2H27v0c-1.11 0-2-.9-2-2v-8 0c0-1.11.89-2 2-2Zm-2-12v0c0-1.11.89-2 2-2h10v0c1.1 0 2 .89 2 2v8 0c0 1.1-.9 2-2 2H27v0c-1.11 0-2-.9-2-2ZM9 14v0c0-1.11.89-2 2-2h10v0c1.1 0 2 .89 2 2v8 0c0 1.1-.9 2-2 2H11v0c-1.11 0-2-.9-2-2Zm2 26h10v0c1.1 0 2 .89 2 2v8 0c0 1.1-.9 2-2 2H11v0c-1.11 0-2-.9-2-2v-8 0c0-1.11.89-2 2-2ZM9 28v0c0-1.11.89-2 2-2h10v0c1.1 0 2 .89 2 2v8 0c0 1.1-.9 2-2 2H11v0c-1.11 0-2-.9-2-2Z" />
</svg>