<svg xmlns="http://www.w3.org/2000/svg" viewBox="0 0 32 32">
  <path fill-rule="evenodd" d="M59 24h-3.01l0-.01c-1.55 4.41-3.97 8.48-7.12 11.94l0 0c3.18 2.59 6.72 4.7 10.52 6.25l-.01-.01c.48.21.72.77.53 1.27l-.7 1.86 0-.01c-.18.5-.72.76-1.22.59 -.02-.01-.03-.01-.05-.02l0 0c-4.35-1.76-8.39-4.19-11.99-7.2l0-.01c-3.6 3-7.64 5.43-11.99 7.19l0-.01c-.5.19-1.06-.05-1.25-.55 -.01-.02-.02-.03-.02-.05l-.7-1.87 0 0c-.19-.5.04-1.06.53-1.28l-.01 0c3.79-1.56 7.34-3.67 10.52-6.26l-.01-.01c-3.15-3.47-5.57-7.53-7.12-11.95h-3.01 -.01c-.56-.01-1-.45-1-1 0 0 0-.001 0-.001v-2l0 0c-.01-.56.44-1 1-1h11v-3l0 0c-.01-.56.44-1 1-1h2 -.01c.55-.01 1 .44 1 1v3h11 -.01c.55-.01 1 .44 1 1v2l0 0c0 .55-.45 1-1 1 -.01 0-.01 0-.01-.001Zm-18.86 0l-.01-.01c1.38 3.39 3.36 6.51 5.85 9.2l-.01 0c2.48-2.7 4.46-5.82 5.85-9.21ZM28.22 46h-2.31l0 0c-.53-.01-1-.33-1.18-.83l-1.89-5.18H10.09L8.2 45.16l0-.01c-.18.49-.65.82-1.18.82H4.71l-.01-.001c-.42-.01-.75-.34-.75-.76 0-.09.01-.18.04-.26l9.45-26.01 0-.01c.21-.6.77-.99 1.4-.99h3.15l0 0c.63 0 1.19.39 1.4.98l9.45 26 0 0c.14.38-.06.81-.45.96 -.09.02-.17.04-.26.04ZM16.48 22.47L11.56 36h9.84Z" transform="scale(0.5,0.5)" />
</svg>