<svg xmlns="http://www.w3.org/2000/svg" viewBox="0 0 64 64">
  <path fill-rule="evenodd" d="M11.33 20.3l18.84-9.91v0c1.14-.52 2.45-.52 3.59 0l18.84 9.9c1.79.94 1.79 2.48 0 3.43l-18.85 9.9v0c-1.15.51-2.46.51-3.6 0L11.3 23.71c-1.8-.95-1.8-2.49 0-3.44Zm0 20l3.16-1.67v0c.58-.31 1.27-.31 1.86 0l12.9 6.77v0c1.72.82 3.73.82 5.46 0l12.88-6.77v0c.58-.31 1.27-.31 1.86 0l3.14 1.65c1.79.94 1.79 2.48 0 3.43l-18.85 9.9v0c-1.15.51-2.46.51-3.6 0L11.29 43.7c-1.8-.95-1.8-2.49 0-3.44Zm0-10l3.16-1.67v0c.58-.31 1.27-.31 1.86 0l12.9 6.77v0c1.72.82 3.73.82 5.46 0l12.88-6.77v0c.58-.31 1.27-.31 1.86 0l3.14 1.65c1.79.94 1.79 2.48 0 3.43l-18.85 9.9v0c-1.15.51-2.46.51-3.6 0L11.29 33.7c-1.8-.95-1.8-2.49 0-3.44Z" />
</svg>