<svg xmlns="http://www.w3.org/2000/svg" viewBox="0 0 64 64">
  <path fill-rule="evenodd" d="M39.26 40.59c-.59 1.99-1.06 3.42-3.07 3.42h-8.36c-2.02 0-2.49-1.44-3.07-3.43 -1.95-6.65-7.68-8.85-7.75-17.43L17 23.14c-.09-8.29 6.56-15.07 14.85-15.15 8.28-.09 15.06 6.56 15.14 14.85 0 .09 0 .19 0 .28 -.08 8.58-5.81 10.78-7.76 17.42Zm-12.25 5.42h10v0c1.1 0 2 .89 2 2 0 1.1-.9 2-2.01 2H26.99v0c-1.11 0-2.01-.9-2.01-2.01 0-1.11.89-2.01 2-2.01Zm1.17 6h7.66v0c.64 0 1.17.52 1.17 1.17 -.001 0-.001 0-.001 0h0c0 .53-.22 1.03-.59 1.41l-.83.82v0c-.38.37-.89.58-1.42.58H29.8 29.8c-.54-.01-1.04-.22-1.42-.59l-.83-.83h0c-.38-.38-.59-.89-.59-1.42v0c-.01-.65.52-1.18 1.17-1.18 0-.01 0-.01 0-.01Z" />
</svg>