<svg xmlns="http://www.w3.org/2000/svg" viewBox="0 0 64 64">
  <path fill-rule="evenodd" d="M48.01 49.02h-22v0c-1.11 0-2-.9-2-2 0-1.11.89-2 2-2h22v0c1.1 0 2 .89 2 2 0 1.1-.9 2-2 2Zm0-10h-22v0c-1.11 0-2-.9-2-2 0-1.11.89-2 2-2h22v0c1.1 0 2 .89 2 2 0 1.1-.9 2-2 2Zm0-10h-22v0c-1.11 0-2-.9-2-2v0 0c0-1.11.89-2 2-2h22v0c1.1 0 2 .89 2 2v0 0c0 1.1-.9 2-2 2Zm0-10h-22v0c-1.11 0-2-.9-2-2 0-1.11.89-2 2-2h22v0c1.1 0 2 .89 2 2 0 1.1-.9 2-2 2Zm-34 7v0c0-1.11.89-2 2-2h2v0c1.1 0 2 .89 2 2v2 0c0 1.1-.9 2-2 2h-2v0c-1.11 0-2-.9-2-2Zm2 18h2v0c1.1 0 2 .89 2 2v2 0c0 1.1-.9 2-2 2h-2v0c-1.11 0-2-.9-2-2v-2 0c0-1.11.89-2 2-2Zm-2-8v0c0-1.11.89-2 2-2h2v0c1.1 0 2 .89 2 2v2 0c0 1.1-.9 2-2 2h-2v0c-1.11 0-2-.9-2-2Zm6-18v0c0 1.1-.9 2-2 2h-2v0c-1.11 0-2-.9-2-2v-2 0c0-1.11.89-2 2-2h2v0c1.1 0 2 .89 2 2Z" />
</svg>