<svg xmlns="http://www.w3.org/2000/svg" viewBox="0 0 64 64">
  <path fill-rule="evenodd" d="M50.999 38h-1.1v0c-.52 0-.95-.39-1-.9l-1.09-10.87 -.62 4.33v0c-.14.95-.19 1.91-.15 2.87l.9 23.51v0c.02.55-.41 1.01-.97 1.03 -.02 0-.03 0-.04 0h-2.06v0c-.52 0-.95-.39-1-.91l-1.9-19.1 -1.9 19.09h-.001c-.06.51-.49.9-1 .9h-2.06v0c-.56 0-1.01-.45-1.01-1 -.01-.02 0-.03 0-.04l.9-23.52h0c.03-.97-.02-1.93-.15-2.88l-.62-4.34 -.22-1.49 -4.41 4.42v0c-.53.52-1.25.82-1.99.82h-6.83v0c-.4.02-.74-.28-.77-.67v-.88 0c.02-.41.32-.75.72-.81l5.96-1.78 4.48-5.41v-.001c1.11-1.55 2.91-2.47 4.82-2.47h8.99v0c2.76 0 5 2.23 5 5v14 0c0 .55-.45.99-1 1Zm-8.99-22v0c-2.77 0-5-2.24-5-5 0-2.77 2.23-5 5-5 2.76 0 5 2.23 5 5h0c0 2.76-2.24 4.99-5 5ZM21.852 35.17l-1.28 2.2v0c-.36.6-1.14.81-1.74.46 -.01-.01-.01-.01-.01-.01l-2.21-1.28v0c-.61-.36-.82-1.14-.47-1.75l1.27-2.21h0c.35-.61 1.13-.82 1.74-.47l2.2 1.27v0c.6.35.81 1.13.46 1.74Zm-.68 10.67h0c-.61.35-1.39.14-1.74-.47 -.01-.01-.01-.01-.01-.01l-1.28-2.21v0c-.36-.61-.15-1.39.46-1.75l2.2-1.28v0c.6-.36 1.38-.15 1.74.46l1.27 2.2v0c.35.6.14 1.38-.47 1.74Zm5.81-9.91h0c.03-.53.46-.94.99-.94h2v0c.55 0 .99.44.99 1 -.01.02-.01.04-.01.06l-1.2 19.12v-.001c-.1 1.58-1.41 2.81-3 2.81H14.14h-.001c-1.59 0-2.9-1.24-3-2.82l-1.2-19.13v0c-.04-.56.38-1.03.93-1.07 .02-.01.04-.01.06-.01h2v0c.52 0 .96.41.99.93l1.13 18.06h10.72Z" />
</svg>