<svg xmlns="http://www.w3.org/2000/svg" viewBox="0 0 64 64">
  <path fill-rule="evenodd" d="M45 53.98H19v0c-2.3-.1-4.09-2.04-4-4.34V32.3v0c-.09-2.3 1.7-4.24 4-4.34h1v-7.01c0-4.04.84-6.38 2.72-8.27 1.88-1.89 4.22-2.73 8.25-2.73h2.02c4.02 0 6.37.84 8.25 2.73 1.88 1.88 2.72 4.23 2.72 8.26v7h1l-.001-.001c2.29.09 4.08 2.03 4 4.33v17.333h-.001c.08 2.29-1.71 4.23-4 4.33ZM29.26 41.14v-.001c.34.23.5.65.39 1.05l-1.64 6.53v0c-.14.53.19 1.07.72 1.21 .07.01.16.02.24.02h6v0c.55 0 1-.45 1-1 0-.09-.01-.17-.03-.25l-1.64-6.54v0c-.11-.41.05-.83.39-1.06v0c2.31-1.52 2.95-4.62 1.44-6.93 -1.52-2.32-4.62-2.96-6.93-1.45 -2.32 1.51-2.96 4.61-1.45 6.92 .37.57.87 1.06 1.44 1.44Zm10.73-20.168c0-2.57-.54-4.06-1.74-5.26 -1.2-1.2-2.7-1.74-5.26-1.74h-2.02c-2.57 0-4.06.53-5.26 1.73 -1.2 1.19-1.74 2.69-1.74 5.25v7h16Z" />
</svg>