<svg xmlns="http://www.w3.org/2000/svg" viewBox="0 0 64 64">
  <path fill-rule="evenodd" d="M12.27 11.92l15.52-3.88v0c.95-.24 1.92.34 2.16 1.29 .03.14.05.28.05.42v2.218h9 0c1.65-.01 3 1.34 3 2.99 0 0 0 0 0 0v8.99 0c-.01 1.1-.92 1.99-2.02 1.98 -1.1-.01-1.98-.9-1.99-1.99v-8h-8.01v31.98h8v-7.99 0c0-1.11.91-2 2.01-1.99 1.09 0 1.97.89 1.98 1.98v8.98 0c-.01 1.65-1.35 2.99-3.01 2.99 -.01-.01-.01-.01-.01-.01h-9.01v2.21 0c-.01.98-.8 1.78-1.79 1.78 -.15-.01-.29-.02-.44-.06l-15.53-3.88h0c-1.34-.34-2.28-1.54-2.28-2.91v-34.3 0c0-1.38.93-2.58 2.27-2.91ZM36 31.98v0c0-1.11.89-2 2-2h10.01v-4.99 0c.01-.57.47-1.02 1.04-1.01 .2 0 .4.06.57.18l9.94 6.98v-.001c.45.31.56.93.25 1.38 -.07.09-.16.18-.26.25l-9.95 6.98h0c-.47.32-1.11.22-1.44-.25 -.13-.17-.19-.37-.19-.58v-5H37.95v0c-1.11-.01-2-.9-2-2Z" />
</svg>