<svg xmlns="http://www.w3.org/2000/svg" viewBox="0 0 64 64">
  <path fill-rule="evenodd" d="M51.73 52.04l-15.52 3.87v-.001c-.96.23-1.93-.35-2.16-1.3 -.04-.15-.06-.29-.06-.43v-2.22h-9v0c-1.66 0-3-1.35-3-3v-7 0c0-1.11.89-2 2-2 1.1 0 2 .89 2 2v5.99h8V15.95h-8v5.98 0c0 1.1-.9 2-2 2 -1.11 0-2-.9-2-2v-6.99 0c0-1.66 1.34-3 3-3h9V9.72h0c0-.99.79-1.79 1.78-1.78 .14 0 .28.01.43.05l15.51 3.87v-.001c1.33.33 2.27 1.53 2.27 2.9v34.29 0c-.01 1.37-.94 2.57-2.28 2.9ZM25.55 32.8l-9.94 6.98h0c-.47.32-1.11.22-1.44-.25 -.13-.17-.19-.38-.19-.58v-5H3.97v0c-1.11 0-2-.9-2-2 0-1.11.89-2 2-2h10v-4.99l-.001 0c0-.57.47-1.02 1.04-1.01 .2 0 .4.06.57.18l9.93 6.98v0c.45.31.56.93.25 1.38 -.07.09-.16.18-.26.25Z" />
</svg>