<svg xmlns="http://www.w3.org/2000/svg" viewBox="0 0 64 64">
  <path fill-rule="evenodd" d="M45.51 37.02v0c4.69 0 8.5 3.8 8.5 8.5 0 4.69-3.81 8.5-8.5 8.5 -4.7 0-8.5-3.81-8.5-8.5v-4.5h-10v4.5 0c0 4.69-3.81 8.5-8.5 8.5 -4.7 0-8.5-3.81-8.5-8.5 0-4.7 3.8-8.5 8.5-8.5h4.5v-10h-4.5v0c-4.7 0-8.5-3.81-8.5-8.5 0-4.7 3.8-8.5 8.5-8.5 4.69 0 8.5 3.8 8.5 8.5v4.5h10v-4.5 0c0-4.7 3.8-8.5 8.5-8.5 4.69 0 8.5 3.8 8.5 8.5 0 4.69-3.81 8.5-8.5 8.5h-4.5v10Zm-22.5-18.5v0c0-2.49-2.02-4.5-4.5-4.5 -2.49 0-4.5 2.01-4.5 4.5 0 2.48 2.01 4.5 4.5 4.5h4.5Zm-4.5 22.5v0c-2.49 0-4.5 2.01-4.5 4.5 0 2.48 2.01 4.5 4.5 4.5 2.48 0 4.5-2.02 4.5-4.5v-4.5Zm18.5-14h-10v10h10Zm8.5-4v0c2.48 0 4.5-2.02 4.5-4.5 0-2.49-2.02-4.5-4.5-4.5 -2.49 0-4.5 2.01-4.5 4.5v4.5Zm-4.5 22.5v0c0 2.48 2.01 4.5 4.5 4.5 2.48 0 4.5-2.02 4.5-4.5 0-2.49-2.02-4.5-4.5-4.5h-4.5Z" />
</svg>