<svg xmlns="http://www.w3.org/2000/svg" viewBox="0 0 64 64">
  <path fill-rule="evenodd" d="M10.47 54.556v0c1.95 1.95 5.11 1.95 7.06 0 0-.01 0-.01 0-.01l27-27v0c1.95-1.96 1.95-5.12 0-7.07 -.01-.01-.01-.01-.01-.01l-1-1v0c-1.96-1.96-5.12-1.96-7.07-.01 -.01 0-.01 0-.01 0l-27 27H9.43c-1.96 1.95-1.96 5.11-.01 7.06 0 0 0 0 0 0ZM32.29 29.3l7-7v0c.39-.4 1.02-.4 1.41-.01 0 0 0 0 0 0l1 1v0c.39.39.39 1.02 0 1.41 -.01 0-.01 0-.01 0l-7 7V31.7c-.4.39-1.03.39-1.42 0 -.01-.01-.01-.01-.01-.01l-1-1v0c-.4-.4-.4-1.03-.01-1.42 0-.01 0-.01 0-.01Zm-1.16-14.84v0c-.81-.16-1.44-.79-1.59-1.59l-.46-2.38v0c-.07-.33-.38-.55-.71-.49 -.25.04-.44.23-.49.48l-.46 2.37h-.001c-.16.8-.79 1.43-1.59 1.59l-2.38.45v-.001c-.33.06-.55.37-.49.7 .04.24.23.43.48.48l2.37.45v0c.8.15 1.43.78 1.59 1.59l.45 2.37v0c.06.32.37.54.7.48 .24-.05.43-.24.48-.49l.45-2.38v0c.15-.81.78-1.44 1.59-1.59l2.37-.46v0c.32-.07.54-.38.48-.71 -.05-.25-.24-.44-.49-.49Zm24 16v0c-.81-.16-1.44-.79-1.59-1.59l-.46-2.38v0c-.07-.33-.38-.55-.71-.49 -.25.04-.44.23-.49.48l-.46 2.37v0c-.16.8-.79 1.43-1.59 1.59l-2.38.45v0c-.33.06-.55.37-.49.7 .04.24.23.43.48.48l2.37.45v0c.8.15 1.43.78 1.59 1.59l.45 2.37v0c.06.32.37.54.7.48 .24-.05.43-.24.48-.49l.45-2.38v0c.15-.81.78-1.44 1.59-1.59l2.37-.46v0c.32-.07.54-.38.48-.71 -.05-.25-.24-.44-.49-.49ZM51.64 9.89l-.57-3.4v0c-.06-.33-.36-.54-.68-.49 -.26.04-.45.23-.49.48l-.57 3.39V9.87c-.22 1.26-1.21 2.25-2.47 2.46l-3.4.56h-.001c-.33.05-.54.35-.49.67 .04.24.23.44.48.48l3.39.56v-.001c1.26.21 2.25 1.2 2.46 2.46l.56 3.39h-.001c.05.32.35.53.67.48 .25-.05.44-.24.48-.49l.56-3.4v-.001c.21-1.27 1.2-2.26 2.46-2.47l3.39-.57v0c.32-.06.53-.36.48-.68 -.05-.25-.24-.45-.49-.49l-3.4-.57v0c-1.27-.22-2.26-1.21-2.47-2.47Z" />
</svg>