<svg xmlns="http://www.w3.org/2000/svg" viewBox="0 0 64 64">
  <path fill-rule="evenodd" d="M32 55.98v0c-11.05 0-20-8.96-20-20v-15 0c0-.56.44-1 1-1h12v0c.55 0 1 .44 1 1v15 0c0 3.31 2.68 6 6 6 3.31 0 6-2.69 6-6v-15 0c0-.56.44-1 1-1h12v0c.55 0 1 .44 1 1v15 0c0 11.04-8.96 20-20 20Zm19-38H39v0c-.56 0-1-.45-1-1v-5 0c0-1.11.89-2 2-2h10v0c1.1 0 2 .89 2 2v5h0c0 .55-.45 1-1 1 -.01 0-.01-.01-.01-.01Zm-26 0H13v0c-.56 0-1-.45-1-1v-5 0c0-1.11.89-2 2-2h10v0c1.1 0 2 .89 2 2v5 0c0 .55-.45 1-1 1 -.01 0-.01-.01-.01-.01Z" />
</svg>