<svg xmlns="http://www.w3.org/2000/svg" viewBox="0 0 64 64">
  <path fill-rule="evenodd" d="M54.01 23.02v0c0 .55-.45 1-1 1H11v0c-.56 0-1-.45-1-1v-9 0c0-1.11.89-2 2-2h11.34v0c1.06-.01 2.07.42 2.82 1.17l3.65 3.65v0c.75.75 1.76 1.17 2.82 1.17h19.34v0c1.1 0 2 .89 2 2Zm-44 3h43.993v0c1.1 0 1.99.89 1.99 2 -.01.05-.01.1-.01.15l-1.63 21.07h0c-.13 1.56-1.43 2.76-3 2.77H12.59v0c-1.57 0-2.88-1.21-3-2.77l-.56-7.16H9.03c-.05-.56.36-1.04.92-1.08 .02-.01.05-.01.07-.01h17.9v4.99 0c0 .56.47 1.01 1.03 1 .2-.01.4-.07.57-.19l9.94-6.99v0c.45-.32.56-.94.25-1.39 -.07-.1-.16-.19-.26-.26l-9.95-6.99v0c-.47-.33-1.11-.23-1.43.24 -.13.16-.19.37-.19.57v4.98H9.51v0c-.53 0-.96-.41-1-.93L7.9 28.1v0c-.09-1.11.73-2.07 1.84-2.16 .05-.01.1-.01.15-.01Z" />
</svg>