<svg xmlns="http://www.w3.org/2000/svg" viewBox="0 0 64 64">
  <path fill-rule="evenodd" d="M37.01 22.02v0c-.56 0-1-.45-1-1V10.43h0c0-.56.44-1 1-1 .26 0 .51.1.7.29L48.29 20.3v-.001c.39.39.39 1.02-.01 1.41 -.19.18-.45.29-.71.29Zm13 5v26 0c0 1.65-1.35 3-3 3h-30v0c-1.66 0-3-1.35-3-3v-11 0c0-.56.44-1 1-1H28v4.99 0c0 .56.47 1.01 1.03 1 .2-.01.4-.07.57-.19l9.94-6.99v0c.45-.32.56-.94.25-1.39 -.07-.1-.16-.19-.26-.26l-9.95-6.99h0c-.47-.33-1.11-.23-1.43.24 -.13.16-.19.37-.19.57v4.98H14.97v0c-.56 0-1-.45-1-1v-25h-.001c0-1.66 1.34-3 3-3h14v0c1.65 0 3 1.34 3 3v10 0c0 1.65 1.34 3 3 3h10v0c1.65-.01 3 1.34 3 2.99 0 0 0 0 0 0Z" />
</svg>