<svg xmlns="http://www.w3.org/2000/svg" viewBox="0 0 32 32">
  <path  fill-rule="evenodd" d="M22.27 11.73l22.62-5.66 -.01 0c1.33-.34 2.69.47 3.03 1.81 .04.19.07.4.07.6v36.06c0 3.78-3.4 6.45-8 6.45l-.01 0c-3.25.06-5.94-2.52-6-5.77 -.01-.04-.01-.07-.01-.11l-.001 0c0-2.68 1.81-5 4.4-5.65l4.07-1.02 0-.01c.89-.23 1.51-1.03 1.51-1.95V21.91l0 0c0-.56-.45-1-1-1 -.09 0-.17.01-.25.02l-17.63 4.4 -.01 0c-.67.16-1.14.76-1.14 1.45v24.69c0 3.78-3.4 6.45-8 6.45l0-.01c-3.25.06-5.94-2.52-6-5.77 -.01-.04-.01-.07-.01-.11l-.01-.01c-.01-2.68 1.81-5 4.4-5.65l4.07-1.02 -.01 0c.89-.23 1.51-1.03 1.51-1.94V14.5l-.01 0c0-1.38.93-2.58 2.27-2.92Z" transform="scale(0.5,0.5)"/>
</svg>