<svg xmlns="http://www.w3.org/2000/svg" viewBox="0 0 64 64">
  <path fill-rule="evenodd" d="M54 45.96V18.02v0c-.01-.56.43-1.01.98-1.02 .25-.01.49.08.68.25l0-.001c8.13 7.7 8.47 20.54.77 28.67 -.25.26-.51.52-.78.77l0-.001c-.41.36-1.05.33-1.42-.08 -.17-.19-.27-.44-.26-.69Zm-6 8.03H12v0c-2.21 0-4-1.8-4-4v-36 0c0-2.21 1.79-4 4-4h36v0c2.2 0 4 1.79 4 4v36 0c0 2.2-1.8 4-4 4ZM41 16.7v0c-.01-.94-.77-1.7-1.71-1.7 -.14 0-.28.01-.41.04L24.5 18.58v0c-.9.22-1.53 1.02-1.53 1.94v18.21 0c.05.61-.35 1.18-.94 1.34 -.64.15-2.06.49-3.92.93v0c-1.83.41-3.13 2.02-3.15 3.9v0c.04 2.28 1.93 4.09 4.21 4.05 .02-.01.04-.01.06-.01 3.28 0 5.71-1.85 5.71-4.46V27.95v0c0-.46.31-.87.76-.98l12.4-3.06v0c.35-.09.72.13.81.49 .01.05.01.1.01.15v9.12l0 0c.05.61-.35 1.18-.94 1.34 -.64.15-2.07.49-3.92.93v-.001c-1.83.41-3.13 2.02-3.15 3.9h-.001c.04 2.28 1.93 4.09 4.21 4.05 .02-.01.04-.01.06-.01 3.28 0 5.71-1.85 5.71-4.46Z" />
</svg>