<svg xmlns="http://www.w3.org/2000/svg" viewBox="0 0 32 32">
  <path  fill-rule="evenodd" d="M46.99 56h-30 -.01c-1.66-.01-3-1.35-3-3 0 0 0 0 0 0V11l0 0c-.01-1.66 1.34-3 3-3h14 -.01c1.65-.01 3 1.34 3 3v10l0 0c0 1.65 1.34 3 3 3h10l-.01 0c1.65-.01 3 1.34 3 3v26h-.001c0 1.65-1.35 3-3 3 0 0-.001 0-.001 0Zm-8-19h-5v-5 0c0-1.11-.9-2-2-2 -1.11 0-2 .89-2 2v5h-5 -.01c-1.11 0-2 .89-2 2 0 1.1.89 2 2 2h5v5l0-.01c-.01 1.1.89 2 2 2 1.1 0 2-.9 2-2 0-.01 0-.01 0-.01v-5h5 -.01c1.1 0 2-.9 2-2 0-1.11-.9-2-2-2Zm8.58-15H36.98h-.01c-.56-.01-1-.45-1-1 0 0 0-.001 0-.001V10.4l-.001 0c0-.56.44-1 1-1 .26 0 .51.1.7.29l10.58 10.58 -.01-.01c.39.39.39 1.02-.01 1.41 -.19.18-.45.29-.71.29Z" transform="scale(0.5,0.5)"/>
</svg>