<svg xmlns="http://www.w3.org/2000/svg" viewBox="0 0 32 32">
  <path fill-rule="evenodd" d="M40 51.01l-.01 0c-3.25.06-5.94-2.52-6-5.76 -.01-.04-.01-.07-.01-.11l-.01 0c0-2.67 1.81-5 4.4-5.65l4.07-1.02 0-.01c.89-.23 1.51-1.03 1.51-1.94v-8.56l0 0c-.01-.56-.45-1-1.01-1 -.09 0-.17.01-.25.02l-17.63 4.4 -.01 0c-.67.16-1.14.76-1.14 1.45V51.5c0 3.78-3.4 6.44-8 6.44l0-.01c-3.25.06-5.94-2.51-6-5.76 -.01-.04-.01-.07-.01-.11l-.01 0c0-2.67 1.81-5 4.4-5.65l4.07-1.02 0-.01c.88-.23 1.51-1.03 1.51-1.94V14.55l-.01 0c0-1.38.93-2.58 2.27-2.91l22.62-5.66 -.01 0c1.33-.34 2.69.47 3.03 1.81 .04.19.07.4.07.6v36.03c0 3.78-3.4 6.44-8 6.44Zm2.75-35.98l-17.63 4.4 -.01 0c-.67.16-1.14.76-1.14 1.45v1.09l-.01-.01c0 .55.44.99 1 .99 .08-.01.16-.02.24-.03l17.62-4.41 0-.01c.66-.17 1.13-.77 1.13-1.46v-1.1l0 0c-.01-.56-.45-1-1.01-1 -.09 0-.17.01-.25.02Z" transform="scale(0.5,0.5)" />
</svg>