<svg xmlns="http://www.w3.org/2000/svg" viewBox="0 0 64 64">
  <path fill-rule="evenodd" d="M52 31.98v0C52 43.03 43.05 52 32 52c-11.06 0-20.03-8.95-20.03-20 -.01-11.06 8.94-20.03 19.99-20.03 2.04-.01 4.06.3 6.01.92v0c.84.27 1.77-.06 2.247-.82v-.001c.15-.27.33-.52.51-.76v0c.41-.54.3-1.31-.24-1.72 -.1-.08-.21-.14-.33-.18v-.001c-12.48-4.56-26.28 1.86-30.84 14.34 -4.56 12.47 1.86 26.27 14.34 30.83 12.47 4.55 26.27-1.87 30.83-14.35 1.94-5.33 1.94-11.17 0-16.49v0c-.24-.64-.94-.97-1.58-.73 -.12.04-.23.1-.33.17v-.001c-.25.18-.5.35-.76.51v-.001c-.76.47-1.1 1.39-.82 2.24h0c.61 1.93.92 3.95.92 5.98Zm-20-10v0c-5.53 0-10 4.47-10 10 0 5.52 4.47 10 10 10 5.52 0 10-4.48 10-10v0c-.01-5.53-4.48-10-10-10Zm15.5 1v0c3.58 0 6.5-2.92 6.5-6.5 0-3.59-2.92-6.5-6.5-6.5 -3.59 0-6.5 2.91-6.5 6.5v0c-.01 3.58 2.91 6.5 6.49 6.5 0 0 0 0 0-.01Z" />
</svg>