<svg xmlns="http://www.w3.org/2000/svg" viewBox="0 0 64 64">
  <path fill-rule="evenodd" d="M52.99 44.22l-20 11.49v0c-.62.35-1.38.35-2 0l-20.01-11.5 0-.001c-.62-.36-1.01-1.02-1-1.74v-21 0c-.01-.72.38-1.38 1-1.74l5.31-3.06v0c.3-.18.68-.18.99 0l22.18 12.85v0c.3.17.5.51.5.86v5.05h0c-.01.27.22.5.49.5 .09 0 .17-.03.25-.08l4.75-2.84v0c.3-.19.48-.51.48-.87v-5.56 0c0-.18-.1-.35-.25-.44L23.52 13.29v-.001c-.25-.14-.33-.45-.19-.69 .04-.08.1-.14.18-.19l7.41-4.26v0c.61-.36 1.37-.36 1.99-.001l20 11.49h0c.61.35 1 1.01 1 1.73v20.99 0c0 .71-.39 1.37-1.01 1.73Zm-31-5.93v0c0-.36-.2-.69-.51-.87l-6.75-3.88h-.001c-.24-.14-.55-.06-.69.18 -.05.07-.07.16-.07.24v6.76 0c-.01.35.19.68.5.86l6.74 3.88v0c.23.13.54.05.68-.19 .04-.08.06-.17.06-.25Z" />
</svg>