<svg xmlns="http://www.w3.org/2000/svg" viewBox="0 0 64 64">
  <path fill-rule="evenodd" d="M40.98 38h-1.1v0c-.52 0-.95-.39-1-.9l-1.09-10.87 -.62 4.33v-.001c-.14.95-.19 1.91-.15 2.87l.9 23.51h-.001c.02.55-.41 1.01-.97 1.03 -.02 0-.03 0-.04 0h-2.06v0c-.52 0-.95-.39-1-.91l-1.9-19.1 -1.9 19.1v0c-.06.51-.49.9-1 .9h-2.06v0c-.56 0-1.01-.45-1.01-1 -.01-.02 0-.03 0-.04l.9-23.52v0c.03-.97-.02-1.93-.15-2.88l-.62-4.34 -1.09 10.86v0c-.06.51-.49.9-1 .9h-1.1v0c-.56 0-1-.45-1-1v-14 0c0-2.77 2.23-5 5-5h9.97v0c2.76 0 5 2.23 5 5v14 0c0 .55-.45 1-1 1Zm-8.99-22v0c-2.77 0-5-2.24-5-5 0-2.77 2.23-5 5-5 2.76 0 5 2.23 5 5v0c0 2.76-2.24 5-5 5Z" />
</svg>