<svg xmlns="http://www.w3.org/2000/svg" viewBox="0 0 32 32">
  <path  fill-rule="evenodd" d="M53.99 34h-18 -.01c-1.11-.01-2-.9-2-2 0-1.11.89-2 2-2h18 -.01c1.1-.01 2 .89 2 2 0 1.1-.9 2-2 2 -.01 0-.01 0-.01 0Zm0-14h-22l-.01-.001c-1.11-.01-2-.9-2-2 0-1.11.89-2 2-2h22l-.01 0c1.1-.01 2 .89 2 2 0 1.1-.9 2-2 2ZM24.74 39l-.01-.001c-.42-.01-.75-.34-.75-.75 0-.79 1.5-2.84 1.5-6.75 0-3.24-3.34-5.11-5.5-7.04v21.08c0 3.78-3.4 6.45-8 6.45l-.01 0c-3.25.06-5.94-2.52-6-5.77 -.01-.04-.01-.07-.01-.11l-.001-.01c-.01-2.68 1.81-5 4.4-5.65l4.07-1.02 0-.01c.89-.23 1.51-1.03 1.51-1.94V13.93l0 0c-.01-1.11.89-2 2-2v0l0-.01c.84-.02 1.6.51 1.87 1.32 1.41 5.79 10.12 8.189 10.12 17.42 -.01 4.2-4 8.25-5.25 8.25Zm3.25 5h26 -.01c1.1-.01 2 .89 2 2 0 1.1-.9 2-2 2h-26 -.01c-1.11-.01-2-.9-2-2 0-1.11.89-2 2-2Z" transform="scale(0.5,0.5)"/>
</svg>