<svg xmlns="http://www.w3.org/2000/svg" viewBox="0 0 64 64">
  <path fill-rule="evenodd" d="M53 50H11v0c-1.66 0-3-1.35-3-3V17v0c0-1.66 1.34-3 3-3h42v0c1.65 0 3 1.34 3 3v30 0c0 1.65-1.35 3-3 3ZM13 36h7v0c.55 0 1-.45 1-1 0-.56-.45-1-1-1h-7v0c-.56 0-1 .44-1 1 0 .55.44 1 1 1Zm11-14H13v0c-.56 0-1 .44-1 1 0 .55.44 1 1 1h11v0c.55 0 1-.45 1-1 0-.56-.45-1-1-1Zm2 6H13v0c-.56 0-1 .44-1 1 0 .55.44 1 1 1h13v0c.55 0 1-.45 1-1 0-.56-.45-1-1-1Zm7-9v0c0-.56-.45-1-1-1 -.56 0-1 .44-1 1v26 0c0 .55.44 1 1 1 .55 0 1-.45 1-1Zm19 .5v0c0-.83-.68-1.5-1.5-1.5h-9v0c-.83 0-1.5.67-1.5 1.5v11 0c0 .82.67 1.5 1.5 1.5h9v0c.82 0 1.5-.68 1.5-1.5ZM49.5 30h-7v0c-.28 0-.5-.23-.5-.5v-9 0c0-.28.22-.5.5-.5h7v0c.27 0 .5.22.5.5v9 0c0 .27-.23.5-.5.5Z" />
</svg>