<svg xmlns="http://www.w3.org/2000/svg" viewBox="0 0 64 64">
  <path fill-rule="evenodd" d="M53.59 44.19l-8.74 9.13v0c-1.65 1.72-3.93 2.69-6.31 2.69H26.01 26c-2.31-.01-4.53-.92-6.16-2.55l-9.29-9.26h-.001c-1.65-1.64-2.57-3.87-2.57-6.19V25.5v0c-.01-2.39.97-4.67 2.69-6.31l9.18-8.79v0c1.62-1.56 3.78-2.42 6.03-2.42h12.73l0-.001c2.32 0 4.54.92 6.18 2.56l8.62 8.65v0c1.62 1.63 2.54 3.85 2.54 6.15v12.75l-.001-.001c0 2.24-.87 4.4-2.42 6.03Zm-5.68-13.48V30.7c-.49-.53-1.2-.79-1.91-.7 -2.54 0-5.15 4.43-5.83 5.67v0c-.17.3-.55.4-.86.24 -.2-.12-.33-.32-.33-.55v-16.87 0c0-.83-.68-1.5-1.5-1.5 -.83 0-1.5.67-1.5 1.5v12.5 0c0 .55-.45 1-1 1 -.56 0-1-.45-1-1v-14.5 0c0-.83-.68-1.5-1.5-1.5 -.83 0-1.5.67-1.5 1.5v14.5 0c0 .55-.45 1-1 1 -.56 0-1-.45-1-1v-12.5 0c0-.83-.68-1.5-1.5-1.5 -.83 0-1.5.67-1.5 1.5v13.5 0c0 .55-.45 1-1 1 -.56 0-1-.45-1-1v-8.5 0c0-.83-.68-1.5-1.5-1.5 -.83 0-1.5.67-1.5 1.5 0 .82-.01 15.49-.01 15.49v0c0 5.52 4.47 9.99 10 9.99 0-.01 0-.01 0-.01 5.54 0 9.9-2.45 12-9l0 0c1.17-3.14 2.83-6.08 4.9-8.72h0c.12-.18.12-.42-.01-.59Z" />
</svg>