<svg xmlns="http://www.w3.org/2000/svg" viewBox="0 0 64 64">
  <path fill-rule="evenodd" d="M35.38 40.48v0c0 .82-.68 1.5-1.5 1.5H30.5v0c-.83 0-1.5-.68-1.5-1.5 0-9.97 8.43-10.53 8.43-18 0-2.49-2.82-4.5-5.72-4.5s-5.74 2.01-5.74 4.5h-.001c-.02.85.1 1.7.35 2.51v-.001c.27.77-.14 1.63-.92 1.9 -.16.05-.33.08-.5.08h-3.05v0c-.68 0-1.28-.45-1.46-1.1v0c-.3-1.11-.45-2.26-.44-3.401 0-5.8 5.37-10.5 12-10.5 6.62 0 12 4.7 12 10.5 0 9.62-8.625 10.75-8.625 18Zm-3.375 5.5v0c2.2 0 4 1.79 4 4 0 2.2-1.8 4-4 4 -2.21 0-4-1.8-4-4v0c-.01-2.21 1.79-4.01 3.99-4.01 0-.01 0-.01 0-.01Z" />
</svg>