<svg xmlns="http://www.w3.org/2000/svg" viewBox="0 0 64 64">
  <path fill-rule="evenodd" d="M50.01 36.02v0c-2.21 0-4-1.8-4-4 0-2.21 1.79-4 4-4 2.2 0 4 1.79 4 4v0c0 2.2-1.8 4-4 4Zm-40-4v0c0-2.21 1.79-4 4-4 2.2 0 4 1.79 4 4 0 2.2-1.8 4-4 4v0c-2.21 0-4-1.8-4-4Zm18-18v0c0-2.21 1.79-4 4-4 2.2 0 4 1.79 4 4 0 2.2-1.8 4-4 4v0c-2.21 0-4-1.8-4-4Zm8 36v0c0 2.2-1.8 4-4 4 -2.21 0-4-1.8-4-4 0-2.21 1.79-4 4-4v0c2.2 0 4 1.79 4 4Zm-21.45-.6h-.001c-.79-.79-.79-2.05-.01-2.83 0-.01 0-.01 0-.01l14.58-14.59L14.53 17.4v0c-.8-.77-.83-2.04-.06-2.83 .76-.8 2.03-.83 2.83-.06 .01.01.03.03.05.05L31.94 29.14l14.59-14.6v0c.79-.78 2.05-.76 2.83.03 .75.77.75 2.01-.01 2.79l-14.6 14.59 14.6 14.6v0c.78.78.78 2.04-.01 2.83 -.79.78-2.05.78-2.84-.01l-14.6-14.6 -14.59 14.58v0c-.79.78-2.05.78-2.83 0 -.01-.01-.01-.01-.01-.01Z" />
</svg>