<svg xmlns="http://www.w3.org/2000/svg" viewBox="0 0 64 64">
  <path fill-rule="evenodd" d="M50.02 20.02v0c3.31 0 6 2.68 6 6v12 0c0 3.31-2.69 6-6 6h-10v0c-1.11 0-2-.9-2-2 0-1.11.89-2 2-2h10v0c1.1 0 2-.9 2-2v-12 0c0-1.11-.9-2-2-2h-10v0c-1.11 0-2-.9-2-2 0-1.11.89-2 2-2Zm-24-10h1v0c1.88-.01 3.68.76 5 2.11h-.001c1.31-1.35 3.11-2.12 5-2.11h1v0c1.1 0 2 .89 2 2 0 1.1-.9 2-2 2h-1v0c-1.66 0-3 1.34-3 3v30 0c0 1.65 1.34 2.99 3 3h1v0c1.1 0 2 .89 2 2 0 1.1-.9 2-2 2h-1v0c-1.89 0-3.69-.77-5-2.11v0c-1.32 1.34-3.12 2.11-5 2.11h-1v0c-1.11 0-2-.9-2-2 0-1.11.89-2 2-2h1v0c1.65-.01 2.99-1.35 3-3v-30 0c-.01-1.66-1.35-3-3-3h-1v0c-1.11 0-2-.9-2-2 0-1.11.89-2 2-2Zm-12 30h10v0c1.1 0 2 .89 2 2 0 1.1-.9 2-2 2h-10v0c-3.32 0-6-2.69-6-6v-12 0c0-3.32 2.68-6 6-6h10v0c1.1 0 2 .89 2 2 0 1.1-.9 2-2 2h-10v0c-1.11 0-2 .89-2 2v12h0c0 1.1.89 1.99 2 1.99Z" />
</svg>