<svg xmlns="http://www.w3.org/2000/svg" viewBox="0 0 64 64">
  <path fill-rule="evenodd" d="M42.02 44.02H22.03v4.99h0c-.01.56-.48 1.01-1.05 1 -.21-.01-.41-.07-.58-.19l-9.95-6.99h0c-.46-.32-.57-.94-.26-1.39 .06-.1.15-.19.25-.26l9.94-6.99h0c.46-.33 1.1-.23 1.42.24 .12.16.18.37.18.57v4.98h19.98v0c4.41 0 8-3.59 8-8v0c0-1.11.89-2 2-2 1.1 0 2 .89 2 2v0c0 6.62-5.38 12-12 12Zm1.6-14.2v-.001c-.47.32-1.11.22-1.43-.25 -.13-.17-.19-.38-.19-.58v-4.99H22.01v0c-4.42 0-8 3.58-8 8v0c0 1.1-.9 2-2 2 -1.11 0-2-.9-2-2v0c0-6.63 5.37-12 12-12h19.98v-5 0c0-.57.47-1.02 1.03-1.01 .2 0 .4.06.57.18l9.94 6.98v0c.45.31.56.93.25 1.38 -.07.09-.16.18-.26.25Z" />
</svg>