<svg xmlns="http://www.w3.org/2000/svg" viewBox="0 0 64 64">
  <path fill-rule="evenodd" d="M60.66 25.26l-9.02 1.65v0c-.36.06-.66.32-.77.66l0 0c-1.18 3.53-1.18 7.34 0 10.87L54.9 51.3v0c.36 1.06-.21 2.22-1.28 2.59 -.2.06-.4.1-.61.1v0c-.76-.01-1.45-.45-1.77-1.14L45.08 40.2v-.001c-.04-.07-.11-.09-.17-.06 -.03.01-.05.03-.06.05l-6.16 12.64v0c-.33.68-1.01 1.12-1.77 1.13v0c-1.13-.04-2.02-.97-1.99-2.1 0-.21.04-.41.1-.61l4.03-12.87v0c1.17-3.54 1.17-7.35 0-10.88h0c-.12-.35-.42-.61-.77-.67l-6.36-1.17 -6.36 1.16v0c-.36.06-.66.32-.77.66h0c-1.18 3.53-1.18 7.34-.001 10.87l4.03 12.86v0c.36 1.06-.21 2.22-1.28 2.59 -.2.06-.4.1-.61.1v0c-.76-.01-1.45-.45-1.77-1.14L19.01 40.1v0c-.04-.07-.11-.09-.17-.06 -.03.01-.05.03-.06.05L12.63 52.73h-.001c-.33.68-1.01 1.12-1.77 1.13v0c-1.13-.04-2.02-.97-1.99-2.1 0-.21.04-.41.1-.61L13 38.28H13c1.17-3.54 1.17-7.35 0-10.88v0c-.12-.35-.42-.61-.77-.67l-9.02-1.66h0c-.89-.17-1.48-1.02-1.32-1.91 .14-.78.81-1.35 1.6-1.35h56.72 0c.9 0 1.63.73 1.63 1.63 -.01.78-.57 1.46-1.35 1.6ZM45 10.01v0c2.76 0 5 2.23 5 5 0 2.76-2.24 5-5 5 -2.77 0-5-2.24-5-5v0c0-2.77 2.23-5 5-5Zm-26 0v0c2.76 0 5 2.23 5 5 0 2.76-2.24 5-5 5 -2.77 0-5-2.24-5-5v0c0-2.77 2.23-5 5-5Z" />
</svg>