<svg xmlns="http://www.w3.org/2000/svg" viewBox="0 0 64 64">
  <path fill-rule="evenodd" d="M16 10v0c1.1 0 2 .89 2 2v24.36 0c3.11 1.08 4.75 4.48 3.66 7.59 -.6 1.71-1.95 3.06-3.67 3.66v4.36 0c0 1.1-.9 2-2 2 -1.11 0-2-.9-2-2V47.6h0c-3.12-1.09-4.76-4.49-3.67-7.6 .59-1.72 1.94-3.07 3.66-3.67V11.96h0c0-1.11.89-2 2-2Zm16 0v0c1.1 0 2 .89 2 2v4.36 -.001c3.11 1.08 4.75 4.48 3.66 7.59 -.6 1.71-1.95 3.06-3.67 3.66v24.36 0c0 1.1-.9 2-2 2 -1.11 0-2-.9-2-2V27.59l0 0c-3.12-1.09-4.76-4.49-3.67-7.6 .59-1.72 1.94-3.07 3.66-3.67v-4.37 0c0-1.11.89-2 2-2Zm16 0v0c1.1 0 2 .89 2 2v14.36l0 0c3.11 1.08 4.75 4.48 3.66 7.59 -.6 1.71-1.95 3.06-3.67 3.66v14.36 0c0 1.1-.9 2-2 2 -1.11 0-2-.9-2-2V37.6v0c-3.12-1.09-4.76-4.49-3.67-7.6 .59-1.72 1.94-3.07 3.66-3.67V11.96h-.001c0-1.11.89-2 2-2Z" />
</svg>