<svg xmlns="http://www.w3.org/2000/svg" viewBox="0 0 32 32">
  <path fill-rule="evenodd" d="M60 34h-.01c-1.11 0-2 .89-2 2 0 0 0 0 0 0v8 0c0 3.31-2.69 6-6 6h-2 -.01c-.56-.01-1-.45-1-1 0 0 0 0 0 0v-2l0 0c-.01-.56.44-1 1-1h-.01c1.1 0 2-.9 2-2v-7l0-.01c0-2.02 1.01-3.9 2.69-5l-.01-.01c-1.68-1.11-2.69-2.99-2.7-5v-7 0c0-1.11-.9-2-2-2h-.01c-.56-.01-1-.45-1-1 0 0 0-.001 0-.001v-2l0 0c-.01-.56.44-1 1-1h2l-.01 0c3.31-.01 6 2.68 6 6v8l0 0c0 1.1.89 2 2 2h-.01c.55-.01 1 .44 1 1v2l0 0c0 .55-.45 1-1 1 -.01 0-.01-.001-.01-.001Zm-16 2l-.01-.001c-2.21-.01-4-1.8-4-4 0-2.21 1.79-4 4-4 2.2 0 4 1.79 4 4v-.01c0 2.2-1.8 4-4 4Zm-12 0l-.01-.001c-2.21-.01-4-1.8-4-4 0-2.21 1.79-4 4-4 2.2 0 4 1.79 4 4v-.01c0 2.2-1.8 4-4 4Zm-12 0l-.01-.001c-2.21-.01-4-1.8-4-4 0-2.21 1.79-4 4-4 2.2 0 4 1.79 4 4l0-.01c0 2.2-1.8 4-4 4Zm-6 14h-2 -.01c-3.32-.01-6-2.69-6-6 0 0 0-.001 0-.001v-8 0c0-1.11-.9-2-2-2h-.01c-.56-.01-1-.45-1-1 0 0 0 0 0 0v-2l0 0c-.01-.56.44-1 1-1l-.01-.001c1.1 0 2-.9 2-2v-8l0 0c-.01-3.32 2.68-6 6-6h2l-.01 0c.55-.01 1 .44 1 1v2 0c0 .55-.45 1-1 1l-.01 0c-1.11 0-2 .89-2 2 0 0 0 0 0 0v7l0-.01c-.01 2.01-1.02 3.89-2.69 5l-.01-.01c1.67 1.1 2.68 2.98 2.68 5v7l0 0c0 1.1.89 2 2 2h-.01c.55-.01 1 .44 1 1v2l0 0c0 .55-.45 1-1 1 -.01 0-.01-.001-.01-.001Z" transform="scale(0.5,0.5)" />
</svg>