<svg xmlns="http://www.w3.org/2000/svg" viewBox="0 0 64 64">
  <path fill-rule="evenodd" d="M53.026 20.17l-4.75.9v0c-1.62.3-2.88 1.56-3.19 3.18l-.91 4.74v0c-.13.65-.76 1.08-1.42.96 -.49-.1-.87-.48-.97-.97l-.91-4.75v0c-.31-1.62-1.57-2.88-3.19-3.19l-4.75-.91v0c-.66-.13-1.09-.76-.97-1.42 .09-.49.47-.87.96-.97l4.74-.91v0c1.61-.31 2.87-1.57 3.18-3.19l.9-4.75v0c.12-.66.75-1.09 1.41-.97 .48.09.86.47.96.96l.9 4.74v0c.3 1.61 1.56 2.87 3.18 3.18l4.74.9v0c.65.12 1.08.75.96 1.41 -.1.48-.48.86-.97.96Zm-17.02 15.81v0c0 1.65-1.35 3-3 3 -1.66 0-3-1.35-3-3 0-1.66 1.34-3 3-3v0c1.65 0 3 1.34 3 3Zm-13-18v0c-1.11 0-2-.9-2-2 0-1.11.89-2 2-2 1.1 0 2 .89 2 2v0c0 1.1-.9 1.99-2 2Zm1 12l0-.001c0 .42-.3.78-.72.86l-3.46.65h-.001c-1.18.22-2.1 1.14-2.32 2.31l-.66 3.45h-.001c-.1.47-.56.78-1.03.69 -.36-.07-.64-.35-.7-.7l-.66-3.46h-.001c-.23-1.18-1.15-2.1-2.32-2.32l-3.46-.66v0c-.48-.1-.79-.56-.7-1.03 .06-.36.34-.64.69-.7l3.45-.66v0c1.17-.23 2.09-1.15 2.31-2.32l.65-3.46v0c.09-.48.55-.79 1.02-.7 .35.06.63.34.69.69l.65 3.45h0c.22 1.17 1.14 2.09 2.31 2.31l3.45.65 -.001-.001c.41.07.71.44.71.86Zm-3.01 18v0c1.1 0 2 .89 2 2 0 1.1-.9 2-2 2 -1.11 0-2-.9-2-2v0c-.01-1.11.89-2 2-2 0-.001 0 0 0 0Zm17.71-.87l3.45-.66v0c1.17-.23 2.09-1.15 2.31-2.32l.65-3.46v0c.09-.48.55-.79 1.02-.7 .35.06.63.34.69.69l.65 3.45v0c.22 1.17 1.14 2.09 2.31 2.31l3.45.65v0c.47.09.78.55.69 1.02 -.07.35-.35.63-.7.69l-3.46.65v0c-1.18.22-2.1 1.14-2.32 2.31l-.66 3.45v0c-.1.47-.56.78-1.03.69 -.36-.07-.64-.35-.7-.7l-.66-3.46 -.001-.001c-.23-1.18-1.15-2.1-2.32-2.32l-3.46-.66v0c-.48-.1-.79-.56-.7-1.03 .06-.36.34-.64.69-.7Z" />
</svg>