<svg xmlns="http://www.w3.org/2000/svg" viewBox="0 0 64 64">
  <path fill-rule="evenodd" d="M45.61 36.467l0 0c-.18.12-.26.35-.19.55l4.36 13.88 -.001 0c.66 2.04-.47 4.23-2.51 4.9 -1.19.38-2.49.17-3.5-.57l-11.66-8.79v0c-.09-.07-.22-.07-.31 0L20.17 55.2h-.001c-1.73 1.27-4.17.9-5.44-.83 -.75-1.02-.96-2.34-.56-3.54l4.37-14v0c.03-.11-.01-.22-.1-.28L6.59 28.04h0c-1.76-1.27-2.16-3.71-.9-5.47 .76-1.07 2.01-1.68 3.32-1.63h14.4v0c.1-.01.2-.07.23-.18l4.56-14.11v-.001c.64-2.05 2.82-3.17 4.86-2.53 1.2.38 2.14 1.32 2.52 2.52l4.55 14.09v0c.03.1.12.17.23.17h14.46V20.9c2.16-.09 3.97 1.6 4.05 3.76 .04 1.31-.57 2.56-1.63 3.32Zm8.41-11.48H38.09v0c-.44 0-.82-.28-.96-.7l-4.94-15.27v0c-.05-.14-.19-.21-.32-.17 -.08.02-.14.08-.17.16l-4.94 15.27v0c-.14.41-.52.69-.96.69H9.92v0c-.14-.01-.26.11-.26.24 -.01.08.03.15.1.2l12.9 9.268v0c.34.25.49.69.37 1.11l-4.77 15.23v0c-.05.13.03.27.16.31 .07.02.16 0 .22-.04l12.64-9.55v0c.35-.27.84-.27 1.2-.01l12.67 9.55v-.001c.11.08.26.06.35-.05 .04-.07.06-.15.03-.23l-4.8-15.28v0c-.13-.42.02-.87.37-1.12l12.95-9.241v0c.11-.09.13-.24.05-.35 -.05-.07-.13-.11-.21-.11Z" />
</svg>