<svg xmlns="http://www.w3.org/2000/svg" viewBox="0 0 64 64">
  <path fill-rule="evenodd" d="M53.17 23.31l0-.001c-14.15-2.33-27.51 7.26-29.83 21.41 -.46 2.79-.46 5.64 0 8.43v0c.05.38-.21.74-.6.8 -.14.02-.28 0-.41-.06v-.001C10.2 48.57 4.67 34.43 9.97 22.3c5.3-12.13 19.44-17.66 31.57-12.36 5.51 2.41 9.92 6.81 12.34 12.33v0c.16.35 0 .77-.35.93 -.13.05-.27.07-.41.05Zm-4.2 1.65l-.001-.001c1.35 0 2.69.12 4.02.35h0c.64.12 1.06.74.93 1.38 -.05.23-.16.44-.33.61L27.32 53.56v-.001c-.46.46-1.21.46-1.67 0 -.17-.17-.29-.39-.33-.62l-.001 0c-.24-1.34-.36-2.68-.36-4.04h0c-.01-13.25 10.72-23.99 23.97-24Z" />
</svg>