<svg xmlns="http://www.w3.org/2000/svg" viewBox="0 0 64 64">
  <path fill-rule="evenodd" d="M56 50h-6v0c-1.11 0-2-.9-2-2 0-1.11.89-2 2-2h6v0c1.1 0 2 .89 2 2 0 1.1-.9 2-2 2Zm-9.61-13.6v0c-.79.78-2.05.78-2.83 0 -.79-.79-.79-2.05-.01-2.83l4.02-4.03v0c.78-.79 2.04-.79 2.82-.01 .78.78.78 2.04 0 2.82Zm-13.57-4.85v0c-.32.45-.94.56-1.39.25 -.1-.07-.19-.16-.26-.26l-6.99-9.95v0c-.33-.47-.23-1.11.24-1.43 .16-.13.37-.19.57-.19h4.98V7.98v0c0-1.11.89-2 2-2 1.1 0 2 .89 2 2v11.98h4.99v0c.56 0 1.01.47 1 1.03 -.01.2-.07.4-.19.57Zm-15.25 4.84l-4.03-4.03h0c-.79-.79-.79-2.05 0-2.83 .78-.79 2.04-.79 2.82 0 0 0 0 0 0 0l4.02 4.02v0c.77.78.77 2.05-.02 2.82 -.78.77-2.04.77-2.82 0Zm-1.58 11.59v0c0 1.1-.9 2-2 2h-6v0c-1.11 0-2-.9-2-2 0-1.11.89-2 2-2h6v0c1.1 0 2 .89 2 2Zm16-12v0c6.62 0 12 5.37 12 12v0 0c0 1.1-.9 2-2 2h-20v0c-1.11 0-2-.9-2-2v0 0c0-6.63 5.37-12 12-12Z" />
</svg>