<svg xmlns="http://www.w3.org/2000/svg" viewBox="0 0 64 64">
  <path fill-rule="evenodd" d="M46.84 53.57v0c-.32.45-.94.56-1.39.25 -.1-.07-.19-.16-.26-.26L38.2 43.6v0c-.33-.47-.23-1.11.24-1.43 .16-.13.37-.19.57-.19h4.98V22.97v0c0-2.77-2.24-5-5-5 -2.77 0-5 2.23-5 5v18.01 0c0 4.97-4.03 9-9 9 -4.98 0-9-4.03-9-9V21.97h-5 0c-.57-.01-1.02-.48-1.01-1.05 0-.21.06-.41.18-.58l6.98-9.96v0c.31-.46.93-.57 1.38-.26 .09.06.18.15.25.25l6.98 9.95v0c.32.46.22 1.1-.25 1.42 -.17.12-.38.18-.58.18h-4.99v19 0c0 2.76 2.23 5 5 5 2.76 0 5-2.24 5-5V22.9v0c0-4.98 4.02-9 9-9 4.97 0 9 4.02 9 9v19h4.99v0c.56 0 1.01.47 1 1.04 -.01.2-.07.4-.19.57Z" />
</svg>