<svg xmlns="http://www.w3.org/2000/svg" viewBox="0 0 64 64">
  <path fill-rule="evenodd" d="M47.5 12.01l-13.58 0v-.001c-1.6 0-3.12.63-4.25 1.75L8.89 34.539h0c-1.18 1.17-1.18 3.07 0 4.25l16.3 16.31h0c1.17 1.17 3.07 1.17 4.24 0 0-.01 0-.01 0-.01L50.2 34.29v0c1.12-1.13 1.75-2.65 1.75-4.24l0-13.6v0c0-2.49-2.02-4.51-4.5-4.51 -.01-.01-.01-.01-.01 0Zm-4.53 12.04v0c-1.67 0-3.01-1.35-3.01-3.01 -.01-1.67 1.34-3.01 3-3.01 1.66-.01 3 1.34 3 3 0 0 0 0 0 0v0c0 1.66-1.35 3-3.01 3 -.01 0-.01 0-.01 0Z" />
</svg>