<svg xmlns="http://www.w3.org/2000/svg" viewBox="0 0 64 64">
  <path fill-rule="evenodd" d="M50.78 39.33v0c-.5.3-.84.81-.93 1.39h0c-.97 5.99-6.6 10.07-12.6 9.11 -1.44-.24-2.82-.75-4.06-1.52v0c-.74-.47-1.68-.47-2.41-.001v0c-2.92 1.81-6.53 2.15-9.73.91v0c-.29-.13-.62-.1-.89.06v0c-1.83 1.21-4.3.72-5.52-1.11 -.9-1.34-.89-3.09 0-4.42h0c.16-.27.19-.6.06-.89v0c-.27-.7-.47-1.42-.59-2.16v0c-.1-.59-.44-1.1-.93-1.42h0c-5.17-3.18-6.78-9.95-3.6-15.11 .89-1.47 2.12-2.7 3.59-3.6v0c.49-.31.83-.82.92-1.4v0c.96-6 6.6-10.08 12.59-9.12 1.43.23 2.81.74 4.05 1.51v0c.73.46 1.67.46 2.4 0v0c5.16-3.2 11.93-1.61 15.13 3.55 .76 1.23 1.28 2.61 1.51 4.05v0c.09.57.43 1.08.92 1.39v-.001c5.16 3.18 6.77 9.94 3.58 15.1 -.9 1.46-2.13 2.68-3.59 3.58ZM32 43.98v0c1.65 0 3-1.35 3-3 0-1.66-1.35-3-3-3 -1.66 0-3 1.34-3 3v0c0 1.65 1.34 3 3 3Zm0-28c-4.42 0-8 3.13-8 7h0c-.01.76.08 1.52.28 2.26h0c.12.43.51.73.96.73h2.03v0c.54 0 .99-.45.99-1 0-.12-.02-.23-.06-.33v0c-.18-.55-.27-1.11-.26-1.68 0-1.66 1.91-3 3.84-3s3.81 1.34 3.81 3c0 4.98-5.625 4.35-5.625 11v0c0 .55.44 1 1 1h2.25v0c.55 0 1-.45 1-1 0-4.84 5.75-4.59 5.75-11 0-3.87-3.59-7.01-8-7Zm-21 34v0c1.65 0 3 1.34 3 3 0 1.65-1.35 3-3 3 -1.66 0-3-1.35-3-3v0c-.01-1.66 1.34-3.01 2.99-3.01 0-.01 0-.01 0 0Z" />
</svg>