<svg xmlns="http://www.w3.org/2000/svg" viewBox="0 0 64 64">
  <path fill-rule="evenodd" d="M12 14.02h4.79 0c.78 0 1.56-.24 2.21-.68l.96-.641 -.001-.001c2.62-1.76 5.71-2.69 8.87-2.69h14.92 0c2.16-.05 4 1.58 4.22 3.73h0c.05.81-.15 1.62-.58 2.32v-.001c1.36.07 2.56.92 3.1 2.18l-.001 0c.46.88.57 1.91.32 2.88v0c-.25.85-.79 1.6-1.51 2.11v-.001c2.07.71 3.17 2.97 2.45 5.05 -.33.94-1.01 1.73-1.89 2.2v0c1.48.79 2.31 2.44 2.05 4.1v0c-.36 1.98-2.1 3.42-4.12 3.39H34.74v0c-.28 0-.51.23-.5.51 0 .07.01.14.04.2h-.001c1.21 3.28 1.77 6.77 1.64 10.27 0 6-3.44 9-6.01 9v0c-1.09.01-1.99-.86-2.01-1.95 -.01-.02-.01-.04-.01-.06v-7.64 0c-.01-.89-.3-1.74-.83-2.44l-7.98-10.36v0c-.76-.99-1.93-1.57-3.18-1.57h-4.04v0c-1.11 0-2-.9-2-2v-16 0c-.01-1.11.89-2.01 1.99-2.01 0-.01 0-.01 0-.01Z" />
</svg>