<svg xmlns="http://www.w3.org/2000/svg" viewBox="0 0 64 64">
  <path fill-rule="evenodd" d="M12 30.02h4.03v0c1.24 0 2.41-.58 3.17-1.57l7.97-10.36v0c.53-.7.82-1.56.83-2.44V8.01v0c-.02-1.09.85-1.99 1.94-2.01 .01-.01.03-.01.05 0 2.56 0 6 3 6 9v0c.13 3.5-.43 6.99-1.65 10.27v0c-.12.25-.02.55.23.67 .06.03.13.04.2.04H47.8v0c2.01-.04 3.76 1.4 4.11 3.39v0c.25 1.66-.57 3.31-2.06 4.1h0c1.93 1.03 2.66 3.43 1.63 5.37 -.48.88-1.26 1.55-2.21 1.88h-.001c.72.51 1.25 1.25 1.5 2.11v-.001c.25.96.14 1.99-.33 2.88v0c-.54 1.25-1.74 2.1-3.11 2.18h-.001c.42.69.63 1.5.57 2.32V50.2c-.23 2.15-2.07 3.77-4.23 3.73H28.73h-.001c-3.16 0-6.25-.94-8.88-2.69l-.97-.65v0c-.66-.44-1.43-.68-2.22-.68h-4.79v0c-1.11 0-2.01-.9-2.01-2 -.01-.01-.01-.01-.01-.01v-16 0c-.01-1.11.89-2.01 1.99-2.01 0-.01 0-.01 0-.01Z" />
</svg>