<svg xmlns="http://www.w3.org/2000/svg" viewBox="0 0 64 64">
  <path fill-rule="evenodd" d="M29.02 38.02v-4.99 0c-.02-.57-.48-1.02-1.05-1.01 -.21 0-.41.06-.58.18l-9.98 6.98v0c-.46.31-.57.94-.25 1.39 .06.09.15.17.24.24l9.97 6.98v0c.46.32 1.1.22 1.43-.25 .12-.17.18-.37.18-.58v-5h23.58 0c.41 0 .75.34.74.75 -.01.12-.04.24-.1.35v0C47.07 54.8 32.58 59.35 20.83 53.22 12.9 49.08 7.93 40.88 7.94 31.94v0c0-1.7.19-3.39.55-5.04v0c.13-.57.63-.97 1.22-.97h25.21v4.98h-.001c0 .56.47 1.01 1.04 1 .2-.01.4-.07.57-.19l9.97-6.99v0c.45-.32.56-.95.24-1.4 -.07-.1-.15-.18-.25-.25l-9.98-6.99v0c-.47-.33-1.11-.23-1.44.24 -.13.16-.19.37-.19.57v4.99H11.29v0c-.42-.01-.76-.35-.76-.76 0-.13.03-.25.09-.36l-.001-.001c6.12-11.75 20.61-16.3 32.36-10.17 7.92 4.13 12.89 12.33 12.88 21.27v0c-.01 1.69-.2 3.38-.56 5.03v0c-.14.56-.64.96-1.23.96Z" />
</svg>