<svg xmlns="http://www.w3.org/2000/svg" viewBox="0 0 32 32">
  <path  fill-rule="evenodd" d="M55.41 27.4l-4.61 4.61 4.57 4.58 0 0c.78.77.78 2.04 0 2.82 -.78.78-2.05.78-2.83 0l-4.58-4.59 -4.58 4.58 0-.01c-.79.77-2.05.77-2.83-.01 -.78-.79-.78-2.05 0-2.82l4.57-4.59 -4.61-4.62 -.01-.01c-.79-.78-.79-2.05-.01-2.83 .77-.79 2.04-.79 2.82-.01l4.6 4.61 4.6-4.62 -.01 0c.78-.78 2.05-.77 2.82.01 .76.77.76 2.03-.01 2.8ZM39.78 52.01H7.17L7.16 52c-.68-.02-1.22-.57-1.2-1.24 0-.04 0-.08 0-.12 .53-5.56 6.19-11.66 17.49-11.66 11.3 0 16.96 6.1 17.49 11.66l-.01-.01c.07.66-.42 1.27-1.08 1.34 -.04 0-.08 0-.12 0ZM23.47 36c-5.61 0-10.51-4.77-10.51-12.43 0-6.6 4.24-11.57 10.51-11.57 6.26 0 10.51 4.97 10.51 11.56 -.01 7.66-4.91 12.42-10.51 12.42Z" transform="scale(0.5,0.5)"/>
</svg>