<svg xmlns="http://www.w3.org/2000/svg" viewBox="0 0 64 64">
  <path fill-rule="evenodd" d="M15.01 49.68V32.34v0c-.09-2.3 1.7-4.24 4-4.34h1V16.99c0-4.04.84-6.38 2.72-8.262 1.88-1.89 4.22-2.73 8.25-2.73H33c4.02 0 6.37.84 8.25 2.73 1.88 1.88 2.72 4.23 2.72 8.262v3 0 0c0 1.1-.9 2-2 2 -1.11 0-2-.9-2-2v0 -3.01c0-2.57-.54-4.06-1.74-5.26 -1.2-1.2-2.7-1.74-5.26-1.74h-2.02c-2.564 0-4.06.53-5.26 1.73 -1.2 1.19-1.74 2.69-1.74 5.25v11h21v0c2.29.09 4.08 2.03 4 4.33v17.33 -.001c.08 2.29-1.71 4.23-4 4.33h-26v0c-2.3-.1-4.09-2.04-4-4.34Z" />
</svg>