<svg xmlns="http://www.w3.org/2000/svg" viewBox="0 0 64 64">
  <path fill-rule="evenodd" d="M6 21.99v0c0-.54.43-.97.96-.97 .25 0 .5.1.68.28l25.05 25.05v0c.37.37.37.97-.01 1.35 -.18.17-.43.27-.68.27H11.97v0c-3.32 0-6.01-2.69-6.01-6Zm50.77-3.85v-.001c.74.3 1.23 1.03 1.23 1.84v24h-.001c0 1.1-.9 2-2 2 -.54 0-1.05-.22-1.42-.59l-10.01-10.01 -.001 0c-.38-.38-.59-.89-.59-1.42v-4h0c0-.54.21-1.04.58-1.42l10-10.01v0c.57-.58 1.43-.75 2.18-.44Zm-20.771-2.16v0c3.31-.01 6 2.68 6 6 0 0 0 0 0 0v20 .04 0c-.02.53-.46.95-1 .94 -.25-.01-.49-.11-.67-.29L15.24 17.59h0c-.38-.38-.38-.98-.01-1.36 .17-.18.42-.29.67-.29ZM5.38 10.56l40.01 40.01v0c.78.78.78 2.04-.01 2.82 -.79.78-2.05.78-2.83-.01 -.01-.01-.01-.01-.01-.01L2.52 13.35h0c-.79-.79-.79-2.05 0-2.83 .78-.79 2.04-.79 2.82 0Z" />
</svg>