<svg xmlns="http://www.w3.org/2000/svg" viewBox="0 0 64 64">
  <path fill-rule="evenodd" d="M48.69 41.74v0c-.4.34-1 .32-1.37-.05l-4.79-4.79h-.001c-.28-.28-.37-.7-.23-1.06h0c2.12-5.69-.77-12.02-6.45-14.14 -2.48-.93-5.21-.93-7.69-.01l0-.001c-.37.13-.78.04-1.06-.23l-3.2-3.2v0c-.25-.25-.25-.64-.01-.89 .06-.07.15-.13.24-.16l0-.001c2.52-.83 5.16-1.25 7.82-1.24 14.67 0 21.95 11.66 23.77 15.07v0c.3.57.3 1.26 0 1.84v0c-1.82 3.33-4.22 6.31-7.09 8.8ZM13.43 10.6l39.99 40.01v-.001c.78.78.78 2.04 0 2.82 -.79.78-2.05.78-2.83 0 0 0-.01-.01-.01-.01l-40-40.02v0c-.79-.79-.79-2.05-.01-2.83 .78-.79 2.04-.79 2.82-.01Zm3.24 11.72l4.8 4.8v0c.27.27.36.68.22 1.05l0-.001c-2.12 5.69.79 12.01 6.48 14.12 2.46.91 5.17.91 7.64 0v0c.36-.14.77-.05 1.05.22l3.18 3.18v0c.24.24.24.63 0 .88 -.07.06-.16.12-.25.15l0-.001c-2.53.82-5.17 1.23-7.83 1.23 -14.67 0-21.96-11.67-23.77-15.08h0c-.31-.58-.31-1.27-.001-1.85l0-.001c1.81-3.34 4.21-6.32 7.07-8.81h-.001c.39-.35.99-.33 1.36.04Z" />
</svg>