<svg xmlns="http://www.w3.org/2000/svg" viewBox="0 0 64 64">
  <path fill-rule="evenodd" d="M44.549 50.35v-.001c-.74-.82-.68-2.08.14-2.81 0-.01.01-.02.01-.02v-.001c8.56-7.07 9.78-19.73 2.72-28.3 -.82-1-1.74-1.91-2.73-2.73v0c-.83-.73-.91-1.99-.18-2.81 0-.01.01-.02.01-.02v0c.74-.81 1.98-.88 2.81-.16l0-.001c10.21 8.53 11.57 23.73 3.03 33.94 -.92 1.1-1.94 2.11-3.04 3.03l0 0c-.83.71-2.08.64-2.82-.16Zm-4.53-4.58h-.001c-.96.53-2.17.22-2.74-.71v0c-.57-.93-.28-2.15.64-2.72 .01-.02.03-.03.05-.04v0c5.68-3.21 7.69-10.43 4.49-16.11 -1.06-1.88-2.62-3.44-4.5-4.5v0c-.95-.54-1.28-1.75-.74-2.69 .01-.02.02-.04.03-.06v0c.57-.94 1.78-1.25 2.73-.71v0c7.59 4.33 10.23 14.01 5.89 21.6 -1.41 2.45-3.45 4.49-5.9 5.89ZM8.003 26.02v0c0-1.66 1.34-3.01 3-3h5.5l-.001-.001c1.06 0 2.07-.43 2.82-1.18l8.25-8.25v0c.78-.79 2.04-.79 2.83 0 .37.37.58.88.58 1.41v33.99 0c-.01 1.1-.9 2-2.01 2 -.54-.01-1.04-.22-1.42-.59l-8.25-8.24h-.001c-.76-.75-1.77-1.18-2.83-1.18h-5.51v0c-1.66 0-3.01-1.35-3.01-3Z" />
</svg>