<svg xmlns="http://www.w3.org/2000/svg" viewBox="0 0 64 64">
  <path fill-rule="evenodd" d="M39 15.01v16.07 0c-.01.52-.43.94-.95.94 -.26-.01-.49-.1-.67-.28l-8.96-8.95v0c-.58-.58-.58-1.5-.01-2.07 0-.01 0-.01 0-.01l7.15-7.14 -.001 0c.78-.79 2.05-.79 2.83 0 .37.37.58.88.58 1.41Zm-20.17 9.51l18.988 18.97v0c.75.74 1.17 1.76 1.17 2.82v2.66l0 0c-.01 1.1-.9 2-2.01 2 -.53-.01-1.04-.22-1.42-.59l-8.25-8.24v0c-.76-.75-1.77-1.18-2.84-1.17h-5.52 0c-1.66 0-3.01-1.35-3.01-3v-12 0c-.01-.31.04-.61.13-.9h-.001c.3-.86 1.24-1.3 2.09-.99 .23.08.44.22.61.39Zm-8.28-13.933h0c.78-.79 2.04-.79 2.83 0l40.03 40v0c.78.78.78 2.04-.01 2.82 -.79.78-2.05.78-2.83-.01L10.53 13.39v0c-.79-.79-.79-2.05-.01-2.83 0-.01 0-.01 0-.01Z" />
</svg>