<svg xmlns="http://www.w3.org/2000/svg" viewBox="0 0 64 64">
  <path fill-rule="evenodd" d="M48.48 31.96h-5.89l0-.001c-1.49-.01-2.9-.7-3.81-1.87h-.001c-.42-.52-.8-1.06-1.15-1.62v0c-.06-.08-.17-.09-.25-.04 -.03.01-.05.04-.06.06l-2.62 6.02v0c-.03.06-.02.14.03.2l5.96 5.82v0c1.03 1.01 1.64 2.38 1.71 3.82l.59 9.33v0c.02 1.23-.96 2.25-2.2 2.28 -1.12.02-2.08-.79-2.26-1.89l-1.1-8.5v0c-.03-.19-.12-.36-.27-.47l-5.87-4.67v-.001c-.08-.06-.19-.05-.25.02 -.01.01-.02.02-.03.03l-2.28 4.9v0c-.51 1.09-1.18 2.09-2 2.97 -.82.87-4.72 5.436-5.11 5.85h0c-.45.45-1.07.69-1.7.66h-.001c-1.15-.02-2.07-.96-2.06-2.1v0c-.01-.49.16-.96.45-1.34 .29-.38 4.81-6.54 4.93-6.68h0c.11-.15.19-.33.21-.51l.85-5.89h-.001c.32-2.28.99-4.49 1.97-6.57l3.25-6.91v0c.04-.09 0-.2-.09-.24 -.03-.02-.07-.03-.1-.02 -.14.01-6.07.35-6.31.38v0c-.24.02-.43.21-.46.45 0 0-.72 5.35-.82 6.1h-.001c-.1.81-.83 1.39-1.65 1.3 -.77-.09-1.34-.75-1.32-1.52v-6.51 0c-.02-1.96 1.3-3.67 3.19-4.15 1.87-.47 7.18-1.43 7.78-1.58h0c1.79-.45 3.69-.23 5.34.62l2.38 1.221v0c.99.51 1.82 1.31 2.36 2.3 .54.99 2.03 3.85 2.13 4.03v-.001c.09.18.27.31.48.35l6.08 1.13h0c.84.17 1.38.99 1.21 1.83 -.15.71-.77 1.22-1.49 1.24ZM37.99 17.99v0c-2.77-.01-5.01-2.25-5-5.02 0-2.77 2.24-5.01 5.01-5 2.76 0 5 2.24 5 5v0c-.01 2.76-2.25 5-5.02 5Z" />
</svg>