<svg xmlns="http://www.w3.org/2000/svg" viewBox="0 0 64 64">
  <path fill-rule="evenodd" d="M54.59 27.43v0c-.75.74-1.95.78-2.73.08v0c-11.34-10-28.35-10-39.68 0h-.001c-.79.69-1.99.66-2.73-.09L6.6 24.59v0c-.79-.79-.79-2.06-.01-2.84 .02-.03.05-.06.07-.08l0 0C21.08 8.78 42.88 8.78 57.3 21.66v0c.82.73.89 2 .15 2.83 -.03.02-.05.05-.08.07ZM36.95 41.326h-.001c1 .56 1.35 1.83.79 2.84 -.1.16-.22.32-.35.45l-3.7 3.66h0c-.95.93-2.47.93-3.41 0l-3.7-3.67v0c-.82-.82-.83-2.14-.02-2.95 .13-.14.28-.26.45-.35h0c3.07-1.74 6.83-1.74 9.9 0Zm-14.86-3.8h0c-.84.69-2.06.63-2.83-.13l-2.39-2.41c-1.18-1.19-1.14-2.64-.2-3.43v0c8.84-7.42 21.73-7.42 30.58 0v-.001c.88.77.98 2.11.21 3 -.04.03-.07.07-.11.11l-2.69 2.71v0c-.77.76-2 .82-2.84.13h0c-5.76-4.7-14.02-4.7-19.77-.001Z" />
</svg>