<svg xmlns="http://www.w3.org/2000/svg" viewBox="0 0 64 64">
  <path fill-rule="evenodd" d="M50.99 54h-38v0c-2.77 0-5-2.24-5-5V15v0c0-2.77 2.23-5 5-5h38v0c2.76 0 5 2.23 5 5v34 0c0 2.76-2.24 5-5 5Zm-36-40v0c-1.66 0-3 1.34-3 3 0 1.65 1.34 3 3 3 1.65 0 3-1.35 3-3v0c-.01-1.66-1.35-3-3-3Zm10 0v0c-1.66 0-3 1.34-3 3 0 1.65 1.34 3 3 3 1.65 0 3-1.35 3-3v0c-.01-1.66-1.35-3-3-3Zm10 0v0c-1.66 0-3 1.34-3 3 0 1.65 1.34 3 3 3 1.65 0 3-1.35 3-3v0c-.01-1.66-1.35-3-3-3Zm17 11v0c0-.56-.45-1-1-1h-38v0c-.56 0-1 .44-1 1v24 0c0 .55.44 1 1 1h38v0c.55 0 1-.45 1-1Z" />
</svg>