<svg xmlns="http://www.w3.org/2000/svg" viewBox="0 0 64 64">
  <path fill-rule="evenodd" d="M12.14 43.18h0c-2.58 2.23-2.86 6.12-.63 8.7 2.23 2.57 6.12 2.85 8.7.62 .22-.2.43-.41.62-.64l14.25-16.51h0c.28-.33.74-.43 1.14-.27h-.001c2.22.88 4.64 1.12 7 .71v0c5.15-.94 9.25-4.85 10.42-9.96h0c.34-1.52.41-3.08.19-4.61v0c-.08-.55-.59-.94-1.14-.86 -.22.03-.43.13-.58.29l-6.76 6.9v0c-.26.25-.63.35-.97.26l-6-1.58v0c-.35-.1-.63-.37-.72-.72l-1.58-6 -.001 0c-.1-.35.01-.72.26-.97l6.9-6.76v-.001c.39-.39.4-1.03.01-1.42 -.16-.16-.36-.27-.58-.3v0c-1.54-.22-3.11-.15-4.62.19v-.001c-5.11 1.16-9.03 5.27-9.96 10.42v-.001c-.42 2.35-.17 4.77.71 6.99v0c.16.39.06.85-.27 1.14 -2.42 2.08-12.15 10.48-16.51 14.25ZM16 51.02v0c-1.66 0-3-1.35-3-3 -.01-1.66 1.34-3 2.99-3 1.65-.01 2.99 1.34 2.99 2.99 0 0 0 0 0 0v0c0 1.65-1.35 2.99-3 2.99 -.01 0-.01 0-.01 0Z" />
</svg>