<svg xmlns="http://www.w3.org/2000/svg" height="64" width="64" viewBox="171 596 20 20">
  <g style="fill: #ffffff;" id="copy-id" data-label="CA-9">
    <g id="g22461" style="fill:#ffffff">
      <path id="path22413" d="m 175.5,599 c -0.82235,0 -1.5,0.67765 -1.5,1.5 v 6 c 0,0.64672 0.42101,1.19773 1,1.40625 V 606.5 v -3 -3 c 0,-0.28564 0.21436,-0.5 0.5,-0.5 h 9 c 0.28564,0 0.5,0.21436 0.5,0.5 v 1.5 h 1 v -1.5 c 0,-0.82235 -0.67765,-1.5 -1.5,-1.5 z" style="opacity: 0.6; fill: #ffffff; stroke-linejoin: round;"></path>
      <path id="rect22415" transform="translate(0,-50)" d="m 177.5,653 c -0.82235,0 -1.5,0.67765 -1.5,1.5 v 6 c 0,0.82235 0.67765,1.5 1.5,1.5 h 9 c 0.82235,0 1.5,-0.67765 1.5,-1.5 v -6 c 0,-0.82235 -0.67765,-1.5 -1.5,-1.5 z m 2.00391,2 c 0.1882,0.002 0.35956,0.10882 0.44336,0.27734 l 2,4 c 0.16517,0.33222 -0.0763,0.72229 -0.44727,0.72266 h -4 c -0.37097,-3.7e-4 -0.61244,-0.39044 -0.44727,-0.72266 l 2,-4 c 0.0851,-0.17104 0.26016,-0.27834 0.45118,-0.27734 z m 3.99609,0 h 3 a 0.50005,0.50005 0 1 1 0,1 h -3 a 0.50005,0.50005 0 1 1 0,-1 z m 0,2 h 3 a 0.50005,0.50005 0 1 1 0,1 h -3 a 0.50005,0.50005 0 1 1 0,-1 z m 0,2 h 2 a 0.50005,0.50005 0 1 1 0,1 h -2 a 0.50005,0.50005 0 1 1 0,-1 z" style="fill: #ffffff; stroke-linejoin: round;"></path>
    </g>
  </g>
</svg>