<svg xmlns="http://www.w3.org/2000/svg" height="64" width="64" viewBox="507 218 20 20">
  <g transform="matrix(-1,0,0,1,970.039,-190)" id="eye-open" style="fill: #ffffff;" data-label="K-25">
    <path style="fill: #ffffff; stroke-linecap: round; stroke-linejoin: round;" d="m 516.5,223 c -3.27784,-9.4e-4 -5.036,2.7211 -6.36328,4.16211 -0.17644,0.19146 -0.17644,0.48627 0,0.67773 1.32749,1.44124 3.08593,4.16011 6.36328,4.16211 3.27801,0.002 5.03607,-2.72118 6.36328,-4.16211 0.17644,-0.19146 0.17644,-0.48627 0,-0.67773 C 521.53587,225.72096 519.77754,223.00094 516.5,223 Z m 0,1 a 3.4999952,3.4999933 0 0 1 3.5,3.5 3.4999952,3.4999933 0 0 1 -3.5,3.5 3.4999952,3.4999933 0 0 1 -3.5,-3.5 3.4999952,3.4999933 0 0 1 3.5,-3.5 z m 0,2 a 1.4999952,1.4999944 0 0 0 -1.5,1.5 1.4999952,1.4999944 0 0 0 1.5,1.5 1.4999952,1.4999944 0 0 0 1.5,-1.5 1.4999952,1.4999944 0 0 0 -1.5,-1.5 z" transform="matrix(-1,0,0,1,970.039,190)" id="path19890"></path>
  </g>
</svg>