<svg xmlns="http://www.w3.org/2000/svg" height="64" width="64" viewBox="87 344 20 20">
  <g style="fill: #ffffff;" id="force-harmonic" transform="translate(-126,21)" data-label="Q-5">
    <path style="fill: #ffffff; stroke-width: 1.1; stroke-linecap: round; stroke-linejoin: round;" d="m 219.77539,326 c -0.5582,0 -1.07768,0.24943 -1.49219,0.64258 -0.41451,0.39314 -0.75014,0.92623 -1.04101,1.57422 -0.58174,1.29596 -0.98621,3.07228 -1.23828,5.21484 a 0.55005495,0.55005495 0 1 0 1.09179,0.12891 c 0.24409,-2.07475 0.64639,-3.77175 1.15039,-4.89453 0.252,-0.5614 0.52906,-0.97431 0.79297,-1.22461 0.26391,-0.25031 0.48846,-0.3418 0.73633,-0.3418 0.24788,0 0.46416,0.0907 0.7207,0.33398 0.25655,0.24329 0.52547,0.64294 0.77149,1.17579 0.49204,1.06569 0.89452,2.64518 1.18945,4.47851 0.3037,1.88782 0.70794,3.53465 1.27539,4.76367 0.28373,0.61451 0.60805,1.12901 1.01367,1.51367 0.40563,0.38466 0.92032,0.63477 1.47852,0.63477 1.08819,0 1.93098,-0.8296 2.51953,-1.97266 0.58855,-1.14305 0.99634,-2.67751 1.25,-4.45312 a 0.55005495,0.55005495 0 1 0 -1.08789,-0.15625 c -0.2425,1.69747 -0.64149,3.13986 -1.13867,4.10547 -0.49719,0.9656 -1.01901,1.37695 -1.54297,1.37695 -0.24788,0 -0.46416,-0.0907 -0.7207,-0.33398 -0.25655,-0.24329 -0.52547,-0.64294 -0.77149,-1.17579 -0.49204,-1.06569 -0.89451,-2.64518 -1.18945,-4.47851 -0.30369,-1.88783 -0.70794,-3.53465 -1.27539,-4.76367 -0.28373,-0.61451 -0.60805,-1.12901 -1.01367,-1.51367 C 220.84828,326.25011 220.33359,326 219.77539,326 Z" id="use22627"></path>
    <path style="opacity: 0.6; fill: #ffffff; fill-rule: evenodd; stroke-linecap: round;" d="m 218.75,333 a 0.50005,0.50005 0 1 0 0,1 h 2 a 0.50005,0.50005 0 1 0 0,-1 z m 6.5,0 a 0.50005,0.50005 0 1 0 0,1 h 2 a 0.50005,0.50005 0 1 0 0,-1 z" id="rect42619-7-8"></path>
  </g>
</svg>