<svg xmlns="http://www.w3.org/2000/svg" height="64" width="64" viewBox="486 92 20 20">
  <g id="home" style="" data-label="E-24">
    <path id="path28780" d="m 495.98438,95 c -0.25978,0.004 -0.50774,0.10921 -0.69141,0.29297 l -6,6 C 489.08739,101.49869 488.99817,101.75204 489,102 v 0.5 c 3e-5,0.27613 0.22387,0.49997 0.5,0.5 h 0.5 v 5.5 c 3e-5,0.27613 0.22387,0.49997 0.5,0.5 h 3.5 v -5.5 c 3e-5,-0.27613 0.22387,-0.49997 0.5,-0.5 h 3 c 0.27613,3e-5 0.49997,0.22387 0.5,0.5 v 5.5 h 3.5 c 0.27613,-3e-5 0.49997,-0.22387 0.5,-0.5 V 103 h 0.5 c 0.27613,-3e-5 0.49997,-0.22387 0.5,-0.5 V 102 c 0.004,-0.25043 -0.0852,-0.49916 -0.29297,-0.70703 l -6,-6 C 496.51571,95.10156 496.25496,94.99586 495.98438,95 Z" style="fill: #ffffff; stroke-linejoin: round;"></path>
  </g>
</svg>