<svg xmlns="http://www.w3.org/2000/svg" height="64" width="64" viewBox="66 92 20 20">
  <g transform="translate(-0.389343,-189.06)" style="" id="outliner-ob-pointcloud" data-label="E-4">
    <path id="circle13367-9" d="m 71.893099,283.6795 c 1.650931,0 3.000001,1.34907 3.000001,3 0,1.65093 -1.34907,3 -3.000001,3 -1.65093,0 -3,-1.34907 -3,-3 0,-1.65093 1.34907,-3 3,-3 z" style="fill: #ffffff; stroke-linecap: round; stroke-linejoin: round;"></path>
    <path id="circle13367-9-6" d="m 80.620438,287.72696 c 1.65093,0 3,1.34907 3,3 0,1.65093 -1.34907,3 -3,3 -1.65093,0 -3,-1.34907 -3,-3 0,-1.65093 1.34907,-3 3,-3 z" style="fill: #ffffff; stroke-linecap: round; stroke-linejoin: round;"></path>
    <path id="circle13367-9-6-6" d="m 73.284414,291.52146 c 1.650931,0 3.000001,1.34907 3.000001,3 0,1.65093 -1.34907,3 -3.000001,3 -1.65093,0 -3,-1.34907 -3,-3 0,-1.65093 1.34907,-3 3,-3 z" style="fill: #ffffff; stroke-linecap: round; stroke-linejoin: round;"></path>
  </g>
</svg>