<svg xmlns="http://www.w3.org/2000/svg" height="64" width="64" viewBox="87 92 20 20">
  <g transform="translate(-0.389343,-189.06)" style="" id="outliner-data-pointcloud" data-label="E-5">
    <path id="circle14295-0" d="m 92.893099,283.6795 c 1.65093,0 3,1.34907 3,3 0,1.65093 -1.34907,3 -3,3 -1.65093,0 -3,-1.34907 -3,-3 0,-1.65093 1.34907,-3 3,-3 z m 0,1 c -1.11049,0 -2,0.88951 -2,2 0,1.11049 0.88951,2 2,2 1.11049,0 2,-0.88951 2,-2 0,-1.11049 -0.88951,-2 -2,-2 z" style="fill: #ffffff; stroke-linecap: round; stroke-linejoin: round;"></path>
    <path id="circle14295-0-3" d="m 101.62043,287.72696 c 1.65093,0 3,1.34907 3,3 0,1.65093 -1.34907,3 -3,3 -1.65092,0 -2.999992,-1.34907 -2.999992,-3 0,-1.65093 1.349072,-3 2.999992,-3 z m 0,1 c -1.11049,0 -1.999992,0.88951 -1.999992,2 0,1.11049 0.889502,2 1.999992,2 1.11049,0 2,-0.88951 2,-2 0,-1.11049 -0.88951,-2 -2,-2 z" style="fill: #ffffff; stroke-linecap: round; stroke-linejoin: round;"></path>
    <path id="circle14295-0-3-0" d="m 94.284412,291.52146 c 1.65093,0 3,1.34907 3,3 0,1.65093 -1.34907,3 -3,3 -1.65093,0 -2.999998,-1.34907 -2.999998,-3 0,-1.65093 1.349068,-3 2.999998,-3 z m 0,1 c -1.11049,0 -1.999998,0.88951 -1.999998,2 0,1.11049 0.889508,2 1.999998,2 1.11049,0 2,-0.88951 2,-2 0,-1.11049 -0.88951,-2 -2,-2 z" style="fill: #ffffff; stroke-linecap: round; stroke-linejoin: round;"></path>
  </g>
</svg>