<svg xmlns="http://www.w3.org/2000/svg" height="64" width="64" viewBox="528 428 20 20">
  <g id="restrict-instanced-off" style="" transform="matrix(1,0,0,-1,0,876)" data-label="U-26">
    <path id="path19349-4" style="fill: #ffffff; stroke-width: 2; stroke-linecap: round; stroke-linejoin: round;" d="m 534.23047,436.74023 a 1.0001,1.0001 0 0 0 -0.6875,0.30274 l -1.47656,1.47656 c -0.71563,0.66862 -1.1007,1.61087 -1.04883,2.55664 0.0519,0.94577 0.50998,1.86545 1.27539,2.63086 0.76642,0.76642 1.68942,1.21503 2.6289,1.25977 0.93949,0.0447 1.85838,-0.33299 2.53516,-1.00977 l 1.5,-1.5 a 1.0001,1.0001 0 1 0 -1.41406,-1.41406 l -1.5,1.5 c -0.32323,0.32322 -0.65433,0.4455 -1.02735,0.42773 -0.37301,-0.0178 -0.82501,-0.19415 -1.30859,-0.67773 -0.48459,-0.48459 -0.6709,-0.9542 -0.69141,-1.32813 -0.0205,-0.37392 0.0941,-0.68177 0.41797,-0.98437 a 1.0001,1.0001 0 0 0 0.0234,-0.0234 l 1.5,-1.5 a 1.0001,1.0001 0 0 0 -0.72656,-1.7168 z m 6.84765,-5.70703 c -0.93948,-0.0447 -1.85838,0.33299 -2.53515,1.00977 l -1.5,1.5 a 1.0001,1.0001 0 1 0 1.41406,1.41406 l 1.5,-1.5 c 0.32322,-0.32322 0.65433,-0.4455 1.02734,-0.42773 0.37302,0.0178 0.82502,0.19415 1.3086,0.67773 0.48459,0.48459 0.6709,0.9542 0.6914,1.32813 0.0205,0.37392 -0.0941,0.68177 -0.41796,0.98437 a 1.0001,1.0001 0 0 0 -0.0234,0.0234 l -1.5,1.5 a 1.0001,1.0001 0 1 0 1.41406,1.41406 l 1.47656,-1.47656 c 0.71562,-0.66862 1.1007,-1.61087 1.04883,-2.55664 -0.0519,-0.94577 -0.50998,-1.86545 -1.27539,-2.63086 -0.76642,-0.76642 -1.68942,-1.21503 -2.62891,-1.25977 z m -1.09765,3.95703 a 1.0001,1.0001 0 0 0 -0.6875,0.30274 l -4,4 a 1.0001,1.0001 0 1 0 1.41406,1.41406 l 4,-4 a 1.0001,1.0001 0 0 0 -0.72656,-1.7168 z" transform="matrix(1,0,0,-1,0,876)"></path>
  </g>
</svg>