<svg xmlns="http://www.w3.org/2000/svg" style="background: #808080" height="64" width="64" viewBox="203 8 20 20">
  <g style="fill: #ffffff;" id="g13454" transform="translate(41.999998,-20.999995)" data-label="A-11">
    <path style="color: rgb(0, 0, 0); fill: #ffffff; stroke-linecap: round; stroke-linejoin: round; marker: none;" d="m 174.5,32 a 0.50005,0.50005 0 0 0 -0.5,0.5 v 13 a 0.50005,0.50005 0 0 0 0.5,0.5 h 13 a 0.50005,0.50005 0 0 0 0.5,-0.5 v -13 A 0.50005,0.50005 0 0 0 187.5,32 Z m 0.5,1 h 12 v 12 h -12 z" id="path13377"></path>
    <path style="color: rgb(0, 0, 0); fill: #ffffff; stroke-linecap: round; stroke-linejoin: round; marker: none;" d="M 174.58789,32.005859 C 174.30358,31.956646 174.00013,32.166007 174,32.5 v 13 c 3e-5,0.276131 0.22387,0.499972 0.5,0.5 h 13 c 0.44532,-1.7e-4 0.6683,-0.538517 0.35352,-0.853516 l -13,-13 c -0.0788,-0.0787 -0.17086,-0.12422 -0.26563,-0.140625 z M 178.49609,38 c 0.191,-10e-4 0.36608,0.106304 0.45118,0.277344 l 3,6 C 182.11247,44.609574 181.8713,44.99965 181.5,45 h -6 c -0.371,-3.5e-4 -0.61247,-0.390426 -0.44727,-0.722656 l 3,-6 c 0.084,-0.16853 0.25516,-0.275714 0.44336,-0.277344 z" id="path13379"></path>
    <path style="color: rgb(0, 0, 0); opacity: 0.3; fill: #ffffff; stroke-linecap: round; stroke-linejoin: round;" d="m 178.50391,37.999995 c -0.19102,-0.0013 -0.36611,0.106306 -0.45118,0.277344 l -3,6 c -0.16516,0.332221 0.0763,0.722286 0.44727,0.722656 h 6 c 0.37101,-3.7e-4 0.61243,-0.390435 0.44727,-0.722656 l -3,-6 c -0.0838,-0.168518 -0.25516,-0.2757 -0.44336,-0.277344 z" id="path13331-5"></path>
    <path style="color: rgb(0, 0, 0); opacity: 0.99; fill: #ffffff; stroke-linecap: round; stroke-linejoin: round; marker: none;" d="m 184.5,35 c 0.82251,0 1.5,0.677494 1.5,1.5 0,0.822506 -0.67749,1.5 -1.5,1.5 -0.82251,0 -1.5,-0.677494 -1.5,-1.5 0,-0.822506 0.67749,-1.5 1.5,-1.5 z" id="ellipse13420"></path>
  </g>
</svg>