<svg xmlns="http://www.w3.org/2000/svg" height="64" width="64" viewBox="444 8 20 20">
  <g id="g30738" data-label="A-22">
    <path id="path15369" d="m 449.75,12.000004 a 0.50005006,0.50005006 0 0 0 -0.4824,0.36914 l -3.25,12.000001 a 0.50005006,0.50005006 0 0 0 0.4824,0.63086 h 15 a 0.50005006,0.50005006 0 0 0 0.4824,-0.63086 l -3.25,-12.000001 a 0.50005006,0.50005006 0 0 0 -0.4824,-0.36914 z m 0.3828,1 h 2.086 l -0.2169,2 h -2.4121 z m 3.0938,0 h 1.5468 l 0.2168,2 h -1.9804 z m 2.5547,0 h 2.0859 l 0.541,2 h -2.4101 z m -6.461,3 h 2.5723 l -0.3262,3 h -3.0586 z m 3.5801,0 h 2.1992 l 0.3262,3 h -2.8516 z m 3.207,0 h 2.5723 l 0.8125,3 h -3.0586 z m -7.8711,4.000001 h 3.2207 l -0.4336,4 h -3.8711 z m 4.2305,0 h 3.0664 l 0.4356,4 h -3.9375 z m 4.0762,0 h 3.2207 l 1.084,4 h -3.8711 z" style="color: rgb(0, 0, 0); fill: #ffffff; stroke-linecap: round; stroke-linejoin: round; stroke-dashoffset: 0.5;"></path>
  </g>
</svg>