<svg xmlns="http://www.w3.org/2000/svg" height="64" width="64" viewBox="465 8 20 20">
  <g id="g30735" data-label="A-23">
    <path style="fill: #ffffff; stroke-linecap: round; stroke-linejoin: round; stroke-dashoffset: 0.5;" d="m 467.5,10.000005 a 0.50005006,0.50005006 0 0 0 -0.5,0.5 v 15 a 0.50005006,0.50005006 0 0 0 0.5,0.5 h 15 a 0.50005006,0.50005006 0 0 0 0.5,-0.5 v -15 a 0.50005006,0.50005006 0 0 0 -0.5,-0.5 z m 0.5,0.999999 h 4 v 4 h -4 z m 5,0 h 4 v 4 h -4 z m 5,0 h 4 v 4 h -4 z m -10,5 h 4 v 4.000001 h -4 z m 5,0 h 4 v 4.000001 h -4 z m 5,0 h 4 v 4.000001 h -4 z m -10,5.000001 h 4 v 4 h -4 z m 5,0 h 4 v 4 h -4 z m 5,0 h 4 v 4 h -4 z" id="rect15343"></path>
  </g>
</svg>