<svg xmlns="http://www.w3.org/2000/svg" style="background: #808080" height="64" width="64" viewBox="486 8 20 20">
  <g id="g30741" data-label="A-24">
    <path id="path15245-5-5" d="m 498.5,10 c -2.1397,0 -3.80728,1.4725 -4.33008,3.2441 C 493.52022,12.4964 492.6594,12 491.5,12 c -1.9271,0 -3.5,1.5729 -3.5,3.5 0,1.927 1.5729,3.5 3.5,3.5 h 7 c 2.4794,0 4.5,-2.0207 4.5,-4.5 0,-2.4794 -2.0206,-4.5 -4.5,-4.5 z m 0,3 c 0.8225,0 1.5,0.6774 1.5,1.5 0,0.8225 -0.6775,1.5 -1.5,1.5 -0.8225,0 -1.5,-0.6775 -1.5,-1.5 0,-0.8226 0.6775,-1.5 1.5,-1.5 z m -7,1 c 0.8225,0 1.5,0.6774 1.5,1.5 0,0.8225 -0.6775,1.5 -1.5,1.5 -0.8225,0 -1.5,-0.6775 -1.5,-1.5 0,-0.8226 0.6775,-1.5 1.5,-1.5 z m 7,0 c -0.2821,0 -0.5,0.2179 -0.5,0.5 0,0.282 0.2179,0.5 0.5,0.5 0.2821,0 0.5,-0.218 0.5,-0.5 0,-0.2821 -0.2179,-0.5 -0.5,-0.5 z m -7,1 c -0.2821,0 -0.5,0.2179 -0.5,0.5 0,0.282 0.2179,0.5 0.5,0.5 0.2821,0 0.5,-0.218 0.5,-0.5 0,-0.2821 -0.2179,-0.5 -0.5,-0.5 z m 1,5 c -0.2761,0 -0.5,0.2239 -0.5,0.5 v 1 0.5 h -1 v -0.5 c 0.004,-0.2823 -0.22555,-0.5122 -0.50781,-0.5078 -0.27615,0 -0.49651,0.2316 -0.49219,0.5078 v 1 1 c 0.009,0.6573 0.9907,0.6573 1,0 V 23 h 1 v 0.5 1 c 0,0.1326 0.053,0.2597 0.14648,0.3535 l 1,1 C 493.24048,25.9475 493.3674,26 493.5,26 h 5 c 0.2761,0 0.5,-0.2239 0.5,-0.5 v -5 c 0,-0.2761 -0.2239,-0.5 -0.5,-0.5 z m 10.98438,1 c -0.0871,0 -0.17191,0.028 -0.2461,0.074 l -3.25,2 c -0.31714,0.1953 -0.31714,0.6563 0,0.8516 l 3.25,2 c 0.33298,0.2045 0.76131,-0.035 0.76172,-0.4258 v -4 c 1.1e-4,-0.2823 -0.23341,-0.5088 -0.51562,-0.5 z" style="fill: #ffffff; stroke-linecap: round; stroke-linejoin: round; stroke-dashoffset: 0.5;"></path>
  </g>
</svg>