<svg xmlns="http://www.w3.org/2000/svg" style="background: #808080" height="64" width="64" viewBox="483 8 20 20">
  <g id="g30744" data-label="A-25">
    <path id="path22769" d="m 517.98438,9.9863345 c -0.55152,0.009 -0.99193,0.4621405 -0.98438,1.0136695 v 7 h -1.10156 l -0.91016,-6.14648 c -0.0643,-0.48249 -0.46671,-0.84859 -0.95312,-0.86719 -0.63083,-0.0229 -1.12488,0.53711 -1.02344,1.16015 L 514,18.816414 v 0.88671 1.296881 h -1 v -1.746091 l -2.58984,-1.16602 c -0.12175,-0.0548 -0.25324,-0.0847 -0.38672,-0.0879 -0.88449,-0.0197 -1.35703,1.03438 -0.75391,1.68164 l 3.5,3.750001 c 1.45044,1.55404 3.38812,2.64316 5.12305,2.55469 2.20226,-0.16055 4.09501,-1.6226 4.80664,-3.71289 l 2.25586,-6.269531 c 0.1808,-0.48082 -0.16432,-0.99701 -0.67774,-1.01368 -0.32862,-0.0101 -0.62553,0.19494 -0.73242,0.50586 l -0.90039,2.50392 h -0.74023 l 1.07812,-5.81836 c 0.12593,-0.63116 -0.36843,-1.215229 -1.01172,-1.19531 -0.47506,0.0156 -0.8735,0.36343 -0.95312,0.83203 l -1.14453,6.18164 H 519 v -7 c 0.008,-0.563769 -0.45189,-1.0224695 -1.01562,-1.0136695 z" style="fill: #ffffff; stroke-linecap: round; stroke-linejoin: round; marker: none;"></path>
  </g>
</svg>