<svg xmlns="http://www.w3.org/2000/svg" style="background: #808080" height="64" width="64" viewBox="103 8 20 20">
  <g style="fill: #ffffff;" id="g14588" transform="translate(-42.000002,25.000005)" data-label="A-6">
    <path id="path14541" d="m 153.5,-9 c -0.27613,2.76e-5 -0.49997,0.2238691 -0.5,0.5 v 8 c 3e-5,0.27613094 0.22387,0.499972391047 0.5,0.5 h 8 c 0.27613,-2.7608953e-5 0.49997,-0.22386906 0.5,-0.5 v -8 c -3e-5,-0.2761309 -0.22387,-0.4999724 -0.5,-0.5 z m 6.5,1 c 0.54636,0 1,0.4536376 1,1 0,0.5463624 -0.45364,1 -1,1 -0.54636,0 -1,-0.4536376 -1,-1 0,-0.5463624 0.45364,-1 1,-1 z m -2.98047,1.75 c 0.17034,0.00643 0.32566,0.099184 0.41211,0.2460938 l 2.5,4.25 C 160.12825,-1.4202448 159.88728,-0.99936558 159.5,-1 h -5 c -0.38728,6.3442e-4 -0.62825,-0.4202448 -0.43164,-0.7539062 l 2.5,-4.25 c 0.0935,-0.1589489 0.26691,-0.2535338 0.45117,-0.2460938 z" style="color: rgb(0, 0, 0); fill: #ffffff; fill-rule: evenodd; stroke-linecap: round; stroke-linejoin: round;"></path>
    <g id="g14560" transform="translate(147)" style="fill:#ffffff">
      <path style="color: rgb(0, 0, 0); opacity: 0.6; fill: #ffffff; stroke-linecap: square; stroke-linejoin: round; marker: none;" d="m 10.5,-14 c -0.276131,2.8e-5 -0.499972,0.223869 -0.5,0.5 v 3 c 2.8e-5,0.276131 0.223869,0.499972 0.5,0.5 h 9 c 0.276131,-2.8e-5 0.499972,-0.223869 0.5,-0.5 v -3 c -2.8e-5,-0.276131 -0.223869,-0.499972 -0.5,-0.5 z m 0.5,1 h 8 v 2 h -8 z m 5,7 v 1 h 3 v 2 h -3 v 1 h 3.5 c 0.276131,-2.76e-5 0.499972,-0.2238691 0.5,-0.5 v -3 c -2.8e-5,-0.2761309 -0.223869,-0.4999724 -0.5,-0.5 z" id="path14558"></path>
    </g>
  </g>
</svg>