<svg xmlns="http://www.w3.org/2000/svg" style="background: #808080" height="64" width="64" viewBox="283 528 20 20">
  <g id="g9974-4-9" style="fill: #ffffff;" transform="translate(-84,21)" data-label="AA-15">
    <path id="path14003-8" transform="translate(84,-21)" d="M 308.06055,557 C 307.40848,557.63639 307,558.52103 307,559.5 c 0,1.5 0.75,2.5 2,3.14453 v 0.004 6.85156 c -0.0287,2.02848 3.02869,2.02848 3,0 v -6.85156 -0.002 c 1.28948,-0.66521 2,-1.64648 2,-3.14648 0,-0.97897 -0.40848,-1.86361 -1.06055,-2.5 H 312.91797 312 V 560 l -1,1 h -1 l -1,-1 2e-5,-3 z M 310,569 h 1 v 1 h -1 z" style="color: rgb(0, 0, 0); fill: #ffffff; stroke-width: 3; stroke-linecap: round;"></path>
    <path id="path14013-6" style="color: rgb(0, 0, 0); fill: #ffffff; stroke-width: 1px; stroke-linecap: round; stroke-linejoin: round; marker: none;" d="M 387.00001,542 387,536.5 c 0.004,-0.28226 -0.22555,-0.51223 -0.50781,-0.50781 -0.27614,0.004 -0.49651,0.23167 -0.49219,0.50781 l 10e-6,5.5 z m 0.75,2 H 388.5 c 0.67616,0.01 0.67616,-1.00956 0,-1 h -4 c -0.67616,-0.01 -0.67616,1.00956 0,1 h 0.75001 v 1 c -0.75,0 -1.25,0.5 -1.25,1.25 L 384,547.5 c -10e-6,0.78517 0.31169,1.44054 0.78516,1.86719 0.47346,0.42664 1.08725,0.63281 1.69726,0.63281 0.61001,0 1.22902,-0.20449 1.71094,-0.62891 0.48192,-0.42441 0.80663,-1.08156 0.80664,-1.87109 l 10e-6,-1.25 c 0,-0.75 -0.5,-1.25 -1.25,-1.25 z"></path>
  </g>
</svg>