<svg xmlns="http://www.w3.org/2000/svg" height="64" width="64" viewBox="255 554 20 20">
  <g style="fill: #ffffff;" id="g13069" transform="translate(-21,42)" data-label="AA-13">
    <path id="ellipse12909" d="m 290,517 h 2.5 c 0.27613,-3e-5 0.49997,-0.22387 0.5,-0.5 v -1 c -3e-5,-0.27613 -0.22387,-0.49997 -0.5,-0.5 h -2.91992 c -0.029,-0.005 -0.0584,-0.008 -0.0879,-0.008 -0.27614,0.004 -0.49651,0.23167 -0.49219,0.50781 v 1 5.64062 c -0.56586,-0.20756 -1.28645,-0.18129 -1.98242,0.0723 -1.35506,0.4963 -2.23747,1.69879 -1.9707,2.68555 0.26595,0.98712 1.58042,1.38505 2.93554,0.88867 1.22872,-0.45129 2.01759,-1.35494 2.01758,-2.53711 z" style="opacity: 0.99; fill: #ffffff; stroke-width: 0.755428px;"></path>
    <path style="color: rgb(0, 0, 0); opacity: 0.7; fill: #ffffff; stroke-linecap: round; stroke-linejoin: round;" d="m 283.51562,517 a 0.50005,0.50005 0 0 0 -0.22656,0.0566 c -1.99745,1.00305 -3.4683,2.88412 -4.03515,5.13477 -0.56686,2.25064 -0.17629,4.64784 1.07421,6.56836 a 0.50005,0.50005 0 1 0 0.8379,-0.54493 c -1.09418,-1.68042 -1.44042,-3.798 -0.94141,-5.77929 0.49902,-1.9813 1.78869,-3.62011 3.51367,-4.48633 A 0.50005,0.50005 0 0 0 283.51562,517 Z m 0.98243,3 a 0.50005,0.50005 0 0 0 -0.26758,0.082 c -1.21391,0.77866 -2.01457,2.12204 -2.19336,3.63086 -0.17879,1.50883 0.2812,3.02564 1.26367,4.11719 a 0.50005,0.50005 0 1 0 0.74219,-0.66992 c -0.77619,-0.86237 -1.15757,-2.0993 -1.01172,-3.33008 0.14584,-1.23079 0.79828,-2.30329 1.73828,-2.90625 A 0.50005,0.50005 0 0 0 284.49805,520 Z" id="path12979"></path>
  </g>
</svg>