<svg xmlns="http://www.w3.org/2000/svg" style="background: #808080" height="64" width="64" viewBox="339 554 20 20">
  <g id="g24381" style="" data-label="AA-17">
    <path style="color: rgb(0, 0, 0); fill: #ffffff; stroke-linecap: round; stroke-linejoin: round;" d="m 351.48242,557.01562 -0.96875,0.0156 c -0.0189,2.6e-4 -0.0378,0.002 -0.0566,0.004 -2.58289,0.33067 -4.57988,2.60038 -4.45117,5.21484 0.0288,0.58487 0.23179,1.09854 0.44141,1.5957 l -3.78516,3.78516 c -0.33708,0.30742 -0.60091,0.7293 -0.64063,1.23047 -0.0397,0.50117 0.17261,1.03979 0.625,1.49219 0.45357,0.45356 0.99596,0.65829 1.49219,0.61328 0.49624,-0.045 0.906,-0.30379 1.21485,-0.61328 l 3.80664,-3.80664 c 0.52791,0.22561 1.0693,0.4331 1.69336,0.45117 2.60313,0.0754 4.83493,-1.87377 5.11328,-4.46289 0.001,-0.0136 0.002,-0.0273 0.002,-0.041 l 0.0215,-0.9668 c 0.0105,-0.45102 -0.53451,-0.68424 -0.85351,-0.36523 L 352.29297,564 h -1.58594 L 349,562.29297 v -1.58594 l 2.84375,-2.83789 c 0.31756,-0.31766 0.0878,-0.86042 -0.36133,-0.85352 z" id="path18095"></path>
  </g>
</svg>