<svg xmlns="http://www.w3.org/2000/svg" height="64" width="64" viewBox="66 554 20 20">
  <g transform="matrix(-1,0,0,1,384.832,63)" style="fill: #ffffff;" id="g23034" data-label="AA-4">
    <path style="fill: #ffffff; stroke-linecap: round; stroke-linejoin: round; stroke-dashoffset: 7.4;" d="m 310.58203,494 c -1.1875,0 -2.13583,0.69085 -2.52344,1.62109 -0.3876,0.93025 -0.20775,2.10475 0.66993,2.98243 l 2.5,2.5 c 0.62232,0.62232 0.69247,1.32282 0.45507,1.89257 C 311.4462,503.56585 310.89453,504 310.08203,504 l -6.53515,-0.008 2.13867,-2.13867 a 0.50005,0.50005 0 1 0 -0.70703,-0.70704 l -2.9336,2.93555 -0.01,0.008 a 0.50005,0.50005 0 0 0 -0.20704,0.41602 0.50005,0.50005 0 0 0 0,0.008 0.50005,0.50005 0 0 0 0.004,0.0469 0.50005,0.50005 0 0 0 0.008,0.0488 0.50005,0.50005 0 0 0 0.19336,0.29882 l 2.94532,2.94532 a 0.50005,0.50005 0 1 0 0.70703,-0.70704 l -2.1543,-2.15429 6.55078,0.008 c 1.1875,0 2.13584,-0.69085 2.52344,-1.62109 0.3876,-0.93025 0.20775,-2.10475 -0.66992,-2.98243 l -2.5,-2.5 c -0.62233,-0.62232 -0.69248,-1.32282 -0.45508,-1.89257 0.2374,-0.56976 0.78906,-1.00391 1.60156,-1.00391 h 4.75 a 0.50005,0.50005 0 1 0 0,-1 z" id="path23032"></path>
  </g>
</svg>