<svg xmlns="http://www.w3.org/2000/svg" style="background: #808080" height="64" width="64" viewBox="87 554 20 20">
  <g id="g16187" style="fill: #ffffff;" transform="translate(462.005,-96.0051)" data-label="AA-5">
    <path style="color: rgb(0, 0, 0); opacity: 0.99; fill: #ffffff; stroke-linecap: round; stroke-linejoin: round;" d="m 103.49609,556.99023 a 0.50005,0.50005 0 0 0 -0.34375,0.15039 l -1.57031,1.57032 c -1.22858,-1.06562 -2.825838,-1.7168 -4.576171,-1.7168 -3.86007,0 -7,3.13993 -7,7 0,1.75033 0.649231,3.34954 1.714844,4.57813 l -1.568359,1.56835 a 0.50005,0.50005 0 1 0 0.707031,0.70704 l 1.568359,-1.56836 c 1.228585,1.06561 2.827793,1.71484 4.578125,1.71484 3.860071,0 7.000001,-3.13993 7.000001,-7 0,-1.75033 -0.65118,-3.34759 -1.7168,-4.57617 l 1.57032,-1.57031 a 0.50005,0.50005 0 0 0 -0.36329,-0.85743 z m -6.490231,1.00391 c 3.319631,0 6.000001,2.68037 6.000001,6 0,3.31963 -2.68037,6 -6.000001,6 -3.31963,0 -6,-2.68037 -6,-6 0,-0.88092 0.193846,-1.71405 0.533203,-2.4668 l 0.466797,0.4668 1,1 v 2 h 2 v 1 l 1,1 v 2 h 0.75 1.25 l 1,-1 1.000001,-1 v -1 l -1.000001,-1 h -2 -1 l -1,-1 h -1 l 1,-1 h 1 l 2,-2 -1,-1 h -1 l -1,-1 0.894532,-0.89453 c 0.358617,-0.0666 0.727234,-0.10547 1.105468,-0.10547 z" transform="translate(-462.005,96.0051)" id="circle16176"></path>
  </g>
</svg>