<svg xmlns="http://www.w3.org/2000/svg" style="background: #808080" height="64" width="64" viewBox="108 554 20 20">
  <g style="fill: #ffffff;" id="g22484" transform="translate(-220,-220)" data-label="AA-6">
    <path id="path22480" style="color: rgb(0, 0, 0); fill: #ffffff; stroke-linecap: round; stroke-linejoin: round; stroke-dashoffset: 0.5;" d="m 334.5,777 c -0.15738,-3e-4 -0.30571,0.0735 -0.40039,0.19922 L 332.75,779 H 332 c -0.54535,0 -1,0.45465 -1,1 v 9 c 0,0.54535 0.45465,1 1,1 h 12 c 0.54535,0 1,-0.45465 1,-1 v -9 c 0,-0.54535 -0.45465,-1 -1,-1 h -3.75 l -1.34961,-1.80078 C 338.80571,777.07351 338.65738,776.9997 338.5,777 Z m 1,1 h 2 c 0.27613,3e-5 0.49997,0.22387 0.5,0.5 v 1 c -3e-5,0.27613 -0.22387,0.49997 -0.5,0.5 h -2 c -0.27613,-3e-5 -0.49997,-0.22387 -0.5,-0.5 v -1 c 3e-5,-0.27613 0.22387,-0.49997 0.5,-0.5 z m -3.5,3 h 9 v 7 h -9 v -6.5 z m 11,1 c 0.54636,0 1,0.45364 1,1 0,0.54636 -0.45364,1 -1,1 -0.54636,0 -1,-0.45364 -1,-1 0,-0.54636 0.45364,-1 1,-1 z m 0,4 c 0.54636,0 1,0.45364 1,1 0,0.54636 -0.45364,1 -1,1 -0.54636,0 -1,-0.45364 -1,-1 0,-0.54636 0.45364,-1 1,-1 z"></path>
    <path style="color: rgb(0, 0, 0); opacity: 0.2; fill: #ffffff; stroke-linecap: round; stroke-linejoin: round; stroke-dashoffset: 0.5;" d="m 333.5,782 a 0.50005006,0.50005006 0 1 0 0,1 h 6.00195 a 0.50005006,0.50005006 0 1 0 0,-1 z m 0,2 a 0.50005006,0.50005006 0 1 0 0,1 h 6.00195 a 0.50005006,0.50005006 0 1 0 0,-1 z m 0,2 a 0.50005006,0.50005006 0 1 0 0,1 h 6.00195 a 0.50005006,0.50005006 0 1 0 0,-1 z" id="path22526"></path>
    <path d="m 342.50195,777 c -0.67617,-0.01 -0.67617,1.00957 0,1 h 1 c 0.67617,0.01 0.67617,-1.00957 0,-1 z" style="color: rgb(0, 0, 0); opacity: 0.8; fill: #ffffff; stroke-linecap: round; stroke-linejoin: round; stroke-dashoffset: 0.5;" id="path22529"></path>
  </g>
</svg>