<svg xmlns="http://www.w3.org/2000/svg" style="background: #808080" height="64" width="64" viewBox="255 29 20 20">
  <g id="g6397" style="fill: #ffffff;" data-label="B-13">
    <path id="rect12565-1-6" d="m 258.5,32 a 0.50005,0.50005 0 0 0 -0.5,0.5 v 13 a 0.50005,0.50005 0 0 0 0.5,0.5 h 13 A 0.50005,0.50005 0 0 0 272,45.5 V 41 h -1 v 4 H 259 V 33 h 12 v 1 h 1 V 32.5 A 0.50005,0.50005 0 0 0 271.5,32 Z" style="color: rgb(0, 0, 0); opacity: 0.6; fill: #ffffff; stroke-linejoin: round;"></path>
    <path style="color: rgb(0, 0, 0); fill: #ffffff; stroke-linecap: round; stroke-linejoin: round;" d="m 261.5,35 c -0.67616,-0.0096 -0.67616,1.009563 0,1 H 272 v -1 z m 0,2 c -0.67616,-0.0096 -0.67616,1.009563 0,1 H 272 v -1 z m 0,2 c -0.67616,-0.0096 -0.67616,1.009563 0,1 H 272 v -1 z" id="path12613-4-1"></path>
  </g>
</svg>