<svg xmlns="http://www.w3.org/2000/svg" style="background: #808080" height="64" width="64" viewBox="381 29 20 20">
  <g style="opacity: 0.99; fill: #ffffff;" id="g13304" transform="translate(-84,-126)" data-label="B-19">
    <path style="color: rgb(0, 0, 0); fill: #ffffff; stroke-linecap: round; stroke-linejoin: round;" d="m 475,157.99609 c -1.79823,1e-5 -2.78534,0.23261 -3.38867,0.75196 C 471.00799,159.2674 471,160.00249 471,160.49609 v 0.5 h -0.002 c -0.12828,0 -0.91099,4e-5 -1.63867,0.53711 -0.72848,0.53766 -1.35958,1.60963 -1.35938,3.4668 9e-5,0.84676 0.12547,1.43896 0.35352,1.89453 0.22804,0.45557 0.5457,0.7425 0.81445,0.98047 a 0.50086817,0.50086817 0 1 0 0.66406,-0.75 c -0.2639,-0.23368 -0.44506,-0.40021 -0.58398,-0.67773 -0.13888,-0.27753 -0.24792,-0.69815 -0.248,-1.44727 -1.7e-4,-1.64286 0.494,-2.32325 0.95312,-2.66211 0.45913,-0.33885 0.92388,-0.3418 1.04688,-0.3418 h 0.44336 a 0.50005,0.50005 0 0 0 0.0586,0.004 l 3,-0.01 a 0.50005,0.50005 0 0 0 -0.002,-1 h -0.002 -0.002 L 472,160.99414 v -0.49805 c 0,-0.4936 -0.008,-0.75638 0.26367,-0.99023 0.27167,-0.23385 1.03456,-0.50976 2.73633,-0.50977 1.70177,0 2.46467,0.27592 2.73633,0.50977 0.27166,0.23385 0.26367,0.49663 0.26367,0.99023 v 1.99414 c -6e-5,0.47857 -0.26457,0.78886 -0.8457,1.12891 -0.58114,0.34005 -1.43184,0.62116 -2.30664,0.90234 -0.87481,0.28119 -1.77478,0.56315 -2.50586,0.98829 -0.73108,0.42513 -1.34192,1.08253 -1.3418,1.98046 v 2.01368 c 0,0.4936 0.008,1.22869 0.61133,1.74804 0.60334,0.51936 1.59044,0.75196 3.38867,0.75196 1.79823,-1e-5 2.78534,-0.23261 3.38867,-0.75196 C 478.99201,170.7326 479,169.99751 479,169.50391 v -0.5 c 0.127,0 0.91215,5.4e-4 1.64062,-0.53711 0.72848,-0.53766 1.35958,-1.60963 1.35938,-3.4668 -1.6e-4,-1.56962 -0.66959,-2.34844 -1.13672,-2.84375 a 0.5001364,0.5001364 0 1 0 -0.72656,0.6875 c 0.47073,0.49913 0.86314,0.83133 0.86328,2.15625 1.7e-4,1.64286 -0.494,2.32325 -0.95312,2.66211 -0.45913,0.33885 -0.92388,0.3418 -1.04688,0.3418 h -0.44336 A 0.50005,0.50005 0 0 0 478.49805,168 l -3,0.01 a 0.50005,0.50005 0 0 0 0.002,1 h 0.002 0.002 L 478,169.00586 v 0.49805 c 0,0.4936 0.008,0.75638 -0.26367,0.99023 -0.27167,0.23385 -1.03456,0.50976 -2.73633,0.50977 -1.70177,0 -2.46467,-0.27592 -2.73633,-0.50977 C 471.99201,170.26029 472,169.99751 472,169.50391 v -2.01368 c -6e-5,-0.47218 0.26437,-0.77913 0.8457,-1.11718 0.58133,-0.33805 1.43145,-0.61908 2.30664,-0.90039 0.8752,-0.28132 1.77441,-0.56222 2.50586,-0.99024 0.73146,-0.42801 1.34168,-1.09087 1.3418,-1.99219 v -1.99414 c 0,-0.4936 -0.008,-1.22869 -0.61133,-1.74804 -0.60334,-0.51936 -1.59044,-0.75196 -3.38867,-0.75196 z" id="path13302"></path>
  </g>
</svg>