<svg xmlns="http://www.w3.org/2000/svg" style="background: #808080" height="64" width="64" viewBox="24 29 20 20">
  <g id="g6375" style="fill: #ffffff;" data-label="B-2">
    <path id="path12109-5" d="m 34,32 c -3.860074,0 -7,3.139926 -7,7 0,3.860083 3.139927,7 7,7 3.860082,0 7,-3.139918 7,-7 0,-3.860073 -3.139917,-7 -7,-7 z m 0,1 c 3.319643,0 6,2.680365 6,6 0,3.319644 -2.680356,6 -6,6 -3.319635,0 -6,-2.680357 -6,-6 0,-3.319634 2.680366,-6 6,-6 z" style="color: rgb(0, 0, 0); fill: #ffffff; fill-rule: evenodd; stroke-linecap: round; stroke-linejoin: round;"></path>
    <path id="path12115-8" d="M 28.507812,38.244141 A 0.50005,0.50005 0 0 0 28.15625,39.101562 C 29.521925,40.47768 30.901684,41.000009 32.5,41 H 34 c 2.575017,3.52e-4 3.847654,-0.615233 4.722656,-1.052734 A 0.50005,0.50005 0 1 0 38.277344,39.052734 C 37.402346,39.490233 36.424977,40.000332 34,40 h -1.5 c -1.401674,7e-6 -2.403186,-0.362534 -3.632812,-1.601562 a 0.50005,0.50005 0 0 0 -0.359376,-0.154297 z" style="color: rgb(0, 0, 0); opacity: 0.8; fill: #ffffff; fill-rule: evenodd; stroke-linecap: round; stroke-linejoin: round;"></path>
  </g>
</svg>