<svg xmlns="http://www.w3.org/2000/svg" style="background: #808080" height="64" width="64" viewBox="465 29 20 20">
  <g id="g49143" style="" data-label="B-23">
    <path id="path29048-2" d="m 475,32 c -3.86007,0 -7,3.1399 -7,7 0,3.8601 3.13993,7 7,7 3.86007,0 7,-3.1399 7,-7 0,-3.8601 -3.13993,-7 -7,-7 z m 3.48047,2.2344 a 0.50005,0.50005 0 0 1 0.31836,0.125 c 1.24012,1.0149 2.02325,2.4828 2.17383,4.0781 a 0.50005,0.50005 0 0 1 -0.49219,0.5547 0.50005,0.50005 0 0 1 -0.50195,-0.461 c -0.12552,-1.3298 -0.77879,-2.5525 -1.8125,-3.3984 a 0.50005,0.50005 0 0 1 0.31445,-0.8984 z m -1.00977,1.7832 a 0.50005,0.50005 0 0 1 0.35742,0.1543 c 0.60661,0.6066 1.00291,1.3916 1.12891,2.2402 a 0.50005,0.50005 0 0 1 -0.46289,0.5801 0.50005,0.50005 0 0 1 -0.52734,-0.4336 c -0.0945,-0.6365 -0.39067,-1.2247 -0.84571,-1.6797 a 0.50005,0.50005 0 0 1 0.34961,-0.8613 z M 475,37 c 1.09865,0 2,0.9014 2,2 0,1.0986 -0.90135,2 -2,2 -1.09865,0 -2,-0.9014 -2,-2 0,-1.0986 0.90135,-2 2,-2 z m -5.51367,1.9902 a 0.50005,0.50005 0 0 1 0.0508,0 0.50005,0.50005 0 0 1 0.48437,0.4805 c 0.12552,1.3298 0.77879,2.5525 1.8125,3.3984 a 0.50005,0.50005 0 0 1 -0.31054,0.8926 0.50005,0.50005 0 0 1 -0.32227,-0.1191 c -1.24012,-1.0149 -2.02325,-2.4828 -2.17383,-4.0781 a 0.50005,0.50005 0 0 1 0.45899,-0.5743 z m 2.06445,0.024 a 0.50050417,0.50050417 0 0 1 0.48242,0.4277 c 0.0945,0.6365 0.39067,1.2247 0.84571,1.6797 a 0.50005,0.50005 0 0 1 -0.34766,0.8594 0.50005,0.50005 0 0 1 -0.35937,-0.1524 c -0.60661,-0.6066 -1.00291,-1.3916 -1.12891,-2.2402 a 0.50050417,0.50050417 0 0 1 0.50781,-0.5742 z" style="color: rgb(0, 0, 0); fill: #ffffff; stroke-linecap: round; stroke-linejoin: round;"></path>
  </g>
</svg>