<svg xmlns="http://www.w3.org/2000/svg" style="background: #808080" height="64" width="64" viewBox="486 29 20 20">
  <g id="g27905" style="" data-label="B-24">
    <path id="path27891-0" style="color: rgb(0, 0, 0); opacity: 0.65; fill: #ffffff; stroke-linecap: round; stroke-linejoin: round;" d="m 498,37.5 c -3e-5,0.276131 -0.22387,0.499972 -0.5,0.5 h -2 c -0.27613,-2.8e-5 -0.49997,-0.223869 -0.5,-0.5 v -2 c 3e-5,-0.276131 0.22387,-0.499972 0.5,-0.5 h 2 c 0.27613,2.8e-5 0.49997,0.223869 0.5,0.5 z"></path>
    <path d="m 489.5,45 c -0.0335,5.59e-4 -0.0669,0.0045 -0.0996,0.01172 -0.0322,0.0073 -0.0636,0.01777 -0.0937,0.03125 -0.0309,0.01328 -0.0603,0.02964 -0.0879,0.04883 -0.0136,0.0098 -0.0266,0.02019 -0.0391,0.03125 -0.0129,0.01044 -0.0253,0.02152 -0.0371,0.0332 -0.011,0.01249 -0.0215,0.02553 -0.0312,0.03906 -0.0104,0.01317 -0.0202,0.02686 -0.0293,0.04102 -0.009,0.01393 -0.0163,0.02827 -0.0234,0.04297 -0.007,0.01528 -0.0138,0.03093 -0.0195,0.04687 -0.006,0.01536 -0.0112,0.031 -0.0156,0.04687 -0.004,0.0161 -0.007,0.0324 -0.01,0.04883 -0.008,0.04974 -0.009,0.100447 -0.002,0.150391 0.003,0.01643 0.006,0.03273 0.01,0.04883 0.004,0.01587 0.01,0.03151 0.0156,0.04687 0.005,0.01591 0.011,0.03155 0.0176,0.04687 0.007,0.0147 0.0149,0.02904 0.0234,0.04297 0.009,0.01482 0.0188,0.02916 0.0293,0.04297 0.0197,0.02621 0.0419,0.05042 0.0664,0.07227 0.0754,0.0673 0.16932,0.110201 0.26953,0.123047 0.0188,0.0024 0.0377,0.0037 0.0566,0.0039 h 13 c 0.0335,-5.59e-4 0.0669,-0.0045 0.0996,-0.01172 0.0159,-0.0038 0.0315,-0.0084 0.0469,-0.01367 0.0159,-0.0051 0.0316,-0.01094 0.0469,-0.01758 0.0153,-0.0064 0.0303,-0.01358 0.0449,-0.02148 0.0292,-0.01672 0.0567,-0.03635 0.082,-0.05859 0.0129,-0.01044 0.0253,-0.02152 0.0371,-0.0332 0.011,-0.01249 0.0215,-0.02553 0.0312,-0.03906 0.0305,-0.03975 0.0549,-0.08386 0.0723,-0.13086 0.006,-0.01536 0.0112,-0.031 0.0156,-0.04687 0.009,-0.03259 0.0138,-0.06597 0.0156,-0.09961 8e-4,-0.01627 8e-4,-0.03256 0,-0.04883 -10e-4,-0.03358 -0.006,-0.06695 -0.0137,-0.09961 -0.004,-0.01587 -0.01,-0.03151 -0.0156,-0.04687 -0.005,-0.01591 -0.011,-0.03155 -0.0176,-0.04687 -0.0146,-0.03035 -0.0323,-0.05914 -0.0527,-0.08594 -0.01,-0.01287 -0.0202,-0.02525 -0.0312,-0.03711 -0.0225,-0.02455 -0.0473,-0.0468 -0.0742,-0.06641 -0.0139,-0.0098 -0.0282,-0.01896 -0.043,-0.02734 -0.0139,-0.0085 -0.0283,-0.01633 -0.043,-0.02344 -0.0153,-0.0066 -0.031,-0.01251 -0.0469,-0.01758 -0.016,-0.0054 -0.0323,-0.0099 -0.0488,-0.01367 -0.0161,-0.0041 -0.0324,-0.0073 -0.0488,-0.0098 -0.0188,-0.0024 -0.0377,-0.0037 -0.0566,-0.0039 z m 0,-12 c -0.27613,2.8e-5 -0.49997,0.223869 -0.5,0.5 v 10 c 3e-5,0.276131 0.22387,0.499972 0.5,0.5 h 13 c 0.27613,-2.8e-5 0.49997,-0.223869 0.5,-0.5 v -10 c -3e-5,-0.276131 -0.22387,-0.499972 -0.5,-0.5 z m 0.5,1 h 12 v 9 h -12 z" style="color: rgb(0, 0, 0); fill: #ffffff; stroke-linecap: round; stroke-linejoin: round;" id="path27901"></path>
    <path d="m 494,41.5 c -3e-5,0.276131 -0.22387,0.499972 -0.5,0.5 h -2 c -0.27613,-2.8e-5 -0.49997,-0.223869 -0.5,-0.5 v -2 c 3e-5,-0.276131 0.22387,-0.499972 0.5,-0.5 h 2 c 0.27613,2.8e-5 0.49997,0.223869 0.5,0.5 z M 493,41 v -1 h -1 v 1 z m 1,-3.5 c -3e-5,0.276131 -0.22387,0.499972 -0.5,0.5 h -2 c -0.27613,-2.8e-5 -0.49997,-0.223869 -0.5,-0.5 v -2 c 3e-5,-0.276131 0.22387,-0.499972 0.5,-0.5 h 2 c 0.27613,2.8e-5 0.49997,0.223869 0.5,0.5 z" style="color: rgb(0, 0, 0); fill: #ffffff; stroke-linecap: round; stroke-linejoin: round;" id="path28826"></path>
  </g>
</svg>