<svg xmlns="http://www.w3.org/2000/svg" height="64" width="64" viewBox="528 29 20 20">
  <g id="g27900" transform="translate(-123,-21)" style="" data-label="B-26">
    <g transform="translate(0,-21)" id="g28156">
      <path style="fill: #ffffff; stroke-linecap: round; stroke-linejoin: round;" d="m 543.5,33 c -0.8225,0 -1.5,0.677492 -1.5,1.5 0,0.230167 0.0579,0.446791 0.15234,0.642578 a 0.50005,0.50005 0 0 0 -0.006,0.0039 L 540.29297,37 H 539.5 a 0.50005,0.50005 0 1 0 0,1 h 1 a 0.50005,0.50005 0 0 0 0.35352,-0.146484 l 2,-2 a 0.50005,0.50005 0 0 0 0.004,-0.0059 C 543.05321,35.942094 543.26984,36 543.5,36 c 0.8225,0 1.5,-0.677492 1.5,-1.5 0,-0.822508 -0.6775,-1.5 -1.5,-1.5 z m 0,1 c 0.28206,0 0.5,0.217938 0.5,0.5 0,0.282062 -0.21794,0.5 -0.5,0.5 -0.28206,0 -0.5,-0.217938 -0.5,-0.5 0,-0.282062 0.21794,-0.5 0.5,-0.5 z m 0,5 c -0.64684,0 -1.19777,0.420971 -1.40625,1 H 539.5 a 0.50005,0.50005 0 1 0 0,1 h 2.59375 c 0.20848,0.579029 0.75941,1 1.40625,1 0.8225,0 1.5,-0.677492 1.5,-1.5 0,-0.822508 -0.6775,-1.5 -1.5,-1.5 z m 0,1 c 0.28206,0 0.5,0.217938 0.5,0.5 0,0.282062 -0.21794,0.5 -0.5,0.5 -0.28206,0 -0.5,-0.217938 -0.5,-0.5 0,-0.282062 0.21794,-0.5 0.5,-0.5 z m -4,2.992188 a 0.50005,0.50005 0 1 0 0,1 h 0.79297 l 1.85351,1.853515 a 0.50005,0.50005 0 0 0 0.008,0.0078 C 542.05866,46.050309 542,46.268282 542,46.5 c 0,0.822508 0.6775,1.5 1.5,1.5 0.8225,0 1.5,-0.677492 1.5,-1.5 0,-0.822508 -0.6775,-1.5 -1.5,-1.5 -0.22767,0 -0.44256,0.05591 -0.63672,0.148438 a 0.50005,0.50005 0 0 0 -0.01,-0.0098 l -2,-2 A 0.50005,0.50005 0 0 0 540.5,42.992188 Z M 543.5,46 c 0.28206,0 0.5,0.217938 0.5,0.5 0,0.282062 -0.21794,0.5 -0.5,0.5 -0.28206,0 -0.5,-0.217938 -0.5,-0.5 0,-0.282062 0.21794,-0.5 0.5,-0.5 z" transform="translate(123,41)" id="circle28098"></path>
    </g>
    <g id="g28053" transform="translate(21)">
      <path id="rect28051" transform="translate(21,-21)" style="fill: #ffffff; stroke-linecap: round; stroke-linejoin: round;" d="m 616,85 h 1 v 0.999999 h -1 z m -2,0 h 1 v 0.999999 h -1 z m -0.46289,-8 C 612.69436,77 612,77.694362 612,78.537109 v 7.925782 C 612,87.305638 612.69436,88 613.53711,88 h 5.92578 c 0.73741,0 1.36143,-0.531036 1.50586,-1.228516 0.0206,-0.09964 0.0312,-0.20325 0.0312,-0.308593 V 78.537109 C 621,77.694362 620.30564,77 619.46289,77 Z m 0,7 h 5.92578 C 619.76894,84 620,84.231065 620,84.537109 v 1.925782 C 620,86.768935 619.76894,87 619.46289,87 h -5.92578 C 613.23106,87 613,86.768935 613,86.462891 V 84.537109 C 613,84.231065 613.23106,84 613.53711,84 Z"></path>
    </g>
  </g>
</svg>