<svg xmlns="http://www.w3.org/2000/svg" style="background: #808080" height="64" width="64" viewBox="66 29 20 20">
  <g id="g6391" style="fill: #ffffff;" data-label="B-4">
    <path id="path13580-7" d="m 72.5,32 a 0.50004997,0.50004997 0 0 0 -0.330078,0.123047 l -2,1.75 A 0.50004997,0.50004997 0 0 0 70,34.25 V 36 H 68.5 A 0.50004997,0.50004997 0 0 0 68,36.5 V 38 c 0,0.986111 0.740543,1.688903 1.568359,1.919922 0.715248,0.199604 1.51421,0.04822 2.183594,-0.384766 L 73,40.939453 V 43.25 c 0,0.888889 0.394191,1.618478 0.96875,2.078125 C 74.543309,45.787772 75.275,46 76,46 76.725,46 77.456691,45.787772 78.03125,45.328125 78.605809,44.868478 79,44.138889 79,43.25 v -2.310547 l 1.248047,-1.404297 c 0.669384,0.432987 1.468346,0.58437 2.183594,0.384766 C 83.259457,39.688903 84,38.986111 84,38 V 36.5 A 0.50004997,0.50004997 0 0 0 83.5,36 H 82 v -1.75 a 0.50004997,0.50004997 0 0 0 -0.169922,-0.376953 l -2,-1.75 A 0.50004997,0.50004997 0 0 0 79.5,32 h -2 a 0.50004997,0.50004997 0 0 0 -0.353516,0.146484 L 76.292969,33 H 75.707031 L 74.853516,32.146484 A 0.50004997,0.50004997 0 0 0 74.5,32 Z m 0.1875,1 h 1.605469 l 0.853515,0.853516 A 0.50004997,0.50004997 0 0 0 75.5,34 h 1 a 0.50004997,0.50004997 0 0 0 0.353516,-0.146484 L 77.707031,33 H 79.3125 L 81,34.478516 V 36.5 A 0.50004997,0.50004997 0 0 0 81.5,37 H 83 v 1 c 0,0.513889 -0.321957,0.811097 -0.837891,0.955078 -0.394082,0.109977 -0.821203,-0.06293 -1.207031,-0.25 a 0.50004997,0.50004997 0 0 0 -0.828125,-0.537109 l -2,2.25 A 0.50004997,0.50004997 0 0 0 78,40.75 v 2.5 c 0,0.611111 -0.230809,1.006522 -0.59375,1.296875 C 77.043309,44.837228 76.525,45 76,45 75.475,45 74.956691,44.837228 74.59375,44.546875 74.230809,44.256522 74,43.861111 74,43.25 v -2.5 a 0.50004997,0.50004997 0 0 0 -0.126953,-0.332031 l -2,-2.25 a 0.50004997,0.50004997 0 0 0 -0.828125,0.537109 c -0.385828,0.187069 -0.812949,0.359977 -1.207031,0.25 C 69.321957,38.811097 69,38.513889 69,38 v -1 h 1.5 A 0.50004997,0.50004997 0 0 0 71,36.5 v -2.023438 z" style="color: rgb(0, 0, 0); fill: #ffffff; stroke-linecap: round; stroke-linejoin: round;"></path>
    <path id="path13586" d="m 74,35 a 0.50005,0.50005 0 0 0 -0.353516,0.146484 l -0.5,0.5 A 0.50005,0.50005 0 0 0 73,36 v 0.5 a 0.50005,0.50005 0 1 0 1,0 V 36.207031 L 74.207031,36 H 74.5 a 0.50005,0.50005 0 1 0 0,-1 z m 4,0 a 0.50005,0.50005 0 0 0 -0.353516,0.146484 l -0.5,0.5 A 0.50005,0.50005 0 0 0 77,36 v 0.5 a 0.50005,0.50005 0 1 0 1,0 V 36.207031 L 78.207031,36 H 78.5 a 0.50005,0.50005 0 1 0 0,-1 z m -2.5,3 a 0.50005,0.50005 0 1 0 0,1 h 1 a 0.50005,0.50005 0 1 0 0,-1 z" style="color: rgb(0, 0, 0); opacity: 0.8; fill: #ffffff; stroke-linecap: round; stroke-linejoin: round;"></path>
  </g>
</svg>