<svg xmlns="http://www.w3.org/2000/svg" style="background: #808080" height="64" width="64" viewBox="143 28 20 20">
  <g style="fill: #ffffff;" id="g13175" data-label="B-8">
    <path id="path34600-2" d="m 162.47852,32 c -0.75576,10e-7 -1.40256,0.282822 -1.83399,0.75 -0.30821,0.333747 -0.37373,0.80118 -0.46094,1.25 H 159.25 c -1.74879,0 -3.25,1.267585 -3.25,3 0,0.03444 0.0105,0.06555 0.0117,0.09961 C 156.33181,37.034347 156.66178,37 157,37 c 2.03325,0 3.79424,1.241664 4.57227,3 H 164.25 c 0.73055,0 1.4115,-0.231259 1.91992,-0.667969 C 166.67834,38.895322 167,38.242126 167,37.5 c 0,-1.192468 -0.94634,-2.062761 -2.04297,-2.306641 -0.002,-0.488483 0.0124,-1.101037 -0.24609,-1.74414 C 164.40699,32.693065 163.65613,32.000002 162.47852,32 Z" style="color: rgb(0, 0, 0); opacity: 0.6; fill: #ffffff; stroke-linecap: square; stroke-linejoin: round;"></path>
    <path style="color: rgb(0, 0, 0); fill: #ffffff; stroke-linecap: square; stroke-linejoin: round;" d="m 157,38 c -2.20322,0 -4,1.796783 -4,4 0,2.203217 1.79678,4 4,4 2.20322,0 4,-1.796783 4,-4 0,-2.203217 -1.79678,-4 -4,-4 z m 0,1 c 1.66278,0 3,1.337223 3,3 0,1.662777 -1.33722,3 -3,3 -1.66278,0 -3,-1.337223 -3,-3 0,-1.662777 1.33722,-3 3,-3 z" id="ellipse13733"></path>
    <path style="color: rgb(0, 0, 0); fill: #ffffff; stroke-linecap: round; stroke-linejoin: round; marker: none;" d="m 154.5,32 c 0.8225,0 1.5,0.677496 1.5,1.5 0,0.822504 -0.6775,1.5 -1.5,1.5 -0.8225,0 -1.5,-0.677496 -1.5,-1.5 0,-0.822504 0.6775,-1.5 1.5,-1.5 z" id="ellipse12632-2"></path>
  </g>
</svg>