<svg xmlns="http://www.w3.org/2000/svg" height="64" width="64" viewBox="171 29 20 20">
  <g transform="translate(-168,-294)" id="g16054" style="fill: #ffffff;" data-label="B-9">
    <path style="color: rgb(0, 0, 0); fill: #ffffff; stroke-width: 1.1; stroke-linecap: round; stroke-linejoin: round;" d="m 180.82031,32.001953 c -2.53256,0.0762 -4.74925,1.739751 -5.52929,4.150391 -0.66549,2.0566 -0.15791,4.2781 1.25,5.847656 H 176.25 a 0.50005,0.50005 0 0 0 -0.35352,0.146484 l -1.75,1.75 A 0.50005,0.50005 0 0 0 174,44.25 v 1.25 a 0.50005,0.50005 0 0 0 0.5,0.5 h 13 a 0.50005,0.50005 0 0 0 0.5,-0.5 v -1.25 a 0.50005,0.50005 0 0 0 -0.14648,-0.353516 l -1.75,-1.75 A 0.50005,0.50005 0 0 0 185.75,42 h -0.29492 c 1.50007,-1.670137 1.96594,-4.059297 1.13281,-6.1875 -0.92362,-2.35937 -3.23501,-3.886777 -5.76758,-3.810547 z m 0.0332,1.099609 c 2.07177,-0.0624 3.95341,1.181239 4.70898,3.111329 0.75557,1.9301 0.2178,4.121692 -1.3457,5.482421 A 0.55028534,0.55028534 0 0 0 184.03906,42 H 183.5 a 0.50005,0.50005 0 1 0 0,1 h 2.04297 L 187,44.457031 V 45 H 175 V 44.457031 L 176.45703,43 H 180.5 a 0.50005,0.50005 0 1 0 0,-1 h -2.37695 a 0.55005501,0.55005501 0 0 0 -0.11133,-0.117188 c -1.64252,-1.264239 -2.31195,-3.418585 -1.67383,-5.390624 0.63812,-1.972051 2.44385,-3.328265 4.51563,-3.390626 z" transform="translate(168,294)" id="path16048"></path>
    <path style="color: rgb(0, 0, 0); fill: #ffffff; stroke-linecap: round; stroke-linejoin: round;" d="m 348.55469,328.69141 a 0.50005,0.50005 0 0 0 -0.0859,0.008 c -1.42662,0.22929 -2.54672,1.3539 -2.77148,2.78125 a 0.50012645,0.50012645 0 1 0 0.98828,0.1543 c 0.15806,-1.00378 0.94009,-1.78798 1.94336,-1.94922 a 0.50005,0.50005 0 0 0 -0.0742,-0.99414 z" id="path16052"></path>
  </g>
</svg>