<svg xmlns="http://www.w3.org/2000/svg" height="64" width="64" viewBox="381 575 20 20">
  <g id="g21041" style="" data-label="BA-19">
    <path id="path18998-9" style="color: rgb(0, 0, 0); fill: #ffffff; stroke-linecap: round; stroke-linejoin: round;" d="m 398,581 h -1 v -2 l 0.8535,-0.8535 c 0.091,0.09 0.1465,0.2154 0.1465,0.3535 z m -1,-2 0.8535,-0.8535 C 397.7635,578.0555 397.6381,578 397.5,578 h -9 c -0.1326,0 -0.2598,0.053 -0.3535,0.1465 l -4,4.0078 c -0.094,0.094 -0.1465,0.2209 -0.1465,0.3535 V 591.5 c 0,0.2761 0.2239,0.5 0.5,0.5 h 13 c 0.2761,0 0.5,-0.2239 0.5,-0.5 V 589 c -10e-5,-1.0628 -0.406,-2.084 -1.1367,-2.8438 l -0.01,-0.01 L 394.707,584 h 2.793 c 0.6761,0.01 0.6761,-1.0096 0,-1 h -3.9395 c -0.3255,-0.042 -0.6029,0.235 -0.5605,0.5605 V 587.5 c -0.01,0.6761 1.0096,0.6761 1,0 v -2.793 l 2.1426,2.1426 c 0.5484,0.5702 0.8573,1.3426 0.8574,2.1504 v 2 h -12 v -8.2852 L 388.707,579 Z"></path>
  </g>
</svg>