<svg xmlns="http://www.w3.org/2000/svg" height="64" width="64" viewBox="213 575 20 20">
  <g style="fill: #ffffff;" id="g12207" transform="translate(21)" data-label="BA-11">
    <path style="fill: #ffffff; stroke-linecap: round; stroke-linejoin: round; stroke-miterlimit: 7.17647;" d="m 223.5,578 c -3.57273,0 -6.5,2.92727 -6.5,6.5 0,1.60752 0.59683,3.08042 1.57422,4.21875 l -2.42774,2.42773 a 0.50005,0.50005 0 1 0 0.70704,0.70704 l 2.42578,-2.42579 c 1.13822,0.977 2.61355,1.57227 4.2207,1.57227 3.57273,0 6.5,-2.92728 6.5,-6.5 0,-3.57273 -2.92727,-6.5 -6.5,-6.5 z m 0,1 c 3.02727,0 5.5,2.47272 5.5,5.5 0,3.02727 -2.47273,5.5 -5.5,5.5 -3.02727,0 -5.5,-2.47273 -5.5,-5.5 0,-3.02728 2.47273,-5.5 5.5,-5.5 z m -3,5 a 0.50005,0.50005 0 1 0 0,1 h 6 a 0.50005,0.50005 0 1 0 0,-1 z" transform="translate(-21)" id="path12193"></path>
    <g style="fill: #ffffff;" transform="translate(61.9487,1.10183)" id="g12200"></g>
    <rect y="577.04999" x="193.95" height="16" width="16" id="rect12202" style="opacity: 0; fill: #ffffff; stroke-width: 3;"></rect>
  </g>
</svg>