<svg xmlns="http://www.w3.org/2000/svg" style="background: #808080" height="64" width="64" viewBox="297 575 20 20">
  <g id="g21047" style="" data-label="BA-15">
    <path style="color: rgb(0, 0, 0); fill: #ffffff; stroke-linecap: round; stroke-linejoin: round;" d="M 306.49219,577.99219 A 0.50004997,0.50004997 0 0 0 306,578.5 v 2.79297 l -2.14648,-2.14649 a 0.50004997,0.50004997 0 1 0 -0.70704,0.70704 L 306,582.70703 v 0.58203 c -0.58959,0.34718 -0.99219,0.98165 -0.99219,1.71094 h -0.30078 l -2.85351,-2.85352 a 0.50004997,0.50004997 0 0 0 -0.35938,-0.15234 0.50004997,0.50004997 0 0 0 -0.34766,0.85938 L 303.29297,585 H 300.5 a 0.50004997,0.50004997 0 1 0 0,1 h 2.79297 l -2.14649,2.14648 a 0.50004997,0.50004997 0 1 0 0.70704,0.70704 L 304.70703,586 h 0.58203 c 0.34718,0.58959 0.98165,0.99219 1.71094,0.99219 v 0.30078 l -2.85352,2.85351 a 0.50004997,0.50004997 0 1 0 0.70704,0.70704 L 307,588.70703 V 591.5 a 0.50004997,0.50004997 0 1 0 1,0 v -2.79297 l 2.14648,2.14649 a 0.50004997,0.50004997 0 1 0 0.70704,-0.70704 L 308,587.29297 v -0.58203 c 0.58959,-0.34718 0.99219,-0.98165 0.99219,-1.71094 h 0.30078 l 2.85351,2.85352 a 0.50004997,0.50004997 0 1 0 0.70704,-0.70704 L 310.70703,585 H 313.5 a 0.50004997,0.50004997 0 1 0 0,-1 h -2.79297 l 2.14649,-2.14648 a 0.50004997,0.50004997 0 0 0 -0.36329,-0.85743 0.50004997,0.50004997 0 0 0 -0.34375,0.15039 L 309.29297,584 h -0.58203 c -0.34718,-0.58959 -0.98165,-0.99219 -1.71094,-0.99219 v -0.30078 l 2.85352,-2.85351 a 0.50004997,0.50004997 0 1 0 -0.70704,-0.70704 L 307,581.29297 V 578.5 a 0.50004997,0.50004997 0 0 0 -0.50781,-0.50781 z M 307,584.00781 c 0.55427,0 0.99219,0.43792 0.99219,0.99219 0,0.55427 -0.43792,0.99219 -0.99219,0.99219 -0.55427,0 -0.99219,-0.43792 -0.99219,-0.99219 0,-0.55427 0.43792,-0.99219 0.99219,-0.99219 z" id="path14282"></path>
  </g>
</svg>