<svg xmlns="http://www.w3.org/2000/svg" style="background: #808080" height="64" width="64" viewBox="443 548 20 20">
  <g id="g13413" style="fill: #ffffff;" data-label="BA-23">
    <path style="color: rgb(0, 0, 0); fill: #ffffff; stroke-linecap: round; stroke-linejoin: round; stroke-dashoffset: 0.5; marker: none;" d="m 475.5,579 c -0.82252,0 -1.5,0.67748 -1.5,1.5 0,0.82252 0.67748,1.5 1.5,1.5 0.82252,0 1.5,-0.67748 1.5,-1.5 0,-0.82252 -0.67748,-1.5 -1.5,-1.5 z m 0,5 c -0.82252,0 -1.5,0.67748 -1.5,1.5 0,0.82252 0.67748,1.5 1.5,1.5 0.82252,0 1.5,-0.67748 1.5,-1.5 0,-0.82252 -0.67748,-1.5 -1.5,-1.5 z m 0,5 c -0.82252,0 -1.5,0.67748 -1.5,1.5 0,0.82252 0.67748,1.5 1.5,1.5 0.82252,0 1.5,-0.67748 1.5,-1.5 0,-0.82252 -0.67748,-1.5 -1.5,-1.5 z" id="ellipse12367"></path>
  </g>
</svg>