<svg xmlns="http://www.w3.org/2000/svg" style="background: #808080" height="64" width="64" viewBox="503 548 20 20">
  <g transform="translate(712,-665)" style="" id="g25686" data-label="BA-26">
    <g transform="rotate(180,-177.4965,1250.005)" id="g25671">
      <path style="color: rgb(0, 0, 0); fill: #ffffff; stroke-width: 1px; stroke-linecap: round; stroke-linejoin: round;" d="m -242.00195,1242.9922 c -0.58284,0 -1.10871,0.154 -1.47657,0.5215 -0.36785,0.3675 -0.52148,0.8952 -0.52148,1.4785 V 1248 h 6 v -2.4863 c -0.002,-0.3369 0.17839,-0.7279 0.47461,-1.0254 0.29622,-0.2975 0.68988,-0.4819 1.0293,-0.4844 0.65765,-0.012 0.6539,-0.9937 -0.004,-1 h -0.004 L -239,1243 v 0.4863 c 0.01,0.6762 -1.00956,0.6762 -1,0 v -0.4883 h -1 v 0.4903 c 0.01,0.6762 -1.00956,0.6762 -1,0 v -0.4922 h -0.002 z M -244,1249 v 0.5 c 0,0.2521 0.16407,0.4981 0.5,0.4863 l 1.50195,0.01 -0.002,5.9941 c -0.0191,1.3523 2.01913,1.3523 2,0 l -0.002,-5.9941 1.50195,-0.01 c 0.32137,0 0.5,-0.2464 0.5,-0.4863 v -0.5 z" transform="rotate(180,-208.9965,1250.005)" id="path25652"></path>
      <g transform="matrix(1,0,0,-1,-61.9929,2500.02)" id="g25669">
        <g id="g25662" transform="translate(-17)">
          <g transform="translate(-2,-2)" id="g25660"></g>
        </g>
      </g>
    </g>
    <g id="g25684" transform="matrix(1,0,0,-1,0,2500.01)">
      <path style="color: rgb(0, 0, 0); fill: #ffffff; stroke-width: 1px; stroke-linecap: round; stroke-linejoin: round;" d="m -232,1242.9863 c -0.50478,0 -1.00956,0.3375 -1,1.0137 v 7 h 2 v -7 c 0.01,-0.6762 -0.49522,-1.0137 -1,-1.0137 z m 0,9.0274 c -1.09865,0 -2,0.9013 -2,2 0,0.8274 -0.13264,1.3367 -0.33203,1.5937 -0.1994,0.257 -0.49978,0.3926 -1.16797,0.3926 -0.11793,0 -0.23139,0.046 -0.32031,0.123 -0.0251,0.022 -0.048,0.046 -0.0684,0.072 -0.0409,0.053 -0.0708,0.1132 -0.0879,0.1777 -0.004,0.016 -0.007,0.033 -0.01,0.049 -0.003,0.017 -0.005,0.034 -0.006,0.051 -0.002,0.033 -7.6e-4,0.067 0.004,0.1 0.005,0.033 0.0138,0.065 0.0254,0.096 0.0107,0.031 0.0244,0.061 0.041,0.09 0.009,0.015 0.0188,0.029 0.0293,0.043 0.0403,0.053 0.0907,0.098 0.14844,0.1308 0.0742,0.043 0.15827,0.067 0.24414,0.068 2.01924,0 3.30957,-0.2641 4.16992,-0.7461 0.85624,-0.4797 1.23067,-1.2322 1.30078,-1.918 0.0175,-0.1066 0.0293,-0.2142 0.0293,-0.3222 0,-1.0987 -0.90135,-2 -2,-2 z" transform="matrix(1,0,0,-1,63,2500.01)" id="path25673"></path>
      <g transform="matrix(-1,0,0,1,-264,0)" id="g25682"></g>
    </g>
  </g>
</svg>