<svg xmlns="http://www.w3.org/2000/svg" height="64" width="64" viewBox="24 575 20 20">
  <g id="g21044" style="" data-label="BA-2">
    <path id="path20705" d="m 34.5,578 c -1.48507,0 -2.8535,0.46731 -3.86133,1.33594 C 29.63084,580.20456 29,581.48473 29,583 v 3.5 c 0,1.66667 0.001,2.82293 -0.89062,3.9375 -0.0709,0.0887 -0.10946,0.19893 -0.10938,0.3125 v 0.75 c 3e-5,0.27613 0.22387,0.49997 0.5,0.5 H 29 c 1.04885,0 2.13736,-0.63444 3.45898,-2.04297 l 1.66797,1.875 c 0.19883,0.22274 0.54727,0.22274 0.7461,0 l 1.62695,-1.83008 1.62695,1.83008 c 0.0947,0.10662 0.23044,0.16774 0.37305,0.16797 h 1 c 0.27613,-3e-5 0.49997,-0.22387 0.5,-0.5 v -2 -1 -5.5 c 0,-1.51527 -0.63084,-2.79544 -1.63867,-3.66406 C 37.3535,578.46731 35.98507,578 34.5,578 Z m -3.00781,4 c 0.1353,-0.002 0.26563,0.0508 0.36133,0.14648 l 2,2 c 0.31479,0.315 0.09181,0.85335 -0.35352,0.85352 h -2 c -0.27613,-3e-5 -0.49997,-0.22387 -0.5,-0.5 v -2 c -10e-6,-0.27311 0.21911,-0.496 0.49219,-0.5 z m 5.99219,0 c 0.2822,-0.009 0.51573,0.21765 0.51562,0.5 v 2 c -3e-5,0.27613 -0.22387,0.49997 -0.5,0.5 h -2 c -0.44532,-1.7e-4 -0.66831,-0.53852 -0.35352,-0.85352 l 2,-2 c 0.0899,-0.0901 0.21072,-0.14248 0.3379,-0.14648 z" style="color: rgb(0, 0, 0); fill: #ffffff; stroke-linecap: round; stroke-linejoin: round;"></path>
  </g>
</svg>