<svg xmlns="http://www.w3.org/2000/svg" style="background: #808080" height="64" width="64" viewBox="45 575 20 20">
  <g transform="translate(0.999966)" id="g13708" style="fill: #ffffff;" data-label="BA-3">
    <path style="color: rgb(0, 0, 0); fill: #ffffff; stroke-linecap: round; stroke-linejoin: round;" d="m 48.5,578 c -0.276131,3e-5 -0.499972,0.22387 -0.5,0.5 L 47.9922,589 c 0,1.51667 1.219299,3 2.984374,3 1.765077,0 3.015625,-1.475 3.015626,-3 L 54,578.5 c -2.8e-5,-0.27613 -0.223869,-0.49997 -0.5,-0.5 z m 2.5,10 c 0.546362,0 1,0.45364 1,1 0,0.54636 -0.453638,1 -1,1 -0.546362,0 -1,-0.45364 -1,-1 0,-0.54636 0.453638,-1 1,-1 z" transform="translate(-0.99998)" id="path13694"></path>
    <path style="color: rgb(0, 0, 0); opacity: 0.5; fill: #ffffff; stroke-linecap: round; stroke-linejoin: round;" d="m 58.492188,586 c -0.132599,2e-5 -0.259759,0.0527 -0.353516,0.14648 l -4.75,4.75 c -0.09377,0.0938 -0.14646,0.22092 -0.146484,0.35352 v 0.25 c 2.8e-5,0.27613 0.223869,0.49997 0.5,0.5 H 60.5 c 0.276131,-3e-5 0.499972,-0.22387 0.5,-0.5 v -5 c -2.8e-5,-0.27613 -0.223869,-0.49997 -0.5,-0.5 z" id="path13696"></path>
    <path style="color: rgb(0, 0, 0); opacity: 0.75; fill: #ffffff; stroke-linecap: round; stroke-linejoin: round;" d="m 56.486328,579 c -0.130565,0.002 -0.25534,0.0541 -0.347656,0.14648 l -2,2 c -0.09377,0.0938 -0.14646,0.22092 -0.146484,0.35352 v 6 c 1.71e-4,0.44532 0.538516,0.6683 0.853515,0.35352 l 5,-5 c 0.19519,-0.19527 0.19519,-0.51177 0,-0.70704 l -3,-3 C 56.750515,579.05126 56.620954,578.99846 56.486328,579 Z" id="path13698"></path>
  </g>
</svg>