<svg xmlns="http://www.w3.org/2000/svg" style="background: #808080" height="64" width="64" viewBox="83 548 20 20">
  <g transform="translate(21)" style="fill: #ffffff;" id="g23194" data-label="BA-5">
    <g transform="translate(430,-112)" id="g12465" style="fill:#ffffff"></g>
    <path style="color: rgb(0, 0, 0); fill: #ffffff; stroke-linecap: round; stroke-linejoin: round; marker: none;" d="m 79.570312,578.01758 c -0.797869,-0.038 -1.571767,0.27684 -2.160156,0.86523 l -1.486328,1.48828 c -0.615772,0.57533 -0.93433,1.35407 -0.892578,2.1543 a 0.50005,0.50005 0 1 0 0.998047,-0.0508 c -0.02687,-0.51495 0.155664,-0.98016 0.576172,-1.37305 a 0.50005,0.50005 0 0 0 0.01172,-0.0117 l 1.5,-1.5 c 0.411611,-0.41161 0.889666,-0.59872 1.404296,-0.57422 0.514631,0.0245 1.084383,0.26993 1.638672,0.82422 0.554795,0.5548 0.809544,1.13546 0.837891,1.65235 0.02835,0.51688 -0.152405,0.9848 -0.574219,1.3789 a 0.50005,0.50005 0 0 0 -0.01367,0.0117 l -1.5,1.5 c -0.412129,0.41213 -0.876932,0.60352 -1.396484,0.60352 a 0.50005,0.50005 0 1 0 0,1 c 0.780667,0 1.524905,-0.31788 2.103516,-0.89649 l 1.488281,-1.48828 c 0.617686,-0.57711 0.936606,-1.36125 0.892578,-2.16406 -0.04403,-0.80281 -0.435654,-1.60948 -1.130859,-2.30469 -0.695711,-0.69571 -1.499006,-1.07724 -2.296876,-1.11523 z m -1.080078,3.97851 a 0.50005,0.50005 0 0 0 -0.34375,0.15039 l -5,5 a 0.50005,0.50005 0 1 0 0.707032,0.70704 l 5,-5 a 0.50005,0.50005 0 0 0 -0.363282,-0.85743 z m -4.929687,2.02149 c -0.807524,-0.0482 -1.595401,0.26944 -2.175781,0.89062 l -1.488282,1.48828 c -0.588388,0.58839 -0.903228,1.36034 -0.865234,2.15821 0.03799,0.79787 0.419524,1.60311 1.115234,2.29883 0.695206,0.6952 1.503832,1.08487 2.306641,1.1289 0.802809,0.044 1.584996,-0.27294 2.162109,-0.89062 l 1.488282,-1.48828 C 76.682126,589.0249 77,588.28067 77,587.5 a 0.50005,0.50005 0 1 0 -1,0 c 0,0.51955 -0.191386,0.98436 -0.603516,1.39648 l -1.5,1.5 a 0.50005,0.50005 0 0 0 -0.01172,0.0117 c -0.394107,0.42182 -0.860068,0.60452 -1.376954,0.57618 -0.516885,-0.0283 -1.099502,-0.2831 -1.654296,-0.8379 -0.55429,-0.55428 -0.79776,-1.12404 -0.822266,-1.63867 -0.02451,-0.51463 0.160654,-0.99268 0.572266,-1.40429 l 1.5,-1.5 a 0.50005,0.50005 0 0 0 0.01172,-0.0117 c 0.39634,-0.4242 0.866283,-0.60725 1.386719,-0.57618 a 0.50005,0.50005 0 1 0 0.05859,-0.99804 z" id="path12469"></path>
  </g>
</svg>