<svg xmlns="http://www.w3.org/2000/svg" height="64" width="64" viewBox="108 575 20 20">
  <g style="fill: #ffffff;" id="g15743" transform="translate(221)" data-label="BA-6">
    <path style="color: rgb(0, 0, 0); fill: #ffffff; stroke-linecap: round; stroke-linejoin: round;" d="M -98.580078,578 C -99.98888,578 -101,579.16322 -101,580.5 a 0.50005,0.50005 0 1 0 1,0 c 0,-0.87198 0.530524,-1.5 1.419922,-1.5 0.889383,0 1.580078,0.67678 1.580078,1.5 0,0.82323 -0.69069,1.49999 -1.580078,1.5 h -4.914062 a 0.50005,0.50005 0 1 0 0,1 h 4.914062 C -97.171286,582.99999 -96,581.88555 -96,580.5 c 0,-1.38554 -1.171281,-2.5 -2.580078,-2.5 z m -8.916012,0.004 c -1.38554,0 -2.5,1.17128 -2.5,2.58007 0,1.40881 1.16321,2.41797 2.5,2.41797 a 0.50005,0.50005 0 1 0 0,-1 c -0.87198,0 -1.5,-0.52857 -1.5,-1.41797 0,-0.88938 0.67678,-1.58007 1.5,-1.58007 0.82323,0 1.49804,0.69069 1.49804,1.58007 v 4.91211 a 0.50005,0.50005 0 1 0 1,0 v -4.91211 c -10e-6,-1.40879 -1.1125,-2.58007 -2.49804,-2.58007 z m 6.98828,5.98828 A 0.50005,0.50005 0 0 0 -101,584.5 v 4.91211 c 1e-5,1.40879 1.114453,2.58008 2.5,2.58008 1.385539,0 2.5,-1.17128 2.5,-2.58008 0,-1.4088 -1.163215,-2.41992 -2.5,-2.41992 a 0.50005,0.50005 0 1 0 0,1 c 0.871975,0 1.5,0.53052 1.5,1.41992 0,0.88938 -0.676779,1.58008 -1.5,1.58008 -0.823233,0 -1.499992,-0.69069 -1.5,-1.58008 V 584.5 a 0.50005,0.50005 0 0 0 -0.50781,-0.50781 z m -6.90821,3.0039 c -1.40879,2e-5 -2.58007,1.11446 -2.58007,2.5 0,1.38554 1.17128,2.5 2.58007,2.5 1.40881,0 2.41993,-1.16321 2.41993,-2.5 a 0.50005,0.50005 0 1 0 -1,0 c 0,0.87198 -0.53053,1.5 -1.41993,1.5 -0.88938,0 -1.58007,-0.67678 -1.58007,-1.5 0,-0.82323 0.69069,-1.49999 1.58007,-1.5 h 4.91211 a 0.50005,0.50005 0 1 0 0,-1 z" id="path10848"></path>
  </g>
</svg>