<svg xmlns="http://www.w3.org/2000/svg" style="background: #808080" height="64" width="64" viewBox="129 575 20 20">
  <g style="fill: #ffffff;" id="g10061" data-label="BA-7">
    <g id="g9978" transform="translate(159,3)" style="fill: #ffffff;">
      <g style="fill: #ffffff; stroke-width: 1.25053;" id="g9976" transform="matrix(0.799663,0,0,0.799663,-130.651,113.695)">
        <path style="color: rgb(0, 0, 0); fill: #ffffff; stroke-linecap: round; stroke-linejoin: round;" d="m 142,578 c -2.19759,0 -4,1.80241 -4,4 0,0.9193 0.32769,1.75955 0.85547,2.4375 l -3.70899,3.70898 a 0.50029086,0.50029086 0 1 0 0.70704,0.70704 l 3.70898,-3.70899 C 140.24045,585.67231 141.0807,586 142,586 c 2.19759,0 4,-1.80241 4,-4 0,-2.19759 -1.80241,-4 -4,-4 z m 0,1 c 1.65213,0 3,1.34787 3,3 0,1.65213 -1.34787,3 -3,3 -1.65214,0 -3,-1.34787 -3,-3 0,-1.65214 1.34786,-3 3,-3 z" transform="matrix(1.25053,0,0,1.25053,-35.4509,-145.93)" id="path9971"></path>
      </g>
    </g>
    <g style="opacity: 0.6; fill: #ffffff; stroke: #ffffff; stroke-width: 0.8; stroke-linecap: round; stroke-linejoin: round;" transform="translate(-21,84.9994)" id="g10042">
      <path style="color: rgb(0, 0, 0); fill: #ffffff; fill-rule: evenodd; stroke-width: 1px; stroke-linecap: round; stroke-linejoin: round;" d="m 135.48438,579 c -0.12718,0.004 -0.248,0.0564 -0.3379,0.14648 l -3,3 c -0.31479,0.315 -0.0918,0.85335 0.35352,0.85352 h 3 c 0.27613,-3e-5 0.49997,-0.22387 0.5,-0.5 V 580 h 0.5 c 0.67616,0.01 0.67616,-1.00956 0,-1 h -1 v 0.002 c -0.005,0 -0.0101,-0.002 -0.0156,-0.002 z M 132,584 v 7.5 c 3e-5,0.27613 0.22387,0.49997 0.5,0.5 h 9 c 0.27613,-3e-5 0.49997,-0.22387 0.5,-0.5 v -4 c 0.01,-0.67616 -1.00956,-0.67616 -1,0 v 3.5 h -8 v -7 z" transform="translate(21,-84.9994)" id="path10038"></path>
    </g>
  </g>
</svg>