<svg xmlns="http://www.w3.org/2000/svg" style="background: #808080" height="64" width="64" viewBox="150 575 20 20">
  <g id="g5759" style="fill: #ffffff;" data-label="BA-8">
    <path id="path12148" d="m 161.5,578 c -3.02272,0 -5.5,2.47726 -5.5,5.5 0,1.3328 0.48165,2.55856 1.2793,3.51367 l -4.13282,4.13281 a 0.50005,0.50005 0 1 0 0.70704,0.70704 l 4.13281,-4.13282 C 158.94144,588.51835 160.1672,589 161.5,589 c 3.02273,0 5.5,-2.47727 5.5,-5.5 0,-3.02274 -2.47727,-5.5 -5.5,-5.5 z m 0,1 c 2.47727,0 4.5,2.02272 4.5,4.5 0,2.47727 -2.02273,4.5 -4.5,4.5 -2.47726,0 -4.5,-2.02273 -4.5,-4.5 0,-2.47728 2.02274,-4.5 4.5,-4.5 z" style="color: rgb(0, 0, 0); fill: #ffffff; stroke-linecap: round; stroke-linejoin: round;"></path>
    <path id="path12161" d="m 159.5,583 c -0.27613,3e-5 -0.49997,0.22387 -0.5,0.5 v 2.2168 c -2.1e-4,0.14132 0.0594,0.27613 0.16406,0.37109 0.61652,0.55704 1.43526,0.91211 2.33594,0.91211 0.90068,0 1.71942,-0.35507 2.33594,-0.91211 0.10467,-0.095 0.16427,-0.22977 0.16406,-0.37109 V 583.5 c -3e-5,-0.27613 -0.22387,-0.49997 -0.5,-0.5 z m 0.97266,6.91992 c -0.2654,0.0146 -0.47303,0.2342 -0.47266,0.5 V 591.5 c 3e-5,0.27613 0.22387,0.49997 0.5,0.5 h 2 c 0.27613,-3e-5 0.49997,-0.22387 0.5,-0.5 v -1.08008 c -4.1e-4,-0.30465 -0.27082,-0.53814 -0.57227,-0.49414 -0.31225,0.0453 -0.61944,0.0742 -0.92773,0.0742 -0.30829,0 -0.61548,-0.0289 -0.92773,-0.0742 -0.0329,-0.005 -0.0663,-0.007 -0.0996,-0.006 z" style="color: rgb(0, 0, 0); fill: #ffffff; stroke-width: 1px; stroke-linecap: round; stroke-linejoin: round;"></path>
  </g>
</svg>