<svg xmlns="http://www.w3.org/2000/svg" style="background: #808080" height="64" width="64" viewBox="276 50 20 20">
  <g id="g41652" style="" data-label="C-14">
    <path style="color: rgb(0, 0, 0); fill: #ffffff; stroke-linecap: round; stroke-linejoin: round;" d="m 283.49023,52.996094 a 0.50005,0.50005 0 0 0 -0.34375,0.15039 l -4,4 a 0.50005,0.50005 0 0 0 0,0.707032 l 4,4 a 0.50005,0.50005 0 1 0 0.70704,-0.707032 L 280.70703,58 H 288 c 2.21506,0 4,1.784939 4,4 0,2.215061 -1.78494,4 -4,4 h -1.5 a 0.50005,0.50005 0 1 0 0,1 h 1.5 c 2.7555,0 5,-2.244499 5,-5 0,-2.755501 -2.2445,-5 -5,-5 h -7.29297 l 3.14649,-3.146484 a 0.50005,0.50005 0 0 0 -0.36329,-0.857422 z" id="path13225"></path>
  </g>
</svg>