<svg xmlns="http://www.w3.org/2000/svg" style="background: #808080" height="64" width="64" viewBox="297 50 20 20">
  <g id="g41649" style="" data-label="C-15">
    <path style="color: rgb(0, 0, 0); fill: #ffffff; stroke-linecap: round; stroke-linejoin: round;" d="m 309.49414,52.994141 a 0.50005,0.50005 0 0 0 -0.34766,0.859375 L 312.29297,57 H 305 c -2.7555,0 -5,2.244499 -5,5 0,2.755501 2.2445,5 5,5 h 1.5 a 0.50005,0.50005 0 1 0 0,-1 H 305 c -2.21506,0 -4,-1.784939 -4,-4 0,-2.215061 1.78494,-4 4,-4 h 7.29297 l -3.14649,3.146484 a 0.50005,0.50005 0 1 0 0.70704,0.707032 l 4,-4 a 0.50005,0.50005 0 0 0 0,-0.707032 l -4,-4 a 0.50005,0.50005 0 0 0 -0.35938,-0.152343 z" id="path13229"></path>
  </g>
</svg>