<svg xmlns="http://www.w3.org/2000/svg" style="background: #808080" height="64" width="64" viewBox="423 48 20 20">
  <g transform="translate(-21.0023)" style="fill: #ffffff; stroke: #ffffff;" id="g13169-8-6" data-label="C-22">
    <path style="color: rgb(0, 0, 0); fill: #ffffff; stroke-linecap: round; stroke-linejoin: round; marker: none;" d="M 469.49414,55.992188 A 0.50004982,0.50004982 0 0 0 469.00195,56.5 v 7 a 0.50004982,0.50004982 0 1 0 1,0 v -7 a 0.50004982,0.50004982 0 0 0 -0.50781,-0.507812 z m 2,1 A 0.50004982,0.50004982 0 0 0 471.00195,57.5 v 7 a 0.50004982,0.50004982 0 1 0 1,0 v -7 a 0.50004982,0.50004982 0 0 0 -0.50781,-0.507812 z m 2,1 A 0.50004982,0.50004982 0 0 0 473.00195,58.5 v 7 a 0.50004982,0.50004982 0 1 0 1,0 v -7 a 0.50004982,0.50004982 0 0 0 -0.50781,-0.507812 z m 2,1 A 0.50004982,0.50004982 0 0 0 475.00195,59.5 v 7 a 0.50004982,0.50004982 0 1 0 1,0 v -7 a 0.50004982,0.50004982 0 0 0 -0.50781,-0.507812 z" id="path13150-5-2"></path>
    <path style="color: rgb(0, 0, 0); opacity: 0.9; fill: #ffffff; stroke-linecap: round; stroke-linejoin: round; marker: none;" d="m 471.49609,54.992188 a 0.50004982,0.50004982 0 0 0 -0.49414,0.505859 v 0.25 a 0.50004982,0.50004982 0 1 0 1,0.0039 v -0.25 a 0.50004982,0.50004982 0 0 0 -0.50586,-0.509765 z m 2,1 a 0.50004982,0.50004982 0 0 0 -0.49414,0.505859 l -0.002,0.25 a 0.50004982,0.50004982 0 1 0 1,0.0039 l 0.002,-0.25 a 0.50004982,0.50004982 0 0 0 -0.50586,-0.509765 z m 2,1 a 0.50004982,0.50004982 0 0 0 -0.49414,0.505859 l -0.002,0.25 a 0.50004982,0.50004982 0 1 0 1,0.0039 l 0.002,-0.25 a 0.50004982,0.50004982 0 0 0 -0.50586,-0.509765 z m 1.99805,1 A 0.50004982,0.50004982 0 0 0 477.00195,58.5 v 7 a 0.50004982,0.50004982 0 1 0 1,0 v -7 a 0.50004982,0.50004982 0 0 0 -0.50781,-0.507812 z" id="path13154-7-3"></path>
    <path style="color: rgb(0, 0, 0); opacity: 0.8; fill: #ffffff; stroke-linecap: round; stroke-linejoin: round; marker: none;" d="m 473.49609,53.992188 a 0.50004982,0.50004982 0 0 0 -0.49414,0.505859 v 0.25 a 0.50004982,0.50004982 0 1 0 1,0.0039 v -0.25 a 0.50004982,0.50004982 0 0 0 -0.50586,-0.509765 z m 2,1 a 0.50004982,0.50004982 0 0 0 -0.49414,0.505859 l -0.002,0.25 a 0.50004982,0.50004982 0 1 0 1,0.0039 l 0.002,-0.25 a 0.50004982,0.50004982 0 0 0 -0.50586,-0.509765 z m 2,1 a 0.50004982,0.50004982 0 0 0 -0.49414,0.505859 l -0.002,0.25 a 0.50004982,0.50004982 0 1 0 1,0.0039 l 0.002,-0.25 a 0.50004982,0.50004982 0 0 0 -0.50586,-0.509765 z m 1.99805,1 A 0.50004982,0.50004982 0 0 0 479.00195,57.5 v 7 a 0.50004982,0.50004982 0 1 0 1,0 v -7 a 0.50004982,0.50004982 0 0 0 -0.50781,-0.507812 z" id="path13161-0-0"></path>
    <path style="color: rgb(0, 0, 0); opacity: 0.7; fill: #ffffff; stroke-linecap: round; stroke-linejoin: round; marker: none;" d="m 475.49609,52.992188 a 0.50004982,0.50004982 0 0 0 -0.49414,0.505859 v 0.25 a 0.50004982,0.50004982 0 1 0 1,0.0039 v -0.25 a 0.50004982,0.50004982 0 0 0 -0.50586,-0.509765 z m 2,1 a 0.50004982,0.50004982 0 0 0 -0.49414,0.505859 l -0.002,0.25 a 0.50004982,0.50004982 0 1 0 1,0.0039 l 0.002,-0.25 a 0.50004982,0.50004982 0 0 0 -0.50586,-0.509765 z m 2,1 a 0.50004982,0.50004982 0 0 0 -0.49414,0.505859 l -0.002,0.25 a 0.50004982,0.50004982 0 1 0 1,0.0039 l 0.002,-0.25 a 0.50004982,0.50004982 0 0 0 -0.50586,-0.509765 z m 1.99805,1 A 0.50004982,0.50004982 0 0 0 481.00195,56.5 v 7 a 0.50004982,0.50004982 0 1 0 1,0 v -7 a 0.50004982,0.50004982 0 0 0 -0.50781,-0.507812 z" id="path13163-4-8"></path>
  </g>
</svg>