<svg xmlns="http://www.w3.org/2000/svg" height="64" width="64" viewBox="486 50 20 20">
  <g style="stroke: #ffffff;" id="g28228" transform="translate(-1)" data-label="C-24">
    <g style="opacity: 0.99; stroke: #ffffff;" transform="translate(339,-440)" id="g28217">
      <path style="fill: #ffffff; stroke-linecap: round; stroke-linejoin: round;" d="M 501.49219,52.992188 C 501.21604,52.996495 500.99568,53.223854 501,53.5 v 1 c -0.01,0.676161 1.00956,0.676161 1,0 v -1 c 0.004,-0.282265 -0.22554,-0.512227 -0.50781,-0.507812 z M 495.48438,53 c -0.12718,0.004 -0.248,0.0564 -0.3379,0.146484 l -5,5 c -0.10126,0.101337 -0.1304,0.223491 -0.13086,0.345704 L 490,58.507812 V 60.5 c -0.01,0.676161 1.00956,0.676161 1,0 V 59 h 4.5 c 0.27613,-3e-5 0.49997,-0.22387 0.5,-0.5 V 54 h 0.5 c 0.67616,0.0096 0.67616,-1.009563 0,-1 h -1 v 0.002 c -0.005,-5e-6 -0.0101,-0.0021 -0.0156,-0.002 z M 498.5,53 c -0.67616,-0.0096 -0.67616,1.009563 0,1 h 1 c 0.67616,0.0096 0.67616,-1.009563 0,-1 z m 2.99219,2.992188 C 501.21604,55.996495 500.99568,56.223854 501,56.5 v 1 c -0.01,0.676161 1.00956,0.676161 1,0 v -1 c 0.004,-0.282265 -0.22554,-0.512227 -0.50781,-0.507812 z m 0,3 C 501.21604,58.996495 500.99568,59.223854 501,59.5 v 1 c -0.01,0.676161 1.00956,0.676161 1,0 v -1 c 0.004,-0.282265 -0.22554,-0.512227 -0.50781,-0.507812 z m -11,3 C 490.21604,61.996495 489.99568,62.223854 490,62.5 v 1 c -0.01,0.676161 1.00956,0.676161 1,0 v -1 c 0.004,-0.282265 -0.22554,-0.512227 -0.50781,-0.507812 z m 11,0 C 501.21604,61.996495 500.99568,62.223854 501,62.5 v 1 c -0.01,0.676161 1.00956,0.676161 1,0 v -1 c 0.004,-0.282265 -0.22554,-0.512227 -0.50781,-0.507812 z m -11,3 C 490.21604,64.996494 489.99568,65.223854 490,65.5 v 1 c -0.01,0.676161 1.00956,0.676161 1,0 v -1 c 0.004,-0.282265 -0.22554,-0.512227 -0.50781,-0.507812 z m 11,0 C 501.21604,64.996494 500.99568,65.223854 501,65.5 v 1 c -0.01,0.676161 1.00956,0.676161 1,0 v -1 c 0.004,-0.282265 -0.22554,-0.512227 -0.50781,-0.507812 z M 492.5,66 c -0.67616,-0.0096 -0.67616,1.009563 0,1 h 1 c 0.67616,0.0096 0.67616,-1.009563 0,-1 z m 3,0 c -0.67616,-0.0096 -0.67616,1.009563 0,1 h 1 c 0.67616,0.0096 0.67616,-1.009563 0,-1 z m 3,0 c -0.67616,-0.0096 -0.67616,1.009563 0,1 h 1 c 0.67616,0.0096 0.67616,-1.009563 0,-1 z" transform="translate(-338,440)" id="path28215"></path>
    </g>
  </g>
</svg>