<svg xmlns="http://www.w3.org/2000/svg" style="background: #808080" height="64" width="64" viewBox="503 48 20 20">
  <g style="" id="g27713" transform="translate(-80)" data-label="C-26">
    <path id="rect27779" style="fill: #ffffff; stroke-linecap: round; stroke-linejoin: round; marker: none;" d="m 618,63 h 1 v 1.999999 h -1 z m -2,0 h 1 v 1.999999 h -1 z m -2,0 h 1 v 1.999999 h -1 z M 613.53711,53 C 612.69436,53 612,53.694362 612,54.537109 v 8 2.925782 C 612,66.305638 612.69436,67 613.53711,67 h 8.92578 c 0.73741,0 1.36143,-0.531036 1.50586,-1.228516 0.0206,-0.09964 0.0312,-0.20325 0.0312,-0.308593 v -2.925782 -8 C 624,53.694362 623.30564,53 622.46289,53 Z m 0,9 h 8.92578 C 622.76894,62 623,62.231065 623,62.537109 v 2.925782 C 623,65.768935 622.76894,66 622.46289,66 h -8.92578 C 613.23106,66 613,65.768935 613,65.462891 V 62.537109 C 613,62.231065 613.23106,62 613.53711,62 Z"></path>
  </g>
</svg>