<svg xmlns="http://www.w3.org/2000/svg" height="64" width="64" viewBox="66 50 20 20">
  <g style="fill: #ffffff;" id="g10711" transform="translate(598,-637)" data-label="C-4">
    <g transform="translate(-189)" id="g10709" style="fill:#ffffff">
      <rect y="214.99997" x="-152" height="16" width="16" id="rect10699" style="opacity: 0; fill: #ffffff; fill-rule: evenodd; stroke-width: 2.8;" transform="rotate(-90,-12,565)"></rect>
      <g id="g10703" style="fill:#ffffff"></g>
      <path id="path10707" style="fill: #ffffff; stroke-linecap: round; stroke-linejoin: round;" d="m -350.42969,690.01758 c -0.79787,-0.038 -1.57177,0.27684 -2.16015,0.86523 l -1.48633,1.48828 c -0.61577,0.57533 -0.93433,1.35407 -0.89258,2.1543 a 0.50005,0.50005 0 1 0 0.99805,-0.0508 c -0.0269,-0.51495 0.15566,-0.98016 0.57617,-1.37305 a 0.50005,0.50005 0 0 0 0.0117,-0.0117 l 1.5,-1.5 c 0.41161,-0.41161 0.88966,-0.59872 1.40429,-0.57422 0.51464,0.0245 1.08439,0.26993 1.63868,0.82422 0.55479,0.5548 0.80954,1.13546 0.83789,1.65235 0.0283,0.51688 -0.15241,0.9848 -0.57422,1.3789 a 0.50005,0.50005 0 0 0 -0.0137,0.0117 l -1.5,1.5 c -0.41213,0.41213 -0.87694,0.60352 -1.39649,0.60352 a 0.50005,0.50005 0 1 0 0,1 c 0.78067,0 1.52491,-0.31788 2.10352,-0.89649 l 1.48828,-1.48828 c 0.61768,-0.57711 0.9366,-1.36125 0.89258,-2.16406 -0.044,-0.80281 -0.43566,-1.60948 -1.13086,-2.30469 -0.69571,-0.69571 -1.49901,-1.07724 -2.29688,-1.11523 z m -6.00976,6 c -0.80753,-0.0482 -1.5954,0.26944 -2.17578,0.89062 l -1.48829,1.48828 c -0.58838,0.58839 -0.90322,1.36034 -0.86523,2.15821 0.038,0.79787 0.41952,1.60311 1.11523,2.29883 0.69521,0.6952 1.50384,1.08487 2.30664,1.1289 0.80281,0.044 1.585,-0.27294 2.16211,-0.89062 l 1.48829,-1.48828 C -353.31787,701.0249 -353,700.28067 -353,699.5 a 0.50005,0.50005 0 1 0 -1,0 c 0,0.51955 -0.19139,0.98436 -0.60352,1.39648 l -1.5,1.5 a 0.50005,0.50005 0 0 0 -0.0117,0.0117 c -0.39411,0.42182 -0.86007,0.60452 -1.37696,0.57618 -0.51688,-0.0283 -1.0995,-0.2831 -1.65429,-0.8379 -0.55429,-0.55428 -0.79776,-1.12404 -0.82227,-1.63867 -0.0245,-0.51463 0.16065,-0.99268 0.57227,-1.40429 l 1.5,-1.5 a 0.50005,0.50005 0 0 0 0.0117,-0.0117 c 0.39634,-0.4242 0.86629,-0.60725 1.38672,-0.57618 a 0.50005,0.50005 0 1 0 0.0586,-0.99804 z m 4.92968,-2.02149 a 0.50005,0.50005 0 0 0 -0.34375,0.15039 l -5,5 a 0.50005,0.50005 0 1 0 0.70704,0.70704 l 5,-5 a 0.50005,0.50005 0 0 0 -0.36329,-0.85743 z"></path>
    </g>
  </g>
</svg>