<svg xmlns="http://www.w3.org/2000/svg" height="64" width="64" viewBox="87 50 20 20">
  <g transform="translate(42,1)" id="g10697" style="fill: #ffffff;" data-label="C-5">
    <path style="color: rgb(0, 0, 0); fill: #ffffff; stroke-width: 1px; stroke-linecap: round; stroke-linejoin: round;" d="m 35.744141,52.003906 c -0.89409,0.01843 -1.828792,0.373713 -2.597657,1.142578 l -5,5 c -0.837869,0.83787 -1.178323,2.041781 -1.11914,3.226563 0.05918,1.184782 0.515289,2.376617 1.36914,3.230469 0.852133,0.852132 2.037527,1.314671 3.220704,1.376953 1.183176,0.06228 2.389387,-0.280013 3.236328,-1.126953 l 6,-6 a 0.50005,0.50005 0 1 0 -0.707032,-0.707032 l -6,6 c -0.60312,0.603121 -1.522254,0.886172 -2.476562,0.835938 -0.954308,-0.05023 -1.918539,-0.43807 -2.566406,-1.085938 -0.646149,-0.646148 -1.030262,-1.616046 -1.078125,-2.574218 -0.04786,-0.958173 0.23781,-1.878436 0.828125,-2.46875 l 5,-5 c 1.184971,-1.184974 2.75871,-1.004381 3.554687,-0.248047 0.796393,0.756731 0.863064,2.416231 -0.261719,3.541015 l -4.5,4.5 c -0.592865,0.592866 -1.094745,0.448224 -1.417968,0.125 -0.323224,-0.323223 -0.467866,-0.825103 0.125,-1.417968 l 3.5,-3.5 a 0.50005,0.50005 0 1 0 -0.707032,-0.707032 l -3.5,3.5 c -0.907134,0.907135 -0.801776,2.155255 -0.125,2.832032 0.676777,0.676776 1.924897,0.782134 2.832032,-0.125 l 4.5,-4.5 c 1.483397,-1.483398 1.519845,-3.762437 0.24414,-4.97461 -0.60598,-0.5758 -1.459426,-0.89343 -2.353515,-0.875 z" id="path10693"></path>
    <rect style="opacity: 0; fill: #ffffff; stroke-width: 1px; stroke-linecap: round; stroke-linejoin: round;" id="rect10695" width="16" height="16" x="26" y="52" rx="0.5" ry="0.5"></rect>
  </g>
</svg>