<svg xmlns="http://www.w3.org/2000/svg" height="64" width="64" viewBox="234 596 20 20">
  <g id="g17692" style="" data-label="CA-12">
    <path style="fill: #ffffff; stroke-linecap: round; stroke-linejoin: round;" d="m 240,602 c -1.21759,0 -2.24187,0.34734 -2.94727,1.05273 C 236.34734,603.75813 236,604.78241 236,606 v 3.41992 a 0.50005,0.50005 0 0 0 0.11328,0.4043 0.50005,0.50005 0 0 0 0.0156,0.0195 0.50005,0.50005 0 0 0 0.0176,0.0176 0.50005,0.50005 0 0 0 0.004,0.002 0.50005,0.50005 0 0 0 0.0332,0.0312 0.50005,0.50005 0 0 0 0.004,0.002 A 0.50005,0.50005 0 0 0 236.58203,610 H 236.75 A 0.50005,0.50005 0 0 0 237,609.06445 V 606 c 0,-1.03241 0.27766,-1.75813 0.75977,-2.24023 C 238.24187,603.27766 238.96759,603 240,603 h 4.29297 l 2.85351,2.85352 A 0.50005,0.50005 0 0 0 247.5,606 h 1.5 c 0.63889,0 1.1225,0.20453 1.45898,0.54102 C 250.79547,606.8775 251,607.36111 251,608 v 1.5 a 0.50005,0.50005 0 1 0 1,0 V 608 c 0,-0.86111 -0.29547,-1.6275 -0.83398,-2.16602 C 250.6275,605.29547 249.86111,605 249,605 h -1.29297 l -2.85351,-2.85352 A 0.50005,0.50005 0 0 0 244.5,602 Z m -0.5,7 c -0.8225,0 -1.5,0.6775 -1.5,1.5 0,0.8225 0.6775,1.5 1.5,1.5 0.8225,0 1.5,-0.6775 1.5,-1.5 0,-0.8225 -0.6775,-1.5 -1.5,-1.5 z m 3,0 a 0.50005,0.50005 0 1 0 0,1 h 3 a 0.50005,0.50005 0 1 0 0,-1 z m 6,0 c -0.8225,0 -1.5,0.6775 -1.5,1.5 0,0.8225 0.6775,1.5 1.5,1.5 0.8225,0 1.5,-0.6775 1.5,-1.5 0,-0.8225 -0.6775,-1.5 -1.5,-1.5 z m -9,1 c 0.28206,0 0.5,0.21794 0.5,0.5 0,0.28206 -0.21794,0.5 -0.5,0.5 -0.28206,0 -0.5,-0.21794 -0.5,-0.5 0,-0.28206 0.21794,-0.5 0.5,-0.5 z m 9,0 c 0.28206,0 0.5,0.21794 0.5,0.5 0,0.28206 -0.21794,0.5 -0.5,0.5 -0.28206,0 -0.5,-0.21794 -0.5,-0.5 0,-0.28206 0.21794,-0.5 0.5,-0.5 z" id="circle12878-4"></path>
  </g>
</svg>