<svg xmlns="http://www.w3.org/2000/svg" height="64" width="64" viewBox="255 596 20 20">
  <g id="g17704" style="" data-label="CA-13">
    <path style="opacity: 0.55; fill: #ffffff; stroke-linecap: square; stroke-linejoin: round;" d="M 261.03125,601 C 260.46859,601 260,601.46859 260,602.03125 v 7.9375 c 0,0.56266 0.46859,1.03125 1.03125,1.03125 h 7.9375 C 269.53141,611 270,610.53141 270,609.96875 v -7.9375 C 270,601.46859 269.53141,601 268.96875,601 Z m 0,1 h 7.9375 c 0.026,0 0.0312,0.005 0.0312,0.0312 v 7.9375 c 0,0.026 -0.005,0.0312 -0.0312,0.0312 h -7.9375 c -0.026,0 -0.0312,-0.005 -0.0312,-0.0312 v -7.9375 c 0,-0.026 0.005,-0.0312 0.0312,-0.0312 z" id="rect13790"></path>
  </g>
</svg>