<svg xmlns="http://www.w3.org/2000/svg" height="64" width="64" viewBox="276 596 20 20">
  <g id="g17707" style="" data-label="CA-14">
    <path id="path13905" d="M 282.03125,601 C 281.46859,601 281,601.46859 281,602.03125 v 7.9375 c 0,0.56266 0.46859,1.03125 1.03125,1.03125 h 7.9375 C 290.53141,611 291,610.53141 291,609.96875 v -7.9375 C 291,601.46859 290.53141,601 289.96875,601 Z m 6.94922,1.99023 a 1.0001,1.0001 0 0 1 0.72656,1.7168 l -4,4 a 1.0001,1.0001 0 0 1 -1.41406,0 l -2,-2 a 1.0001,1.0001 0 1 1 1.41406,-1.41406 l 1.29297,1.29297 3.29297,-3.29297 a 1.0001,1.0001 0 0 1 0.6875,-0.30274 z" style="color: rgb(0, 0, 0); fill: #ffffff; stroke-linecap: square; stroke-linejoin: round;"></path>
  </g>
</svg>