<svg xmlns="http://www.w3.org/2000/svg" height="64" width="64" viewBox="192 596 20 20">
  <g transform="translate(63,21.0417)" id="g11141" style="fill: #ffffff;" data-label="CA-10">
    <g transform="translate(-126)" id="g11139" style="fill:#ffffff">
      <path style="fill: #ffffff; stroke-linecap: round; stroke-linejoin: round;" d="m 206.72656,599 c -0.19328,-0.004 -0.38654,0.0132 -0.57422,0.0508 -0.75071,0.15014 -1.44693,0.5778 -2.00586,1.13672 l -2.14453,2.10742 -1.14843,-1.14844 a 0.50005,0.50005 0 0 0 -0.35938,-0.15234 0.50005,0.50005 0 0 0 -0.34766,0.85938 l 1.64649,1.64648 -4.64844,4.68945 A 0.50005,0.50005 0 0 0 197,608.54102 v 0.79296 l -1.85352,1.85352 a 0.50005,0.50005 0 1 0 0.70704,0.70703 l 2,-2 A 0.50005,0.50005 0 0 0 198,609.54102 v -0.79493 l 4.50195,-4.53711 1.29297,1.29297 -4.5039,4.53907 H 198.5 a 0.50005,0.50005 0 0 0 -0.35352,0.14648 l -2,2 a 0.50005,0.50005 0 1 0 0.70704,0.70703 l 1.85351,-1.85351 H 199.5 a 0.50005,0.50005 0 0 0 0.35547,-0.14844 l 4.64648,-4.6836 1.64453,1.64454 a 0.50005,0.50005 0 1 0 0.70704,-0.70704 l -1.14258,-1.14257 2.13867,-2.10547 0.004,-0.004 c 0.55892,-0.55893 0.98657,-1.25515 1.13671,-2.00586 0.15015,-0.75072 -0.0189,-1.58331 -0.63671,-2.20117 -0.4634,-0.46339 -1.04712,-0.67435 -1.62696,-0.6875 z" transform="translate(63,-21.0417)" id="path11133"></path>
    </g>
  </g>
</svg>