<svg xmlns="http://www.w3.org/2000/svg" height="64" width="64" viewBox="381 596 20 20">
  <g style="fill: #ffffff;" id="g13042" transform="translate(-21,42)" data-label="CA-19">
    <g id="g13022" transform="translate(-42.0072,397.993)" style="fill: #ffffff;">
      <path style="color: rgb(0, 0, 0); opacity: 0.6; fill: #ffffff; fill-rule: evenodd; stroke-linecap: round; stroke-linejoin: round;" d="m 447.5,159 c -0.27613,3e-5 -0.49997,0.22387 -0.5,0.5 v 10 c 3e-5,0.27613 0.22387,0.49997 0.5,0.5 h 5.5 v 2 h -2.5 c -0.67616,-0.01 -0.67616,1.00956 0,1 h 7 c 0.67616,0.01 0.67616,-1.00956 0,-1 H 455 v -2 h 5.5 c 0.27613,-3e-5 0.49997,-0.22387 0.5,-0.5 v -10 c -3e-5,-0.27613 -0.22387,-0.49997 -0.5,-0.5 z m 0.5,1 h 12 v 9 h -12 z" id="path13020"></path>
    </g>
    <path style="color: rgb(0, 0, 0); fill: #ffffff; stroke-linecap: round; stroke-linejoin: round;" d="m 410.49023,558.99609 a 0.50005,0.50005 0 0 0 -0.34375,0.15039 l -3,3 a 0.50005,0.50005 0 0 0 0,0.70704 l 3,3 a 0.50005,0.50005 0 1 0 0.70704,-0.70704 L 408.70703,563 H 416.5 a 0.50005,0.50005 0 1 0 0,-1 h -7.79297 l 2.14649,-2.14648 a 0.50005,0.50005 0 0 0 -0.36329,-0.85743 z" id="path12420-1"></path>
  </g>
</svg>