<svg xmlns="http://www.w3.org/2000/svg" style="background: #808080" height="64" width="64" viewBox="23 568 20 20">
  <g style="fill: #ffffff;" transform="translate(-420.007,439.993)" id="g7406-1-2" data-label="CA-2">
    <path style="color: rgb(0, 0, 0); fill: #ffffff; fill-rule: evenodd; stroke-linejoin: round;" d="m 27.492188,598.99219 a 0.50005,0.50005 0 0 0 -0.5,0.5 v 9 a 0.50005,0.50005 0 0 0 0.5,0.5 h 13 a 0.50005,0.50005 0 0 0 0.5,-0.49805 L 41,605 l -1,-0.002 -0.0059,2.99414 H 27.992188 v -8 h 8 v 3.5 c 2.9e-5,0.27613 0.223869,0.49997 0.5,0.5 h 4 c 0.44533,-1.7e-4 0.668305,-0.53852 0.353515,-0.85352 l -4,-4 c -0.09376,-0.0938 -0.22116,-0.14439 -0.353515,-0.14453 v -0.002 h -0.0078 z M 35,610 l -2,0.004 v 1.98828 h -2.507812 c -0.67616,-0.01 -0.67616,1.00956 0,1 h 7 c 0.676159,0.01 0.676159,-1.00956 0,-1 H 35 Z" transform="translate(420.007,-439.993)" id="path7395-0-0"></path>
  </g>
</svg>