<svg xmlns="http://www.w3.org/2000/svg" style="background: #808080" height="64" width="64" viewBox="465 596 20 20">
  <g id="g9239" style="" data-label="CA-23">
    <path style="color: rgb(0, 0, 0); fill: #ffffff; stroke-linejoin: round;" d="m 468.4999,598.99994 a 0.50005,0.50005 0 0 0 -0.5,0.5 v 3.5 h 1 v -3 h 3 v -1 z m 9.5,0 v 1 h 3 v 3 h 1 v -3.5 a 0.50005,0.50005 0 0 0 -0.5,-0.5 z m -10,10 v 3.5 a 0.50005,0.50005 0 0 0 0.5,0.5 h 3.5 v -1 h -3 v -3 z m 13,0 v 3 h -3 v 1 h 3.5 a 0.50005,0.50005 0 0 0 0.5,-0.5 v -3.5 z" id="path24895-4"></path>
    <path style="color: rgb(0, 0, 0); opacity: 0.65; fill: #ffffff; stroke-width: 1px; stroke-linejoin: round;" d="m 471.4999,601.99994 a 0.50005,0.50005 0 0 0 -0.5,0.5 v 1.5 h 1 v -1 h 1 v -1 z m 2.5,0 v 1 h 2 v -1 z m 3,0 v 1 h 1 v 1 h 1 v -1.5 a 0.50005,0.50005 0 0 0 -0.5,-0.5 z m -6,3 v 2 h 1 v -2 z m 7,0 v 2 h 1 v -2 z m -7,3 v 1.5 a 0.50005,0.50005 0 0 0 0.5,0.5 h 1.5 v -1 h -1 v -1 z m 7,0 v 1 h -1 v 1 h 1.5 a 0.50005,0.50005 0 0 0 0.5,-0.5 v -1.5 z m -4,1 v 1 h 2 v -1 z" id="path24923-3"></path>
  </g>
</svg>