<svg xmlns="http://www.w3.org/2000/svg" style="background: #808080" height="64" width="64" viewBox="444 596 20 20">
  <g id="g9217" style="" data-label="CA-22">
    <path id="path24965-8" d="m 447.5,599 a 0.50005,0.50005 0 0 0 -0.5,0.5 v 10 a 0.50005,0.50005 0 0 0 0.5,0.5 h 13 a 0.50005,0.50005 0 1 0 0,-1 H 448 v -9 h 9 v 7.5 a 0.50005,0.50005 0 1 0 1,0 v -8 a 0.50005,0.50005 0 0 0 -0.5,-0.5 z m 9.99219,11.74219 A 0.50005,0.50005 0 0 0 457,611.25 v 1.25 a 0.50005,0.50005 0 1 0 1,0 v -1.25 a 0.50005,0.50005 0 0 0 -0.50781,-0.50781 z" style="color: rgb(0, 0, 0); fill: #ffffff; stroke-linecap: round; stroke-linejoin: round;"></path>
    <path id="path24881-9" d="m 455.5,602 c -0.58333,0 -1.08834,0.16632 -1.52734,0.45898 -0.43901,0.29267 -0.82618,0.6875 -1.32618,1.1875 l -1,1 c -0.5,0.5 -0.86283,0.85517 -1.17382,1.0625 C 450.16166,605.91632 449.91667,606 449.5,606 h -1 v 1 h 1 c 0.58333,0 1.08834,-0.16632 1.52734,-0.45898 0.43901,-0.29267 0.82618,-0.6875 1.32618,-1.1875 l 1,-1 c 0.5,-0.5 0.86283,-0.85517 1.17382,-1.0625 C 454.83834,603.08368 455.08333,603 455.5,603 h 1 v -1 z" style="color: rgb(0, 0, 0); opacity: 0.65; fill: #ffffff; stroke-linejoin: round;"></path>
  </g>
</svg>