<svg xmlns="http://www.w3.org/2000/svg" style="background: #808080" height="64" width="64" viewBox="63 568 20 20">
  <g style="fill: #ffffff;" id="g12254" transform="translate(-21,-21)" data-label="CA-4">
    <path style="fill: #ffffff; stroke-linecap: round; stroke-linejoin: round; marker: none;" d="m 75,599 v 2 h 1 v -2 z m 3,0 v 1 h 2 v -1 z m 4,0 v 2 h 1 v -2 z m -6,3 c -2.197587,0 -4,1.80241 -4,4 0,0.91965 0.327327,1.75942 0.855469,2.4375 l -3.708985,3.70898 a 0.50005001,0.50005001 0 1 0 0.707032,0.70704 L 73.5625,609.14453 C 74.240452,609.67231 75.080704,610 76,610 c 2.197595,0 3.998047,-1.80241 3.998047,-4 0,-2.19759 -1.800452,-4 -3.998047,-4 z m 6,1 v 2 h 1 v -2 z m -6,0.002 c 1.652136,0 3,1.34592 3,2.99805 0,1.65213 -1.347864,3 -3,3 -1.652128,0 -3,-1.34787 -3,-3 0,-1.65214 1.347872,-2.99805 3,-2.99805 z M 82,607 v 2 h 1 v -2 z m -7,4 v 2 h 1 v -2 z m 7,0 v 2 h 1 v -2 z m -4,1 v 1 h 2 v -1 z" transform="translate(21,21)" id="rect12197"></path>
    <path style="color: rgb(0, 0, 0); opacity: 0.25; fill: #ffffff; marker: none;" d="m 96,620 v 3.5 h 1 V 621 h 6 v 12 h -6 v -2.25 H 96 V 634 h 8 v -14 z" id="rect12222"></path>
  </g>
</svg>