<svg xmlns="http://www.w3.org/2000/svg" height="64" width="64" viewBox="3 71 20 20">
  <g style="fill: #ffffff;" id="g14591" data-label="D-1">
    <path style="fill: #ffffff; stroke-width: 1px; stroke-linecap: round; stroke-linejoin: round;" d="m 9.25,74 a 0.50005,0.50005 0 0 0 -0.4765625,0.351562 l -2.75,8.820313 A 0.50005,0.50005 0 0 0 6,83.320312 v 0.173829 a 0.50005,0.50005 0 1 0 1,0 v -0.09766 L 7.7460938,81 A 0.50005,0.50005 0 0 0 7.75,81 h 3.5 a 0.50005,0.50005 0 0 0 0.0039,0 L 12,83.396484 v 0.09766 a 0.50005,0.50005 0 1 0 1,0 v -0.173829 a 0.50005,0.50005 0 0 0 -0.02344,-0.148437 l -2.75,-8.820313 A 0.50005,0.50005 0 0 0 9.75,74 Z M 9.5,75.375 10.941406,80 H 8.0585938 Z" id="path14584"></path>
    <path style="fill: #ffffff; stroke-linecap: round; stroke-linejoin: round;" d="m 14.5,79 a 0.50005,0.50005 0 1 0 0,1 H 19 v 0.08008 l -4.896484,6.365234 A 0.50005,0.50005 0 0 0 14,86.75 v 0.75 a 0.50005,0.50005 0 0 0 0.5,0.5 h 5 a 0.50005,0.50005 0 1 0 0,-1 H 15 v -0.08008 l 4.896484,-6.365234 A 0.50005,0.50005 0 0 0 20,80.25 V 79.5 A 0.50005,0.50005 0 0 0 19.5,79 Z" id="path14589"></path>
  </g>
</svg>