<svg xmlns="http://www.w3.org/2000/svg" height="64" width="64" viewBox="234 71 20 20">
  <g style="fill: #ffffff;" id="g13177" transform="translate(-1.85367e-6,-21)" data-label="D-12">
    <g id="g13282" transform="translate(20,-21)" style="fill:#ffffff">
      <path style="color: rgb(0, 0, 0); fill: #ffffff; stroke-width: 1px; stroke-linecap: round; stroke-linejoin: round;" d="m 246.49805,74 c -0.13192,5.4e-4 -0.25829,0.0532 -0.35157,0.146484 C 245.43577,74.857204 244.09848,76 241.5,76 A 0.50005,0.50005 0 0 0 241,76.5 V 79 h -0.5 c -0.75833,0 -1.38671,0.318735 -1.90625,0.734375 -0.51954,0.41563 -0.962,0.926849 -1.44727,1.412109 -0.39648,0.39648 0.31056,1.103512 0.70704,0.707032 0.4558,-0.45581 0.79842,-0.643904 1.18164,-0.746094 C 239.41838,81.005232 239.875,81 240.5,81 h 0.5 v 4.5 c 0,0.75694 -0.56911,1.365513 -1.18359,1.476562 -0.30725,0.0555 -0.62032,0.004 -0.94141,-0.228515 -0.32109,-0.23272 -0.65388,-0.66673 -0.90039,-1.40625 A 0.50005,0.50005 0 0 0 237,85.5 v 1 a 0.50005,0.50005 0 0 0 0.14648,0.353516 C 238.22544,87.932473 239.1944,88.00968 240,88 c 0,0 0.002,0 0.002,0 9.9e-4,0 0.003,10e-7 0.004,0 0.001,-1.6e-5 0.003,1.8e-5 0.004,0 0.36494,-7.26e-4 0.98133,-0.05472 1.67773,-0.203125 0.19213,-0.0454 0.36061,-0.131526 0.54297,-0.197266 0.41443,-0.1248 0.82232,-0.201598 1.24219,-0.449218 C 244.82222,86.354491 246,84.75992 246,82 v -1 h 2.5 c 0.1326,-2e-5 0.25976,-0.0527 0.35352,-0.146484 l 1,-1 C 250.16831,79.538516 249.94532,79.00017 249.5,79 H 246 v -2.529297 c 0.26613,0.242116 0.53257,0.477435 0.83203,0.527344 0.63268,0.10544 1.23725,-0.0679 1.76563,-0.332031 1.05675,-0.52838 1.9005,-1.45715 2.25586,-1.8125 0.45304,-0.47127 -0.23577,-1.160072 -0.70704,-0.707032 -0.31826,0.31827 -0.84181,0.673592 -1.40039,0.763672 -0.55857,0.0901 -1.16912,-0.02339 -1.88867,-0.759765 -0.0945,-0.0967 -0.22417,-0.150901 -0.35937,-0.150391 z m -2.50977,3.013672 c 0.004,-1.62e-4 0.008,1.67e-4 0.0117,0 V 83 c 0,1.65476 -0.45037,2.602541 -1.13477,3.181641 -0.20404,0.172661 -0.46051,0.286861 -0.72656,0.390625 C 242.64927,85.748655 243,84.573733 243,83 v -5.982422 c 0.35078,0.0051 0.69957,0.0073 0.98828,-0.0039 z" transform="translate(-20,42)" id="path13240"></path>
    </g>
  </g>
</svg>