<svg xmlns="http://www.w3.org/2000/svg" style="background: #808080" height="64" width="64" viewBox="243 68 20 20">
  <g transform="matrix(-1,0,0,1,635,-357)" id="g12824" style="fill: #ffffff;" data-label="D-13">
    <path id="path12813" d="m 363.5,431 a 0.50005,0.50005 0 0 0 -0.5,0.5 v 1 a 0.50005,0.50005 0 0 0 0.14648,0.35352 L 368,437.70703 V 441.5 a 0.50005,0.50005 0 0 0 0.14648,0.35352 l 3,3 A 0.50005,0.50005 0 0 0 372,444.5 v -6.79297 l 4.85352,-4.85351 A 0.50005,0.50005 0 0 0 377,432.5 v -1 a 0.50005,0.50005 0 0 0 -0.5,-0.5 z m 0.5,1 h 12 v 0.29297 l -4.85352,4.85351 A 0.50005,0.50005 0 0 0 371,437.5 v 5.79297 l -2,-2 V 437.5 a 0.50005,0.50005 0 0 0 -0.14648,-0.35352 L 364,432.29297 Z" style="color: rgb(0, 0, 0); fill: #ffffff; stroke-linecap: round; stroke-linejoin: round; marker: none;"></path>
  </g>
</svg>