<svg xmlns="http://www.w3.org/2000/svg" style="background: #808080" height="64" width="64" viewBox="283 68 20 20">
  <g id="g25642" transform="translate(-63,-20)" style="fill: #ffffff;" data-label="D-15">
    <path style="color: rgb(0, 0, 0); opacity: 0.7; fill: #ffffff; stroke-width: 1px; stroke-linejoin: round; marker: none;" d="m -33.5,1328 c -0.27613,0 -0.49997,0.2239 -0.5,0.5 v 11 c 3e-5,0.2761 0.22387,0.5 0.5,0.5 h 2.5 v -3 c 0,-1.645 1.35499,-3 3,-3 h 2.585938 l -1.292969,-1.293 a 1.0001,1.0001 0 0 1 0.726562,-1.7168 1.0001,1.0001 0 0 1 0.6875,0.3028 l 3,3 a 1.0001,1.0001 0 0 1 0,1.414 l -3,3 a 1.0001,1.0001 0 1 1 -1.414062,-1.414 L -25.414062,1336 H -28 c -0.56413,0 -1,0.4359 -1,1 v 3 h 8.5 c 0.27613,0 0.49997,-0.2239 0.5,-0.5 v -9 c -3e-5,-0.2761 -0.22387,-0.5 -0.5,-0.5 H -29 v -1.5 c -3e-5,-0.2761 -0.22387,-0.5 -0.5,-0.5 z" transform="translate(397,-1232)" id="path25640"></path>
  </g>
</svg>