<svg xmlns="http://www.w3.org/2000/svg" style="background: #808080" height="64" width="64" viewBox="318 71 20 20">
  <g id="g12536" transform="matrix(0,1,1,0,270,-183)" style="fill: #ffffff;" data-label="D-16">
    <path style="color: rgb(0, 0, 0); fill: #ffffff; stroke-linecap: round; stroke-linejoin: round;" d="m 261.49023,51.996094 a 0.50005,0.50005 0 0 0 -0.34375,0.15039 l -4,4 a 0.50005,0.50005 0 0 0 0,0.707032 l 4,4 a 0.50005,0.50005 0 1 0 0.70704,-0.707032 L 258.70703,57 H 268.5 c 0.83435,0 1.5,0.665651 1.5,1.5 v 5 a 0.50005,0.50005 0 1 0 1,0 v -5 c 0,-1.374789 -1.12521,-2.5 -2.5,-2.5 h -9.79297 l 3.14649,-3.146484 a 0.50005,0.50005 0 0 0 -0.36329,-0.857422 z" id="path12534"></path>
  </g>
</svg>