<svg xmlns="http://www.w3.org/2000/svg" style="background: #808080" height="64" width="64" viewBox="339 71 20 20">
  <g id="g34174" style="" data-label="D-17">
    <path style="color: rgb(0, 0, 0); fill: #ffffff; stroke-linecap: round; stroke-linejoin: round;" d="M 355.49219,73.992188 A 0.50004994,0.50004994 0 0 0 355,74.5 v 3.792969 l -2.11914,-2.117188 a 0.50004994,0.50004994 0 0 0 -0.0234,-0.02539 c -10e-4,-0.0015 -0.002,-0.0024 -0.004,-0.0039 a 0.50004994,0.50004994 0 0 0 -0.1875,-0.121093 c -1.78999,-1.727877 -3.76997,-2.331734 -5.85938,-1.875 -2.1873,0.478135 -3.98484,2.053048 -4.77539,4.175781 a 0.50004994,0.50004994 0 1 0 0.9375,0.347656 c 0.67415,-1.810183 2.19925,-3.142137 4.05078,-3.546875 1.87803,-0.410528 3.46011,0.02939 5.12305,1.722656 a 0.50004994,0.50004994 0 0 0 0.002,0.002 0.50004994,0.50004994 0 0 0 0.002,0.002 0.50004994,0.50004994 0 0 0 0.0332,0.03125 L 354.29297,79 H 350.5 a 0.50004994,0.50004994 0 1 0 0,1 h 5 a 0.50004994,0.50004994 0 0 0 0.5,-0.5 v -5 a 0.50004994,0.50004994 0 0 0 -0.50781,-0.507812 z" id="path13235"></path>
    <path style="color: rgb(0, 0, 0); fill: #ffffff; stroke-linecap: round; stroke-linejoin: round;" d="m 342.49805,81.992188 a 0.50004994,0.50004994 0 0 0 -0.5,0.5 v 5 a 0.50004994,0.50004994 0 1 0 1,0 v -3.792969 l 2.11914,2.11914 a 0.50004994,0.50004994 0 0 0 0.0234,0.02539 l 0.004,0.002 c 7.2e-4,7.3e-4 0.001,0.0012 0.002,0.002 a 0.50004994,0.50004994 0 0 0 0.18555,0.121094 c 1.78998,1.727877 3.76997,2.331734 5.85938,1.875 2.1873,-0.478136 3.98484,-2.053048 4.77539,-4.175781 a 0.50028327,0.50028327 0 1 0 -0.9375,-0.34961 c -0.67415,1.810184 -2.19925,3.14409 -4.05078,3.548829 -1.87804,0.410528 -3.46011,-0.03135 -5.12305,-1.72461 a 0.50004994,0.50004994 0 0 0 -0.004,-0.0039 l -0.0332,-0.03125 -2.11328,-2.115234 h 3.79297 a 0.50004994,0.50004994 0 1 0 0,-1 z" id="path13252"></path>
  </g>
</svg>