<svg xmlns="http://www.w3.org/2000/svg" height="64" width="64" viewBox="24 71 20 20">
  <g id="g34180" style="" data-label="D-2">
    <path style="color: rgb(0, 0, 0); fill: #ffffff; stroke-linecap: round; stroke-linejoin: round;" d="m 30.474609,74.994141 a 0.50004997,0.50004997 0 0 0 -0.40625,0.757812 L 33.128906,81 H 27.5 a 0.50004997,0.50004997 0 1 0 0,1 h 5.628906 l -3.060547,5.248047 a 0.50004997,0.50004997 0 1 0 0.863282,0.503906 L 34,82.492188 l 3.068359,5.259765 a 0.50004997,0.50004997 0 1 0 0.863282,-0.503906 L 34.871094,82 H 40.5 a 0.50004997,0.50004997 0 1 0 0,-1 h -5.628906 l 3.060547,-5.248047 A 0.50004997,0.50004997 0 1 0 37.068359,75.248047 L 34,80.507812 30.931641,75.248047 a 0.50004997,0.50004997 0 0 0 -0.457032,-0.253906 z" id="path14603"></path>
  </g>
</svg>