<svg xmlns="http://www.w3.org/2000/svg" height="64" width="64" viewBox="465 71 20 20">
  <g transform="translate(63,42)" id="g28683" style="" data-label="D-23">
    <path style="color: rgb(0, 0, 0); fill: #ffffff; stroke-linecap: round; stroke-linejoin: round;" d="m 483.5,84 c -1.37106,-1e-5 -2.49465,1.119188 -2.5,2.490234 -10e-6,0.0039 -10e-6,0.0078 0,0.01172 10e-4,0.275368 0.22463,0.498022 0.5,0.498047 h 3 c 0.28206,0 0.5,0.217938 0.5,0.5 0,0.282062 -0.21794,0.5 -0.5,0.5 l -3.5,-0.0039 c -0.12499,0 -0.85445,-0.01071 -1.57617,0.36914 C 478.70211,88.745078 478,89.596094 478,90.996094 v 0.996094 c 0,1.40001 0.70038,2.249949 1.42188,2.630859 0.72147,0.38091 1.45054,0.373047 1.57812,0.373047 v 0.507812 c -10e-6,0.0032 -10e-6,0.0065 0,0.0098 0.005,1.371211 1.12894,2.490244 2.5,2.490234 h 3 c 1.37479,0 2.5,-1.125211 2.5,-2.5 v -0.507812 c 0.1276,0 0.85475,0.0079 1.57617,-0.373047 0.72142,-0.380914 1.42358,-1.23089 1.42383,-2.630859 v -0.994141 c 2e-5,-1.567832 -0.66959,-2.346488 -1.13672,-2.841797 -0.0911,-0.09952 -0.21863,-0.157986 -0.35351,-0.162109 -0.45031,-0.01416 -0.68821,0.527665 -0.37305,0.849609 0.47073,0.499131 0.8633,0.831529 0.86328,2.154297 v 0.994141 c -1.9e-4,1.100029 -0.42466,1.502011 -0.89062,1.748046 -0.46599,0.246036 -0.98698,0.25586 -1.10938,0.25586 L 485.5,94 c -0.67616,-0.0096 -0.67616,1.009563 0,1 l 2.5,-0.002 v 0.505859 c 0,0.834349 -0.66565,1.5 -1.5,1.5 h -3 c -0.832,6e-6 -1.49698,-0.662318 -1.5,-1.49414 V 93 c 0,-0.63889 0.20453,-1.122504 0.54102,-1.458984 C 482.8775,91.204526 483.36111,91 484,91 h 2.5 c 0.725,0 1.37138,-0.226854 1.82227,-0.677734 C 488.77315,89.871376 489,89.225 489,88.5 v -2 c 0,-1.374789 -1.12521,-2.5 -2.5,-2.5 z" transform="translate(-73,-52)" id="path28624"></path>
  </g>
</svg>