<svg xmlns="http://www.w3.org/2000/svg" style="background: #808080" height="64" width="64" viewBox="507 71 20 20">
  <g transform="translate(48,90)" id="g28884" style="" data-label="D-25">
    <path style="color: rgb(0, 0, 0); fill: #ffffff; stroke-width: 1px; stroke-linecap: round; stroke-linejoin: round;" d="m 521.5,84 c -0.6573,0.0093 -0.6573,0.990704 0,1 h 0.25 c 0.75,0 1.25,0.5 1.25,1.25 v 9.500004 c 0,0.75 -0.5,1.25 -1.25,1.25 h -0.25 c -0.6573,0.0093 -0.6573,0.990704 0,1 h 0.25 5.5 0.25 c 0.6573,-0.0093 0.6573,-0.990704 0,-1 h -0.25 C 526.5,97 526,96.5 526,95.75 V 91 h 2.5 c 0.0833,0 0.22505,0.05708 0.33398,0.166016 C 528.94291,91.274947 529,91.416667 529,91.5 c 0.009,0.657305 0.9907,0.657305 1,0 v -2 c -0.004,-0.281658 -0.24005,-0.504291 -0.52148,-0.492188 -0.26471,0.01138 -0.4746,0.22726 -0.47852,0.492188 0,0.08333 -0.0571,0.225053 -0.16602,0.333984 C 528.72505,89.942915 528.58333,90 528.5,90 H 526 v -5 h 4.75004 c 0.0104,-0.294737 0.61631,0.167956 0.86328,0.433594 C 531.86021,85.699231 532,86.054282 532,86.25 v 0.25 c 0.009,0.657305 0.9907,0.657305 1,0 v -2 c -3e-5,-0.276131 -0.22387,-0.499972 -0.5,-0.5 h -1.75 -9 z" transform="translate(-58,-100)" id="path28882"></path>
  </g>
</svg>