<svg xmlns="http://www.w3.org/2000/svg" style="background: #808080" height="64" width="64" viewBox="66 71 20 20">
  <g id="g34177" style="" data-label="D-4">
    <path style="color: rgb(0, 0, 0); fill: #ffffff; stroke-linecap: round; stroke-linejoin: round;" d="m 69.5,74 a 0.50005,0.50005 0 1 0 0,1 h 13 a 0.50005,0.50005 0 1 0 0,-1 z m 0,3 a 0.50005,0.50005 0 1 0 0,1 h 10 a 0.50005,0.50005 0 1 0 0,-1 z m 0,3 a 0.50005,0.50005 0 1 0 0,1 h 7 a 0.50005,0.50005 0 1 0 0,-1 z m 0,3 a 0.50005,0.50005 0 1 0 0,1 h 4 a 0.50005,0.50005 0 1 0 0,-1 z m 0,3 a 0.50005,0.50005 0 1 0 0,1 h 1 a 0.50005,0.50005 0 1 0 0,-1 z" id="path14593"></path>
  </g>
</svg>