<svg xmlns="http://www.w3.org/2000/svg" style="background: #808080" height="64" width="64" viewBox="87 71 20 20">
  <g id="g6448" style="fill: #ffffff;" data-label="D-5">
    <path d="m 103,78.000008 h 1 v 1 h -1 z m 0,-3 h 1 v 1 h -1 z m -8,3 h 1 v 1 h -1 z m 0,3 h 1 v 1 h -1 z m 0,-6 h 1 v 1 h -1 z" style="fill: #ffffff; stroke-width: 3; stroke-linecap: round; stroke-linejoin: round;" id="rect14452"></path>
    <path d="m 98.515625,74 c -0.276131,2.8e-5 -0.499972,0.223869 -0.5,0.5 v 6 c 2.8e-5,0.276131 0.223869,0.499972 0.5,0.5 H 101.5 c 0.27613,-2.8e-5 0.49997,-0.223869 0.5,-0.5 v -6 c -3e-5,-0.276131 -0.22387,-0.499972 -0.5,-0.5 z m 0.5,1 H 101 v 2 h -1.984375 z m 0,3 H 101 v 2 h -1.984375 z m -8.5,-4 c -0.276131,2.8e-5 -0.499972,0.223869 -0.5,0.5 v 12 c 2.8e-5,0.276131 0.223869,0.499972 0.5,0.5 H 93.5 c 0.276131,-2.8e-5 0.499972,-0.223869 0.5,-0.5 v -12 c -2.8e-5,-0.276131 -0.223869,-0.499972 -0.5,-0.5 z m 0.5,1 H 93 v 2 h -1.984375 z m 0,3 H 93 v 2 h -1.984375 z m 0,3 H 93 v 2 h -1.984375 z m 0,3 H 93 v 2 h -1.984375 z" style="color: rgb(0, 0, 0); fill: #ffffff; stroke-linecap: round; stroke-linejoin: round;" id="path14479"></path>
  </g>
</svg>