<svg xmlns="http://www.w3.org/2000/svg" height="64" width="64" viewBox="108 71 20 20">
  <g id="g34189" style="" data-label="D-6">
    <path id="path14479-6" style="fill: #ffffff; stroke-linecap: round; stroke-linejoin: round;" d="m 111.51563,74 c -0.27614,2.8e-5 -0.49998,0.223869 -0.5,0.5 v 12 c 2e-5,0.276131 0.22386,0.499972 0.5,0.5 H 114.5 c 0.27613,-2.8e-5 0.49997,-0.223869 0.5,-0.5 v -12 c -3e-5,-0.276131 -0.22387,-0.499972 -0.5,-0.5 z m 0.5,1 H 114 v 2 h -1.98437 z m 0,3 H 114 v 2 h -1.98437 z m 0,3 H 114 v 2 h -1.98437 z m 0,3 H 114 v 2 h -1.98437 z M 124,81.000005 h 1 v 1 h -1 z m -2,0 h 1 v 1 h -1 z m -2,0 h 1 v 1 h -1 z m -2,0 h 1 v 1 h -1 z m -2,0 h 1 v 1 h -1 z m 8,-3 h 1 v 1 h -1 z m -2,0 h 1 v 1 h -1 z m -2,0 h 1 v 1 h -1 z m -2,0 h 1 v 1 h -1 z m -2,0 h 1 v 1 h -1 z m 8,-3 h 1 v 1 h -1 z m -2,0 h 1 v 1 h -1 z m -2,0 h 1 v 1 h -1 z m -2,0 h 1 v 1 h -1 z m -2,0 h 1 v 1 h -1 z"></path>
  </g>
</svg>