<svg xmlns="http://www.w3.org/2000/svg" style="background: #808080" height="64" width="64" viewBox="183 588 20 20">
  <g id="g37406" style="" data-label="DA-10">
    <path style="fill: #ffffff; stroke-width: 0.8; stroke-linecap: round; stroke-linejoin: round; marker: none;" d="m 202.5,621.00003 a 5.4999997,5.4999997 0 0 0 -5.5,5.5 5.4999997,5.4999997 0 0 0 5.5,5.5 5.4999997,5.4999997 0 0 0 5.5,-5.5 5.4999997,5.4999997 0 0 0 -5.5,-5.5 z m -0.002,1.98438 a 0.50005001,0.50005001 0 0 1 0.50781,0.52343 v 2.5 h 2.50195 a 0.50005001,0.50005001 0 1 1 0,0.99805 h -2.50195 v 2.50195 a 0.50005001,0.50005001 0 0 1 -0.50586,0.50586 0.50005001,0.50005001 0 0 1 -0.49219,-0.50586 v -2.50195 h -2.5 a 0.50005001,0.50005001 0 1 1 0,-0.99805 h 2.5 v -2.5 a 0.50005001,0.50005001 0 0 1 0.49024,-0.52343 z" id="path14370"></path>
    <rect style="fill: none; stroke-width: 1.627;" id="rect37443" width="18" height="18" x="192.99998" y="-636" transform="scale(1,-1)" data-label="frame"></rect>
  </g>
</svg>