<svg xmlns="http://www.w3.org/2000/svg" height="64" width="64" viewBox="255 617 20 20">
  <g id="g37418" style="" data-label="DA-13">
    <path style="color: rgb(0, 0, 0); opacity: 0.6; fill: #ffffff; stroke-linecap: round; stroke-linejoin: round;" d="m 265,622 c -2.7555,0 -5,2.2445 -5,5 0,2.7555 2.2445,5 5,5 2.7555,0 5,-2.2445 5,-5 0,-2.7555 -2.2445,-5 -5,-5 z m 0,1 c 2.21506,0 4,1.78494 4,4 0,2.21506 -1.78494,4 -4,4 -2.21506,0 -4,-1.78494 -4,-4 0,-2.21506 1.78494,-4 4,-4 z" id="path13966"></path>
    <rect style="fill: none; stroke-width: 1.627;" id="rect21004-5-8-0-9" width="18" height="18" x="255.99994" y="-636" transform="scale(1,-1)" data-label="frame"></rect>
  </g>
</svg>