<svg xmlns="http://www.w3.org/2000/svg" style="background: #808080" height="64" width="64" viewBox="303 588 20 20">
  <g id="g12707" style="opacity: 0.99; fill: #ffffff; stroke-width: 1.07692;" transform="matrix(0.928571,0,0,0.928571,22.9301,44.2907)" data-label="DA-16">
    <path style="color: rgb(0, 0, 0); fill: #ffffff; stroke-width: 2; stroke-linecap: round; stroke-linejoin: round; marker: none;" d="m 327.94922,619.99609 c -0.89539,0.0396 -1.29072,1.14622 -0.62305,1.74414 l 1.37305,1.26563 h -6.69727 c -1.36099,-0.0279 -1.36099,2.02794 0,2 h 3.0918 c -0.003,0.002 -0.005,0.004 -0.008,0.006 l -4.75,4.24805 c -0.99479,0.88933 0.33919,2.38151 1.33398,1.49218 l 2.33985,-2.09375 c 0.0823,2.95524 2.51793,5.34766 5.49218,5.34766 3.02565,0 5.49805,-2.47428 5.49805,-5.5 0,-1.56564 -0.6642,-2.98065 -1.72266,-3.98438 l -4.59961,-4.25195 c -0.19597,-0.18575 -0.45872,-0.28437 -0.72851,-0.27344 z m 1.55273,5.00977 c 1.94471,0 3.5,1.5551 3.5,3.5 0,1.94489 -1.55529,3.5 -3.5,3.5 -1.94472,0 -3.5,-1.55511 -3.5,-3.5 0,-1.9449 1.55528,-3.5 3.5,-3.5 z m -0.0176,1.78516 a 1.7319623,1.7139345 0 0 0 -1.73243,1.71484 1.7319623,1.7139345 0 0 0 1.73243,1.71289 1.7319623,1.7139345 0 0 0 1.73242,-1.71289 1.7319623,1.7139345 0 0 0 -1.73242,-1.71484 z" transform="matrix(1.07692,0,0,1.07692,-24.694,-47.6977)" id="path12703"></path>
    <rect style="fill: none; stroke-width: 1.75216;" id="rect37443-2" width="19.384615" height="19.384617" x="318.84433" y="-637.22546" transform="scale(1,-1)" data-label="frame"></rect>
  </g>
</svg>