<svg xmlns="http://www.w3.org/2000/svg" style="background: #808080" height="64" width="64" viewBox="483 588 20 20">
  <g transform="translate(-285,336)" style="fill: #ffffff;" id="g21575" data-label="DA-25">
    <rect style="fill: none; stroke-width: 1.627;" id="rect21004-5-8-0-02" width="18" height="18" x="792.99976" y="-300" transform="scale(1,-1)" data-label="frame"></rect>
    <path id="rect21315-8" d="m 797,284 c -1.09935,0 -2,0.90065 -2,2 v 2 8 c 0,1.09935 0.90065,2 2,2 h 7 c 1.09935,0 2,-0.90065 2,-2 v -0.5 c 0.01,-0.67616 -1.00956,-0.67616 -1,0 v 0.5 c 0,0.56265 -0.43735,1 -1,1 h -7 c -0.56265,0 -1,-0.43735 -1,-1 v -8 h 10 v -2 c 0,-1.09935 -0.90065,-2 -2,-2 z" style="color: rgb(0, 0, 0); fill: #ffffff; stroke-linecap: round; stroke-linejoin: round; marker: none;"></path>
    <path style="color: rgb(0, 0, 0); opacity: 0.6; fill: #ffffff; stroke-linejoin: round; marker: none;" d="m 806.5,294 c -1.37479,0 -2.5,-1.12521 -2.5,-2.5 0,-1.37479 1.12521,-2.5 2.5,-2.5 1.37479,0 2.5,1.12521 2.5,2.5 0,1.37479 -1.12521,2.5 -2.5,2.5 z" id="circle21317-8"></path>
  </g>
</svg>