<svg xmlns="http://www.w3.org/2000/svg" style="background: #808080" height="64" width="64" viewBox="23 588 20 20">
  <g id="g20495" style="fill: #ffffff;" data-label="DA-2">
    <rect style="fill: none; stroke-width: 1.627;" id="rect13319" width="18" height="18" x="25.000002" y="-636" transform="scale(1,-1)" data-label="frame"></rect>
    <path id="path20493" style="color: rgb(0, 0, 0); fill: #ffffff; stroke-width: 2; stroke-linejoin: round; marker: none;" d="m 34,622 c -1.783333,0 -3,1.5 -3,3 h 2 c 0,-0.5 0.283333,-1 1,-1 0.716667,0 1,0.5 1,1 0,0.24702 -0.03644,0.30082 -0.117188,0.41016 -0.08074,0.10934 -0.253932,0.25966 -0.513671,0.4707 C 33.849662,626.30294 33,627.16667 33,628.5 v 0.5 h 2 v -0.5 c 0,-0.66667 0.150338,-0.67794 0.630859,-1.06836 0.240261,-0.19521 0.567072,-0.43551 0.861329,-0.83398 C 36.786444,626.19918 37,625.62798 37,625 c 0,-1.5 -1.216667,-3 -3,-3 z m -1,8.00009 h 2 v 2 H 33 Z M 34,620 c -3.86007,0 -7,3.13991 -7,7 0,3.86009 3.13993,7 7,7 3.86008,0 7,-3.13991 7,-7 0,-3.86009 -3.13992,-7 -7,-7 z m 0,1 c 3.31964,0 6,2.68035 6,6 0,3.31965 -2.68036,6 -6,6 -3.31963,0 -6,-2.68035 -6,-6 0,-3.31965 2.68037,-6 6,-6 z"></path>
  </g>
</svg>