<svg xmlns="http://www.w3.org/2000/svg" height="64" width="64" viewBox="66 617 20 20">
  <g id="g13493" style="" data-label="DA-4">
    <rect style="fill: none; stroke-width: 1.627;" id="rect13481" width="18" height="18" x="67" y="-636" transform="scale(1,-1)" data-label="frame"></rect>
    <path id="path20483" d="m 75.999998,620 c -3.860077,0 -7,3.13991 -7,7 0,3.86009 3.139924,7 7,7 3.860076,0 7,-3.13991 7,-7 0,-3.86009 -3.139923,-7 -7,-7 z m 2.990234,2.98633 a 1.0001,1.0001 0 0 1 0.716797,1.7207 L 77.41406,627 l 2.292969,2.29297 a 1.0001,1.0001 0 1 1 -1.414062,1.41406 l -2.292969,-2.29297 -2.292969,2.29297 a 1.0001,1.0001 0 1 1 -1.414062,-1.41406 L 74.585936,627 72.292967,624.70703 a 1.0001,1.0001 0 0 1 0.697265,-1.7168 1.0001,1.0001 0 0 1 0.716797,0.30274 l 2.292969,2.29297 2.292969,-2.29297 a 1.0001,1.0001 0 0 1 0.697265,-0.30664 z" style="color: rgb(0, 0, 0); fill: #ffffff; fill-rule: evenodd; stroke-linecap: round; stroke-linejoin: round;"></path>
  </g>
</svg>