<svg xmlns="http://www.w3.org/2000/svg" height="64" width="64" viewBox="24 92 20 20">
  <g id="g3401" style="" data-label="E-2">
    <path style="color: rgb(0, 0, 0); fill: #ffffff; stroke-linecap: round;" d="m 30.560537,94.85135 a 0.50005,0.50005 0 0 0 -0.41797,0.20312 c -2.41605,3.180716 -3.44475,6.00321 -3.85742,8.28711 -0.41267,2.2839 -0.21655,4.04989 -0.21875,5.00586 a 0.50005,0.50005 0 1 0 1,0.004 c 0.002,-1.08433 -0.18375,-2.69094 0.20312,-4.83203 0.38687,-2.1411 1.34101,-4.795944 3.66797,-7.85938 a 0.50005,0.50005 0 0 0 -0.37695,-0.80858 z m 4.95508,3.001946 a 0.50005,0.50005 0 0 0 -0.30469,0.12695 c -4.12358,3.585044 -5.17188,7.536354 -5.17188,10.376954 a 0.50005,0.50005 0 1 0 1,0 c 0,-2.60021 0.91362,-6.21978 4.82813,-9.623044 a 0.50005,0.50005 0 0 0 -0.35156,-0.88086 z m 4.02539,5.003904 c -3.01703,-0.006 -5.49429,2.47075 -5.50196,5.49805 a 0.50005,0.50005 0 1 0 1,0.004 c 0.006,-2.48438 2.031,-4.50726 4.50001,-4.50195 a 0.50005,0.50005 0 1 0 0.002,-1 z" id="path18476-0-2-5"></path>
  </g>
</svg>