<svg xmlns="http://www.w3.org/2000/svg" style="background: #808080" height="64" width="64" viewBox="465 92 20 20">
  <g transform="translate(-0.999993)" id="g4126" style="" data-label="E-23">
    <g style="fill: #ffffff;" transform="matrix(0.659143,0,0,0.659143,248.471,-214.895)" id="g12839-3-5">
      <path style="color: rgb(0, 0, 0); fill: #ffffff; stroke-linecap: round; stroke-linejoin: round;" d="m 352.97527,473.19666 c -0.49613,-0.0451 -1.03862,0.15972 -1.49219,0.61328 l -0.41128,0.47153 c -0.19519,0.19527 -0.19519,0.51177 0,0.70704 l 3,3 c 0.19527,0.19519 0.51177,0.19519 0.70704,0 l 0.41128,-0.47153 c 0.45356,-0.45357 0.65838,-0.99606 0.61328,-1.49219 -0.0451,-0.49613 -0.30436,-0.90592 -0.61328,-1.21485 l -1,-1 c -0.30893,-0.30892 -0.71872,-0.56817 -1.21485,-0.61328 z m -3.39644,2.7168 c -0.12989,0.002 -0.25387,0.0546 -0.34571,0.14648 l -6.22807,6.22726 c -0.0639,0.0642 -0.10909,0.14453 -0.13086,0.23243 l -1,4 c -0.0904,0.36537 0.2401,0.69582 0.60547,0.60547 l 4,-1 c 0.0879,-0.0218 0.16823,-0.067 0.23243,-0.13086 0,0 6.17898,-6.1737 6.22807,-6.22726 0.19519,-0.19527 0.19519,-0.51177 0,-0.70704 l -3,-3 c -0.0957,-0.0957 -0.22605,-0.14856 -0.36137,-0.14648 z" id="path12837-6-3"></path>
    </g>
    <path style="opacity:0.6;fill:#ffffff" id="path2-6" d="m 469,101 v 7.5 c 0,0.276 0.224,0.5 0.5,0.5 h 11 c 0.30423,0 0.5,-0.22782 0.5,-0.5 v -4 c 0,-0.65459 -1,-0.65682 -1,0 v 3.5 h -10 v -7 z m 4.48081,-6 c -0.151,0.004 -0.293,0.077 -0.384,0.197 l -3.95,3.949 c -0.314,0.315 -0.091,0.854 0.354,0.854 h 4 c 0.276,0 0.5,-0.224 0.5,-0.5 V 96 H 480.5 c 0.68512,0 0.64092,-1 0,-1 z"></path>
  </g>
</svg>