<svg xmlns="http://www.w3.org/2000/svg" height="64" width="64" viewBox="45 92 20 20">
  <g id="g3398" style="" data-label="E-3">
    <path style="color: rgb(0, 0, 0); fill: #ffffff; stroke-linecap: round;" d="m 52.942267,94.61165 a 0.50005,0.50005 0 0 0 -0.41797,0.20312 c -2.41605,3.180716 -3.44475,6.00321 -3.85743,8.28711 -0.41267,2.2839 -0.21654,4.04989 -0.21875,5.00586 a 0.50005,0.50005 0 1 0 1,0.004 c 0.002,-1.08433 -0.18374,-2.69094 0.20313,-4.83203 0.38687,-2.1411 1.341,-4.795944 3.66797,-7.85938 a 0.50005,0.50005 0 0 0 -0.37695,-0.80858 z m 4.95507,3.00195 a 0.50005,0.50005 0 0 0 -0.30468,0.12695 c -4.12359,3.58504 -5.17188,7.53635 -5.17188,10.37695 a 0.50005,0.50005 0 1 0 1,0 c 0,-2.60021 0.91362,-6.21978 4.82813,-9.623044 A 0.50005,0.50005 0 0 0 57.897337,97.6136 Z m 4.02539,5.0039 c -3.01703,-0.006 -5.49428,2.47075 -5.50195,5.49805 a 0.50005,0.50005 0 1 0 1,0.004 c 0.006,-2.48438 2.03099,-4.50726 4.5,-4.50195 a 0.50005,0.50005 0 1 0 0.002,-1 z" id="path18476-0-2-5-3"></path>
  </g>
</svg>