<svg xmlns="http://www.w3.org/2000/svg" height="64" width="64" viewBox="108 92 20 20">
  <g transform="translate(-0.389343,-189.06)" style="" id="g4917" data-label="E-6">
    <path id="circle14295-0-2" d="m 114.20361,283.80598 c 1.65093,0 3,1.34907 3,3 0,1.65093 -1.34907,3 -3,3 -1.65093,0 -3,-1.34907 -3,-3 0,-1.65093 1.34907,-3 3,-3 z m 0,1 c -1.11049,0 -2,0.88951 -2,2 0,1.11049 0.88951,2 2,2 1.11049,0 2,-0.88951 2,-2 0,-1.11049 -0.88951,-2 -2,-2 z" style="fill: #ffffff; stroke-linecap: round; stroke-linejoin: round;"></path>
    <path id="circle14295-0-3-0-1" d="m 115.59493,291.64794 c 1.65093,0 3,1.34907 3,3 0,1.65093 -1.34907,3 -3,3 -1.65093,0 -3,-1.34907 -3,-3 0,-1.65093 1.34907,-3 3,-3 z m 0,1 c -1.11049,0 -2,0.88951 -2,2 0,1.11049 0.88951,2 2,2 1.11049,0 2,-0.88951 2,-2 0,-1.11049 -0.88951,-2 -2,-2 z" style="fill: #ffffff; stroke-linecap: round; stroke-linejoin: round;"></path>
    <path id="circle14295-0-3-6" d="m 122.93095,287.85344 c 1.65093,0 3,1.34907 3,3 0,1.65093 -1.34907,3 -3,3 -1.65093,0 -3,-1.34907 -3,-3 0,-1.65093 1.34907,-3 3,-3 z m 0,1 c -1.11049,0 -2,0.88951 -2,2 0,1.11049 0.88951,2 2,2 1.11049,0 2,-0.88951 2,-2 0,-1.11049 -0.88951,-2 -2,-2 z" style="fill: #ffffff; stroke-linecap: round; stroke-linejoin: round;"></path>
  </g>
</svg>