<svg xmlns="http://www.w3.org/2000/svg" style="background: #808080" height="64" width="64" viewBox="3 108 20 20">
  <g id="g19381" style="" data-label="F-1">
    <path style="color: rgb(0, 0, 0); fill: #ffffff; stroke-linecap: round; stroke-linejoin: round; marker: none;" d="M 6.5,116 A 0.50005,0.50005 0 0 0 6,116.5 v 4 a 0.50005,0.50005 0 1 0 1,0 V 117 h 3.5 a 0.50005,0.50005 0 1 0 0,-1 z m 9.007812,0 a 0.50005,0.50005 0 1 0 0,1 h 3.5 v 3.5 a 0.50005,0.50005 0 1 0 1,0 v -4 a 0.50005,0.50005 0 0 0 -0.5,-0.5 z m -9.0156245,9 A 0.50005,0.50005 0 0 0 6,125.50781 v 4 a 0.50005,0.50005 0 0 0 0.5,0.5 h 4 a 0.50005,0.50005 0 1 0 0,-1 H 7 v -3.5 A 0.50005,0.50005 0 0 0 6.4921875,125 Z M 19.5,125 a 0.50005,0.50005 0 0 0 -0.492188,0.50781 v 3.5 h -3.5 a 0.50005,0.50005 0 1 0 0,1 h 4 a 0.50005,0.50005 0 0 0 0.5,-0.5 v -4 A 0.50005,0.50005 0 0 0 19.5,125 Z" id="path13927"></path>
  </g>
</svg>