<svg xmlns="http://www.w3.org/2000/svg" style="background: #808080" height="64" width="64" viewBox="203 108 20 20">
  <g id="g19400" style="" data-label="F-11">
    <g style="fill: #ffffff;" id="g12957" transform="translate(-42)">
      <g style="opacity: 0.6; fill: #ffffff;" transform="translate(-188.007,-44.0072)" id="g12922">
        <path id="path12920" style="color: rgb(0, 0, 0); fill: #ffffff; fill-rule: evenodd; stroke-linecap: round; stroke-linejoin: round;" d="M 451.00718,171.00717 451,173 h -1.5 c -0.67616,-0.01 -0.67616,1.00956 0,1 h 1.91992 c 0.0537,0.009 0.10843,0.009 0.16211,0 H 453.5 c 0.67616,0.01 0.67616,-1.00956 0,-1 H 452 l 0.007,-1.99283 z M 446.5,161 a 0.50005,0.50005 0 0 0 -0.5,0.5 v 8 a 0.50005,0.50005 0 0 0 0.5,0.5 h 7 a 0.50005,0.50005 0 1 0 0,-1 H 447 v -7 h 0.5 4.9707 1.0293 a 0.50005,0.50005 0 1 0 0,-1 H 452.4707 447.5 Z"></path>
      </g>
      <path id="path12942" style="color: rgb(0, 0, 0); fill: #ffffff; stroke-linecap: round; stroke-linejoin: round; marker: none;" d="m 269.5,120 c -1.40822,0 -2.5,1.26701 -2.5,2.75195 v 1.5 c 0,1.48181 1.09178,2.74805 2.5,2.74805 1.40823,0 2.5,-1.26624 2.5,-2.74805 v -0.32031 a 0.50004994,0.50004994 0 1 0 -1,0 v 0.32031 c 0,1.00094 -0.69911,1.74805 -1.5,1.74805 -0.80086,0 -1.5,-0.74712 -1.5,-1.74805 v -1.5 C 268,121.7464 268.69914,121 269.5,121 a 0.50004994,0.50004994 0 1 0 0,-1 z m 0,-4 c -1.40823,0 -2.5,1.26624 -2.5,2.74805 v 0.32031 a 0.50004994,0.50004994 0 1 0 1,0 v -0.32031 C 268,117.74711 268.69911,117 269.5,117 c 0.80086,0 1.5,0.74712 1.5,1.74805 v 1.5 C 271,121.2536 270.30086,122 269.5,122 a 0.50004994,0.50004994 0 1 0 0,1 c 1.40822,0 2.5,-1.26701 2.5,-2.75195 v -1.5 C 272,117.26624 270.90822,116 269.5,116 Z"></path>
    </g>
    <rect style="opacity: 0; fill: #ffffff; stroke-linecap: round; marker: none;" id="rect5375" width="6" height="5" x="218" y="119"></rect>
  </g>
</svg>