<svg xmlns="http://www.w3.org/2000/svg" height="64" width="64" viewBox="276 113 20 20">
  <g style="fill: #ffffff;" transform="matrix(-1,0,0,1,551,21)" id="g14869" data-label="F-14">
    <path style="opacity: 0.6; fill: #ffffff; fill-rule: evenodd; stroke-linecap: round; stroke-linejoin: round;" d="M 263.49219,94.992188 A 0.50005,0.50005 0 0 0 263,95.5 v 8.91016 l -4.68555,1.875 a 0.50050477,0.50050477 0 1 0 0.3711,0.92968 l 4.82812,-1.93164 7.82422,2.68946 a 0.50005,0.50005 0 1 0 0.32422,-0.94532 L 264,104.39258 V 95.5 a 0.50005,0.50005 0 0 0 -0.50781,-0.507812 z" id="path14865"></path>
    <path style="fill: #ffffff; fill-rule: evenodd; stroke-linecap: round; stroke-linejoin: round;" d="m 265.50586,95.435547 c -0.27842,-0.0032 -0.50585,0.221565 -0.50586,0.5 v 6.884763 c -1.3e-4,0.21757 0.14044,0.41026 0.34766,0.47657 l 6,1.92968 c 0.32275,0.10319 0.65252,-0.13772 0.65234,-0.47656 v -6.884766 c 1.3e-4,-0.217571 -0.14044,-0.410257 -0.34766,-0.476562 l -6,-1.929688 c -0.0474,-0.01505 -0.0968,-0.02295 -0.14648,-0.02344 z" id="path14867"></path>
  </g>
</svg>