<svg xmlns="http://www.w3.org/2000/svg" height="64" width="64" viewBox="297 113 20 20">
  <g transform="translate(-6.35367e-6,22)" style="fill: #ffffff;" id="g22568" data-label="F-15">
    <path style="fill: #ffffff; fill-rule: evenodd; stroke-linecap: round; stroke-linejoin: round;" d="m 307.51172,103 c -0.0577,-0.001 -0.11517,0.007 -0.16992,0.0254 l -6,2 c -0.45678,0.15155 -0.45678,0.79767 0,0.94922 l 6,2 c 0.10269,0.0343 0.21371,0.0343 0.3164,0 l 6,-2 c 0.45678,-0.15155 0.45678,-0.79767 0,-0.94922 l -6,-2 c -0.0473,-0.0157 -0.0967,-0.0243 -0.14648,-0.0254 z" id="path14873"></path>
    <path style="opacity: 0.6; fill: #ffffff; fill-rule: evenodd; stroke-linecap: round; stroke-linejoin: round;" d="M 307.49219,93.992188 A 0.50005,0.50005 0 0 0 307,94.5 v 5.88867 l -5.6582,1.88672 a 0.50028181,0.50028181 0 1 0 0.3164,0.94922 l 5.8418,-1.94727 5.8418,1.94727 a 0.50028181,0.50028181 0 1 0 0.3164,-0.94922 L 308,100.38867 V 94.5 a 0.50005,0.50005 0 0 0 -0.50781,-0.507812 z" id="path14875"></path>
  </g>
</svg>