<svg xmlns="http://www.w3.org/2000/svg" height="64" width="64" viewBox="318 113 20 20">
  <g style="fill: #ffffff;" id="g13321" transform="translate(-42,21)" data-label="F-16">
    <g id="g13309" style="fill:#ffffff">
      <path style="color: rgb(0, 0, 0); opacity: 0.6; fill: #ffffff; stroke-linecap: round; stroke-linejoin: round;" d="m 365.49219,94.992188 a 0.50005,0.50005 0 0 0 -0.38867,0.195312 0.50005,0.50005 0 0 0 -0.004,0.0059 l -1.95313,1.953125 a 0.50005,0.50005 0 1 0 0.70704,0.707032 L 365,96.707031 V 98.5 a 0.50005,0.50005 0 1 0 1,0 v -1.792969 l 1.14648,1.146485 a 0.50005,0.50005 0 1 0 0.70704,-0.707032 l -1.95704,-1.957031 a 0.50005,0.50005 0 0 0 -0.40429,-0.197265 z m 9.05859,1.941406 a 0.50005,0.50005 0 0 0 -0.0586,0.0059 h -2.93164 a 0.50005,0.50005 0 1 0 0,1 h 1.79297 l -3.14649,3.146486 a 0.50005,0.50005 0 1 0 0.70703,0.70703 l 3.14649,-3.146485 v 1.792965 a 0.50005,0.50005 0 1 0 1,0 v -2.931637 a 0.50005,0.50005 0 0 0 -0.50977,-0.574218 z m -0.0566,7.060546 a 0.50005,0.50005 0 0 0 -0.34766,0.85938 L 375.29297,106 H 371.5 a 0.50005,0.50005 0 1 0 0,1 h 3.79297 l -1.14649,1.14648 a 0.50005,0.50005 0 1 0 0.70704,0.70704 l 1.95703,-1.95704 a 0.50005,0.50005 0 0 0 0.002,-0.79296 0.50005,0.50005 0 0 0 -0.006,-0.004 l -1.95312,-1.95313 a 0.50005,0.50005 0 0 0 -0.35938,-0.15234 z" id="path13047-6"></path>
    </g>
    <g id="g13313" style="fill:#ffffff">
      <path style="color: rgb(0, 0, 0); opacity: 0.98; fill: #ffffff; stroke-linecap: round; stroke-linejoin: round;" d="m 324.5,121 c -1.14583,0 -1.86235,0.56478 -2.18359,1.12695 C 321.99517,122.68912 322,123.25 322,123.25 V 125 h -0.5 c -0.27613,3e-5 -0.49997,0.22387 -0.5,0.5 v 4 c 3e-5,0.27613 0.22387,0.49997 0.5,0.5 h 6 c 0.27613,-3e-5 0.49997,-0.22387 0.5,-0.5 v -4 c -3e-5,-0.27613 -0.22387,-0.49997 -0.5,-0.5 H 327 v -1.75 c 0,0 0.005,-0.56088 -0.31641,-1.12305 C 326.36235,121.56478 325.64583,121 324.5,121 Z m 0,1 c 0.85417,0 1.13765,0.31022 1.31641,0.62305 C 325.99517,122.93588 326,123.25 326,123.25 V 125 h -3 v -1.75 c 0,0 0.005,-0.31412 0.18359,-0.62695 C 323.36235,122.31022 323.64583,122 324.5,122 Z m -0.5,4 h 1 v 2 h -1 z" transform="translate(42,-21)" id="rect13261"></path>
    </g>
  </g>
</svg>