<svg xmlns="http://www.w3.org/2000/svg" height="64" width="64" viewBox="339 113 20 20">
  <g id="g19393" style="" data-label="F-17">
    <path style="fill: #ffffff; stroke-linecap: round; stroke-linejoin: round; stroke-dashoffset: 7.4;" d="m 348.5,120 c -1.47879,0 -2.81353,0.43206 -3.80469,1.06641 C 343.70416,121.70075 343,122.54357 343,123.5 c 0,1.02778 0.79097,1.88608 1.87891,2.49805 1.08228,0.60878 2.52394,0.99597 4.09765,1 0.0129,9.4e-4 3.75669,0.27336 6.02344,-2.21094 V 127.5 a 0.50005,0.50005 0 1 0 1,0 v -4 a 0.50005,0.50005 0 0 0 -0.5,-0.5 h -4.25 a 0.50005,0.50005 0 1 0 0,1 h 3.10156 c -1.87731,2.16501 -5.32031,2 -5.32031,2 A 0.50005,0.50005 0 0 0 349,126 c -1.41667,0 -2.71684,-0.36001 -3.62891,-0.87305 C 344.45903,124.61392 344,123.97222 344,123.5 c 0,-0.41012 0.41561,-1.06779 1.23438,-1.5918 C 346.05313,121.38419 347.21846,121 348.5,121 a 0.50005,0.50005 0 1 0 0,-1 z" id="path18766-5"></path>
  </g>
</svg>