<svg xmlns="http://www.w3.org/2000/svg" style="background: #808080" height="64" width="64" viewBox="363 108 20 20">
  <g style="fill: #ffffff;" id="g14433" transform="rotate(-90,380.529,134)" data-label="F-19">
    <path style="color: rgb(0, 0, 0); fill: #ffffff; stroke-linecap: round; stroke-linejoin: round;" d="m 390.04688,140.46484 a 0.50005,0.50005 0 0 0 -0.41797,0.20704 l -2.95508,3.93945 a 0.50005,0.50005 0 0 0 -0.01,0.70703 l 2.96485,3.95312 a 0.50019216,0.50019216 0 1 0 0.80078,-0.5996 l -2.40039,-3.20118 h 7.1914 l -0.63867,1.27735 a 0.50005635,0.50005635 0 1 0 0.89453,0.44726 l 0.96875,-1.93554 a 0.50005,0.50005 0 0 0 -0.006,-0.58399 l -0.96289,-1.92773 a 0.50005635,0.50005635 0 1 0 -0.89453,0.44726 l 0.63867,1.27539 h -7.1914 l 2.40039,-3.19922 a 0.50005,0.50005 0 0 0 -0.38281,-0.80664 z" id="path17796-5"></path>
  </g>
</svg>