<svg xmlns="http://www.w3.org/2000/svg" height="64" width="64" viewBox="24 113 20 20">
  <g id="g6366" style="fill: #ffffff;" data-label="F-2">
    <path id="path14380-1" d="m 34,116 c -3.860075,0 -7,3.13992 -7,7 0,3.86007 3.139928,7 7,7 3.860072,0 7,-3.13993 7,-7 0,-3.86008 -3.139925,-7 -7,-7 z m 0,1 c 3.319633,0 6,2.68036 6,6 0,3.31963 -2.680364,6 -6,6 -3.319636,0 -6,-2.68037 -6,-6 0,-3.31964 2.680367,-6 6,-6 z" style="fill: #ffffff; fill-rule: evenodd; stroke-linecap: round; stroke-linejoin: round;"></path>
    <path id="path14287" transform="translate(540,10)" d="m -506.01562,106.24414 a 0.50005,0.50005 0 0 0 -0.375,0.19336 c -0.70647,0.88308 -1.16919,1.99665 -1.41016,3.5625 H -511.75 c -0.67616,-0.01 -0.67616,1.00956 0,1 h 3.83203 c -0.0522,0.60644 -0.082,1.26334 -0.082,2 0,0.73665 0.0299,1.39356 0.082,2 H -511.75 c -0.67616,-0.01 -0.67616,1.00956 0,1 h 3.94922 c 0.24099,1.56587 0.70375,2.67949 1.41016,3.5625 a 0.50024408,0.50024408 0 0 0 0.78124,-0.625 c -0.56556,-0.70695 -0.96391,-1.59657 -1.18554,-2.9375 h 6.54492 c 0.67616,0.01 0.67616,-1.00956 0,-1 h -6.66797 c -0.0526,-0.59052 -0.082,-1.24749 -0.082,-2 0,-0.75251 0.0294,-1.40947 0.082,-2 h 6.66797 c 0.67616,0.01 0.67616,-1.00956 0,-1 h -6.54492 c 0.22165,-1.34096 0.62004,-2.23062 1.18554,-2.9375 a 0.50005,0.50005 0 0 0 -0.40624,-0.81836 z" style="opacity: 0.8; fill: #ffffff; fill-rule: evenodd; stroke-linecap: round; stroke-linejoin: round;"></path>
  </g>
</svg>