<svg xmlns="http://www.w3.org/2000/svg" style="background: #808080" height="64" width="64" viewBox="3 128 20 20">
  <g style="fill: #ffffff;" id="g20257" transform="translate(171)" data-label="G-1">
    <path id="path20203" d="m -156.48438,137 c -0.27612,3e-5 -0.49996,0.22387 -0.5,0.5 v 0.5 h -1.5 c -0.32865,0.005 -0.51562,0.25232 -0.51562,0.5 v 0.5 h 2.51562 1 H -153 v -0.5 c 0,-0.25267 -0.14909,-0.49526 -0.48438,-0.5 h -1.5 v -0.5 c -3e-5,-0.27613 -0.22387,-0.49997 -0.5,-0.5 z m 3.48438,2 0.0156,0.5 v 0.5 h -6 v -0.5 L -159,139 h -1.48438 c -0.27612,3e-5 -0.49996,0.22387 -0.5,0.5 v 3.5 h 2.3086 a 1.50015,1.50015 0 0 1 0.16211,-0.0137 1.50015,1.50015 0 0 1 1.52929,1.69726 V 149 h 5.5 c 0.27613,-3e-5 0.49997,-0.22387 0.5,-0.5 v -9 c -3e-5,-0.27613 -0.22387,-0.49997 -0.5,-0.5 z" style="color: rgb(0, 0, 0); opacity: 0.5; fill: #ffffff; stroke-width: 1px; stroke-linecap: round; stroke-linejoin: round;"></path>
    <g id="g20226" style="fill:#ffffff">
      <path style="color: rgb(0, 0, 0); fill: #ffffff; stroke-linecap: round; stroke-linejoin: round;" d="m -158.49414,143.99609 a 0.50005,0.50005 0 0 0 -0.0508,0.004 h -3.93946 a 0.50005,0.50005 0 1 0 0,1 h 2.79297 l -5.14648,5.14648 a 0.50005,0.50005 0 1 0 0.70703,0.70704 l 5.14648,-5.14649 V 148.5 a 0.50005,0.50005 0 1 0 1,0 v -3.94336 a 0.50005,0.50005 0 0 0 -0.50976,-0.56055 z" id="path20207"></path>
    </g>
  </g>
</svg>