<svg xmlns="http://www.w3.org/2000/svg" style="background: #808080" height="64" width="64" viewBox="183 128 20 20">
  <g style="opacity: 0.6; fill: #ffffff;" id="g14837" transform="translate(-210,-315)" data-label="G-10">
    <path id="path14829" d="m 415.5,452.00781 a 0.50005018,0.50005018 0 0 0 -0.5,0.5 v 3.00781 a 0.50005018,0.50005018 0 0 0 0.5,0.5 c 1.00252,0 2.00529,0 3.00781,0 a 0.50005018,0.50005018 0 0 0 0.5,-0.5 v -3.00781 a 0.50005018,0.50005018 0 0 0 -0.5,-0.5 c -1.00251,0 -2.00529,0 -3.00781,0 z m 0.5,1 c 0.66922,0 1.33859,0 2.00781,0 v 2.00781 c -0.66921,0 -1.33859,10e-6 -2.00781,0 z m -10.5,9 a 0.50005018,0.50005018 0 0 0 -0.5,0.5 v 3.00781 a 0.50005018,0.50005018 0 0 0 0.5,0.5 c 1.00252,0 2.00529,0 3.00781,0 a 0.50005018,0.50005018 0 0 0 0.5,-0.5 v -3.00781 a 0.50005018,0.50005018 0 0 0 -0.5,-0.5 c -1.00251,0 -2.00529,0 -3.00781,0 z m 0.5,1 c 0.66922,0 1.33859,0 2.00781,0 v 2.00781 c -0.66921,0 -1.33859,10e-6 -2.00781,0 z" style="color: rgb(0, 0, 0); fill: #ffffff; stroke-linecap: round; stroke-linejoin: round; stroke-dashoffset: 7.4;"></path>
    <path id="path22198" d="m 411.50391,454 a 0.50005,0.50005 0 0 0 -0.35743,0.14648 l -1,1 a 0.50005,0.50005 0 1 0 0.70704,0.70704 l 0.85156,-0.85157 0.78515,0.006 a 0.50005,0.50005 0 1 0 0.006,-1 z m -3.01368,2.99609 a 0.50005,0.50005 0 0 0 -0.34375,0.15039 l -1,1 A 0.50005,0.50005 0 0 0 407,458.5 v 1.00781 a 0.50005,0.50005 0 1 0 1,0 v -0.80078 l 0.85352,-0.85351 a 0.50005,0.50005 0 0 0 -0.36329,-0.85743 z m 7.99415,0.9961 A 0.50005,0.50005 0 0 0 415.99219,458.5 v 0.80078 l -0.85352,0.85352 a 0.50005,0.50005 0 1 0 0.70703,0.70703 l 1,-1 a 0.50005,0.50005 0 0 0 0.14649,-0.35352 V 458.5 a 0.50005,0.50005 0 0 0 -0.50781,-0.50781 z m -3.00196,4.00976 a 0.50005,0.50005 0 0 0 -0.34375,0.15235 l -0.85156,0.85156 -0.7832,-0.006 a 0.50005,0.50005 0 1 0 -0.008,1 l 0.99219,0.008 a 0.50005,0.50005 0 0 0 0.35742,-0.14648 l 1,-1 a 0.50005,0.50005 0 0 0 -0.36328,-0.85938 z" style="color: rgb(0, 0, 0); opacity: 0.6; fill: #ffffff; stroke-width: 1px; stroke-linecap: round; stroke-linejoin: round;"></path>
  </g>
</svg>