<svg xmlns="http://www.w3.org/2000/svg" style="background: #808080" height="64" width="64" viewBox="323 128 20 20">
  <g style="fill: #ffffff;" id="g14495" transform="matrix(-1,0,0,1,719,4.49997e-6)" data-label="G-17">
    <path style="color: rgb(0, 0, 0); fill: #ffffff; stroke-linecap: round; stroke-linejoin: round; marker: none;" d="m 363.49414,141.99414 a 0.50005,0.50005 0 0 0 -0.34766,0.85938 l 7.15235,7.15234 H 367.5 a 0.50005,0.50005 0 1 0 0,1 h 4 a 0.50005,0.50005 0 0 0 0.006,0 0.50005,0.50005 0 0 0 0.0937,-0.0117 0.50005,0.50005 0 0 0 0.0488,-0.0117 0.50005,0.50005 0 0 0 0.3515,-0.54301 v -3.93359 a 0.50005,0.50005 0 1 0 -1,0 v 2.78711 l -7.14648,-7.14649 a 0.50005,0.50005 0 0 0 -0.35938,-0.15234 z" id="path14485"></path>
    <path style="color: rgb(0, 0, 0); fill: #ffffff; stroke-linecap: round; stroke-linejoin: round; marker: none;" d="m 368.49414,137 a 0.50005,0.50005 0 0 0 -0.0937,0.01 0.50005,0.50005 0 0 0 -0.0488,0.0117 A 0.50005,0.50005 0 0 0 368,137.56445 V 141.5 a 0.50005,0.50005 0 1 0 1,0 v -2.78711 l 7.14648,7.14649 a 0.50005,0.50005 0 1 0 0.70704,-0.70704 L 369.70117,138 H 372.5 a 0.50005,0.50005 0 1 0 0,-1 h -4 a 0.50005,0.50005 0 0 0 -0.006,0 z" id="path14491"></path>
  </g>
</svg>