<svg xmlns="http://www.w3.org/2000/svg" height="64" width="64" viewBox="360 134 20 20">
  <g id="g3383" style="" data-label="G-18">
    <path id="rect10339-4-1-7-3" style="color: rgb(0, 0, 0); fill: #ffffff; stroke-linecap: round; stroke-linejoin: round;" d="m 368.30892,141.58547 c -0.27613,4e-5 -0.49997,0.22388 -0.5,0.5 v 1.26473 h -4.76715 v 1.4911 h 4.76715 v 1.24417 c 3e-5,0.27613 0.22387,0.49997 0.5,0.5 0.63583,0.004 3.43318,-0.006 3.9995,-0.006 0.24106,0 0.46127,-0.0485 0.46127,-0.50967 4e-5,-0.85242 -8.9e-4,-2.98571 -8.9e-4,-3.95935 0,-0.30244 -0.19636,-0.51552 -0.46153,-0.51552 -0.82724,0 -3.36276,-0.009 -3.99823,-0.009 v 2e-5 z m 2.30359,-4.68113 -0.005,4.25868 c 0.48989,0.002 1.39549,0.005 1.88538,0.007 0.44541,0.0357 0.71675,0.47423 0.71675,0.85988 -6.6e-4,1.00616 -0.009,2.97018 -0.009,4.15122 0,0.46073 -0.24756,0.84994 -0.6533,0.84994 -0.48399,0.0143 -1.44986,-1.1e-4 -1.93405,-1.6e-4 v 3.87356 l -7.75691,-0.0669 v -14.00001 z"></path>
  </g>
</svg>