<svg xmlns="http://www.w3.org/2000/svg" style="background: #808080" height="64" width="64" viewBox="381 134 20 20">
  <g style="" transform="translate(-0.35812,42.2943)" id="g4073" data-label="G-19">
    <path d="m 388.17266,99.291166 c -0.27613,4e-5 -0.49997,0.22388 -0.5,0.5 v 1.261304 h -3.16865 v 1.46027 h 3.16865 v 1.27843 c 3e-5,0.27613 0.22387,0.49997 0.5,0.5 h 4 c 0.27613,-3e-5 0.49997,-0.22387 0.5,-0.5 v -4.000004 c -3e-5,-0.27612 -0.22387,-0.49996 -0.5,-0.5 z m 2.59221,-4.74807 c 2.50006,0 4.81247,1.33488 6.0625,3.5 1.25002,2.165124 1.25002,4.834884 0,7.000004 -1.25003,2.16512 -3.56244,3.5 -6.0625,3.5 h -6.5 c 0,-4.66667 0,-9.333336 0,-14.000004 z" style="color: rgb(0, 0, 0); fill: #ffffff; stroke-linecap: round; stroke-linejoin: round;" id="rect10339-4-1-6"></path>
  </g>
</svg>