<svg xmlns="http://www.w3.org/2000/svg" style="background: #808080" height="64" width="64" viewBox="383 128 20 20">
  <g id="g3386" style="" data-label="G-20">
    <path style="color: rgb(0, 0, 0); opacity: 0.99; fill: #ffffff; stroke-linecap: round;" d="m 418.85321,140.04954 -2.82,-2.82 a 0.62,0.62 0 0 0 -0.4,-0.18 0.6,0.6 0 0 0 -0.6,0.6 0.62,0.62 0 0 0 0.18,0.43 l 1,1 -9.18,9.12 -1,-1 a 0.62,0.62 0 0 0 -0.4,-0.15 0.6,0.6 0 0 0 -0.6,0.6 0.62,0.62 0 0 0 0.18,0.4 l 2.82,2.82 a 0.6,0.6 0 0 0 0.82,-0.82 l -1,-1 9.18,-9.15 1,1 a 0.6,0.6 0 0 0 0.82,-0.85 z" id="path3261"></path>
  </g>
</svg>