<svg xmlns="http://www.w3.org/2000/svg" style="background: #808080" height="64" width="64" viewBox="403 128 20 20">
  <g style="fill: #ffffff;" id="g28127" transform="translate(-42,21)" data-label="G-21">
    <path id="rect28073" d="m 468.5,116 a 0.50005,0.50005 0 0 0 -0.5,0.5 v 10 a 0.50005,0.50005 0 0 0 0.5,0.5 h 7 a 0.50005,0.50005 0 1 0 0,-1 H 469 v -9 h 9 v 6.5 a 0.50005,0.50005 0 1 0 1,0 v -7 a 0.50005,0.50005 0 0 0 -0.5,-0.5 z" style="color: rgb(0, 0, 0); opacity: 0.6; fill: #ffffff; stroke-linecap: round; stroke-linejoin: round; marker: none;"></path>
    <path d="M 475.99635,122 A 1.99635,1.99635 0 0 1 474,123.99635 1.99635,1.99635 0 0 1 472.00365,122 1.99635,1.99635 0 0 1 474,120.00365 1.99635,1.99635 0 0 1 475.99635,122 Z m 0.50756,2.01562 c -0.44709,0.002 -0.6672,0.54472 -0.34766,0.85743 l 4.14648,4.14648 L 477.5,129 c -0.67616,-0.01 -0.67616,1.00956 0,1 l 4.00977,0.0195 c 0.27613,-3e-5 0.49997,-0.22387 0.5,-0.5 L 482,125.5 c 0.01,-0.67616 -1.00956,-0.67616 -1,0 l 0.01,2.8125 -4.14649,-4.14648 c -0.0945,-0.0966 -0.22417,-0.15091 -0.35937,-0.1504 z" style="fill: #ffffff; stroke-linecap: square; stroke-linejoin: round; marker: none;" id="circle28066"></path>
  </g>
</svg>