<svg xmlns="http://www.w3.org/2000/svg" height="64" width="64" viewBox="486 134 20 20">
  <g style="fill: #ffffff;" transform="translate(336,21)" id="g13340" data-label="G-24">
    <g id="g13324" style="fill:#ffffff">
      <path style="color: rgb(0, 0, 0); fill: #ffffff; stroke-linecap: round; stroke-linejoin: round;" d="m 501.98047,136.99023 a 1.0001,1.0001 0 0 0 -0.6875,0.30274 l -2.7207,2.7207 c -0.0264,-10e-4 -0.0514,-0.008 -0.0781,-0.008 -0.82235,0 -1.5,0.67765 -1.5,1.5 0,0.82235 0.67765,1.5 1.5,1.5 0.82235,0 1.5,-0.67765 1.5,-1.5 0,-0.0267 -0.006,-0.0518 -0.008,-0.0781 l 2.7207,-2.7207 a 1.0001,1.0001 0 0 0 -0.72656,-1.7168 z" transform="translate(-336,-21)" id="rect13317"></path>
    </g>
    <g id="g13338" transform="translate(717.995,-489)" style="opacity:0.6;fill:#ffffff">
      <path style="color: rgb(0, 0, 0); fill: #ffffff; stroke-linejoin: round;" d="m 489.49414,140 a 0.50005,0.50005 0 0 0 -0.5,0.5 v 2 a 0.50005,0.50005 0 0 0 0.5,0.5 h 0.5 v 5 h -0.5 a 0.50005,0.50005 0 0 0 -0.5,0.5 v 2 a 0.50005,0.50005 0 0 0 0.5,0.5 h 2 a 0.50005,0.50005 0 0 0 0.5,-0.5 v -0.50781 h 5 V 150.5 a 0.50005,0.50005 0 0 0 0.5,0.5 h 2 a 0.50005,0.50005 0 0 0 0.5,-0.5 v -2 a 0.50005,0.50005 0 0 0 -0.5,-0.5 h -0.5 v -4 h -1 v 4 h -0.5 a 0.50005,0.50005 0 0 0 -0.5,0.5 v 0.49219 h -5 V 148.5 a 0.50005,0.50005 0 0 0 -0.5,-0.5 h -0.5 v -5 h 0.5 a 0.50005,0.50005 0 0 0 0.5,-0.5 v -0.50781 H 496 v -1 h -4.00586 V 140.5 a 0.50005,0.50005 0 0 0 -0.5,-0.5 z m 0.5,1 h 1 v 1 h -1 z m 0,8 h 1 v 1 h -1 z m 8,0 h 1 v 1 h -1 z" transform="translate(-1053.99,468)" id="path13330"></path>
    </g>
  </g>
</svg>