<svg xmlns="http://www.w3.org/2000/svg" style="background: #808080" height="64" width="64" viewBox="45 134 20 20">
  <g style="fill: #ffffff;" id="g20474" data-label="G-3">
    <path style="color: rgb(0, 0, 0); fill: #ffffff; stroke-linecap: round; stroke-linejoin: round;" d="M 48.492188,137 A 0.50005,0.50005 0 0 0 48,137.50781 v 3 a 0.50005,0.50005 0 1 0 1,0 v -3 A 0.50005,0.50005 0 0 0 48.492188,137 Z m 0,5 A 0.50005,0.50005 0 0 0 48,142.50781 v 3 a 0.50005,0.50005 0 1 0 1,0 v -3 A 0.50005,0.50005 0 0 0 48.492188,142 Z m 0,5 A 0.50005,0.50005 0 0 0 48,147.50781 v 3 a 0.50005,0.50005 0 1 0 1,0 v -3 A 0.50005,0.50005 0 0 0 48.492188,147 Z" id="path8290-6-5"></path>
    <path style="color: rgb(0, 0, 0); opacity: 0.5; fill: #ffffff; stroke-width: 1px; stroke-linecap: round; stroke-linejoin: round;" d="m 51.509766,137 c -0.27613,3e-5 -0.49997,0.22387 -0.5,0.5 V 138 H 50 v 1 h 1.509766 1 2.515625 v -0.5 c 0,-0.24768 -0.186975,-0.495 -0.515625,-0.5 h -1.5 v -0.5 c -4e-5,-0.27613 -0.22388,-0.49997 -0.5,-0.5 z m 3.515625,2 -0.01563,0.5 V 140 H 50 v 9 h 4.009766 v -4.31641 c -0.12178,-0.91601 0.605587,-1.72326 1.529296,-1.69726 0.05424,0.002 0.10831,0.007 0.16211,0.0137 h 1.308594 v -3.5 c -4e-5,-0.27613 -0.22388,-0.49997 -0.5,-0.5 z" id="path20454"></path>
    <g transform="matrix(-1,0,0,1,-102.974,1.24459e-6)" id="g20458" style="fill:#ffffff">
      <path style="color: rgb(0, 0, 0); fill: #ffffff; stroke-linecap: round; stroke-linejoin: round;" d="m -158.49414,143.99609 a 0.50005,0.50005 0 0 0 -0.0508,0.004 h -3.93946 a 0.50005,0.50005 0 1 0 0,1 h 2.79297 l -5.14648,5.14648 a 0.50005,0.50005 0 1 0 0.70703,0.70704 l 5.14648,-5.14649 V 148.5 a 0.50005,0.50005 0 1 0 1,0 v -3.94336 a 0.50005,0.50005 0 0 0 -0.50976,-0.56055 z" id="path20456"></path>
    </g>
  </g>
</svg>