<svg xmlns="http://www.w3.org/2000/svg" height="64" width="64" viewBox="66 134 20 20">
  <g style="fill: #ffffff;" id="g20375" transform="matrix(-1,0,0,1,131,5.79997e-6)" data-label="G-4">
    <path style="color: rgb(0, 0, 0); fill: #ffffff; stroke-linecap: round; stroke-linejoin: round;" d="M 48.492188,137 A 0.50005,0.50005 0 0 0 48,137.50781 v 3 a 0.50005,0.50005 0 1 0 1,0 v -3 A 0.50005,0.50005 0 0 0 48.492188,137 Z m 0,5 A 0.50005,0.50005 0 0 0 48,142.50781 v 3 a 0.50005,0.50005 0 1 0 1,0 v -3 A 0.50005,0.50005 0 0 0 48.492188,142 Z m 0,5 A 0.50005,0.50005 0 0 0 48,147.50781 v 3 a 0.50005,0.50005 0 1 0 1,0 v -3 A 0.50005,0.50005 0 0 0 48.492188,147 Z" id="path20369"></path>
    <path style="color: rgb(0, 0, 0); opacity: 0.5; fill: #ffffff; stroke-width: 1px; stroke-linecap: round; stroke-linejoin: round;" d="m 51.515625,137 c -0.27612,3e-5 -0.49996,0.22387 -0.5,0.5 V 138 H 50 v 1 h 1.515625 1 H 55 v -0.5 c 0,-0.25267 -0.149085,-0.49526 -0.484375,-0.5 h -1.5 v -0.5 c -3e-5,-0.27613 -0.22387,-0.49997 -0.5,-0.5 z M 55,139 l 0.01563,0.5 V 140 H 50 v 9 h 6.515625 c 0.27613,-3e-5 0.49997,-0.22387 0.5,-0.5 v -0.35938 l -2.580078,-2.58007 a 1.50015,1.50015 0 1 1 2.121094,-2.1211 l 0.458984,0.45899 V 139.5 c -3e-5,-0.27613 -0.22387,-0.49997 -0.5,-0.5 z" id="path20371"></path>
    <path style="color: rgb(0, 0, 0); fill: #ffffff; stroke-linecap: round; stroke-linejoin: round;" d="m 55.490234,143.99414 a 0.50005,0.50005 0 0 0 -0.349609,0.85938 L 60.287109,150 h -2.792968 a 0.50005,0.50005 0 1 0 0,1 h 3.939453 a 0.50005,0.50005 0 0 0 0.560547,-0.57031 V 146.5 a 0.50005,0.50005 0 1 0 -1,0 v 2.79297 l -5.146485,-5.14649 a 0.50005,0.50005 0 0 0 -0.357422,-0.15234 z" id="path20373"></path>
  </g>
</svg>