<svg xmlns="http://www.w3.org/2000/svg" style="background: #808080" height="64" width="64" viewBox="103 128 20 20">
  <g id="g19964" transform="translate(824,416)" style="fill: #ffffff;" data-label="G-6">
    <path id="path20627-2" d="m -704.49998,-278.99995 c -2.725,0 -4.12655,1.87775 -5.35938,3.15234 -0.18751,0.19385 -0.1875,0.50147 0,0.69532 1.23247,1.2748 2.63438,3.15234 5.35938,3.15234 2.725,0 4.12648,-1.87882 5.35938,-3.15625 0.18625,-0.1936 0.18624,-0.49976 0,-0.69336 -1.23336,-1.2779 -2.63506,-3.15039 -5.35938,-3.15039 z m 0,1 c 1.37479,0 2.5,1.12521 2.5,2.5 0,1.37479 -1.12521,2.5 -2.5,2.5 -1.37479,0 -2.5,-1.12521 -2.5,-2.5 0,-1.37479 1.12521,-2.5 2.5,-2.5 z m 0,1 c -0.83435,0 -1.5,0.66565 -1.5,1.5 0,0.83435 0.66565,1.5 1.5,1.5 0.83435,0 1.5,-0.66565 1.5,-1.5 0,-0.83435 -0.66565,-1.5 -1.5,-1.5 z" style="color: rgb(0, 0, 0); fill: #ffffff; stroke-linecap: round; stroke-linejoin: round;"></path>
    <path id="path20671-8" d="m -712.49805,-273 a 0.50005,0.50005 0 0 0 -0.46093,0.69727 l 3,7 a 0.50005,0.50005 0 1 0 0.91796,-0.39454 l -2.50781,-5.85156 5.85156,2.50781 a 0.50005,0.50005 0 1 0 0.39454,-0.91796 l -7,-3 a 0.50005,0.50005 0 0 0 -0.19532,-0.041 z" style="color: rgb(0, 0, 0); opacity: 0.6; fill: #ffffff; stroke-width: 1px; stroke-linecap: round; stroke-linejoin: round;"></path>
  </g>
</svg>