<svg xmlns="http://www.w3.org/2000/svg" style="background: #808080" height="64" width="64" viewBox="123 128 20 20">
  <g id="g22943" style="fill: #ffffff;" data-label="G-7">
    <g style="fill:#ffffff" id="g12942" transform="translate(-20,18)">
      <path id="path12932" d="m 155.50195,121.99414 a 0.50005,0.50005 0 0 0 -0.36133,0.85352 C 156.37329,124.12237 157.775,126 160.5,126 c 2.725,0 4.12681,-1.87774 5.35938,-3.15234 a 0.50005,0.50005 0 1 0 -0.71876,-0.69532 C 163.83477,123.50274 162.775,125 160.5,125 c -2.275,0 -3.33487,-1.49737 -4.64062,-2.84766 a 0.50005,0.50005 0 0 0 -0.35743,-0.1582 z" style="color: rgb(0, 0, 0); opacity: 0.6; fill: #ffffff; stroke-width: 1px; stroke-linecap: round; stroke-linejoin: round;"></path>
    </g>
    <path id="path12946" d="m 132.50195,143 c -0.35971,-0.001 -0.6028,0.36671 -0.46093,0.69727 l 3,7 c 0.18151,0.42185 0.78799,0.39645 0.93359,-0.0391 l 0.91992,-2.76367 2.76367,-0.91992 c 0.43555,-0.1456 0.46095,-0.75208 0.0391,-0.93359 l -7,-3 c -0.0617,-0.0266 -0.12814,-0.0406 -0.19535,-0.041 z" style="color: rgb(0, 0, 0); fill: #ffffff; stroke-width: 1px; stroke-linejoin: round;"></path>
  </g>
</svg>