<svg xmlns="http://www.w3.org/2000/svg" style="background: #808080" height="64" width="64" viewBox="143 128 20 20">
  <g transform="translate(0.999998)" id="g22948" style="fill: #ffffff;" data-label="G-8">
    <path id="path12633" d="m 155.50195,139.99414 a 0.50005,0.50005 0 0 0 -0.36133,0.85352 C 156.37329,142.12237 157.775,144 160.5,144 c 2.725,0 4.12681,-1.87774 5.35938,-3.15234 a 0.50005,0.50005 0 1 0 -0.71876,-0.69532 C 163.83477,141.50274 162.775,143 160.5,143 c -2.275,0 -3.33487,-1.49737 -4.64062,-2.84766 a 0.50005,0.50005 0 0 0 -0.35743,-0.1582 z" style="color: rgb(0, 0, 0); opacity: 0.6; fill: #ffffff; stroke-width: 1px; stroke-linecap: round; stroke-linejoin: round;"></path>
    <path id="path12645" d="m 152.50195,143 a 0.50005,0.50005 0 0 0 -0.46093,0.69727 l 3,7 a 0.50005,0.50005 0 1 0 0.91796,-0.39454 l -2.50781,-5.85156 5.85156,2.50781 a 0.50005,0.50005 0 1 0 0.39454,-0.91796 l -7,-3 A 0.50005,0.50005 0 0 0 152.50195,143 Z" style="color: rgb(0, 0, 0); opacity: 0.6; fill: #ffffff; stroke-width: 1px; stroke-linecap: round; stroke-linejoin: round;"></path>
  </g>
</svg>