<svg xmlns="http://www.w3.org/2000/svg" height="64" width="64" viewBox="3 155 20 20">
  <g id="g7324" transform="translate(-231.45606,21.458247)" style="" data-label="H-1">
    <path style="opacity: 0.6; fill: #ffffff; stroke-linecap: round; stroke-linejoin: round;" d="m 244.01184,140.51071 c 1.65601,0 3,1.37486 3,3.04688 0,1.67201 -1.34399,3.04687 -3,3.04687 -1.65601,0 -3,-1.37486 -3,-3.04687 0,-1.67202 1.34399,-3.04688 3,-3.04688 z m 0,1 c -1.10534,0 -2,0.90526 -2,2.04688 0,1.14161 0.89466,2.04687 2,2.04687 1.10534,0 2,-0.90526 2,-2.04687 0,-1.14162 -0.89466,-2.04688 -2,-2.04688 z" id="circle22836-6"></path>
    <path style="fill: #ffffff; stroke-linecap: round; stroke-linejoin: round;" d="m 244.01184,137.51071 c -3.5093,0 -6,2.77253 -6,5.91992 v 7.08008 h -0.96094 a 0.50004991,0.50004991 0 1 0 0,1 h 1.46094 a 0.50004991,0.50004991 0 0 0 0.5,-0.5 v -7.58008 c 0,-2.62796 2.01002,-4.91992 5,-4.91992 2.99076,0 5,2.29197 5,4.91992 v 7.58008 a 0.50004991,0.50004991 0 0 0 0.5,0.5 h 1.46094 a 0.50004991,0.50004991 0 1 0 0,-1 h -0.96094 v -7.08008 c 0,-3.14741 -2.49004,-5.91992 -6,-5.91992 z" id="path22838-0"></path>
    <g transform="translate(-15.954521,-1.3298229)" style="fill: #ffffff;" id="g26501-5-3">
      <path id="path26499-8-9" d="m 258.49962,136.9993 c -0.27613,3e-5 -0.49997,0.22387 -0.5,0.5 v 3 c 3e-5,0.27613 0.22387,0.49997 0.5,0.5 h 3 c 0.27613,-3e-5 0.49997,-0.22387 0.5,-0.5 v -3 c -3e-5,-0.27613 -0.22387,-0.49997 -0.5,-0.5 z" style="fill: #ffffff; fill-rule: evenodd; stroke-linecap: round; stroke-linejoin: round;"></path>
    </g>
  </g>
</svg>