<svg xmlns="http://www.w3.org/2000/svg" style="background: #808080" height="64" width="64" viewBox="192 155 20 20">
  <g id="g16810" transform="rotate(90,48.5,-204.5)" style="fill: #ffffff;" data-label="H-10">
    <path style="color: rgb(0, 0, 0); fill: #ffffff; stroke-linecap: round; stroke-linejoin: round;" d="m 412.5,-364 c -0.27613,3e-5 -0.49997,0.22387 -0.5,0.5 v 11 c 3e-5,0.27613 0.22387,0.49997 0.5,0.5 h 2 c 0.27613,-3e-5 0.49997,-0.22387 0.5,-0.5 v -11 c -3e-5,-0.27613 -0.22387,-0.49997 -0.5,-0.5 z m 9,0 c -0.27613,3e-5 -0.49997,0.22387 -0.5,0.5 v 11 c 3e-5,0.27613 0.22387,0.49997 0.5,0.5 h 2 c 0.27613,-3e-5 0.49997,-0.22387 0.5,-0.5 v -11 c -3e-5,-0.27613 -0.22387,-0.49997 -0.5,-0.5 z" id="path16808"></path>
  </g>
</svg>