<svg xmlns="http://www.w3.org/2000/svg" style="background: #808080" height="64" width="64" viewBox="234 155 20 20">
  <g id="g4316" style="" data-label="H-12">
    <path style="color: rgb(0, 0, 0); fill: #ffffff; stroke-linecap: round; stroke-linejoin: round;" d="m 241.49219,158.00781 c -0.1326,3e-5 -0.25982,0.0527 -0.35352,0.14649 l -4,4 c -0.094,0.0938 -0.14648,0.22091 -0.14648,0.35351 v 9 c 0,0.27613 0.2239,0.49997 0.5,0.5 h 9 c 0.1326,-3e-5 0.25971,-0.0527 0.35351,-0.14648 l 4,-4 c 0.094,-0.0938 0.14649,-0.22092 0.14649,-0.35352 v -9 c 0,-0.27613 -0.2239,-0.49997 -0.5,-0.5 z m 7.48828,0.98242 a 1.0001,1.0001 0 0 1 0.72656,1.7168 L 247,163.41406 V 170 a 1.0001,1.0001 0 1 1 -2,0 v -6 h -6 a 1.0001,1.0001 0 1 1 0,-2 h 6.58594 l 2.70703,-2.70703 a 1.0001,1.0001 0 0 1 0.6875,-0.30274 z" id="path28084-2"></path>
  </g>
</svg>