<svg xmlns="http://www.w3.org/2000/svg" style="background: #808080" height="64" width="64" viewBox="276 155 20 20">
  <g style="fill: #ffffff;" id="g14467" transform="translate(-63)" data-label="H-14">
    <path style="color: rgb(0, 0, 0); fill: #ffffff; stroke-linecap: round; stroke-linejoin: round;" d="m 347.5,161 c -0.27613,3e-5 -0.49997,0.22387 -0.5,0.5 v 2.5 h -1.5 c -0.27613,3e-5 -0.49997,0.22387 -0.5,0.5 v 3 c 3e-5,0.27613 0.22387,0.49997 0.5,0.5 h 3 c 0.27613,-3e-5 0.49997,-0.22387 0.5,-0.5 v 1 c 3e-5,0.27613 0.22387,0.49997 0.5,0.5 h 3 c 0.27613,-3e-5 0.49997,-0.22387 0.5,-0.5 v -3 c -3e-5,-0.27613 -0.22387,-0.49997 -0.5,-0.5 h -2 c 0.27613,-3e-5 0.49997,-0.22387 0.5,-0.5 v -3 c -3e-5,-0.27613 -0.22387,-0.49997 -0.5,-0.5 z m 0.5,1 h 2 v 2 h -2 z m -2,3 h 2 v 2 h -2 z m 4,1 h 2 v 2 h -2 z" id="rect14393"></path>
    <path style="color: rgb(0, 0, 0); opacity: 0.6; fill: #ffffff; stroke-linecap: round; stroke-linejoin: round;" d="m 342.49219,157.99219 a 0.50005,0.50005 0 0 0 -0.31641,0.12109 0.50005,0.50005 0 0 0 -0.0195,0.0156 0.50005,0.50005 0 0 0 -0.0176,0.0176 0.50005,0.50005 0 0 0 -0.002,0.004 0.50005,0.50005 0 0 0 -0.0312,0.0332 0.50005,0.50005 0 0 0 -0.002,0.004 0.50005,0.50005 0 0 0 -0.0274,0.0371 0.50005,0.50005 0 0 0 -0.002,0.004 A 0.50005,0.50005 0 0 0 342,158.58203 V 159.5 a 0.50005,0.50005 0 1 0 1,0 V 159 h 0.5 a 0.50005,0.50005 0 1 0 0,-1 h -0.91992 a 0.50005,0.50005 0 0 0 -0.0879,-0.008 z m 13,0 A 0.50005,0.50005 0 0 0 355.41797,158 H 354.5 a 0.50005,0.50005 0 1 0 0,1 h 0.5 v 0.5 a 0.50005,0.50005 0 1 0 1,0 v -0.91992 a 0.50005,0.50005 0 0 0 -0.11328,-0.4043 0.50005,0.50005 0 0 0 -0.002,-0.004 0.50005,0.50005 0 0 0 -0.0312,-0.0332 0.50005,0.50005 0 0 0 -0.004,-0.002 0.50005,0.50005 0 0 0 -0.0332,-0.0312 0.50005,0.50005 0 0 0 -0.004,-0.002 0.50005,0.50005 0 0 0 -0.32031,-0.11133 z M 345.5,158 a 0.50005,0.50005 0 1 0 0,1 h 1 a 0.50005,0.50005 0 1 0 0,-1 z m 3,0 a 0.50005,0.50005 0 1 0 0,1 h 1 a 0.50005,0.50005 0 1 0 0,-1 z m 3,0 a 0.50005,0.50005 0 1 0 0,1 h 1 a 0.50005,0.50005 0 1 0 0,-1 z m -9.00781,2.99219 A 0.50005,0.50005 0 0 0 342,161.5 v 1 a 0.50005,0.50005 0 1 0 1,0 v -1 a 0.50005,0.50005 0 0 0 -0.50781,-0.50781 z m 13,0 A 0.50005,0.50005 0 0 0 355,161.5 v 1 a 0.50005,0.50005 0 1 0 1,0 v -1 a 0.50005,0.50005 0 0 0 -0.50781,-0.50781 z m -13,3 A 0.50005,0.50005 0 0 0 342,164.5 v 1 a 0.50005,0.50005 0 1 0 1,0 v -1 a 0.50005,0.50005 0 0 0 -0.50781,-0.50781 z m 13,0 A 0.50005,0.50005 0 0 0 355,164.5 v 1 a 0.50005,0.50005 0 1 0 1,0 v -1 a 0.50005,0.50005 0 0 0 -0.50781,-0.50781 z m -13,3 A 0.50005,0.50005 0 0 0 342,167.5 v 1 a 0.50005,0.50005 0 1 0 1,0 v -1 a 0.50005,0.50005 0 0 0 -0.50781,-0.50781 z m 13,0 A 0.50005,0.50005 0 0 0 355,167.5 v 1 a 0.50005,0.50005 0 1 0 1,0 v -1 a 0.50005,0.50005 0 0 0 -0.50781,-0.50781 z m -13,3 A 0.50005,0.50005 0 0 0 342,170.5 v 0.91992 a 0.50005,0.50005 0 0 0 0.11328,0.4043 0.50005,0.50005 0 0 0 0.0156,0.0195 0.50005,0.50005 0 0 0 0.0176,0.0176 0.50005,0.50005 0 0 0 0.004,0.002 0.50005,0.50005 0 0 0 0.0332,0.0312 0.50005,0.50005 0 0 0 0.004,0.002 A 0.50005,0.50005 0 0 0 342.58203,172 H 343.5 a 0.50005,0.50005 0 1 0 0,-1 H 343 v -0.5 a 0.50005,0.50005 0 0 0 -0.50781,-0.50781 z m 13,0 A 0.50005,0.50005 0 0 0 355,170.5 v 0.5 h -0.5 a 0.50005,0.50005 0 1 0 0,1 h 0.91992 a 0.50005,0.50005 0 0 0 0.4043,-0.11328 0.50005,0.50005 0 0 0 0.004,-0.002 0.50005,0.50005 0 0 0 0.0332,-0.0312 0.50005,0.50005 0 0 0 0.002,-0.004 0.50005,0.50005 0 0 0 0.0312,-0.0332 0.50005,0.50005 0 0 0 0.002,-0.004 0.50005,0.50005 0 0 0 0.0274,-0.0371 0.50005,0.50005 0 0 0 0.002,-0.004 0.50005,0.50005 0 0 0 0.074,-0.35325 V 170.5 a 0.50005,0.50005 0 0 0 -0.50781,-0.50781 z M 345.5,171 a 0.50005,0.50005 0 1 0 0,1 h 1 a 0.50005,0.50005 0 1 0 0,-1 z m 3,0 a 0.50005,0.50005 0 1 0 0,1 h 1 a 0.50005,0.50005 0 1 0 0,-1 z m 3,0 a 0.50005,0.50005 0 1 0 0,1 h 1 a 0.50005,0.50005 0 1 0 0,-1 z" id="path14460"></path>
  </g>
</svg>