<svg xmlns="http://www.w3.org/2000/svg" style="background: #808080" height="64" width="64" viewBox="323 148 20 20">
  <g id="g4304" style="" data-label="H-17">
    <path style="color: rgb(0, 0, 0); fill: #ffffff; stroke-width: 1px; stroke-linecap: round; stroke-linejoin: round; marker: none;" d="m 342.5,158 c -0.27613,3e-5 -0.49997,0.22387 -0.5,0.5 v 13 c 3e-5,0.27613 0.22387,0.49997 0.5,0.5 h 13 c 0.27613,-3e-5 0.49997,-0.22387 0.5,-0.5 v -13 c -3e-5,-0.27613 -0.22387,-0.49997 -0.5,-0.5 z m 6.5,3 c 2.20237,0 4,1.79764 4,4 0,2.20237 -1.79763,4 -4,4 -2.20236,0 -4,-1.79763 -4,-4 0,-2.20236 1.79764,-4 4,-4 z" id="rect13348"></path>
  </g>
</svg>