<svg xmlns="http://www.w3.org/2000/svg" style="background: #808080" height="64" width="64" viewBox="343 148 20 20">
  <g id="g15336" style="opacity: 0.6; fill: #ffffff;" data-label="H-18">
    <path id="path13329" d="m 369.99998,160.99999 c -2.20236,0 -4,1.79764 -4,4 0,2.20237 1.79764,4 4,4 2.20237,0 4,-1.79763 4,-4 0,-2.20236 -1.79763,-4 -4,-4 z" style="color: rgb(0, 0, 0); fill: #ffffff; stroke-width: 1px; stroke-linecap: round; stroke-linejoin: round; marker: none;"></path>
    <path style="color: rgb(0, 0, 0); opacity: 0.3; fill: #ffffff; stroke-width: 1px; stroke-linecap: round; stroke-linejoin: round; marker: none;" d="m 363.5,158 a 0.50005,0.50005 0 0 0 -0.5,0.5 v 13 a 0.50005,0.50005 0 0 0 0.5,0.5 h 13 a 0.50005,0.50005 0 0 0 0.5,-0.5 v -13 a 0.50005,0.50005 0 0 0 -0.5,-0.5 z m 0.5,1 h 12 v 12 h -12 z" id="rect13350"></path>
  </g>
</svg>