<svg xmlns="http://www.w3.org/2000/svg" height="64" width="64" viewBox="381 155 20 20">
  <g id="g15500" style="fill: #ffffff;" data-label="H-19">
    <path style="opacity: 0.6; fill: #ffffff; stroke-linecap: square; stroke-linejoin: round;" d="m 384.5,158 c -0.27613,3e-5 -0.49997,0.22387 -0.5,0.5 v 3 c 3e-5,0.27613 0.22387,0.49997 0.5,0.5 h 13 c 0.27613,-3e-5 0.49997,-0.22387 0.5,-0.5 v -3 c -3e-5,-0.27613 -0.22387,-0.49997 -0.5,-0.5 z m 0.5,1 h 12 v 2 h -12 z m -0.5,9 c -0.27613,3e-5 -0.49997,0.22387 -0.5,0.5 v 3 c 3e-5,0.27613 0.22387,0.49997 0.5,0.5 h 13 c 0.27613,-3e-5 0.49997,-0.22387 0.5,-0.5 v -3 c -3e-5,-0.27613 -0.22387,-0.49997 -0.5,-0.5 z m 0.5,1 h 12 v 2 h -12 z" id="path15496"></path>
    <path style="fill: #ffffff; stroke-width: 1px; stroke-linecap: round; stroke-linejoin: round;" d="M 393.00001,165 A 2.000005,2.000005 0 0 1 391,167.00001 2.000005,2.000005 0 0 1 388.99999,165 2.000005,2.000005 0 0 1 391,162.99999 2.000005,2.000005 0 0 1 393.00001,165 Z" id="circle15498"></path>
  </g>
</svg>