<svg xmlns="http://www.w3.org/2000/svg" height="64" width="64" viewBox="24 155 20 20">
  <g id="g27942" style="fill: #ffffff;" transform="translate(-21)" data-label="H-2">
    <path style="color: rgb(0, 0, 0); opacity: 0.6; fill: #ffffff; fill-rule: evenodd; stroke-linecap: round; stroke-linejoin: round;" d="m 49.46875,159 a 0.50005,0.50005 0 0 0 -0.5,0.5 v 11 a 0.50005,0.50005 0 0 0 0.5,0.5 h 11 a 0.50005,0.50005 0 0 0 0.5,-0.5 v -11 a 0.50005,0.50005 0 0 0 -0.5,-0.5 z m 0.5,1 h 10 v 10 h -10 z" id="path26471-6-1"></path>
    <path style="color: rgb(0, 0, 0); fill: #ffffff; fill-rule: evenodd; stroke-linecap: round; stroke-linejoin: round;" d="m 53.5,163 c -0.276131,3e-5 -0.499972,0.22387 -0.5,0.5 v 3 c 2.8e-5,0.27613 0.223869,0.49997 0.5,0.5 h 3 c 0.276131,-3e-5 0.499972,-0.22387 0.5,-0.5 v -3 c -2.8e-5,-0.27613 -0.223869,-0.49997 -0.5,-0.5 z" id="path22120-2-1-2"></path>
  </g>
</svg>