<svg xmlns="http://www.w3.org/2000/svg" height="64" width="64" viewBox="423 155 20 20">
  <g transform="translate(1.74999e-7,23)" id="g21364" style="fill: #ffffff;" data-label="H-21">
    <g id="g5447" style="fill:#ffffff">
      <path style="color: rgb(0, 0, 0); opacity: 0.6; fill: #ffffff; stroke-linecap: round; stroke-linejoin: round;" d="m 430.49219,134.99219 a 0.50005,0.50005 0 0 0 -0.38867,0.19531 0.50005,0.50005 0 0 0 -0.004,0.006 l -1.95313,1.95312 a 0.50005,0.50005 0 1 0 0.70703,0.70704 L 430,136.70703 V 140.5 a 0.50005,0.50005 0 1 0 1,0 v -3.79297 l 1.14648,1.14649 a 0.50005,0.50005 0 1 0 0.70704,-0.70704 l -1.95704,-1.95703 a 0.50005,0.50005 0 0 0 -0.40429,-0.19726 z m 7.00195,7.00195 a 0.50005,0.50005 0 0 0 -0.34766,0.85938 L 438.29297,144 H 434.5 a 0.50005,0.50005 0 1 0 0,1 h 3.79297 l -1.14649,1.14648 a 0.50005,0.50005 0 1 0 0.70704,0.70704 l 1.95703,-1.95704 a 0.50005,0.50005 0 0 0 0.002,-0.79296 0.50005,0.50005 0 0 0 -0.006,-0.004 l -1.95313,-1.95313 a 0.50005,0.50005 0 0 0 -0.35937,-0.15234 z m -11.00195,2.99805 A 0.50005,0.50005 0 0 0 426,145.5 v 2.93945 A 0.50005,0.50005 0 0 0 426.56055,149 H 429.5 a 0.50005,0.50005 0 1 0 0,-1 h -1.79297 l 1.14649,-1.14648 a 0.50005,0.50005 0 1 0 -0.70704,-0.70704 L 427,147.29297 V 145.5 a 0.50005,0.50005 0 0 0 -0.50781,-0.50781 z" id="path21358"></path>
      <path id="circle21362" d="M 432.99635,144 A 1.99635,1.99635 0 0 1 431,145.99635 1.99635,1.99635 0 0 1 429.00365,144 1.99635,1.99635 0 0 1 431,142.00365 1.99635,1.99635 0 0 1 432.99635,144 Z" style="fill: #ffffff; stroke-linecap: square; stroke-linejoin: round;"></path>
    </g>
  </g>
</svg>