<svg xmlns="http://www.w3.org/2000/svg" height="64" width="64" viewBox="528 155 20 20">
  <g transform="translate(483,-126)" id="g11187" style="fill: #ffffff;" data-label="H-26">
    <path id="path10969" transform="translate(-483,126)" d="m 533.49219,157.99219 a 0.50005,0.50005 0 0 0 -0.38867,0.19531 0.50005,0.50005 0 0 0 -0.004,0.006 l -1.95313,1.95312 a 0.50005,0.50005 0 1 0 0.70704,0.70704 L 533,159.70703 v 7.57422 c -0.59355,0.34821 -1,0.9856 -1,1.71875 0,1.09865 0.90135,2 2,2 0.73315,0 1.37054,-0.40645 1.71875,-1 h 7.57422 l -1.14649,1.14648 a 0.50005,0.50005 0 1 0 0.70704,0.70704 l 1.95703,-1.95704 a 0.50005,0.50005 0 0 0 0.002,-0.79296 0.50005,0.50005 0 0 0 -0.006,-0.004 l -1.95312,-1.95313 a 0.50005,0.50005 0 0 0 -0.35938,-0.15234 0.50005,0.50005 0 0 0 -0.34766,0.85938 L 543.29297,169 H 536 c 0,-1.09865 -0.90135,-2 -2,-2 v -7.29297 l 1.14648,1.14649 a 0.50005,0.50005 0 1 0 0.70704,-0.70704 l -1.95704,-1.95703 a 0.50005,0.50005 0 0 0 -0.40429,-0.19726 z M 534,168 c 0.55821,0 1,0.44179 1,1 0,0.55821 -0.44179,1 -1,1 -0.55821,0 -1,-0.44179 -1,-1 0,-0.55821 0.44179,-1 1,-1 z" style="fill: #ffffff; stroke-linecap: round; stroke-linejoin: round;"></path>
  </g>
</svg>