<svg xmlns="http://www.w3.org/2000/svg" height="64" width="64" viewBox="45 155 20 20">
  <g id="g27914" style="fill: #ffffff;" transform="translate(-21)" data-label="H-3">
    <path style="opacity: 0.6; fill: #ffffff; stroke-linecap: round; stroke-linejoin: round;" d="m 69.5,157.98633 a 0.50005,0.50005 0 0 0 -0.492188,0.50586 v 12.9082 a 0.50005,0.50005 0 0 0 0.08203,0.37695 0.50005,0.50005 0 0 0 0.002,0.004 0.50005,0.50005 0 0 0 0.0293,0.0352 0.50005,0.50005 0 0 0 0.002,0.004 0.50005,0.50005 0 0 0 0.03125,0.0332 0.50005,0.50005 0 0 0 0.02539,0.0215 0.50005,0.50005 0 0 0 0.01172,0.0117 0.50005,0.50005 0 0 0 0.0039,0.002 0.50005,0.50005 0 0 0 0.04102,0.0293 0.50005,0.50005 0 0 0 0.353516,0.0742 h 12.917968 a 0.50005,0.50005 0 1 0 0,-1 h -12.5 v -12.5 A 0.50005,0.50005 0 0 0 69.5,157.98633 Z" id="path15133-4-4"></path>
    <path style="fill: #ffffff; fill-rule: evenodd; stroke-linecap: round; stroke-linejoin: round;" d="m 72.5,165 c -0.276131,3e-5 -0.499972,0.22387 -0.5,0.5 v 3 c 2.8e-5,0.27613 0.223869,0.49997 0.5,0.5 h 3 c 0.276131,-3e-5 0.499972,-0.22387 0.5,-0.5 v -3 c -2.8e-5,-0.27613 -0.223869,-0.49997 -0.5,-0.5 z" id="path22120-2-1"></path>
  </g>
</svg>