<svg xmlns="http://www.w3.org/2000/svg" style="background: #808080" height="64" width="64" viewBox="66 155 20 20">
  <g id="g28061" style="fill: #ffffff;" transform="translate(42,63)" data-label="H-4">
    <path style="color: rgb(0, 0, 0); opacity: 0.7; fill: #ffffff; stroke-width: 1.1; stroke-linecap: round;" d="m 40.433594,95 a 0.55005501,0.55005501 0 0 0 -0.378906,0.166016 l -3.44336,3.445312 a 0.55005501,0.55005501 0 1 0 0.777344,0.777344 l 3.445312,-3.44336 A 0.55005501,0.55005501 0 0 0 40.433594,95 Z m -9.445313,9.44531 a 0.55005501,0.55005501 0 0 0 -0.376953,0.16602 l -3.445312,3.44336 a 0.55104336,0.55104336 0 1 0 0.779296,0.77929 l 3.44336,-3.44531 a 0.55005501,0.55005501 0 0 0 -0.400391,-0.94336 z" id="path27971"></path>
    <path style="color: rgb(0, 0, 0); fill: #ffffff; fill-rule: evenodd; stroke-linecap: round; stroke-linejoin: round;" d="m 32.5,100 c -0.276131,3e-5 -0.499972,0.22387 -0.5,0.5 v 3 c 2.8e-5,0.27613 0.223869,0.49997 0.5,0.5 h 3 c 0.276131,-3e-5 0.499972,-0.22387 0.5,-0.5 v -3 c -2.8e-5,-0.27613 -0.223869,-0.49997 -0.5,-0.5 z" id="path27982"></path>
  </g>
</svg>