<svg xmlns="http://www.w3.org/2000/svg" height="64" width="64" viewBox="150 155 20 20">
  <g transform="translate(-230.993,-230.993)" id="g27963" style="fill: #ffffff;" data-label="H-8">
    <g id="g27959" style="opacity:0.6;fill:#ffffff" transform="translate(126)">
      <path style="color: rgb(0, 0, 0); fill: #ffffff; stroke-width: 1px; stroke-linecap: round; stroke-linejoin: round;" d="m 268.49219,388.99219 c -0.27614,0.004 -0.49651,0.23167 -0.49219,0.50781 v 2.49609 l -2.50586,-0.004 c -0.67605,-0.0108 -0.67808,1.00811 -0.002,1 L 268,392.99609 V 399 h -6.00391 l -0.004,-2.50781 c 0.008,-0.67608 -1.01082,-0.67405 -1,0.002 L 260.99609,399 H 258.5 c -0.67616,-0.01 -0.67616,1.00956 0,1 h 2.49609 l 0.004,2.5 c -0.01,0.67616 1.00956,0.67616 1,0 l -0.004,-2.5 H 268 v 2.5 c -0.01,0.67616 1.00956,0.67616 1,0 V 400 h 2.5 c 0.67616,0.01 0.67616,-1.00956 0,-1 H 269 v -6.00391 l 2.5,0.004 c 0.67616,0.01 0.67616,-1.00956 0,-1 l -2.5,-0.004 V 389.5 c 0.004,-0.28226 -0.22555,-0.51223 -0.50781,-0.50781 z" id="path27957"></path>
    </g>
    <path style="color: rgb(0, 0, 0); fill: #ffffff; fill-rule: evenodd; stroke-linecap: round; stroke-linejoin: round;" d="m 385.5,390 c -0.27613,3e-5 -0.49997,0.22387 -0.5,0.5 v 4 c 3e-5,0.27613 0.22387,0.49997 0.5,0.5 h 4 c 0.27613,-3e-5 0.49997,-0.22387 0.5,-0.5 v -4 c -3e-5,-0.27613 -0.22387,-0.49997 -0.5,-0.5 z" id="path27961"></path>
  </g>
</svg>