<svg xmlns="http://www.w3.org/2000/svg" style="background: #808080" height="64" width="64" viewBox="192 176 20 20">
  <g style="fill: #ffffff;" id="g12986" transform="translate(1.16284e-6,-21)" data-label="I-10">
    <path style="color: rgb(0, 0, 0); fill: #ffffff; stroke-linecap: round; stroke-linejoin: round;" d="m 199.5,205 c 2.47936,0 4.5,2.02063 4.5,4.5 0,2.47937 -2.02064,4.5 -4.5,4.5 -2.47936,0 -4.5,-2.02063 -4.5,-4.5 0,-2.47937 2.02064,-4.5 4.5,-4.5 z m 0,1 c -1.93892,0 -3.5,1.56107 -3.5,3.5 0,1.93893 1.56108,3.5 3.5,3.5 1.93892,0 3.5,-1.56107 3.5,-3.5 0,-1.93893 -1.56108,-3.5 -3.5,-3.5 z" id="ellipse12910"></path>
    <path style="color: rgb(0, 0, 0); opacity: 0.6; fill: #ffffff; stroke-linecap: round; stroke-linejoin: round;" d="m 204.86914,200.01562 c 2.18302,0.17973 3.92401,1.9135 4.11328,4.09571 0.18928,2.18221 -1.22622,4.18928 -3.3457,4.74219 a 0.50005,0.50005 0 1 1 -0.25391,-0.9668 c 1.65432,-0.43156 2.75125,-1.98618 2.60352,-3.68945 -0.14774,-1.70328 -1.49531,-3.04527 -3.19922,-3.18555 -1.70391,-0.14028 -3.25342,0.96296 -3.67773,2.61914 a 0.50005,0.50005 0 1 1 -0.96876,-0.24805 c 0.54363,-2.12187 2.5455,-3.54691 4.72852,-3.36719 z" id="path12915"></path>
    <path style="fill: #ffffff; stroke-linecap: square; stroke-linejoin: round;" d="m 201.00001,209.49817 a 1.498175,1.498175 0 0 1 -1.49818,1.49817 1.498175,1.498175 0 0 1 -1.49817,-1.49817 1.498175,1.498175 0 0 1 1.49817,-1.49818 1.498175,1.498175 0 0 1 1.49818,1.49818 z" id="circle12964"></path>
  </g>
</svg>