<svg xmlns="http://www.w3.org/2000/svg" style="background: #808080" height="64" width="64" viewBox="203 168 20 20">
  <g style="fill: #ffffff;" id="g12981" transform="translate(-1.85367e-6,-21)" data-label="I-11">
    <path style="color: rgb(0, 0, 0); fill: #ffffff; stroke-linecap: round; stroke-linejoin: round;" d="m 226.5,206.99414 a 0.50004997,0.50004997 0 0 0 -0.34766,0.85938 L 228.29883,210 h -10.5918 l 2.14649,-2.14648 a 0.50004997,0.50004997 0 1 0 -0.70704,-0.70704 l -2.95703,2.95704 a 0.50004997,0.50004997 0 0 0 -0.002,0.79296 0.50004997,0.50004997 0 0 0 0.008,0.006 l 2.95117,2.95118 a 0.50004997,0.50004997 0 1 0 0.70704,-0.70704 L 217.70703,211 h 10.5918 l -2.14649,2.14648 a 0.50004997,0.50004997 0 1 0 0.70704,0.70704 l 2.96484,-2.9668 a 0.50004997,0.50004997 0 0 0 0.0195,-0.0156 l 0.0156,-0.0176 a 0.50004997,0.50004997 0 0 0 0.0234,-0.68164 0.50004997,0.50004997 0 0 0 -0.0234,-0.0254 0.50004997,0.50004997 0 0 0 -0.01,-0.01 l -2.99023,-2.99024 A 0.50004997,0.50004997 0 0 0 226.5,206.99414 Z" id="path12879"></path>
    <path id="circle12970" style="fill: #ffffff; stroke-linecap: square; stroke-linejoin: round; marker: none;" d="m 224.00001,202.49817 a 1.498175,1.498175 0 0 1 -1.49818,1.49817 1.498175,1.498175 0 0 1 -1.49817,-1.49817 1.498175,1.498175 0 0 1 1.49817,-1.49818 1.498175,1.498175 0 0 1 1.49818,1.49818 z m 5,0 a 1.498175,1.498175 0 0 1 -1.49818,1.49817 1.498175,1.498175 0 0 1 -1.49817,-1.49817 1.498175,1.498175 0 0 1 1.49817,-1.49818 1.498175,1.498175 0 0 1 1.49818,1.49818 z m -10,0 a 1.498175,1.498175 0 0 1 -1.49818,1.49817 1.498175,1.498175 0 0 1 -1.49817,-1.49817 1.498175,1.498175 0 0 1 1.49817,-1.49818 1.498175,1.498175 0 0 1 1.49818,1.49818 z"></path>
  </g>
</svg>