<svg xmlns="http://www.w3.org/2000/svg" height="64" width="64" viewBox="255 176 20 20">
  <g id="g165448" style="" data-label="I-13">
    <path style="color: rgb(0, 0, 0); fill: #ffffff; stroke-linecap: round; stroke-linejoin: round;" d="m 265.00049,180.00029 c -0.56524,0 -1.07102,0.24537 -1.44727,0.61718 -0.37625,0.37181 -0.64955,0.85716 -0.88086,1.40821 -0.46263,1.10209 -0.75684,2.49042 -1.08008,3.85937 -0.32324,1.36896 -0.67626,2.7158 -1.17383,3.66406 -0.49757,0.94827 -1.04163,1.45118 -1.91211,1.45118 a 0.50005,0.50005 0 1 0 0,1 c 1.29399,0 2.21222,-0.8721 2.79688,-1.98633 0.58466,-1.11424 0.93562,-2.51739 1.26172,-3.89844 0.32609,-1.38105 0.62614,-2.74272 1.0293,-3.70312 0.20157,-0.48021 0.4296,-0.85424 0.6621,-1.08399 0.2325,-0.22975 0.4436,-0.32812 0.74415,-0.32812 0.30054,0 0.51164,0.0984 0.74414,0.32812 0.23249,0.22975 0.46053,0.60378 0.66211,1.08399 0.40315,0.9604 0.7032,2.32207 1.02929,3.70312 0.3261,1.38105 0.67511,2.7842 1.25977,3.89844 0.58466,1.11423 1.50289,1.98633 2.79687,1.98633 a 0.50005,0.50005 0 1 0 0,-1 c -0.87047,0 -1.41258,-0.50291 -1.91015,-1.45118 -0.49757,-0.94826 -0.85059,-2.2951 -1.17383,-3.66406 -0.32324,-1.36895 -0.61745,-2.75728 -1.08008,-3.85937 -0.23131,-0.55105 -0.50461,-1.0364 -0.88086,-1.40821 -0.37625,-0.37181 -0.88203,-0.61718 -1.44726,-0.61718 z" id="path10124-9"></path>
  </g>
</svg>