<svg xmlns="http://www.w3.org/2000/svg" style="background: #808080" height="64" width="64" viewBox="297 176 20 20">
  <g id="g165454" style="" data-label="I-15">
    <path style="color: rgb(0, 0, 0); fill: #ffffff; stroke-width: 1px; stroke-linecap: round;" d="m 307,180 c -1.24829,0 -2.24461,0.83463 -3,1.93555 -0.75539,1.10091 -1.32403,2.51399 -1.76367,3.91601 -0.87928,2.80405 -1.23047,5.58594 -1.23047,5.58594 a 0.50013931,0.50013931 0 1 0 0.99219,0.12695 c 0,0 0.34791,-2.71791 1.19336,-5.41406 0.42272,-1.34808 0.97296,-2.68677 1.63281,-3.64844 C 305.48407,181.54029 306.19904,181 307,181 c 0.80095,0 1.51593,0.54029 2.17578,1.50195 0.65985,0.96167 1.21009,2.30036 1.63281,3.64844 0.84545,2.69615 1.19336,5.41406 1.19336,5.41406 a 0.50013931,0.50013931 0 1 0 0.99219,-0.12695 c 0,0 -0.35119,-2.78189 -1.23047,-5.58594 -0.43964,-1.40202 -1.00828,-2.8151 -1.76367,-3.91601 C 309.24461,180.83464 308.24829,180 307,180 Z" id="path13261"></path>
  </g>
</svg>