<svg xmlns="http://www.w3.org/2000/svg" style="background: #808080" height="64" width="64" viewBox="381 176 20 20">
  <g transform="matrix(-1,0,0,1,401.984,150.996)" id="g13323" style="fill: #ffffff; stroke: #ffffff;" data-label="I-19">
    <path id="path13321" d="M 9.96875,29.048828 C 9.4658605,28.864829 8.9025328,28.986924 8.5410156,29.310547 8.1794984,29.63417 7.9598217,30.084792 7.7695312,30.613281 7.3889504,31.670259 7.1601578,33.086794 6.90625,34.523438 c -0.2539078,1.436643 -0.5324149,2.889409 -0.9414062,3.929687 -0.2044957,0.520139 -0.4424423,0.932648 -0.6894532,1.1875 -0.2470108,0.254852 -0.473033,0.363281 -0.7851562,0.363281 a 0.50005,0.50005 0 1 0 0,1 c 0.5904168,0 1.1159371,-0.267683 1.5039062,-0.667968 0.3879692,-0.400286 0.6690516,-0.922242 0.9023438,-1.515626 0.4665844,-1.186767 0.7390333,-2.679616 0.9941406,-4.123046 0.2551073,-1.443431 0.4935421,-2.842034 0.8183594,-3.744141 0.1624086,-0.451054 0.3541704,-0.76594 0.5,-0.896484 0.1458295,-0.130544 0.1865427,-0.15232 0.4160156,-0.06836 0.057045,0.02087 0.1634141,0.101911 0.2832031,0.296875 0.1197889,0.194965 0.2422649,0.485737 0.3515629,0.826172 0.218596,0.680871 0.393488,1.55941 0.582031,2.373047 0.188543,0.813637 0.358157,1.549689 0.740234,2.082031 0.191039,0.266171 0.511622,0.515788 0.900391,0.50586 0.388769,-0.0099 0.704011,-0.230804 1.001953,-0.542969 0.337514,-0.353626 0.595779,-0.497442 0.722656,-0.529297 0.126878,-0.03186 0.138013,-0.02504 0.242188,0.06836 0.20835,0.186805 0.512485,0.892009 0.740234,1.732422 0.227749,0.840413 0.429042,1.804722 0.716797,2.601563 0.143877,0.39842 0.30542,0.75895 0.542969,1.05664 0.237548,0.297691 0.601614,0.544922 1.027343,0.544922 a 0.50005,0.50005 0 1 0 0,-1 c -0.0724,0 -0.124723,-0.01782 -0.246093,-0.169922 -0.12137,-0.152098 -0.260285,-0.426776 -0.384766,-0.771484 -0.248961,-0.689415 -0.452791,-1.642926 -0.691406,-2.523438 -0.238616,-0.880511 -0.460258,-1.699598 -1.037109,-2.216796 -0.288426,-0.2586 -0.735893,-0.398016 -1.154297,-0.292969 -0.418405,0.105047 -0.794027,0.38192 -1.203125,0.810547 -0.205362,0.215165 -0.318948,0.232836 -0.302735,0.232422 0.01621,-4.14e-4 0.02252,0.02861 -0.0625,-0.08984 C 12.22449,34.745505 11.999507,34.047965 11.816406,33.257812 11.633305,32.46766 11.457527,31.57275 11.210938,30.804688 11.087643,30.420656 10.949285,30.066996 10.761719,29.761719 10.574152,29.456442 10.328076,29.1803 9.96875,29.048828 Z" style="color: rgb(0, 0, 0); fill: #ffffff; stroke-linecap: round; stroke-linejoin: round;"></path>
  </g>
</svg>