<svg xmlns="http://www.w3.org/2000/svg" style="background: #808080" height="64" width="64" viewBox="402 176 20 20">
  <g id="g21139" style="opacity: 0.7; fill: #ffffff;" data-label="I-20">
    <path style="color: rgb(0, 0, 0); opacity: 0.3; fill: #ffffff; fill-rule: evenodd; stroke-linecap: round; stroke-linejoin: round;" d="m 412,179 c -3.86007,0 -7,3.13993 -7,7 0,3.86007 3.13993,7 7,7 3.86007,0 7,-3.13993 7,-7 0,-3.86007 -3.13993,-7 -7,-7 z m 0,1 c 3.31963,0 6,2.68037 6,6 0,3.31963 -2.68037,6 -6,6 -3.31963,0 -6,-2.68037 -6,-6 0,-3.31963 2.68037,-6 6,-6 z" id="path12522"></path>
    <path style="color: rgb(0, 0, 0); fill: #ffffff; fill-rule: evenodd; stroke-linecap: round; stroke-linejoin: round;" d="m 412,184 c -1.09865,0 -2,0.90135 -2,2 0,1.09865 0.90135,2 2,2 1.09865,0 2,-0.90135 2,-2 0,-1.09865 -0.90135,-2 -2,-2 z" id="path12526"></path>
  </g>
</svg>