<svg xmlns="http://www.w3.org/2000/svg" style="background: #808080" height="64" width="64" viewBox="423 176 20 20">
  <g transform="matrix(0.866667,0,0,0.866667,39.5333,-302.8)" id="g12476-7-0" style="fill: #ffffff; stroke-width: 1.15385;" data-label="I-21">
    <path id="path12470-5-6" d="m 454,555.92383 c -4.45393,0 -8.07617,3.62224 -8.07617,8.07617 0,4.45393 3.62224,8.07617 8.07617,8.07617 4.45393,0 8.07617,-3.62224 8.07617,-8.07617 0,-4.45393 -3.62224,-8.07617 -8.07617,-8.07617 z m 0,1.15234 c 3.83034,0 6.92383,3.09349 6.92383,6.92383 0,3.83034 -3.09349,6.92383 -6.92383,6.92383 -3.83034,0 -6.92383,-3.09349 -6.92383,-6.92383 0,-3.83034 3.09349,-6.92383 6.92383,-6.92383 z" style="color: rgb(0, 0, 0); opacity: 0.6; fill: #ffffff; fill-rule: evenodd; stroke-width: 1.15385; stroke-linecap: round; stroke-linejoin: round;"></path>
    <path id="path12474-5-2" d="m 454,561.69141 c -1.26767,-10e-6 -2.3086,1.04092 -2.30859,2.30859 -1e-5,1.26767 1.04092,2.3086 2.30859,2.30859 1.26767,10e-6 2.3086,-1.04092 2.30859,-2.30859 1e-5,-1.26767 -1.04092,-2.3086 -2.30859,-2.30859 z" style="color: rgb(0, 0, 0); fill: #ffffff; fill-rule: evenodd; stroke-width: 1.15385; stroke-linecap: round; stroke-linejoin: round;"></path>
    <path id="path20496-2" d="m 454,558.23047 c -3.17259,10e-6 -5.76953,2.59694 -5.76953,5.76953 -1e-5,3.17259 2.59694,5.76952 5.76953,5.76953 3.1726,10e-6 5.76954,-2.59693 5.76953,-5.76953 0,-3.1726 -2.59693,-5.76954 -5.76953,-5.76953 z m 0,2.30859 c 1.92543,0 3.46094,1.53551 3.46094,3.46094 0,1.92543 -1.53551,3.46094 -3.46094,3.46094 -1.92542,-1e-5 -3.46094,-1.53552 -3.46094,-3.46094 0,-1.92542 1.53552,-3.46093 3.46094,-3.46094 z" style="color: rgb(0, 0, 0); opacity: 0.9; fill: #ffffff; fill-rule: evenodd; stroke-width: 2.30769; stroke-linecap: round; stroke-linejoin: round;"></path>
  </g>
</svg>