<svg xmlns="http://www.w3.org/2000/svg" height="64" width="64" viewBox="444 176 20 20">
  <g style="fill: #ffffff; stroke-width: 1.15385;" id="g12520-1-5" transform="matrix(0.866667,0,0,0.866667,60.5333,-302.8)" data-label="I-22">
    <path id="path12513-1-0" d="m 454,555.92383 c -4.45393,0 -8.07617,3.62224 -8.07617,8.07617 0,4.45393 3.62224,8.07617 8.07617,8.07617 4.45393,0 8.07617,-3.62224 8.07617,-8.07617 0,-4.45393 -3.62224,-8.07617 -8.07617,-8.07617 z m 0,1.15234 c 3.83034,0 6.92383,3.09349 6.92383,6.92383 0,3.83034 -3.09349,6.92383 -6.92383,6.92383 -3.83034,0 -6.92383,-3.09349 -6.92383,-6.92383 0,-3.83034 3.09349,-6.92383 6.92383,-6.92383 z" style="opacity: 0.7; fill: #ffffff; fill-rule: evenodd; stroke-width: 1.15385; stroke-linecap: round; stroke-linejoin: round;"></path>
    <path id="path20498-6" d="m 454,558.23047 c -3.17259,0 -5.76953,2.59694 -5.76953,5.76953 -1e-5,3.1726 2.59693,5.76953 5.76953,5.76953 3.1726,0 5.76954,-2.59693 5.76953,-5.76953 0,-3.17259 -2.59694,-5.76953 -5.76953,-5.76953 z m 0,2.30859 c 1.92542,0 3.46093,1.53552 3.46094,3.46094 0,1.92543 -1.53551,3.46094 -3.46094,3.46094 -1.92543,0 -3.46094,-1.53551 -3.46094,-3.46094 10e-6,-1.92542 1.53552,-3.46094 3.46094,-3.46094 z" style="fill: #ffffff; fill-rule: evenodd; stroke-width: 2.30769; stroke-linecap: round; stroke-linejoin: round;"></path>
  </g>
</svg>