<svg xmlns="http://www.w3.org/2000/svg" height="64" width="64" viewBox="465 176 20 20">
  <g style="fill: #ffffff;" id="g5294-1-7-1" transform="translate(42,-357)" data-label="I-23">
    <path id="path5168-0-2-8" d="m 433,541 c -1.09865,0 -2,0.90135 -2,2 0,1.09865 0.90135,2 2,2 1.09865,0 2,-0.90135 2,-2 0,-1.09865 -0.90135,-2 -2,-2 z" style="fill: #ffffff; fill-rule: evenodd; stroke-linecap: round; stroke-linejoin: round;"></path>
    <path id="path5260-6-8-7" d="m 433.08008,537.98438 c -2.77576,0 -5.01953,2.26323 -5.01953,5.01562 0,2.7524 2.24277,5.02307 5.02148,5.01562 L 439.00195,548 a 1.0001,1.0001 0 1 0 -0.004,-2 l -5.91993,0.0156 c -1.70285,0.005 -3.01757,-1.33278 -3.01757,-3.01562 0,-1.68217 1.31272,-3.01459 3.01757,-3.01562 L 438.99805,540 a 1.0001,1.0001 0 1 0 0.004,-2 l -5.91992,-0.0156 a 1.0001,1.0001 0 0 0 -0.002,0 z" style="opacity: 0.9; fill: #ffffff; fill-rule: evenodd; stroke-width: 2; stroke-linecap: round; stroke-linejoin: round;"></path>
    <path id="path12602-0-0" d="m 433,536 c -2.50006,0 -4.81247,1.33488 -6.0625,3.5 -1.25002,2.16512 -1.25002,4.83488 0,7 1.25003,2.16512 3.56244,3.5 6.0625,3.5 h 6.5 a 0.50005,0.50005 0 1 0 0,-1 H 433 c -2.1444,0 -4.12312,-1.1429 -5.19531,-3 -1.0722,-1.8571 -1.0722,-4.1429 0,-6 1.07219,-1.8571 3.05091,-3 5.19531,-3 h 6.5 a 0.50005,0.50005 0 1 0 0,-1 z" style="opacity: 0.6; fill: #ffffff; stroke-linecap: round; stroke-linejoin: round;"></path>
  </g>
</svg>