<svg xmlns="http://www.w3.org/2000/svg" style="background: #808080" height="64" width="64" viewBox="503 168 20 20">
  <g id="g6932" style="fill: #ffffff;" data-label="I-26">
    <path style="color: rgb(0, 0, 0); fill: #ffffff; stroke-width: 3; stroke-linecap: round; stroke-linejoin: round;" d="m 543.50781,181.99023 a 1.50015,1.50015 0 0 0 -0.67773,0.16797 c -3.41741,1.7087 -5.83009,5.05846 -5.83008,9.3418 a 1.50015,1.50015 0 1 0 3,0 c -10e-6,-3.21666 1.58731,-5.3669 4.16992,-6.6582 a 1.50015,1.50015 0 0 0 -0.66211,-2.85157 z" id="path7270"></path>
    <path style="color: rgb(0, 0, 0); opacity: 0.6; fill: #ffffff; stroke-linecap: round; stroke-linejoin: round;" d="m 536.49609,179.00195 a 0.50005,0.50005 0 0 0 -0.35351,0.12891 c -4.08383,3.59037 -5.14329,7.80863 -5.13086,13.36328 a 0.50005,0.50005 0 1 0 1,-0.002 c -0.0122,-5.43221 0.92902,-9.21403 4.79101,-12.60938 a 0.50005,0.50005 0 0 0 -0.30664,-0.88086 z" id="path7282"></path>
  </g>
</svg>