<svg xmlns="http://www.w3.org/2000/svg" height="64" width="64" viewBox="66 176 20 20">
  <g transform="translate(-105,-21)" id="g24881" style="fill: #ffffff;" data-label="I-4">
    <path id="path24877" d="m 183.8125,200.01562 c 2.21359,0.18235 3.97803,1.94071 4.16992,4.1543 0.19189,2.2136 -1.24344,4.25155 -3.39258,4.8125 a 0.5007349,0.5007349 0 1 1 -0.2539,-0.96875 c 1.68376,-0.43948 2.80079,-2.02289 2.65039,-3.75781 -0.1504,-1.73492 -1.52164,-3.10129 -3.25586,-3.24414 -1.73423,-0.14285 -3.31219,0.98104 -3.74414,2.66797 a 0.50005,0.50005 0 1 1 -0.96875,-0.24805 c 0.55114,-2.15241 2.58133,-3.59836 4.79492,-3.41602 z" style="color: rgb(0, 0, 0); opacity: 0.6; fill: #ffffff; stroke-linecap: round; stroke-linejoin: round;"></path>
    <g id="g24891" transform="matrix(-1,0,0,1,357,0)" style="fill:#ffffff">
      <path d="M 176.99634,212.50183 A 1.4981741,1.4981725 0 0 1 175.49817,214 a 1.4981741,1.4981725 0 0 1 -1.49818,-1.49817 1.4981741,1.4981725 0 0 1 1.49818,-1.49817 1.4981741,1.4981725 0 0 1 1.49817,1.49817 z m 2.39233,-7.41199 c 0.85602,0.17256 1.66292,0.59211 2.30469,1.23828 1.28353,1.29236 1.66074,3.23682 0.95508,4.91602 -0.70566,1.6792 -2.35829,2.76833 -4.17969,2.75586 a 0.50005,0.50005 0 1 1 0.008,-1 c 1.41921,0.01 2.70016,-0.83611 3.25,-2.14453 0.54985,-1.30842 0.25598,-2.81527 -0.74414,-3.82227 -1.00012,-1.00699 -2.50427,-1.31041 -3.8164,-0.76953 C 175.85388,206.80455 175,208.08075 175,209.5 a 0.50005,0.50005 0 1 1 -1,0 c 0,-1.82144 1.10118,-3.466 2.78516,-4.16016 0.84199,-0.34708 1.7475,-0.42255 2.60351,-0.25 z" style="fill: #ffffff; stroke-linecap: square; stroke-linejoin: round;" id="ellipse24887"></path>
    </g>
  </g>
</svg>