<svg xmlns="http://www.w3.org/2000/svg" style="background: #808080" height="64" width="64" viewBox="108 176 20 20">
  <g style="fill: #ffffff;" id="g13014" data-label="I-6">
    <path style="color: rgb(0, 0, 0); opacity: 0.6; fill: #ffffff; stroke-linecap: round; stroke-linejoin: round;" d="m 111.5,179 a 0.50005,0.50005 0 0 0 -0.5,0.5 v 4 a 0.50005,0.50005 0 1 0 1,0 V 180 h 3.5 a 0.50005,0.50005 0 1 0 0,-1 z m 9.00781,0 a 0.50005,0.50005 0 1 0 0,1 h 3.5 v 3.5 a 0.50005,0.50005 0 1 0 1,0 v -4 a 0.50005,0.50005 0 0 0 -0.5,-0.5 z m -9.01562,9 A 0.50005,0.50005 0 0 0 111,188.50781 v 4 a 0.50005,0.50005 0 0 0 0.5,0.5 h 4 a 0.50005,0.50005 0 1 0 0,-1 H 112 v -3.5 A 0.50005,0.50005 0 0 0 111.49219,188 Z M 124.5,188 a 0.50005,0.50005 0 0 0 -0.49219,0.50781 v 3.5 h -3.5 a 0.50005,0.50005 0 1 0 0,1 h 4 a 0.50005,0.50005 0 0 0 0.5,-0.5 v -4 A 0.50005,0.50005 0 0 0 124.5,188 Z" id="path12919"></path>
    <path style="fill: #ffffff; stroke-linecap: square; stroke-linejoin: round;" d="m 120,186.00359 a 1.99635,1.99635 0 0 1 -1.99635,1.99635 1.99635,1.99635 0 0 1 -1.99635,-1.99635 1.99635,1.99635 0 0 1 1.99635,-1.99635 1.99635,1.99635 0 0 1 1.99635,1.99635 z" id="path12956"></path>
  </g>
</svg>