<svg xmlns="http://www.w3.org/2000/svg" style="background: #808080" height="64" width="64" viewBox="129 176 20 20">
  <g id="g165460" style="" data-label="I-7">
    <path d="m 140.99637,186.00011 a 1.99635,1.99635 0 0 1 -1.99635,1.99635 1.99635,1.99635 0 0 1 -1.99635,-1.99635 1.99635,1.99635 0 0 1 1.99635,-1.99635 1.99635,1.99635 0 0 1 1.99635,1.99635 z m -8.50223,-7.00402 a 0.50005,0.50005 0 0 0 -0.34766,0.85743 l 3,3 C 134.44086,183.71574 134,184.80241 134,186 c 2e-5,1.19757 0.44085,2.28425 1.14648,3.14648 l -3,3 a 0.50005,0.50005 0 1 0 0.70704,0.70704 l 3,-3 C 136.71574,190.55915 137.80243,191 139,191 c 1.19757,0 2.28426,-0.44085 3.14648,-1.14648 l 3,3 a 0.50005,0.50005 0 1 0 0.70704,-0.70704 l -3,-3 C 143.55915,188.28425 143.99998,187.19757 144,186 c 0,-1.19759 -0.44086,-2.28426 -1.14648,-3.14648 l 3,-3 a 0.50005,0.50005 0 0 0 -0.36329,-0.85743 0.50005,0.50005 0 0 0 -0.34375,0.15039 l -3,3 C 141.28425,181.44086 140.19759,181 139,181 c -1.19759,0 -2.28425,0.44086 -3.14648,1.14648 l -3,-3 a 0.50005,0.50005 0 0 0 -0.35938,-0.15039 z M 139,182 c 2.21506,0 4.00001,1.78494 4,4 -4e-5,2.21502 -1.78498,4 -4,4 -2.21502,0 -3.99996,-1.78498 -4,-4 -1e-5,-2.21506 1.78494,-4 4,-4 z" style="fill: #ffffff; stroke-linecap: square; stroke-linejoin: round;" id="circle20581-1"></path>
  </g>
</svg>