<svg xmlns="http://www.w3.org/2000/svg" height="64" width="64" viewBox="3 197 20 20">
  <g id="g158056" style="" data-label="J-1">
    <path style="color: rgb(0, 0, 0); fill: #ffffff; stroke-linecap: round; stroke-linejoin: round;" d="m 12.75,200 a 0.50004997,0.50004997 0 0 0 -0.472656,0.33398 L 10.644531,205 H 6.5 A 0.50004997,0.50004997 0 0 0 6,205.5 v 0.75 a 0.50004997,0.50004997 0 0 0 0.2304688,0.41992 l 3.1660156,2.03711 -1.3671875,3.87695 A 0.50004997,0.50004997 0 0 0 8,212.75 v 0.75 a 0.50004997,0.50004997 0 0 0 0.5,0.5 h 0.75 a 0.50004997,0.50004997 0 0 0 0.3261719,-0.12109 L 12.935547,211 h 0.128906 l 3.359375,2.87891 A 0.50004997,0.50004997 0 0 0 16.753906,214 L 17.5,213.99414 a 0.50004997,0.50004997 0 0 0 0.496094,-0.49609 L 18,212.75195 a 0.50004997,0.50004997 0 0 0 -0.0293,-0.16797 l -1.367187,-3.87695 3.166015,-2.03711 A 0.50004997,0.50004997 0 0 0 20,206.25 V 205.5 A 0.50004997,0.50004997 0 0 0 19.5,205 h -4.144531 l -1.632813,-4.66602 A 0.50004997,0.50004997 0 0 0 13.25,200 h -0.251953 z m 0.25,1.30078 1.527344,4.36524 A 0.50004997,0.50004997 0 0 0 15,206 h 3.962891 l -3.232422,2.08008 a 0.50004997,0.50004997 0 0 0 -0.201172,0.58594 L 17,212.83398 l -0.002,0.16407 h -0.06445 l -3.357422,-2.87696 A 0.50004997,0.50004997 0 0 0 13.25,210 h -0.5 a 0.50004997,0.50004997 0 0 0 -0.326172,0.12109 L 9.0644531,213 H 9 v -0.16406 l 1.470703,-4.16992 a 0.50004997,0.50004997 0 0 0 -0.201172,-0.58594 L 7.0371094,206 H 11 a 0.50004997,0.50004997 0 0 0 0.472656,-0.33398 z" id="path14401"></path>
  </g>
</svg>