<svg xmlns="http://www.w3.org/2000/svg" height="64" width="64" viewBox="192 197 20 20">
  <g style="fill: #ffffff;" id="g14237" data-label="J-10">
    <path style="color: rgb(0, 0, 0); fill: #ffffff; stroke-width: 1px; stroke-linecap: round; stroke-linejoin: round;" d="m 207.5,201 a 0.50005,0.50005 0 0 0 -0.40039,0.19922 c -1.548,2.064 -2.85356,4.80197 -4.58594,6.99023 C 200.78129,210.37772 198.70216,212 195.5,212 a 0.50005,0.50005 0 1 0 0,1 c 3.54784,0 5.96871,-1.87772 7.79883,-4.18945 1.7781,-2.24603 3.06678,-4.88493 4.4707,-6.81055 H 208.5 a 0.50005,0.50005 0 1 0 0,-1 z" id="path14262"></path>
    <path style="color: rgb(0, 0, 0); fill: #ffffff; stroke-linecap: round; stroke-linejoin: round;" d="m 197,199.99609 c -0.79172,0 -1.70536,0.42738 -1.98047,1.35938 a 0.50090117,0.50090117 0 1 0 0.96094,0.2832 c 0.12417,-0.42064 0.57767,-0.64258 1.01953,-0.64258 0.26308,0 0.50603,0.0889 0.67773,0.2461 0.17133,0.15683 0.29488,0.38005 0.29883,0.75976 0.001,0.2095 -0.10056,0.41777 -0.33789,0.6875 -0.23733,0.26973 -0.59584,0.56699 -0.97656,0.90235 -0.76143,0.67072 -1.65792,1.5571 -1.66211,2.90234 a 0.50005,0.50005 0 0 0 0.5,0.50195 h 3 a 0.50005,0.50005 0 1 0 0,-1 h -2.33398 c 0.18416,-0.62502 0.58645,-1.15066 1.1582,-1.65429 0.36326,-0.31999 0.74752,-0.62977 1.0664,-0.99219 0.31889,-0.36243 0.58851,-0.81103 0.58594,-1.35156 a 0.50005,0.50005 0 0 0 0,-0.002 c -0.006,-0.61869 -0.24656,-1.14755 -0.62304,-1.49218 -0.37648,-0.34464 -0.8666,-0.50782 -1.35352,-0.50782 z" id="path12457-3"></path>
  </g>
</svg>