<svg xmlns="http://www.w3.org/2000/svg" height="64" width="64" viewBox="213 197 20 20">
  <g style="fill: #ffffff;" id="g14241" data-label="J-11">
    <path style="color: rgb(0, 0, 0); fill: #ffffff; stroke-width: 1px; stroke-linecap: round; stroke-linejoin: round;" d="m 228.5,201 a 0.50005,0.50005 0 0 0 -0.47461,0.3418 c -0.75176,2.25527 -1.61792,4.94183 -3.29101,7.0332 -1.6731,2.09137 -4.11183,3.625 -8.23438,3.625 a 0.50005,0.50005 0 1 0 0,1 c 4.37745,0 7.18872,-1.71637 9.01562,-4 1.74159,-2.17699 2.6089,-4.81175 3.33594,-7 H 229.5 a 0.50005,0.50005 0 1 0 0,-1 z" id="path14266"></path>
    <path style="color: rgb(0, 0, 0); fill: #ffffff; stroke-linecap: round; stroke-linejoin: round;" d="m 218.99805,199.99609 c -0.79172,0 -1.70536,0.42738 -1.98047,1.35938 a 0.50005,0.50005 0 1 0 0.95898,0.2832 c 0.12417,-0.42064 0.57962,-0.64258 1.02149,-0.64258 0.26387,0 0.51715,0.0894 0.69531,0.24805 0.17816,0.15864 0.30325,0.37905 0.30664,0.75586 0.001,0.39768 -0.25396,0.75725 -0.76367,1.07422 a 0.50005,0.50005 0 0 0 0,0.84766 c 0.51034,0.31737 0.7656,0.67798 0.76367,1.07617 -0.004,0.37528 -0.12888,0.59561 -0.30664,0.7539 -0.17816,0.15864 -0.43144,0.24805 -0.69531,0.24805 -0.44187,0 -0.89732,-0.21999 -1.02149,-0.64062 a 0.50005,0.50005 0 1 0 -0.95898,0.28124 c 0.27511,0.93201 1.18875,1.35938 1.98047,1.35938 0.48612,0 0.97796,-0.16058 1.36133,-0.50195 0.38336,-0.34137 0.63501,-0.871 0.64062,-1.49414 a 0.50005,0.50005 0 0 0 0,-0.002 c 0.003,-0.61795 -0.34308,-1.09989 -0.77734,-1.5039 0.43425,-0.40402 0.78027,-0.88601 0.77734,-1.50391 a 0.50005,0.50005 0 0 0 0,-0.002 c -0.006,-0.62314 -0.25726,-1.15277 -0.64062,-1.49414 -0.38337,-0.34137 -0.87521,-0.50196 -1.36133,-0.50196 z" id="path14395"></path>
  </g>
</svg>