<svg xmlns="http://www.w3.org/2000/svg" style="background: #808080" height="64" width="64" viewBox="223 188 20 20">
  <g style="fill: #ffffff;" id="g14245" data-label="J-12">
    <path style="color: rgb(0, 0, 0); fill: #ffffff; stroke-width: 1px; stroke-linecap: round; stroke-linejoin: round;" d="m 249.5,201 a 0.50005,0.50005 0 0 0 -0.49805,0.45508 c -0.24047,2.64524 -1.32572,5.28945 -3.23633,7.25976 C 243.85502,210.68516 241.12778,212 237.5,212 a 0.50005,0.50005 0 1 0 0,1 c 3.87222,0 6.89498,-1.43516 8.98438,-3.58984 1.97612,-2.03788 3.06007,-4.712 3.39843,-7.41016 H 250.5 a 0.50005,0.50005 0 1 0 0,-1 z" id="path14271"></path>
    <path style="color: rgb(0, 0, 0); fill: #ffffff; stroke-linecap: round; stroke-linejoin: round;" d="m 238.4668,199.99414 c -0.21842,0.0156 -0.40126,0.17156 -0.45118,0.38477 l -1,4 c -0.0786,0.31522 0.15949,0.62057 0.48438,0.62109 h 2.5 v 1.5 c -0.01,0.67616 1.00956,0.67616 1,0 v -4 c -0.009,-0.6573 -0.9907,-0.6573 -1,0 v 1.5 h -1.85938 l 0.84376,-3.37891 c 0.0877,-0.33109 -0.17587,-0.65038 -0.51758,-0.62695 z" id="path14402"></path>
  </g>
</svg>