<svg xmlns="http://www.w3.org/2000/svg" style="background: #808080" height="64" width="64" viewBox="255 197 20 20">
  <g style="fill: #ffffff;" id="g14249" data-label="J-13">
    <path style="color: rgb(0, 0, 0); fill: #ffffff; stroke-width: 1px; stroke-linecap: round; stroke-linejoin: round;" d="m 270.5,201 a 0.50005,0.50005 0 0 0 -0.5,0.5 c 0,3.44341 -1.07548,6.03173 -3.02344,7.79102 C 265.02861,211.0503 262.16329,212 258.5,212 a 0.50005,0.50005 0 1 0 0,1 c 3.83671,0 6.97139,-1.00062 9.14844,-2.9668 2.06597,-1.86586 3.15029,-4.63736 3.26367,-8.0332 H 271.5 a 0.50005,0.50005 0 1 0 0,-1 z" id="path14273"></path>
    <path style="color: rgb(0, 0, 0); fill: #ffffff; stroke-linecap: round; stroke-linejoin: round;" d="m 258.5,199.99609 a 0.50005,0.50005 0 0 0 -0.5,0.5 V 202.5 a 0.50005,0.50005 0 0 0 0.5,0.5 h 1.5 c 0.41667,0 1,0.45 1,1.5 0,1.04998 -0.58056,1.4941 -1.00195,1.49609 -0.52634,0.003 -0.86013,-0.33871 -1.05078,-0.72265 a 0.50005,0.50005 0 1 0 -0.89454,0.44531 c 0.30945,0.62316 0.97566,1.28254 1.94922,1.27734 C 261.08054,206.99099 262,205.95002 262,204.5 c 0,-1.45 -0.91667,-2.5 -2,-2.5 h -1 v -1.00391 h 2.5 a 0.50005,0.50005 0 1 0 0,-1 z" id="path14399"></path>
  </g>
</svg>