<svg xmlns="http://www.w3.org/2000/svg" height="64" width="64" viewBox="318 197 20 20">
  <g id="g158074" style="" data-label="J-16">
    <path style="color: rgb(0, 0, 0); fill: #ffffff; stroke-linecap: round; stroke-linejoin: round;" d="m 321.5,201 a 0.50005,0.50005 0 1 0 0,1 h 0.5 c 0.11714,0 0.21825,0.0354 0.36133,0.1582 0.14308,0.12279 0.30922,0.33684 0.46875,0.63282 0.31905,0.59195 0.61443,1.49542 0.87109,2.55468 0.51334,2.11854 0.89163,4.86411 1.30664,7.24024 a 0.50005,0.50005 0 0 0 0.98242,0.008 c 0.24141,-1.26736 0.60565,-2.19557 0.98829,-2.76953 0.38264,-0.57396 0.74023,-0.76172 1.02148,-0.76172 0.28125,0 0.63884,0.18776 1.02148,0.76172 0.38264,0.57396 0.74688,1.50217 0.98829,2.76953 a 0.50005,0.50005 0 0 0 0.96093,0.0762 c 0.24086,-0.66235 0.48023,-1.14224 0.6836,-1.42187 0.20337,-0.27964 0.32487,-0.31055 0.3457,-0.31055 0.0208,0 0.14233,0.0309 0.3457,0.31055 0.20337,0.27963 0.44274,0.75952 0.6836,1.42187 A 0.50005,0.50005 0 0 0 333.5,213 h 1 a 0.50005,0.50005 0 1 0 0,-1 h -0.69141 c -0.20925,-0.52074 -0.41629,-1.01454 -0.65429,-1.3418 -0.29663,-0.40786 -0.67513,-0.7207 -1.1543,-0.7207 -0.47917,0 -0.85767,0.31284 -1.1543,0.7207 -0.10194,0.14017 -0.18655,0.39972 -0.28125,0.57422 -0.21984,-0.70238 -0.40285,-1.50076 -0.71093,-1.96289 -0.49236,-0.73854 -1.13477,-1.20703 -1.85352,-1.20703 -0.71875,0 -1.36116,0.46849 -1.85352,1.20703 -0.20879,0.3132 -0.31334,0.90706 -0.48242,1.33008 -0.30463,-1.87209 -0.5915,-3.83467 -0.99218,-5.48828 -0.26658,-1.10016 -0.56623,-2.0626 -0.96094,-2.79492 -0.19736,-0.36617 -0.41893,-0.67716 -0.69727,-0.91602 C 322.73533,201.16153 322.38008,201 322,201 Z" id="path53380-0"></path>
  </g>
</svg>