<svg xmlns="http://www.w3.org/2000/svg" height="64" width="64" viewBox="360 197 20 20">
  <g id="g158080" style="" data-label="J-18">
    <path style="color: rgb(0, 0, 0); fill: #ffffff; stroke-linecap: round; stroke-linejoin: round;" d="m 375.5,201 a 0.50005,0.50005 0 0 0 -0.47852,0.35547 c -0.97912,3.26329 -1.65795,6.01658 -2.41406,7.89453 -0.37805,0.93897 -0.77714,1.65307 -1.20117,2.10156 C 370.98222,211.80006 370.56872,212 370,212 c -0.81989,0 -1.77194,-0.85368 -2.74219,-1.84961 -0.48512,-0.49796 -0.97309,-1.01146 -1.49609,-1.41992 C 365.23871,208.32201 364.66174,208 364,208 h -0.5 a 0.50005,0.50005 0 1 0 0,1 h 0.5 c 0.32338,0 0.70916,0.17799 1.14648,0.51953 0.43732,0.34154 0.9074,0.82804 1.39649,1.33008 C 367.52115,211.85368 368.58382,213 370,213 c 0.83577,0 1.56694,-0.36242 2.13281,-0.96094 0.56587,-0.59851 1.00027,-1.41738 1.40235,-2.41601 0.7683,-1.90825 1.43134,-4.57357 2.33398,-7.62305 H 376.5 a 0.50005,0.50005 0 1 0 0,-1 z" id="path16580-7"></path>
  </g>
</svg>