<svg xmlns="http://www.w3.org/2000/svg" height="64" width="64" viewBox="24 197 20 20">
  <g id="g158053" style="" data-label="J-2">
    <path style="color: rgb(0, 0, 0); fill: #ffffff; stroke-linecap: round; stroke-linejoin: round;" d="m 33.75,200 c -0.212514,-4.2e-4 -0.402079,0.13353 -0.472656,0.33398 L 31.644531,205 H 27.5 c -0.276131,3e-5 -0.499972,0.22387 -0.5,0.5 v 0.75 c 4.22e-4,0.17006 0.08724,0.32824 0.230469,0.41992 l 3.166015,2.03711 -1.367187,3.87695 c -0.01909,0.0533 -0.029,0.10942 -0.0293,0.16602 v 0.75 c 2.8e-5,0.27613 0.223869,0.49997 0.5,0.5 h 0.75 c 0.119714,-2e-5 0.235448,-0.043 0.326172,-0.12109 L 33.935547,211 h 0.128906 l 3.359375,2.87891 c 0.09174,0.079 0.209022,0.12201 0.330078,0.12109 L 38.5,213.99414 c 0.273087,-0.002 0.49394,-0.223 0.496094,-0.49609 L 39,212.75195 c -7.9e-5,-0.0572 -0.01,-0.11407 -0.0293,-0.16797 l -1.367187,-3.87695 3.166015,-2.03711 C 40.912757,206.57824 40.999577,206.42006 41,206.25 v -0.75 c -2.8e-5,-0.27613 -0.223869,-0.49997 -0.5,-0.5 h -4.144531 l -1.632813,-4.66602 C 34.652079,200.13353 34.462514,199.99958 34.25,200 h -0.251953 z" id="path14398"></path>
  </g>
</svg>