<svg xmlns="http://www.w3.org/2000/svg" height="64" width="64" viewBox="423 197 20 20">
  <g id="g158071" style="" data-label="J-21">
    <path style="fill: #ffffff; stroke-width: 1px; stroke-linecap: round; stroke-linejoin: round;" d="m 439,201 c -1.59692,0 -2.85915,0.78757 -3.86133,1.88086 -1.00218,1.09329 -1.79297,2.49805 -2.57422,3.87305 -0.78125,1.375 -1.55296,2.72024 -2.4414,3.68945 C 429.2346,211.41257 428.27808,212 427,212 h -0.5 a 0.50005,0.50005 0 1 0 0,1 h 0.5 c 1.59692,0 2.85915,-0.78757 3.86133,-1.88086 1.00218,-1.09329 1.79297,-2.49805 2.57422,-3.87305 0.78125,-1.375 1.55296,-2.72024 2.4414,-3.68945 C 436.7654,202.58743 437.72192,202 439,202 h 0.5 a 0.50005,0.50005 0 1 0 0,-1 z" id="path14305"></path>
  </g>
</svg>