<svg xmlns="http://www.w3.org/2000/svg" height="64" width="64" viewBox="444 197 20 20">
  <g style="fill: #ffffff;" id="g14253" data-label="J-22">
    <path style="color: rgb(0, 0, 0); opacity: 0.6; fill: #ffffff; stroke-linecap: round; stroke-linejoin: round;" d="m 447.5,200 a 0.50005,0.50005 0 0 0 -0.5,0.5 v 4 a 0.50005,0.50005 0 1 0 1,0 V 201 h 3.5 a 0.50005,0.50005 0 1 0 0,-1 z m 9.00781,0 a 0.50005,0.50005 0 1 0 0,1 h 3.5 v 3.5 a 0.50005,0.50005 0 1 0 1,0 v -4 a 0.50005,0.50005 0 0 0 -0.5,-0.5 z m -9.01562,9 A 0.50005,0.50005 0 0 0 447,209.50781 v 4 a 0.50005,0.50005 0 0 0 0.5,0.5 h 4 a 0.50005,0.50005 0 1 0 0,-1 H 448 v -3.5 A 0.50005,0.50005 0 0 0 447.49219,209 Z M 460.5,209 a 0.50005,0.50005 0 0 0 -0.49219,0.50781 v 3.5 h -3.5 a 0.50005,0.50005 0 1 0 0,1 h 4 a 0.50005,0.50005 0 0 0 0.5,-0.5 v -4 A 0.50005,0.50005 0 0 0 460.5,209 Z" id="path13927-5"></path>
    <path style="color: rgb(0, 0, 0); fill: #ffffff; stroke-linecap: round; stroke-linejoin: round;" d="m 449.5,203 a 0.50005,0.50005 0 1 0 0,1 h 1 c 0.39167,0 0.74862,0.27445 1.13672,0.86719 0.3881,0.59273 0.74407,1.4462 1.08594,2.3164 0.34186,0.8702 0.67067,1.75605 1.06836,2.4668 0.19884,0.35538 0.41332,0.66981 0.68554,0.91797 0.27222,0.24816 0.62761,0.43164 1.02344,0.43164 0.625,0 1.13349,-0.27613 1.44727,-0.64648 0.31377,-0.37036 0.47247,-0.79704 0.61523,-1.17774 0.14276,-0.3807 0.2723,-0.71757 0.41406,-0.91016 C 458.11833,208.07304 458.20536,208 458.5,208 a 0.50005,0.50005 0 1 0 0,-1 c -0.58036,0 -1.05583,0.30196 -1.32812,0.67188 -0.2723,0.36991 -0.40839,0.78304 -0.54688,1.15234 -0.13849,0.3693 -0.27667,0.69262 -0.43945,0.88476 C 456.02276,209.90113 455.875,210 455.5,210 c -0.10417,0 -0.20191,-0.0353 -0.34961,-0.16992 -0.1477,-0.13465 -0.31994,-0.3671 -0.48828,-0.66797 -0.33669,-0.60175 -0.66413,-1.4659 -1.00977,-2.3457 -0.34563,-0.8798 -0.70841,-1.77633 -1.17968,-2.4961 C 452.00138,203.60055 451.35833,203 450.5,203 Z" id="path14224"></path>
  </g>
</svg>