<svg xmlns="http://www.w3.org/2000/svg" height="64" width="64" viewBox="87 197 20 20">
  <g style="fill: #ffffff;" id="g13322" transform="translate(-1.85367e-6,21)" data-label="J-5">
    <g id="g14281" transform="translate(84,200)" style="opacity:0.6;fill:#ffffff">
      <g transform="matrix(1,0,0,-1,-294,368)" id="g14276" style="fill: #ffffff;">
        <path style="fill: #ffffff; stroke-linecap: round; stroke-linejoin: round;" d="m 300.5,375 a 0.50005,0.50005 0 0 0 -0.5,0.5 v 3 a 0.50005,0.50005 0 0 0 0.5,0.5 h 10 a 0.50005,0.50005 0 0 0 0.5,-0.5 v -3 a 0.50005,0.50005 0 0 0 -0.5,-0.5 z m 0.5,1 h 9 v 2 h -9 z" id="path14272"></path>
        <path style="fill: #ffffff; stroke-linecap: round; stroke-linejoin: round;" d="m 304.5,378 a 0.50005,0.50005 0 0 0 -0.5,0.5 v 3 a 0.50005,0.50005 0 0 0 0.5,0.5 h 9 a 0.50005,0.50005 0 0 0 0.5,-0.5 v -3 a 0.50005,0.50005 0 0 0 -0.5,-0.5 z m 0.5,1 h 8 v 2 h -8 z" id="path14274"></path>
      </g>
    </g>
    <path style="fill: #ffffff; fill-rule: evenodd; stroke-linecap: round; stroke-linejoin: round;" d="m 93.5,179 c -0.412872,-7.2e-4 -0.648693,0.47092 -0.400391,0.80078 l 3,4 c 0.2,0.26732 0.600782,0.26732 0.800782,0 l 3,-4 C 100.14869,179.47092 99.912872,178.99928 99.5,179 Z" id="path14203-1"></path>
  </g>
</svg>