<svg xmlns="http://www.w3.org/2000/svg" style="background: #808080" height="64" width="64" viewBox="150 197 20 20">
  <g style="fill: #ffffff;" id="g13432" data-label="J-8">
    <path style="color: rgb(0, 0, 0); fill: #ffffff; stroke-width: 1px; stroke-linecap: round; stroke-linejoin: round;" d="m 166,201 c -1.59692,0 -2.85915,0.78757 -3.86133,1.88086 -1.00218,1.09329 -1.79297,2.49805 -2.57422,3.87305 -0.78125,1.375 -1.55296,2.72024 -2.4414,3.68945 C 156.2346,211.41257 155.27808,212 154,212 h -0.5 a 0.50005,0.50005 0 1 0 0,1 h 0.5 c 1.59692,0 2.85915,-0.78757 3.86133,-1.88086 1.00218,-1.09329 1.79297,-2.49805 2.57422,-3.87305 0.78125,-1.375 1.55296,-2.72024 2.4414,-3.68945 C 163.7654,202.58743 164.72192,202 166,202 h 0.5 a 0.50005,0.50005 0 1 0 0,-1 z" id="path14036"></path>
    <path style="color: rgb(0, 0, 0); opacity: 0.6; fill: #ffffff; stroke-width: 1px; stroke-linecap: round; stroke-linejoin: round;" d="m 154.5,200 a 0.50005,0.50005 0 0 0 -0.5,0.5 v 2 a 0.50005,0.50005 0 0 0 0.5,0.5 h 2 a 0.50005,0.50005 0 0 0 0.5,-0.5 V 202 h 3.5 a 0.50005,0.50005 0 1 0 0,-1 H 157 v -0.5 a 0.50005,0.50005 0 0 0 -0.5,-0.5 z m 0.5,1 h 1 v 0.41992 a 0.50005,0.50005 0 0 0 0,0.16211 V 202 h -1 z m 8.50781,10 a 0.50005,0.50005 0 0 0 -0.5,0.5 v 0.5 h -3.5 a 0.50005,0.50005 0 1 0 0,1 h 3.5 v 0.5 a 0.50005,0.50005 0 0 0 0.5,0.5 h 2 a 0.50005,0.50005 0 0 0 0.5,-0.5 v -2 a 0.50005,0.50005 0 0 0 -0.5,-0.5 z m 0.5,1 h 1 v 1 h -1 v -0.42383 a 0.50005,0.50005 0 0 0 0,-0.15234 z" id="path14257"></path>
  </g>
</svg>