<svg xmlns="http://www.w3.org/2000/svg" style="background: #808080" height="64" width="64" viewBox="163 188 20 20">
  <g style="fill: #ffffff;" id="g14233" data-label="J-9">
    <path style="color: rgb(0, 0, 0); fill: #ffffff; stroke-width: 1px; stroke-linecap: round; stroke-linejoin: round;" d="m 186.5,201 a 0.50005,0.50005 0 0 0 -0.40039,0.19922 c -1.548,2.064 -2.85356,4.80197 -4.58594,6.99023 C 179.78129,210.37772 177.70216,212 174.5,212 a 0.50005,0.50005 0 1 0 0,1 c 3.54784,0 5.96871,-1.87772 7.79883,-4.18945 1.7781,-2.24603 3.06678,-4.88493 4.4707,-6.81055 H 187.5 a 0.50005,0.50005 0 1 0 0,-1 z" id="path14011"></path>
    <path style="color: rgb(0, 0, 0); fill: #ffffff; stroke-linecap: round; stroke-linejoin: round;" d="m 176.48438,199.99609 a 0.50005,0.50005 0 0 0 -0.3379,0.14649 l -2,2 a 0.50005,0.50005 0 1 0 0.70704,0.70703 L 176,201.70312 V 206.5 a 0.50005,0.50005 0 1 0 1,0 v -6.00391 a 0.50005,0.50005 0 0 0 -0.51562,-0.5 z" id="path12461-0"></path>
  </g>
</svg>