<svg xmlns="http://www.w3.org/2000/svg" height="64" width="64" viewBox="192 218 20 20">
  <g id="g6085" style="fill: #ffffff;" data-label="K-10">
    <path style="fill: #ffffff; fill-rule: evenodd; stroke-linecap: round; stroke-linejoin: round;" d="m 199.5,221.00391 c -0.67616,-0.01 -0.67616,1.00956 0,1 h 1.5 v 1.08789 c -2.83241,0.47934 -5.00001,2.94243 -5,5.9082 0,3.30787 2.69334,6 6.00195,6 3.30861,0 6.00196,-2.69214 6.00196,-6 0,-1.22417 -0.37149,-2.36223 -1.00391,-3.3125 a 0.50005,0.50005 0 0 0 0.10352,-0.0801 l 1.75,-1.75 a 0.50005,0.50005 0 0 0 -0.36329,-0.85937 0.50005,0.50005 0 0 0 -0.34375,0.15234 l -1.75,1.75 a 0.50005,0.50005 0 0 0 -0.0117,0.0137 C 205.28833,223.73959 203.73131,223 202.00195,223 c -6.5e-4,0 -0.001,0 -0.002,0 v -0.99609 h 1.5 c 0.67616,0.01 0.67616,-1.00956 0,-1 z M 202.00195,224 c 2.76833,0 5.00196,2.23273 5.00196,5 0,2.76726 -2.23363,5 -5.00196,5 C 199.23362,234 197,231.76727 197,229 c -1e-5,-2.76727 2.23362,-5 5.00195,-5 z" id="path17270"></path>
    <path style="fill: #ffffff; stroke-linecap: round; stroke-linejoin: round;" d="M 201.49219,224.99609 A 0.50005,0.50005 0 0 0 201,225.50391 v 3.91992 a 0.50005,0.50005 0 0 0 0.11328,0.40429 0.50005,0.50005 0 0 0 0.0156,0.0195 0.50005,0.50005 0 0 0 0.0176,0.0176 0.50005,0.50005 0 0 0 0.004,0.002 0.50005,0.50005 0 0 0 0.0332,0.0312 0.50005,0.50005 0 0 0 0.004,0.002 0.50005,0.50005 0 0 0 0.39453,0.10352 H 204.5 a 0.50005,0.50005 0 1 0 0,-1 H 202 v -3.5 a 0.50005,0.50005 0 0 0 -0.50781,-0.50782 z" id="path17274"></path>
  </g>
</svg>