<svg xmlns="http://www.w3.org/2000/svg" style="background: #808080" height="64" width="64" viewBox="213 218 20 20">
  <g id="g150672" style="" data-label="K-11">
    <path style="color: rgb(0, 0, 0); fill: #ffffff; stroke-width: 1px; stroke-linejoin: round;" d="m 221.50195,227 c -0.35971,-0.001 -0.6028,0.36671 -0.46093,0.69727 l 3,7 c 0.18151,0.42185 0.78799,0.39645 0.93359,-0.0391 l 0.91992,-2.76367 2.76367,-0.91992 c 0.43555,-0.1456 0.46095,-0.75208 0.0391,-0.93359 l -7,-3 c -0.0617,-0.0266 -0.12814,-0.0406 -0.19535,-0.041 z" id="path12946-5"></path>
    <g id="g13384" transform="translate(-21,-105)" style="opacity: 0.6; fill: #ffffff;">
      <g id="g13382" transform="translate(1)" style="fill:#ffffff">
        <path style="color: rgb(0, 0, 0); fill: #ffffff; stroke-width: 0.9; stroke-linejoin: round;" d="m 238.49414,326.05078 c -0.11724,0.001 -0.22936,0.0482 -0.3125,0.13086 l -2,2 c -0.17593,0.17578 -0.17593,0.46094 0,0.63672 l 2,2 c 0.17578,0.17593 0.46094,0.17593 0.63672,0 l 2,-2 c 0.17593,-0.17578 0.17593,-0.46094 0,-0.63672 l -2,-2 c -0.086,-0.0855 -0.20293,-0.13272 -0.32422,-0.13086 z m 9,0 c -0.11724,0.001 -0.22936,0.0482 -0.3125,0.13086 l -2,2 c -0.17593,0.17578 -0.17593,0.46094 0,0.63672 l 2,2 c 0.17578,0.17593 0.46094,0.17593 0.63672,0 l 2,-2 c 0.17593,-0.17578 0.17593,-0.46094 0,-0.63672 l -2,-2 c -0.086,-0.0855 -0.20293,-0.13272 -0.32422,-0.13086 z" id="path13378"></path>
        <path style="opacity: 0.5; fill: #ffffff; stroke-linecap: round; stroke-linejoin: round;" d="m 240.12109,326 1.43946,1.43945 c 0.58556,0.5858 0.58556,1.5353 0,2.1211 L 240.12109,331 h 5.75782 l -1.43946,-1.43945 c -0.58556,-0.5858 -0.58556,-1.5353 0,-2.1211 L 245.87891,326 Z" id="path13380"></path>
      </g>
    </g>
  </g>
</svg>