<svg xmlns="http://www.w3.org/2000/svg" style="background: #808080" height="64" width="64" viewBox="444 218 20 20">
  <g id="g150598" style="" data-label="K-22">
    <path id="path13642-1" d="m 453.5,222 a 0.50005,0.50005 0 0 0 -0.35352,0.14648 L 450.29297,225 H 448.5 a 0.50005,0.50005 0 0 0 -0.5,0.5 v 5 a 0.50005,0.50005 0 0 0 0.5,0.5 h 1.79297 l 2.85351,2.85352 A 0.50005,0.50005 0 0 0 453.5,234 h 1 a 0.50005,0.50005 0 0 0 0.5,-0.5 V 222.78125 222.5 a 0.50005,0.50005 0 0 0 -0.5,-0.5 z m 0.20703,1 H 454 v 10 h -0.29297 l -2.85351,-2.85352 A 0.50005,0.50005 0 0 0 450.5,230 H 449 v -4 h 1.5 a 0.50005,0.50005 0 0 0 0.35352,-0.14648 z" style="color: rgb(0, 0, 0); opacity: 0.6; fill: #ffffff; stroke-linecap: round; stroke-linejoin: round;"></path>
  </g>
</svg>