<svg xmlns="http://www.w3.org/2000/svg" height="64" width="64" viewBox="108 218 20 20">
  <g id="g150616" style="" data-label="K-6">
    <path d="m 124.49003,224 c 0.27994,-0.01 0.50979,0.22 0.50977,0.5 v 7 c 0.001,0.4307 -0.5065,0.6613 -0.83008,0.377 l -4,-3.5 c -0.22872,-0.1993 -0.22872,-0.5547 0,-0.754 l 4,-3.5 c 0.0889,-0.078 0.20238,-0.1211 0.32031,-0.123 z m -9.96289,-1 c 0.13302,0.01 0.25746,0.068 0.34571,0.168 l 4,4.5 c 0.16816,0.1894 0.16816,0.4746 0,0.664 l -4,4.5 c -0.19883,0.2227 -0.54727,0.2227 -0.7461,0 l -4,-4.5 c -0.16816,-0.1894 -0.16816,-0.4746 0,-0.664 l 4,-4.5 c 0.10092,-0.114 0.24831,-0.1759 0.40039,-0.168 z" style="fill: #ffffff; fill-rule: evenodd; stroke-linecap: round; stroke-linejoin: round;" id="path9201"></path>
  </g>
</svg>