<svg xmlns="http://www.w3.org/2000/svg" style="background: #808080" height="64" width="64" viewBox="192 239 20 20">
  <g style="fill: #ffffff;" id="g22083" transform="translate(-1.85367e-6,-42.0001)" data-label="L-10">
    <path style="color: rgb(0, 0, 0); fill: #ffffff; stroke-linecap: round; stroke-linejoin: round;" d="m 205.49805,242 -3.00586,0.008 a 0.50005,0.50005 0 0 0 -0.5,0.5 v 4 5 4 a 0.50005,0.50005 0 0 0 0.5,0.5 h 3 a 0.50005,0.50005 0 0 0 0.5,-0.5 L 206,252 h 2.5 a 0.50005,0.50005 0 0 0 0.5,-0.5 v -5 A 0.50005,0.50005 0 0 0 208.5,246 H 206 v -3.5 A 0.50005,0.50005 0 0 0 205.49805,242 Z M 205,243.00195 V 246 h -2.00781 v -2.99414 z M 202.99219,247 H 205 v 4 h -2.00781 z M 206,247 h 2 v 4 h -2 z m -3.00781,5 h 2.00586 l -0.006,3.00781 h -2 z" transform="translate(1.85367e-6,42.0001)" id="path22040"></path>
    <path style="color: rgb(0, 0, 0); opacity: 0.7; fill: #ffffff; stroke-linecap: round; stroke-linejoin: round;" d="m 200.53711,284.16992 a 0.50005,0.50005 0 0 0 -0.13477,0.0156 c -3.14392,0.73681 -5.37898,3.53464 -5.40234,6.76367 -0.0234,3.22902 2.17176,6.05956 5.30469,6.8418 a 0.50005,0.50005 0 1 0 0.24219,-0.96875 c -2.69014,-0.67168 -4.56694,-3.09259 -4.54688,-5.86524 0.0201,-2.77265 1.93128,-5.16615 4.63086,-5.79883 a 0.50005,0.50005 0 0 0 -0.0937,-0.98828 z" id="path22034"></path>
  </g>
</svg>