<svg xmlns="http://www.w3.org/2000/svg" height="64" width="64" viewBox="213 239 20 20">
  <g id="g143026" style="" data-label="L-11">
    <path style="color: rgb(0, 0, 0); fill: #ffffff; stroke-linecap: round; stroke-linejoin: round;" d="m 219.50391,243 a 0.50005,0.50005 0 0 0 -0.45118,0.27734 C 218.38224,244.61833 217.33333,245 216.5,245 a 0.50005,0.50005 0 1 0 0,1 c 1.00319,0 2.15225,-0.6005 3,-1.7832 0.82397,1.14952 1.9314,1.74461 2.91406,1.77734 a 0.50005,0.50005 0 0 0 0.002,0 0.50005,0.50005 0 0 0 0.084,0.006 0.50005,0.50005 0 0 0 0.0996,-0.008 c 0.97927,-0.0378 2.08023,-0.63118 2.90039,-1.77539 0.84775,1.1827 1.99681,1.7832 3,1.7832 a 0.50005,0.50005 0 1 0 0,-1 c -0.83333,0 -1.88224,-0.38167 -2.55273,-1.72266 A 0.50005,0.50005 0 0 0 225.50391,243 a 0.50005,0.50005 0 0 0 -0.45118,0.27734 C 224.38224,244.61833 223.33333,245 222.5,245 c -0.83333,0 -1.88224,-0.38167 -2.55273,-1.72266 A 0.50005,0.50005 0 0 0 219.50391,243 Z m 1,5 a 0.50005,0.50005 0 0 0 -0.45118,0.27734 C 219.38224,249.61833 218.33333,250 217.5,250 a 0.50005,0.50005 0 1 0 0,1 c 1.00319,0 2.15225,-0.6005 3,-1.7832 0.82397,1.14952 1.9314,1.74461 2.91406,1.77734 a 0.50005,0.50005 0 0 0 0.002,0 0.50005,0.50005 0 0 0 0.084,0.006 0.50005,0.50005 0 0 0 0.0859,-0.006 0.50005,0.50005 0 0 0 0.0137,-0.002 c 0.97927,-0.0378 2.08023,-0.63118 2.90039,-1.77539 0.84775,1.1827 1.99681,1.7832 3,1.7832 a 0.50005,0.50005 0 1 0 0,-1 c -0.83333,0 -1.88224,-0.38167 -2.55273,-1.72266 A 0.50005,0.50005 0 0 0 226.50391,248 a 0.50005,0.50005 0 0 0 -0.45118,0.27734 C 225.38224,249.61833 224.33333,250 223.5,250 c -0.83333,0 -1.88224,-0.38167 -2.55273,-1.72266 A 0.50005,0.50005 0 0 0 220.50391,248 Z m -1,5 a 0.50005,0.50005 0 0 0 -0.45118,0.27734 C 218.38224,254.61833 217.33333,255 216.5,255 a 0.50005,0.50005 0 1 0 0,1 c 1.00319,0 2.15225,-0.6005 3,-1.7832 0.82397,1.14952 1.9314,1.74461 2.91406,1.77734 a 0.50005,0.50005 0 0 0 0.002,0 0.50005,0.50005 0 0 0 0.084,0.006 0.50005,0.50005 0 0 0 0.0996,-0.008 c 0.97927,-0.0378 2.08023,-0.63118 2.90039,-1.77539 0.84775,1.1827 1.99681,1.7832 3,1.7832 a 0.50005,0.50005 0 1 0 0,-1 c -0.83333,0 -1.88224,-0.38167 -2.55273,-1.72266 A 0.50005,0.50005 0 0 0 225.50391,253 a 0.50005,0.50005 0 0 0 -0.45118,0.27734 C 224.38224,254.61833 223.33333,255 222.5,255 c -0.83333,0 -1.88224,-0.38167 -2.55273,-1.72266 A 0.50005,0.50005 0 0 0 219.50391,253 Z" id="path21858"></path>
  </g>
</svg>