<svg xmlns="http://www.w3.org/2000/svg" style="background: #808080" height="64" width="64" viewBox="234 239 20 20">
  <g id="g15277" transform="translate(21,-41)" style="fill: #ffffff;" data-label="L-12">
    <path style="color: rgb(0, 0, 0); opacity: 0.5; fill: #ffffff; stroke-linejoin: round;" d="m 216.49219,286 a 0.50005,0.50005 0 0 0 -0.5,0.5 L 216,297.50781 a 0.50005,0.50005 0 0 0 0.5,0.5 h 11 a 0.50005,0.50005 0 0 0 0.5,-0.5 V 295 h -1 v 2.00781 H 217 L 216.99219,287 H 219 v -1 z" id="path15273"></path>
    <path style="color: rgb(0, 0, 0); fill: #ffffff; stroke-width: 1px; stroke-linecap: round; stroke-linejoin: round;" d="m 227.53906,284 c -0.61479,0.0726 -1.18185,0.348 -1.74609,0.6543 C 224.66449,285.2669 223.53333,286 222.5,286 h -1 a 0.50005,0.50005 0 1 0 0,1 h 1 c 1.46667,0 2.71051,-0.8919 3.76953,-1.4668 0.52951,-0.28745 1.00932,-0.49644 1.38672,-0.54101 0.3774,-0.0446 0.64533,0.0164 0.99023,0.36133 0.34491,0.3449 0.40591,0.61283 0.36133,0.99023 -0.0446,0.3774 -0.25356,0.85721 -0.54101,1.38672 C 227.8919,288.78949 227,290.03333 227,291.5 v 1 a 0.50005,0.50005 0 1 0 1,0 v -1 c 0,-1.03333 0.7331,-2.16449 1.3457,-3.29297 0.3063,-0.56424 0.58169,-1.1313 0.6543,-1.74609 0.0726,-0.61479 -0.11639,-1.28436 -0.64648,-1.81446 -0.5301,-0.53009 -1.19967,-0.71909 -1.81446,-0.64648 z" id="path15275"></path>
  </g>
</svg>