<svg xmlns="http://www.w3.org/2000/svg" height="64" width="64" viewBox="255 239 20 20">
  <g style="fill: #ffffff;" id="g22579" transform="matrix(-1,0,0,1,572,-63)" data-label="L-13">
    <g style="fill: #ffffff;" id="g22529">
      <path style="fill: #ffffff; fill-rule: evenodd; stroke-linecap: round; stroke-linejoin: round;" d="m 268.5,242 c -1.88693,0 -3.42464,1.51084 -3.48828,3.38281 -0.009,0.0385 -0.0124,0.0778 -0.0117,0.11719 -4.1e-4,0.0117 -4.1e-4,0.0234 0,0.0352 V 249 h -3.5 c -0.0381,-4.2e-4 -0.0761,0.004 -0.11328,0.0117 C 259.5129,249.07334 258,250.61174 258,252.5 c 0,1.88693 1.51084,3.42464 3.38281,3.48828 0.0385,0.009 0.0778,0.0124 0.11719,0.0117 h 7 c 0.92807,0 1.81837,-0.36915 2.47461,-1.02539 C 271.63085,254.31837 272,253.42807 272,252.5 v -7 c 7.2e-4,-0.0394 -0.003,-0.0787 -0.0117,-0.11719 C 271.92462,243.51084 270.38693,242 268.5,242 Z m 0,1 c 1.38663,0 2.5,1.11337 2.5,2.5 -4.1e-4,0.0117 -4.1e-4,0.0234 0,0.0352 V 252.5 c 0,0.66323 -0.26345,1.2986 -0.73242,1.76758 C 269.7986,254.73655 269.16323,255 268.5,255 h -7 c -1.38663,0 -2.5,-1.11337 -2.5,-2.5 0,-1.38663 1.11337,-2.5 2.5,-2.5 h 3.75 c 0.1326,-2e-5 0.25976,-0.0527 0.35352,-0.14648 l 0.25,-0.25 c 0.0938,-0.0938 0.14646,-0.22092 0.14648,-0.35352 v -3.75 c 0,-1.38663 1.11337,-2.5 2.5,-2.5 z" transform="matrix(-1,0,0,1,572,63)" id="path22488"></path>
    </g>
    <path style="opacity: 0.6; fill: #ffffff; stroke-linecap: round; stroke-linejoin: round;" d="M 303.49219,307.99219 A 0.50005,0.50005 0 0 0 303,308.5 v 6.91992 a 0.50005,0.50005 0 0 0 0.11328,0.4043 0.50005,0.50005 0 0 0 0.0156,0.0195 0.50005,0.50005 0 0 0 0.0176,0.0176 0.50005,0.50005 0 0 0 0.004,0.002 0.50005,0.50005 0 0 0 0.0332,0.0312 0.50005,0.50005 0 0 0 0.004,0.002 A 0.50005,0.50005 0 0 0 303.58203,316 H 310.5 a 0.50005,0.50005 0 1 0 0,-1 H 304 v -6.5 a 0.50005,0.50005 0 0 0 -0.50781,-0.50781 z" id="path22537"></path>
  </g>
</svg>