<svg xmlns="http://www.w3.org/2000/svg" style="background: #808080" height="64" width="64" viewBox="297 239 20 20">
  <g style="fill: #ffffff;" id="g22891" transform="translate(444,-274)" data-label="L-15">
    <path style="color: rgb(0, 0, 0); opacity: 0.6; fill: #ffffff; fill-rule: evenodd; stroke-width: 1px; stroke-linecap: square; stroke-linejoin: round;" d="m -141,519.5 v 1.5 h 1 v -1.5 z m 0,2.5 v 2 h 1 v -2 z m 0,3 v 1.2793 l -2.58594,2.35156 0.67188,0.73828 2.60351,-2.36719 L -139,527 v -1 h -1 v -1 z m 3.00781,1 v 1 h 2 v -1 z M -135,526 v 1 h 1.5 v -1 z" mask="none" id="path12456"></path>
    <path style="color: rgb(0, 0, 0); fill: #ffffff; fill-rule: evenodd; stroke-linecap: round; stroke-linejoin: round;" d="m 303.5,242 a 0.50005,0.50005 0 0 0 -0.35352,0.14648 l -3,3 A 0.50005,0.50005 0 0 0 300,245.5 v 10 a 0.50005,0.50005 0 0 0 0.5,0.5 h 10 a 0.50005,0.50005 0 0 0 0.35352,-0.14648 l 3,-3 A 0.50005,0.50005 0 0 0 314,252.5 v -10 a 0.50005,0.50005 0 0 0 -0.5,-0.5 z m 0.20703,1 h 8.58594 l -2,2 h -8.58594 z M 313,243.70703 v 8.58594 l -2,2 v -8.58594 z M 301,246 h 9 v 9 h -9 z" transform="translate(-444,274)" id="path12458"></path>
  </g>
</svg>