<svg xmlns="http://www.w3.org/2000/svg" height="64" width="64" viewBox="318 239 20 20">
  <g style="fill: #ffffff;" transform="translate(22,18)" id="g22745" data-label="L-16">
    <g id="g22756" transform="translate(20,-60)" style="fill:#ffffff">
      <g id="g22751" style="fill:#ffffff">
        <path style="fill: #ffffff; stroke-linecap: round; stroke-linejoin: round; stroke-dashoffset: 0.5;" d="m 279.5,288 c -0.27613,3e-5 -0.49997,0.22387 -0.5,0.5 v 2 c 3e-5,0.27613 0.22387,0.49997 0.5,0.5 h 0.71484 L 283,295.64062 V 297.5 c 3e-5,0.27613 0.22387,0.49997 0.5,0.5 h 2 c 0.27613,-3e-5 0.49997,-0.22387 0.5,-0.5 v -1.85938 L 288.78516,291 H 289.5 c 0.27613,-3e-5 0.49997,-0.22387 0.5,-0.5 v -2 c -3e-5,-0.27613 -0.22387,-0.49997 -0.5,-0.5 h -2 c -0.27613,3e-5 -0.49997,0.22387 -0.5,0.5 v 0.5 h -5 v -0.5 c -3e-5,-0.27613 -0.22387,-0.49997 -0.5,-0.5 z m 0.5,1 h 1 v 1 h -1 z m 8,0 h 1 v 1 h -1 z m -6,1 h 5 v 0.5 c 3e-5,0.27613 0.22387,0.49997 0.5,0.5 h 0.11523 l -2.40039,4 h -1.42968 l -2.40039,-4 H 281.5 c 0.27613,-3e-5 0.49997,-0.22387 0.5,-0.5 z m 2,6 h 1 v 1 h -1 z" id="path22741"></path>
        <path style="opacity: 0.5; fill: #ffffff; stroke-width: 1px; stroke-linecap: round; stroke-linejoin: round;" d="m 283.5,284 c -0.27613,3e-5 -0.49997,0.22387 -0.5,0.5 v 3.5 h 1 v -3 h 8 v 10 h -3.5 c -0.67616,-0.01 -0.67616,1.00956 0,1 h 4 c 0.27613,-3e-5 0.49997,-0.22387 0.5,-0.5 v -11 c -3e-5,-0.27613 -0.22387,-0.49997 -0.5,-0.5 z" id="path22747"></path>
      </g>
    </g>
  </g>
</svg>