<svg xmlns="http://www.w3.org/2000/svg" style="background: #808080" height="64" width="64" viewBox="360 239 20 20">
  <g style="fill: #ffffff;" id="g22949" transform="matrix(1,0,0,-1,168,540.009)" data-label="L-18">
    <g transform="matrix(0,-1,-1,0,558.008,761.005)" id="g22540" style="fill: #ffffff;">
      <path style="color: rgb(0, 0, 0); fill: #ffffff; fill-rule: evenodd; stroke-linecap: round; stroke-linejoin: round;" d="M 469.00195,355 C 467.90167,355 467,355.90326 467,357.00391 c 0,1.10064 0.90167,2.00391 2.00195,2.0039 1.10028,0 2.00196,-0.90326 2.00196,-2.0039 0,-1.10064 -0.90168,-2.00391 -2.00196,-2.00391 z" id="path22508"></path>
      <path style="color: rgb(0, 0, 0); fill: #ffffff; fill-rule: evenodd; stroke-linecap: round; stroke-linejoin: round;" d="m 468.5,349 c -0.82251,0 -1.5,0.67749 -1.5,1.5 0,0.82251 0.67749,1.5 1.5,1.5 0.8225,0 1.5,-0.6775 1.5,-1.5 0,-0.82251 -0.67749,-1.5 -1.5,-1.5 z" id="path22516"></path>
      <path style="color: rgb(0, 0, 0); fill: #ffffff; fill-rule: evenodd; stroke-linecap: round; stroke-linejoin: round;" d="m 475.5,356 c -0.8225,0 -1.5,0.6775 -1.5,1.5 0,0.8225 0.6775,1.5 1.5,1.5 0.8225,0 1.5,-0.6775 1.5,-1.5 0,-0.8225 -0.6775,-1.5 -1.5,-1.5 z" id="path22518"></path>
      <path style="color: rgb(0, 0, 0); fill: #ffffff; fill-rule: evenodd; stroke-linecap: round; stroke-linejoin: round;" d="m 474.50195,350.00781 c -0.82202,10e-6 -1.50195,0.67415 -1.50195,1.4961 0,0.82195 0.67993,1.49609 1.50195,1.49609 0.82203,0 1.50195,-0.67414 1.50196,-1.49609 -1e-5,-0.82196 -0.67993,-1.4961 -1.50196,-1.4961 z" id="path22520"></path>
      <path style="color: rgb(0, 0, 0); opacity: 0.7; fill: #ffffff; stroke-linejoin: round;" d="m 468,351.5 v 4 h 1 v -4 z m 5.14648,0.64648 -3.49609,3.50977 0.70899,0.70508 3.49414,-3.50781 z M 470.5,357 v 1 h 4 v -1 z" id="path22536"></path>
    </g>
    <g style="opacity: 0.6; fill: #ffffff;" id="g22761" transform="matrix(0,-1,-1,0,554.008,765.005)">
      <path style="color: rgb(0, 0, 0); fill: #ffffff; fill-rule: evenodd; stroke-linecap: round; stroke-linejoin: round;" d="m 468.5,349 c -0.82251,0 -1.5,0.67749 -1.5,1.5 0,0.82251 0.67749,1.5 1.5,1.5 0.8225,0 1.5,-0.6775 1.5,-1.5 0,-0.82251 -0.67749,-1.5 -1.5,-1.5 z m 0,1 c 0.28207,0 0.5,0.21793 0.5,0.5 0,0.28207 -0.21793,0.5 -0.5,0.5 -0.28207,0 -0.5,-0.21793 -0.5,-0.5 0,-0.28207 0.21793,-0.5 0.5,-0.5 z m 0.50195,5 C 467.90167,355 467,355.90326 467,357.00391 c 0,1.10064 0.90167,2.00391 2.00195,2.0039 1.10028,0 2.00196,-0.90326 2.00196,-2.0039 0,-1.10064 -0.90168,-2.00391 -2.00196,-2.00391 z m 0,1 c 0.55916,0 1.00196,0.44302 1.00196,1.00391 0,0.56088 -0.4428,1.0039 -1.00196,1.0039 -0.55915,0 -1.00195,-0.44302 -1.00195,-1.0039 C 468,356.44302 468.4428,356 469.00195,356 Z m 6.49805,0 c -0.8225,0 -1.5,0.6775 -1.5,1.5 0,0.8225 0.6775,1.5 1.5,1.5 0.8225,0 1.5,-0.6775 1.5,-1.5 0,-0.8225 -0.6775,-1.5 -1.5,-1.5 z m 0,1 c 0.28206,0 0.5,0.21794 0.5,0.5 0,0.28206 -0.21794,0.5 -0.5,0.5 -0.28206,0 -0.5,-0.21794 -0.5,-0.5 0,-0.28206 0.21794,-0.5 0.5,-0.5 z" id="path22750"></path>
      <path style="color: rgb(0, 0, 0); opacity: 0.7; fill: #ffffff; stroke-linejoin: round;" d="m 468,351.5 v 4 h 1 v -4 z" id="path22755"></path>
      <path style="color: rgb(0, 0, 0); opacity: 0.7; fill: #ffffff; stroke-linejoin: round;" d="m 470.5,357 v 1 h 4 v -1 z" id="path22757"></path>
    </g>
  </g>
</svg>