<svg xmlns="http://www.w3.org/2000/svg" style="background: #808080" height="64" width="64" viewBox="363 228 20 20">
  <g style="fill: #ffffff;" id="g10865-1-4" transform="translate(209.993,-231)" data-label="L-19">
    <g id="g12049-3-5" transform="translate(126,64.0001)" style="opacity: 0.99; fill: #ffffff;">
      <path style="color: rgb(0, 0, 0); opacity: 0.6; fill: #ffffff; stroke-width: 1px; stroke-linecap: round; stroke-linejoin: round;" d="m 52.0071,410.99995 v 1 L 61.5,412 c 0.676161,0.01 0.676161,-1.00956 0,-1 z M 48.5,416 c -0.676161,-0.01 -0.676161,1.00956 0,1 l 5.5071,-5e-5 v -1 z m 10.5071,-5e-5 v 1 L 61.5,417 c 0.676161,0.01 0.676161,-1.00956 0,-1 z M 48.5,421 c -0.676161,-0.01 -0.676161,1.00956 0,1 l 9.5071,-5e-5 v -1 z" id="path12047-5-1"></path>
    </g>
    <path style="color: rgb(0, 0, 0); fill: #ffffff; stroke-linecap: round; stroke-linejoin: round; marker: none;" d="m 175.5,474 c -0.8225,0 -1.5,0.6775 -1.5,1.5 0,0.8225 0.6775,1.5 1.5,1.5 0.8225,0 1.5,-0.6775 1.5,-1.5 0,-0.8225 -0.6775,-1.5 -1.5,-1.5 z m 0,1 c 0.28206,0 0.5,0.21794 0.5,0.5 0,0.28206 -0.21794,0.5 -0.5,0.5 -0.28206,0 -0.5,-0.21794 -0.5,-0.5 0,-0.28206 0.21794,-0.5 0.5,-0.5 z m 7,4 c -0.8225,0 -1.5,0.6775 -1.5,1.5 0,0.8225 0.6775,1.5 1.5,1.5 0.8225,0 1.5,-0.6775 1.5,-1.5 0,-0.8225 -0.6775,-1.5 -1.5,-1.5 z m 0,1 c 0.28206,0 0.5,0.21794 0.5,0.5 0,0.28206 -0.21794,0.5 -0.5,0.5 -0.28206,0 -0.5,-0.21794 -0.5,-0.5 0,-0.28206 0.21794,-0.5 0.5,-0.5 z m 4,4 c -0.8225,0 -1.5,0.6775 -1.5,1.5 0,0.8225 0.6775,1.5 1.5,1.5 0.8225,0 1.5,-0.6775 1.5,-1.5 0,-0.8225 -0.6775,-1.5 -1.5,-1.5 z m 0,1 c 0.28206,0 0.5,0.21794 0.5,0.5 0,0.28206 -0.21794,0.5 -0.5,0.5 -0.28206,0 -0.5,-0.21794 -0.5,-0.5 0,-0.28206 0.21794,-0.5 0.5,-0.5 z" id="circle14100-8-7"></path>
  </g>
</svg>