<svg xmlns="http://www.w3.org/2000/svg" height="64" width="64" viewBox="402 239 20 20">
  <g id="g143023" style="" data-label="L-20">
    <path style="color: rgb(0, 0, 0); fill: #ffffff; stroke-width: 1.1; stroke-linecap: round; stroke-linejoin: round;" d="m 416.49023,242.95508 a 0.55005501,0.55005501 0 0 0 -0.55078,0.55078 v 0.77539 l -0.44922,0.45117 -0.61132,-0.61133 a 0.55005501,0.55005501 0 0 0 -0.38868,-0.16211 h -1.77148 l -0.83984,-0.83789 a 0.55005501,0.55005501 0 0 0 -0.77735,0 l -1,1 a 0.55005501,0.55005501 0 0 0 -0.16211,0.38868 v 1.77148 l -0.67773,0.67773 h -0.77149 a 0.55005501,0.55005501 0 0 0 -0.39062,0.16211 l -0.83789,0.8418 h -0.77149 a 0.55005501,0.55005501 0 0 0 -0.55078,0.55078 v 2.00391 a 0.55005501,0.55005501 0 0 0 0.55078,0.55078 h 0.77344 l 0.67578,0.67383 v 0.54492 l -0.67578,0.68164 -0.76758,-0.008 a 0.55005501,0.55005501 0 0 0 -0.55664,0.54883 v 1.21093 0.78907 a 0.550785,0.550785 0 1 0 1.10157,0 v -0.78907 -0.65429 l 0.44336,0.004 a 0.55005501,0.55005501 0 0 0 0.39648,-0.16211 l 1,-1.00781 a 0.55005501,0.55005501 0 0 0 0.16016,-0.38672 v -1 a 0.55005501,0.55005501 0 0 0 -0.16211,-0.39062 l -1,-0.99414 a 0.55005501,0.55005501 0 0 0 -0.38868,-0.16211 h -0.44921 v -0.90235 h 0.44921 a 0.55005501,0.55005501 0 0 0 0.38868,-0.16211 l 0.83984,-0.84375 h 0.77148 a 0.55005501,0.55005501 0 0 0 0.38868,-0.16015 l 1,-1 a 0.55005501,0.55005501 0 0 0 0.16211,-0.38867 v -1.77344 l 0.44921,-0.44922 0.61133,0.61133 a 0.55005501,0.55005501 0 0 0 0.38867,0.16015 h 1.77149 l 0.83984,0.83985 a 0.55005501,0.55005501 0 0 0 0.77735,0 l 1,-1 a 0.55005501,0.55005501 0 0 0 0.16211,-0.38867 v -0.45508 h 1.44921 a 0.55005501,0.55005501 0 1 0 0,-1.09961 z" id="path42222-9-3-2"></path>
  </g>
</svg>