<svg xmlns="http://www.w3.org/2000/svg" style="background: #808080" height="64" width="64" viewBox="507 239 20 20">
  <g style="fill: #ffffff;" id="g18316" transform="translate(21,-63)" data-label="L-25">
    <path style="color: rgb(0, 0, 0); opacity: 0.6; fill: #ffffff; stroke-linecap: round; stroke-linejoin: round;" d="m 496,305 c -3.86007,0 -7,3.13993 -7,7 0,3.86007 3.13993,7 7,7 3.86007,0 7,-3.13993 7,-7 0,-3.86007 -3.13993,-7 -7,-7 z m 0,1 c 3.31963,0 6,2.68037 6,6 0,3.31963 -2.68037,6 -6,6 -3.31963,0 -6,-2.68037 -6,-6 0,-3.31963 2.68037,-6 6,-6 z" id="circle17690"></path>
    <path style="color: rgb(0, 0, 0); fill: #ffffff; stroke-width: 1px; stroke-linecap: round; stroke-linejoin: round;" d="M 496.49219,306.99219 A 0.50005,0.50005 0 0 0 496,307.5 v 5 a 0.50005,0.50005 0 0 0 0.22266,0.41602 l 3,2 a 0.50005,0.50005 0 1 0 0.55468,-0.83204 L 497,312.23242 V 307.5 a 0.50005,0.50005 0 0 0 -0.50781,-0.50781 z" id="path17692"></path>
    <path style="color: rgb(0, 0, 0); opacity: 0.75; fill: #ffffff; stroke-width: 1px; stroke-linecap: round; stroke-linejoin: round;" d="m 491.5,312 a 0.50005,0.50005 0 1 0 0,1 h 3 a 0.50005,0.50005 0 1 0 0,-1 z" id="path17694"></path>
    <path style="color: rgb(0, 0, 0); opacity: 0.9; fill: #ffffff; stroke-width: 1px; stroke-linecap: round; stroke-linejoin: round;" d="m 492.74414,308.24414 a 0.50005,0.50005 0 0 0 -0.34766,0.85938 l 1.75,1.75 a 0.50005,0.50005 0 1 0 0.70704,-0.70704 l -1.75,-1.75 a 0.50005,0.50005 0 0 0 -0.35938,-0.15234 z" id="path17696"></path>
  </g>
</svg>