<svg xmlns="http://www.w3.org/2000/svg" style="background: #808080" height="64" width="64" viewBox="503 228 20 20">
  <g style="fill: #ffffff;" id="g24393-7-4" transform="matrix(-1,0,0,1,1912.004,-92)" data-label="L-26">
    <path style="color: rgb(0, 0, 0); fill: #ffffff; fill-rule: evenodd; stroke-linecap: round; stroke-linejoin: round;" d="m 1367.5039,334.00195 a 0.50004997,0.50004997 0 0 0 -0.5,0.5 v 9.99219 a 0.50004997,0.50004997 0 0 0 0.5,0.5 h 9.9961 a 0.50004997,0.50004997 0 0 0 0.5,-0.5 v -9.99219 a 0.50004997,0.50004997 0 0 0 -0.5,-0.5 z m 0.5,1 H 1377 v 8.99219 h -8.9961 z" id="path24368-5-5"></path>
    <path style="color: rgb(0, 0, 0); opacity: 0.7; fill: #ffffff; fill-rule: evenodd; stroke-linejoin: round;" d="m 1376,338 -4.4961,0.002 a 0.50004997,0.50004997 0 0 0 -0.5,0.5 V 343 h 1 v -3.99805 L 1376,339 Z m 3,0 v 1 l 1,0.002 v 7.99024 h -7.9961 V 346 h -1 v 1.49219 a 0.50004997,0.50004997 0 0 0 0.5,0.5 h 8.9961 a 0.50004997,0.50004997 0 0 0 0.5,-0.5 v -8.99024 a 0.50004997,0.50004997 0 0 0 -0.5,-0.5 z" id="path24388-3-2"></path>
  </g>
</svg>