<svg xmlns="http://www.w3.org/2000/svg" style="background: #808080" height="64" width="64" viewBox="143 228 20 20">
  <g style="fill: #ffffff;" id="g22354" transform="translate(-26,-443)" data-label="L-8">
    <g id="g22339" transform="translate(0,10)" style="fill:#ffffff">
      <path style="color: rgb(0, 0, 0); fill: #ffffff; stroke-width: 2;" d="m 154,242 v 2 h -1 v 4 h 1 v 2 h 2 v -8 z m 10,0 v 8 h 2 v -2 h 1 v -4 h -1 v -2 z m -7,3 v 2 h 6 v -2 z" transform="translate(26,433)" id="path22321"></path>
    </g>
    <g transform="translate(-268,306.008)" style="opacity: 0.6; fill: #ffffff; stroke: #ffffff; stroke-linecap: round; stroke-linejoin: round; stroke-dashoffset: 7.4;" id="g22352">
      <path style="color: rgb(0, 0, 0); fill: #ffffff; stroke-linecap: round; stroke-linejoin: round; stroke-dashoffset: 7.4;" d="m 452.49219,387 a 0.50005018,0.50005018 0 0 0 -0.5,0.5 v 3.00781 a 0.50005018,0.50005018 0 0 0 0.5,0.5 c 1.00252,0 2.00529,0 3.00781,0 a 0.50005018,0.50005018 0 0 0 0.5,-0.5 V 387.5 a 0.50005018,0.50005018 0 0 0 -0.5,-0.5 c -1.00252,0 -2.0053,0 -3.00781,0 z m 0.5,1 c 0.66922,0 1.33859,0 2.00781,0 v 2.00781 c -0.66922,0 -1.3386,0 -2.00781,0 z m 4.50781,0.98438 a 0.50005018,0.50005018 0 0 0 -0.5,0.5 v 3.00781 a 0.50005018,0.50005018 0 0 0 0.5,0.5 c 1.00252,0 2.0053,0 3.00781,0 a 0.50005018,0.50005018 0 0 0 0.5,-0.5 v -3.00781 a 0.50005018,0.50005018 0 0 0 -0.5,-0.5 c -1.00252,0 -2.00529,0 -3.00781,0 z M 447.5,389 a 0.50005018,0.50005018 0 0 0 -0.5,0.5 v 3 a 0.50005018,0.50005018 0 0 0 0.5,0.5 c 1,-10e-6 2,10e-6 3,0 a 0.50005018,0.50005018 0 0 0 0.5,-0.5 v -3 a 0.50005018,0.50005018 0 0 0 -0.5,-0.5 c -1,0 -2,0 -3,0 z m 10.5,0.98438 c 0.66922,-10e-6 1.3386,0 2.00781,0 v 2.00781 c -0.66922,0 -1.33859,0 -2.00781,0 z M 448,390 c 0.66667,0 1.33333,0 2,0 v 2 c -0.66667,0 -1.33333,0 -2,0 z" id="path22350"></path>
    </g>
  </g>
</svg>