<svg xmlns="http://www.w3.org/2000/svg" style="background: #808080" height="64" width="64" viewBox="171 239 20 20">
  <g transform="translate(-41,-42)" id="g25194-8-8" style="fill: #ffffff;" data-label="L-9">
    <circle cx="221" cy="285" id="circle25190-1-7" style="fill: #ffffff; stroke: #ffffff; stroke-linecap: round; stroke-linejoin: round;" r="0"></circle>
    <path id="circle25383" style="color: rgb(0, 0, 0); fill: #ffffff; stroke-linecap: round; stroke-linejoin: round;" d="m 221,284 c -0.54636,0 -1,0.45364 -1,1 0,0.54636 0.45364,1 1,1 0.54636,0 1,-0.45364 1,-1 0,-0.54636 -0.45364,-1 -1,-1 z m 3,0 c -0.54636,0 -1,0.45364 -1,1 0,0.54636 0.45364,1 1,1 0.54636,0 1,-0.45364 1,-1 0,-0.54636 -0.45364,-1 -1,-1 z m 3,1 c -0.54636,0 -1,0.45364 -1,1 0,0.54636 0.45364,1 1,1 0.54636,0 1,-0.45364 1,-1 0,-0.54636 -0.45364,-1 -1,-1 z m -5.67188,2.04688 c -0.72617,0.0892 -1.40636,0.31348 -2.02343,0.63867 -1.23415,0.65038 -2.22638,1.68758 -2.94922,2.84375 -0.72284,1.15617 -1.1805,2.43169 -1.32227,3.60742 -0.14176,1.17573 0.0178,2.28295 0.6875,3.0293 0.68189,0.75993 1.69067,0.98063 2.61328,0.6914 C 219.35231,297.53818 220,296.54997 220,295.5 c 0,-0.87561 0.22937,-1.10992 0.64258,-1.29297 C 221.05579,294.02398 221.75437,294 222.5,294 c 0.79276,0 1.56488,-0.14919 2.20703,-0.5332 0.52292,-0.31271 0.89501,-0.8382 1.11524,-1.4668 h 1.13281 a 0.50004994,0.50004994 0 0 0 0.002,0 c 1.02746,0 1.90966,-0.75672 2.0293,-1.76953 0.11964,-1.01284 -0.5686,-1.95303 -1.57031,-2.17969 -0.73109,-0.16542 -1.38414,0.17264 -1.8711,0.68945 -0.49389,-0.69239 -1.0864,-1.29918 -1.91601,-1.52148 -0.80279,-0.21511 -1.57461,-0.26104 -2.30079,-0.17187 z m 0.11915,0.98632 c 0.59872,-0.0738 1.23897,-0.0331 1.92382,0.15039 0.66836,0.17909 1.23082,0.75735 1.69727,1.56446 a 0.50004994,0.50004994 0 0 0 0.90234,-0.0781 c 0.17721,-0.4818 0.69836,-0.76361 1.22461,-0.64453 0.52625,0.11908 0.85819,0.58537 0.79883,1.08789 C 227.93478,290.61583 227.49838,291 226.95703,291 H 225.5 a 0.50004994,0.50004994 0 0 0 -0.49219,0.41406 c -0.10308,0.5846 -0.38181,0.93776 -0.8125,1.19532 C 223.76463,292.86693 223.16312,293 222.5,293 c -0.74508,0 -1.54761,-0.0253 -2.26172,0.29102 C 219.52417,293.60735 219,294.37315 219,295.5 c 0,0.63163 -0.40649,1.2273 -0.96484,1.40234 -0.62221,0.19506 -1.12911,0.0874 -1.57032,-0.40429 -0.37675,-0.41988 -0.55858,-1.23603 -0.4375,-2.24024 0.12109,-1.00421 0.53101,-2.16478 1.17774,-3.19922 0.64673,-1.03443 1.52684,-1.94044 2.5664,-2.48828 0.51979,-0.27392 1.07706,-0.46333 1.67579,-0.53711 z"></path>
  </g>
</svg>