<svg xmlns="http://www.w3.org/2000/svg" height="64" width="64" viewBox="213 260 20 20">
  <g transform="translate(-2.85367e-6,-21)" id="g22228" style="fill: #ffffff;" data-label="M-11">
    <path style="color: rgb(0, 0, 0); fill: #ffffff; stroke-linecap: round; stroke-linejoin: round;" d="m 225.5,286 a 0.50005,0.50005 0 0 0 -0.5,0.5 v 6.5 h -6.5 a 0.50005,0.50005 0 0 0 -0.5,0.5 l -0.008,4.00586 a 0.50005,0.50005 0 0 0 0.50195,0.50195 L 229.5,298 a 0.50005,0.50005 0 0 0 0.5,-0.5 v -11 a 0.50005,0.50005 0 0 0 -0.5,-0.5 z m 0.5,1 h 3 v 10 l -10.00781,0.008 0.006,-3.00781 H 225.5 a 0.50005,0.50005 0 0 0 0.5,-0.5 z" id="path22226"></path>
    <path style="color: rgb(0, 0, 0); opacity: 0.5; fill: #ffffff; stroke-linecap: round; stroke-linejoin: round;" d="m 222.5,284 a 0.50005,0.50005 0 0 1 0.5,0.5 v 6 a 0.50005,0.50005 0 0 1 -0.5,0.5 h -6 a 0.50005,0.50005 0 0 1 -0.5,-0.5 v -6 a 0.50005,0.50005 0 0 1 0.5,-0.5 z m -0.5,1 h -5 v 5 h 5 z" id="rect22230"></path>
  </g>
</svg>