<svg xmlns="http://www.w3.org/2000/svg" style="background: #808080" height="64" width="64" viewBox="263 248 20 20">
  <g style="fill: #ffffff;" id="g22444" transform="translate(-1.85367e-6,-42)" data-label="M-14">
    <path style="color: rgb(0, 0, 0); opacity: 0.5; fill: #ffffff; stroke-linejoin: round; marker: none;" d="m 292.5,305 -9.00781,0.008 a 0.50005,0.50005 0 0 0 -0.5,0.50781 l 0.0391,2.49219 1,-0.0156 -0.0312,-1.98438 8,-0.008 -0.006,8.01172 -2,0.0195 0.01,1 2.49414,-0.0234 a 0.50005,0.50005 0 0 0 0.49414,-0.5 L 293,305.5 a 0.50005,0.50005 0 0 0 -0.5,-0.5 z" id="path22408"></path>
    <path id="path22122" d="m 279,309 v 2 h 2 v -2 z m 2,2 v 2 h 2 v -2 z m 2,0 h 2 v -2 h -2 z m 2,0 v 2 h 2 v -2 z m 2,0 h 2 v -2 h -2 z m 0,2 v 2 h 2 v -2 z m 0,2 h -2 v 2 h 2 z m 0,2 v 2 h 2 v -2 z m -2,0 h -2 v 2 h 2 z m -2,0 v -2 h -2 v 2 z m -2,0 h -2 v 2 h 2 z m 0,-2 v -2 h -2 v 2 z m 2,0 h 2 v -2 h -2 z" style="fill: #ffffff; stroke-linecap: round; stroke-linejoin: round; marker: none;"></path>
  </g>
</svg>