<svg xmlns="http://www.w3.org/2000/svg" height="64" width="64" viewBox="297 260 20 20">
  <g style="fill: #ffffff;" id="g22457" transform="translate(21,-21)" data-label="M-15">
    <path style="color: rgb(0, 0, 0); opacity: 0.6; fill: #ffffff; stroke-linecap: round; stroke-linejoin: round; stroke-dashoffset: 0.5;" d="m 280.5,284 a 0.50004976,0.50004976 0 0 0 -0.5,0.5 v 0.75 7.25 a 0.50004976,0.50004976 0 0 0 0.5,0.5 h 0.5 a 0.50004976,0.50004976 0 0 0 0.2832,-0.0879 l 10.5,-7.25 A 0.50004976,0.50004976 0 0 0 292,285.25 v -0.75 a 0.50004976,0.50004976 0 0 0 -0.5,-0.5 z m 0.5,1 h 9.98242 L 281,291.89258 V 285.25 Z" id="path22322"></path>
    <path style="color: rgb(0, 0, 0); fill: #ffffff; stroke-linecap: round; stroke-linejoin: round; stroke-dashoffset: 0.5;" d="m 285.25,292 a 0.50004976,0.50004976 0 1 0 0,1 H 291 v 0.15625 l -10,3.80859 V 295.25 a 0.50004976,0.50004976 0 1 0 -1,0 v 2.25 a 0.50004976,0.50004976 0 0 0 0.5,0.5 h 0.5 a 0.50004976,0.50004976 0 0 0 0.17773,-0.0332 l 10.5,-4 A 0.50004976,0.50004976 0 0 0 292,293.5 v -1 a 0.50004976,0.50004976 0 0 0 -0.5,-0.5 z" id="path22334"></path>
  </g>
</svg>