<svg xmlns="http://www.w3.org/2000/svg" height="64" width="64" viewBox="318 260 20 20">
  <g id="g135604" style="" data-label="M-16">
    <path style="fill: #ffffff; stroke-width: 1px; stroke-linecap: round; stroke-linejoin: round;" d="m 327.41406,263 a 0.50005,0.50005 0 1 0 0,1 h 1.17969 c 1.54365,0 2.90268,0.42079 3.85937,1.21484 0.9567,0.79406 1.54688,1.95474 1.54688,3.60352 0,1.90166 -0.93943,3.66928 -2.68164,4.99414 -1.74221,1.32486 -4.29199,2.1875 -7.44922,2.1875 h -2.36133 a 0.50005,0.50005 0 1 0 0,1 h 2.36133 c 3.33916,0 6.10577,-0.91054 8.05469,-2.39258 1.94891,-1.48204 3.07617,-3.55426 3.07617,-5.78906 0,-1.89677 -0.72902,-3.39433 -1.9082,-4.37305 C 331.91261,263.46659 330.31821,263 328.59375,263 Z" id="path22657"></path>
  </g>
</svg>