<svg xmlns="http://www.w3.org/2000/svg" style="background: #808080" height="64" width="64" viewBox="339 260 20 20">
  <g style="fill: #ffffff;" transform="translate(422.009,-131.007)" id="g22132" data-label="M-17">
    <path style="color: rgb(0, 0, 0); fill: #ffffff; stroke-width: 1px; stroke-linejoin: round;" d="m -76.509766,394.00586 a 0.50005,0.50005 0 0 0 -0.486328,0.38867 l -3.011718,12.98828 a 0.50005,0.50005 0 0 0 0.486328,0.61328 h 9.974609 a 0.50005,0.50005 0 0 0 0.488281,-0.38476 l 3.03711,-12.99024 a 0.50005,0.50005 0 0 0 -0.488282,-0.61523 z m 0.398438,1 h 3.974609 l -1.154297,5 h -3.978515 z m 5,0 h 3.972656 l -1.169922,5 h -3.955078 z m -6.390625,6 h 3.980469 l -1.382813,5.99023 h -3.986328 z m 5.005859,0 h 3.953125 l -1.40039,5.99023 h -3.933594 z" id="path22130"></path>
  </g>
</svg>