<svg xmlns="http://www.w3.org/2000/svg" style="background: #808080" height="64" width="64" viewBox="343 248 20 20">
  <g style="fill: #ffffff;" id="g13692-5-0" transform="translate(316.007,-315)" data-label="M-18">
    <path style="color: rgb(0, 0, 0); fill: #ffffff; stroke-linecap: round; stroke-linejoin: round; marker: none;" d="M 47.5,578 A 0.50005,0.50005 0 0 0 47,578.5 L 46.9922,589 c 0,1.51667 1.219298,3 2.984374,3 1.765077,0 3.015625,-1.475 3.015626,-3 L 53,578.5 A 0.50005,0.50005 0 0 0 52.5,578 Z m 0.5,1 h 4 l -0.0078,10 c 0,0.975 -0.811952,2 -2.015626,2 -1.203673,0 -1.984375,-1.01667 -1.984374,-2 z" id="path13679-7-1"></path>
    <path style="color: rgb(0, 0, 0); opacity: 0.6; fill: #ffffff; stroke-linecap: round; stroke-linejoin: round; marker: none;" d="m 58.492188,586 a 0.50005,0.50005 0 1 0 0,1 H 60 v 4 h -6.257812 a 0.50005,0.50005 0 1 0 0,1 H 60.5 a 0.50005,0.50005 0 0 0 0.5,-0.5 v -5 A 0.50005,0.50005 0 0 0 60.5,586 Z" id="path13681-7-8"></path>
    <path style="color: rgb(0, 0, 0); opacity: 0.8; fill: #ffffff; stroke-linecap: round; stroke-linejoin: round; marker: none;" d="m 56.492188,579 a 0.50005,0.50005 0 0 0 -0.345704,0.14648 l -2,2 a 0.50005,0.50005 0 1 0 0.707032,0.70704 L 56.5,580.20703 58.792969,582.5 l -4.646485,4.64648 a 0.50005,0.50005 0 1 0 0.707032,0.70704 l 5,-5 a 0.50005,0.50005 0 0 0 0,-0.70704 l -3,-3 A 0.50005,0.50005 0 0 0 56.492188,579 Z" id="path13684-4-3"></path>
    <path style="color: rgb(0, 0, 0); opacity: 0.6; fill: #ffffff; stroke-linecap: round; stroke-linejoin: round; marker: none;" d="m 50,588 c -0.546362,0 -1,0.45364 -1,1 0,0.54636 0.453638,1 1,1 0.546362,0 1,-0.45364 1,-1 0,-0.54636 -0.453638,-1 -1,-1 z" id="circle13686-9-5"></path>
  </g>
</svg>