<svg xmlns="http://www.w3.org/2000/svg" height="64" width="64" viewBox="24 260 20 20">
  <g style="fill: #ffffff;" id="g21947" transform="matrix(-1,0,0,1,67.9866,-21)" data-label="M-2">
    <path id="circle21927" style="color: rgb(0, 0, 0); fill: #ffffff; stroke-linecap: round; stroke-linejoin: round;" d="m 27.460938,284.01172 a 0.50005,0.50005 0 1 0 0.04297,0.99805 c 3.348416,-0.1388 6.600566,1.12874 8.972656,3.49609 2.372091,2.36735 3.645762,5.61811 3.513672,8.9668 a 0.50038206,0.50038206 0 1 0 1,0.0391 c 0.143077,-3.62723 -1.237239,-7.14863 -3.80664,-9.71289 -2.569402,-2.56427 -6.09572,-3.93745 -9.722656,-3.78711 z m -0.0332,4.00586 a 0.50005,0.50005 0 1 0 0.0625,0.99804 c 2.281784,-0.14542 4.516597,0.69332 6.140625,2.30274 1.62403,1.60942 2.482218,3.83613 2.357422,6.11914 a 0.50005,0.50005 0 1 0 0.998047,0.0547 c 0.140364,-2.5678 -0.823774,-5.07459 -2.65039,-6.88477 -1.826617,-1.81018 -4.341781,-2.75341 -6.908204,-2.58984 z m 0.03711,4.01172 a 0.50005,0.50005 0 1 0 0.107422,0.99414 c 1.199607,-0.12917 2.392346,0.29002 3.248046,1.14062 0.855701,0.8506 1.282148,2.03988 1.160157,3.24024 a 0.50005,0.50005 0 1 0 0.99414,0.10156 c 0.152408,-1.49965 -0.380162,-2.99006 -1.449218,-4.05274 -1.069056,-1.06268 -2.561836,-1.5852 -4.060547,-1.42382 z M 28,296 c -0.546362,0 -1,0.45364 -1,1 0,0.54636 0.453638,1 1,1 0.546362,0 1,-0.45364 1,-1 0,-0.54636 -0.453638,-1 -1,-1 z"></path>
  </g>
</svg>