<svg xmlns="http://www.w3.org/2000/svg" style="background: #808080" height="64" width="64" viewBox="383 248 20 20">
  <g style="fill: #ffffff;" id="g22840" transform="translate(-1.85367e-6,-20)" data-label="M-20">
    <path style="color: rgb(0, 0, 0); opacity: 0.6; fill: #ffffff; stroke-linecap: round; stroke-linejoin: round; marker: none;" d="m 412,286 c 1.65601,0 3,1.37486 3,3.04688 0,1.67201 -1.34399,3.04687 -3,3.04687 -1.65601,0 -3,-1.37486 -3,-3.04687 C 409,287.37486 410.34399,286 412,286 Z m 0,1 c -1.10534,0 -2,0.90526 -2,2.04688 0,1.14161 0.89466,2.04687 2,2.04687 1.10534,0 2,-0.90526 2,-2.04687 C 414,287.90526 413.10534,287 412,287 Z" id="circle22836"></path>
    <path style="color: rgb(0, 0, 0); fill: #ffffff; stroke-linecap: round; stroke-linejoin: round; marker: none;" d="m 412,283 c -3.5093,0 -6,2.77253 -6,5.91992 V 296 h -0.96094 a 0.50004991,0.50004991 0 1 0 0,1 H 406.5 a 0.50004991,0.50004991 0 0 0 0.5,-0.5 v -7.58008 C 407,286.29196 409.01002,284 412,284 c 2.99076,0 5,2.29197 5,4.91992 V 296.5 a 0.50004991,0.50004991 0 0 0 0.5,0.5 h 1.46094 a 0.50004991,0.50004991 0 1 0 0,-1 H 418 v -7.08008 C 418,285.77251 415.50996,283 412,283 Z" id="path22838"></path>
  </g>
</svg>