<svg xmlns="http://www.w3.org/2000/svg" height="64" width="64" viewBox="423 260 20 20">
  <g style="fill: #ffffff;" id="g22386" transform="translate(-886,80.0001)" data-label="M-21">
    <path style="color: rgb(0, 0, 0); fill: #ffffff; stroke-linecap: round; stroke-linejoin: round;" d="m 433,263 c -3.84758,0 -6.97776,3.12003 -6.99805,6.96289 -6e-5,0.0125 -0.002,0.0246 -0.002,0.0371 a 0.50004994,0.50004994 0 0 0 0.002,0.0488 0.50004994,0.50004994 0 0 0 0,0.002 l -0.01,6.45508 a 0.50005,0.50005 0 0 0 0.50195,0.50195 L 432.96484,277 A 0.50004994,0.50004994 0 0 0 433,277 c 0.0171,0 0.0337,-0.002 0.0508,-0.002 a 0.50005,0.50005 0 0 0 0.008,0 C 436.89154,276.96613 440,273.84031 440,270 c 0,-3.86007 -3.1399,-7 -7,-7 z m 0,1 c 3.3196,0 6,2.68037 6,6 0,3.31963 -2.6804,6 -6,6 l -6.00781,0.008 0.01,-6.00781 a 0.50005,0.50005 0 0 0 0,-0.0215 C 427.01364,266.66895 429.68766,264 433,264 Z" transform="translate(886,-80.0001)" id="path22377"></path>
    <path style="color: rgb(0, 0, 0); opacity: 0.6; fill: #ffffff; stroke-linecap: round; stroke-linejoin: round;" d="m 1314.5,189 a 0.50005,0.50005 0 1 0 0,1 h 4.5 v 4.5 a 0.50005,0.50005 0 1 0 1,0 v -5 a 0.50005,0.50005 0 0 0 -0.5,-0.5 z" id="path22381"></path>
  </g>
</svg>