<svg xmlns="http://www.w3.org/2000/svg" height="64" width="64" viewBox="444 260 20 20">
  <g style="fill: #ffffff;" id="g22510" transform="translate(-1.85367e-6,21)" data-label="M-22">
    <g style="opacity: 0.6; fill: #ffffff;" id="g22476" transform="translate(168,-42)">
      <path style="color: rgb(0, 0, 0); fill: #ffffff; fill-rule: evenodd; stroke-linecap: round; stroke-linejoin: round;" d="m 447.5,263 a 0.50005,0.50005 0 0 0 -0.5,0.5 v 2 a 0.50005,0.50005 0 0 0 0.5,0.5 h 0.5 v 8 h -0.5 a 0.50005,0.50005 0 0 0 -0.5,0.5 v 2 a 0.50005,0.50005 0 0 0 0.5,0.5 h 2 a 0.50005,0.50005 0 0 0 0.5,-0.5 V 276 h 8 v 0.5 a 0.50005,0.50005 0 0 0 0.5,0.5 h 2 a 0.50005,0.50005 0 0 0 0.5,-0.5 v -2 A 0.50005,0.50005 0 0 0 460.5,274 H 460 v -8 h 0.5 a 0.50005,0.50005 0 0 0 0.5,-0.5 v -2 a 0.50005,0.50005 0 0 0 -0.5,-0.5 h -2 a 0.50005,0.50005 0 0 0 -0.5,0.5 v 0.5 h -8 v -0.5 a 0.50005,0.50005 0 0 0 -0.5,-0.5 z m 0.5,1 h 1 v 1 h -1 z m 11,0 h 1 v 1 h -1 z m -9,1 h 8 v 0.5 a 0.50005,0.50005 0 0 0 0.5,0.5 h 0.5 v 8 h -0.5 a 0.50005,0.50005 0 0 0 -0.5,0.5 v 0.5 h -8 v -0.5 A 0.50005,0.50005 0 0 0 449.5,274 H 449 v -8 h 0.5 a 0.50005,0.50005 0 0 0 0.5,-0.5 z m -2,10 h 1 v 1 h -1 z m 11,0 h 1 v 1 h -1 z" transform="translate(-168,21)" id="path22458"></path>
    </g>
    <path style="color: rgb(0, 0, 0); fill: #ffffff; stroke-linecap: round; stroke-linejoin: round;" d="m 451.5,246 a 0.50005,0.50005 0 0 0 -0.5,0.5 v 5 a 0.50005,0.50005 0 0 0 0.5,0.5 h 5 a 0.50005,0.50005 0 0 0 0.5,-0.5 v -5 a 0.50005,0.50005 0 0 0 -0.5,-0.5 z m 0.5,1 h 4 v 4 h -4 z" id="rect22466"></path>
  </g>
</svg>