<svg xmlns="http://www.w3.org/2000/svg" style="background: #808080" height="64" width="64" viewBox="465 260 20 20">
  <g style="fill: #ffffff;" id="g26277" transform="translate(273,-21)" data-label="M-23">
    <path style="color: rgb(0, 0, 0); fill: #ffffff; fill-rule: evenodd; stroke-linecap: round; stroke-linejoin: round;" d="m 203.5,284 a 0.50005,0.50005 0 0 0 -0.35352,0.14648 l -8,8 A 0.50005,0.50005 0 0 0 195,292.5 l -0.008,5.00586 a 0.50005,0.50005 0 0 0 0.5,0.50195 L 208.5,298 a 0.50005,0.50005 0 0 0 0.5,-0.5 v -13 a 0.50005,0.50005 0 0 0 -0.5,-0.5 z m 0.20703,1 H 208 v 12 l -12.00781,0.008 0.008,-4.30078 z" id="path23052"></path>
    <path style="color: rgb(0, 0, 0); opacity: 0.5; fill: #ffffff; stroke-linecap: round; stroke-linejoin: round;" d="m 200.5,284 -5.00781,0.008 a 0.50005,0.50005 0 0 0 -0.5,0.5 v 5 a 0.50005,0.50005 0 1 0 1,0 v -4.50195 L 200.5,285 a 0.50005,0.50005 0 1 0 0,-1 z" id="path23056"></path>
  </g>
</svg>