<svg xmlns="http://www.w3.org/2000/svg" style="background: #808080" height="64" width="64" viewBox="528 260 20 20">
  <g id="g12836" style="fill: #ffffff;" transform="translate(-123,459)" data-label="M-26">
    <path style="color: rgb(0, 0, 0); fill: #ffffff; stroke-linecap: round; stroke-linejoin: round;" d="m 540.5,263 c -2.47936,0 -4.5,2.02064 -4.5,4.5 0,2.47936 2.02064,4.5 4.5,4.5 2.47936,0 4.5,-2.02064 4.5,-4.5 0,-2.47936 -2.02064,-4.5 -4.5,-4.5 z m 0,1 c 1.93892,0 3.5,1.56108 3.5,3.5 0,1.40621 -0.82672,2.60476 -2.01758,3.16211 -0.16784,-2.48561 -2.15892,-4.47669 -4.64453,-4.64453 C 537.89524,264.82672 539.09379,264 540.5,264 Z" transform="translate(123,-459)" id="path12830"></path>
    <path style="color: rgb(0, 0, 0); opacity: 0.7; fill: #ffffff; stroke-linecap: round; stroke-linejoin: round;" d="m 657.50195,-192.93359 a 0.50004997,0.50004997 0 0 0 -0.22656,0.0508 c -2.27231,1.07327 -3.57921,3.51034 -3.21484,5.99609 0.36436,2.48575 2.31598,4.44563 4.80078,4.82227 2.48479,0.37663 4.92837,-0.91763 6.01367,-3.1836 a 0.50013262,0.50013262 0 1 0 -0.90234,-0.43164 c -0.89704,1.8729 -2.90867,2.93833 -4.96289,2.62696 -2.05422,-0.31138 -3.6598,-1.92406 -3.96094,-3.97852 -0.30115,-2.05446 0.77387,-4.06001 2.65234,-4.94727 a 0.50004997,0.50004997 0 0 0 -0.19922,-0.95507 z" id="path12834"></path>
  </g>
</svg>