<svg xmlns="http://www.w3.org/2000/svg" style="background: #808080" height="64" width="64" viewBox="87 260 20 20">
  <g transform="translate(-336,-84)" id="g28475" style="" data-label="M-5">
    <path style="color: rgb(0, 0, 0); opacity: 0.6; fill: #ffffff; stroke-linecap: round; stroke-linejoin: round;" d="m 427.5,348 c -1.37479,0 -2.5,1.12521 -2.5,2.5 0,1.17958 0.69047,1.86035 1.13281,2.33984 0.59193,0.64165 1.20449,1.21721 1.66016,1.66016 l -0.89649,0.89648 c -0.91207,0.91207 -1.15649,2.32468 -0.5625,3.35352 0.56456,0.97783 1.72188,1.4563 2.8125,1.16406 C 430.23711,359.62183 431,358.6291 431,357.5 a 0.50005,0.50005 0 1 0 -1,0 c 0,0.68132 -0.45321,1.27287 -1.11133,1.44922 -0.65811,0.17634 -1.34683,-0.10917 -1.6875,-0.69922 -0.31121,-0.53904 -0.18558,-1.55855 0.40235,-2.14648 l 1.25,-1.25 a 0.50005,0.50005 0 0 0 0,-0.70704 c -0.4316,-0.43159 -1.30799,-1.251 -1.98633,-1.98632 C 426.38701,351.63965 426,351.32042 426,350.5 c 0,-0.83435 0.66565,-1.5 1.5,-1.5 1.16667,0 2.02863,1.23566 2.64648,1.85352 a 0.50005,0.50005 0 1 0 0.70704,-0.70704 C 430.47137,349.76434 429.33333,348 427.5,348 Z" id="path28463"></path>
    <path id="path28468" style="color: rgb(0, 0, 0); fill: #ffffff; stroke-linecap: round; stroke-linejoin: round;" d="m 437.5,348 c -1.83333,0 -2.97137,1.76434 -3.35352,2.14648 a 0.50005,0.50005 0 1 0 0.70704,0.70704 C 435.47137,350.23566 436.33333,349 437.5,349 c 0.83435,0 1.5,0.66565 1.5,1.5 0,0.82042 -0.38701,1.13965 -0.86719,1.66016 -0.67834,0.73532 -1.55473,1.55473 -1.98633,1.98632 a 0.50005,0.50005 0 0 0 0,0.70704 l 1.25,1.25 c 0.58793,0.58793 0.71356,1.60744 0.40235,2.14648 -0.34067,0.59005 -1.02939,0.87556 -1.6875,0.69922 C 435.45321,358.77287 435,358.18132 435,357.5 a 0.50005,0.50005 0 1 0 -1,0 c 0,1.1291 0.76289,2.12183 1.85352,2.41406 1.09062,0.29224 2.24794,-0.18623 2.8125,-1.16406 0.59399,-1.02884 0.34957,-2.44145 -0.5625,-3.35352 L 437.20703,354.5 c 0.45567,-0.44295 1.06823,-1.01851 1.66016,-1.66016 C 439.30953,352.36035 440,351.67958 440,350.5 c 0,-1.37479 -1.12521,-2.5 -2.5,-2.5 z m -4.5,4.00005 v -2 h -1 v 2 z m 0,-3 v -2 h -1 v 2 z m 0,12 v -2 h -1 v 2 z m 0,-3 v -2 h -1 v 2 z m 0,-3 v -2 h -1 v 2 z"></path>
  </g>
</svg>