<svg xmlns="http://www.w3.org/2000/svg" height="64" width="64" viewBox="150 260 20 20">
  <g style="fill: #ffffff;" id="g21555" transform="translate(-1.85367e-6,-21)" data-label="M-8">
    <path style="fill: #ffffff; fill-rule: evenodd; stroke-linecap: round; stroke-linejoin: round;" d="m 160.50391,263.00391 c -0.82069,0 -1.4961,0.67734 -1.4961,1.49804 1e-5,0.64713 0.422,1.19917 1.00196,1.40625 -0.004,0.17741 -0.01,0.3625 -0.01,0.58594 0,0.8575 0.30572,1.55064 0.73242,2.08984 0.42671,0.53921 0.958,0.94374 1.45313,1.34375 0.99025,0.80003 1.81445,1.48075 1.81445,3.0293 0,1.03964 -0.41467,1.75679 -1.05859,2.26367 C 162.29747,275.72759 161.4016,276 160.5,276 c -0.9016,0 -1.79749,-0.27241 -2.44141,-0.7793 C 157.41467,274.71382 157,273.99667 157,272.95703 v -1.25 l 1.14648,1.14649 c 0.47127,0.49023 1.19727,-0.23577 0.70704,-0.70704 l -2,-2 c -0.315,-0.31479 -0.85335,-0.0918 -0.85352,0.35352 v 2.45703 c 0,1.32194 0.58533,2.37688 1.44141,3.05078 0.85608,0.6739 1.96019,0.99219 3.05859,0.99219 1.0984,0 2.20251,-0.31829 3.05859,-0.99219 0.85608,-0.6739 1.44141,-1.72884 1.44141,-3.05078 0,-1.93167 -1.1758,-2.99085 -2.18555,-3.80664 -0.50487,-0.40789 -0.97358,-0.77897 -1.29687,-1.1875 C 161.19428,267.55436 161,267.12816 161,266.49414 c 0,-0.20716 0.005,-0.40692 0.01,-0.58984 0.57393,-0.21035 0.99023,-0.75955 0.99023,-1.40235 0,-0.8207 -0.67541,-1.49804 -1.49609,-1.49804 z m 0,1 c 0.27921,0 0.49609,0.21676 0.49609,0.49804 0,0.28129 -0.21688,0.49805 -0.49609,0.49805 -0.27922,0 -0.4961,-0.21676 -0.4961,-0.49805 0,-0.28128 0.21688,-0.49804 0.4961,-0.49804 z" transform="translate(1.85367e-6,21)" id="path16949-6-5"></path>
  </g>
</svg>