<svg xmlns="http://www.w3.org/2000/svg" style="background: #808080" height="64" width="64" viewBox="171 260 20 20">
  <g style="" id="g27915" data-label="M-9">
    <path style="color: rgb(0, 0, 0); fill: #ffffff; stroke-linecap: round; stroke-linejoin: round;" d="m 180.5,263 c -0.27613,3e-5 -0.49997,0.22387 -0.5,0.5 v 4 c 3e-5,0.27613 0.22387,0.49997 0.5,0.5 h 1.5 v 0.5 c 3e-5,0.27613 0.22387,0.49997 0.5,0.5 h 1.5 v 1.5 c 3e-5,0.27613 0.22387,0.49997 0.5,0.5 h 3 c 0.27613,-3e-5 0.49997,-0.22387 0.5,-0.5 v -7 c -3e-5,-0.27613 -0.22387,-0.49997 -0.5,-0.5 z m 0.5,1 h 6 v 6 h -2 v -1.5 c -3e-5,-0.27613 -0.22387,-0.49997 -0.5,-0.5 H 183 v -0.5 c -3e-5,-0.27613 -0.22387,-0.49997 -0.5,-0.5 H 181 Z" id="path27886"></path>
    <path style="color: rgb(0, 0, 0); opacity: 0.7; fill: #ffffff; stroke-linecap: round; stroke-linejoin: round;" d="m 176.50781,262.99414 a 0.50005,0.50005 0 0 0 -0.45508,0.72852 l 1,2 a 0.50005,0.50005 0 1 0 0.89454,-0.44532 l -1,-2 a 0.50005,0.50005 0 0 0 -0.43946,-0.2832 z m -2.02539,3.00195 a 0.50005,0.50005 0 0 0 -0.20508,0.95118 l 2,1 a 0.50005,0.50005 0 1 0 0.44532,-0.89454 l -2,-1 a 0.50005,0.50005 0 0 0 -0.24024,-0.0566 z m 11,6 a 0.50005,0.50005 0 0 0 -0.20508,0.95118 l 2,1 a 0.50005,0.50005 0 1 0 0.44532,-0.89454 l -2,-1 a 0.50005,0.50005 0 0 0 -0.24024,-0.0566 z m -0.97461,1.99805 a 0.50005,0.50005 0 0 0 -0.45508,0.72852 l 1,2 a 0.50005,0.50005 0 1 0 0.89454,-0.44532 l -1,-2 a 0.50005,0.50005 0 0 0 -0.43946,-0.2832 z" id="path27898"></path>
    <path style="color: rgb(0, 0, 0); fill: #ffffff; stroke-linecap: round; stroke-linejoin: round;" d="m 174.5,269 a 0.50005,0.50005 0 0 0 -0.5,0.5 v 7 a 0.50005,0.50005 0 0 0 0.5,0.5 h 7 a 0.50005,0.50005 0 0 0 0.5,-0.5 l -0.008,-4 a 0.50005,0.50005 0 0 0 -0.5,-0.5 h -1.5 v -1.5 a 0.50005,0.50005 0 0 0 -0.5,-0.5 h -1.4961 L 178,269.50391 A 0.50005,0.50005 0 0 0 177.5,269 Z m 0.5,1 h 1.99609 l -0.004,0.49609 a 0.50005,0.50005 0 0 0 0.5,0.50391 h 1.5 v 1.5 a 0.50005,0.50005 0 0 0 0.5,0.5 h 1.5 l 0.008,3 h -6 z" id="path10946"></path>
  </g>
</svg>