<svg xmlns="http://www.w3.org/2000/svg" style="background: #808080" height="64" width="64" viewBox="192 281 20 20">
  <g id="g128040" style="" data-label="N-10">
    <path id="path10482" d="m 197.50977,285.99609 a 0.50005,0.50005 0 0 0 -0.31055,0.10547 c -1.78384,1.33863 -2.5833,3.62488 -2.02149,5.78321 0.56181,2.15833 2.37387,3.7674 4.58399,4.0664 2.05389,0.27788 4.06729,-0.6352 5.23828,-2.31445 V 296.5 a 0.50005,0.50005 0 1 0 1,0 v -4 a 0.50005,0.50005 0 0 0 -0.5,-0.5 h -4 a 0.50005,0.50005 0 1 0 0,1 h 2.72656 c -0.95112,1.41787 -2.62038,2.19029 -4.33008,1.95898 -1.8109,-0.24499 -3.29162,-1.5577 -3.75195,-3.32617 -0.46033,-1.76847 0.19267,-3.63559 1.6543,-4.73242 a 0.50005,0.50005 0 0 0 -0.28906,-0.9043 z" style="color: rgb(0, 0, 0); opacity: 0.8; fill: #ffffff; stroke-linecap: round; stroke-linejoin: round;"></path>
    <path id="path10488" style="fill: #ffffff; stroke-linecap: round; stroke-linejoin: round;" d="m 209,289 v -2 h -1 v 2 z m 0,-3 v -2 h -1 v 2 z m 0,12 v -2 h -1 v 2 z m 0,-3 v -2 h -1 v 2 z m 0,-3 v -2 h -1 v 2 z"></path>
  </g>
</svg>