<svg xmlns="http://www.w3.org/2000/svg" style="background: #808080" height="64" width="64" viewBox="223 268 20 20">
  <g transform="translate(21,573)" id="g10534" style="" data-label="N-12">
    <path id="path10530" d="m 216.5,-282 a 0.50005,0.50005 0 0 0 -0.5,0.5 v 6 a 0.50005,0.50005 0 0 0 0.5,0.5 h 7 a 0.50005,0.50005 0 0 0 0.5,-0.5 v -6 a 0.50005,0.50005 0 0 0 -0.5,-0.5 z m 0.5,1 h 6 v 5 h -6 z" style="color: rgb(0, 0, 0); opacity: 0.7; fill: #ffffff; stroke-linecap: round; stroke-linejoin: round;"></path>
    <path id="path10532" d="m 226.5,-289 a 0.50005,0.50005 0 0 0 -0.5,0.5 v 13 a 0.50005,0.50005 0 0 0 0.5,0.5 h 3 a 0.50005,0.50005 0 0 0 0.5,-0.5 v -13 a 0.50005,0.50005 0 0 0 -0.5,-0.5 z m 0.5,1 h 2 v 12 h -2 z" style="color: rgb(0, 0, 0); fill: #ffffff; stroke-linecap: round; stroke-linejoin: round;"></path>
  </g>
</svg>