<svg xmlns="http://www.w3.org/2000/svg" height="64" width="64" viewBox="255 281 20 20">
  <g transform="matrix(-0.53033,-0.53033,-0.53033,0.53033,559.864,322.759)" style="fill: #5fd38d; stroke: #ffffff; stroke-width: 1.33333;" id="g10335" data-label="N-13">
    <g style="fill: #5fd38d; stroke: #ffffff; stroke-width: 1.33333;" id="g10333">
      <g id="g10331">
        <path id="path10321-5" transform="matrix(-0.942809,-0.942809,-0.942809,0.942809,832.145,223.544)" d="m 262.58789,287.02734 a 0.60006001,0.60006001 0 0 0 -0.47266,0.95899 l 2.14844,3.02929 -2.14844,3.0293 a 0.60024527,0.60024527 0 1 0 0.97852,0.69531 l 1.90625,-2.6875 1.90625,2.6875 a 0.60024527,0.60024527 0 1 0 0.97852,-0.69531 l -2.14844,-3.0293 2.14844,-3.02929 a 0.60005997,0.60005997 0 0 0 -0.041,-0.75781 0.60005997,0.60005997 0 0 0 -0.9375,0.0625 l -1.90625,2.6875 -1.90625,-2.6875 a 0.60006001,0.60006001 0 0 0 -0.0645,-0.0781 0.60006001,0.60006001 0 0 0 -0.44141,-0.18555 z" style="color: rgb(0, 0, 0); fill: #ffffff; stroke-width: 1.2; stroke-linecap: round;"></path>
        <path d="m 310.32458,237.24123 a 0.66673335,0.66673335 0 0 0 -0.58971,-0.19749 c -6.22865,0.92525 -11.88001,6.57661 -12.80526,12.80526 a 0.66680952,0.66680952 0 1 0 1.31891,0.19749 c 0.82395,-5.54666 6.1358,-10.85851 11.68246,-11.68246 a 0.66673335,0.66673335 0 0 0 0.3936,-1.1228 z m 8.44938,8.44937 a 0.66673335,0.66673335 0 0 1 0.19749,0.58972 c -0.92525,6.22865 -6.57661,11.88001 -12.80526,12.80526 a 0.66673335,0.66673335 0 1 1 -0.19611,-1.31753 c 5.54665,-0.82395 10.8585,-6.1358 11.68245,-11.68246 a 0.66673335,0.66673335 0 0 1 1.12143,-0.39499 z" style="color: rgb(0, 0, 0); fill: #ffffff; stroke-width: 1.33333px; stroke-linecap: round;" id="path10329-8"></path>
      </g>
    </g>
  </g>
</svg>