<svg xmlns="http://www.w3.org/2000/svg" style="background: #808080" height="64" width="64" viewBox="276 281 20 20">
  <g transform="translate(11,-136)" id="g10373" style="" data-label="N-14">
    <path id="path10361" d="m 275.4707,427 c -0.42985,0.004 -0.62994,0.5874 -0.31869,0.87125 0.40897,0.54487 0.81793,1.08974 1.2269,1.63461 -0.43981,0.59662 -0.90116,1.17907 -1.32716,1.78476 -0.21053,0.38613 0.24226,0.86663 0.6402,0.67938 0.28682,-0.15751 0.42097,-0.48416 0.63231,-0.72356 0.22655,-0.3022 0.4531,-0.6044 0.67965,-0.9066 0.3916,0.51133 0.76296,1.03993 1.16735,1.54035 0.31222,0.30974 0.89981,0.009 0.83079,-0.42566 -0.0715,-0.31923 -0.34727,-0.53953 -0.51804,-0.80941 -0.28503,-0.37975 -0.57007,-0.75951 -0.8551,-1.13926 0.43981,-0.59662 0.90116,-1.17907 1.32716,-1.78476 0.21053,-0.38613 -0.24226,-0.86663 -0.6402,-0.67938 -0.28682,0.15751 -0.42097,0.48416 -0.63231,0.72356 -0.22655,0.3022 -0.4531,0.6044 -0.67965,0.9066 -0.39082,-0.51197 -0.76442,-1.03847 -1.1661,-1.54128 -0.0981,-0.0907 -0.23371,-0.13896 -0.36711,-0.1306 z" style="color: rgb(0, 0, 0); fill: #ffffff; stroke-width: 1px; stroke-linecap: round;"></path>
    <g id="g10367" transform="translate(116,-73)" style="opacity: 0.6;">
      <path id="path10363" transform="translate(-379,209)" d="m 534.48047,284 a 0.50005,0.50005 0 0 0 -0.38477,0.19727 l -2.92382,2.92578 -0.0254,0.0234 c -4.5e-4,4.6e-4 4.5e-4,0.002 0,0.002 a 0.50005,0.50005 0 0 0 -0.13671,0.25781 c -7.9e-4,0.004 -0.003,0.008 -0.004,0.0117 A 0.50005,0.50005 0 0 0 531,287.50781 V 296.5 a 0.50005,0.50005 0 0 0 0.5,0.5 h 2 a 0.50005,0.50005 0 1 0 0,-1 H 532 v -8 h 2.5 c 0.27613,-3e-5 0.49997,-0.22387 0.5,-0.5 V 285 h 6 v 2.5 a 0.50005,0.50005 0 1 0 1,0 v -3 a 0.50005,0.50005 0 0 0 -0.5,-0.5 h -7 a 0.50005,0.50005 0 0 0 -0.0137,0 c -6.7e-4,2e-5 -10e-4,-2e-5 -0.002,0 -10e-4,4e-5 -0.003,-5e-5 -0.004,0 z" style="color: rgb(0, 0, 0); fill: #ffffff; fill-rule: evenodd; stroke-linecap: round; stroke-linejoin: round;"></path>
    </g>
    <path id="path10369" d="m 273.50391,425 c -0.46998,0.0749 -0.80823,0.50172 -1.06635,0.87006 -0.4326,0.65782 -0.45638,1.4618 -0.43756,2.22236 0.008,1.23972 -0.0164,2.48035 0.0134,3.71944 0.0716,0.88933 0.54871,1.83354 1.40415,2.18708 0.42463,0.112 0.78249,-0.44168 0.50598,-0.78285 -0.29758,-0.24384 -0.6397,-0.4766 -0.77031,-0.86624 -0.24243,-0.63283 -0.12529,-1.31954 -0.15325,-1.98084 0.006,-1.03207 -0.0114,-2.06474 0.009,-3.09642 0.0299,-0.56822 0.33188,-1.12862 0.8373,-1.40532 0.33744,-0.28816 0.10108,-0.88712 -0.34243,-0.86727 z" style="color: rgb(0, 0, 0); fill: #ffffff; stroke-width: 1px; stroke-linecap: round;"></path>
    <path id="path10371" d="m 280.48828,425 c -0.4389,-0.0149 -0.66492,0.60436 -0.31958,0.87564 0.63959,0.33681 0.88258,1.10168 0.83716,1.78593 -0.006,1.35522 0.0116,2.71106 -0.009,4.06588 -0.029,0.57068 -0.33398,1.12767 -0.83582,1.41135 -0.3334,0.28584 -0.081,0.8949 0.35685,0.86114 0.46399,-0.0793 0.79448,-0.50451 1.05034,-0.86849 0.42617,-0.65052 0.45767,-1.4445 0.43766,-2.19695 -0.008,-1.24867 0.0164,-2.49826 -0.0134,-3.7463 -0.0691,-0.87707 -0.53296,-1.78778 -1.35661,-2.16868 -0.0478,-0.0138 -0.0978,-0.0204 -0.14755,-0.0195 z" style="color: rgb(0, 0, 0); fill: #ffffff; stroke-width: 1px; stroke-linecap: round;"></path>
  </g>
</svg>