<svg xmlns="http://www.w3.org/2000/svg" style="background: #808080" height="64" width="64" viewBox="297 281 20 20">
  <g transform="translate(0,636)" id="g9298" style="" data-label="N-15">
    <path style="color: rgb(0, 0, 0); fill: #ffffff; stroke-linecap: round; stroke-linejoin: round;" d="m 306.49219,-348.01172 a 0.50005,0.50005 0 0 0 -0.38867,0.19531 l -1.95704,1.95703 a 0.50005,0.50005 0 1 0 0.70704,0.70704 L 306,-346.29883 v 5.79297 a 0.50005,0.50005 0 0 0 0.5,0.5 h 5.79297 l -1.14649,1.14648 a 0.50005,0.50005 0 1 0 0.70704,0.70704 l 1.95117,-1.94922 a 0.50005,0.50005 0 0 0 0.008,-0.79883 l -1.95898,-1.95899 a 0.50005,0.50005 0 1 0 -0.70704,0.70704 l 1.14649,1.14648 H 307 v -5.29297 l 1.14648,1.14649 a 0.50005,0.50005 0 1 0 0.70704,-0.70704 l -1.96094,-1.96093 -0.006,-0.008 a 0.50005,0.50005 0 0 0 -0.39453,-0.1836 z" id="path10419-4"></path>
    <path style="color: rgb(0, 0, 0); opacity: 0.8; fill: #ffffff; stroke-linecap: round;" d="m 306.44531,-351.99805 c -1.16966,-0.043 -2.35048,0.23548 -3.40039,0.84766 -2.09911,1.22396 -3.28024,3.5522 -3.00586,5.94141 0.27491,2.39372 1.98225,4.44954 4.31055,5.18554 a 0.50004997,0.50004997 0 1 0 0.30078,-0.95312 c -1.94954,-0.61628 -3.38871,-2.3582 -3.61719,-4.34766 -0.22899,-1.99397 0.75092,-3.93196 2.51563,-4.96094 1.76401,-1.02856 3.9738,-0.9382 5.67187,0.20118 0.93801,0.62937 1.92387,1.08398 3.2793,1.08398 h 1 a 0.50004997,0.50004997 0 1 0 0,-1 h -1 c -1.14457,0 -1.85649,-0.33615 -2.7207,-0.91602 -1.00565,-0.67477 -2.16433,-1.03898 -3.33399,-1.08203 z" id="path10421-9"></path>
  </g>
</svg>