<svg xmlns="http://www.w3.org/2000/svg" height="64" width="64" viewBox="318 281 20 20">
  <g transform="translate(62.9759,-41.0395)" id="g10359" style="" data-label="N-16">
    <g transform="translate(0,21)" id="g10357">
      <path style="fill: #ffffff; stroke-width: 1.66667; stroke-linecap: round; stroke-linejoin: round;" d="m 264.02413,311.53945 a 1.5,1.5 0 0 1 -1.5,1.5 1.5,1.5 0 0 1 -1.5,-1.5 1.5,1.5 0 0 1 1.5,-1.5 1.5,1.5 0 0 1 1.5,1.5 z" id="path10347-2"></path>
      <path id="circle10349" d="m 269.02344,314.03906 c -1.09865,0 -2,0.90136 -2,2 0,1.09865 0.90135,2 2,2 1.09864,0 2,-0.90135 2,-2 0,-1.09864 -0.90136,-2 -2,-2 z m 0,1 c 0.5582,0 1,0.4418 1,1 0,0.55821 -0.4418,1 -1,1 -0.55821,0 -1,-0.44179 -1,-1 0,-0.5582 0.44179,-1 1,-1 z" style="color: rgb(0, 0, 0); fill: #ffffff; stroke-linecap: round; stroke-linejoin: round;"></path>
      <path id="path10351-7" d="m 258.53125,304.03516 a 0.50005,0.50005 0 1 0 0,1 h 12 a 0.50005,0.50005 0 1 0 0,-1 z" style="color: rgb(0, 0, 0); fill: #ffffff; stroke-linecap: round; stroke-linejoin: round;"></path>
      <path id="path10355-4" d="m 264.79492,304.18164 a 0.60006002,0.60006002 0 0 0 -0.58594,0.4043 l -2.25,6.25 a 0.60006002,0.60006002 0 1 0 1.12891,0.40625 l 2.25,-6.25 a 0.60006002,0.60006002 0 0 0 -0.54297,-0.81055 z m -1.27148,7.75391 a 0.60006002,0.60006002 0 0 0 -0.33594,1.09961 l 4,2.7207 a 0.60006002,0.60006002 0 1 0 0.67383,-0.99219 l -4,-2.7207 a 0.60006002,0.60006002 0 0 0 -0.33789,-0.10742 z" style="color: rgb(0, 0, 0); opacity: 0.7; fill: #fbfbfb; stroke-width: 1.2; stroke-linecap: round; stroke-linejoin: round;"></path>
    </g>
  </g>
</svg>