<svg xmlns="http://www.w3.org/2000/svg" style="background: #808080" height="64" width="64" viewBox="339 281 20 20">
  <g transform="translate(-210,636)" id="g10409" style="" data-label="N-17">
    <path id="ellipse10403" d="m 560.99219,-349.49609 c 0,-1.37714 1.12676,-2.50391 2.5039,-2.50391 1.37715,0 2.50391,1.12677 2.50391,2.50391 0,1.37713 -1.12676,2.5039 -2.50391,2.5039 -1.37714,0 -2.5039,-1.12677 -2.5039,-2.5039 z" style="color: rgb(0, 0, 0); fill: #ffffff; stroke-linecap: round; stroke-linejoin: round;"></path>
    <path id="ellipse10405" d="m 552,-339.99219 c 0,-1.09609 0.89673,-1.99609 1.99219,-1.99609 1.09546,0 1.99414,0.9 1.99414,1.99609 0,1.09609 -0.89868,1.99805 -1.99414,1.99805 -1.09546,0 -1.99219,-0.90196 -1.99219,-1.99805 z m 1,0 c 0,0.55685 0.43837,0.99805 0.99219,0.99805 0.55382,0 0.99414,-0.4412 0.99414,-0.99805 0,-0.55685 -0.44032,-0.99609 -0.99414,-0.99609 -0.55382,0 -0.99219,0.43924 -0.99219,0.99609 z" style="color: rgb(0, 0, 0); fill: #ffffff; stroke-linecap: round; stroke-linejoin: round;"></path>
    <path id="path10407-7" d="m 563.50195,-343.01367 a 0.50005,0.50005 0 0 0 -0.49414,0.50586 v 4 a 0.50005,0.50005 0 1 0 1,0 v -4 a 0.50005,0.50005 0 0 0 -0.50586,-0.50586 z m -5.99414,2.00586 a 0.50005,0.50005 0 1 0 0,1 h 1 a 0.50005,0.50005 0 1 0 0,-1 z m 3,0 a 0.50005,0.50005 0 1 0 0,1 h 1 a 0.50005,0.50005 0 1 0 0,-1 z" style="color: rgb(0, 0, 0); opacity: 0.7; fill: #ffffff; stroke-linecap: round;"></path>
  </g>
</svg>