<svg xmlns="http://www.w3.org/2000/svg" height="64" width="64" viewBox="381 281 20 20">
  <g transform="translate(42,657)" id="g10415" style="" data-label="N-19">
    <path id="ellipse10411" d="m 350.99219,-370.49609 c 0,-1.37714 1.12676,-2.50391 2.5039,-2.50391 1.37715,0 2.50391,1.12677 2.50391,2.50391 0,1.37713 -1.12676,2.5039 -2.50391,2.5039 -1.37714,0 -2.5039,-1.12677 -2.5039,-2.5039 z" style="color: rgb(0, 0, 0); fill: #ffffff; stroke-linecap: round; stroke-linejoin: round;"></path>
    <path id="path10413-7" d="m 348.4707,-367.9375 c -0.33462,0.0898 -0.64722,0.26623 -0.90039,0.51953 l -4.97851,4.98242 c -0.50693,0.50809 -0.70493,1.24983 -0.51953,1.94336 0.18541,0.69355 0.72692,1.23774 1.41992,1.42383 0.69276,0.18603 1.43437,-0.0128 1.9414,-0.52148 l 4.97852,-4.98047 c 0.50694,-0.50808 0.70495,-1.25177 0.51953,-1.94531 -0.1854,-0.69356 -0.72693,-1.23578 -1.41992,-1.42188 -0.34638,-0.093 -0.70553,-0.09 -1.04102,0 z m 0.78125,0.96484 c 0.34883,0.0937 0.61917,0.3662 0.71289,0.7168 0.0937,0.35062 -0.006,0.72222 -0.26172,0.97852 l -4.97656,4.98046 c -0.25562,0.25646 -0.62555,0.35546 -0.97461,0.26172 -0.3488,-0.0937 -0.62111,-0.36425 -0.71484,-0.71484 -0.0937,-0.35061 0.006,-0.7222 0.26172,-0.97852 l 4.97851,-4.98242 c 0.25563,-0.25646 0.62557,-0.35545 0.97461,-0.26172 z" style="color: rgb(0, 0, 0); opacity: 0.8; fill: #ffffff; stroke-linecap: round; stroke-linejoin: round;"></path>
  </g>
</svg>