<svg xmlns="http://www.w3.org/2000/svg" height="64" width="64" viewBox="24 281 20 20">
  <g id="g10303" transform="matrix(-1,0,0,1,68.0071,83.9999)" style="" data-label="N-2">
    <g transform="translate(-0.012711,-83.9954)" id="g10299">
      <path id="path10297" transform="matrix(-1,0,0,1,68.0198,-0.004515)" d="m 36.007812,284 v 2 h -1.5 c -0.27613,3e-5 -0.499969,0.22387 -0.5,0.5 v 1.49805 l -3.988281,0.006 c -0.812117,9.2e-4 -1.516225,0.45838 -1.832031,1.12695 -0.315807,0.66858 -0.189691,1.55835 0.478516,2.22656 l 4,4 c 0.413276,0.41327 0.416416,0.77582 0.271484,1.08789 -0.144932,0.31206 -0.483162,0.5586 -0.917969,0.5586 l -4.513672,0.006 c -0.676088,-0.008 -0.674098,1.01079 0.002,1 l 4.511719,-0.006 c 0.815193,0 1.513263,-0.46717 1.824219,-1.13672 0.310955,-0.66954 0.189571,-1.55652 -0.470703,-2.2168 l -4,-4 c -0.426033,-0.42603 -0.426504,-0.78429 -0.28125,-1.0918 0.145253,-0.30751 0.489852,-0.55418 0.927734,-0.55468 L 34,288.99805 c 0.0026,2e-5 0.0052,2e-5 0.0078,0 V 290.5 c 3e-5,0.27613 0.22387,0.49997 0.5,0.5 h 1.5 v 2 h 1 v -2 h 1.5 c 0.27613,-3e-5 0.499971,-0.22387 0.5,-0.5 V 289 h 2 v -1 h -2 v -1.5 c -2.9e-5,-0.27613 -0.22387,-0.49997 -0.5,-0.5 h -1.5 v -2 z m -1.027343,3 h 3.027343 v 3 h -3.027343 z" style="fill: #ffffff; stroke-linecap: round; stroke-linejoin: round; stroke-dashoffset: 7.4;"></path>
    </g>
  </g>
</svg>