<svg xmlns="http://www.w3.org/2000/svg" height="64" width="64" viewBox="444 281 20 20">
  <g transform="translate(105,2.4e-4)" id="g10345" style="" data-label="N-22">
    <g style="opacity:0.7" id="g10341">
      <path id="path10337-7" d="M 344.49219,287.99219 A 0.50005,0.50005 0 0 0 344,288.5 v 3 a 0.50005,0.50005 0 1 0 1,0 v -3 a 0.50005,0.50005 0 0 0 -0.50781,-0.50781 z m 0,5 A 0.50005,0.50005 0 0 0 344,293.5 v 2 a 0.50005,0.50005 0 0 0 0.5,0.5 h 2 a 0.50005,0.50005 0 1 0 0,-1 H 345 v -1.5 a 0.50005,0.50005 0 0 0 -0.50781,-0.50781 z M 348.5,295 a 0.50005,0.50005 0 1 0 0,1 h 3 a 0.50005,0.50005 0 1 0 0,-1 z" style="fill: #ffffff; stroke-width: 1px; stroke-linecap: round; stroke-linejoin: round;"></path>
      <path id="rect10339" d="m 351.5,293 a 0.50005,0.50005 0 0 0 -0.5,0.5 v 4 a 0.50005,0.50005 0 0 0 0.5,0.5 h 4 a 0.50005,0.50005 0 0 0 0.5,-0.5 v -4 a 0.50005,0.50005 0 0 0 -0.5,-0.5 z m 0.5,1 h 3 v 3 h -3 z" style="fill: #ffffff; stroke-linecap: round; stroke-linejoin: round;"></path>
    </g>
    <path id="rect10343" d="m 342.5,284 c -0.27613,3e-5 -0.49997,0.22387 -0.5,0.5 v 4 c 3e-5,0.27613 0.22387,0.49997 0.5,0.5 h 4 c 0.27613,-3e-5 0.49997,-0.22387 0.5,-0.5 v -4 c -3e-5,-0.27613 -0.22387,-0.49997 -0.5,-0.5 z" style="fill: #ffffff; stroke-linecap: round; stroke-linejoin: round;"></path>
  </g>
</svg>