<svg xmlns="http://www.w3.org/2000/svg" style="background: #808080" height="64" width="64" viewBox="463 268 20 20">
  <g transform="translate(21,615)" id="g10447" style="" data-label="N-24">
    <path id="path10443" d="m 478.49609,-323.00781 a 0.50005,0.50005 0 0 0 -0.34765,0.85937 l 2.64648,2.64649 -2.64648,2.64648 a 0.50005,0.50005 0 1 0 0.70703,0.70703 l 3,-3 a 0.50005,0.50005 0 0 0 0,-0.70703 l -3,-3 a 0.50005,0.50005 0 0 0 -0.35938,-0.15234 z" style="color: rgb(0, 0, 0); opacity: 0.7; fill: #ffffff; stroke-linecap: round; stroke-linejoin: round; stroke-dashoffset: 7.4;"></path>
    <path id="path10445" d="m 473.4375,-330.97461 c -0.67078,0.0637 -1.33815,0.24001 -1.97461,0.53711 -2.54627,1.1886 -3.92907,3.99498 -3.32031,6.73828 0.60875,2.7433 3.04739,4.69922 5.85742,4.69922 h 2.29297 l -2.14453,2.14453 a 0.50005,0.50005 0 1 0 0.70703,0.70703 l 3,-3 a 0.50005,0.50005 0 0 0 0,-0.70703 l -3,-3 a 0.50005,0.50005 0 1 0 -0.70703,0.70703 L 476.29688,-320 H 474 c -2.34689,0 -4.37244,-1.62485 -4.88086,-3.91602 -0.50842,-2.29116 0.63902,-4.62253 2.76563,-5.61523 2.12705,-0.99291 4.66398,-0.38512 6.07812,1.48242 l 0.74023,0.97656 C 479.25532,-326.34303 480.1366,-326 481,-326 h 0.5 a 0.50005,0.50005 0 1 0 0,-1 H 481 c -0.59704,0 -1.17055,-0.2407 -1.5,-0.67578 l -0.74023,-0.97656 c -1.27424,-1.68278 -3.30992,-2.51346 -5.32227,-2.32227 z" style="color: rgb(0, 0, 0); fill: #ffffff; stroke-linecap: round; stroke-linejoin: round; stroke-dashoffset: 7.4;"></path>
  </g>
</svg>