<svg xmlns="http://www.w3.org/2000/svg" height="64" width="64" viewBox="528 281 20 20">
  <g transform="translate(0,636)" id="g28780" style="" data-label="N-26">
    <path style="opacity: 0.7; fill: #ffffff; stroke-linecap: round; stroke-linejoin: round;" d="m 531.50781,-348.00781 a 0.50005,0.50005 0 0 0 -0.5,0.5 L 531,-338.5 a 0.50005,0.50005 0 0 0 0.5,0.5 l 9.00781,-0.008 a 0.50005,0.50005 0 0 0 0.5,-0.5 c 0,-5.24079 -4.25921,-9.5 -9.5,-9.5 z m 0.5,1.10156 c 4.27858,0.26151 7.63693,3.61986 7.89844,7.89844 L 532,-339 Z" id="path10381"></path>
    <path style="fill: #ffffff; stroke-width: 2; stroke-linecap: round; stroke-linejoin: round;" d="m 542.98047,-351.00977 a 1.0001,1.0001 0 0 0 -0.6875,0.30274 l -3,3 a 1.0001,1.0001 0 1 0 1.41406,1.41406 l 3,-3 a 1.0001,1.0001 0 0 0 -0.72656,-1.7168 z" id="path10384-1"></path>
  </g>
</svg>