<svg xmlns="http://www.w3.org/2000/svg" style="background: #808080" height="64" width="64" viewBox="66 281 20 20">
  <g id="g10528" transform="translate(-21,384)" style="" data-label="N-4">
    <g style="opacity: 0.7;" id="g10520" transform="translate(46,-388)">
      <path id="path10518" d="m 50.492188,287.99219 a 0.50005,0.50005 0 0 0 -0.388672,0.19531 0.50005,0.50005 0 0 0 -0.0039,0.006 l -1.953125,1.95312 a 0.50005,0.50005 0 1 0 0.707032,0.70704 L 50,289.70703 V 295.5 a 0.50005,0.50005 0 0 0 0.5,0.5 h 5.792969 l -1.146485,1.14648 a 0.50005,0.50005 0 1 0 0.707032,0.70704 l 1.957031,-1.95704 a 0.50005,0.50005 0 0 0 0.002,-0.79296 0.50005,0.50005 0 0 0 -0.0059,-0.004 l -1.953125,-1.95313 a 0.50005,0.50005 0 1 0 -0.707032,0.70704 L 56.292969,295 H 51 v -5.29297 l 1.146484,1.14649 a 0.50005,0.50005 0 1 0 0.707032,-0.70704 l -1.957032,-1.95703 a 0.50005,0.50005 0 0 0 -0.404296,-0.19726 z" style="color: rgb(0, 0, 0); fill: #ffffff; stroke-linecap: round; stroke-linejoin: round;"></path>
    </g>
    <g transform="translate(42,-384)" id="g10526" style="">
      <path id="path10524" d="m 50.492188,287.99219 a 0.50005,0.50005 0 0 0 -0.388672,0.19531 0.50005,0.50005 0 0 0 -0.0039,0.006 l -1.953125,1.95312 a 0.50005,0.50005 0 1 0 0.707032,0.70704 L 50,289.70703 V 295.5 a 0.50005,0.50005 0 0 0 0.5,0.5 h 5.792969 l -1.146485,1.14648 a 0.50005,0.50005 0 1 0 0.707032,0.70704 l 1.957031,-1.95704 a 0.50005,0.50005 0 0 0 0.002,-0.79296 0.50005,0.50005 0 0 0 -0.0059,-0.004 l -1.953125,-1.95313 a 0.50005,0.50005 0 1 0 -0.707032,0.70704 L 56.292969,295 H 51 v -5.29297 l 1.146484,1.14649 a 0.50005,0.50005 0 1 0 0.707032,-0.70704 l -1.957032,-1.95703 a 0.50005,0.50005 0 0 0 -0.404296,-0.19726 z" style="color: rgb(0, 0, 0); fill: #ffffff; stroke-linecap: round; stroke-linejoin: round;"></path>
    </g>
  </g>
</svg>