<svg xmlns="http://www.w3.org/2000/svg" style="background: #808080" height="64" width="64" viewBox="87 281 20 20">
  <g id="g63797" data-label="N-5">
    <g transform="translate(-18,356)" id="g10514" style="opacity: 0.7; fill: none; stroke: #ffffff; stroke-linecap: round;" data-label="g10514">
      <path id="path10510" transform="translate(18,-356)" d="m 95.398438,282.97461 a 0.50004994,0.50004994 0 0 0 -0.05078,0.002 0.50004994,0.50004994 0 0 0 -0.367187,0.20313 c -1.08755,1.44512 -1.289758,3.38123 -0.523438,5.02148 0.76632,1.64025 2.376885,2.71907 4.177735,2.79492 1.781962,0.0751 3.458632,-0.84789 4.365232,-2.38867 V 290.5 a 0.50004997,0.50004997 0 1 0 1,0 v -3 a 0.50004997,0.50004997 0 0 0 -0.5,-0.5 h -3 a 0.50004997,0.50004997 0 1 0 0,1 h 1.70312 a 0.50004994,0.50004994 0 0 0 -0.0391,0.0645 c -0.71624,1.25031 -2.05833,1.99179 -3.486324,1.93164 -1.42799,-0.0601 -2.704083,-0.91231 -3.314453,-2.21875 -0.61036,-1.30644 -0.449354,-2.8462 0.416016,-3.99609 A 0.50004994,0.50004994 0 0 0 95.3984,282.97466 Z" style="color: rgb(0, 0, 0); fill: #ffffff; stroke-linecap: round; stroke-linejoin: round;"></path>
    </g>
    <g style="" id="g10508" transform="translate(-21,467)">
      <path id="path10504" transform="translate(21,-467)" d="m 91.347656,288.96484 a 0.51005099,0.51005099 0 0 0 -0.376953,0.20899 c -1.08977,1.44807 -1.289364,3.38767 -0.521484,5.03125 0.76787,1.64358 2.380967,2.72477 4.185547,2.80078 1.781016,0.075 3.455174,-0.8442 4.365234,-2.38086 v 1.875 a 0.50005,0.50005 0 1 0 1,0 v -3 A 0.50005,0.50005 0 0 0 99.5,293 h -3 a 0.50005,0.50005 0 1 0 0,1 h 1.693359 a 0.51006897,0.51006897 0 0 0 -0.03906,0.0586 c -0.71442,1.24711 -2.052293,1.98773 -3.476563,1.92774 -1.42426,-0.06 -2.695887,-0.90979 -3.304687,-2.21289 -0.60881,-1.3031 -0.449088,-2.83939 0.414062,-3.98633 a 0.51005099,0.51005099 0 0 0 -0.388671,-0.82227 0.51005099,0.51005099 0 0 0 -0.05078,0 z" style="color: rgb(0, 0, 0); fill: #ffffff; stroke-linecap: round; stroke-linejoin: round;"></path>
    </g>
  </g>
</svg>