<svg xmlns="http://www.w3.org/2000/svg" style="background: #808080" height="64" width="64" viewBox="108 281 20 20">
  <g transform="translate(-25,619)" id="g10474" style="" data-label="N-6">
    <path id="path10468" d="m 137.5,-326 c -0.27613,3e-5 -0.49997,0.22387 -0.5,0.5 v 3 c 3e-5,0.27613 0.22387,0.49997 0.5,0.5 h 3 c 0.27613,-3e-5 0.49997,-0.22387 0.5,-0.5 v -3 c -3e-5,-0.27613 -0.22387,-0.49997 -0.5,-0.5 z" style="color: rgb(0, 0, 0); fill: #ffffff; stroke-linecap: round; stroke-linejoin: round;"></path>
    <path id="path10470" d="m 137.52148,-331 a 0.50005,0.50005 0 0 0 -0.5,0.49609 l -0.0215,3.5 1,0.008 0.0176,-3.00391 H 145 v 7 h -3 v 1 h 3.5 a 0.50005,0.50005 0 0 0 0.5,-0.5 v -8 a 0.50005,0.50005 0 0 0 -0.5,-0.5 z" style="color: rgb(0, 0, 0); opacity: 0.8; fill: #ffffff; stroke-linejoin: round;"></path>
    <path id="path10472" d="m 141.52148,-335 a 0.50005,0.50005 0 0 0 -0.5,0.49609 l -0.0215,2.5 1,0.008 0.0176,-2.00391 H 149 v 7 h -2 v 1 h 2.5 a 0.50005,0.50005 0 0 0 0.5,-0.5 v -8 a 0.50005,0.50005 0 0 0 -0.5,-0.5 z" style="color: rgb(0, 0, 0); opacity: 0.6; fill: #ffffff; stroke-linejoin: round;"></path>
  </g>
</svg>