<svg xmlns="http://www.w3.org/2000/svg" style="background: #808080" height="64" width="64" viewBox="129 281 20 20">
  <g id="g10502" transform="rotate(180,170.503,427.501)" style="" data-label="N-7">
    <path id="path10492" transform="rotate(180,170.503,427.501)" d="m 138.61719,286.00781 a 0.60006002,0.60006002 0 0 0 -0.47657,0.99024 l 1.61133,2.01953 a 1.5007322,1.5007322 0 0 1 1.2461,1.5625 l 0.92773,1.16211 a 0.60006002,0.60006002 0 0 0 0.4668,0.23242 0.60006002,0.60006002 0 0 0 0.4707,-0.98047 l -1.58789,-1.99023 1.58984,-2.00782 a 0.60006002,0.60006002 0 1 0 -0.9414,-0.74414 l -1.41602,1.78907 -1.42969,-1.79102 a 0.60006002,0.60006002 0 0 0 -0.46093,-0.24219 z" style="color: rgb(0, 0, 0); opacity: 0.7; fill: #ffffff; stroke-width: 1.2; stroke-linecap: round;"></path>
    <path id="path10496" d="m 201.60938,559.02148 a 0.60006002,0.60006002 0 0 0 -0.47071,0.98243 l 1.59766,2.00195 -1.59766,2.00195 a 0.6002929,0.6002929 0 1 0 0.9375,0.75 l 1.42774,-1.78906 1.42773,1.78906 a 0.6002929,0.6002929 0 1 0 0.9375,-0.75 l -1.59766,-2.00195 1.59766,-2.00195 a 0.6002929,0.6002929 0 1 0 -0.9375,-0.75 l -1.42773,1.78906 -1.42774,-1.78906 a 0.60006002,0.60006002 0 0 0 -0.46679,-0.23243 z" style="color: rgb(0, 0, 0); fill: #ffffff; stroke-width: 1.2; stroke-linecap: round;"></path>
    <path id="path10498" d="m 196.50391,561 a 0.50004997,0.50004997 0 0 0 -0.22657,0.0547 c 0,0 -0.3567,0.1843 -0.66796,0.57226 C 195.29811,562.01491 195,562.63889 195,563.5 v 5 c 0,0.86111 0.29839,1.4864 0.60938,1.875 0.31098,0.3886 0.66796,0.57227 0.66796,0.57227 a 0.50004997,0.50004997 0 1 0 0.44532,-0.89454 c 0,0 -0.14302,-0.0665 -0.33204,-0.30273 C 196.20161,569.5138 196,569.13889 196,568.5 v -5 c 0,-0.63889 0.20189,-1.01282 0.39062,-1.24805 0.18874,-0.23523 0.33204,-0.30078 0.33204,-0.30078 A 0.50004997,0.50004997 0 0 0 196.50391,561 Z" style="color: rgb(0, 0, 0); opacity: 0.7; fill: #ffffff; stroke-width: 1px; stroke-linecap: round;"></path>
    <path id="path10500" d="m 207.48828,557 a 0.50004997,0.50004997 0 0 0 -0.20508,0.95117 c 0,0 0.14526,0.0655 0.33399,0.30078 0.18873,0.23523 0.38867,0.60916 0.38867,1.24805 v 5 c 0,0.63889 -0.20161,1.0138 -0.39063,1.25 -0.18901,0.2362 -0.33203,0.30273 -0.33203,0.30273 a 0.50006306,0.50006306 0 1 0 0.44727,0.89454 c 0,0 0.35503,-0.18367 0.66601,-0.57227 0.31099,-0.3886 0.60938,-1.01389 0.60938,-1.875 v -5 c 0,-0.86111 -0.29811,-1.48509 -0.60938,-1.87305 -0.31127,-0.38796 -0.66796,-0.57226 -0.66796,-0.57226 A 0.50004997,0.50004997 0 0 0 207.48828,557 Z" style="color: rgb(0, 0, 0); fill: #ffffff; stroke-width: 1px; stroke-linecap: round;"></path>
  </g>
</svg>