<svg xmlns="http://www.w3.org/2000/svg" height="64" width="64" viewBox="150 281 20 20">
  <g id="g128044" style="" data-label="N-8">
    <path id="path10484" style="fill: #ffffff; stroke-linecap: round; stroke-linejoin: round;" d="m 167,289 v -2 h -1 v 2 z m 0,-3 v -2 h -1 v 2 z m 0,12 v -2 h -1 v 2 z m 0,-3 v -2 h -1 v 2 z m 0,-3 v -2 h -1 v 2 z"></path>
    <path id="path10490" d="m 160.5,285.99023 a 0.50005,0.50005 0 0 0 -0.34766,0.85743 l 1.14649,1.14648 -6.29297,6.29297 -1.14648,-1.14649 a 0.50005,0.50005 0 1 0 -0.70704,0.70704 l 3,3 a 0.50005,0.50005 0 1 0 0.70704,-0.70704 l -1.14649,-1.14648 6.29297,-6.29297 1.14648,1.14649 a 0.50005,0.50005 0 1 0 0.70704,-0.70704 l -3,-3 A 0.50005,0.50005 0 0 0 160.5,285.99023 Z" style="color: rgb(0, 0, 0); opacity: 0.85; fill: #ffffff; stroke-width: 1px; stroke-linecap: round;"></path>
  </g>
</svg>