<svg xmlns="http://www.w3.org/2000/svg" style="background: #808080" height="64" width="64" viewBox="163 268 20 20">
  <g transform="translate(125,-1)" id="g10480" style="opacity: 0.8;" data-label="N-9">
    <path id="path10478" d="m 51.492188,285.99219 a 0.50005,0.50005 0 0 0 -0.388672,0.19531 0.50005,0.50005 0 0 0 -0.0039,0.006 l -1.953125,1.95312 a 0.50005,0.50005 0 1 0 0.707032,0.70704 L 51,287.70703 V 295.5 a 0.50005,0.50005 0 0 0 0.5,0.5 h 7.792969 l -1.146485,1.14648 a 0.50005,0.50005 0 1 0 0.707032,0.70704 l 1.957031,-1.95704 a 0.50005,0.50005 0 0 0 0.002,-0.79296 0.50005,0.50005 0 0 0 -0.0059,-0.004 l -1.953125,-1.95313 a 0.50005,0.50005 0 1 0 -0.707032,0.70704 L 59.292969,295 H 52 v -7.29297 l 1.146484,1.14649 a 0.50005,0.50005 0 1 0 0.707032,-0.70704 l -1.957032,-1.95703 a 0.50005,0.50005 0 0 0 -0.404296,-0.19726 z" style="color: rgb(0, 0, 0); fill: #ffffff; stroke-linecap: round; stroke-linejoin: round; marker: none;"></path>
    <path d="m 63,290 v -2 h -1 v 2 z m 0,-3 v -2 h -1 v 2 z m 0,12 v -2 h -1 v 2 z m 0,-3 v -2 h -1 v 2 z m 0,-3 v -2 h -1 v 2 z" style="fill: #ffffff; stroke-linecap: round; stroke-linejoin: round; marker: none;" id="path10486"></path>
  </g>
</svg>