<svg xmlns="http://www.w3.org/2000/svg" height="64" width="64" viewBox="3 302 20 20">
  <g id="g120713" style="" data-label="O-1">
    <path style="color: rgb(0, 0, 0); fill: #ffffff; stroke-linecap: round;" d="m 6.5,306 a 0.50005,0.50005 0 1 0 0,1 h 12.992188 a 0.50005,0.50005 0 1 0 0,-1 z m 0,3 a 0.50005,0.50005 0 1 0 0,1 h 5.992188 a 0.50005,0.50005 0 1 0 0,-1 z m 0,3 a 0.50005,0.50005 0 1 0 0,1 h 12.992188 a 0.50005,0.50005 0 1 0 0,-1 z m 0,3 a 0.50005,0.50005 0 1 0 0,1 h 5.992188 a 0.50005,0.50005 0 1 0 0,-1 z m 0,3 a 0.50005,0.50005 0 1 0 0,1 h 12.992188 a 0.50005,0.50005 0 1 0 0,-1 z" id="path10856"></path>
  </g>
</svg>