<svg xmlns="http://www.w3.org/2000/svg" style="background: #808080" height="64" width="64" viewBox="183 288 20 20">
  <g id="g120716" style="" data-label="O-10">
    <path style="color: rgb(0, 0, 0); fill: #ffffff; stroke-linecap: round; stroke-linejoin: round;" d="m 201.49219,305 a 0.50005,0.50005 0 1 0 0,1 h 2.5039 l -0.002,0.14258 -4.95898,11.4082 a 0.50005,0.50005 0 0 0 -0.041,0.21289 L 199,318 h -2.50781 a 0.50005,0.50005 0 1 0 0,1 h 6 a 0.50005,0.50005 0 1 0 0,-1 H 200 a 0.50005,0.50005 0 0 0 0,-0.0137 l -0.004,-0.13867 4.95508,-11.39844 a 0.50005,0.50005 0 0 0 0.041,-0.19141 L 204.99609,306 h 2.4961 a 0.50005,0.50005 0 1 0 0,-1 z" id="path10892"></path>
  </g>
</svg>