<svg xmlns="http://www.w3.org/2000/svg" style="background: #808080" height="64" width="64" viewBox="213 302 20 20">
  <g id="g120719" style="" data-label="O-11">
    <path style="color: rgb(0, 0, 0); fill: #ffffff; stroke-linecap: round; stroke-linejoin: round;" d="m 216.49219,305 a 0.50005,0.50005 0 1 0 0,1 H 218 v 6.00391 c 0,2.19985 1.79782,3.99206 4,3.99609 h 1 a 0.50005,0.50005 0 0 0 0.002,0 c 2.20199,-0.005 3.998,-1.79624 3.998,-3.99609 V 306 h 1.49219 a 0.50005,0.50005 0 1 0 0,-1 h -4 a 0.50005,0.50005 0 1 0 0,1 H 226 v 6.00391 c 0,1.65832 -1.33799,2.99265 -3.00195,2.99609 H 222 c -1.66382,-0.003 -3,-1.33777 -3,-2.99609 V 306 h 1.49219 a 0.50005,0.50005 0 1 0 0,-1 z m 1,13 a 0.50005,0.50005 0 1 0 0,1 h 10 a 0.50005,0.50005 0 1 0 0,-1 z" id="path10901"></path>
  </g>
</svg>