<svg xmlns="http://www.w3.org/2000/svg" style="background: #808080" height="64" width="64" viewBox="234 302 20 20">
  <g id="g6603" style="fill: #ffffff;" data-label="O-12">
    <path style="color: rgb(0, 0, 0); fill: #ffffff; stroke-width: 1px; stroke-linejoin: round;" d="m 237.49219,305 a 0.50005,0.50005 0 0 0 -0.5,0.5 v 2 a 0.50005,0.50005 0 1 0 1,0 V 306 h 3 v 12 h -1.5 a 0.50005,0.50005 0 1 0 0,1 h 4 a 0.50005,0.50005 0 1 0 0,-1 h -1.5 v -12 h 3 v 1.5 a 0.50005,0.50005 0 1 0 1,0 v -2 a 0.50005,0.50005 0 0 0 -0.5,-0.5 z m 7,6 a 0.50005,0.50005 0 0 0 -0.5,0.5 v 1 a 0.50005,0.50005 0 1 0 1,0 V 312 h 2 v 6 h -0.5 a 0.50005,0.50005 0 1 0 0,1 h 2 a 0.50005,0.50005 0 1 0 0,-1 h -0.5 v -6 h 2 v 0.5 a 0.50005,0.50005 0 1 0 1,0 v -1 a 0.50005,0.50005 0 0 0 -0.5,-0.5 z" id="path6924-7"></path>
  </g>
</svg>