<svg xmlns="http://www.w3.org/2000/svg" style="background: #808080" height="64" width="64" viewBox="283 288 20 20">
  <g style="" id="g28812" transform="rotate(180,328,312.5)" data-label="O-15">
    <path style="color: rgb(0, 0, 0); fill: #ffffff; stroke-width: 1px; stroke-linecap: round; stroke-linejoin: round;" d="m 319.49219,315 a 0.50005,0.50005 0 0 0 -0.34571,0.14648 l -4,4 a 0.50005,0.50005 0 0 0 0,0.70704 l 4,4 a 0.50005,0.50005 0 0 0 0.36133,0.14648 0.50005,0.50005 0 0 0 0.34571,-0.14648 l 4,-4 a 0.50005,0.50005 0 0 0 0,-0.70704 l -0.18164,-0.18164 -3.81836,-3.81836 A 0.50005,0.50005 0 0 0 319.49219,315 Z M 319.5,316.20703 322.79297,319.5 319.5,322.79297 316.20703,319.5 Z M 311,319 v 1 h 1 v -1 z m 2,0 v 1 h 1 v -1 z m 0.5,4 c -0.12794,0 -0.25588,0.0489 -0.35352,0.14648 l -3,3 c -0.19519,0.19527 -0.19519,0.51177 0,0.70704 l 3,3 c 0.0957,0.0957 0.22603,0.14855 0.36133,0.14648 0.12989,-0.002 0.25387,-0.0546 0.34571,-0.14648 l 3,-3 c 0.19519,-0.19527 0.19519,-0.51177 0,-0.70704 l -3,-3 C 313.75588,323.04889 313.62794,323 313.5,323 Z m 4.5,3 v 1 h 1 v -1 z m 2,0 v 1 h 1 v -1 z m 2,0 v 1 h 1 v -1 z" transform="rotate(180,333,317.5)" id="path28715"></path>
  </g>
</svg>