<svg xmlns="http://www.w3.org/2000/svg" style="background: #808080" height="64" width="64" viewBox="360 302 20 20">
  <g id="g24638" style="" data-label="O-18">
    <path style="color: rgb(0, 0, 0); fill: none; stroke: #ffffff; stroke-linecap: round; stroke-linejoin: round;" d="m 374.12695,305.31445 c -1.10721,0 -1.93616,0.24199 -2.97851,0.63086 -1.04236,0.38888 -2.18224,0.95849 -3.30078,1.77735 -2.2371,1.63771 -4.46485,4.54533 -4.46485,8.40625 a 3.0581999,3.0581999 0 0 0 3.0586,3.05859 3.0581999,3.0581999 0 0 0 3.05859,-3.05859 c 0,-1.63187 0.77567,-2.603 1.96094,-3.47071 0.59263,-0.43385 1.26841,-0.77311 1.82422,-0.98047 0.5558,-0.20735 1.10962,-0.24804 0.84179,-0.24804 a 3.0581999,3.0581999 0 0 0 3.05664,-3.0586 3.0581999,3.0581999 0 0 0 -3.05664,-3.05664 z" id="path6454-6"></path>
    <path style="opacity: 0.5; fill: none; stroke: #ffffff; stroke-linecap: round;" d="m 366.4419,316.12916 c 0,-5.49278 6.00534,-7.75723 7.68412,-7.75723" id="path15424"></path>
  </g>
</svg>