<svg xmlns="http://www.w3.org/2000/svg" height="64" width="64" viewBox="24 302 20 20">
  <g id="g120710" style="" data-label="O-2">
    <path style="fill: #ffffff; stroke-linecap: round;" d="m 27.492188,306 a 0.50005,0.50005 0 1 0 0,1 h 12.99414 a 0.50005,0.50005 0 1 0 0,-1 z m 4,3 a 0.50005,0.50005 0 1 0 0,1 h 4.99414 a 0.50005,0.50005 0 1 0 0,-1 z m -4,3 a 0.50005,0.50005 0 1 0 0,1 h 12.99414 a 0.50005,0.50005 0 1 0 0,-1 z m 4,3 a 0.50005,0.50005 0 1 0 0,1 h 4.99414 a 0.50005,0.50005 0 1 0 0,-1 z m -4,3 a 0.50005,0.50005 0 1 0 0,1 h 12.99414 a 0.50005,0.50005 0 1 0 0,-1 z" id="path10854"></path>
  </g>
</svg>