<svg xmlns="http://www.w3.org/2000/svg" style="background: #808080" height="64" width="64" viewBox="383 288 20 20">
  <g id="g3380" style="" data-label="O-20">
    <path d="m 417.92349,304.73964 c -0.7818,-0.0644 -0.86293,1.09626 -0.0796,1.1383 l 0.41758,0.0202 c 0.78182,0.0644 0.86296,-1.09626 0.0796,-1.13831 z m -7.87437,1.29265 c -0.65325,0.42724 0.0163,1.38626 0.65667,0.94062 l 0.34001,-0.23929 c 0.65327,-0.42727 -0.0163,-1.38631 -0.65662,-0.94061 z m 5.26412,-0.10772 c 0.785,-0.0185 0.73895,-1.18175 -0.0451,-1.14009 -0.6811,-0.0652 -1.43225,-0.0213 -2.22341,0.0851 -0.785,0.0185 -0.73896,1.18176 0.0451,1.14011 0.8585,-0.10954 1.60282,-0.14009 2.22342,-0.0852 z m -5.74172,5.34858 c -0.17789,-0.75187 -1.32618,-0.47161 -1.12597,0.27482 -0.008,0.72815 0.18352,1.43475 0.53595,2.12392 0.17789,0.75187 1.32617,0.47159 1.12598,-0.27483 -0.40688,-0.70818 -0.47775,-1.41605 -0.53596,-2.12391 z m 1.14987,4.81425 c 0.55238,0.5479 1.3799,-0.2833 0.81165,-0.81524 l -0.30437,-0.28193 c -0.55238,-0.54789 -1.37991,0.2833 -0.81163,0.81524 z m 2.55883,0.11471 c -0.78112,0.0716 -0.65484,1.22767 0.12391,1.13446 0.79706,0.0708 1.5429,0.0136 2.2124,-0.23372 0.7811,-0.0716 0.65482,-1.22768 -0.12391,-1.13445 -0.66955,0.35373 -1.42049,0.37687 -2.2124,0.23371 z m 4.35036,-1.24066 c 0.39775,-0.66505 -0.63058,-1.23994 -1.00859,-0.56384 l -0.19953,0.36135 c -0.39776,0.66506 0.63057,1.23995 1.00857,0.56383 z m -1.53457,-4.82813 c -0.44444,-0.63566 -1.409,0.0364 -0.94666,0.65956 0.53116,0.53126 0.99257,1.10609 1.28624,1.78569 0.44445,0.63565 1.40902,-0.0364 0.94667,-0.65956 -0.24301,-0.74231 -0.69323,-1.32054 -1.28625,-1.78569 z m -2.73483,-1.49223 c -0.72218,-0.30138 -1.16808,0.7761 -0.43732,1.05681 l 0.39025,0.14758 c 0.7222,0.30141 1.1681,-0.7761 0.43732,-1.0568 z m -7.60223,1.91562 c -0.52109,0.57678 0.37464,1.33651 0.87855,0.74515 l 0.26685,-0.31654 c 0.52111,-0.57679 -0.37465,-1.33654 -0.87854,-0.74516 z m 1.15912,7.09355 c -0.1906,-0.74845 -1.33363,-0.44917 -1.12109,0.29354 l 0.11543,0.39523 c 0.19062,0.74845 1.33365,0.44917 1.12109,-0.29354 z m -0.68592,-4.36328 c -0.0858,-0.76698 -1.25912,-0.62352 -1.15127,0.14077 -0.065,0.75431 -0.008,1.50847 0.28594,2.26232 0.0859,0.76696 1.25912,0.62352 1.15129,-0.14076 -0.28468,-0.81162 -0.29126,-1.53878 -0.28596,-2.26233 z m 1.97398,-4.7241 c -0.77314,0.13162 -0.55483,1.27463 0.21417,1.12135 0.7762,-0.30633 1.5005,-0.42412 2.18687,-0.40397 0.77313,-0.13163 0.55482,-1.27462 -0.21418,-1.12137 -0.74152,0.0229 -1.4733,0.13255 -2.18686,0.40399 z" style="color: rgb(0, 0, 0); fill: #ffffff; stroke-width: 1.15052; stroke-linecap: round; stroke-dashoffset: 2.2;" id="path4101-2-6-9-1_GP_dotdash"></path>
  </g>
</svg>