<svg xmlns="http://www.w3.org/2000/svg" style="background: #808080" height="64" width="64" viewBox="423 302 20 20">
  <g transform="translate(230.768,210.171)" style="" id="g4087_GP_lineart" data-label="O-21">
    <g id="g4082">
      <path id="path12456-6" mask="none" d="m 198.0253,98.27163 v 1.5 h 1 v -1.5 z m 0,2.5 v 2 h 1 v -2 z m 0,3 v 1.2793 l -2.58594,2.35156 0.67188,0.73828 2.60351,-2.36719 0.49027,-0.002 c 0.82475,0 0.82408,-1 0,-1 h -0.17972 v -1 z" style="color: rgb(0, 0, 0); opacity: 0.6; fill: #ffffff; fill-rule: evenodd; stroke-width: 1px; stroke-linecap: square; stroke-linejoin: round;"></path>
      <path id="path4185" style="color: rgb(0, 0, 0); fill: #ffffff; fill-rule: evenodd; stroke-width: 1.10423; stroke-linecap: round; stroke-linejoin: round;" d="m 207.2397,99.568306 c -0.33768,-0.02992 -0.70751,0.105959 -1.01625,0.406518 l -0.51139,0.495896 c -0.13287,0.12942 -0.13287,0.34092 0,0.47035 l 2.04339,1.98784 c 0.13292,0.12938 0.3479,0.12938 0.48082,0 l 0.50922,-0.49802 c 0.3087,-0.30067 0.44811,-0.65869 0.41741,-0.98755 -0.0307,-0.32884 -0.20718,-0.60186 -0.41741,-0.80663 l -0.67969,-0.661886 c -0.21026,-0.204768 -0.48842,-0.37662 -0.8261,-0.406518 z m -2.31222,1.800554 c -0.0883,9.4e-4 -0.17353,0.0367 -0.23603,0.0979 l -4.25293,4.14168 c -0.0434,0.0426 -0.0749,0.095 -0.0896,0.15324 l -0.67969,2.65189 c -0.0614,0.24217 0.16235,0.46285 0.41088,0.40225 l 2.72308,-0.66402 c 0.0599,-0.0144 0.11363,-0.0428 0.15735,-0.0851 l 4.2551,-4.14382 c 0.13286,-0.12943 0.13286,-0.33881 0,-0.46825 l -2.0434,-1.98784 c -0.0651,-0.0634 -0.15267,-0.0994 -0.24478,-0.0979 z"></path>
      <path id="path12458-7" style="color: rgb(0, 0, 0); fill: #ffffff; fill-rule: evenodd; stroke-linecap: round; stroke-linejoin: round;" d="m 198.52539,94.771484 c -0.1326,2.7e-5 -0.25978,0.05272 -0.35351,0.146485 l -3,3 c -0.0938,0.09376 -0.14646,0.220915 -0.14649,0.353515 v 9.999996 c 3e-5,0.27613 0.22387,0.49997 0.5,0.5 h 2.50158 c 0.72806,0 0.76638,-1.01916 0,-1 h -2.00158 v -8.999996 h 9 v 0.186392 c 0,0.766385 1,0.767345 1,0 v -0.47936 l 2,-2 v 0.907841 c 0,0.708905 1,0.709935 1,0 v -2.114873 c -3e-5,-0.276131 -0.22387,-0.499972 -0.5,-0.5 z m 0.20703,1 h 8.58594 l -2,2 h -8.58594 z"></path>
    </g>
  </g>
</svg>