<svg xmlns="http://www.w3.org/2000/svg" style="background: #808080" height="64" width="64" viewBox="483 288 20 20">
  <g id="g120749" style="" data-label="O-25">
    <path style="color: rgb(0, 0, 0); opacity: 0.6; fill: #ffffff; stroke-linecap: round; stroke-linejoin: round;" d="m 520.51395,306 a 0.50005,0.50005 0 0 0 -0.23633,0.0527 l -4,2 a 0.50005,0.50005 0 1 0 0.44532,0.89454 l 2.8164,-1.40821 -4.20508,8.1875 -4.52148,-3.61718 a 0.50024018,0.50024018 0 1 0 -0.625,0.78124 l 5,4 a 0.50005,0.50005 0 0 0 0.75781,-0.1621 l 4.4375,-8.64063 0.63281,2.5332 a 0.50005,0.50005 0 1 0 0.96876,-0.24218 l -1,-4 A 0.50005,0.50005 0 0 0 520.51395,306 Z" id="path25488-0"></path>
  </g>
</svg>