<svg xmlns="http://www.w3.org/2000/svg" style="background: #808080" height="64" width="64" viewBox="45 302 20 20">
  <g id="g120707" style="" data-label="O-3">
    <path style="color: rgb(0, 0, 0); fill: #ffffff; stroke-linecap: round;" d="m 48.492188,306 a 0.50005,0.50005 0 1 0 0,1 h 12.99414 a 0.50005,0.50005 0 1 0 0,-1 z m 7,3 a 0.50005,0.50005 0 1 0 0,1 h 5.99414 a 0.50005,0.50005 0 1 0 0,-1 z m -7,3 a 0.50005,0.50005 0 1 0 0,1 h 12.99414 a 0.50005,0.50005 0 1 0 0,-1 z m 7,3 a 0.50005,0.50005 0 1 0 0,1 h 5.99414 a 0.50005,0.50005 0 1 0 0,-1 z m -7,3 a 0.50005,0.50005 0 1 0 0,1 h 12.99414 a 0.50005,0.50005 0 1 0 0,-1 z" id="path10852"></path>
  </g>
</svg>