<svg xmlns="http://www.w3.org/2000/svg" height="64" width="64" viewBox="66 302 20 20">
  <g id="g120704" style="" data-label="O-4">
    <path style="fill: #ffffff; stroke-linecap: round;" d="m 69.492188,306 a 0.50005,0.50005 0 1 0 0,1 h 12.99414 a 0.50005,0.50005 0 1 0 0,-1 z m 0,3 a 0.50005,0.50005 0 1 0 0,1 h 12.99414 a 0.50005,0.50005 0 1 0 0,-1 z m 0,3 a 0.50005,0.50005 0 1 0 0,1 h 12.99414 a 0.50005,0.50005 0 1 0 0,-1 z m 0,3 a 0.50005,0.50005 0 1 0 0,1 h 12.99414 a 0.50005,0.50005 0 1 0 0,-1 z m 0,3 a 0.50005,0.50005 0 1 0 0,1 h 12.99414 a 0.50005,0.50005 0 1 0 0,-1 z" id="path10850"></path>
  </g>
</svg>