<svg xmlns="http://www.w3.org/2000/svg" style="background: #808080" height="64" width="64" viewBox="87 302 20 20">
  <g transform="translate(-462.007,-315)" id="g10872" style="fill: #ffffff;" data-label="O-5">
    <path style="color: rgb(0, 0, 0); fill: #ffffff; stroke-linecap: round; stroke-dashoffset: 2.2;" d="m 552.5,621 a 0.50005,0.50005 0 1 0 0,1 h 1.99219 a 0.50005,0.50005 0 1 0 0,-1 z m 4.02344,0 a 0.50005,0.50005 0 1 0 0,1 h 1.91601 a 0.50005,0.50005 0 1 0 0,-1 z m 3.9707,0 a 0.50005,0.50005 0 1 0 0,1 h 1.99805 a 0.50005,0.50005 0 1 0 0,-1 z m 3.99805,0 a 0.50005,0.50005 0 1 0 0,1 h 1 a 0.50005,0.50005 0 1 0 0,-1 z M 552.5,624 a 0.50005,0.50005 0 1 0 0,1 h 1 a 0.50005,0.50005 0 1 0 0,-1 z m 3,0 a 0.50005,0.50005 0 1 0 0,1 h 1.99805 a 0.50005,0.50005 0 1 0 0,-1 z m 4.05273,0 a 0.50005,0.50005 0 1 0 0,1 h 1.91797 a 0.50005,0.50005 0 1 0 0,-1 z m 3.94727,0 a 0.50005,0.50005 0 1 0 0,1 h 1.99219 a 0.50005,0.50005 0 1 0 0,-1 z m -11,3 a 0.50005,0.50005 0 1 0 0,1 h 1.99219 a 0.50005,0.50005 0 1 0 0,-1 z m 4.02344,0 a 0.50005,0.50005 0 1 0 0,1 h 1.91601 a 0.50005,0.50005 0 1 0 0,-1 z m 3.9707,0 a 0.50005,0.50005 0 1 0 0,1 h 1.99805 a 0.50005,0.50005 0 1 0 0,-1 z m 3.99805,0 a 0.50005,0.50005 0 1 0 0,1 h 1 a 0.50005,0.50005 0 1 0 0,-1 z M 552.5,630 a 0.50005,0.50005 0 1 0 0,1 h 1 a 0.50005,0.50005 0 1 0 0,-1 z m 3,0 a 0.50005,0.50005 0 1 0 0,1 h 1.99805 a 0.50005,0.50005 0 1 0 0,-1 z m 4.05273,0 a 0.50005,0.50005 0 1 0 0,1 h 1.91797 a 0.50005,0.50005 0 1 0 0,-1 z m 3.94727,0 a 0.50005,0.50005 0 1 0 0,1 h 1.99219 a 0.50005,0.50005 0 1 0 0,-1 z m -11,3 a 0.50005,0.50005 0 1 0 0,1 h 1.99219 a 0.50005,0.50005 0 1 0 0,-1 z m 4.02344,0 a 0.50005,0.50005 0 1 0 0,1 h 1.91601 a 0.50005,0.50005 0 1 0 0,-1 z m 3.9707,0 a 0.50005,0.50005 0 1 0 0,1 h 1.99805 a 0.50005,0.50005 0 1 0 0,-1 z m 3.99805,0 a 0.50005,0.50005 0 1 0 0,1 h 1 a 0.50005,0.50005 0 1 0 0,-1 z" id="path10870"></path>
  </g>
</svg>