<svg xmlns="http://www.w3.org/2000/svg" style="background: #808080" height="64" width="64" viewBox="129 302 20 20">
  <g id="g60283" data-label="O-7">
    <g id="g120731" style="">
      <path style="color: rgb(0, 0, 0); fill: #ffffff; stroke-linecap: round;" d="m 134.49219,310 a 0.50005,0.50005 0 1 0 0,1 h 8.99414 a 0.50005,0.50005 0 1 0 0,-1 z m 0,2 a 0.50005,0.50005 0 1 0 0,1 h 8.99414 a 0.50005,0.50005 0 1 0 0,-1 z" id="path11048"></path>
    </g>
    <g id="g120728" style="">
      <path style="color: rgb(0, 0, 0); opacity: 0.6; fill: #ffffff; stroke-linecap: round; stroke-linejoin: round;" d="m 132.5,305 a 0.50004997,0.50004997 0 0 0 -0.5,0.5 v 13 a 0.50004997,0.50004997 0 0 0 0.5,0.5 h 13 a 0.50004997,0.50004997 0 0 0 0.5,-0.5 v -13 a 0.50004997,0.50004997 0 0 0 -0.5,-0.5 z m 0.5,1 h 12 v 12 h -12 z" id="rect11046"></path>
    </g>
  </g>
</svg>