<svg xmlns="http://www.w3.org/2000/svg" style="background: #808080" height="64" width="64" viewBox="150 302 20 20">
  <g id="g60277" data-label="O-8">
    <g id="g120737" style="">
      <path style="color: rgb(0, 0, 0); fill: #ffffff; stroke-linecap: round;" d="m 155.49219,314 a 0.50005,0.50005 0 1 0 0,1 h 8.99414 a 0.50005,0.50005 0 1 0 0,-1 z m 0,2 a 0.50005,0.50005 0 1 0 0,1 h 8.99414 a 0.50005,0.50005 0 1 0 0,-1 z" id="path11052"></path>
    </g>
    <g id="g120734" style="">
      <path style="color: rgb(0, 0, 0); opacity: 0.6; fill: #ffffff; stroke-linecap: round; stroke-linejoin: round;" d="m 153.5,305 a 0.50004997,0.50004997 0 0 0 -0.5,0.5 v 13 a 0.50004997,0.50004997 0 0 0 0.5,0.5 h 13 a 0.50004997,0.50004997 0 0 0 0.5,-0.5 v -13 a 0.50004997,0.50004997 0 0 0 -0.5,-0.5 z m 0.5,1 h 12 v 12 h -12 z" id="rect11050"></path>
    </g>
  </g>
</svg>