<svg xmlns="http://www.w3.org/2000/svg" style="background: #808080" height="64" width="64" viewBox="171 302 20 20">
  <g id="g120740" style="" data-label="O-9">
    <path style="color: rgb(0, 0, 0); fill: #ffffff; stroke-width: 2; stroke-linecap: round; stroke-linejoin: round;" d="m 177,305 a 1.0001,1.0001 0 0 0 -1,1 v 5.83203 a 1.0001,1.0001 0 0 0 0,0.32617 V 318 a 1.0001,1.0001 0 0 0 1,1 h 6 c 2.19729,0 4,-1.80271 4,-4 0,-1.76747 -1.1852,-3.22799 -2.78516,-3.75195 C 184.67235,310.59788 185,309.84948 185,309 c 0,-2.19729 -1.80271,-4 -4,-4 z m 1,2 h 3 c 1.11641,0 2,0.88359 2,2 0,1.11641 -0.88359,2 -2,2 h -3 z m 0,6 h 3 2 c 1.11641,0 2,0.88359 2,2 0,1.11641 -0.88359,2 -2,2 h -5 z" id="path10949"></path>
  </g>
</svg>