<svg xmlns="http://www.w3.org/2000/svg" height="64" width="64" viewBox="192 323 20 20">
  <g transform="matrix(1,0,0,-1,645,1946)" id="g25439" style="fill: #ffffff;" data-label="P-10">
    <path id="path25435" d="m -449.5,1609 c -0.67616,-0.01 -0.67616,1.0096 0,1 h 3.06836 c -0.18417,-0.3108 -0.32709,-0.6451 -0.42188,-1 z m 10.35352,0 c -0.0948,0.3549 -0.23771,0.6892 -0.42188,1 h 3.06055 c 0.67616,0.01 0.67616,-1.0096 0,-1 z m -10.35352,3 c -0.67616,-0.01 -0.67616,1.0096 0,1 h 12.99219 c 0.67616,0.01 0.67616,-1.0096 0,-1 z m 0,3 c -0.67616,-0.01 -0.67616,1.0096 0,1 h 12.99219 c 0.67616,0.01 0.67616,-1.0096 0,-1 z m 0,3 c -0.67616,-0.01 -0.67616,1.0096 0,1 h 12.99219 c 0.67616,0.01 0.67616,-1.0096 0,-1 z" style="opacity: 0.7; fill: #ffffff; stroke-linecap: round;"></path>
    <circle r="1.5" cy="1608" cx="-443" id="circle25437" style="fill: #ffffff; stroke: #ffffff; stroke-linecap: round; stroke-linejoin: round;"></circle>
  </g>
</svg>