<svg xmlns="http://www.w3.org/2000/svg" height="64" width="64" viewBox="234 323 20 20">
  <g transform="matrix(-1,0,0,1,-157.001,-1280)" id="g25455" style="fill: #ffffff;" data-label="P-12">
    <path id="path25451" d="m -406.5,1608 c -0.67616,-0.01 -0.67616,1.0096 0,1 h 11.99219 c 0.67616,0.01 0.67616,-1.0096 0,-1 z m 3.93164,3 c 0.18417,0.3108 0.32709,0.6451 0.42188,1 h 7.63867 c 0.67616,0.01 0.67616,-1.0096 0,-1 z m 0.42188,3 c -0.0948,0.3549 -0.23771,0.6892 -0.42188,1 h 8.06055 c 0.67616,0.01 0.67616,-1.0096 0,-1 z m -4.35352,3 c -0.67616,-0.01 -0.67616,1.0096 0,1 h 11.99219 c 0.67616,0.01 0.67616,-1.0096 0,-1 z" style="opacity: 0.7; fill: #ffffff; stroke-linecap: round;"></path>
    <circle transform="scale(1,-1)" r="1.5" cy="-1613.0002" cx="-406" id="circle25453" style="fill: #ffffff; stroke: #ffffff; stroke-linecap: round; stroke-linejoin: round;"></circle>
  </g>
</svg>