<svg xmlns="http://www.w3.org/2000/svg" height="64" width="64" viewBox="255 323 20 20">
  <g id="g25466" style="fill: #ffffff;" transform="translate(624,-1280)" data-label="P-13">
    <path style="opacity: 0.7; fill: #ffffff; stroke-linecap: round;" d="m -365.49219,1608 c -0.67616,-0.01 -0.67616,1.0096 0,1 H -352.5 c 0.67616,0.01 0.67616,-1.0096 0,-1 z m 0,3 c -0.67616,-0.01 -0.67616,1.0096 0,1 h 2.63867 c 0.0948,-0.3549 0.23771,-0.6892 0.42188,-1 z m 9.92383,0 c 0.18417,0.3108 0.32709,0.6451 0.42188,1 H -352.5 c 0.67616,0.01 0.67616,-1.0096 0,-1 z m -9.92383,3 c -0.67616,-0.01 -0.67616,1.0096 0,1 h 3.06055 c -0.18417,-0.3108 -0.32709,-0.6451 -0.42188,-1 z m 10.34571,0 c -0.0948,0.3549 -0.23771,0.6892 -0.42188,1 H -352.5 c 0.67616,0.01 0.67616,-1.0096 0,-1 z m -10.34571,3 c -0.67616,-0.01 -0.67616,1.0096 0,1 H -352.5 c 0.67616,0.01 0.67616,-1.0096 0,-1 z" id="path25334"></path>
    <circle style="fill: #ffffff; stroke: #ffffff; stroke-linecap: round; stroke-linejoin: round;" id="circle25338" cx="359" cy="-1613.0002" r="1.5" transform="scale(-1)"></circle>
  </g>
</svg>