<svg xmlns="http://www.w3.org/2000/svg" height="64" width="64" viewBox="528 323 20 20">
  <g id="g113469" style="" data-label="P-26">
    <path style="color: rgb(0, 0, 0); fill: #ffffff; stroke-linecap: round; stroke-linejoin: round;" d="m 535.49609,325.98633 c -0.27689,3e-5 -0.50105,0.22506 -0.5,0.50195 l 0.008,3.00781 c 10e-4,0.27537 0.22463,0.49802 0.5,0.49805 h 5.5 v 5.50195 c 3e-5,0.27613 0.22387,0.49997 0.5,0.5 h 3 c 0.27613,-3e-5 0.49997,-0.22387 0.5,-0.5 v -9 c -3e-5,-0.27613 -0.22387,-0.49997 -0.5,-0.5 z m -4,4.0039 c -0.27613,3e-5 -0.49997,0.22387 -0.5,0.5 v 9 c 3e-5,0.27613 0.22387,0.49997 0.5,0.5 l 9.00782,0.01 c 0.27689,-3e-5 0.50105,-0.22506 0.5,-0.50195 l -0.008,-3.00586 c -3e-5,-0.27613 -0.22387,-0.49997 -0.5,-0.5 h -5.5 v -5.50196 c -3e-5,-0.27613 -0.22387,-0.49997 -0.5,-0.5 z" id="path24415-7"></path>
  </g>
</svg>