<svg xmlns="http://www.w3.org/2000/svg" height="64" width="64" viewBox="66 323 20 20">
  <g id="g14256" transform="translate(-21)" style="opacity: 0.4; fill: #ffffff;" data-label="P-4">
    <path style="fill: #ffffff; stroke-linecap: round; stroke-linejoin: round;" d="m 92.496094,325.99414 a 0.50005,0.50005 0 0 0 -0.382813,0.82227 l 4.5,5.5 a 0.50005,0.50005 0 0 0 0.773438,0 l 4.500001,-5.5 a 0.50005,0.50005 0 1 0 -0.77344,-0.63282 L 97,331.21094 92.886719,326.18359 a 0.50005,0.50005 0 0 0 -0.390625,-0.18945 z" id="path14250"></path>
    <path id="path14254" d="m 91.25,334 c -0.683851,0 -1.25,0.56615 -1.25,1.25 v 3.5 c 0,0.68385 0.566149,1.25 1.25,1.25 h 3.5 c 0.683851,0 1.25,-0.56615 1.25,-1.25 v -3.5 C 96,334.56615 95.433851,334 94.75,334 Z m 8,0 c -0.683851,0 -1.25,0.56615 -1.25,1.25 v 3.5 c 0,0.68385 0.566149,1.25 1.25,1.25 h 3.5 c 0.68385,0 1.25,-0.56615 1.25,-1.25 v -3.5 c 0,-0.68385 -0.56615,-1.25 -1.25,-1.25 z m -7.75,4 h 2 1 a 0.50005,0.50005 0 1 1 0,1 h -1 -2 a 0.50005,0.50005 0 1 1 0,-1 z m 8,0 h 2 1 a 0.50005,0.50005 0 1 1 0,1 h -1 -2 a 0.50005,0.50005 0 1 1 0,-1 z" style="fill: #ffffff; stroke-linejoin: round;"></path>
  </g>
</svg>