<svg xmlns="http://www.w3.org/2000/svg" height="64" width="64" viewBox="192 344 20 20">
  <g transform="matrix(-1,0,0,1,382.999,-16)" style="fill: #ffffff;" id="g24066" data-label="Q-10">
    <path style="color: rgb(0, 0, 0); fill: #ffffff; stroke-width: 1.2; stroke-linecap: round; stroke-linejoin: round;" d="m 198.03906,347.00195 c -0.16252,-0.007 -0.32108,0.006 -0.47461,0.0371 -1.22821,0.25238 -1.95915,1.36682 -2.45507,2.09766 a 0.60006002,0.60006002 0 1 0 0.99218,0.67383 c 0.46736,-0.68874 1.16385,-1.48449 1.70508,-1.59571 0.27061,-0.0556 0.53217,-0.0252 0.94727,0.3125 0.41509,0.33772 0.93861,1.01123 1.49804,2.15625 a 0.60006002,0.60006002 0 0 0 0.53907,0.33594 h 0.41406 a 0.60006002,0.60006002 0 0 0 0.54101,-0.33789 c 0.54756,-1.13491 1.06338,-1.80121 1.47657,-2.13476 0.41318,-0.3336 0.68072,-0.3648 0.95898,-0.3086 0.55653,0.1125 1.2624,0.90264 1.7168,1.57227 a 0.60006002,0.60006002 0 1 0 0.99218,-0.67383 c -0.49155,-0.72441 -1.2401,-1.82545 -2.4707,-2.07422 -0.6153,-0.12438 -1.32524,0.0455 -1.95117,0.55078 -0.51038,0.41204 -0.98784,1.19591 -1.4707,2.07617 -0.49098,-0.88906 -0.97541,-1.67806 -1.48633,-2.09375 -0.46868,-0.38133 -0.98509,-0.5741 -1.47266,-0.59375 z M 202.23047,353 c -0.77376,-7.6e-4 -1.47981,0.46475 -2.07031,1.12109 a 0.60022344,0.60022344 0 1 0 0.89257,0.80274 c 0.54185,-0.60226 0.93231,-0.77859 1.30469,-0.71289 0.37239,0.0657 0.94999,0.47591 1.63867,1.53906 a 0.60006002,0.60006002 0 0 0 1.00782,0 c 0.68868,-1.06315 1.26628,-1.47336 1.63867,-1.53906 0.37238,-0.0657 0.76284,0.11063 1.30469,0.71289 a 0.60022344,0.60022344 0 1 0 0.89257,-0.80274 c -0.67486,-0.75011 -1.50108,-1.25149 -2.40625,-1.09179 -0.70977,0.12522 -1.32665,0.68468 -1.93359,1.45508 -0.60694,-0.7704 -1.22382,-1.32986 -1.93359,-1.45508 -0.11315,-0.02 -0.2254,-0.0292 -0.33594,-0.0293 z" transform="matrix(-1,0,0,1,382.999,16)" id="path23960"></path>
    <path style="color: rgb(0, 0, 0); opacity: 0.6; fill: #ffffff; stroke-linecap: round; stroke-linejoin: round;" d="m 185.50195,372 c 1.37479,0 2.5,1.12521 2.5,2.5 0,1.37479 -1.12521,2.5 -2.5,2.5 -1.37479,0 -2.5,-1.12521 -2.5,-2.5 0,-1.37479 1.12521,-2.5 2.5,-2.5 z" id="circle24296"></path>
  </g>
</svg>