<svg xmlns="http://www.w3.org/2000/svg" height="64" width="64" viewBox="213 344 20 20">
  <g style="fill: #ffffff;" id="g23638" data-label="Q-11">
    <path style="opacity: 0.85; fill: #ffffff; stroke-linecap: round; stroke-linejoin: round;" d="m 229.49023,351.99609 a 0.50005,0.50005 0 0 0 -0.34375,0.15039 l -0.74609,0.7461 -1.67773,-0.83985 a 0.50005,0.50005 0 0 0 -0.62305,0.14649 L 225.5,353 h -1 a 0.50005,0.50005 0 0 0 -0.35352,0.14648 l -1,1 A 0.50005,0.50005 0 0 0 223,354.5 v 2.79297 l -1.85352,1.85351 a 0.50005,0.50005 0 0 0 0,0.70704 l 1,1 a 0.50005,0.50005 0 1 0 0.70704,-0.70704 l -0.64649,-0.64648 1.64649,-1.64648 A 0.50005,0.50005 0 0 0 224,357.5 v -2.79297 L 224.70703,354 H 225.75 a 0.50005,0.50005 0 0 0 0.40039,-0.19922 l 0.5,-0.66601 1.62695,0.8125 a 0.50005,0.50005 0 0 0 0.57618,-0.0937 l 1,-1 a 0.50005,0.50005 0 0 0 -0.36329,-0.85743 z" id="path42208-0"></path>
    <path style="opacity: 0.7; fill: #ffffff; stroke-linecap: round; stroke-linejoin: round;" d="m 223.49219,347 a 0.50005,0.50005 0 0 0 -0.34571,0.14648 l -2,2 A 0.50005,0.50005 0 0 0 221,349.5 v 0.79297 L 220.29297,351 H 218.5 a 0.50005,0.50005 0 0 0 -0.35352,0.14648 l -1,1 a 0.50005,0.50005 0 0 0 0,0.70704 L 218,353.70703 v 2.58594 l -1.85352,1.85351 A 0.50005,0.50005 0 0 0 216,358.5 v 2 a 0.50005,0.50005 0 1 0 1,0 v -1.79297 l 1.85352,-1.85351 A 0.50005,0.50005 0 0 0 219,356.5 v -3 a 0.50005,0.50005 0 0 0 -0.14648,-0.35352 l -0.64649,-0.64648 0.5,-0.5 H 220.5 a 0.50005,0.50005 0 0 0 0.35352,-0.14648 l 1,-1 A 0.50005,0.50005 0 0 0 222,350.5 v -0.79297 l 1.5,-1.5 0.64648,0.64649 A 0.50005,0.50005 0 0 0 224.5,349 h 3 a 0.50005,0.50005 0 0 0 0.5,-0.5 V 348 h 1.5 a 0.50005,0.50005 0 1 0 0,-1 h -2 a 0.50005,0.50005 0 0 0 -0.5,0.5 v 0.5 h -2.29297 l -0.85351,-0.85352 A 0.50005,0.50005 0 0 0 223.49219,347 Z" id="path42222-9"></path>
    <path style="fill: #ffffff; stroke-linecap: round; stroke-linejoin: round;" d="m 228.5,357 a 0.50005,0.50005 0 0 0 -0.35352,0.14648 l -1,1 a 0.50005,0.50005 0 0 0 0,0.70704 l 0.64649,0.64648 -0.64649,0.64648 a 0.50005,0.50005 0 1 0 0.70704,0.70704 l 1,-1 a 0.50005,0.50005 0 0 0 0,-0.70704 l -0.64649,-0.64648 0.5,-0.5 H 229.5 a 0.50005,0.50005 0 1 0 0,-1 z" id="path23824"></path>
  </g>
</svg>