<svg xmlns="http://www.w3.org/2000/svg" height="64" width="64" viewBox="255 344 20 20">
  <g style="fill: #ffffff;" id="g24475" transform="matrix(-1,0,0,1,551,4.49997e-6)" data-label="Q-13">
    <g style="fill: #ffffff;" transform="translate(188,63)" id="g24356">
      <path style="fill: #ffffff; stroke-linecap: round; stroke-linejoin: round;" d="m 265.26367,347.00781 c -0.18015,-0.0118 -0.36127,-0.0106 -0.54101,0.002 -0.71897,0.05 -1.42538,0.29465 -2.03516,0.72656 -1.07953,0.76463 -1.69855,2.00863 -1.68359,3.31055 -0.73615,0.10606 -1.42713,0.4336 -1.96289,0.96289 -0.64152,0.63369 -1.00529,1.49176 -1.03125,2.39062 A 0.50005,0.50005 0 0 0 258,354.5 v 1 a 0.50005,0.50005 0 1 0 1,0 v -0.96484 a 0.50005,0.50005 0 0 0 0,-0.0352 c 0,-0.66852 0.26659,-1.30947 0.74219,-1.7793 0.47558,-0.46982 1.12059,-0.7287 1.78906,-0.7207 a 0.50005,0.50005 0 0 0 0.49609,-0.61914 c -0.14075,-1.09982 0.33186,-2.1861 1.23828,-2.82813 0.9161,-0.64887 2.11612,-0.73246 3.11329,-0.21679 C 267.37607,348.85161 268,349.87739 268,351 a 0.50005,0.50005 0 0 0 0.002,0.043 c -0.15856,-0.001 -0.31755,-0.003 -0.47461,0.0137 -0.85318,0.0929 -1.67617,0.45304 -2.33203,1.06641 a 0.5002238,0.5002238 0 1 0 0.6836,0.73047 c 0.98705,-0.92311 2.4814,-1.08629 3.65234,-0.39649 1.17094,0.6898 1.72204,2.04918 1.35937,3.33399 -0.36266,1.2848 -1.55342,2.17677 -2.92187,2.17578 -1.36845,-10e-4 -2.5592,-0.89437 -2.91992,-2.17969 a 0.50005,0.50005 0 0 0 -0.0469,-0.11719 0.50004997,0.50004997 0 0 0 0,-0.002 0.50004997,0.50004997 0 0 0 -0.0156,-0.0977 c -0.19194,-0.87762 -0.95663,-1.51856 -1.85742,-1.56836 -0.9008,-0.0498 -1.73485,0.50125 -2.02539,1.35157 a 0.50060304,0.50060304 0 0 0 0.94726,0.32421 c 0.14448,-0.42284 0.5581,-0.70333 1.02149,-0.67773 0.46338,0.0256 0.84227,0.34777 0.9375,0.7832 a 0.50004997,0.50004997 0 0 0 0.0566,0.1543 0.50005,0.50005 0 0 0 0.0195,0.11914 c 0.4828,1.72035 2.07532,2.90916 3.88086,2.91016 1.80554,10e-4 3.40131,-1.18467 3.88672,-2.9043 0.4854,-1.71963 -0.26339,-3.55306 -1.81446,-4.4668 -0.33807,-0.19915 -0.69725,-0.33834 -1.06445,-0.43164 A 0.50005,0.50005 0 0 0 269,351 c 0,-1.4945 -0.83461,-2.86624 -2.16211,-3.55273 -0.49781,-0.25748 -1.03377,-0.40392 -1.57422,-0.43946 z" transform="matrix(-1,0,0,1,363,-63)" id="path24346"></path>
    </g>
    <path style="opacity: 0.6; fill: #ffffff; stroke-linecap: round; stroke-linejoin: round;" d="m 290.99609,357 c -1.09865,0 -2,0.90134 -2,2 0,1.09866 0.90135,2 2,2 1.09866,0 2,-0.90134 2,-2 0,-1.09866 -0.90134,-2 -2,-2 z" id="circle24448"></path>
  </g>
</svg>