<svg xmlns="http://www.w3.org/2000/svg" style="background: #808080" height="64" width="64" viewBox="339 344 20 20">
  <g id="g5375" style="fill: #ffffff;" data-label="Q-17">
    <path id="path9106-6-2" d="m 346.49261,354.99229 a 0.50005,0.50005 0 0 0 -0.49219,0.50781 v 3 c 0,0.725 0.22685,1.37138 0.67773,1.82226 0.45089,0.45089 1.09727,0.67774 1.82227,0.67774 0.725,0 1.37138,-0.22685 1.82226,-0.67774 0.45089,-0.45088 0.67774,-1.09726 0.67774,-1.82226 v -3 a 0.50005,0.50005 0 1 0 -1,0 v 3 c 0,0.525 -0.14815,0.87862 -0.38477,1.11523 -0.23661,0.23661 -0.59023,0.38477 -1.11523,0.38477 -0.525,0 -0.87862,-0.14816 -1.11524,-0.38477 -0.23661,-0.23661 -0.38476,-0.59023 -0.38476,-1.11523 v -3 a 0.50005,0.50005 0 0 0 -0.50781,-0.50781 z" style="color: rgb(0, 0, 0); opacity: 0.75; fill: #ffffff; stroke-linecap: round; stroke-linejoin: round;"></path>
    <path d="m 348.49261,349.99229 a 0.50005,0.50005 0 0 0 -0.49219,0.50781 v 6 a 0.50005,0.50005 0 1 0 1,0 v -6 a 0.50005,0.50005 0 0 0 -0.50781,-0.50781 z m -5.99219,-2.99219 a 0.50005,0.50005 0 1 0 0,1 h 2.5 v 1.75 c 0,0.97222 0.53688,1.82801 1.27539,2.19726 a 0.50005635,0.50005635 0 1 0 0.44726,-0.89453 c -0.26148,-0.13074 -0.72265,-0.77495 -0.72265,-1.30273 v -1.75 h 5 v 1.75 c 0,0.52778 -0.46312,1.17199 -0.72461,1.30273 a 0.50005635,0.50005635 0 1 0 0.44726,0.89453 c 0.73852,-0.36925 1.27735,-1.22504 1.27735,-2.19726 v -1.75 h 2.5 a 0.50005,0.50005 0 1 0 0,-1 z" style="color: rgb(0, 0, 0); fill: #ffffff; stroke-linecap: round; stroke-linejoin: round;" id="path9108-6-6"></path>
  </g>
</svg>