<svg xmlns="http://www.w3.org/2000/svg" height="64" width="64" viewBox="24 344 20 20">
  <g style="fill: #ffffff;" id="g24220" transform="translate(-1.85367e-6,63)" data-label="Q-2">
    <path style="fill: #ffffff; stroke-linecap: round; stroke-linejoin: round;" d="m 32.855469,347.00586 c -0.706567,0.052 -1.35787,0.479 -1.669922,1.15234 a 0.50005,0.50005 0 1 0 0.90625,0.42188 c 0.210359,-0.45391 0.713864,-0.68179 1.193359,-0.53906 0.479496,0.14272 0.777196,0.60845 0.705078,1.10351 C 33.918117,349.63959 33.500288,350 33,350 h -5.5 c -0.676161,-0.01 -0.676161,1.00956 0,1 H 33 c 0.98952,0 1.835874,-0.73175 1.978516,-1.71094 0.142642,-0.97918 -0.459806,-1.92277 -1.408204,-2.20508 -0.237099,-0.0706 -0.479321,-0.0955 -0.714843,-0.0781 z M 38.488281,349 c -0.867889,0.005 -1.700579,0.46414 -2.154297,1.25 a 0.5005035,0.5005035 0 1 0 0.867188,0.5 c 0.36563,-0.63329 1.125339,-0.91026 1.8125,-0.66016 0.68716,0.25011 1.089874,0.94977 0.96289,1.66993 C 39.849581,352.47992 39.231261,353 38.5,353 h -11 c -0.676161,-0.01 -0.676161,1.00956 0,1 h 11 c 1.209914,0 2.252791,-0.87487 2.462891,-2.06641 0.210099,-1.19153 -0.470475,-2.36938 -1.607422,-2.7832 C 39.071232,349.04694 38.777578,348.99817 38.488281,349 Z M 27.5,356 c -0.676161,-0.01 -0.676161,1.00956 0,1 H 35.464844 35.5 c 0.74205,0 1.3672,0.53453 1.482422,1.26758 0.115221,0.73305 -0.315216,1.43251 -1.021484,1.66015 -0.706269,0.22765 -1.466229,-0.0896 -1.800782,-0.75195 a 0.50006246,0.50006246 0 1 0 -0.892578,0.45117 c 0.553327,1.09549 1.831882,1.62847 3,1.25196 1.168118,-0.37652 1.891741,-1.55517 1.701172,-2.76758 C 37.778181,356.89891 36.727299,356 35.5,356 Z" transform="translate(1.85367e-6,-63)" id="path24132"></path>
    <g id="g24588" style="opacity:0.8;fill:#ffffff"></g>
    <g id="g24584" style="opacity:0.8;fill:#ffffff"></g>
  </g>
</svg>