<svg xmlns="http://www.w3.org/2000/svg" style="background: #808080" height="64" width="64" viewBox="45 344 20 20">
  <g id="g106121" style="" data-label="Q-3">
    <path style="color: rgb(0, 0, 0); opacity: 0.95; fill: #ffffff; stroke-width: 1.1; stroke-linecap: round;" d="m 54.951172,347 c -1.831463,0.10706 -3.628606,0.91857 -4.910156,2.35742 -2.943003,3.30422 -2.532587,8.31019 0.05078,11.44531 a 0.5501659,0.5501659 0 1 0 0.849609,-0.69921 c -2.251956,-2.73294 -2.615242,-7.16516 -0.07813,-10.01368 2.156081,-2.42072 6.066547,-2.73646 8.435547,-0.43164 1.937906,1.88542 2.205459,5.18464 0.267578,7.14453 -1.518438,1.53565 -4.123722,1.73043 -5.623047,0.11133 -1.098553,-1.18629 -1.217866,-3.2114 0.03516,-4.28515 0.40623,-0.34811 0.977609,-0.54432 1.501953,-0.52539 0.524344,0.0189 0.981344,0.22421 1.291015,0.67968 0.145266,0.21367 0.237116,0.58238 0.201172,0.86719 -0.03594,0.28481 -0.127716,0.44479 -0.371094,0.5332 a 0.55049551,0.55049551 0 1 0 0.375,1.03516 c 0.656421,-0.23845 1.015068,-0.85266 1.087891,-1.42969 0.07282,-0.57703 -0.06773,-1.15869 -0.384765,-1.625 -0.517269,-0.76081 -1.34716,-1.12886 -2.160157,-1.1582 -0.812997,-0.0293 -1.63015,0.25121 -2.257812,0.78906 -1.781519,1.52664 -1.618395,4.25452 -0.125,5.86719 1.955333,2.11153 5.283443,1.86538 7.21289,-0.0859 2.400922,-2.4282 2.076076,-6.41165 -0.283203,-8.70703 -1.417731,-1.37933 -3.283772,-1.9762 -5.115234,-1.86914 z" id="path23662-2"></path>
  </g>
</svg>