<svg xmlns="http://www.w3.org/2000/svg" style="background: #808080" height="64" width="64" viewBox="66 344 20 20">
  <g id="g56772" data-label="Q-4">
    <g id="g106127" style="">
      <path style="color: rgb(0, 0, 0); opacity: 0.6; fill: #ffffff; fill-rule: evenodd; stroke-linecap: round;" d="M 75.492188,347.04102 A 0.50005,0.50005 0 0 0 75,347.54688 V 354.5 a 0.50005,0.50005 0 1 0 1,0 v -6.95312 a 0.50005,0.50005 0 0 0 -0.507812,-0.50586 z m 0,10.95117 A 0.50005,0.50005 0 0 0 75,358.5 v 2.04688 a 0.50005,0.50005 0 1 0 1,0 V 358.5 a 0.50005,0.50005 0 0 0 -0.507812,-0.50781 z" id="rect42619-7"></path>
    </g>
    <g id="g106124" style="">
      <path style="color: rgb(0, 0, 0); fill: #ffffff; stroke-width: 1.1; stroke-linecap: round;" d="m 81.492188,347.13672 c -0.442306,0.006 -0.696492,0.5058 -0.441407,0.86719 0.49808,0.72856 0.898438,1.27175 0.898438,2.60351 0,2.36371 -1.912476,5.29297 -6.919922,5.29297 -2.17926,0 -3.451901,-0.37865 -4.130859,-0.79883 -0.678959,-0.42018 -0.798829,-0.80387 -0.798829,-1.10156 0,-0.45749 0.450606,-1.844 3.496094,-2.17969 0.731186,-0.0565 0.647202,-1.15413 -0.08398,-1.09765 -0.01241,9.1e-4 -0.02479,0.002 -0.03711,0.004 C 70.097311,351.09872 69,352.84097 69,354 c 0,0.6737 0.378574,1.45551 1.318359,2.03711 0.939785,0.58159 2.407524,0.96289 4.710938,0.96289 5.452133,0 8.021484,-3.41358 8.021484,-6.39258 0,-1.58243 -0.595669,-2.49605 -1.09375,-3.22461 -0.103149,-0.1556 -0.278176,-0.24826 -0.464843,-0.24609 z M 77.5,350.96875 c -0.645258,0.008 -0.75144,0.92907 -0.125,1.08398 0.86985,0.23625 1.603372,0.59862 2.212891,1.02539 0.601573,0.42066 1.232432,-0.48169 0.630859,-0.90234 -0.709221,-0.49659 -1.560177,-0.91545 -2.554688,-1.18555 -0.05329,-0.0154 -0.108604,-0.0226 -0.164062,-0.0215 z m 4.814453,4.19141 c -0.370377,0.014 -0.621193,0.38283 -0.498047,0.73242 0.0943,0.28097 0.132813,0.5225 0.132813,0.67969 0,0.15896 0.01621,0.32983 0.0059,0.58398 -0.01039,0.25415 -0.04509,0.56394 -0.138672,0.89063 -0.187171,0.65336 -0.583988,1.36714 -1.576172,1.91796 -0.642059,0.35673 -0.106902,1.31962 0.535157,0.96289 1.249156,-0.69348 1.849012,-1.70822 2.097656,-2.57617 0.124322,-0.43397 0.166734,-0.83367 0.179687,-1.15039 0.01295,-0.31671 -0.002,-0.5795 -0.002,-0.6289 0,-0.3203 -0.06792,-0.66136 -0.191406,-1.0293 -0.07498,-0.23555 -0.297898,-0.39215 -0.544922,-0.38281 z" id="path42609-7"></path>
    </g>
  </g>
</svg>