<svg xmlns="http://www.w3.org/2000/svg" height="64" width="64" viewBox="129 344 20 20">
  <g style="fill: #ffffff;" id="g24513" transform="matrix(0,1,1,0,-152.003,47.0064)" data-label="Q-7">
    <g id="g24612" style="fill:#ffffff">
      <path style="color: rgb(0, 0, 0); opacity: 0.6; fill: #ffffff; stroke-linecap: round; stroke-linejoin: round;" d="m 142.49609,347.00195 c -1.17351,0 -2.15665,0.82286 -2.42187,1.91797 1.14862,0.70733 2.04128,1.7894 2.50586,3.07422 1.33547,-0.0457 2.41601,-1.14613 2.41601,-2.49219 0,-1.37479 -1.12521,-2.5 -2.5,-2.5 z m 0.50196,8 c -1.65181,0 -3.00196,1.35015 -3.00196,3.00196 0,1.65181 1.35015,3.00195 3.00196,3.00195 1.65181,0 3.00195,-1.35014 3.00195,-3.00195 0,-1.65181 -1.35014,-3.00196 -3.00195,-3.00196 z" transform="matrix(0,1,1,0,-47.0064,152.003)" id="circle24338"></path>
      <path id="circle24481" transform="matrix(0,1,1,0,-47.0063,152.003)" d="m 136.9668,349.03125 c -2.73852,0 -4.97071,2.23218 -4.97071,4.9707 0,2.73853 2.23219,4.96875 4.97071,4.96875 0.74568,0 1.44822,-0.1767 2.08398,-0.47265 -0.0209,-0.16376 -0.0508,-0.32518 -0.0508,-0.49414 0,-0.2598 0.0297,-0.51312 0.0781,-0.75977 -0.60661,0.39452 -1.33048,0.62695 -2.11132,0.62695 -2.14404,0 -3.8711,-1.72509 -3.8711,-3.86914 0,-2.14404 1.72706,-3.87109 3.8711,-3.87109 2.14405,0 3.86914,1.72705 3.86914,3.87109 0,0.23797 -0.0296,0.46946 -0.0703,0.69532 0.35109,-0.23908 0.74721,-0.40722 1.16407,-0.52539 0.002,-0.0568 0.008,-0.11267 0.008,-0.16993 0,-2.73852 -2.23217,-4.9707 -4.9707,-4.9707 z" style="color: rgb(0, 0, 0); fill: #ffffff; stroke-width: 1.1; stroke-linecap: round; stroke-linejoin: round;"></path>
    </g>
  </g>
</svg>