<svg xmlns="http://www.w3.org/2000/svg" style="background: #808080" height="64" width="64" viewBox="150 344 20 20">
  <g style="fill: #ffffff;" id="g24286" transform="matrix(-1,0,0,1,319.997,63)" data-label="Q-8">
    <path style="fill: #ffffff; stroke-linecap: round; stroke-linejoin: round;" d="m 153,284 v 2 h 2 v -2 z m 2,2 v 2 h 2 v -2 z m 2,0 h 2 v -2 h -2 z m 2,0 v 2 h 2 v -2 z m 2,0 h 2 v -2 h -2 z m -6,8 v -2 h -2 v 2 z m 0,-2 h 2 v -2 h -2 z m 0,-2 v -2 h -2 v 2 z m 2,0 h 2 v -2 h -2 z m 2,0 v 2 h 2 v -2 z m 2,0 h 2 v -2 h -2 z m -2,2 h -2 v 2 h 2 z" id="path24240"></path>
    <path style="color: rgb(0, 0, 0); opacity: 0.6; fill: #ffffff; stroke-linecap: round; stroke-linejoin: round;" d="m 163.99805,292.00391 c -1.65006,0 -2.99805,1.34799 -2.99805,2.99804 0,1.65006 1.34799,2.99805 2.99805,2.99805 1.65005,0 2.99804,-1.34799 2.99804,-2.99805 0,-1.65005 -1.34799,-2.99804 -2.99804,-2.99804 z" id="circle24230-9"></path>
  </g>
</svg>