<svg xmlns="http://www.w3.org/2000/svg" height="64" width="64" viewBox="3 365 20 20">
  <g style="fill: #ffffff;" id="g14334" transform="translate(-231,63)" data-label="R-1">
    <path style="color: rgb(0, 0, 0); fill: #ffffff; stroke-linecap: round; stroke-linejoin: round;" d="m 250.05859,306.01172 c -2.15963,0 -4.15811,1.13935 -5.24023,2.99219 -1.08212,1.85283 -1.08212,4.1413 0,5.99414 1.08212,1.85284 3.0806,2.99218 5.24023,2.99218 l 0.43164,0.01 c 0.28003,0.005 0.50992,-0.22015 0.50977,-0.50023 l -0.004,-10.98438 c -2e-5,-0.27461 -0.22149,-0.49783 -0.49609,-0.5 l -0.4375,-0.004 c -0.001,-10e-6 -0.003,-10e-6 -0.004,0 z" id="path13470"></path>
    <g transform="translate(0,-21)" id="g13541" style="opacity:0.6;fill:#ffffff">
      <path style="color: rgb(0, 0, 0); fill: #ffffff; stroke-width: 1px; stroke-linecap: round; stroke-linejoin: round;" d="m 6.4980469,367.99414 a 0.50005,0.50005 0 0 0 -0.5,0.5 v 2 a 0.50005,0.50005 0 0 0 0.5,0.5 H 7 v 8 H 6.4980469 a 0.50005,0.50005 0 0 0 -0.5,0.5 v 2 a 0.50005,0.50005 0 0 0 0.5,0.5 h 2 a 0.50005,0.50005 0 0 0 0.5,-0.5 V 381 H 14 c 0.67616,0.01 0.67616,-1.00956 0,-1 H 8.9980469 v -0.50586 a 0.50005,0.50005 0 0 0 -0.5,-0.5 H 8 v -8 h 0.4980469 a 0.50005,0.50005 0 0 0 0.5,-0.5 V 370 H 14 c 0.67616,0.01 0.67616,-1.00956 0,-1 H 8.9980469 v -0.50586 a 0.50005,0.50005 0 0 0 -0.5,-0.5 z m 0.5,1 h 1 v 1 h -1 z m 0,11 h 1 v 1 h -1 z" transform="translate(231,-42)" id="path13523"></path>
    </g>
  </g>
</svg>