<svg xmlns="http://www.w3.org/2000/svg" height="64" width="64" viewBox="192 365 20 20">
  <g style="fill: #ffffff;" id="g14429" transform="translate(-1.85367e-6,42)" data-label="R-10">
    <path style="fill: #ffffff; stroke-linecap: round; stroke-linejoin: round;" d="m 201.49805,368.99414 a 0.50005,0.50005 0 0 0 -0.5,0.5 v 1 a 0.50005,0.50005 0 0 0 0.5,0.5 h 0.7207 C 203.68137,373.39211 205,375.04034 205,377 c 0,1.45833 -0.66274,2.34651 -1.76562,2.75 -1.1029,0.40349 -2.7161,0.26002 -4.5,-0.69141 a 0.50005,0.50005 0 1 0 -0.46876,0.88282 c 1.9661,1.04857 3.8529,1.2801 5.3125,0.74609 C 205.03775,380.15349 206,378.79167 206,377 c 0,-2.43412 -1.54431,-4.24525 -3.00195,-6.65039 v -0.85547 a 0.50005,0.50005 0 0 0 -0.5,-0.5 z" transform="translate(1.85367e-6,-42)" id="path14357"></path>
    <g style="opacity:0.6;fill:#ffffff" id="g13445">
      <path style="fill: #ffffff; stroke-width: 1px; stroke-linecap: round; stroke-linejoin: round;" d="m 195.49805,367.99414 a 0.50005,0.50005 0 0 0 -0.5,0.5 v 2 a 0.50005,0.50005 0 0 0 0.5,0.5 h 2 a 0.50005,0.50005 0 0 0 0.5,-0.5 V 370 H 199.5 c 0.67616,0.01 0.67616,-1.00956 0,-1 h -1.50195 v -0.50586 a 0.50005,0.50005 0 0 0 -0.5,-0.5 z m 11,0 a 0.50005,0.50005 0 0 0 -0.5,0.5 V 369 H 204.5 c -0.67616,-0.01 -0.67616,1.00956 0,1 h 1.49805 v 0.49414 a 0.50005,0.50005 0 0 0 0.5,0.5 h 2 a 0.50005,0.50005 0 0 0 0.5,-0.5 v -2 a 0.50005,0.50005 0 0 0 -0.5,-0.5 z m -10.5,1 h 1 v 1 h -1 z m 11,0 h 1 v 1 h -1 z" transform="translate(1.85367e-6,-42)" id="path14367"></path>
    </g>
  </g>
</svg>