<svg xmlns="http://www.w3.org/2000/svg" height="64" width="64" viewBox="213 365 20 20">
  <g style="fill: #ffffff;" id="g14422" transform="translate(-1.85367e-6,42)" data-label="R-11">
    <path style="color: rgb(0, 0, 0); fill: #ffffff; stroke-linecap: square; stroke-linejoin: round;" d="m 222.49805,369.99414 c -0.27613,3e-5 -0.49997,0.22387 -0.5,0.5 l 0.002,0.60742 c -2.27831,0.46511 -4,2.48538 -4,4.89844 0,2.75551 2.24464,5 5,5 2.75536,0 5,-2.24449 5,-5 0,-2.41306 -1.72169,-4.43333 -4,-4.89844 l -0.002,-0.60742 c -3e-5,-0.27613 -0.22387,-0.49997 -0.5,-0.5 z M 223,372 c 2.21488,0 4,1.78488 4,4 0,2.21512 -1.78512,4 -4,4 -2.21488,0 -4,-1.78488 -4,-4 0,-2.21512 1.78512,-4 4,-4 z" transform="translate(1.85367e-6,-42)" id="ellipse14399"></path>
    <g style="opacity:0.6;fill:#ffffff" id="g13453">
      <path style="color: rgb(0, 0, 0); fill: #ffffff; stroke-width: 1px; stroke-linecap: round; stroke-linejoin: round;" d="m 216.49805,367.99414 a 0.50005,0.50005 0 0 0 -0.5,0.5 v 2 a 0.50005,0.50005 0 0 0 0.5,0.5 h 2 a 0.50005,0.50005 0 0 0 0.5,-0.5 V 370 H 220.5 c 0.67616,0.01 0.67616,-1.00956 0,-1 h -1.50195 v -0.50586 a 0.50005,0.50005 0 0 0 -0.5,-0.5 z m 11.00976,0 a 0.50005,0.50005 0 0 0 -0.5,0.5 V 369 h -1.5039 c -0.67616,-0.01 -0.67616,1.00956 0,1 h 1.5039 v 0.49414 a 0.50005,0.50005 0 0 0 0.5,0.5 h 2 a 0.50005,0.50005 0 0 0 0.5,-0.5 v -2 a 0.50005,0.50005 0 0 0 -0.5,-0.5 z m -10.50976,1 h 1 v 1 h -1 z m 11.00976,0 h 1 v 1 h -1 z" transform="translate(1.85367e-6,-42)" id="path14421"></path>
    </g>
  </g>
</svg>