<svg xmlns="http://www.w3.org/2000/svg" height="64" width="64" viewBox="234 365 20 20">
  <g style="fill: #ffffff;" id="g14414" transform="translate(-1.85367e-6,42)" data-label="R-12">
    <path style="fill: #ffffff; stroke-linecap: round; stroke-linejoin: round;" d="m 250.05859,327.01172 c -2.15963,0 -4.15811,1.13935 -5.24023,2.99219 -1.08212,1.85283 -1.08212,4.1413 0,5.99414 1.08212,1.85284 3.0806,2.99218 5.24023,2.99218 l 0.43164,0.01 a 0.50009544,0.50009544 0 1 0 0.0195,-1 l -0.44141,-0.01 a 0.50004985,0.50004985 0 0 0 -0.01,0 c -1.80804,0 -3.47523,-0.95213 -4.37695,-2.49609 -0.90172,-1.54396 -0.90172,-3.44041 0,-4.98437 0.90107,-1.54285 2.56651,-2.49668 4.37305,-2.49805 l 0.4375,0.004 a 0.50004985,0.50004985 0 1 0 0.008,-1 l -0.4375,-0.004 a 0.50004985,0.50004985 0 0 0 -0.004,0 z" id="ellipse14411"></path>
    <g style="opacity:0.6;fill:#ffffff" id="g13459">
      <path style="fill: #ffffff; stroke-width: 1px; stroke-linecap: round; stroke-linejoin: round;" d="m 237.49805,367.99414 a 0.50005,0.50005 0 0 0 -0.5,0.5 v 2 a 0.50005,0.50005 0 0 0 0.5,0.5 H 238 v 8 h -0.50195 a 0.50005,0.50005 0 0 0 -0.5,0.5 v 2 a 0.50005,0.50005 0 0 0 0.5,0.5 h 2 a 0.50005,0.50005 0 0 0 0.5,-0.5 V 381 H 245 c 0.67616,0.01 0.67616,-1.00956 0,-1 h -5.00195 v -0.50586 a 0.50005,0.50005 0 0 0 -0.5,-0.5 H 239 v -8 h 0.49805 a 0.50005,0.50005 0 0 0 0.5,-0.5 V 370 H 245 c 0.67616,0.01 0.67616,-1.00956 0,-1 h -5.00195 v -0.50586 a 0.50005,0.50005 0 0 0 -0.5,-0.5 z m 0.5,1 h 1 v 1 h -1 z m 0,11 h 1 v 1 h -1 z" transform="translate(1.85367e-6,-42)" id="path14415"></path>
    </g>
  </g>
</svg>