<svg xmlns="http://www.w3.org/2000/svg" style="background: #808080" height="64" width="64" viewBox="255 365 20 20">
  <g style="fill: #ffffff;" id="g14406" transform="translate(-1.85367e-6,42)" data-label="R-13">
    <path style="color: rgb(0, 0, 0); opacity: 0.6; fill: #ffffff; stroke-width: 1px; stroke-linecap: round; stroke-linejoin: round;" d="m 258.49805,325.99414 a 0.50005,0.50005 0 0 0 -0.5,0.5 v 2 a 0.50005,0.50005 0 0 0 0.5,0.5 h 2 a 0.50005,0.50005 0 0 0 0.5,-0.5 v -2 a 0.50005,0.50005 0 0 0 -0.5,-0.5 z m 11.00976,0 a 0.50005,0.50005 0 0 0 -0.5,0.5 v 2 a 0.50005,0.50005 0 0 0 0.5,0.5 h 2 a 0.50005,0.50005 0 0 0 0.5,-0.5 v -2 a 0.50005,0.50005 0 0 0 -0.5,-0.5 z m -10.50976,1 h 1 v 1 h -1 z m 11.00976,0 h 1 v 1 h -1 z m -11.50976,10 a 0.50005,0.50005 0 0 0 -0.5,0.5 v 2 a 0.50005,0.50005 0 0 0 0.5,0.5 h 2 a 0.50005,0.50005 0 0 0 0.5,-0.5 v -2 a 0.50005,0.50005 0 0 0 -0.5,-0.5 z m 11.00976,0 a 0.50005,0.50005 0 0 0 -0.5,0.5 v 2 a 0.50005,0.50005 0 0 0 0.5,0.5 h 2 a 0.50005,0.50005 0 0 0 0.5,-0.5 v -2 a 0.50005,0.50005 0 0 0 -0.5,-0.5 z m -10.50976,1 h 1 v 1 h -1 z m 11.00976,0 h 1 v 1 h -1 z" id="path14443"></path>
    <path style="color: rgb(0, 0, 0); fill: #ffffff; stroke-linecap: square; stroke-linejoin: round;" d="m 265,328 c -2.75536,0 -5,2.24449 -5,5 0,2.75551 2.24464,5 5,5 2.75536,0 5,-2.24449 5,-5 0,-2.75551 -2.24464,-5 -5,-5 z m 0,1 c 2.21488,0 4,1.78488 4,4 0,2.21512 -1.78512,4 -4,4 -2.21488,0 -4,-1.78488 -4,-4 0,-2.21512 1.78512,-4 4,-4 z" id="ellipse14445"></path>
  </g>
</svg>