<svg xmlns="http://www.w3.org/2000/svg" style="background: #808080" height="64" width="64" viewBox="283 348 20 20">
  <g id="g6286" style="fill: #ffffff;" data-label="R-15">
    <path d="m 303.5,369 a 0.50005,0.50005 0 0 0 -0.35352,0.14648 l -3,3 A 0.50005,0.50005 0 0 0 300,372.5 v 9 a 0.50005,0.50005 0 0 0 0.5,0.5 h 9 a 0.50005,0.50005 0 0 0 0.35352,-0.14648 l 3,-3 A 0.50005,0.50005 0 0 0 313,378.5 v -9 a 0.50005,0.50005 0 0 0 -0.5,-0.5 z m 0.20703,1 H 312 v 8.29297 L 309.29297,381 H 301 v -8.29297 z m 1.79883,5.03711 c -0.82251,0 -1.5,0.67749 -1.5,1.5 0,0.8225 0.67749,1.5 1.5,1.5 0.8225,0 1.5,-0.6775 1.5,-1.5 0,-0.82251 -0.6775,-1.5 -1.5,-1.5 z m 0,1 c 0.28206,0 0.5,0.21793 0.5,0.5 0,0.28206 -0.21794,0.5 -0.5,0.5 -0.28207,0 -0.5,-0.21794 -0.5,-0.5 0,-0.28207 0.21793,-0.5 0.5,-0.5 z" style="color: rgb(0, 0, 0); fill: #ffffff; stroke-linecap: round; stroke-linejoin: round; marker: none;" id="path19061-0-7-6"></path>
    <path id="path8009-8-5-8-9-1-5" d="M 312.14648,369.14648 309.29297,372 H 300.5 v 1 h 8.5 l 0.006,8.53711 h 1 l -0.006,-8.83008 2.85352,-2.85351 z" style="color: rgb(0, 0, 0); opacity: 0.7; fill: #ffffff; stroke-linejoin: round; marker: none;"></path>
  </g>
</svg>