<svg xmlns="http://www.w3.org/2000/svg" style="background: #808080" height="64" width="64" viewBox="318 365 20 20">
  <g style="fill: #ffffff;" id="g19186-9-4" transform="translate(-146.994,85.0365)" data-label="R-16">
    <path style="color: rgb(0, 0, 0); fill: #ffffff; stroke-linecap: round; stroke-linejoin: round;" d="m 327.49805,368.03711 a 0.50005,0.50005 0 0 0 -0.34571,0.14648 l -7,7 a 0.50005,0.50005 0 0 0 0,0.70703 l 7,7 a 0.50005,0.50005 0 0 0 0.70704,0 l 7.03124,-7 a 0.50005,0.50005 0 0 0 0,-0.70703 l -7.03124,-7 a 0.50005,0.50005 0 0 0 -0.36133,-0.14648 z m 0.008,1.20703 6.32226,6.29297 -6.32226,6.29297 -6.29297,-6.29297 z m 0,4.79297 c -0.8225,0 -1.5,0.6775 -1.5,1.5 0,0.8225 0.6775,1.5 1.5,1.5 0.8225,0 1.5,-0.6775 1.5,-1.5 0,-0.8225 -0.6775,-1.5 -1.5,-1.5 z m 0,1 c 0.28206,0 0.5,0.21794 0.5,0.5 0,0.28206 -0.21794,0.5 -0.5,0.5 -0.28206,0 -0.5,-0.21794 -0.5,-0.5 0,-0.28206 0.21794,-0.5 0.5,-0.5 z" transform="translate(146.994,-85.0365)" id="path19093-9-7"></path>
  </g>
</svg>