<svg xmlns="http://www.w3.org/2000/svg" style="background: #808080" height="64" width="64" viewBox="339 365 20 20">
  <g transform="translate(-104.994,85.0365)" style="fill: #ffffff;" id="g19021-7-6" data-label="R-17">
    <path style="color: rgb(0, 0, 0); fill: #ffffff; stroke-linecap: round; stroke-linejoin: round; stroke-miterlimit: 3.7;" d="m 448.5,284 c -0.8225,0 -1.5,0.6775 -1.5,1.5 0,0.8225 0.6775,1.5 1.5,1.5 0.8225,0 1.5,-0.6775 1.5,-1.5 0,-0.8225 -0.6775,-1.5 -1.5,-1.5 z m 5,0 c -0.8225,0 -1.5,0.6775 -1.5,1.5 0,0.8225 0.6775,1.5 1.5,1.5 0.8225,0 1.5,-0.6775 1.5,-1.5 0,-0.8225 -0.6775,-1.5 -1.5,-1.5 z m 5,0 c -0.8225,0 -1.5,0.6775 -1.5,1.5 0,0.8225 0.6775,1.5 1.5,1.5 0.8225,0 1.5,-0.6775 1.5,-1.5 0,-0.8225 -0.6775,-1.5 -1.5,-1.5 z m -10,1 c 0.28207,0 0.5,0.21794 0.5,0.5 0,0.28206 -0.21793,0.5 -0.5,0.5 -0.28207,0 -0.5,-0.21794 -0.5,-0.5 0,-0.28206 0.21793,-0.5 0.5,-0.5 z m 5,0 c 0.28207,0 0.5,0.21794 0.5,0.5 0,0.28206 -0.21793,0.5 -0.5,0.5 -0.28207,0 -0.5,-0.21794 -0.5,-0.5 0,-0.28206 0.21793,-0.5 0.5,-0.5 z m 5,0 c 0.28207,0 0.5,0.21794 0.5,0.5 0,0.28206 -0.21793,0.5 -0.5,0.5 -0.28207,0 -0.5,-0.21794 -0.5,-0.5 0,-0.28206 0.21793,-0.5 0.5,-0.5 z m -10,4 c -0.8225,0 -1.5,0.6775 -1.5,1.5 0,0.8225 0.6775,1.5 1.5,1.5 0.8225,0 1.5,-0.6775 1.5,-1.5 0,-0.8225 -0.6775,-1.5 -1.5,-1.5 z m 5,0 c -0.8225,0 -1.5,0.6775 -1.5,1.5 0,0.8225 0.6775,1.5 1.5,1.5 0.8225,0 1.5,-0.6775 1.5,-1.5 0,-0.8225 -0.6775,-1.5 -1.5,-1.5 z m 5,0 c -0.8225,0 -1.5,0.6775 -1.5,1.5 0,0.8225 0.6775,1.5 1.5,1.5 0.8225,0 1.5,-0.6775 1.5,-1.5 0,-0.8225 -0.6775,-1.5 -1.5,-1.5 z m -10,1 c 0.28207,0 0.5,0.21794 0.5,0.5 0,0.28206 -0.21793,0.5 -0.5,0.5 -0.28207,0 -0.5,-0.21794 -0.5,-0.5 0,-0.28206 0.21793,-0.5 0.5,-0.5 z m 5,0 c 0.28206,0 0.5,0.21794 0.5,0.5 0,0.28206 -0.21794,0.5 -0.5,0.5 -0.28206,0 -0.5,-0.21794 -0.5,-0.5 0,-0.28206 0.21794,-0.5 0.5,-0.5 z m 5,0 c 0.28207,0 0.5,0.21794 0.5,0.5 0,0.28206 -0.21793,0.5 -0.5,0.5 -0.28207,0 -0.5,-0.21794 -0.5,-0.5 0,-0.28206 0.21793,-0.5 0.5,-0.5 z m -10,4 c -0.8225,0 -1.5,0.6775 -1.5,1.5 0,0.8225 0.6775,1.5 1.5,1.5 0.8225,0 1.5,-0.6775 1.5,-1.5 0,-0.8225 -0.6775,-1.5 -1.5,-1.5 z m 5,0 c -0.8225,0 -1.5,0.6775 -1.5,1.5 0,0.8225 0.6775,1.5 1.5,1.5 0.8225,0 1.5,-0.6775 1.5,-1.5 0,-0.8225 -0.6775,-1.5 -1.5,-1.5 z m 5,0 c -0.8225,0 -1.5,0.6775 -1.5,1.5 0,0.8225 0.6775,1.5 1.5,1.5 0.8225,0 1.5,-0.6775 1.5,-1.5 0,-0.8225 -0.6775,-1.5 -1.5,-1.5 z m -10,1 c 0.28207,0 0.5,0.21794 0.5,0.5 0,0.28206 -0.21793,0.5 -0.5,0.5 -0.28207,0 -0.5,-0.21794 -0.5,-0.5 0,-0.28206 0.21793,-0.5 0.5,-0.5 z m 5,0 c 0.28207,0 0.5,0.21794 0.5,0.5 0,0.28206 -0.21793,0.5 -0.5,0.5 -0.28207,0 -0.5,-0.21794 -0.5,-0.5 0,-0.28206 0.21793,-0.5 0.5,-0.5 z m 5,0 c 0.28207,0 0.5,0.21794 0.5,0.5 0,0.28206 -0.21793,0.5 -0.5,0.5 -0.28207,0 -0.5,-0.21794 -0.5,-0.5 0,-0.28206 0.21793,-0.5 0.5,-0.5 z" id="ellipse19010-6-5"></path>
  </g>
</svg>