<svg xmlns="http://www.w3.org/2000/svg" style="background: #808080" height="64" width="64" viewBox="423 365 20 20">
  <g id="g98804" style="" data-label="R-21">
    <path style="color: rgb(0, 0, 0); fill: #ffffff; stroke-linecap: round; stroke-linejoin: round;" d="M 431.51758,369.26562 C 429.42795,369.91461 428,371.85293 428,374.04102 V 376 c 0,1.78552 0.9537,3.43731 2.5,4.33008 1.54631,0.89277 3.45369,0.89277 5,0 1.5463,-0.89277 2.5,-2.54456 2.5,-4.33008 v -0.5 a 0.50004997,0.50004997 0 0 0 -0.5,-0.5 h -4 a 0.50004997,0.50004997 0 1 0 0,1 h 3.5 c 0,1.42986 -0.7617,2.74991 -2,3.46484 -1.23829,0.71494 -2.76171,0.71494 -4,0 -1.2383,-0.71493 -2,-2.03498 -2,-3.46484 v -1.95898 c 0,-1.75422 1.13918,-3.30002 2.81445,-3.82032 1.69498,-0.52641 3.36746,-0.003 4.25196,1.5293 a 0.50050004,0.50050004 0 1 0 0.86718,-0.5 c -1.1155,-1.93212 -3.34609,-2.62724 -5.41601,-1.98438 z" id="path13141"></path>
  </g>
</svg>