<svg xmlns="http://www.w3.org/2000/svg" height="64" width="64" viewBox="444 365 20 20">
  <g id="g98798" style="" data-label="R-22">
    <path style="color: rgb(0, 0, 0); fill: #ffffff; stroke-linecap: round; stroke-linejoin: round;" d="m 449.50391,369 c -0.27613,3e-5 -0.49997,0.22387 -0.5,0.5 v 11 c 3e-5,0.27613 0.22387,0.49997 0.5,0.5 H 455 c 1.08333,0 2.07323,-0.26796 2.8125,-0.85938 C 458.55177,379.54921 459,378.625 459,377.5 c 0,-1.125 -0.44823,-2.04921 -1.1875,-2.64062 -0.49098,-0.39279 -1.11527,-0.59695 -1.78125,-0.72071 C 456.61178,373.63193 457,372.89881 457,372 c 0,-0.96354 -0.41934,-1.76349 -1.07422,-2.26758 C 455.27091,369.22833 454.41324,369 453.5,369 Z m 0.5,1 H 453.5 c 0.74361,0 1.38549,0.19369 1.81641,0.52539 0.43091,0.3317 0.68359,0.7813 0.68359,1.47461 0,0.69331 -0.25268,1.14291 -0.68359,1.47461 C 454.88549,373.80631 454.24361,374 453.5,374 h -3.49609 z m 0,5 h 3.46093 0.0352 1.5 c 0.91667,0 1.67677,0.23204 2.1875,0.64062 0.51073,0.40859 0.8125,0.98438 0.8125,1.85938 0,0.875 -0.30177,1.45079 -0.8125,1.85938 C 456.67677,379.76796 455.91667,380 455,380 h -4.99609 z" id="path10949-7"></path>
  </g>
</svg>