<svg xmlns="http://www.w3.org/2000/svg" height="64" width="64" viewBox="45 365 20 20">
  <g style="fill: #ffffff;" id="g14390" transform="translate(-294,63)" data-label="R-3">
    <path style="color: rgb(0, 0, 0); fill: #ffffff; stroke-linecap: round; stroke-linejoin: round;" d="m 347.50586,306 c -0.31034,2.7e-4 -0.5455,0.28021 -0.49219,0.58594 0.36436,2.07324 0.1958,3.10943 -0.10742,3.63086 -0.30322,0.52143 -0.79091,0.68645 -1.46094,0.9414 -0.67003,0.25495 -1.50865,0.62325 -1.98242,1.58985 -0.47377,0.96659 -0.59114,2.40736 -0.20703,4.83007 0.0385,0.24306 0.24806,0.422 0.49414,0.42188 h 6.75586 c 0.30739,1.4e-4 0.54213,-0.27449 0.49414,-0.57812 -0.369,-2.32739 -0.20658,-3.57589 0.11523,-4.23438 0.32182,-0.65849 0.7931,-0.85067 1.43555,-1.0957 0.64245,-0.24504 1.46993,-0.51949 1.96484,-1.37305 0.49492,-0.85356 0.6091,-2.12804 0.22657,-4.30469 C 354.70043,306.17484 354.49284,306.0002 354.25,306 Z" id="path14318"></path>
    <path style="color: rgb(0, 0, 0); opacity: 0.6; fill: #ffffff; stroke-width: 1px; stroke-linecap: round; stroke-linejoin: round;" d="m 342.49805,304.99414 a 0.50005,0.50005 0 0 0 -0.5,0.5 v 2 a 0.50005,0.50005 0 0 0 0.5,0.5 h 2 a 0.50005,0.50005 0 0 0 0.5,-0.5 v -2 a 0.50005,0.50005 0 0 0 -0.5,-0.5 z m 0.5,1 h 1 v 1 h -1 z m 10.50976,10 a 0.50005,0.50005 0 0 0 -0.5,0.5 v 2 a 0.50005,0.50005 0 0 0 0.5,0.5 h 2 a 0.50005,0.50005 0 0 0 0.5,-0.5 v -2 a 0.50005,0.50005 0 0 0 -0.5,-0.5 z m 0.5,1 h 1 v 1 h -1 z" id="path14320"></path>
  </g>
</svg>