<svg xmlns="http://www.w3.org/2000/svg" style="background: #808080" height="64" width="64" viewBox="108 365 20 20">
  <g style="fill: #ffffff;" id="g14344" transform="translate(-168,63)" data-label="R-6">
    <path style="color: rgb(0, 0, 0); fill: #ffffff; fill-rule: evenodd; stroke-linecap: round; stroke-linejoin: round;" d="m 286,307 c -1.846,0 -3.56208,0.52582 -4.8457,1.40625 C 279.87068,309.28668 279,310.55671 279,312 c 0,1.44329 0.87068,2.71332 2.1543,3.59375 C 282.43792,316.47418 284.154,317 286,317 c 1.846,0 3.56208,-0.52582 4.8457,-1.40625 C 292.12932,314.71332 293,313.44329 293,312 c 0,-1.44329 -0.87068,-2.71332 -2.1543,-3.59375 C 289.56208,307.52582 287.846,307 286,307 Z m 2.49219,3.61719 A 0.50005,0.50005 0 0 1 289,311.125 c 0,0.62131 -0.43923,1.10886 -0.98438,1.41016 C 287.47049,312.83646 286.77233,313 286,313 c -0.77233,0 -1.47049,-0.16354 -2.01562,-0.46484 C 283.43923,312.23386 283,311.74631 283,311.125 a 0.50005,0.50005 0 0 1 0.49414,-0.50586 A 0.50005,0.50005 0 0 1 284,311.125 c 0,0.13737 0.11369,0.33891 0.46875,0.53516 C 284.82381,311.85641 285.37451,312 286,312 c 0.62549,0 1.17619,-0.14359 1.53125,-0.33984 C 287.88631,311.46391 288,311.26237 288,311.125 a 0.50005,0.50005 0 0 1 0.49219,-0.50781 z" id="path13633"></path>
    <path style="color: rgb(0, 0, 0); opacity: 0.6; fill: #ffffff; stroke-width: 1px; stroke-linecap: round; stroke-linejoin: round;" d="m 279.49805,304.99414 a 0.50005,0.50005 0 0 0 -0.5,0.5 v 2 a 0.50005,0.50005 0 0 0 0.5,0.5 h 1 a 0.50005,0.50005 0 1 0 0,-1 h -0.5 v -1 h 1 v 0.5 a 0.50005,0.50005 0 1 0 1,0 v -1 a 0.50005,0.50005 0 0 0 -0.5,-0.5 z m 11.00976,0 a 0.50005,0.50005 0 0 0 -0.5,0.5 v 1 a 0.50005,0.50005 0 1 0 1,0 v -0.5 h 1 v 1 h -0.5 a 0.50005,0.50005 0 1 0 0,1 h 1 a 0.50005,0.50005 0 0 0 0.5,-0.5 v -2 a 0.50005,0.50005 0 0 0 -0.5,-0.5 z m -11.00976,11 a 0.50005,0.50005 0 0 0 -0.5,0.5 v 2 a 0.50005,0.50005 0 0 0 0.5,0.5 h 2 a 0.50005,0.50005 0 0 0 0.5,-0.5 v -1 a 0.50005,0.50005 0 1 0 -1,0 v 0.5 h -1 v -1 h 0.5 a 0.50005,0.50005 0 1 0 0,-1 z m 12.00976,0 a 0.50005,0.50005 0 1 0 0,1 h 0.5 v 1 h -1 v -0.5 a 0.50005,0.50005 0 1 0 -1,0 v 1 a 0.50005,0.50005 0 0 0 0.5,0.5 h 2 a 0.50005,0.50005 0 0 0 0.5,-0.5 v -2 a 0.50005,0.50005 0 0 0 -0.5,-0.5 z" id="path14324"></path>
  </g>
</svg>