<svg xmlns="http://www.w3.org/2000/svg" height="64" width="64" viewBox="129 365 20 20">
  <g style="opacity: 0.99; fill: #ffffff;" transform="translate(-357,168)" id="g23559" data-label="R-7">
    <path style="fill: #ffffff; stroke-width: 1px; stroke-linecap: round; stroke-linejoin: round;" d="M 495.49219,199.99219 A 0.50005,0.50005 0 0 0 495,200.5 v 6.79297 l -3.85352,3.85351 a 0.50005,0.50005 0 1 0 0.70704,0.70704 L 495.70703,208 H 502.5 a 0.50005,0.50005 0 1 0 0,-1 H 496 v -6.5 a 0.50005,0.50005 0 0 0 -0.50781,-0.50781 z" id="path23553"></path>
    <path style="opacity: 0.6; fill: #ffffff; stroke-width: 1px; stroke-linecap: round; stroke-linejoin: round;" d="m 499.49023,202.99609 a 0.50005,0.50005 0 0 0 -0.34375,0.15039 l -2,2 a 0.50005,0.50005 0 1 0 0.70704,0.70704 l 2,-2 a 0.50005,0.50005 0 0 0 -0.36329,-0.85743 z M 489.5,207 a 0.50005,0.50005 0 1 0 0,1 h 3.25 a 0.50005,0.50005 0 1 0 0,-1 z m 5.99219,2.74219 A 0.50005,0.50005 0 0 0 495,210.25 v 3.25 a 0.50005,0.50005 0 1 0 1,0 v -3.25 a 0.50005,0.50005 0 0 0 -0.50781,-0.50781 z" id="path23557"></path>
  </g>
</svg>