<svg xmlns="http://www.w3.org/2000/svg" style="background: #808080" height="64" width="64" viewBox="150 365 20 20">
  <g id="g98807" style="" data-label="R-8">
    <path style="color: rgb(0, 0, 0); fill: #ffffff; stroke-linecap: round;" d="m 163.00977,368 c -1.1753,0 -2.25213,0.41841 -2.88477,1.18164 a 0.50005,0.50005 0 1 0 0.76953,0.63672 C 161.27001,369.36537 162.08306,369 163.00977,369 h 1.5 a 0.50005,0.50005 0 1 0 0,-1 z m -1.44141,3.00391 c -1.72788,-0.20328 -3.32792,0.12142 -4.53125,0.90234 -1.20333,0.78092 -1.99513,2.0489 -2.02734,3.58398 v 0.004 0.006 c 0,1.08246 0.28424,1.81368 0.53711,2.38867 0.25286,0.575 0.45312,0.97127 0.45312,1.61133 0,0.46148 -0.10735,0.76987 -0.43555,1.02734 -0.3282,0.25748 -0.96151,0.47266 -2.05468,0.47266 a 0.50005,0.50005 0 1 0 0,1 c 1.21947,0 2.08348,-0.22395 2.67187,-0.68555 C 156.77003,380.85286 157,380.16225 157,379.5 c 0,-0.85994 -0.29523,-1.46367 -0.53711,-2.01367 -0.24115,-0.54835 -0.44991,-1.06809 -0.45117,-1.98047 0.0269,-1.212 0.60444,-2.1349 1.57031,-2.76172 0.96712,-0.62763 2.33652,-0.92835 3.86914,-0.74805 1.98998,0.23412 3.41358,1.22813 4.10352,2.33203 0.68994,1.10391 0.68215,2.23778 -0.14844,3.06836 -0.83795,0.83796 -1.98844,0.89361 -3.08398,0.26368 -1.09554,-0.62994 -2.08047,-1.9799 -2.31446,-3.96875 a 0.50051111,0.50051111 0 1 0 -0.99414,0.11718 c 0.26602,2.26115 1.40609,3.91119 2.81055,4.71875 1.40446,0.80757 3.12702,0.73822 4.28906,-0.42382 1.16941,-1.16942 1.16162,-2.91055 0.28906,-4.30664 -0.87256,-1.3961 -2.57396,-2.52709 -4.83398,-2.79297 z" id="path23575"></path>
  </g>
</svg>