<svg xmlns="http://www.w3.org/2000/svg" height="64" width="64" viewBox="171 365 20 20">
  <g transform="translate(147)" id="g12973-3-2" style="fill: #ffffff;" data-label="R-9">
    <path style="fill: #ffffff; stroke-linecap: round; stroke-linejoin: round;" d="m 178.49219,368 a 0.50005,0.50005 0 0 0 -0.34571,0.14648 l -2,2 a 0.50005,0.50005 0 1 0 0.70704,0.70704 L 178,369.70703 v 7.58594 l -3,3 V 378.5 A 0.50005,0.50005 0 0 0 174.49219,377.99219 0.50005,0.50005 0 0 0 174,378.5 v 3 a 0.50005,0.50005 0 0 0 0.5,0.5 h 3 a 0.50005,0.50005 0 1 0 0,-1 h -1.79297 l 3,-3 h 7.58594 l -1.14649,1.14648 a 0.50005,0.50005 0 1 0 0.70704,0.70704 l 2,-2 a 0.50005,0.50005 0 0 0 0,-0.70704 l -2,-2 a 0.50005,0.50005 0 0 0 -0.35938,-0.15234 0.50005,0.50005 0 0 0 -0.34766,0.85938 L 186.29297,377 H 179 v -7.29297 l 1.14648,1.14649 a 0.50005,0.50005 0 1 0 0.70704,-0.70704 l -2,-2 A 0.50005,0.50005 0 0 0 178.49219,368 Z" transform="translate(-147)" id="path12965-4-0"></path>
  </g>
</svg>