<svg xmlns="http://www.w3.org/2000/svg" height="64" width="64" viewBox="192 386 20 20">
  <g id="g91510" style="" data-label="S-10">
    <path style="fill: #ffffff; stroke-linecap: round; stroke-linejoin: round;" d="m 201.5,389 a 0.50005,0.50005 0 0 0 -0.41406,0.2207 l -5.75,8.5 a 0.50005,0.50005 0 0 0 -0.0254,0.041 C 195.09791,398.15241 195,398.57992 195,399 c 0,1.21742 0.89627,2.23231 2.16602,2.91602 C 198.43576,402.59972 200.13233,403 202,403 c 1.86767,0 3.56424,-0.40028 4.83398,-1.08398 C 208.10373,401.23231 209,400.21742 209,399 c 0,-0.41956 -0.0964,-0.84696 -0.3125,-1.24023 a 0.50005,0.50005 0 0 0 -0.0234,-0.0391 l -5.75,-8.5 A 0.50005,0.50005 0 0 0 202.5,389 Z m 0.26562,1 h 0.46876 l 5.58007,8.24805 C 207.94195,398.48303 208,398.73145 208,399 c 0,0.71558 -0.55783,1.45211 -1.64062,2.03516 C 205.27658,401.6182 203.72216,402 202,402 c -1.72216,0 -3.27658,-0.3818 -4.35938,-0.96484 C 196.55783,400.45211 196,399.71558 196,399 c 0,-0.26272 0.0617,-0.52241 0.1875,-0.75586 z" id="path17361"></path>
  </g>
</svg>