<svg xmlns="http://www.w3.org/2000/svg" style="background: #808080" height="64" width="64" viewBox="213 386 20 20">
  <g id="g91498" style="" data-label="S-11">
    <path style="color: rgb(0, 0, 0); fill: #ffffff; stroke-linecap: round; stroke-linejoin: round;" d="m 225.02539,389.05664 c -1.23014,0.0645 -2.42356,0.6345 -3.37891,1.58984 l -4,4 c -0.95534,0.95535 -1.53001,2.15146 -1.59765,3.38477 -0.0676,1.23331 0.38786,2.49571 1.41406,3.50977 1.02392,1.0118 2.28158,1.46686 3.51172,1.40234 1.23014,-0.0645 2.42356,-0.6345 3.37891,-1.58984 l 4,-4 c 0.95534,-0.95535 1.53001,-2.15146 1.59765,-3.38477 0.0676,-1.23331 -0.38786,-2.49571 -1.41406,-3.50977 -1.02392,-1.0118 -2.28158,-1.46686 -3.51172,-1.40234 z m 0.0527,0.99805 c 0.95617,-0.0502 1.91199,0.28134 2.75586,1.11523 0.8416,0.83164 1.17171,1.78562 1.11914,2.74414 -0.0526,0.95853 -0.50462,1.93041 -1.30664,2.73242 l -4,4 c -0.80201,0.80202 -1.76844,1.24868 -2.7246,1.29883 -0.95617,0.0502 -1.91199,-0.28134 -2.75586,-1.11523 -0.8416,-0.83164 -1.17171,-1.78562 -1.11914,-2.74414 0.0526,-0.95853 0.50462,-1.93041 1.30664,-2.73242 l 4,-4 c 0.80201,-0.80202 1.76844,-1.24868 2.7246,-1.29883 z" id="path14559-9"></path>
  </g>
</svg>