<svg xmlns="http://www.w3.org/2000/svg" height="64" width="64" viewBox="276 386 20 20">
  <g id="g12575" transform="matrix(0.866667,0,0,0.866667,-253.074,16.4072)" style="fill: #ffffff; stroke-width: 1.15385;" data-label="S-14">
    <path style="color: rgb(0, 0, 0); fill: #ffffff; stroke-linecap: round; stroke-linejoin: round;" d="m 285.49219,388.99219 c -0.2763,0.004 -0.49651,0.23152 -0.49219,0.50781 v 2.6543 c -0.76567,0.19832 -1.43883,0.61396 -1.95508,1.18359 l -2.1914,-2.19141 c -0.0944,-0.0966 -0.22433,-0.15264 -0.35938,-0.15234 -0.4485,2.4e-4 -0.66889,0.54638 -0.34766,0.85938 l 2.32032,2.32031 C 282.17933,394.72335 282.0013,395.33918 282,396 h -2.5 c -0.66693,0 -0.66693,1 0,1 h 2.64062 c 0.19916,0.76891 0.61811,1.44388 1.19141,1.96094 l -2.18555,2.18554 c -0.4717,0.4717 0.23534,1.17874 0.70704,0.70704 l 2.3164,-2.31641 c 0.54947,0.28561 1.16223,0.46289 1.82227,0.46289 0.003,0 0.005,10e-6 0.008,0 v 2.5 c 0,0.66693 1,0.66693 1,0 v -2.64648 c 0.76569,-0.20169 1.4388,-0.6203 1.95312,-1.19336 l 2.19336,2.19336 c 0.47143,0.50593 1.2141,-0.23683 0.70704,-0.70704 l -2.32422,-2.32421 c 0.28283,-0.54738 0.45703,-1.15786 0.45703,-1.81446 0,-0.003 0,-0.005 0,-0.008 H 292.5 c 0.66693,0 0.66693,-1 0,-1 h -2.66016 c -0.20083,-0.76245 -0.61615,-1.43374 -1.18554,-1.94727 l 2.19922,-2.19921 c 0.32695,-0.31816 0.0927,-0.87325 -0.36329,-0.85938 -0.12999,0.004 -0.25338,0.0589 -0.34375,0.15234 l -2.33007,2.33008 C 287.26914,392.1921 286.6571,392.01496 286,392.01367 V 389.5 c 0.004,-0.28226 -0.22555,-0.51222 -0.50781,-0.50781 z m 0.5,4.02148 c 1.65884,0 2.99414,1.3353 2.99414,2.99414 0,1.65885 -1.3353,2.99219 -2.99414,2.99219 C 284.33334,399 283,397.66666 283,396.00781 c 0,-1.65884 1.33334,-2.99414 2.99219,-2.99414 z" transform="matrix(1.15385,0,0,1.15385,292.008,-18.9314)" id="circle12556"></path>
  </g>
</svg>