<svg xmlns="http://www.w3.org/2000/svg" style="background: #808080" height="64" width="64" viewBox="283 368 20 20">
  <g style="fill: #ffffff;" id="g12687" transform="translate(-1.85367e-6,42)" data-label="S-15">
    <path style="color: rgb(0, 0, 0); fill: #ffffff; stroke-linecap: round; stroke-linejoin: round; marker: none;" d="m 313.48633,389.00977 a 0.50005,0.50005 0 0 0 -0.13281,0.0156 l -10.64454,2.70117 a 0.50005,0.50005 0 0 0 -0.0176,0.006 c -0.39202,0.1157 -0.73529,0.32904 -1.00782,0.60156 -0.57977,0.57978 -0.79354,1.4303 -0.73828,2.33399 0.0553,0.90369 0.37679,1.88678 0.94141,2.83789 a 0.50005,0.50005 0 0 0 0,0.002 c 0.0547,0.092 0.11038,0.1837 0.16992,0.27539 a 0.50056694,0.50056694 0 1 0 0.83984,-0.54492 c -0.0521,-0.0802 -0.10227,-0.16121 -0.15039,-0.24219 -0.4939,-0.83198 -0.75942,-1.68043 -0.80273,-2.38867 -0.0433,-0.70823 0.13039,-1.24953 0.44726,-1.5664 0.16272,-0.16272 0.36207,-0.28412 0.58399,-0.34961 l 9.81055,-2.49024 -2.49024,9.81445 c -0.0654,0.2249 -0.18247,0.41294 -0.34961,0.58008 -0.32315,0.32316 -0.90925,0.49604 -1.67187,0.42578 -0.76263,-0.0702 -1.66859,-0.38268 -2.52735,-0.93164 a 0.50005,0.50005 0 1 0 -0.53906,0.8418 c 0.97998,0.62645 2.02029,0.99785 2.97656,1.08594 0.95627,0.0881 1.86106,-0.10716 2.46875,-0.71485 0.27194,-0.27193 0.4884,-0.61189 0.60352,-1.00781 a 0.50005,0.50005 0 0 0 0.004,-0.0176 l 2.70117,-10.64453 a 0.50005,0.50005 0 0 0 -0.47461,-0.62304 z M 308,393.99414 a 1,1 0 0 0 -1,1 1,1 0 0 0 0.0352,0.25586 l -0.88868,0.88867 a 0.50005,0.50005 0 1 0 0.70704,0.70703 l 0.88671,-0.88672 a 1,1 0 0 0 0.25977,0.0352 1,1 0 0 0 1,-1 1,1 0 0 0 -1,-1 z m -3.50977,3.99219 a 0.50005,0.50005 0 0 0 -0.34375,0.15234 l -1,1 a 0.50005,0.50005 0 1 0 0.70704,0.70703 l 1,-1 a 0.50005,0.50005 0 0 0 -0.36329,-0.85937 z m -3.00195,3 a 0.50005,0.50005 0 0 0 -0.3418,0.15234 l -1,1.00391 a 0.50005,0.50005 0 1 0 0.70704,0.70508 l 1,-1.00391 a 0.50005,0.50005 0 0 0 -0.36524,-0.85742 z" transform="translate(1.85367e-6,-42)" id="path7527-5"></path>
  </g>
</svg>