<svg xmlns="http://www.w3.org/2000/svg" style="background: #808080" height="64" width="64" viewBox="318 386 20 20">
  <g style="fill: #ffffff;" id="g12682" transform="translate(-1.85367e-6,42)" data-label="S-16">
    <path style="color: rgb(0, 0, 0); fill: #ffffff; stroke-linecap: round; stroke-linejoin: round;" d="m 325.05469,389.00391 c -0.66782,-0.018 -1.21728,4.6e-4 -1.57813,0.002 h -0.002 c -0.34416,2.5e-4 -0.65424,0.0639 -0.91602,0.22852 -0.2623,0.16491 -0.44433,0.43888 -0.51367,0.7207 -0.13867,0.56363 0.037,1.13654 0.3125,1.76758 0.55094,1.26206 1.63318,2.77176 2.73438,4.10351 a 0.50004997,0.50004997 0 1 0 0.76953,-0.63867 c -1.06758,-1.2911 -2.11546,-2.78301 -2.58789,-3.86523 -0.23622,-0.54112 -0.29509,-0.9754 -0.25782,-1.12696 0.0186,-0.0758 0.0265,-0.0852 0.0742,-0.11523 0.0478,-0.03 0.16614,-0.0742 0.38672,-0.0742 a 0.50004997,0.50004997 0 0 0 0.002,0 c 1.54352,-0.006 5.58742,-0.20164 8.14453,2.35547 2.5571,2.5571 2.35972,6.59906 2.35351,8.14258 a 0.50004997,0.50004997 0 0 0 0,0.002 c 0,0.22058 -0.0442,0.33897 -0.0742,0.38672 -0.03,0.0477 -0.0375,0.0575 -0.11328,0.0762 -0.15155,0.0373 -0.58779,-0.0216 -1.1289,-0.25781 -1.08223,-0.47244 -2.57414,-1.52227 -3.86524,-2.58985 a 0.50015227,0.50015227 0 1 0 -0.63672,0.77149 c 1.33176,1.1012 2.8395,2.18343 4.10157,2.73437 0.63103,0.27547 1.20395,0.45117 1.76757,0.3125 0.28182,-0.0693 0.55774,-0.25136 0.72266,-0.51367 0.16426,-0.26126 0.22607,-0.57268 0.22656,-0.91601 v -0.004 c 0.006,-1.44452 0.29493,-5.9121 -2.64648,-8.85352 -2.20662,-2.20661 -5.27193,-2.59451 -7.27539,-2.64843 z m 3.95117,4.99023 a 1,1 0 0 0 -1,1 1,1 0 0 0 0.0332,0.25781 l -0.88672,0.88672 a 0.50005,0.50005 0 1 0 0.70704,0.70703 l 0.88671,-0.88672 a 1,1 0 0 0 0.25977,0.0352 1,1 0 0 0 1,-1 1,1 0 0 0 -1,-1 z m -3.50977,3.99219 a 0.50005,0.50005 0 0 0 -0.34375,0.15234 l -1,1 a 0.50005,0.50005 0 1 0 0.70704,0.70703 l 1,-1 a 0.50005,0.50005 0 0 0 -0.36329,-0.85937 z m -3.00195,3 a 0.50005,0.50005 0 0 0 -0.34375,0.15234 l -1,1.00391 a 0.50005,0.50005 0 1 0 0.70899,0.70508 l 1,-1.00391 a 0.50005,0.50005 0 0 0 -0.36524,-0.85742 z" transform="translate(1.85367e-6,-42)" id="path7537-6"></path>
  </g>
</svg>