<svg xmlns="http://www.w3.org/2000/svg" style="background: #808080" height="64" width="64" viewBox="339 386 20 20">
  <g style="fill: #ffffff;" id="g12674" transform="translate(-1.85367e-6,63)" data-label="S-17">
    <path style="fill: #ffffff; stroke-linecap: round; stroke-linejoin: round; stroke-miterlimit: 3.7;" d="m 343.50586,388.99219 a 0.50005,0.50005 0 0 0 -0.35547,0.14648 l -1.00391,1.00781 a 0.50005,0.50005 0 0 0 -0.0937,0.57618 l 3,6 a 0.50005,0.50005 0 1 0 0.89454,-0.44532 l -2.83985,-5.67968 0.60547,-0.60547 h 6.4707 l 4.72266,10.39062 -0.60937,0.60938 -5.98633,0.008 -0.35743,-0.72656 a 0.50005,0.50005 0 1 0 -0.89648,0.4414 l 0.49414,1.00586 A 0.50005,0.50005 0 0 0 348,402 l 6.50586,-0.008 a 0.50005,0.50005 0 0 0 0.35352,-0.14649 l 1,-1 a 0.50005,0.50005 0 0 0 0.10156,-0.56054 l -5,-11 a 0.50005,0.50005 0 0 0 -0.45508,-0.29297 z m 5.5,6.00195 a 1,1 0 0 0 -1,1 1,1 0 0 0 0.0332,0.25977 l -0.14258,0.14257 a 0.50005,0.50005 0 1 0 0.70704,0.70704 l 0.14453,-0.14454 a 1,1 0 0 0 0.25781,0.0352 1,1 0 0 0 1,-1 1,1 0 0 0 -1,-1 z m -2.50977,2.99219 a 0.50005,0.50005 0 0 0 -0.34375,0.15234 l -1,1 a 0.50005,0.50005 0 1 0 0.70704,0.70703 l 1,-1 a 0.50005,0.50005 0 0 0 -0.36329,-0.85937 z m -3.00195,3 a 0.50005,0.50005 0 0 0 -0.34375,0.15234 l -1,1.00391 a 0.50005,0.50005 0 1 0 0.70899,0.70508 l 1,-1.00391 a 0.50005,0.50005 0 0 0 -0.36524,-0.85742 z" transform="translate(1.85367e-6,-63)" id="circle12662"></path>
  </g>
</svg>