<svg xmlns="http://www.w3.org/2000/svg" height="64" width="64" viewBox="423 386 20 20">
  <g id="g91501" style="" data-label="S-21">
    <path style="color: rgb(0, 0, 0); fill: #ffffff; stroke-linecap: round; stroke-linejoin: round;" d="M 429.50781,389 C 427.57283,389 426,390.57283 426,392.50781 v 6.98438 c 0,1.93498 1.57283,3.50781 3.50781,3.50781 h 6.98438 C 438.42717,403 440,401.42717 440,399.49219 v -6.98438 C 440,390.57283 438.42717,389 436.49219,389 Z m 0,1 h 6.98438 c 1.39828,0 2.50781,1.10953 2.50781,2.50781 v 6.98438 C 439,400.89047 437.89047,402 436.49219,402 h -6.98438 C 428.10953,402 427,400.89047 427,399.49219 v -6.98438 C 427,391.10953 428.10953,390 429.50781,390 Z" id="rect14490"></path>
  </g>
</svg>