<svg xmlns="http://www.w3.org/2000/svg" height="64" width="64" viewBox="444 386 20 20">
  <g id="g6251" style="fill: #ffffff;" data-label="S-22">
    <path id="path14492-1-5" d="m 452.5,389 c -0.79539,1.6e-4 -1.5587,0.31644 -2.12109,0.87891 l -2.5,2.5 C 447.31644,392.9413 447.00016,393.70461 447,394.5 v 5.5 c 1.7e-4,1.65084 1.34916,2.99983 3,3 h 5.5 c 0.79539,-1.6e-4 1.5587,-0.31644 2.12109,-0.87891 l 2.5,-2.5 c 0.56247,-0.56238 0.87875,-1.3257 0.87891,-2.12109 v -5.75 c -8e-5,-0.79524 -0.25969,-1.50187 -0.75391,-1.99609 C 459.75187,389.25969 459.04524,389.00008 458.25,389 Z m 0,1 h 5.75 c 0.58541,6e-5 1.00348,0.17535 1.28906,0.46094 0.28559,0.28558 0.46088,0.70365 0.46094,1.28906 v 5.75 c -10e-5,0.53061 -0.21073,1.03891 -0.58594,1.41406 l -2.5,2.5 C 456.53889,401.78928 456.03061,401.9999 455.5,402 H 450 c -1.11046,-1.1e-4 -1.99989,-0.88954 -2,-2 v -5.5 c 10e-5,-0.53061 0.21072,-1.03889 0.58594,-1.41406 l 2.5,-2.5 C 451.46111,390.21072 451.96939,390.0001 452.5,390 Z" style="color: rgb(0, 0, 0); fill: #ffffff; stroke-linecap: round; stroke-linejoin: round;"></path>
    <path id="path14494-2" d="m 458.49023,390.99609 a 0.50005,0.50005 0 0 0 -0.34375,0.15039 l -1,1 a 0.50005,0.50005 0 1 0 0.70704,0.70704 l 1,-1 a 0.50005,0.50005 0 0 0 -0.36329,-0.85743 z M 450.5,393 a 0.50005,0.50005 0 1 0 0,1 h 4 a 0.50005,0.50005 0 1 0 0,-1 z m 5.99219,1.99219 A 0.50005,0.50005 0 0 0 456,395.5 v 4 a 0.50005,0.50005 0 1 0 1,0 v -4 a 0.50005,0.50005 0 0 0 -0.50781,-0.50781 z" style="color: rgb(0, 0, 0); opacity: 0.8; fill: #ffffff; stroke-linecap: round; stroke-linejoin: round;"></path>
  </g>
</svg>