<svg xmlns="http://www.w3.org/2000/svg" height="64" width="64" viewBox="465 386 20 20">
  <g id="g6259" style="fill: #ffffff;" data-label="S-23">
    <path id="path14478-2" d="m 475,388.9375 c -3.89459,0 -7.0625,3.1679 -7.0625,7.0625 0,3.89459 3.16791,7.0625 7.0625,7.0625 3.89459,0 7.0625,-3.16791 7.0625,-7.0625 0,-3.8946 -3.16791,-7.0625 -7.0625,-7.0625 z m 0,1 c 3.35415,0 6.0625,2.70834 6.0625,6.0625 0,3.35415 -2.70835,6.0625 -6.0625,6.0625 -3.35415,0 -6.0625,-2.70835 -6.0625,-6.0625 0,-3.35416 2.70835,-6.0625 6.0625,-6.0625 z" style="fill: #ffffff; fill-rule: evenodd; stroke-linecap: round; stroke-linejoin: round;"></path>
    <path id="path14482" d="m 474.47656,390.74414 a 0.50005,0.50005 0 0 0 -0.40039,0.24024 C 473.18442,392.40936 473,393.97991 473,396 c 0,1.96736 0.17366,3.58622 1.07617,5.01758 a 0.50122941,0.50122941 0 1 0 0.84766,-0.53516 C 474.1712,399.28878 474,397.90804 474,396 c 0,-1.96025 0.17286,-3.28436 0.92383,-4.48438 a 0.50005,0.50005 0 0 0 -0.44727,-0.77148 z" style="opacity: 0.8; fill: #ffffff; fill-rule: evenodd; stroke-linecap: round; stroke-linejoin: round;"></path>
  </g>
</svg>