<svg xmlns="http://www.w3.org/2000/svg" style="background: #808080" height="64" width="64" viewBox="463 368 20 20">
  <g id="g6267" style="fill: #ffffff;" data-label="S-24">
    <path id="path14468-2" d="m 499.91406,389.05664 c -0.77439,-0.15321 -1.63518,-0.1241 -2.51367,0.0664 -1.75698,0.38102 -3.63558,1.4051 -5.25391,3.02343 -1.61833,1.61833 -2.64241,3.49693 -3.02343,5.25391 -0.38103,1.75698 -0.11706,3.43764 0.96093,4.51563 1.07799,1.07798 2.75865,1.34196 4.51563,0.96093 1.75698,-0.38102 3.63558,-1.40511 5.25391,-3.02343 1.61832,-1.61833 2.64241,-3.49693 3.02343,-5.25391 0.38102,-1.75698 0.11705,-3.43764 -0.96093,-4.51563 -0.539,-0.53899 -1.22757,-0.87413 -2.00196,-1.02734 z m -0.21289,0.97656 c 0.61146,0.11888 1.12564,0.37564 1.50781,0.75782 0.76435,0.76434 1.0245,2.05973 0.69141,3.5957 -0.33309,1.53597 -1.26116,3.26702 -2.75391,4.75976 -1.49274,1.49275 -3.22379,2.42081 -4.75976,2.75391 -1.53597,0.3331 -2.83136,0.0729 -3.5957,-0.69141 -0.76435,-0.76434 -1.02451,-2.05973 -0.69141,-3.5957 0.33309,-1.53597 1.26117,-3.26702 2.75391,-4.75976 1.49274,-1.49275 3.22379,-2.42082 4.75976,-2.75391 0.76799,-0.16655 1.47643,-0.18529 2.08789,-0.0664 z" style="color: rgb(0, 0, 0); fill: #ffffff; fill-rule: evenodd; stroke-linecap: round; stroke-linejoin: round; marker: none;"></path>
    <path id="path14550" d="m 493.47266,393.99414 a 0.50005,0.50005 0 0 0 -0.45899,0.62305 c 0.22122,0.92011 0.78151,1.92168 1.64063,2.74414 0.81151,0.77689 1.74924,1.41197 2.74023,1.62695 a 0.50005,0.50005 0 1 0 0.21094,-0.97656 c -0.70573,-0.1531 -1.535,-0.67922 -2.25977,-1.37305 -0.71878,-0.6881 -1.19119,-1.55637 -1.35937,-2.25586 a 0.50005,0.50005 0 0 0 -0.51367,-0.38867 z" style="color: rgb(0, 0, 0); opacity: 0.8; fill: #ffffff; fill-rule: evenodd; stroke-linecap: round; stroke-linejoin: round; marker: none;"></path>
  </g>
</svg>