<svg xmlns="http://www.w3.org/2000/svg" height="64" width="64" viewBox="66 386 20 20">
  <g id="g6304" style="fill: #ffffff;" data-label="S-4">
    <path id="path17418-8" d="m 76,388.9375 c -3.894591,0 -7.0625,3.1679 -7.0625,7.0625 0,3.89459 3.167908,7.0625 7.0625,7.0625 3.894592,0 7.0625,-3.16791 7.0625,-7.0625 0,-3.8946 -3.167909,-7.0625 -7.0625,-7.0625 z m 0,1 c 3.354153,0 6.0625,2.70834 6.0625,6.0625 0,3.35415 -2.708348,6.0625 -6.0625,6.0625 -3.354152,0 -6.0625,-2.70835 -6.0625,-6.0625 0,-3.35416 2.708347,-6.0625 6.0625,-6.0625 z" style="fill: #ffffff; fill-rule: evenodd; stroke-linecap: round; stroke-linejoin: round;"></path>
    <path id="path17424" d="m 75.476562,390.74414 a 0.50005,0.50005 0 0 0 -0.40039,0.24024 C 74.184416,392.40936 74,393.97991 74,396 c 0,0.33476 0.05553,0.60654 0.06836,0.92188 -1.166939,-0.0798 -2.112698,-0.42664 -3.201171,-1.52344 a 0.50005,0.50005 0 1 0 -0.710938,0.70312 c 1.257685,1.26731 2.545083,1.75219 3.986328,1.83008 0.125352,1.11893 0.352857,2.1649 0.933594,3.08594 a 0.50122772,0.50122772 0 1 0 0.847656,-0.53516 C 75.471077,399.76437 75.263567,398.92779 75.142578,398 H 76 c 2.575016,3.5e-4 3.847653,-0.61523 4.722656,-1.05273 a 0.50005,0.50005 0 1 0 -0.445312,-0.89454 C 79.402347,396.49023 78.424978,397.00033 76,397 H 75.072266 C 75.055487,396.65897 75,396.38014 75,396 c 0,-1.96025 0.172858,-3.28436 0.923828,-4.48438 a 0.50005,0.50005 0 0 0 -0.447266,-0.77148 z" style="opacity: 0.8; fill: #ffffff; fill-rule: evenodd; stroke-linecap: round; stroke-linejoin: round;"></path>
  </g>
</svg>