<svg xmlns="http://www.w3.org/2000/svg" height="64" width="64" viewBox="129 386 20 20">
  <g id="g6328" style="fill: #ffffff;" data-label="S-7">
    <path id="path12377-5" d="m 135.5,389 a 0.50004997,0.50004997 0 0 0 -0.33008,0.12305 l -2,1.75 A 0.50004997,0.50004997 0 0 0 133,391.25 V 393 h -1.5 a 0.50004997,0.50004997 0 0 0 -0.5,0.5 v 1.5 c 0,0.98611 0.74054,1.6889 1.56836,1.91992 0.71525,0.19961 1.51421,0.0482 2.18359,-0.38476 L 136,397.93945 V 400.25 c 0,0.88889 0.39419,1.61848 0.96875,2.07812 C 137.54331,402.78777 138.275,403 139,403 c 0.725,0 1.45669,-0.21223 2.03125,-0.67188 C 141.60581,401.86848 142,401.13889 142,400.25 v -2.31055 l 1.24805,-1.40429 c 0.66938,0.43298 1.46834,0.58437 2.18359,0.38476 C 146.25946,396.6889 147,395.98611 147,395 v -1.5 A 0.50004997,0.50004997 0 0 0 146.5,393 H 145 v -1.75 a 0.50004997,0.50004997 0 0 0 -0.16992,-0.37695 l -2,-1.75 A 0.50004997,0.50004997 0 0 0 142.5,389 h -2 a 0.50004997,0.50004997 0 0 0 -0.35352,0.14648 L 139.29297,390 h -0.58594 l -0.85351,-0.85352 A 0.50004997,0.50004997 0 0 0 137.5,389 Z m 0.1875,1 h 1.60547 l 0.85351,0.85352 A 0.50004997,0.50004997 0 0 0 138.5,391 h 1 a 0.50004997,0.50004997 0 0 0 0.35352,-0.14648 L 140.70703,390 h 1.60547 L 144,391.47852 V 393.5 a 0.50004997,0.50004997 0 0 0 0.5,0.5 h 1.5 v 1 c 0,0.51389 -0.32196,0.8111 -0.83789,0.95508 -0.39408,0.10997 -0.8212,-0.0629 -1.20703,-0.25 a 0.50004997,0.50004997 0 0 0 -0.82813,-0.53711 l -2,2.25 A 0.50004997,0.50004997 0 0 0 141,397.75 v 2.5 c 0,0.61111 -0.23081,1.00652 -0.59375,1.29688 C 140.04331,401.83723 139.525,402 139,402 c -0.525,0 -1.04331,-0.16277 -1.40625,-0.45312 C 137.23081,401.25652 137,400.86111 137,400.25 v -2.5 a 0.50004997,0.50004997 0 0 0 -0.12695,-0.33203 l -2,-2.25 a 0.50004997,0.50004997 0 0 0 -0.82813,0.53711 c -0.38583,0.18707 -0.81295,0.35997 -1.20703,0.25 C 132.32196,395.8111 132,395.51389 132,395 v -1 h 1.5 a 0.50004997,0.50004997 0 0 0 0.5,-0.5 v -2.02344 z" style="fill: #ffffff; stroke-linecap: round; stroke-linejoin: round;"></path>
    <path id="path12383" d="m 137,392 a 0.50005,0.50005 0 0 0 -0.35352,0.14648 l -0.5,0.5 A 0.50005,0.50005 0 0 0 136,393 v 0.5 a 0.50005,0.50005 0 1 0 1,0 v -0.29297 L 137.20703,393 H 137.5 a 0.50005,0.50005 0 1 0 0,-1 z m 4,0 a 0.50005,0.50005 0 0 0 -0.35352,0.14648 l -0.5,0.5 A 0.50005,0.50005 0 0 0 140,393 v 0.5 a 0.50005,0.50005 0 1 0 1,0 v -0.29297 L 141.20703,393 H 141.5 a 0.50005,0.50005 0 1 0 0,-1 z m -2.5,3 a 0.50005,0.50005 0 1 0 0,1 h 1 a 0.50005,0.50005 0 1 0 0,-1 z" style="opacity: 0.8; fill: #ffffff; stroke-linecap: round; stroke-linejoin: round;"></path>
  </g>
</svg>