<svg xmlns="http://www.w3.org/2000/svg" style="background: #808080" height="64" width="64" viewBox="150 386 20 20">
  <g id="g6336" style="fill: #ffffff;" data-label="S-8">
    <path id="path17349-5" d="m 156.49609,393.24609 a 0.50005,0.50005 0 0 0 -0.27343,0.91993 c 0.927,0.618 2.37713,0.83398 3.77734,0.83398 1.39708,0 2.84978,-0.21561 3.77734,-0.83398 a 0.50005,0.50005 0 1 0 -0.55468,-0.83204 C 162.65022,393.71561 161.2722,394 160,394 c -1.27563,0 -2.64966,-0.28402 -3.22266,-0.66602 a 0.50005,0.50005 0 0 0 -0.28125,-0.0879 z" style="color: rgb(0, 0, 0); opacity: 0.8; fill: #ffffff; stroke-linecap: round; stroke-linejoin: round;"></path>
    <path id="path17351" d="m 160,389 c -1.5802,0 -3.01318,0.28529 -4.0957,0.77734 -0.54126,0.24603 -0.9977,0.54261 -1.33789,0.90821 C 154.22621,391.05115 154,391.5062 154,392 v 3 5 c 0,0.4938 0.22621,0.94885 0.56641,1.31445 0.34019,0.3656 0.79663,0.66218 1.33789,0.90821 C 156.98682,402.71471 158.4198,403 160,403 c 1.5802,0 3.01318,-0.28529 4.0957,-0.77734 0.54126,-0.24603 0.9977,-0.54261 1.33789,-0.90821 C 165.77379,400.94885 166,400.4938 166,400 v -5 -3 c 0,-0.4938 -0.22621,-0.94885 -0.56641,-1.31445 -0.34019,-0.3656 -0.79663,-0.66218 -1.33789,-0.90821 C 163.01318,389.28529 161.5802,389 160,389 Z m 0,1 c 1.45737,0 2.77356,0.27473 3.68164,0.6875 0.45404,0.20638 0.8031,0.4471 1.01953,0.67969 C 164.9176,391.59978 165,391.80344 165,392 v 3 5 c 0,0.19656 -0.0824,0.40022 -0.29883,0.63281 -0.21643,0.23259 -0.56549,0.47331 -1.01953,0.67969 C 162.77356,401.72527 161.45737,402 160,402 c -1.45737,0 -2.77356,-0.27473 -3.68164,-0.6875 -0.45404,-0.20638 -0.8031,-0.4471 -1.01953,-0.67969 C 155.0824,400.40022 155,400.19656 155,400 v -5 -3 c 0,-0.19656 0.0824,-0.40022 0.29883,-0.63281 0.21643,-0.23259 0.56549,-0.47331 1.01953,-0.67969 C 157.22644,390.27473 158.54263,390 160,390 Z" style="color: rgb(0, 0, 0); fill: #ffffff; stroke-linecap: round; stroke-linejoin: round;"></path>
  </g>
</svg>