<svg xmlns="http://www.w3.org/2000/svg" style="background: #808080" height="64" width="64" viewBox="171 386 20 20">
  <g id="g6344" style="fill: #ffffff;" data-label="S-9">
    <path id="path17355-2" d="m 181,390 c -2.19521,0 -4.16987,0.64081 -5.61914,1.70898 -1.44928,1.06818 -2.38087,2.59156 -2.38086,4.29102 0,1.69945 0.93159,3.22284 2.38086,4.29102 C 176.83013,401.35919 178.80479,402 181,402 c 2.19521,0 4.16987,-0.64081 5.61914,-1.70898 C 188.06841,399.22284 189,397.69945 189,396 c 0,-1.69945 -0.93159,-3.22284 -2.38086,-4.29102 C 185.16987,390.64081 183.19522,390 181,390 Z m 0,1 c 1.99941,0 3.77332,0.59085 5.02539,1.51367 C 187.27746,393.4365 188,394.66345 188,396 c 0,1.33655 -0.72254,2.5635 -1.97461,3.48633 C 184.77332,400.40915 182.99941,401 181,401 c -1.99941,0 -3.77332,-0.59085 -5.02539,-1.51367 C 174.72254,398.5635 174,397.33655 174,396 c 0,-1.33654 0.72254,-2.5635 1.97461,-3.48633 C 177.22668,391.59085 179.00059,391 181,391 Z" style="color: rgb(0, 0, 0); fill: #ffffff; fill-rule: evenodd; stroke-linecap: round; stroke-linejoin: round;"></path>
    <path id="path17357" d="M 178.49219,394.49219 A 0.50005,0.50005 0 0 0 178,395.00195 v 0.25 c 5.5e-4,0.26762 0.10104,0.43267 0.23438,0.61719 0.13369,0.18504 0.32089,0.36854 0.5664,0.53516 0.49103,0.33322 1.21831,0.59296 2.19727,0.5957 0.98079,0.003 1.71165,-0.25661 2.20312,-0.5918 0.24574,-0.16759 0.43113,-0.35326 0.56445,-0.53906 0.13296,-0.18529 0.23383,-0.34989 0.23438,-0.61719 v -0.002 -0.24805 a 0.50005,0.50005 0 1 0 -1,-0.004 v 0.2521 c 0,-0.11242 0.009,-0.0414 -0.0469,0.0371 -0.0564,0.0786 -0.16044,0.18856 -0.3164,0.29492 -0.31192,0.21273 -0.83026,0.42022 -1.63477,0.41797 -0.80517,-0.002 -1.32795,-0.21164 -1.64062,-0.42383 -0.15634,-0.10609 -0.26023,-0.21522 -0.31641,-0.29297 C 178.98874,395.20545 179,395.13726 179,395.25 v -0.25195 a 0.50005,0.50005 0 0 0 -0.50781,-0.50586 z" style="color: rgb(0, 0, 0); opacity: 0.8; fill: #ffffff; fill-rule: evenodd; stroke-linecap: round; stroke-linejoin: round;"></path>
  </g>
</svg>