<svg xmlns="http://www.w3.org/2000/svg" height="64" width="64" viewBox="213 407 20 20">
  <g transform="translate(63,189)" id="g13463" style="fill: #ffffff;" data-label="T-11">
    <path style="color: rgb(0, 0, 0); fill: #ffffff; stroke-linecap: round; stroke-linejoin: round;" d="m 221.5,410 a 0.50005,0.50005 0 0 0 -0.35352,0.14648 L 218.29297,413 H 216.5 a 0.50005,0.50005 0 0 0 -0.5,0.5 v 7 a 0.50005,0.50005 0 0 0 0.5,0.5 h 1.79297 l 2.85351,2.85352 A 0.50005,0.50005 0 0 0 221.5,424 h 1 a 0.50005,0.50005 0 0 0 0.5,-0.5 V 410.78125 410.5 a 0.50005,0.50005 0 0 0 -0.5,-0.5 z m 0.20703,1 H 222 v 12 h -0.29297 l -2.85351,-2.85352 A 0.50005,0.50005 0 0 0 218.5,420 H 217 v -6 h 1.5 a 0.50005,0.50005 0 0 0 0.35352,-0.14648 z m 6.75977,1.01562 a 0.50005,0.50005 0 0 0 -0.42188,0.72071 c 1.27607,2.70648 1.27328,5.84072 -0.008,8.54492 a 0.50017783,0.50017783 0 1 0 0.9043,0.42773 c 1.40867,-2.97397 1.41099,-6.42391 0.008,-9.40039 a 0.50005,0.50005 0 0 0 -0.48242,-0.29297 z m -2.86133,0.9375 a 0.50005,0.50005 0 0 0 -0.43359,0.74219 c 1.10286,2.06013 1.1045,4.5334 0.006,6.59571 a 0.50023236,0.50023236 0 1 0 0.88282,0.4707 c 1.25518,-2.35583 1.25221,-5.18378 -0.008,-7.53711 a 0.50005,0.50005 0 0 0 -0.44726,-0.27149 z" transform="translate(-63,-189)" id="path13456"></path>
  </g>
</svg>