<svg xmlns="http://www.w3.org/2000/svg" style="background: #808080" height="64" width="64" viewBox="243 388 20 20">
  <g style="fill: #ffffff;" transform="translate(-84,-63)" id="g21409" data-label="T-13">
    <path style="color: rgb(0, 0, 0); fill: #ffffff; stroke-linecap: round; stroke-linejoin: round; marker: none;" d="m 269.13867,410.0332 c -0.49613,-0.0451 -1.03862,0.15972 -1.49219,0.61328 l -8.5,8.5 c -0.0639,0.0642 -0.10909,0.14453 -0.13086,0.23243 l -1,4 c -0.0904,0.36537 0.2401,0.69582 0.60547,0.60547 l 4,-1 c 0.0879,-0.0218 0.16823,-0.067 0.23243,-0.13086 l 8.5,-8.5 c 0.45356,-0.45357 0.65838,-0.99606 0.61328,-1.49219 -0.0451,-0.49613 -0.30436,-0.90592 -0.61328,-1.21485 l -1,-1 c -0.30893,-0.30892 -0.71872,-0.56817 -1.21485,-0.61328 z m -1.88867,2.42383 2.29297,2.29297 -7.29883,7.29883 -3.05859,0.76562 0.76562,-3.05859 z" transform="translate(84,63)" id="path21405"></path>
  </g>
</svg>