<svg xmlns="http://www.w3.org/2000/svg" height="64" width="64" viewBox="276 407 20 20">
  <g style="fill: #ffffff;" transform="rotate(180,307.0055,417)" id="g13597" data-label="T-14">
    <path style="fill: #ffffff; fill-rule: evenodd; stroke-linecap: round; stroke-linejoin: round;" d="m 289.50391,410 a 0.50005,0.50005 0 0 0 -0.5,0.5 v 1.5 h -0.99414 c -1.17529,0 -2.25213,0.41841 -2.88477,1.18164 -0.28029,0.32895 -0.0395,0.83456 0.39258,0.82422 0.14712,-0.004 0.28501,-0.0726 0.37695,-0.1875 C 286.27001,413.36537 287.08306,413 288.00977,413 h 0.99414 v 0.5 a 0.50005,0.50005 0 0 0 0.5,0.5 h 3 a 0.50005,0.50005 0 0 0 0.5,-0.5 v -3 a 0.50005,0.50005 0 0 0 -0.5,-0.5 z m 0.5,1 h 2 v 2 h -2 z m -4.58594,3.95898 c -1.10666,0.0478 -2.07229,0.36866 -2.82031,0.91211 -0.99737,0.72461 -1.58789,1.85424 -1.58789,3.12891 v 1 h -1.50586 a 0.50005,0.50005 0 0 0 -0.5,0.5 v 3 a 0.50005,0.50005 0 0 0 0.5,0.5 h 3 a 0.50005,0.50005 0 0 0 0.5,-0.5 v -3 a 0.50005,0.50005 0 0 0 -0.5,-0.5 h -0.49414 v -1 c 0,-0.97533 0.41802,-1.76979 1.17578,-2.32031 0.75777,-0.55053 1.87662,-0.84701 3.26562,-0.6836 1.98998,0.23412 3.41358,1.22814 4.10352,2.33203 0.68994,1.10391 0.68215,2.23778 -0.14844,3.06836 -0.83795,0.83796 -1.98844,0.89361 -3.08398,0.26368 -1.09554,-0.62994 -2.08242,-1.9799 -2.31641,-3.96875 -0.0504,-0.69579 -1.10528,-0.57121 -0.99219,0.11718 0.26601,2.26115 1.40414,3.91119 2.8086,4.71875 0.70223,0.40379 1.48456,0.58895 2.23632,0.52735 0.75176,-0.0616 1.47366,-0.37015 2.05469,-0.95117 1.16941,-1.16942 1.16162,-2.91055 0.28906,-4.30664 -0.87256,-1.3961 -2.57396,-2.52709 -4.83398,-2.79297 -0.39761,-0.0468 -0.78151,-0.0608 -1.15039,-0.0449 z M 280.00391,421 h 2 v 2 h -2 z" transform="rotate(180,307.0055,417)" id="path13595"></path>
  </g>
</svg>