<svg xmlns="http://www.w3.org/2000/svg" style="background: #808080" height="64" width="64" viewBox="297 407 20 20">
  <g style="fill: #ffffff;" id="g20538" transform="rotate(180,317.5055,417)" data-label="T-15">
    <path style="color: rgb(0, 0, 0); fill: #ffffff; fill-rule: evenodd; stroke-linecap: round; stroke-linejoin: round;" d="m 331.50586,410 c -0.27613,3e-5 -0.49997,0.22387 -0.5,0.5 v 3 c 3e-5,0.27613 0.22387,0.49997 0.5,0.5 h 3 c 0.27613,-3e-5 0.49997,-0.22387 0.5,-0.5 v -3 c -3e-5,-0.27613 -0.22387,-0.49997 -0.5,-0.5 z" id="path20529"></path>
    <path style="color: rgb(0, 0, 0); opacity: 0.6; fill: #ffffff; stroke-linecap: round;" d="m 323.95117,412.94531 c -0.75176,0.0616 -1.47366,0.37015 -2.05469,0.95117 -1.16941,1.16942 -1.16162,2.91055 -0.28906,4.30664 0.87256,1.3961 2.57397,2.52709 4.83399,2.79297 C 329.94786,421.40861 333,419.08206 333,416 v -0.5 a 0.50005,0.50005 0 1 0 -1,0 v 0.5 c 0,2.41794 -2.42686,4.35855 -5.44141,4.00391 -1.98998,-0.23412 -3.41357,-1.22813 -4.10351,-2.33203 -0.68994,-1.10391 -0.68215,-2.23778 0.14844,-3.06836 0.83795,-0.83796 1.98844,-0.89361 3.08398,-0.26368 1.09554,0.62994 2.08242,1.9799 2.31641,3.96875 a 0.50005,0.50005 0 1 0 0.99218,-0.11718 c -0.26601,-2.26115 -1.40413,-3.91119 -2.80859,-4.71875 -0.70223,-0.40379 -1.48457,-0.58895 -2.23633,-0.52735 z m 3.54102,9.04883 a 0.50005,0.50005 0 0 0 -0.37696,0.1875 C 326.73975,422.63463 325.92671,423 325,423 h -1.5 a 0.50005,0.50005 0 1 0 0,1 h 1.5 c 1.17529,0 2.25213,-0.41841 2.88477,-1.18164 a 0.50005,0.50005 0 0 0 -0.39258,-0.82422 z" id="path20536"></path>
  </g>
</svg>