<svg xmlns="http://www.w3.org/2000/svg" height="64" width="64" viewBox="318 407 20 20">
  <g id="g10007" style="" data-label="T-16">
    <path style="fill: #ffffff; stroke-width: 3; stroke-linecap: round;" d="m 331,410 c -2.22355,0 -4.0767,1.3002 -5.12305,3.18945 0.93682,-0.21724 1.92473,-0.28964 2.92578,-0.17187 0.40221,0.0473 0.78928,0.12403 1.16797,0.21484 C 330.29795,413.09146 330.64197,413 331,413 h 0.5 c 2.02848,0.0287 2.02848,-3.02869 0,-3 z m -3.05859,3.95898 c -3.69856,-0.0756 -6.93164,2.52898 -6.93164,6.04102 v 1.5 c -0.0287,2.02848 3.02869,2.02848 3,0 V 420 c 0,-1.75382 1.80351,-3.30654 4.32617,-3.00977 0.37314,0.0439 0.71883,0.11732 1.03711,0.21485 1.3077,0.40071 2.14372,1.21003 2.47656,1.91211 0.22905,0.48316 0.34095,1.19341 -0.0996,1.63281 -0.4946,0.4933 -1.25,0.34848 -1.89258,-0.0527 -0.70436,-0.44 -1.43726,-1.36047 -1.75195,-2.71875 -0.21041,-0.0194 -0.41646,-0.0328 -0.60742,-0.0234 -1.06865,0.0527 -1.81638,0.53365 -2.19727,1.13086 0.52848,1.85114 1.6077,3.30531 2.9668,4.15429 1.61509,1.00892 3.82413,1.05951 5.33594,-0.2539 0.0754,-0.0514 0.14605,-0.10959 0.21093,-0.17383 0.0562,-0.057 0.10785,-0.11837 0.1543,-0.18359 1.19162,-1.34198 1.31147,-3.2788 0.5918,-4.79688 -0.75194,-1.58612 -2.28118,-2.87289 -4.3086,-3.49414 -0.49344,-0.15121 -1.01745,-0.26354 -1.5664,-0.32812 -0.2499,-0.0294 -0.49757,-0.0457 -0.74414,-0.0508 z" id="path20562"></path>
  </g>
</svg>