<svg xmlns="http://www.w3.org/2000/svg" height="64" width="64" viewBox="360 407 20 20">
  <g style="fill: #ffffff;" transform="rotate(180,349.0055,417)" id="g22180" data-label="T-18">
    <path style="color: rgb(0, 0, 0); opacity: 0.6; fill: #ffffff; stroke-linecap: round;" d="m 324.95117,410.94531 c -0.75176,0.0616 -1.47366,0.37015 -2.05469,0.95117 -1.16941,1.16942 -1.16162,2.91055 -0.28906,4.30664 0.87256,1.3961 2.57397,2.52709 4.83399,2.79297 2.83908,0.33401 5.63985,-1.05664 6.5332,-3.3125 a 0.50005,0.50005 0 1 0 -0.92969,-0.36718 c -0.67177,1.69632 -3.05327,2.97373 -5.48633,2.6875 -1.98998,-0.23411 -3.41357,-1.22813 -4.10351,-2.33203 -0.68994,-1.10391 -0.68215,-2.23778 0.14844,-3.06836 0.83795,-0.83796 1.98844,-0.89361 3.08398,-0.26368 1.09554,0.62994 2.08242,1.9799 2.31641,3.96875 a 0.50005,0.50005 0 1 0 0.99218,-0.11718 c -0.26601,-2.26115 -1.40413,-3.91119 -2.80859,-4.71875 -0.70223,-0.40379 -1.48457,-0.58895 -2.23633,-0.52735 z m 3.54102,9.04883 a 0.50005,0.50005 0 0 0 -0.37696,0.1875 c -0.31249,0.377 -0.92604,0.69672 -1.66015,0.78906 a 0.50005,0.50005 0 1 0 0.125,0.99219 c 0.94034,-0.11828 1.77818,-0.50935 2.30469,-1.14453 a 0.50005,0.50005 0 0 0 -0.39258,-0.82422 z" id="path22178"></path>
    <path style="color: rgb(0, 0, 0); fill: #ffffff; fill-rule: evenodd; stroke-linecap: round; stroke-linejoin: round;" d="m 331.50586,410 c -0.27613,3e-5 -0.49997,0.22387 -0.5,0.5 v 3 c 3e-5,0.27613 0.22387,0.49997 0.5,0.5 h 3 c 0.27613,-3e-5 0.49997,-0.22387 0.5,-0.5 v -3 c -3e-5,-0.27613 -0.22387,-0.49997 -0.5,-0.5 z m -10,10 c -0.27613,3e-5 -0.49997,0.22387 -0.5,0.5 v 3 c 3e-5,0.27613 0.22387,0.49997 0.5,0.5 h 3 c 0.27613,-3e-5 0.49997,-0.22387 0.5,-0.5 v -3 c -3e-5,-0.27613 -0.22387,-0.49997 -0.5,-0.5 z" id="path22182"></path>
  </g>
</svg>