<svg xmlns="http://www.w3.org/2000/svg" height="64" width="64" viewBox="381 407 20 20">
  <g id="g19394" style="fill: #ffffff;" data-label="T-19">
    <path d="m 390.5,416 c -0.98118,0 -1.79306,0.19786 -2.45312,0.51562 -0.008,0.17574 -0.0332,0.34151 -0.0332,0.52149 0,4.06772 2.58548,6.61176 5.30078,6.95117 2.02213,0.29647 2.40413,-2.76745 0.3711,-2.97656 -1.2847,-0.16059 -2.67188,-1.04233 -2.67188,-3.97461 0,-0.37546 0.0235,-0.72058 0.0664,-1.03711 z" style="color: rgb(0, 0, 0); fill: #ffffff; stroke-linecap: round;" id="path19340"></path>
    <path id="path5291" style="color: rgb(0, 0, 0); opacity: 0.6; fill: #ffffff; stroke-linecap: round;" d="m 395,410 c -1.86938,0 -3.40407,0.68718 -4.4375,1.85938 -0.30774,0.34905 -0.56557,0.74269 -0.7832,1.16601 C 390.01692,413.00864 390.25738,413 390.5,413 h 0.44922 c 0.11262,-0.16825 0.23234,-0.32999 0.36328,-0.47852 C 392.15407,411.56692 393.36938,411 395,411 h 0.5 c 0.67616,0.01 0.67616,-1.00956 0,-1 z m -4.5,4 c -1.84524,0 -3.47115,0.52889 -4.64258,1.5625 C 384.686,416.59611 384,418.13095 384,420 v 0.5 a 0.50005,0.50005 0 1 0 1,0 V 420 c 0,-1.63095 0.564,-2.84611 1.51758,-3.6875 C 387.47115,415.47111 388.84524,415 390.5,415 h 1.00781 c 3.27827,0 5.29896,2.17669 5.49805,3.57031 a 0.50005,0.50005 0 1 0 0.98828,-0.14062 C 397.69323,416.32331 395.21551,414 391.50781,414 Z"></path>
  </g>
</svg>