<svg xmlns="http://www.w3.org/2000/svg" style="background: #808080" height="64" width="64" viewBox="23 388 20 20">
  <g id="g84208" style="" data-label="T-2">
    <path id="path17434" d="m 27.5,410 a 0.50005,0.50005 0 0 0 -0.5,0.5 v 3 a 0.50005,0.50005 0 0 0 0.5,0.5 h 0.949219 L 32,420.62695 V 423.5 a 0.50005,0.50005 0 0 0 0.5,0.5 h 3 a 0.50005,0.50005 0 0 0 0.5,-0.5 v -2.87305 L 39.550781,414 H 40.5 a 0.50005,0.50005 0 0 0 0.5,-0.5 v -3 A 0.50005,0.50005 0 0 0 40.5,410 h -3 a 0.50005,0.50005 0 0 0 -0.5,0.5 v 0.5 h -6 v -0.5 A 0.50005,0.50005 0 0 0 30.5,410 Z m 0.5,1 h 2 v 2 h -2 z m 10,0 h 2 v 2 h -2 z m -7,1 h 6 v 1.5 a 0.50005,0.50005 0 0 0 0.5,0.5 h 0.914062 l -3.214843,6 h -2.398438 l -3.214843,-6 H 30.5 a 0.50005,0.50005 0 0 0 0.5,-0.5 z m 2,9 h 2 v 2 h -2 z" style="color: rgb(0, 0, 0); fill: #ffffff; fill-rule: evenodd; stroke-linecap: round; stroke-linejoin: round; marker: none;"></path>
  </g>
</svg>