<svg xmlns="http://www.w3.org/2000/svg" height="64" width="64" viewBox="402 407 20 20">
  <g id="g84217" style="" data-label="T-20">
    <path id="path18042-5" d="m 413.49609,411 c -1.31297,0 -2.2906,0.33758 -3.34961,1.39648 -1.07833,1.0783 -1.34444,2.83666 -0.73437,4.48438 l -2.51563,2.51562 c -1.00968,1.00969 -1.01874,2.3133 -0.3125,3.01954 0.70624,0.70624 2.00985,0.69718 3.01954,-0.3125 l 2.51757,-2.51758 c 1.64574,0.60684 3.4036,0.3464 4.48243,-0.73242 1.05892,-1.05893 1.39668,-2.03818 1.39257,-3.35547 a 0.50005,0.50005 0 0 0 -0.14648,-0.35157 l -1,-1 a 0.50005,0.50005 0 0 0 -0.70703,0 L 414.28906,416 h -0.58594 l -0.70703,-0.70703 v -0.58594 l 1.85352,-1.85351 a 0.50005,0.50005 0 0 0 0,-0.70704 l -1,-1 A 0.50005,0.50005 0 0 0 413.49609,411 Z m -0.18164,1.02539 0.47461,0.47461 -1.64648,1.64648 A 0.50005,0.50005 0 0 0 411.99609,414.5 v 1 a 0.50005,0.50005 0 0 0 0.14649,0.35352 l 1,1 A 0.50005,0.50005 0 0 0 413.49609,417 h 1 a 0.50005,0.50005 0 0 0 0.35352,-0.14648 l 1.64648,-1.64649 0.47461,0.47461 c -0.0187,1.03267 -0.19304,1.58367 -1.07422,2.46484 -0.83209,0.8321 -2.35353,1.13617 -3.75195,0.47266 a 0.50005,0.50005 0 0 0 -0.56836,0.0977 l -2.67969,2.67968 c -0.74031,0.74032 -1.3117,0.60626 -1.60546,0.3125 -0.29376,-0.29376 -0.42782,-0.86515 0.3125,-1.60546 l 2.67773,-2.67774 a 0.50005,0.50005 0 0 0 0.0977,-0.56836 c -0.66677,-1.39852 -0.3581,-2.92122 0.47461,-3.7539 0.88058,-0.8805 1.43264,-1.05616 2.46093,-1.07813 z" style="color: rgb(0, 0, 0); opacity: 0.6; fill: #ffffff; stroke-linecap: round; stroke-linejoin: round;"></path>
  </g>
</svg>