<svg xmlns="http://www.w3.org/2000/svg" height="64" width="64" viewBox="423 407 20 20">
  <g id="g84214" style="" data-label="T-21">
    <path id="path17971-6" d="m 433.60156,411.10938 c -0.0348,2.9e-4 -0.0695,0.004 -0.10351,0.0117 -2.03912,0.46668 -3.49042,2.28707 -3.49219,4.37891 9e-4,0.50625 0.15089,0.99318 0.31836,1.46875 l -2.42774,2.42773 c -1.00968,1.00969 -1.01874,2.3133 -0.3125,3.01954 0.70624,0.70624 2.00985,0.69718 3.01954,-0.3125 l 2.42968,-2.42969 c 0.47476,0.16775 0.9595,0.31841 1.46485,0.32031 6.7e-4,0 0.001,0 0.002,0 2.10425,-9.3e-4 3.93168,-1.46897 4.38672,-3.52344 0.0316,-0.14237 -4.7e-4,-0.29146 -0.0879,-0.4082 l -0.64844,-0.86328 c -0.17598,-0.23372 -0.51414,-0.2671 -0.73242,-0.0723 L 435.31055,417 h -1.08008 L 433,415.56445 v -0.85742 l 1.85352,-1.85351 c 0.19519,-0.19527 0.19519,-0.51177 0,-0.70704 l -0.89063,-0.89062 c -0.0957,-0.0957 -0.22603,-0.14855 -0.36133,-0.14648 z" style="color: rgb(0, 0, 0); fill: #ffffff; stroke-linecap: round; stroke-linejoin: round;"></path>
  </g>
</svg>