<svg xmlns="http://www.w3.org/2000/svg" style="background: #808080" height="64" width="64" viewBox="443 388 20 20">
  <g transform="translate(42)" style="fill: #ffffff;" id="g6098" data-label="T-23">
    <path id="circle20459-6" transform="translate(-42)" d="m 469.08398,415.58594 c -0.81593,0.95753 -1.21878,2.22985 -1.04296,3.52148 0.24625,1.80912 1.56436,3.29294 3.33203,3.75 1.43669,0.37149 2.93514,-0.006 4.03515,-0.9414 -0.29636,0.0501 -0.5984,0.084 -0.9082,0.084 -0.38579,0 -0.76279,-0.0423 -1.12695,-0.11914 -0.56283,0.14546 -1.16207,0.15983 -1.75,0.008 -1.37737,-0.35614 -2.39992,-1.50634 -2.5918,-2.91601 -0.0626,-0.45958 -0.0236,-0.91417 0.0879,-1.34571 C 469.04268,417.26409 469,416.88831 469,416.50391 c 0,-0.31305 0.0328,-0.61873 0.084,-0.91797 z" style="color: rgb(0, 0, 0); opacity: 0.8; fill: #ffffff; stroke-linecap: round; stroke-linejoin: round; marker: none;"></path>
    <path id="circle20463-7" transform="translate(-42)" d="M 473.08594,412.25 C 471.30049,412.84735 470,414.51742 470,416.5 c 0,2.47936 2.02064,4.5 4.5,4.5 0.48878,0 0.95142,-0.0971 1.39258,-0.24219 -0.56289,-0.17378 -1.08535,-0.43906 -1.55664,-0.77343 C 472.47547,419.89744 471,418.3827 471,416.5 c 0,-1.08365 0.4989,-2.0367 1.26758,-2.67773 0.18577,-0.57127 0.46679,-1.09859 0.81836,-1.57227 z" style="color: rgb(0, 0, 0); fill: #ffffff; stroke-linecap: round; stroke-linejoin: round; marker: none;"></path>
    <path id="circle19345" d="m 435.5,411 c -2.47344,0 -4.5,2.02656 -4.5,4.5 0,2.47344 2.02656,4.5 4.5,4.5 2.47344,0 4.5,-2.02656 4.5,-4.5 0,-2.47344 -2.02656,-4.5 -4.5,-4.5 z m 0,2 c 1.39256,0 2.5,1.10744 2.5,2.5 0,1.39256 -1.10744,2.5 -2.5,2.5 -1.39256,0 -2.5,-1.10744 -2.5,-2.5 0,-1.39256 1.10744,-2.5 2.5,-2.5 z" style="color: rgb(0, 0, 0); fill: #ffffff; stroke-width: 2; stroke-linejoin: round; marker: none;"></path>
  </g>
</svg>