<svg xmlns="http://www.w3.org/2000/svg" height="64" width="64" viewBox="507 407 20 20">
  <g id="g84229" style="" data-label="T-25">
    <path d="m 512,414.00018 h 9 v 5 h -9 z m -1.5,-2 c -0.27613,3e-5 -0.49997,0.22387 -0.5,0.5 v 8 c 3e-5,0.27613 0.22387,0.49997 0.5,0.5 h 5.5 v 1 h -2.5 c -0.67616,-0.01 -0.67616,1.00956 0,1 h 6 c 0.6573,-0.009 0.6573,-0.9907 0,-1 H 517 v -1 h 5.5 c 0.27613,-3e-5 0.49997,-0.22387 0.5,-0.5 v -8 c -3e-5,-0.27613 -0.22387,-0.49997 -0.5,-0.5 z m 0.5,1 h 11 v 7 h -11 z" style="fill: #ffffff; stroke-linecap: round; stroke-linejoin: round;" id="rect22324-2"></path>
  </g>
</svg>