<svg xmlns="http://www.w3.org/2000/svg" style="background: #808080" height="64" width="64" viewBox="503 388 20 20">
  <g id="g84220" style="" data-label="T-26">
    <path id="path19316" d="m 541.57031,410.01758 c -0.79787,-0.038 -1.57177,0.27684 -2.16015,0.86523 l -1.26368,1.26367 a 0.50005,0.50005 0 1 0 0.70704,0.70704 l 1.26367,-1.26368 c 0.41161,-0.41161 0.88966,-0.59872 1.40429,-0.57422 0.51464,0.0245 1.08439,0.26993 1.63868,0.82422 0.55479,0.5548 0.80954,1.13546 0.83789,1.65235 0.0283,0.51688 -0.15241,0.9848 -0.57422,1.3789 a 0.50005,0.50005 0 0 0 -0.0137,0.0117 l -1.26368,1.26367 a 0.50005,0.50005 0 1 0 0.70704,0.70704 l 1.25195,-1.25196 c 0.61768,-0.57711 0.9366,-1.36125 0.89258,-2.16406 -0.044,-0.80281 -0.43566,-1.60948 -1.13086,-2.30469 -0.69571,-0.69571 -1.49901,-1.07724 -2.29688,-1.11523 z m -8.08008,6.97851 a 0.50005,0.50005 0 0 0 -0.34375,0.15039 l -1.25,1.25 c -0.58838,0.58839 -0.90322,1.36034 -0.86523,2.15821 0.038,0.79787 0.41952,1.60311 1.11523,2.29883 0.69521,0.6952 1.50384,1.08487 2.30664,1.1289 0.80281,0.044 1.585,-0.27294 2.16211,-0.89062 l 1.23829,-1.23828 a 0.50005,0.50005 0 1 0 -0.70704,-0.70704 l -1.25,1.25 a 0.50005,0.50005 0 0 0 -0.0117,0.0117 c -0.39411,0.42182 -0.86007,0.60452 -1.37696,0.57618 -0.51688,-0.0283 -1.0995,-0.2831 -1.65429,-0.8379 -0.55429,-0.55428 -0.79776,-1.12404 -0.82227,-1.63867 -0.0245,-0.51463 0.16065,-0.99268 0.57227,-1.40429 l 1.25,-1.25 a 0.50005,0.50005 0 0 0 -0.36329,-0.85743 z" style="color: rgb(0, 0, 0); opacity: 0.6; fill: #ffffff; stroke-linecap: round; stroke-linejoin: round; marker: none;"></path>
  </g>
</svg>