<svg xmlns="http://www.w3.org/2000/svg" height="64" width="64" viewBox="66 407 20 20">
  <g id="g84223" style="" data-label="T-4">
    <path style="color: rgb(0, 0, 0); fill: #ffffff; stroke-width: 1px; stroke-linecap: round; stroke-linejoin: round;" d="m 70.5,410 a 0.50005,0.50005 0 0 0 -0.5,0.5 v 3 a 0.50005,0.50005 0 0 0 0.5,0.5 h 0.859375 l -0.824219,3.29883 a 0.50005,0.50005 0 0 0 -0.04102,0.16797 l -1.478516,5.91211 A 0.50005,0.50005 0 0 0 69.5,424 h 4.921875 a 0.50005,0.50005 0 0 0 0.160156,0 h 4.892578 a 0.50005,0.50005 0 0 0 0.484375,-0.37695 l 3.03711,-11.99024 a 0.50005,0.50005 0 0 0 -0.484375,-0.62304 l -4.90625,-0.006 a 0.50005,0.50005 0 0 0 -0.205078,0 L 74,411 v -0.5 A 0.50005,0.50005 0 0 0 73.5,410 Z m 0.5,1 h 2 v 2 h -0.921875 a 0.50005,0.50005 0 0 0 -0.160156,0 H 71 Z m 3,1 2.859375,0.004 -1.25,4.99609 h -3.96875 l 0.75,-3 H 73.5 a 0.50005,0.50005 0 0 0 0.5,-0.5 z m 3.888672,0.004 3.980469,0.006 -1.263672,4.99 H 76.640625 Z M 71.390625,418 h 3.96875 l -1.25,5 h -3.96875 z m 5,0 h 3.960937 l -1.265624,5 h -3.945313 z" id="path14034"></path>
  </g>
</svg>