<svg xmlns="http://www.w3.org/2000/svg" height="64" width="64" viewBox="87 407 20 20">
  <g style="fill: #ffffff;" id="g14534" data-label="T-5">
    <path style="color: rgb(0, 0, 0); fill: #ffffff; stroke-linecap: round; stroke-linejoin: round; stroke-dashoffset: 0.5;" d="m 100.24805,410.01367 c -1.271268,0.11136 -2.328782,0.98616 -2.845706,2.17774 -2.575841,-0.61979 -5.266939,0.50372 -6.597656,2.80859 -1.356612,2.34971 -0.965414,5.32365 0.953124,7.24219 1.918537,1.91853 4.892473,2.30974 7.242188,0.95312 2.30486,-1.33072 3.42838,-4.02182 2.80859,-6.59765 1.3618,-0.59077 2.3103,-1.88718 2.17774,-3.40235 -0.14775,-1.68875 -1.49289,-3.03389 -3.18164,-3.18164 -0.1894,-0.0166 -0.37503,-0.0159 -0.55664,0 z m 0.0234,0.9961 c 0.14685,-0.0133 0.29578,-0.0133 0.44727,0 1.21193,0.10603 2.16545,1.05955 2.27148,2.27148 0.10604,1.21192 -0.66865,2.31795 -1.84375,2.63281 a 0.50005006,0.50005006 0 0 0 -0.35937,0.58203 l 0.0352,0.17969 a 0.50005006,0.50005006 0 0 0 0.008,0.0293 c 0.58634,2.18824 -0.36816,4.49227 -2.33008,5.625 -1.961931,1.13272 -4.433244,0.80698 -6.035156,-0.79492 -1.601912,-1.60191 -1.927645,-4.07323 -0.794922,-6.03516 1.132722,-1.96193 3.43675,-2.91642 5.625,-2.33008 a 0.50005006,0.50005006 0 0 0 0.0293,0.008 l 0.179687,0.0352 a 0.50005006,0.50005006 0 0 0 0.582032,-0.35937 c 0.275511,-1.02822 1.157648,-1.75045 2.185539,-1.84375 z M 94.5,416 a 0.50005,0.50005 0 0 0 -0.5,0.5 v 3 a 0.50005,0.50005 0 0 0 0.5,0.5 h 3 a 0.50005,0.50005 0 0 0 0.5,-0.5 v -3 A 0.50005,0.50005 0 0 0 97.5,416 Z m 0.5,1 h 2 v 2 h -2 z" id="circle13742"></path>
  </g>
</svg>