<svg xmlns="http://www.w3.org/2000/svg" height="64" width="64" viewBox="234 428 20 20">
  <g style="fill: #ffffff;" id="g13834" transform="rotate(90,244,438)" data-label="U-12">
    <g id="g13861" transform="rotate(-90,244.008,459)" style="fill:#ffffff;stroke:#ffffff">
      <path style="fill: #ffffff; stroke-width: 2; stroke-linecap: round; stroke-linejoin: round;" d="m 258.99609,451.98828 a 1.0001,1.0001 0 0 0 -0.82031,1.56641 l 1.63086,2.44531 -1.63086,2.44531 a 1.0001,1.0001 0 0 0 0,1.10938 l 1.63086,2.44531 -1.63086,2.44531 a 1.0001,1.0001 0 1 0 1.66406,1.10938 l 2,-3 a 1.0001,1.0001 0 0 0 0,-1.10938 L 260.20898,459 l 1.63086,-2.44531 a 1.0001,1.0001 0 0 0 0,-1.10938 l -2,-3 a 1.0001,1.0001 0 0 0 -0.84375,-0.45703 z m 5,0 a 1.0001,1.0001 0 0 0 -0.82031,1.56641 l 1.63086,2.44531 -1.63086,2.44531 a 1.0001,1.0001 0 0 0 0,1.10938 l 1.63086,2.44531 -1.63086,2.44531 a 1.0001,1.0001 0 1 0 1.66406,1.10938 l 2,-3 a 1.0001,1.0001 0 0 0 0,-1.10938 L 265.20898,459 l 1.63086,-2.44531 a 1.0001,1.0001 0 0 0 0,-1.10938 l -2,-3 a 1.0001,1.0001 0 0 0 -0.84375,-0.45703 z m 5,0 a 1.0001,1.0001 0 0 0 -0.82031,1.56641 l 1.63086,2.44531 -1.63086,2.44531 a 1.0001,1.0001 0 0 0 0,1.10938 l 1.63086,2.44531 -1.63086,2.44531 a 1.0001,1.0001 0 1 0 1.66406,1.10938 l 2,-3 a 1.0001,1.0001 0 0 0 0,-1.10938 L 270.20898,459 l 1.63086,-2.44531 a 1.0001,1.0001 0 0 0 0,-1.10938 l -2,-3 a 1.0001,1.0001 0 0 0 -0.84375,-0.45703 z" id="path13856"></path>
    </g>
  </g>
</svg>