<svg xmlns="http://www.w3.org/2000/svg" height="64" width="64" viewBox="255 428 20 20">
  <g transform="matrix(-1,0,0,1,1727,-80)" id="g17779" style="fill: #ffffff;" data-label="U-13">
    <path style="fill: #ffffff; stroke-linejoin: round;" d="m 1455.5,512 c -0.2761,3e-5 -0.5,0.22387 -0.5,0.5 v 2 c 0,0.27613 0.2239,0.49997 0.5,0.5 h 11 c 0.2761,-3e-5 0.5,-0.22387 0.5,-0.5 v -2 c 0,-0.27613 -0.2239,-0.49997 -0.5,-0.5 z m 0.5,4 v 6.5 c 0,0.27613 0.2239,0.49997 0.5,0.5 h 9 c 0.2761,-3e-5 0.5,-0.22387 0.5,-0.5 V 516 Z m 4,1 h 2 c 1.3523,-0.0191 1.3523,2.01913 0,2 h -2 c -1.3523,0.0191 -1.3523,-2.01913 0,-2 z" id="path17776"></path>
    <path style="fill: #ffffff; stroke-width: 2; stroke-linejoin: round;" d="m 1468,514 v 0.5 c 0,0.62337 -0.4468,1.06807 -1,1.28906 V 516 v 1 h 1.5 c 0.2761,-3e-5 0.5,-0.22387 0.5,-0.5 v -2 c 0,-0.27613 -0.2239,-0.49997 -0.5,-0.5 z m -1,4 v 4.5 c 0,0.8167 -0.6835,1.49991 -1.5,1.5 h -7.5 v 0.5 c 0,0.27613 0.2239,0.49997 0.5,0.5 h 9 c 0.2761,-3e-5 0.5,-0.22387 0.5,-0.5 V 518 Z" id="path17787"></path>
  </g>
</svg>