<svg xmlns="http://www.w3.org/2000/svg" style="background: #808080" height="64" width="64" viewBox="283 408 20 20">
  <g id="g76946" style="" data-label="U-15">
    <path style="color: rgb(0, 0, 0); fill: #ffffff; stroke-width: 2.25; stroke-linecap: round; stroke-linejoin: round; marker: none;" d="m 302.64518,431.00052 a 1.1251124,1.1233465 0 0 0 -0.7734,0.3412 l -1.5313,1.5269 a 1.1251124,1.1233465 0 1 0 1.5918,1.5874 l 1.5293,-1.5269 a 1.1251124,1.1233465 0 0 0 -0.8164,-1.9286 z m 5.0977,0 a 1.1251124,1.1233465 0 0 0 -0.7735,0.3393 l -6.6289,6.6185 a 1.125572,1.1238054 0 1 0 1.5918,1.5893 l 2.1289,-2.1256 c 0.2384,-1.1729 1.1734,-2.1044 2.3477,-2.344 l 2.1523,-2.1489 a 1.1251124,1.1233465 0 0 0 -0.8183,-1.9286 z m 5.0996,0 a 1.1251124,1.1233465 0 0 0 -0.7735,0.3393 l -3.916,3.9099 c 0.7144,0.3005 1.2901,0.8706 1.5996,1.5795 l 3.9063,-3.9001 a 1.1251124,1.1233465 0 0 0 -0.8164,-1.9286 z m 0,5.0916 a 1.1251124,1.1233465 0 0 0 -0.7735,0.3393 l -2.123,2.1197 c -0.2257,1.2122 -1.1902,2.1751 -2.4043,2.4005 l -2.1016,2.0983 a 1.1251124,1.1233465 0 1 0 1.5918,1.5873 l 6.627,-6.6165 a 1.1251124,1.1233465 0 0 0 -0.8164,-1.9286 z m -5.8418,0.9204 c -0.5601,0 -0.9917,0.4296 -0.9981,0.9867 0.01,0.5524 0.4434,0.9887 0.9981,0.9887 0.5547,0 0.9926,-0.4363 0.998,-0.9887 -0.01,-0.5571 -0.438,-0.9867 -0.998,-0.9867 z m -2.7656,2.149 -3.8946,3.8884 a 1.1251124,1.1233465 0 1 0 1.5918,1.5873 l 3.8848,-3.8786 c -0.7095,-0.3088 -1.2808,-0.8846 -1.582,-1.5971 z m 8.6074,2.0202 a 1.1251124,1.1233465 0 0 0 -0.7735,0.3413 l -1.5293,1.5269 a 1.1251124,1.1233465 0 1 0 1.5899,1.5873 l 1.5293,-1.5269 a 1.1251124,1.1233465 0 0 0 -0.8164,-1.9286 z" id="path21492-2"></path>
  </g>
</svg>