<svg xmlns="http://www.w3.org/2000/svg" style="background: #808080" height="64" width="64" viewBox="318 428 20 20">
  <g id="g10909" style="opacity: 0.99; fill: #ffffff;" transform="matrix(-1,0,0,1,1290,263)" data-label="U-16">
    <path style="color: rgb(0, 0, 0); fill: #ffffff; fill-rule: evenodd; stroke-linecap: round; stroke-linejoin: round;" d="m 968.5,168.00021 c 0.2761,3e-5 0.5,0.22387 0.5,0.5 v 13 c 0,0.27613 -0.2239,0.49997 -0.5,0.5 h -13 c -0.2761,-3e-5 -0.5,-0.22387 -0.5,-0.5 v -13 c 0,-0.27613 0.2239,-0.49997 0.5,-0.5 z m -10,2 c -0.8225,0 -1.5,0.67749 -1.5,1.5 0,0.82251 0.6775,1.5 1.5,1.5 0.8225,0 1.5,-0.67749 1.5,-1.5 0,-0.82251 -0.6775,-1.5 -1.5,-1.5 z m 4.97656,3 c -0.1708,0.008 -0.32545,0.10335 -0.41015,0.25195 l -4,7 c -0.1903,0.33312 0.05,0.74758 0.43359,0.74805 h 8 c 0.3836,-4.7e-4 0.62389,-0.41493 0.43359,-0.74805 l -4,-7 c -0.093,-0.16311 -0.26943,-0.26042 -0.45703,-0.25195 z" id="path10907"></path>
  </g>
</svg>