<svg xmlns="http://www.w3.org/2000/svg" height="64" width="64" viewBox="423 428 20 20">
  <g id="g76952" style="" data-label="U-21">
    <path style="color: rgb(0, 0, 0); fill: #ffffff; stroke-linecap: round; stroke-linejoin: round;" d="m 432.49961,433 c -3.27784,-9.4e-4 -5.036,2.7211 -6.36328,4.16211 -0.17644,0.19146 -0.17644,0.48627 0,0.67773 1.3275,1.44124 3.08593,4.15993 6.36328,4.16211 3.27801,0.002 5.03608,-2.72118 6.36328,-4.16211 0.17644,-0.19146 0.17644,-0.48627 0,-0.67773 -1.32741,-1.44115 -3.08573,-4.16117 -6.36328,-4.16211 z m 0,1 a 3.4999952,3.4999933 0 0 1 3.5,3.5 3.4999952,3.4999933 0 0 1 -3.5,3.5 3.4999952,3.4999933 0 0 1 -3.5,-3.5 3.4999952,3.4999933 0 0 1 3.5,-3.5 z m 0,2 a 1.4999952,1.4999944 0 0 0 -1.5,1.5 1.4999952,1.4999944 0 0 0 1.5,1.5 1.4999952,1.4999944 0 0 0 1.5,-1.5 1.4999952,1.4999944 0 0 0 -1.5,-1.5 z" id="path19347-7"></path>
  </g>
</svg>