<svg xmlns="http://www.w3.org/2000/svg" height="64" width="64" viewBox="486 428 20 20">
  <g id="g76982" style="" data-label="U-24">
    <path id="path22635-0-9" d="m 494.5,432 a 0.50005,0.50005 0 0 0 -0.35352,0.14648 L 492.29297,434 H 489.5 a 0.50005,0.50005 0 0 0 -0.5,0.5 v 8 a 0.50005,0.50005 0 0 0 0.5,0.5 h 12 a 0.50005,0.50005 0 0 0 0.5,-0.5 v -8 a 0.50005,0.50005 0 0 0 -0.5,-0.5 h -1.79297 l -1.85351,-1.85352 A 0.50005,0.50005 0 0 0 497.5,432 Z m 0.20703,1 h 2.58594 l 1.85351,1.85352 A 0.50005,0.50005 0 0 0 499.5,435 h 1.5 v 7 h -11 v -7 h 2.5 a 0.50005,0.50005 0 0 0 0.35352,-0.14648 z m -0.46094,2.74414 a 0.50005,0.50005 0 0 0 -0.34961,0.85938 l 1.39649,1.39648 -1.39649,1.39648 a 0.50005,0.50005 0 1 0 0.70704,0.70704 L 496,438.70703 l 1.39648,1.39649 a 0.50005,0.50005 0 1 0 0.70704,-0.70704 L 496.70703,438 l 1.39649,-1.39648 a 0.50005,0.50005 0 1 0 -0.70704,-0.70704 L 496,437.29297 l -1.39648,-1.39649 a 0.50005,0.50005 0 0 0 -0.35743,-0.15234 z" style="color: rgb(0, 0, 0); opacity: 0.6; fill: #ffffff; stroke-linecap: round; stroke-linejoin: round;"></path>
  </g>
</svg>