<svg xmlns="http://www.w3.org/2000/svg" style="background: #808080" height="64" width="64" viewBox="507 428 20 20">
  <g id="g76979" style="" data-label="U-25">
    <path id="path16385" style="color: rgb(0, 0, 0); fill: #ffffff; stroke-width: 1px; stroke-linecap: round; stroke-linejoin: round;" d="m 515.5,432 c -0.1326,2e-5 -0.25976,0.0527 -0.35352,0.14647 L 513.29297,434 H 510.5 c -0.27613,3e-5 -0.49997,0.22387 -0.5,0.5 v 8 c 3e-5,0.27613 0.22387,0.49997 0.5,0.5 h 6.45312 0.004 c 0.0131,-8.2e-4 0.0261,-0.002 0.0391,-0.004 0.004,5e-5 0.008,5e-5 0.0117,0 0.0143,0.002 0.0286,0.003 0.043,0.004 h 0.006 5.44336 c 0.27613,-3e-5 0.49997,-0.22387 0.5,-0.5 v -8 c -3e-5,-0.27613 -0.22387,-0.49997 -0.5,-0.5 h -1.79297 l -1.85351,-1.85353 C 518.76,432.05268 518.6327,431.99995 518.5,432 Z m 1.49781,1.99804 c 2.21589,-3.2e-4 4.00185,1.7855 4.00195,4.00196 -9e-4,2.19736 -1.75841,3.97457 -3.95508,4 -0.0131,8.2e-4 -0.0261,0.002 -0.0391,0.004 -0.0149,-0.002 -0.0299,-0.003 -0.0449,-0.004 -10e-4,0 -0.003,0 -0.004,0 -2.19824,-0.0228 -3.95803,-1.80057 -3.95898,-4 9e-5,-2.21578 1.78479,-4.00131 4,-4.00196 z M 516.99805,435 C 515.34742,435 514,436.34922 514,438 c 0,1.65079 1.34742,3 2.99805,3 1.65063,0 3,-1.34921 3,-3 0,-1.65078 -1.34937,-3 -3,-3 z m 0,1 c 1.11009,0 2,0.88955 2,2 0,1.11045 -0.88991,2 -2,2 C 515.88796,440 515,439.11045 515,438 c 0,-1.11045 0.88796,-2 1.99805,-2 z"></path>
  </g>
</svg>