<svg xmlns="http://www.w3.org/2000/svg" height="64" width="64" viewBox="66 428 20 20">
  <g style="fill: #ffffff;" id="g14020" transform="translate(153,38)" data-label="U-4">
    <path style="fill: #ffffff; stroke-linecap: round; stroke-linejoin: round; stroke-dashoffset: 0.5;" d="m -76.5,394 -3.751953,0.006 c -0.228491,0.001 -0.427071,0.15722 -0.482422,0.37891 l -1.25,4.99414 c -0.07853,0.31517 0.159565,0.6204 0.484375,0.62095 h 3.75 c 0.22922,-3.6e-4 0.428845,-0.15652 0.484375,-0.37891 l 1.25,-5 C -75.936984,394.30587 -76.175116,394.00052 -76.5,394 Z m 6,0 -3.751953,0.006 c -0.228491,0.001 -0.427071,0.15722 -0.482422,0.37891 l -1.25,4.99414 c -0.07853,0.31517 0.159565,0.6204 0.484375,0.62095 h 3.75 c 0.22922,-3.6e-4 0.428845,-0.15652 0.484375,-0.37891 l 1.25,-5 C -69.936984,394.30587 -70.175116,394.00052 -70.5,394 Z m -8,7 -3.751953,0.006 c -0.228491,0.001 -0.427071,0.15722 -0.482422,0.37891 l -1.25,4.99414 c -0.07853,0.31517 0.159565,0.6204 0.484375,0.62095 h 3.75 c 0.22922,-3.6e-4 0.428845,-0.15652 0.484375,-0.37891 l 1.25,-5 C -77.936984,401.30587 -78.175116,401.00052 -78.5,401 Z m 6,0 -3.751953,0.006 c -0.228491,0.001 -0.427071,0.15722 -0.482422,0.37891 l -1.25,4.99414 c -0.07853,0.31517 0.159565,0.6204 0.484375,0.62095 h 3.75 c 0.22922,-3.6e-4 0.428845,-0.15652 0.484375,-0.37891 l 1.25,-5 C -71.936984,401.30587 -72.175116,401.00052 -72.5,401 Z" id="path13999"></path>
  </g>
</svg>