<svg xmlns="http://www.w3.org/2000/svg" height="64" width="64" viewBox="192 449 20 20">
  <g id="g5260" transform="translate(21,42)" style="fill: #ffffff;" data-label="V-10">
    <path id="path13014" d="m 176.5,410 a 0.50005,0.50005 0 1 0 0,1 h 0.79297 L 178,411.70703 v 10.58594 L 177.29297,423 H 176.5 a 0.50005,0.50005 0 1 0 0,1 h 1 a 0.50005,0.50005 0 0 0 0.35352,-0.14648 l 0.64648,-0.64649 0.64648,0.64649 A 0.50005,0.50005 0 0 0 179.5,424 h 1 a 0.50005,0.50005 0 1 0 0,-1 h -0.79297 L 179,422.29297 V 411.70703 L 179.70703,411 H 180.5 a 0.50005,0.50005 0 1 0 0,-1 h -1 a 0.50005,0.50005 0 0 0 -0.35352,0.14648 l -0.64648,0.64649 -0.64648,-0.64649 A 0.50005,0.50005 0 0 0 177.5,410 Z" style="fill: #ffffff; stroke-linecap: round; stroke-linejoin: round;"></path>
    <path id="path13066" d="m 174.5,414 a 0.50005,0.50005 0 0 0 -0.5,0.5 v 5 a 0.50005,0.50005 0 0 0 0.5,0.5 h 2.5 v -1 h -2 v -4 h 2 v -1 z m 5.5,0 v 1 h 7.00781 v 4 H 180 v 1 h 7.50781 a 0.50005,0.50005 0 0 0 0.5,-0.5 v -5 a 0.50005,0.50005 0 0 0 -0.5,-0.5 z" style="opacity: 0.6; fill: #ffffff; stroke-linejoin: round;"></path>
  </g>
</svg>