<svg xmlns="http://www.w3.org/2000/svg" height="64" width="64" viewBox="297 449 20 20">
  <g id="g38047" style="" data-label="V-15">
    <path style="color: rgb(0, 0, 0); fill: #ffffff; stroke-linecap: round; stroke-linejoin: round;" d="m 310.26367,452.0293 c -0.67255,-0.0123 -1.33821,0.3 -1.8789,0.8789 l -0.23829,0.23828 a 0.50004997,0.50004997 0 0 0 -0.084,0.10938 0.50004997,0.50004997 0 0 0 -0.0879,0.0723 l -1.26563,1.25196 c -0.23797,0.23547 -0.44036,0.48356 -0.58984,0.75781 a 0.50004997,0.50004997 0 1 0 0.87695,0.47852 c 0.0885,-0.16243 0.22753,-0.33889 0.41602,-0.52539 l 1.26562,-1.25391 a 0.50004997,0.50004997 0 0 0 0.0899,-0.11523 0.50004997,0.50004997 0 0 0 0.002,-0.002 0.50004997,0.50004997 0 0 0 0.084,-0.0664 l 0.25,-0.25 a 0.50004997,0.50004997 0 0 0 0.0117,-0.0117 c 0.39332,-0.4211 0.76594,-0.57109 1.12891,-0.56446 0.36298,0.007 0.75841,0.18208 1.15234,0.57618 0.39504,0.3952 0.56757,0.78617 0.57422,1.14648 0.007,0.36031 -0.14053,0.73397 -0.56445,1.13672 l -0.26758,0.2539 a 0.50004997,0.50004997 0 0 0 -0.0957,0.12305 0.50004997,0.50004997 0 0 0 -0.0859,0.0684 l -1.25,1.25 a 0.50004997,0.50004997 0 0 0 -0.0137,0.0117 c -0.16233,0.1738 -0.32346,0.30196 -0.48047,0.39063 a 0.50026213,0.50026213 0 1 0 0.49219,0.87109 c 0.25644,-0.14482 0.49753,-0.33919 0.7207,-0.57813 l 1.23828,-1.23828 a 0.50004997,0.50004997 0 0 0 0.0859,-0.11133 0.50004997,0.50004997 0 0 0 0.0781,-0.0625 l 0.26563,-0.25195 c 0.57608,-0.54732 0.88934,-1.2117 0.87695,-1.88281 -0.0124,-0.67111 -0.33835,-1.30493 -0.86718,-1.83399 -0.52994,-0.53015 -1.16729,-0.85488 -1.83985,-0.86718 z m -1.77344,3.96679 a 0.50004997,0.50004997 0 0 0 -0.34375,0.15039 l -4.01367,4.01563 a 0.50004997,0.50004997 0 1 0 0.70703,0.70703 l 4.01368,-4.01562 a 0.50004997,0.50004997 0 0 0 -0.36329,-0.85743 z m -4.94921,2.1836 a 0.50004997,0.50004997 0 0 0 -0.22852,0.0469 c -0.33394,0.14944 -0.64532,0.37928 -0.92773,0.68164 l -1.23829,1.23828 a 0.50004997,0.50004997 0 0 0 -0.0547,0.0645 l -0.18555,0.17578 c -0.57608,0.54731 -0.88934,1.2117 -0.87695,1.88281 0.0124,0.67111 0.33835,1.30494 0.86718,1.83399 0.52994,0.53016 1.16729,0.85489 1.83985,0.86718 0.67255,0.0123 1.33821,-0.3 1.8789,-0.8789 l 0.23829,-0.23828 a 0.50004997,0.50004997 0 0 0 0.0605,-0.0723 0.50004997,0.50004997 0 0 0 0.004,-0.004 l 1.18359,-1.17187 c 0.27971,-0.27677 0.50962,-0.57119 0.66211,-0.9043 a 0.50004997,0.50004997 0 1 0 -0.9082,-0.41601 c -0.0851,0.18591 -0.2355,0.39018 -0.45703,0.60937 l -1.26563,1.25391 a 0.50004997,0.50004997 0 0 0 -0.0664,0.0762 0.50004997,0.50004997 0 0 0 -0.004,0.006 l -0.16602,0.16601 a 0.50004997,0.50004997 0 0 0 -0.0117,0.0117 c -0.39332,0.4211 -0.76594,0.57109 -1.12891,0.56446 -0.36298,-0.007 -0.75841,-0.18208 -1.15234,-0.57618 -0.39505,-0.3952 -0.56758,-0.78617 -0.57422,-1.14648 -0.007,-0.36031 0.14053,-0.73396 0.56445,-1.13672 l 0.26758,-0.2539 a 0.50004997,0.50004997 0 0 0 0.0742,-0.0879 l 1.16797,-1.16796 a 0.50004997,0.50004997 0 0 0 0.0117,-0.0117 c 0.20545,-0.21996 0.40997,-0.36564 0.60547,-0.45313 a 0.50004997,0.50004997 0 0 0 -0.17968,-0.95898 z" id="path23240-3"></path>
  </g>
</svg>