<svg xmlns="http://www.w3.org/2000/svg" height="64" width="64" viewBox="339 449 20 20">
  <g id="g38071" style="" data-label="V-17">
    <path id="path20615" style="color: rgb(0, 0, 0); opacity: 0.6; fill: #ffffff; stroke-linejoin: round;" d="m 345.50001,453 c -1.92707,0 -3.5,1.57293 -3.5,3.5 v 0.5 h 1 v -0.5 c 0,-1.38663 1.11337,-2.5 2.5,-2.5 1.38663,0 2.5,1.11337 2.5,2.5 v 1.5 h -0.5 a 0.50005,0.50005 0 0 0 -0.5,0.5 v 5 a 0.50005,0.50005 0 0 0 0.5,0.5 h 8 a 0.50005,0.50005 0 0 0 0.5,-0.5 v -5 a 0.50005,0.50005 0 0 0 -0.5,-0.5 h -6.5 v -1.5 c 0,-1.92707 -1.57293,-3.5 -3.5,-3.5 z m 2.5,6 h 7 v 4 h -7 z m 3,0.99999 h 1 V 462 h -1 z"></path>
  </g>
</svg>