<svg xmlns="http://www.w3.org/2000/svg" style="background: #808080" height="64" width="64" viewBox="24 449 20 20">
  <g id="g38032" style="" data-label="V-2">
    <path id="rect10947" d="M 31.484375,452 C 29.563145,452 28,453.56315 28,455.48438 v 8.03124 C 28,465.43685 29.563145,467 31.484375,467 h 4.03125 C 37.436855,467 39,465.43685 39,463.51562 v -8.03124 C 39,453.56315 37.436855,452 35.515625,452 Z m 0,1 h 4.03125 C 36.900155,453 38,454.09985 38,455.48438 v 8.03124 C 38,464.90015 36.900155,466 35.515625,466 h -4.03125 C 30.099845,466 29,464.90015 29,463.51562 v -8.03124 C 29,454.09985 30.099845,453 31.484375,453 Z m 1.5625,1 C 32.475545,454 32,454.47555 32,455.04688 v 3.90624 C 32,459.52445 32.475545,460 33.046875,460 h 0.90625 C 34.524455,460 35,459.52445 35,458.95312 v -3.90624 C 35,454.47555 34.524455,454 33.953125,454 Z" style="color: rgb(0, 0, 0); fill: #ffffff; stroke-linecap: round; stroke-linejoin: round;"></path>
  </g>
</svg>