<svg xmlns="http://www.w3.org/2000/svg" style="background: #808080" height="64" width="64" viewBox="402 449 20 20">
  <g id="g38035" style="" data-label="V-20">
    <path id="path4106" d="m 408.48148,452.0625 c -1.71014,0.0728 -3.32227,1.4838 -3.32227,3.9375 0,2.05278 1.07076,4.01178 2.38672,5.71289 1.31595,1.70111 2.90024,3.15481 4.03125,4.16016 0.0914,0.0816 0.20954,0.12673 0.33203,0.12695 h 0.5 c 0.12249,-2.2e-4 0.24064,-0.0454 0.33203,-0.12695 1.13101,-1.00535 2.7153,-2.45905 4.03125,-4.16016 1.31596,-1.70111 2.38672,-3.66011 2.38672,-5.71289 0,-2.4537 -1.61213,-3.86473 -3.32227,-3.9375 -1.52139,-0.0647 -3.0532,0.927 -3.67773,2.69727 -0.62453,-1.77027 -2.15634,-2.76201 -3.67773,-2.69727 z" style="color: rgb(0, 0, 0); fill: #ffffff; stroke-linecap: round; stroke-linejoin: round;"></path>
  </g>
</svg>