<svg xmlns="http://www.w3.org/2000/svg" style="background: #808080" height="64" width="64" viewBox="423 449 20 20">
  <g id="g38068" style="" data-label="V-21">
    <path style="color: rgb(0, 0, 0); fill: #ffffff; stroke-width: 1px; stroke-linejoin: round;" d="m 428.25,452 c -0.6506,0 -1.23633,0.19727 -1.64453,0.60547 -0.4083,0.4081 -0.60567,0.99393 -0.60547,1.64453 v 9.5 c 2e-4,0.6505 0.19727,1.23643 0.60547,1.64453 C 427.01357,465.80273 427.5994,466 428.25,466 H 429 v -1 h -0.75 c -0.4574,0 -0.7477,-0.1227 -0.9375,-0.3125 -0.1898,-0.1898 -0.3124,-0.48 -0.3125,-0.9375 v -9.5 c -10e-5,-0.4574 0.1227,-0.7477 0.3125,-0.9375 C 427.5023,453.1227 427.7926,453 428.25,453 H 429 v -1 z m 8.75,0 v 1 h 0.75 c 0.4574,0 0.7477,0.1227 0.9375,0.3125 0.1898,0.1898 0.3125,0.4801 0.3125,0.9375 v 9.5 c 0,0.4574 -0.1227,0.7477 -0.3125,0.9375 C 438.4977,464.8773 438.2074,465 437.75,465 H 437 v 1 h 0.75 c 0.6506,0 1.23643,-0.19727 1.64453,-0.60547 C 439.80273,464.98643 440,464.4006 440,463.75 v -9.5 c 0,-0.6506 -0.19727,-1.23643 -0.60547,-1.64453 C 438.98643,452.19727 438.4006,452 437.75,452 Z m -4,4 v 2 h -1.5 a 0.50005,0.50005 0 0 0 -0.5,0.5 v 1.5 h -2 v 1 h 2 v 1.5 a 0.50005,0.50005 0 0 0 0.5,0.5 h 1.5 v 2 h 1 v -2 h 1.5 a 0.50005,0.50005 0 0 0 0.5,-0.5 V 461 h 2 v -1 h -2 v -1.5 A 0.50005,0.50005 0 0 0 435.5,458 H 434 v -2 z m -1,3 h 3 v 3 h -3 z" id="path19168-3"></path>
  </g>
</svg>