<svg xmlns="http://www.w3.org/2000/svg" height="64" width="64" viewBox="444 449 20 20">
  <g id="g38050" style="" data-label="V-22">
    <path style="opacity: 0.6; fill: #ffffff; stroke-linecap: round; stroke-linejoin: round;" d="M 450.32227,452.0625 C 448.61213,452.13527 447,453.5463 447,456 c 0,2.05278 1.07076,4.01178 2.38672,5.71289 1.31595,1.70111 2.90024,3.15481 4.03125,4.16016 A 0.50005,0.50005 0 0 0 453.75,466 h 0.5 a 0.50005,0.50005 0 0 0 0.33203,-0.12695 c 1.13101,-1.00535 2.7153,-2.45905 4.03125,-4.16016 C 459.92924,460.01178 461,458.05278 461,456 c 0,-2.4537 -1.61213,-3.86473 -3.32227,-3.9375 -1.52139,-0.0647 -3.0532,0.927 -3.67773,2.69727 -0.62453,-1.77027 -2.15634,-2.76201 -3.67773,-2.69727 z m 0.043,1 c 1.22737,-0.0522 2.55838,0.74689 2.89258,2.5293 A 0.50005,0.50005 0 0 0 453.75,456 h 0.5 a 0.50005,0.50005 0 0 0 0.49219,-0.4082 c 0.3342,-1.78241 1.66521,-2.58153 2.89258,-2.5293 C 458.86213,453.1147 460,453.9537 460,456 c 0,1.69722 -0.92924,3.48822 -2.17578,5.09961 -1.20727,1.56061 -2.67447,2.91135 -3.7832,3.90039 h -0.082 c -1.10873,-0.98904 -2.57593,-2.33978 -3.7832,-3.90039 C 448.92924,459.48822 448,457.69722 448,456 c 0,-2.0463 1.13787,-2.88527 2.36523,-2.9375 z" id="path6081"></path>
  </g>
</svg>