<svg xmlns="http://www.w3.org/2000/svg" height="64" width="64" viewBox="465 449 20 20">
  <g id="g38053" style="" data-label="V-23">
    <path style="color: rgb(0, 0, 0); fill: #ffffff; stroke-linecap: round; stroke-linejoin: round;" d="M 471.32227,452.0625 C 469.61213,452.13527 468,453.5463 468,456 c 0,1.29326 0.43161,2.55298 1.07227,3.72852 0.16015,0.29312 0.55714,0.34983 0.79296,0.11328 l 3.63477,-3.63477 1.64648,1.64649 c 0.19527,0.19519 0.51177,0.19519 0.70704,0 l 2.64648,-2.64649 2.48242,2.48242 c 0.27743,0.27645 0.75058,0.14111 0.83985,-0.24023 C 481.93311,456.97518 482,456.49157 482,456 c 0,-2.4537 -1.61213,-3.86473 -3.32227,-3.9375 -1.52139,-0.0647 -3.0532,0.927 -3.67773,2.69727 -0.62453,-1.77027 -2.15634,-2.76201 -3.67773,-2.69727 z M 478.49219,458 c -0.12989,0.002 -0.25387,0.0546 -0.34571,0.14648 l -2.64648,2.64649 -1.64648,-1.64649 c -0.19527,-0.19519 -0.51177,-0.19519 -0.70704,0 l -2.34765,2.34766 c -0.18257,0.18194 -0.19694,0.47283 -0.0332,0.67188 1.2321,1.49847 2.62304,2.79208 3.65235,3.70703 0.0914,0.0816 0.20953,0.12673 0.33202,0.12695 h 0.5 c 0.12249,-2.2e-4 0.24064,-0.0454 0.33203,-0.12695 1.41546,-1.2582 3.54029,-3.21344 4.96094,-5.48828 0.12374,-0.19754 0.0946,-0.45438 -0.0703,-0.61915 l -1.61914,-1.61914 c -0.0957,-0.0957 -0.22604,-0.14856 -0.36134,-0.14648 z" id="path6086"></path>
  </g>
</svg>