<svg xmlns="http://www.w3.org/2000/svg" height="64" width="64" viewBox="486 449 20 20">
  <g id="g38038" style="" data-label="V-24">
    <path style="color: rgb(0, 0, 0); fill: #ffffff; stroke-width: 1px; stroke-linecap: round; stroke-linejoin: round;" d="m 495.50391,451.99219 c -1.93006,0 -3.50391,1.57292 -3.50391,3.5 v 2 c 0,0.41666 0.19292,0.77495 0.45898,1.04101 0.26607,0.26607 0.62435,0.45899 1.04102,0.45899 a 0.50005,0.50005 0 1 0 0,-1 c -0.0833,0 -0.22505,-0.0571 -0.33398,-0.16602 C 493.05708,457.71724 493,457.57552 493,457.49219 v -2 c 0,-1.38664 1.11314,-2.5 2.50391,-2.5 h 1.0039 c 1.39077,0 2.50196,1.11336 2.50196,2.5 v 2 c 0,0.0833 -0.0571,0.22505 -0.16602,0.33398 -0.10893,0.10893 -0.25065,0.16602 -0.33398,0.16602 a 0.50005,0.50005 0 1 0 0,1 c 0.41666,0 0.77494,-0.19292 1.04101,-0.45899 0.26607,-0.26606 0.45899,-0.62435 0.45899,-1.04101 v -2 c 0,-1.92708 -1.57191,-3.5 -3.50196,-3.5 z m 3.94921,7.41406 a 0.50005,0.50005 0 0 0 -0.48632,0.33203 c -0.17381,0.48217 -0.35767,1.04392 -0.75391,1.48047 -0.39624,0.43655 -0.98986,0.78906 -2.17578,0.78906 -1.18761,0 -1.78805,-0.34711 -2.19141,-0.77929 -0.40336,-0.43219 -0.59802,-0.98975 -0.78515,-1.47266 a 0.50005,0.50005 0 0 0 -0.67578,-0.27344 c -0.97162,0.44606 -1.78522,0.89986 -2.38868,1.45508 C 489.39264,461.49272 489,462.19074 489,462.99219 v 2.5 a 0.50005,0.50005 0 0 0 0.5,0.5 h 13.00977 a 0.50005,0.50005 0 0 0 0.5,-0.5 v -2.5 c 0,-0.79711 -0.38431,-1.49976 -0.98243,-2.06446 -0.59811,-0.56469 -1.40897,-1.02891 -2.38086,-1.47461 a 0.50005,0.50005 0 0 0 -0.19336,-0.0469 z m 0.17579,1.19922 c 0.68529,0.34567 1.33558,0.69455 1.71289,1.05078 0.46505,0.43906 0.66797,0.84399 0.66797,1.33594 v 2 H 490 v -2 c 0,-0.49365 0.20477,-0.8868 0.67383,-1.31836 0.38208,-0.35154 1.03995,-0.69804 1.73437,-1.04492 0.1643,0.40983 0.28954,0.83601 0.70508,1.28125 0.58146,0.623 1.5239,1.09765 2.92383,1.09765 1.40162,0 2.34196,-0.48473 2.91601,-1.11719 0.40651,-0.44786 0.51938,-0.87307 0.67579,-1.28515 z" id="path6745-8"></path>
  </g>
</svg>