<svg xmlns="http://www.w3.org/2000/svg" style="background: #808080" height="64" width="64" viewBox="483 428 20 20">
  <g id="g38026" style="" data-label="V-25">
    <path style="color: rgb(0, 0, 0); fill: #ffffff; stroke-linecap: round; stroke-linejoin: round; marker: none;" d="m 511.5,452 c -0.8225,0 -1.5,0.6775 -1.5,1.5 0,0.82251 0.6775,1.5 1.5,1.5 0.64684,0 1.19777,-0.42097 1.40625,-1 h 1.1875 c 0.20848,0.57903 0.75941,1 1.40625,1 0.8225,0 1.5,-0.67749 1.5,-1.5 0,-0.8225 -0.6775,-1.5 -1.5,-1.5 -0.64637,0 -1.19742,0.42162 -1.40625,1 h -1.1875 c -0.20883,-0.57838 -0.75988,-1 -1.40625,-1 z m 11,0 c -0.64637,0 -1.19742,0.42162 -1.40625,1 H 520.5 a 0.50005,0.50005 0 0 0 -0.35352,0.14648 L 516.29297,457 h -3.38672 c -0.20883,-0.57838 -0.75988,-1 -1.40625,-1 -0.8225,0 -1.5,0.6775 -1.5,1.5 0,0.82251 0.6775,1.5 1.5,1.5 0.64684,0 1.19777,-0.42097 1.40625,-1 H 516.5 a 0.50005,0.50005 0 0 0 0.35352,-0.14648 L 520.70703,454 h 0.38672 c 0.20848,0.57903 0.75941,1 1.40625,1 0.8225,0 1.5,-0.67749 1.5,-1.5 0,-0.8225 -0.6775,-1.5 -1.5,-1.5 z m -11,1 c 0.27091,0 0.47782,0.20294 0.49414,0.46875 a 0.50005,0.50005 0 0 0 0,0.0625 C 511.97782,453.79707 511.77091,454 511.5,454 c -0.28206,0 -0.5,-0.21793 -0.5,-0.5 0,-0.28206 0.21794,-0.5 0.5,-0.5 z m 4,0 c 0.28206,0 0.5,0.21794 0.5,0.5 0,0.28207 -0.21794,0.5 -0.5,0.5 -0.27091,0 -0.47782,-0.20293 -0.49414,-0.46875 a 0.50005,0.50005 0 0 0 0,-0.0625 C 515.02218,453.20294 515.22909,453 515.5,453 Z m 7,0 c 0.28206,0 0.5,0.21794 0.5,0.5 0,0.28207 -0.21794,0.5 -0.5,0.5 -0.27091,0 -0.47782,-0.20293 -0.49414,-0.46875 a 0.50005,0.50005 0 0 0 0,-0.0625 C 522.02218,453.20294 522.22909,453 522.5,453 Z m 0,3 c -0.64637,0 -1.19742,0.42162 -1.40625,1 H 520.5 a 0.50005,0.50005 0 0 0 -0.35352,0.14648 l -5,5 A 0.50005,0.50005 0 0 0 515,462.5 v 0.59375 c -0.57903,0.20848 -1,0.75941 -1,1.40625 0,0.82251 0.6775,1.5 1.5,1.5 0.8225,0 1.5,-0.67749 1.5,-1.5 0,-0.64684 -0.42097,-1.19777 -1,-1.40625 v -0.38672 L 520.70703,458 h 0.38672 c 0.20848,0.57903 0.75941,1 1.40625,1 0.8225,0 1.5,-0.67749 1.5,-1.5 0,-0.8225 -0.6775,-1.5 -1.5,-1.5 z m -11,1 c 0.28206,0 0.5,0.21794 0.5,0.5 0,0.28207 -0.21794,0.5 -0.5,0.5 -0.28206,0 -0.5,-0.21793 -0.5,-0.5 0,-0.28206 0.21794,-0.5 0.5,-0.5 z m 11,0 c 0.28206,0 0.5,0.21794 0.5,0.5 0,0.28207 -0.21794,0.5 -0.5,0.5 -0.27091,0 -0.47782,-0.20293 -0.49414,-0.46875 a 0.50005,0.50005 0 0 0 0,-0.0625 C 522.02218,457.20294 522.22909,457 522.5,457 Z m -11,3 c -0.8225,0 -1.5,0.6775 -1.5,1.5 0,0.82251 0.6775,1.5 1.5,1.5 0.8225,0 1.5,-0.67749 1.5,-1.5 0,-0.8225 -0.6775,-1.5 -1.5,-1.5 z m 11,0 c -0.8225,0 -1.5,0.6775 -1.5,1.5 0,0.23017 0.0579,0.44679 0.15234,0.64258 a 0.50005,0.50005 0 0 0 -0.006,0.004 l -1,1 a 0.50005,0.50005 0 0 0 -0.004,0.006 C 519.94679,463.05791 519.73016,463 519.5,463 c -0.8225,0 -1.5,0.6775 -1.5,1.5 0,0.82251 0.6775,1.5 1.5,1.5 0.8225,0 1.5,-0.67749 1.5,-1.5 0,-0.23002 -0.058,-0.44493 -0.15234,-0.64062 a 0.50005,0.50005 0 0 0 0.006,-0.006 l 1,-1 a 0.50005,0.50005 0 0 0 0.004,-0.004 c 0.1955,0.0946 0.41225,0.15062 0.64234,0.15062 0.8225,0 1.5,-0.67749 1.5,-1.5 0,-0.8225 -0.6775,-1.5 -1.5,-1.5 z m -11,1 c 0.28206,0 0.5,0.21794 0.5,0.5 0,0.28207 -0.21794,0.5 -0.5,0.5 -0.28206,0 -0.5,-0.21793 -0.5,-0.5 0,-0.28206 0.21794,-0.5 0.5,-0.5 z m 11,0 c 0.28206,0 0.5,0.21794 0.5,0.5 0,0.28207 -0.21794,0.5 -0.5,0.5 -0.28206,0 -0.5,-0.21793 -0.5,-0.5 0,-0.28206 0.21794,-0.5 0.5,-0.5 z m -3,3 c 0.28206,0 0.5,0.21794 0.5,0.5 0,0.28207 -0.21794,0.5 -0.5,0.5 -0.28206,0 -0.5,-0.21793 -0.5,-0.5 0,-0.28206 0.21794,-0.5 0.5,-0.5 z m -4.0293,0.006 a 0.50005,0.50005 0 0 0 0.0371,0 0.50005,0.50005 0 0 0 0.0176,0 c 0.26874,0.0134 0.4746,0.22107 0.4746,0.494 0,0.28207 -0.21794,0.5 -0.5,0.5 -0.28206,0 -0.5,-0.21793 -0.5,-0.5 0,-0.27158 0.20391,-0.47876 0.4707,-0.49414 z" id="circle28282"></path>
  </g>
</svg>