<svg xmlns="http://www.w3.org/2000/svg" height="64" width="64" viewBox="528 449 20 20">
  <g id="g6143" style="fill: #ffffff;" data-label="V-26">
    <g id="g12901" transform="matrix(-0.799288,0,0,0.799288,828.432,282.268)" style="opacity: 0.7; fill: #ffffff; stroke-width: 1.25111;">
      <path id="path12894" transform="matrix(-1.25111,0,0,1.25111,1036.46,-353.149)" d="m 535.49805,458.00391 a 0.50004999,0.50004999 0 0 0 -0.50391,0.50781 l 0.002,1.33984 c -0.37236,0.0723 -0.71902,0.21977 -1.02148,0.42774 l -1.12695,-1.12305 a 0.50004999,0.50004999 0 0 0 -0.3418,-0.15039 0.50004999,0.50004999 0 0 0 -0.36328,0.85742 l 1.12695,1.12305 c -0.20781,0.30095 -0.35637,0.64504 -0.42969,1.01562 l -1.3457,0.004 a 0.50033487,0.50033487 0 0 0 0.002,1 l 1.33789,-0.002 c 0.0677,0.37781 0.20888,0.73164 0.41602,1.03906 l -1.10742,1.10937 a 0.50004999,0.50004999 0 1 0 0.70508,0.70508 l 1.10351,-1.10156 c 0.30838,0.21694 0.66219,0.37111 1.04492,0.44531 l -0.002,1.30078 a 0.50033678,0.50033678 0 1 0 1,0.004 l 0.002,-1.30274 c 0.3865,-0.0701 0.74651,-0.21619 1.0586,-0.43164 l 1.08203,1.08594 a 0.50005719,0.50005719 0 1 0 0.70703,-0.70508 l -1.08398,-1.08984 c 0.21441,-0.31231 0.36249,-0.67226 0.43164,-1.05859 h 1.30664 a 0.50098,0.50098 0 1 0 0,-1.00196 h -1.3125 c -0.0748,-0.37855 -0.23067,-0.72769 -0.44532,-1.0332 l 1.10352,-1.10547 a 0.50004999,0.50004999 0 0 0 -0.34961,-0.85937 0.50004999,0.50004999 0 0 0 -0.35742,0.15234 l -1.10938,1.10742 c -0.30548,-0.20557 -0.65624,-0.346 -1.03125,-0.41406 l -0.004,-1.33984 a 0.50004999,0.50004999 0 0 0 -0.49219,-0.50586 0.50004999,0.50004999 0 0 1 -0.002,0 z m -0.002,3.29882 c 0.66274,0 1.20117,0.53844 1.20118,1.20118 0,0.66273 -0.53844,1.19921 -1.20118,1.19921 -0.66273,0 -1.19921,-0.53648 -1.19921,-1.19921 0,-0.66273 0.53648,-1.20117 1.19921,-1.20118 z" style="fill: #ffffff; stroke-linecap: round; stroke-linejoin: round;"></path>
    </g>
    <g style="fill: #ffffff; stroke-width: 1.25111;" transform="matrix(-0.799288,0,0,0.799288,833.432,275.268)" id="g12909">
      <path id="path12903" transform="matrix(-1.25111,0,0,1.25111,1042.72,-344.391)" d="m 540.49805,451.00391 a 0.50004999,0.50004999 0 0 0 -0.50391,0.50781 l 0.002,1.33984 c -0.37236,0.0723 -0.71902,0.21977 -1.02148,0.42774 l -1.12695,-1.12305 a 0.50004999,0.50004999 0 0 0 -0.3418,-0.15039 0.50004999,0.50004999 0 0 0 -0.36328,0.85742 l 1.12695,1.12305 c -0.20781,0.30095 -0.35637,0.64503 -0.42969,1.01562 l -1.3457,0.004 a 0.50033487,0.50033487 0 0 0 0.002,1 l 1.33789,-0.002 c 0.0677,0.37781 0.20888,0.73164 0.41602,1.03906 l -1.10742,1.10937 a 0.50004999,0.50004999 0 1 0 0.70508,0.70508 l 1.10351,-1.10156 c 0.30838,0.21694 0.66219,0.37111 1.04492,0.44531 l -0.002,1.30078 a 0.50033678,0.50033678 0 1 0 1,0.004 l 0.002,-1.30274 c 0.386,-0.07 0.74484,-0.21858 1.05664,-0.43359 l 1.08399,1.08789 a 0.50005719,0.50005719 0 1 0 0.70703,-0.70508 l -1.08398,-1.08984 c 0.21441,-0.31231 0.36249,-0.67226 0.43164,-1.05859 h 1.30664 a 0.50098,0.50098 0 1 0 0,-1.00196 h -1.3125 c -0.0748,-0.37855 -0.23067,-0.72769 -0.44532,-1.0332 l 1.10352,-1.10547 a 0.50004999,0.50004999 0 0 0 -0.34961,-0.85937 0.50004999,0.50004999 0 0 0 -0.35742,0.15234 l -1.10938,1.10742 c -0.30548,-0.20557 -0.65624,-0.346 -1.03125,-0.41406 l -0.004,-1.33984 a 0.50004999,0.50004999 0 0 0 -0.49219,-0.50586 0.50004999,0.50004999 0 0 1 -0.002,0 z m -0.002,3.29882 c 0.66274,0 1.20117,0.53844 1.20118,1.20118 0,0.66273 -0.53844,1.19921 -1.20118,1.19921 -0.66273,0 -1.19921,-0.53648 -1.19921,-1.19921 0,-0.66273 0.53648,-1.20117 1.19921,-1.20118 z" style="fill: #ffffff; stroke-linecap: round; stroke-linejoin: round;"></path>
    </g>
  </g>
</svg>