<svg xmlns="http://www.w3.org/2000/svg" height="64" width="64" viewBox="45 449 20 20">
  <g id="g38056" style="" data-label="V-3">
    <path style="fill: #ffffff; stroke-linejoin: round;" d="m 56.515625,452 c 0.752,0 1.453818,0.239 2.023438,0.64453 C 59.424733,453.27508 60,454.31514 60,455.48438 V 458.5 c -3e-5,0.27537 -0.222677,0.4989 -0.498047,0.5 l -4.009765,0.008 c -0.27613,-3e-5 -0.49997,-0.22387 -0.5,-0.5 L 55,452.53516 v -0.002 -0.0352 C 55.001,452.22272 55.22466,452.00003 55.5,452 Z M 54,452 v 1 H 52.484375 C 51.099855,453 50,454.09985 50,455.48438 v 8.03124 C 50,464.90014 51.099855,466 52.484375,466 h 4.03125 C 57.900145,466 59,464.90014 59,463.51562 V 460 h 1 v 3.51562 C 60,465.43685 58.436855,467 56.515625,467 h -4.03125 C 50.563145,467 49,465.43686 49,463.51562 v -8.03124 C 49,453.56315 50.563145,452 52.484375,452 Z" id="path6557"></path>
  </g>
</svg>