<svg xmlns="http://www.w3.org/2000/svg" height="64" width="64" viewBox="66 449 20 20">
  <g transform="translate(-84,1.45e-5)" id="g10880" style="fill: #ffffff;" data-label="V-4">
    <g transform="translate(-523,-56)" id="g10853" style="fill:#ffffff"></g>
    <g id="g10878" style="fill:#ffffff">
      <path style="color: rgb(0, 0, 0); opacity: 0.6; fill: #ffffff; stroke-linecap: round; stroke-linejoin: round;" d="M 157.49219,453.99222 A 0.50005,0.50005 0 0 0 157,454.50003 v 4 a 0.50005,0.50005 0 1 0 1,0 v -4 a 0.50005,0.50005 0 0 0 -0.50781,-0.50781 z" id="path10874"></path>
      <path style="color: rgb(0, 0, 0); fill: #ffffff; stroke-linecap: round; stroke-linejoin: round;" d="m 80.476562,451.02148 a 0.50005,0.50005 0 0 0 -0.314453,0.8711 c 0.58809,0.54453 0.841797,1.0856 0.841797,1.60156 L 81,459.5 a 0.50005,0.50005 0 1 0 1,0 l 0.0039,-6.00586 c 0,-0.8509 -0.431789,-1.65971 -1.162109,-2.33594 a 0.50005,0.50005 0 0 0 -0.365235,-0.13672 z M 71.5625,452 C 69.59752,452 68,453.59753 68,455.5625 v 7.875 C 68,465.40247 69.59752,467 71.5625,467 h 3.875 C 77.40247,467 79,465.40247 79,463.4375 v -7.875 C 79,453.59753 77.40247,452 75.4375,452 Z m 0,1 h 3.875 C 76.86577,453 78,454.13423 78,455.5625 v 7.875 C 78,464.86577 76.86577,466 75.4375,466 h -3.875 C 70.13422,466 69,464.86577 69,463.4375 v -7.875 C 69,454.13423 70.13422,453 71.5625,453 Z m 11.929688,0.0371 A 0.50005,0.50005 0 0 0 83,453.54297 v 4.05859 a 0.50005,0.50005 0 1 0 1,0 v -4.05859 a 0.50005,0.50005 0 0 0 -0.507812,-0.50586 z" transform="translate(84,-1.45e-5)" id="rect10876"></path>
    </g>
  </g>
</svg>