<svg xmlns="http://www.w3.org/2000/svg" height="64" width="64" viewBox="108 449 20 20">
  <g id="g38062" style="" data-label="V-6">
    <path id="path6598" style="fill: #ffffff; stroke-linecap: round; stroke-linejoin: round;" d="M 113.48438,452 C 111.56315,452 110,453.56315 110,455.48438 v 8.03124 c 0,1.92123 1.56315,3.48438 3.48438,3.48438 h 4.03125 C 119.43685,467 121,465.43685 121,463.51562 v -8.03124 C 121,453.56315 119.43685,452 117.51563,452 Z m 0,1 h 4.03125 c 1.38452,0 2.48437,1.09985 2.48437,2.48438 v 8.03124 C 120,464.90015 118.90015,466 117.51563,466 h -4.03125 C 112.09985,466 111,464.90015 111,463.51562 v -8.03124 C 111,454.09985 112.09985,453 113.48438,453 Z m 1.5625,1 C 114.47554,454 114,454.47555 114,455.04688 v 3.90624 c 0,0.57133 0.47554,1.04688 1.04688,1.04688 h 0.90625 C 116.52446,460 117,459.52445 117,458.95312 v -3.90624 C 117,454.47555 116.52446,454 115.95313,454 Z m 7.42968,-2.97852 a 0.50005,0.50005 0 0 0 -0.31445,0.8711 c 0.58809,0.54453 0.8418,1.0856 0.8418,1.60156 L 123,459.5 a 0.50005,0.50005 0 1 0 1,0 l 0.004,-6.00586 c 0,-0.8509 -0.43179,-1.65971 -1.16211,-2.33594 a 0.50005,0.50005 0 0 0 -0.36524,-0.13672 z m 3.01563,2.01563 A 0.50005,0.50005 0 0 0 125,453.54297 v 4.05859 a 0.50005,0.50005 0 1 0 1,0 v -4.05859 a 0.50005,0.50005 0 0 0 -0.50781,-0.50586 z"></path>
  </g>
</svg>