<svg xmlns="http://www.w3.org/2000/svg" height="64" width="64" viewBox="150 449 20 20">
  <g id="g28614" transform="translate(-147,357)" style="" data-label="V-8">
    <path id="path28606" transform="translate(42)" d="m 263.50391,94.996094 c -0.25245,0 -0.505,0.169732 -0.5,0.507812 L 263,97 h -2.5 a 0.50005,0.50005 0 0 0 -0.5,0.5 v 2.5 l -1.49414,-0.002 c -0.67616,-0.0096 -0.67616,1.01 0,1 L 260,101 v 2 l -1.49414,-0.002 c -0.67616,-0.01 -0.67616,1.01 0,1 L 260,104 v 2.5 a 0.50005,0.50005 0 0 0 0.5,0.5 h 2.5 l 0.004,1.49609 c -0.01,0.67616 1.00956,0.67616 1,0 L 264,107 h 2 l 0.004,1.49609 c -0.01,0.67616 1.00956,0.67616 1,0 L 267,107 h 2.5 a 0.50005,0.50005 0 0 0 0.5,-0.5 V 104 l 1.49805,-0.002 c 0.67616,0.01 0.67616,-1.00956 0,-1 L 270,103 v -2 l 1.49805,-0.002 c 0.67616,0.01 0.67616,-1.009563 0,-1.000003 L 270,100 V 97.5 A 0.50005,0.50005 0 0 0 269.5,97 H 267 l 0.004,-1.496094 c 0.01,-0.67616 -1.01,-0.67616 -1,0 L 266,97 h -2 l 0.004,-1.496094 c 0.005,-0.33808 -0.24756,-0.507812 -0.5,-0.507812 z M 261,98 h 8 v 8 h -8 z" style="color: rgb(0, 0, 0); fill: #ffffff; stroke-linecap: round; stroke-linejoin: round;"></path>
    <g id="g28608" transform="rotate(180,370.0035,70.5)"></g>
    <path id="rect28616" d="m 305.5,100 a 0.50005,0.50005 0 0 0 -0.5,0.5 v 3 a 0.50005,0.50005 0 0 0 0.5,0.5 h 3 a 0.50005,0.50005 0 0 0 0.5,-0.5 v -3 a 0.50005,0.50005 0 0 0 -0.5,-0.5 z m 0.5,1 h 2 v 2 h -2 z" style="color: rgb(0, 0, 0); opacity: 0.6; fill: #ffffff; stroke-linecap: round; stroke-linejoin: round;"></path>
  </g>
</svg>