<svg xmlns="http://www.w3.org/2000/svg" style="background: #808080" height="64" width="64" viewBox="183 448 20 20">
  <g transform="matrix(0,1,1,0,37.9999,363)" id="g11084" style="fill: #ffffff;" data-label="W-10">
    <path style="color: rgb(0, 0, 0); fill: #ffffff; stroke-linecap: round; stroke-linejoin: round; marker: none;" d="m 202,473 c -3.86007,0 -7,3.13993 -7,7 0,3.86007 3.13993,7 7,7 3.86007,0 7,-3.13993 7,-7 0,-3.86007 -3.13993,-7 -7,-7 z m 0,1 c 1.09865,0 2,0.90135 2,2 0,1.09865 -0.90135,2 -2,2 -1.09865,0 -2,-0.90135 -2,-2 0,-1.09865 0.90135,-2 2,-2 z m -4,4 c 1.09865,0 2,0.90135 2,2 0,1.09865 -0.90135,2 -2,2 -1.09865,0 -2,-0.90135 -2,-2 0,-1.09865 0.90135,-2 2,-2 z m 8,0 c 1.09865,0 2,0.90135 2,2 0,1.09865 -0.90135,2 -2,2 -1.09865,0 -2,-0.90135 -2,-2 0,-1.09865 0.90135,-2 2,-2 z m -4,1 c 0.54636,0 1,0.45364 1,1 0,0.54636 -0.45364,1 -1,1 -0.54636,0 -1,-0.45364 -1,-1 0,-0.54636 0.45364,-1 1,-1 z m 0,3 c 1.09865,0 2,0.90135 2,2 0,1.09865 -0.90135,2 -2,2 -1.09865,0 -2,-0.90135 -2,-2 0,-1.09865 0.90135,-2 2,-2 z m 4.96484,4 a 0.50005,0.50005 0 0 0 -0.47265,0.49219 A 0.50005,0.50005 0 0 0 207,487 h 0.5 c 0.83333,0 1.14655,0.35353 1.64648,0.85352 a 0.50005,0.50005 0 1 0 0.70704,-0.70704 C 209.35355,486.64647 208.66667,486 207.5,486 H 207 a 0.50005,0.50005 0 0 0 -0.0352,0 z" transform="matrix(0,1,1,0,-363,-37.9999)" id="circle11078"></path>
  </g>
</svg>