<svg xmlns="http://www.w3.org/2000/svg" style="background: #808080" height="64" width="64" viewBox="203 448 20 20">
  <g id="g37779" style="" data-label="W-11">
    <path style="color: rgb(0, 0, 0); fill: #ffffff; stroke-linecap: round; stroke-linejoin: round; marker: none;" d="m 218.5,472 a 0.50005,0.50005 0 1 0 0,1 h 3 a 0.50005,0.50005 0 1 0 0,-1 z m -2,2 c -0.27613,3e-5 -0.49997,0.22387 -0.5,0.5 v 12 c 3e-5,0.27613 0.22387,0.49997 0.5,0.5 h 7 c 0.67616,0.01 0.67616,-1.00956 0,-1 H 217 v -1 h 2.50781 c 0.27613,-3e-5 0.49997,-0.22387 0.5,-0.5 V 477 H 229 v 2.5 c 0,0.525 -0.14815,0.87861 -0.38477,1.11523 C 228.37862,480.85186 228.02499,481 227.5,481 h -1 c -0.27613,3e-5 -0.49997,0.22387 -0.5,0.5 v 2.5 h -4.5 c -0.67616,-0.01 -0.67616,1.00956 0,1 h 5 c 0.27613,-3e-5 0.49997,-0.22387 0.5,-0.5 V 482 h 0.5 c 0.72501,0 1.37138,-0.22683 1.82227,-0.67773 C 229.77315,480.87137 230,480.225 230,479.5 v -3 c -3e-5,-0.27613 -0.22387,-0.49997 -0.5,-0.5 H 224 v -1.5 c -3e-5,-0.27613 -0.22387,-0.49997 -0.5,-0.5 z m 0.5,1 h 6 v 1 h -6 z m 4,3 v 1 h 1 v -1 z m 2,0 v 1 h 1 v -1 z m 2,0 v 1 h 1 v -1 z m 2,0 v 1 h 1 v -1 z" id="path12120"></path>
  </g>
</svg>