<svg xmlns="http://www.w3.org/2000/svg" style="background: #808080" height="64" width="64" viewBox="223 448 20 20">
  <g style="fill: #ffffff;" id="g12888" transform="translate(-1.85367e-6,21)" data-label="W-12">
    <path style="color: rgb(0, 0, 0); fill: #ffffff; stroke-width: 1px; stroke-linejoin: round;" d="m 241.48438,452 c -0.12717,0.004 -0.248,0.0564 -0.3379,0.14648 l -3,3 c -0.31479,0.315 -0.0918,0.85335 0.35352,0.85352 h 3 c 0.27613,-3e-5 0.49997,-0.22387 0.5,-0.5 v -3 c 1.1e-4,-0.28235 -0.23341,-0.50879 -0.51562,-0.5 z M 243,452 v 5 h -5 v 1.5 c 2e-5,0.1326 0.0527,0.25976 0.14648,0.35352 l 2,2 c 0.19527,0.19519 0.51177,0.19519 0.70704,0 l 2.64648,-2.64649 1.64648,1.64649 c 0.19527,0.19519 0.51177,0.19519 0.70704,0 l 2.64648,-2.64649 0.64648,0.64649 1,1 c 0.315,0.31479 0.85335,0.0918 0.85352,-0.35352 v -6 c -3e-5,-0.27613 -0.22387,-0.49997 -0.5,-0.5 z m 4.49219,9 c -0.12989,0.002 -0.25387,0.0546 -0.34571,0.14648 l -2.64648,2.64649 -1.64648,-1.64649 c -0.19527,-0.19519 -0.51177,-0.19519 -0.70704,0 l -2.64648,2.64649 -1.64648,-1.64649 c -0.315,-0.31479 -0.85335,-0.0918 -0.85352,0.35352 v 2 c 3e-5,0.27613 0.22387,0.49997 0.5,0.5 h 2.00781 9.99219 c 0.27613,-3e-5 0.49997,-0.22387 0.5,-0.5 v -2 c -2e-5,-0.1326 -0.0527,-0.25976 -0.14648,-0.35352 l -1,-1 -1,-1 c -0.0957,-0.0957 -0.22603,-0.14855 -0.36133,-0.14648 z" id="path14234"></path>
  </g>
</svg>