<svg xmlns="http://www.w3.org/2000/svg" height="64" width="64" viewBox="402 470 20 20">
  <g id="g6171" style="fill: #ffffff;" data-label="W-20">
    <path id="path17287" d="m 405.5,476.00781 c -0.27613,3e-5 -0.49997,0.22387 -0.5,0.5 v 3 c 3e-5,0.27613 0.22387,0.49997 0.5,0.5 0.99999,-1e-5 1.99999,10e-6 3,0 0.27613,-3e-5 0.49997,-0.22387 0.5,-0.5 v -3 c -3e-5,-0.27613 -0.22387,-0.49997 -0.5,-0.5 z m 5,1.99219 c -0.27613,3e-5 -0.49997,0.22387 -0.5,0.5 v 3 c 3e-5,0.27613 0.22387,0.49997 0.5,0.5 1,0 1.99999,10e-6 3,0 0.27613,-3e-5 0.49997,-0.22387 0.5,-0.5 v -3 c -3e-5,-0.27613 -0.22387,-0.49997 -0.5,-0.5 -1,0 -1.99999,-10e-6 -3,0 z m -5,3.00781 c -0.27613,3e-5 -0.49997,0.22387 -0.5,0.5 v 3 c 3e-5,0.27613 0.22387,0.49997 0.5,0.5 0.99999,-1e-5 1.99999,10e-6 3,0 0.27613,-3e-5 0.49997,-0.22387 0.5,-0.5 v -3 c -3e-5,-0.27613 -0.22387,-0.49997 -0.5,-0.5 z m 5,1.99219 c -0.27613,3e-5 -0.49997,0.22387 -0.5,0.5 v 3 c 3e-5,0.27613 0.22387,0.49997 0.5,0.5 0.99999,-10e-6 1.99999,10e-6 3,0 0.27613,-3e-5 0.49997,-0.22387 0.5,-0.5 v -3 c -3e-5,-0.27613 -0.22387,-0.49997 -0.5,-0.5 z" style="color: rgb(0, 0, 0); fill: #ffffff; stroke-linecap: round; stroke-linejoin: round; stroke-dashoffset: 7.4;"></path>
    <g id="g17301" style="opacity: 0.6; fill: #ffffff; stroke: #ffffff; stroke-linecap: round; stroke-linejoin: round; stroke-dashoffset: 7.4;" transform="translate(-41.9997,86.0082)">
      <path id="path17299" d="m 452.49219,387 a 0.50005018,0.50005018 0 0 0 -0.5,0.5 v 3.00781 a 0.50005018,0.50005018 0 0 0 0.5,0.5 c 1.00252,0 2.00529,0 3.00781,0 a 0.50005018,0.50005018 0 0 0 0.5,-0.5 V 387.5 a 0.50005018,0.50005018 0 0 0 -0.5,-0.5 c -1.00252,0 -2.0053,0 -3.00781,0 z m 0.5,1 c 0.66922,0 1.33859,0 2.00781,0 v 2.00781 c -0.66922,0 -1.3386,0 -2.00781,0 z m 4.50781,1.98438 a 0.50005018,0.50005018 0 0 0 -0.5,0.5 v 3.00781 a 0.50005018,0.50005018 0 0 0 0.5,0.5 c 1.00252,0 2.0053,0 3.00781,0 a 0.50005018,0.50005018 0 0 0 0.5,-0.5 v -3.00781 a 0.50005018,0.50005018 0 0 0 -0.5,-0.5 c -1.00252,0 -2.00529,0 -3.00781,0 z m 0.5,1 c 0.66922,-10e-6 1.3386,0 2.00781,0 v 2.00781 c -0.66922,0 -1.33859,0 -2.00781,0 z m -0.49219,4 a 0.50005018,0.50005018 0 0 0 -0.5,0.5 v 3.00781 a 0.50005018,0.50005018 0 0 0 0.5,0.5 c 1.00253,0 2.0053,0 3.00781,0 a 0.50005018,0.50005018 0 0 0 0.5,-0.5 v -3.00781 a 0.50005018,0.50005018 0 0 0 -0.5,-0.5 c -1.00252,0 -2.00529,0 -3.00781,0 z m 0.5,1 c 0.66922,-10e-6 1.3386,0 2.00781,0 v 2.00781 c -0.66921,0 -1.33859,0 -2.00781,0 z" style="color: rgb(0, 0, 0); fill: #ffffff; stroke-linecap: round; stroke-linejoin: round; stroke-dashoffset: 7.4;"></path>
    </g>
  </g>
</svg>