<svg xmlns="http://www.w3.org/2000/svg" style="background: #808080" height="64" width="64" viewBox="423 470 20 20">
  <g style="fill: #ffffff;" id="g9998" transform="matrix(-1,0,0,1,908,4.69997e-6)" data-label="W-21">
    <g transform="matrix(-0.615044,0,0,0.615029,510.71,122.71)" id="g13879" style="fill: #ffffff; stroke-width: 1.62592;"></g>
    <g id="g9988" style="fill:#ffffff">
      <path id="path13882" style="color: rgb(0, 0, 0); fill: #ffffff; stroke-linecap: round; stroke-linejoin: round; stroke-dashoffset: 7.4;" d="m 478.49219,473.00781 a 0.50005018,0.50005018 0 0 0 -0.5,0.5 v 3.00781 a 0.50005018,0.50005018 0 0 0 0.5,0.5 c 1.00252,10e-6 2.00529,0 3.00781,0 a 0.50005018,0.50005018 0 0 0 0.5,-0.5 v -3.00781 a 0.50005018,0.50005018 0 0 0 -0.5,-0.5 c -1.00252,0 -2.0053,0 -3.00781,0 z m 0.5,1 c 0.66922,0 1.33859,0 2.00781,0 v 2.00781 c -0.66922,10e-6 -1.3386,0 -2.00781,0 z m -0.49233,3.9922 2.99609,0.006 c 0.2754,6.1e-4 0.49976,0.22265 0.5,0.49805 l 0.004,6.45885 c 0,1.02328 -0.80629,2.03747 -2,2.03711 -1.19534,0 -1.99609,-1.02155 -1.99609,-2.04297 l -0.004,-6.45704 c 1.8e-4,-0.27638 0.22362,-0.50048 0.5,-0.5 z m 1.5,6 a 1,0.99999999 0 0 0 -1,1.00001 1,0.99999999 0 0 0 1,1 1,0.99999999 0 0 0 1,-1 1,0.99999999 0 0 0 -1,-1.00001 z"></path>
      <path id="path13884" style="color: rgb(0, 0, 0); opacity: 0.75; fill: #ffffff; stroke-linecap: round; stroke-linejoin: round; stroke-dashoffset: 7.4;" d="m 469.49219,474.00781 a 0.50005018,0.50005018 0 0 0 -0.5,0.5 v 3.00781 a 0.50005018,0.50005018 0 0 0 0.5,0.5 c 1.00252,10e-6 2.00529,0 3.00781,0 a 0.50005018,0.50005018 0 0 0 0.5,-0.5 v -3.00781 a 0.50005018,0.50005018 0 0 0 -0.5,-0.5 c -1.00252,0 -2.0053,0 -3.00781,0 z m 0.5,1 c 0.66922,0 1.33859,0 2.00781,0 v 2.00781 c -0.66922,10e-6 -1.3386,0 -2.00781,0 z m 5.5151,2.99233 c 0.12999,0.002 0.25408,0.0546 0.34596,0.14655 l 1.00065,0.99942 c 0.094,0.094 0.14673,0.22146 0.14655,0.35436 v 4.0001 c 2e-5,0.4458 -0.53925,0.66879 -0.85409,0.35316 l -2.99954,-3.00067 c -0.19472,-0.19518 -0.19472,-0.51115 0,-0.70633 l 2.00009,-2.00004 c 0.0954,-0.0955 0.2254,-0.14835 0.36038,-0.14655 z"></path>
      <path id="path13886" style="color: rgb(0, 0, 0); opacity: 0.5; fill: #ffffff; stroke-linecap: round; stroke-linejoin: round; stroke-dashoffset: 7.4;" d="m 468.49219,483.00781 a 0.50005018,0.50005018 0 0 0 -0.5,0.5 v 3.00781 a 0.50005018,0.50005018 0 0 0 0.5,0.5 c 1.00252,10e-6 2.00529,0 3.00781,0 a 0.50005018,0.50005018 0 0 0 0.5,-0.5 v -3.00781 a 0.50005018,0.50005018 0 0 0 -0.5,-0.5 c -1.00252,0 -2.0053,0 -3.00781,0 z m 0.5,1 c 0.66922,0 1.33859,0 2.00781,0 v 2.00781 c -0.66922,10e-6 -1.3386,0 -2.00781,0 z m 4.52221,-1.00695 c 0.12731,0.004 0.24847,0.0555 0.33876,0.14535 l 3.00074,3.00066 c 0.31399,0.31533 0.0906,0.8529 -0.35437,0.85288 h -2.99954 c -0.27591,-1.9e-4 -0.49954,-0.22381 -0.49972,-0.49972 v -2.99946 c 7e-5,-0.28163 0.23261,-0.50765 0.51413,-0.49971 z"></path>
    </g>
  </g>
</svg>