<svg xmlns="http://www.w3.org/2000/svg" style="background: #808080" height="64" width="64" viewBox="443 448 20 20">
  <g style="fill: #ffffff;" id="g21550" transform="translate(-21,189)" data-label="W-23">
    <path style="color: rgb(0, 0, 0); opacity: 0.6; fill: #ffffff; stroke-linecap: round; stroke-linejoin: round; marker: none;" d="m 471.54297,473 -3,3 h 1.20703 8.20703 l 3,-3 z m 0.41406,1 h 6.58594 l -1,1 h -6.58594 z m 5.54297,3 -9.00781,0.008 a 0.50005,0.50005 0 0 0 -0.5,0.5 v 9 a 0.50005,0.50005 0 0 0 0.5,0.5 h 9 a 0.50005,0.50005 0 0 0 0.5,-0.5 L 478,477.5 a 0.50005,0.50005 0 0 0 -0.5,-0.5 z m -0.5,1 -0.008,8.00781 h -8 v -8.00195 z" transform="translate(21,-189)" id="path21430"></path>
    <path style="color: rgb(0, 0, 0); fill: #ffffff; stroke-linecap: round; marker: none;" d="m 503,285.04297 -0.85352,0.85351 L 500,288.04297 v 9.41406 l 3,-3 z" id="path21432"></path>
  </g>
</svg>