<svg xmlns="http://www.w3.org/2000/svg" style="background: #808080" height="64" width="64" viewBox="463 448 20 20">
  <g transform="translate(-574,-936.994)" id="g17429-7-7" style="fill: #ffffff;" data-label="W-24">
    <path style="color: rgb(0, 0, 0); opacity: 0.7; fill: #ffffff; stroke-width: 1px; stroke-linecap: round; stroke-linejoin: round;" d="m 1063.5078,1410.9922 a 0.50005,0.50005 0 0 0 -0.5,0.5 v 4 a 0.50005,0.50005 0 0 0 0.5,0.5 h 2 a 0.50005,0.50005 0 0 0 0.5,-0.5 v -2 -2 a 0.50005,0.50005 0 0 0 -0.5,-0.5 z m 0.5,1 h 1 v 1.5 1.5 h -1 z" id="path17417-2-4"></path>
    <path d="m 1340,1411 v 2 l 1.5,-0.01 1.75,-2 z m 4.5,-0.01 -1.75,2 h 2.75 l 1.7266,-2 z m 4,0 -1.7266,2 2.7266,0.01 c 0.276,-5e-4 0.4995,-0.224 0.5,-0.5 v -1 c -5e-4,-0.276 -0.224,-0.4995 -0.5,-0.5 z m -8.5,4.01 0.01,1.9922 -3.0098,0.01 v 5.4921 c 0,0.2761 0.2239,0.5 0.5,0.5 h 12 c 0.2761,0 0.5,-0.2239 0.5,-0.5 V 1415.5 c 0,-0.2761 -0.2239,-0.5 -0.5,-0.5 z m 2.5156,1 c 0.084,0 0.1663,0.026 0.2383,0.068 l 4.25,2.5 c 0.33,0.1931 0.33,0.6701 0,0.8632 l -4.25,2.5 c -0.3336,0.1966 -0.7545,-0.044 -0.7539,-0.4316 v -5 c -10e-5,-0.2823 0.2334,-0.51 0.5156,-0.5 z" style="color: rgb(0, 0, 0); fill: #ffffff; stroke-width: 1.00157; stroke-linejoin: round;" transform="translate(-273)" id="path17425-5"></path>
  </g>
</svg>