<svg xmlns="http://www.w3.org/2000/svg" style="background: #808080" height="64" width="64" viewBox="108 470 20 20">
  <g style="fill: #ffffff;" id="g6505" transform="translate(84,-21)" data-label="W-6">
    <path style="color: rgb(0, 0, 0); fill: #ffffff; fill-rule: evenodd; stroke-linecap: round; stroke-linejoin: round;" d="m 31.5,494 a 0.50005,0.50005 0 0 0 -0.5,0.5 v 9 a 0.50005,0.50005 0 0 0 0.5,0.5 h 9 a 0.50005,0.50005 0 0 0 0.5,-0.5 v -9 A 0.50005,0.50005 0 0 0 40.5,494 Z m 0.5,1 h 8 v 8 h -8 z" id="path6499"></path>
    <path style="color: rgb(0, 0, 0); fill: #ffffff; stroke-width: 0.9; stroke-linecap: round; stroke-linejoin: round;" d="m 38,496 c -0.546362,0 -1,0.45364 -1,1 0,0.54636 0.453638,1 1,1 0.546362,0 1,-0.45364 1,-1 0,-0.54636 -0.453638,-1 -1,-1 z m -3.513672,1.05078 c -0.16529,0.005 -0.314526,0.10024 -0.388672,0.24805 l -2.75,5.5 c -0.148607,0.29892 0.06852,0.64991 0.402344,0.65039 h 5.75 c 0.340259,-0.001 0.55634,-0.36474 0.394531,-0.66406 l -3,-5.5 c -0.08111,-0.14873 -0.238867,-0.23931 -0.408203,-0.23438 z" id="path6501"></path>
    <path style="color: rgb(0, 0, 0); opacity: 0.693; fill: #ffffff; fill-rule: evenodd; stroke-linecap: round; stroke-linejoin: round;" d="M 29.492188,495.99219 A 0.50005,0.50005 0 0 0 29,496.5 v 9 a 0.50005,0.50005 0 0 0 0.5,0.5 h 9 a 0.50005,0.50005 0 1 0 0,-1 H 30 v -8.5 a 0.50005,0.50005 0 0 0 -0.507812,-0.50781 z m -2,2 A 0.50005,0.50005 0 0 0 27,498.5 v 9 a 0.50005,0.50005 0 0 0 0.5,0.5 h 9 a 0.50005,0.50005 0 1 0 0,-1 H 28 v -8.5 a 0.50005,0.50005 0 0 0 -0.507812,-0.50781 z" id="path6503"></path>
  </g>
</svg>