<svg xmlns="http://www.w3.org/2000/svg" style="background: #808080" height="64" width="64" viewBox="3 468 20 20">
  <g style="fill: #ffffff;" id="g23466" transform="translate(-1.85367e-6,-0.999995)" data-label="X-1">
    <path style="color: rgb(0, 0, 0); fill: #ffffff; stroke-linecap: round; stroke-linejoin: round; marker: none;" d="m 10.482422,494 c -0.189602,0.007 -0.359053,0.12023 -0.4375,0.29297 l -3.7734376,8.25 c -0.00134,0.003 -0.00264,0.007 -0.00391,0.01 C 6.1587525,502.80633 6,503.10119 6,503.5 c 0,0.83813 0.5261723,1.53471 1.296875,1.92188 0.7707027,0.38715 1.7901254,0.55582 3.023437,0.57226 0.295371,0.003 0.52928,-0.24867 0.503907,-0.54297 9.47e-4,0.0108 -0.01109,-0.37852 -0.01563,-0.70898 -0.0045,-0.33047 -0.0078,-0.6698 -0.0078,-0.74219 0,-1.86768 1.015625,-3.51914 2.519531,-4.4375 0.228366,-0.13928 0.306682,-0.43361 0.177735,-0.66797 L 10.9375,494.25781 C 10.846425,494.09307 10.670549,493.99343 10.482422,494 Z M 18,494 c -1.098638,0 -1.999999,0.90136 -2,2 1e-6,1.09864 0.901362,2 2,2 1.098638,0 1.999999,-0.90136 2,-2 -1e-6,-1.09864 -0.901362,-2 -2,-2 z m -2,6 c -2.203217,0 -3.999999,1.79678 -4,4 10e-7,2.20322 1.796783,4 4,4 2.203217,0 3.999999,-1.79678 4,-4 -1e-6,-2.20322 -1.796783,-4 -4,-4 z m 0,1 c 1.662777,0 2.999999,1.33722 3,3 -1e-6,1.66278 -1.337223,3 -3,3 -1.662777,0 -2.999999,-1.33722 -3,-3 10e-7,-1.66278 1.337223,-3 3,-3 z m -0.541016,1.0332 C 14.658737,502.0332 14,502.69389 14,503.49414 a 0.50005,0.50005 0 1 0 1,0 c 0,-0.25981 0.199172,-0.46094 0.458984,-0.46094 a 0.50005,0.50005 0 1 0 0,-1 z" transform="translate(1.85367e-6,0.999995)" id="path10645"></path>
  </g>
</svg>