<svg xmlns="http://www.w3.org/2000/svg" height="64" width="64" viewBox="255 491 20 20">
  <g transform="translate(624,-1354)" style="fill: #ffffff;" id="g24304" data-label="X-13">
    <path style="opacity: 0.7; fill: #ffffff; stroke-linecap: round; stroke-linejoin: round; stroke-miterlimit: 3.7;" d="m -356.5,1850 c -0.8225,0 -1.5,0.6775 -1.5,1.5 0,0.8225 0.6775,1.5 1.5,1.5 0.8225,0 1.5,-0.6775 1.5,-1.5 0,-0.8225 -0.6775,-1.5 -1.5,-1.5 z m 0,1 c 0.28206,0 0.5,0.2179 0.5,0.5 0,0.2821 -0.21794,0.5 -0.5,0.5 -0.28206,0 -0.5,-0.2179 -0.5,-0.5 0,-0.2821 0.21794,-0.5 0.5,-0.5 z m -7,1 a 0.5,0.5 0 0 0 -0.5,0.5 0.5,0.5 0 0 0 0.5,0.5 0.5,0.5 0 0 0 0.5,-0.5 0.5,0.5 0 0 0 -0.5,-0.5 z" id="path24284"></path>
    <path id="path24300" style="color: rgb(0, 0, 0); fill: #ffffff; stroke-linecap: round; stroke-linejoin: round; stroke-dashoffset: 0.5;" d="m -357.5,1856.0041 h 0.49805 c 3.5943,0 5.00195,-2.5001 5.00195,-4.5001 v 0 c 0,-2.4794 -2.02064,-4.5 -4.5,-4.5 -1.88915,0 -3.45662,1.2594 -4.10547,3 h -0.51758 c -0.64602,-0.6132 -1.47755,-0.9979 -2.375,-1 h -0.002 c -1.92707,0 -3.5,1.5729 -3.5,3.5 0,1.9271 1.57293,3.5 3.5,3.5 z m -6,-1.0041 c -1.38663,0 -2.5,-1.1134 -2.5,-2.5 0,-1.386 1.11233,-2.4989 2.49805,-2.5 0.71036,0 1.38608,0.3048 1.85937,0.834 0.0951,0.1059 0.23074,0.1663 0.37305,0.166 h 0.90234 c 0.22809,10e-5 0.42734,-0.1542 0.48438,-0.375 0.39914,-1.5459 1.78609,-2.6224 3.38281,-2.625 1.93892,0 3.5,1.5611 3.5,3.5 0,1.9279 -1.54523,3.4765 -3.46875,3.4941 -0.0392,0 -0.0785,-6e-4 -0.11719,0.01 H -357.5 Z m -1.00781,1.9922 c -0.27614,0 -0.4965,0.2317 -0.49219,0.5078 v 1 1 c 0.009,0.6573 0.9907,0.6573 1,0 v -0.5 h 1 v 1.5 c 3e-5,0.1326 0.0527,0.2597 0.14648,0.3535 l 1,1 c 0.0937,0.094 0.22092,0.1465 0.35352,0.1465 h 5 c 0.27613,0 0.49997,-0.2239 0.5,-0.5 v -1.5039 h 0.33594 l 2.61914,1.9043 c 0.0852,0.064 0.18852,0.099 0.29492,0.1 h 0.25 c 0.27613,0 0.49997,-0.2239 0.5,-0.5 v -4 c -3e-5,-0.2761 -0.22387,-0.5 -0.5,-0.5 h -0.25 c -0.106,-10e-5 -0.20927,0.034 -0.29492,0.096 L -355.66211,1859 H -356 v -2 h -1 v 4 h -4.29297 L -362,1860.293 V 1857 h -1 v 1 h -1 v -0.5 c 0.004,-0.2823 -0.22555,-0.5122 -0.50781,-0.5078 z M -353,1858.3008 v 2.3984 l -1.65039,-1.1992 z"></path>
    <path style="opacity: 0.6; fill: #ffffff; stroke-linejoin: round;" d="m -362,1857 h 5 v 1 h -5 z" id="path24302"></path>
  </g>
</svg>