<svg xmlns="http://www.w3.org/2000/svg" height="64" width="64" viewBox="339 491 20 20">
  <g id="g31092" style="" data-label="X-17">
    <path style="color: rgb(0, 0, 0); fill: #ffffff; stroke-width: 1px; stroke-linecap: round; stroke-linejoin: round;" d="m 342.55078,494 a 0.50005,0.50005 0 0 1 0.33593,0.1641 l 2.64844,2.84179 h 1.00781 c 0.45995,0.6015 1.17678,1 1.97852,1 h -3.20312 a 0.50005,0.50005 0 0 1 -0.36719,-0.1582 l -2.79492,-2.99999 A 0.50005,0.50005 0 0 1 342.5,494 a 0.50005,0.50005 0 0 1 0.0508,0 z m 5.9707,4.00589 c 0.80174,0 1.51857,-0.3985 1.97852,-1 h 2.02148 a 0.50005,0.50005 0 0 1 0.35352,0.1465 l 3,3 a 0.50005,0.50005 0 1 1 -0.70704,0.707 l -2.85351,-2.8535 h -2.29297 v 3.832 c 0.96356,1.6489 2.8299,3.71521 5.58203,4.17391 A 0.50086299,0.50086299 0 1 1 355.43945,507 c -2.4267,-0.4044 -4.21553,-1.8644 -5.39844,-3.34761 a 0.50005,0.50005 0 0 1 -0.002,0 c -0.001,0 -0.003,0 -0.004,0 -1.00443,-0.9218 -2.17404,-1 -3.22851,-0.2383 -1.05449,0.76181 -1.78322,2.34671 -1.78321,4.09771 a 0.50005,0.50005 0 1 1 -1,0 c -10e-6,-2.0216 0.80114,-3.89961 2.19727,-4.90821 0.69807,-0.5043 1.49696,-0.7238 2.2832,-0.668 0.17359,0.012 0.34649,0.043 0.51758,0.082 a 0.50005,0.50005 0 0 1 0,-0.01 v -4 z m 0,-3.99999 c 0.8225,0 1.5,0.6775 1.5,1.49999 0,0.8225 -0.6775,1.5 -1.5,1.5 -0.8225,0 -1.5,-0.6775 -1.5,-1.5 0,-0.82249 0.6775,-1.49999 1.5,-1.49999 z" id="path20567-5"></path>
  </g>
</svg>