<svg xmlns="http://www.w3.org/2000/svg" style="background: #808080" height="64" width="64" viewBox="343 468 20 20">
  <g style="fill: #ffffff;" id="g16377" transform="translate(-217,44)" data-label="X-18">
    <path id="path16340" d="m 589,450 c -1.09935,0 -2,0.90065 -2,2 v 0.42969 c 0.73665,0.57364 1.18952,1.45204 1.23438,2.41601 C 588.47082,454.9447 588.72885,455 589,455 h 1 c 1.09935,0 2,-0.90065 2,-2 v -1 c 0,-1.09935 -0.90065,-2 -2,-2 z m 2.58789,6.00586 c -0.28431,-0.0492 -0.58776,0.16015 -0.58789,0.49414 0,0.25 -0.25,0.5 -0.5,0.5 h -2 c -0.25,0 -0.5,-0.25 -0.5,-0.5 v 0.5 c 0,0.36306 -0.26134,0.68419 -0.44336,0.93555 l 0.004,0.004 c 0.41161,0.41161 0.88215,0.75715 1.375,1.25 0.40738,0.40739 0.86402,1.03976 1.01172,1.81055 H 593.5 c 0.27613,-3e-5 0.49997,-0.22387 0.5,-0.5 V 459 c 0,-0.66667 -0.3572,-1.18923 -0.77148,-1.60352 -0.41429,-0.41428 -0.90447,-0.77946 -1.375,-1.25 -0.0788,-0.0787 -0.17086,-0.12422 -0.26563,-0.14062 z" style="color: rgb(0, 0, 0); opacity: 0.6; fill: #ffffff; stroke-width: 1px; stroke-linecap: round; stroke-linejoin: round;"></path>
    <path style="color: rgb(0, 0, 0); fill: #ffffff; stroke-width: 1px; stroke-linecap: round; stroke-linejoin: round;" d="m 584,453 c -1.09935,0 -2,0.90065 -2,2 v 1 c 0,1.09935 0.90065,2 2,2 h 1 c 1.09935,0 2,-0.90065 2,-2 v -1 c 0,-1.09935 -0.90065,-2 -2,-2 z m -1.51562,6 c -0.12717,0.004 -0.248,0.0564 -0.3379,0.14648 -0.47053,0.47054 -0.96071,0.83572 -1.375,1.25 C 580.3572,460.81077 580,461.33333 580,462 v 1.5 c 3e-5,0.27613 0.22387,0.49997 0.5,0.5 h 8 c 0.27613,-3e-5 0.49997,-0.22387 0.5,-0.5 V 462 c 0,-0.66667 -0.3572,-1.18923 -0.77148,-1.60352 -0.41429,-0.41428 -0.90447,-0.77946 -1.375,-1.25 -0.32034,-0.32057 -0.86773,-0.0838 -0.85352,0.36914 8.5e-4,0.0269 -0.0479,0.18374 -0.16406,0.30274 C 585.71981,459.93736 585.56612,460 585.5,460 h -2 c -0.0803,0 -0.22193,-0.0571 -0.33203,-0.16797 -0.1101,-0.11083 -0.16786,-0.25596 -0.16797,-0.33203 1.1e-4,-0.28235 -0.23341,-0.50879 -0.51562,-0.5 z" id="path16332"></path>
  </g>
</svg>