<svg xmlns="http://www.w3.org/2000/svg" height="64" width="64" viewBox="465 491 20 20">
  <g id="g6417" style="fill: #ffffff;" data-label="X-23">
    <path id="path8180-3" d="m 470.66016,493.97656 c -0.37961,-0.006 -0.76447,0.0652 -1.1211,0.21289 -0.93286,0.38641 -1.54492,1.30084 -1.54492,2.31055 v 3.5 h 1 v -3.5 c 0,-0.60813 0.3659,-1.154 0.92774,-1.38672 0.5437,-0.22521 1.42162,-0.0569 1.71874,0.24024 l 0.5,0.5 c 0.47128,0.49023 1.19727,-0.23577 0.70704,-0.70704 l -0.5,-0.5 c -0.35144,-0.35143 -0.81472,-0.56325 -1.31055,-0.63867 -0.12396,-0.0188 -0.25042,-0.0294 -0.37695,-0.0312 z m 8.67382,0 c -0.12653,0.002 -0.25299,0.0124 -0.37695,0.0312 -0.49583,0.0754 -0.95911,0.28724 -1.31055,0.63867 l -0.5,0.5 c -0.49023,0.47127 0.23577,1.19727 0.70704,0.70704 l 0.5,-0.5 c 0.29713,-0.29714 1.17505,-0.46545 1.71875,-0.24024 C 480.63411,495.346 481,495.89187 481,496.5 v 3.5 h 1 v -3.5 c 0,-1.00971 -0.61206,-1.92414 -1.54492,-2.31055 -0.35663,-0.1477 -0.74149,-0.21856 -1.1211,-0.21289 z M 468.49414,501 a 0.50005,0.50005 0 0 0 -0.5,0.5 v 6 a 0.50005,0.50005 0 0 0 0.5,0.5 h 1 3.00586 a 0.50005,0.50005 0 0 0 0.41602,-0.22266 L 474.76758,505 h 0.46484 l 1.85156,2.77734 A 0.50005,0.50005 0 0 0 477.5,508 h 2.99414 1 a 0.50005,0.50005 0 0 0 0.5,-0.5 v -6 a 0.50005,0.50005 0 0 0 -0.5,-0.5 z M 474,502 v 2.34766 L 472.23242,507 h -2.23828 -1 L 469,502.00195 Z m 1.99414,0 5,0.002 V 507 h -0.5 H 480 477.76758 L 476,504.34766 Z" style="fill: #ffffff; stroke-width: 1px; stroke-linecap: round; stroke-linejoin: round;"></path>
    <path id="path8043-2" d="m 470.49414,503 c -0.27613,3e-5 -0.49997,0.22387 -0.5,0.5 v 2 c 3e-5,0.27613 0.22387,0.49997 0.5,0.5 H 471.5 c 0.16717,-10e-6 0.32328,-0.0836 0.41602,-0.22266 l 1,-1.5 c 0.0559,-0.0838 0.0852,-0.18249 0.084,-0.2832 l -0.006,-0.5 c -0.003,-0.27384 -0.22614,-0.49413 -0.5,-0.49414 z" style="opacity: 0.3; fill: #ffffff; stroke-linejoin: round;"></path>
  </g>
</svg>