<svg xmlns="http://www.w3.org/2000/svg" height="64" width="64" viewBox="486 491 20 20">
  <g transform="translate(-329.99,63.9955)" style="opacity: 0.99; fill: #ffffff;" id="g21552" data-label="X-24">
    <path id="path8055" style="fill: #ffffff; stroke-linecap: round; stroke-linejoin: round;" d="m 823.98994,430.00453 v 2 h 5 v 3.7086 l 1.8538,-1.85485 c 0.0937,-0.0939 0.14631,-0.22111 0.1462,-0.35375 0.0114,-0.97402 0,-3.0415 0,-3.5 z m -3,3 v 4 h 7 l -4e-5,-4 z m 11.48438,1.125 c -0.12717,0.004 -0.24801,0.0564 -0.3379,0.14648 l -3.72851,3.72852 h -8.91211 c -0.27613,3e-5 -0.49997,0.22387 -0.5,0.5 v 5 c 3e-5,0.27613 0.22387,0.49997 0.5,0.5 h 8.49414 v -4.5 a 0.50005,0.50005 0 0 1 0.49219,-0.50586 0.50005,0.50005 0 0 1 0.50781,0.50586 v 4.33203 l 3.85352,-3.85351 c 0.0938,-0.0938 0.14645,-0.22092 0.14648,-0.35352 v -5 c 1.1e-4,-0.28235 -0.23342,-0.50879 -0.51562,-0.5 z"></path>
  </g>
</svg>