<svg xmlns="http://www.w3.org/2000/svg" height="64" width="64" viewBox="66 491 20 20">
  <g style="fill: #ffffff;" id="g6348" transform="translate(42,147)" data-label="X-4">
    <path id="path6344" d="m 27.5,347 a 0.50005,0.50005 0 0 0 -0.5,0.5 v 3.5 h 1 v -3 h 3 v -1 z m 9.5,0 v 1 h 3 v 3 h 1 v -3.5 A 0.50005,0.50005 0 0 0 40.5,347 Z m -10,10 v 3.5 a 0.50005,0.50005 0 0 0 0.5,0.5 H 31 v -1 h -3 v -3 z m 13,0 v 3 h -3 v 1 h 3.5 A 0.50005,0.50005 0 0 0 41,360.5 V 357 Z" style="color: rgb(0, 0, 0); opacity: 0.6; fill: #ffffff; stroke-linejoin: round;"></path>
    <path id="path6346" d="m 30.5,350 c -0.276131,3e-5 -0.499972,0.22387 -0.5,0.5 v 7 c 2.8e-5,0.27613 0.223869,0.49997 0.5,0.5 h 7 c 0.276131,-3e-5 0.499972,-0.22387 0.5,-0.5 v -7 c -2.8e-5,-0.27613 -0.223869,-0.49997 -0.5,-0.5 z" style="color: rgb(0, 0, 0); fill: #ffffff; stroke-linecap: round; stroke-linejoin: round;"></path>
  </g>
</svg>