<svg xmlns="http://www.w3.org/2000/svg" height="64" width="64" viewBox="87 491 20 20">
  <g id="g31080" style="" data-label="X-5">
    <path style="fill: #ffffff; fill-rule: evenodd; stroke-linecap: round; stroke-linejoin: round;" d="m 90.5,494 a 0.50005,0.50005 0 0 0 -0.5,0.5 v 3 a 0.50005,0.50005 0 0 0 0.5,0.5 h 0.949219 L 95,504.62695 V 507.5 a 0.50005,0.50005 0 0 0 0.5,0.5 h 3 a 0.50005,0.50005 0 0 0 0.5,-0.5 v -2.87305 L 102.55078,498 H 103.5 a 0.50005,0.50005 0 0 0 0.5,-0.5 v -3 a 0.50005,0.50005 0 0 0 -0.5,-0.5 h -3 a 0.50005,0.50005 0 0 0 -0.5,0.5 v 0.5 h -6 v -0.5 A 0.50005,0.50005 0 0 0 93.5,494 Z m 0.5,1 h 2 v 2 h -2 z m 10,0 h 2 v 2 h -2 z m -7,1 h 6 v 1.5 a 0.50005,0.50005 0 0 0 0.5,0.5 h 0.91406 l -3.214841,6 h -2.398438 l -3.214843,-6 H 93.5 a 0.50005,0.50005 0 0 0 0.5,-0.5 z m 2,9 h 2 v 2 h -2 z" id="path6000"></path>
  </g>
</svg>