<svg xmlns="http://www.w3.org/2000/svg" height="64" width="64" viewBox="108 491 20 20">
  <g id="g31083" style="" data-label="X-6">
    <path style="fill: #ffffff; fill-rule: evenodd; stroke-linecap: round; stroke-linejoin: round;" d="m 115.5,494 a 0.50005,0.50005 0 0 0 -0.5,0.5 v 3 a 0.50005,0.50005 0 0 0 0.5,0.5 h 3 a 0.50005,0.50005 0 0 0 0.5,-0.5 V 496 h 0.5 c 1.29307,0 2.42587,0.35206 3.21875,1.00977 C 123.51163,497.66747 124,498.62406 124,500 c 0,1.58333 -0.78109,3.05511 -2.24023,4.16406 C 120.30062,505.27301 118.15909,506 115.5,506 H 115 v -1.5 a 0.50005,0.50005 0 0 0 -0.5,-0.5 h -3 a 0.50005,0.50005 0 0 0 -0.5,0.5 v 3 a 0.50005,0.50005 0 0 0 0.5,0.5 h 3 a 0.50005,0.50005 0 0 0 0.5,-0.5 V 507 h 0.5 c 2.84091,0 5.19938,-0.77301 6.86523,-2.03906 C 124.03109,503.69489 125,501.91667 125,500 c 0,-1.62406 -0.62718,-2.91747 -1.64258,-3.75977 C 122.34202,495.39794 120.97378,495 119.5,495 H 119 v -0.5 a 0.50005,0.50005 0 0 0 -0.5,-0.5 z m 0.5,1 h 2 v 2 h -2 z m -4,10 h 2 v 2 h -2 z" id="path6006"></path>
  </g>
</svg>