<svg xmlns="http://www.w3.org/2000/svg" height="64" width="64" viewBox="129 491 20 20">
  <g id="g14544" transform="translate(42,84)" style="fill: #ffffff;" data-label="X-7">
    <path style="color: rgb(0, 0, 0); fill: #ffffff; stroke-linecap: round; stroke-linejoin: round; stroke-dashoffset: 0.5;" d="m 142.16211,494.00195 c -0.3928,-0.016 -0.79264,0.0268 -1.18555,0.13086 -1.05738,0.28017 -1.9221,0.97933 -2.44336,1.89453 -2.51672,-0.22477 -4.91162,1.1516 -5.97656,3.44727 -1.07271,2.31243 -0.56559,5.05473 1.26367,6.83008 1.82926,1.77534 4.58788,2.20194 6.86719,1.06054 2.20676,-1.10505 3.49065,-3.45007 3.27539,-5.89257 0.59118,-0.33407 1.10512,-0.8107 1.46875,-1.41797 0.83525,-1.3949 0.74131,-3.16186 -0.23633,-4.46094 -0.73322,-0.97431 -1.8548,-1.54394 -3.0332,-1.5918 z m -0.041,1 c 0.88379,0.0353 1.72432,0.4611 2.27539,1.19336 0.73477,0.97635 0.80549,2.29734 0.17774,3.34571 -0.62775,1.04836 -1.82561,1.61054 -3.0332,1.42382 a 0.50005006,0.50005006 0 1 0 -0.15235,0.98828 c 0.54314,0.084 1.08325,0.0449 1.59571,-0.0859 0.0521,1.92511 -0.99653,3.7274 -2.7461,4.60351 -1.90239,0.95265 -4.19394,0.59896 -5.7207,-0.88281 -1.52677,-1.48177 -1.94806,-3.76137 -1.05274,-5.69141 0.84423,-1.81987 2.6839,-2.93301 4.66602,-2.88086 -0.0398,0.15646 -0.0768,0.3137 -0.0977,0.47657 a 0.50013931,0.50013931 0 0 0 0.99219,0.12695 c 0.15491,-1.21208 1.02585,-2.20656 2.20703,-2.51953 0.2953,-0.0782 0.59408,-0.10943 0.88867,-0.0977 z" transform="translate(-42,-84)" id="path14540"></path>
  </g>
</svg>