<svg xmlns="http://www.w3.org/2000/svg" style="background: #808080" height="64" width="64" viewBox="171 491 20 20">
  <g transform="translate(-847,-1062)" id="g24813" style="fill: #ffffff;" data-label="X-9">
    <path id="path24809" d="m 1028,1556 c -3.2833,0 -6,2.4414 -6,5.5 0,1.7056 0.9046,3.146 2.1523,4.3594 l 0.9942,0.9941 a 0.50004997,0.50004997 0 0 0 0.3027,0.1485 0.50004997,0.50004997 0 0 0 0.051,0.998 h 5 a 0.50004997,0.50004997 0 0 0 0.045,-0.998 0.50004997,0.50004997 0 0 0 0.3086,-0.1485 l 0.9981,-0.998 v 0 c 1.2122,-1.1985 2.1465,-2.6518 2.1465,-4.3535 0,-3.0586 -2.7167,-5.5 -6,-5.5 z m 0,1 c 2.7919,0 5,2.0358 5,4.5 0,1.3342 -0.7428,2.5488 -1.8516,3.6445 l -1,1 a 0.50004997,0.50004997 0 0 0 0.2793,0.8535 h -4.8594 a 0.50004997,0.50004997 0 0 0 0.2871,-0.8535 l -1,-1 a 0.50004997,0.50004997 0 0 0 -0.01,-0.01 c -1.1397,-1.1082 -1.8477,-2.2864 -1.8477,-3.6406 0,-2.4642 2.2081,-4.5 5,-4.5 z m -2.5,12 a 0.50004997,0.50004997 0 1 0 0,1 h 1.5 v 0.5 a 0.50004997,0.50004997 0 0 0 0.5,0.5 h 1 a 0.50004997,0.50004997 0 0 0 0.5,-0.5 v -0.5 h 1.5 a 0.50004997,0.50004997 0 1 0 0,-1 z" style="color: rgb(0, 0, 0); fill: #ffffff; stroke-width: 1px; stroke-linecap: round; stroke-linejoin: round;"></path>
    <path id="path24811" d="m 1025.4902,1561.0059 a 0.50005,0.50005 0 0 0 -0.3437,0.8476 l 0.8535,0.8535 v 1.543 a 0.50005,0.50005 0 1 0 1,0 V 1563 h 2 v 1.25 a 0.50005,0.50005 0 1 0 1,0 v -1.543 l 0.8535,-0.8535 a 0.50005,0.50005 0 0 0 -0.707,-0.707 L 1029.293,1562 h -2.586 l -0.8535,-0.8535 a 0.50005,0.50005 0 0 0 -0.3633,-0.1406 z" style="color: rgb(0, 0, 0); opacity: 0.6; fill: #ffffff; stroke-width: 1px; stroke-linecap: round; stroke-linejoin: round;"></path>
  </g>
</svg>