<svg xmlns="http://www.w3.org/2000/svg" style="background: #808080" height="64" width="64" viewBox="381 512 20 20">
  <g style="fill: #ffffff;" id="g14377" transform="translate(210,592)" data-label="Y-19">
    <path style="color: rgb(0, 0, 0); fill: #ffffff; stroke-linecap: round; stroke-linejoin: round;" d="m 184.49414,-76.005859 c -0.4494,8.8e-5 -0.67059,0.546839 -0.34766,0.859375 l 2.64649,2.646484 -2.64649,2.646484 c -0.4905,0.471264 0.23578,1.197538 0.70704,0.707032 l 3,-3 c 0.19518,-0.195265 0.19518,-0.511767 0,-0.707032 l -3,-3 c -0.0942,-0.09737 -0.2239,-0.152345 -0.35938,-0.152343 z M 175.49219,-73 c -0.27615,0.0043 -0.49651,0.231666 -0.49219,0.507812 v 1 c -0.01,0.676161 1.00956,0.676161 1,0 v -1 c 0.004,-0.282265 -0.22554,-0.512227 -0.50781,-0.507812 z m 5.00781,0 c -0.67616,-0.0096 -0.67616,1.009563 0,1 h 1 c 0.67616,0.0096 0.67616,-1.009563 0,-1 z m 3,0 c -0.67616,-0.0096 -0.67616,1.009563 0,1 h 1 c 0.67616,0.0096 0.67616,-1.009563 0,-1 z m -6,0.0078 c -0.67616,-0.0096 -0.67616,1.009563 0,1 h 1 c 0.67616,0.0096 0.67616,-1.009563 0,-1 z M 175.49219,-70 c -0.27615,0.0043 -0.49651,0.231666 -0.49219,0.507812 v 1 c -0.01,0.676161 1.00956,0.676161 1,0 v -1 c 0.004,-0.282265 -0.22554,-0.512227 -0.50781,-0.507812 z" id="path14373"></path>
    <path style="color: rgb(0, 0, 0); fill: #ffffff; stroke-linecap: round; stroke-linejoin: round;" d="m 175.5,-67 c -0.8225,0 -1.5,0.677495 -1.5,1.5 0,0.822505 0.6775,1.5 1.5,1.5 0.8225,0 1.5,-0.677495 1.5,-1.5 0,-0.822505 -0.6775,-1.5 -1.5,-1.5 z" id="circle14375"></path>
  </g>
</svg>