<svg xmlns="http://www.w3.org/2000/svg" height="64" width="64" viewBox="24 512 20 20">
  <g style="fill: #ffffff;" id="g12259" transform="matrix(0,-1,-1,0,312,-86)" data-label="Y-2">
    <g style="fill: #ffffff;" transform="rotate(90,-175.5,-141.5)" id="g12255" mask="none">
      <path style="fill: #ffffff; stroke-linecap: round; stroke-linejoin: round;" d="m 237.5,284 c -0.27613,3e-5 -0.49997,0.22387 -0.5,0.5 v 4 c 3e-5,0.27613 0.22387,0.49997 0.5,0.5 h 4 c 0.27613,-3e-5 0.49997,-0.22387 0.5,-0.5 v -4 c -3e-5,-0.27613 -0.22387,-0.49997 -0.5,-0.5 z" id="path12253"></path>
    </g>
    <path style="opacity: 0.6; fill: #ffffff; stroke-linecap: round; stroke-linejoin: round;" d="m -614.5,272 a 0.50005,0.50005 0 0 0 -0.5,0.5 v 3 a 0.50005,0.50005 0 0 0 0.5,0.5 h 0.50781 v 5 H -614.5 a 0.50005,0.50005 0 0 0 -0.5,0.5 v 3 a 0.50005,0.50005 0 0 0 0.5,0.5 h 3 a 0.50005,0.50005 0 0 0 0.5,-0.5 V 284 h 5 v 0.5 a 0.50005,0.50005 0 0 0 0.5,0.5 h 3 a 0.50005,0.50005 0 0 0 0.5,-0.5 v -3 a 0.50005,0.50005 0 0 0 -0.5,-0.5 h -0.49219 v -3.5 a 0.50005,0.50005 0 1 0 -1,0 V 281 H -605.5 a 0.50005,0.50005 0 0 0 -0.5,0.5 v 1.5 h -5 v -1.5 a 0.50005,0.50005 0 0 0 -0.5,-0.5 h -1.49219 v -5 H -611.5 a 0.50005,0.50005 0 0 0 0.5,-0.5 V 274 h 3.5 a 0.50005,0.50005 0 1 0 0,-1 h -3.5 v -0.5 a 0.50005,0.50005 0 0 0 -0.5,-0.5 z m 0.5,1 h 2 v 2 h -1.41406 a 0.50005,0.50005 0 0 0 -0.16016,0 H -614 Z m 0,9 h 2 v 2 h -2 z m 9,0 h 2 v 2 h -2 z" id="path12257"></path>
  </g>
</svg>