<svg xmlns="http://www.w3.org/2000/svg" style="background: #808080" height="64" width="64" viewBox="402 512 20 20">
  <g id="g31068" style="" data-label="Y-20">
    <path style="color: rgb(0, 0, 0); fill: #ffffff; stroke-linecap: round; stroke-linejoin: round;" d="m 418.50786,518.99219 a 0.50005,0.50005 0 0 1 0.49219,0.50781 v 6 a 0.50005,0.50005 0 1 1 -1,0 v -2.92578 a 0.50005,0.50005 0 0 1 -0.5,0.41797 h -1 a 0.50005,0.50005 0 1 1 0,-1 h 1 a 0.50005,0.50005 0 0 1 0.5,0.42187 V 519.5 a 0.50005,0.50005 0 0 1 0.50781,-0.50781 z m -13,0 a 0.50005,0.50005 0 0 1 0.49219,0.50781 v 6 a 0.50005,0.50005 0 1 1 -1,0 v -6 a 0.50005,0.50005 0 0 1 0.50781,-0.50781 z m 4.99805,0.002 a 0.50005,0.50005 0 0 1 0.34766,0.85937 l -2.64649,2.64649 2.64649,2.64648 a 0.50005,0.50005 0 1 1 -0.70704,0.70703 l -3,-3 a 0.50005,0.50005 0 0 1 0,-0.70703 l 3,-3 a 0.50005,0.50005 0 0 1 0.35938,-0.15234 z M 414.50005,522 a 0.50005,0.50005 0 1 1 0,1 h -1 a 0.50005,0.50005 0 1 1 0,-1 z m -3,0 a 0.50005,0.50005 0 1 1 0,1 h -1 a 0.50005,0.50005 0 1 1 0,-1 z" id="path14267"></path>
  </g>
</svg>