<svg xmlns="http://www.w3.org/2000/svg" height="64" width="64" viewBox="465 512 20 20">
  <g style="fill: #ffffff;" id="g14048" transform="translate(294,571)" data-label="Y-23">
    <g transform="matrix(-0.53033,-0.53033,-0.53033,0.53033,472.858,-15.2358)" id="g13853" style="fill: #ffffff; stroke: #ffffff; stroke-width: 1.33333;">
      <path style="fill: #ffffff; stroke-width: 1.33333; stroke-linecap: round;" d="m 306.99023,243.60938 a 0.66673335,0.66673335 0 0 0 -0.65625,0.67578 v 4.99023 h -4.99023 a 0.666995,0.666995 0 1 0 0,1.33399 h 4.99023 v 4.99023 a 0.66673335,0.66673335 0 1 0 1.33204,0 v -4.99023 h 4.99023 a 0.666995,0.666995 0 1 0 0,-1.33399 h -4.99023 v -4.99023 a 0.66673335,0.66673335 0 0 0 -0.67579,-0.67578 z" id="path13850"></path>
    </g>
    <path style="opacity: 0.6; fill: #ffffff; stroke-linecap: round; stroke-linejoin: round;" d="M 177.49219,-56.007812 A 0.50005,0.50005 0 0 0 177,-55.5 v 6 a 0.50005,0.50005 0 1 0 1,0 V -52 h 0.5 a 0.50005,0.50005 0 1 0 0,-1 H 178 v -2.5 a 0.50005,0.50005 0 0 0 -0.50781,-0.507812 z m 7.00195,0.002 a 0.50005,0.50005 0 0 0 -0.34766,0.859375 l 2.64649,2.646484 -2.64649,2.646484 a 0.50005,0.50005 0 1 0 0.70704,0.707032 l 3,-3 a 0.50005,0.50005 0 0 0 0,-0.707032 l -3,-3 a 0.50005,0.50005 0 0 0 -0.35938,-0.152343 z M 180.5,-53 a 0.50005,0.50005 0 1 0 0,1 h 1 a 0.50005,0.50005 0 1 0 0,-1 z m 3,0 a 0.50005,0.50005 0 1 0 0,1 h 1 a 0.50005,0.50005 0 1 0 0,-1 z" id="path13907"></path>
  </g>
</svg>