<svg xmlns="http://www.w3.org/2000/svg" height="64" width="64" viewBox="507 512 20 20">
  <g style="fill: #ffffff;" id="g14371" transform="matrix(1,0,0,-1,336,494)" data-label="Y-25">
    <g transform="matrix(1,0,0,-1,0,-99.005)" id="g14352" style="fill:#ffffff">
      <path style="fill: #ffffff; stroke-linecap: round; stroke-linejoin: round;" d="m 520.49414,515 a 0.50005,0.50005 0 0 0 -0.34766,0.85938 l 2.64649,2.64648 -2.64649,2.64648 a 0.50005,0.50005 0 1 0 0.70704,0.70704 l 3,-3 a 0.50005,0.50005 0 0 0 0,-0.70704 l -3,-3 A 0.50005,0.50005 0 0 0 520.49414,515 Z m 0.0332,2.99414 a 0.50005,0.50005 0 0 0 -0.14843,0.0215 l -1,0.25 a 0.50005,0.50005 0 0 0 0.0937,0.98633 0.50005,0.50005 0 0 0 0.14843,-0.0176 l 1,-0.25 a 0.50005,0.50005 0 0 0 -0.0937,-0.99024 z m -3,0.75 a 0.50005,0.50005 0 0 0 -0.14843,0.0215 l -1,0.25 a 0.50005,0.50005 0 0 0 0.0937,0.98633 0.50005,0.50005 0 0 0 0.14843,-0.0176 l 1,-0.25 a 0.50005,0.50005 0 0 0 -0.0937,-0.99024 z m -3.02343,1.24805 a 0.50005,0.50005 0 0 0 -0.35743,0.15429 l -1,1 a 0.50005,0.50005 0 0 0 0.34766,0.85938 0.50005,0.50005 0 0 0 0.35938,-0.15234 l 1,-1 a 0.50005,0.50005 0 0 0 -0.34961,-0.86133 z m -1.9961,3 A 0.50005,0.50005 0 0 0 512,523.5 v 1 a 0.50005,0.50005 0 0 0 0.49219,0.50781 A 0.50005,0.50005 0 0 0 513,524.5 v -1 a 0.50005,0.50005 0 0 0 -0.49219,-0.50781 z" transform="translate(-336,-593.005)" id="path14350"></path>
    </g>
    <path style="fill: #ffffff; stroke-linecap: round; stroke-linejoin: round;" d="m 176.5,-32 c 0.8225,0 1.5,-0.677495 1.5,-1.5 0,-0.822505 -0.6775,-1.5 -1.5,-1.5 -0.8225,0 -1.5,0.677495 -1.5,1.5 0,0.822505 0.6775,1.5 1.5,1.5 z" id="circle14357"></path>
  </g>
</svg>