<svg xmlns="http://www.w3.org/2000/svg" style="background: #808080" height="64" width="64" viewBox="63 488 20 20">
  <g style="fill: #ffffff;" transform="matrix(-1,0,0,1,89,-231)" id="g12197" data-label="Y-4">
    <path id="path12191" transform="matrix(-1,0,0,1,90,231)" d="m 75,519 v 7 c 0,0.5 0.25,1 1,1 0.75,0 1,-0.5 1,-1 v -1 c 0,-0.5 0.53412,-1 1,-1 0.55229,0 1,0.44772 1,1 v 2.5 c 0,0.82843 0.67157,1.5 1.5,1.5 0.82843,0 1.5,-0.67157 1.5,-1.5 V 526 c 0,-0.55228 0.44772,-1 1,-1 0.55229,0 1,-0.44771 1,-1 v -3.08789 A 1.50015,1.50015 0 0 1 83.5,521 h -3 A 1.50015,1.50015 0 0 1 79,519.5 V 519 Z" style="opacity: 0.6; fill: #ffffff; stroke-width: 2; stroke-linecap: round; stroke-linejoin: round; marker: none;"></path>
    <path style="color: rgb(0, 0, 0); fill: #ffffff; stroke-linejoin: round;" d="m 16.5,746 a 0.50005,0.50005 0 0 0 -0.5,0.5 v 1.5 h -6 v -0.5 A 0.50005,0.50005 0 0 0 9.5,747 h -3 A 0.50005,0.50005 0 0 0 6,747.5 v 3 a 0.50005,0.50005 0 0 0 0.5,0.5 h 3 A 0.50005,0.50005 0 0 0 10,750.5 V 749 h 6 v 0.5 a 0.50005,0.50005 0 0 0 0.5,0.5 h 3 a 0.50005,0.50005 0 0 0 0.5,-0.5 v -3 A 0.50005,0.50005 0 0 0 19.5,746 Z m 0.5,1 h 2 v 2 h -2 z m -10,1 h 2 v 2 H 7 Z" id="path12195"></path>
  </g>
</svg>