<svg xmlns="http://www.w3.org/2000/svg" height="64" width="64" viewBox="129 512 20 20">
  <g style="fill: #ffffff;" id="g19653" transform="translate(-628,42)" data-label="Y-7">
    <path style="color: rgb(0, 0, 0); fill: #ffffff; stroke-linecap: round; stroke-linejoin: round;" d="m 143.13867,515.0332 c -0.49613,-0.0451 -1.03862,0.15972 -1.49219,0.61328 l -1.75,1.75 c -0.19519,0.19527 -0.19519,0.51177 0,0.70704 l 3,3 c 0.19527,0.19519 0.51177,0.19519 0.70704,0 l 1.75,-1.75 c 0.45356,-0.45357 0.65838,-0.99606 0.61328,-1.49219 -0.0451,-0.49613 -0.30436,-0.90592 -0.61328,-1.21485 l -1,-1 c -0.30893,-0.30892 -0.71872,-0.56817 -1.21485,-0.61328 z m -4.39648,3.7168 a 0.50005,0.50005 0 0 0 -0.34571,0.14648 l -0.25,0.25 a 0.50005,0.50005 0 0 0 0,0.70704 l 3,3 a 0.50005,0.50005 0 0 0 0.70704,0 l 0.25,-0.25 a 0.50005,0.50005 0 0 0 0,-0.70704 l -3,-3 A 0.50005,0.50005 0 0 0 138.74219,518.75 Z m -1.25196,2.24609 a 0.50005,0.50005 0 0 0 -0.34375,0.15039 l -4.25,4.25 c -0.83838,0.83839 -1.06879,1.7573 -0.80273,2.4668 C 132.35981,528.57278 133.04167,529 133.75,529 H 138 c 1.00042,0 2,-0.79793 2,-2 v -3.5 a 0.50005,0.50005 0 1 0 -1,0 v 3.5 c 0,0.66505 -0.50442,1 -1,1 h -4.25 c -0.29167,0 -0.60981,-0.19778 -0.71875,-0.48828 -0.10894,-0.2905 -0.0893,-0.74659 0.57227,-1.4082 l 4.25,-4.25 a 0.50005,0.50005 0 0 0 -0.36329,-0.85743 z" transform="translate(628,-42)" id="path19637"></path>
    <g style="fill: #ffffff;" transform="translate(418)" id="g19647"></g>
  </g>
</svg>