<svg xmlns="http://www.w3.org/2000/svg" style="background: #808080" height="64" width="64" viewBox="143 488 20 20">
  <g style="fill: #ffffff;" transform="translate(-189,168)" id="g21028" data-label="Y-8">
    <path id="path21020" d="m 342.5,348 c -0.27613,3e-5 -0.49997,0.22387 -0.5,0.5 v 3 c 3e-5,0.27613 0.22387,0.49997 0.5,0.5 h 3 c 0.27613,-3e-5 0.49997,-0.22387 0.5,-0.5 v -3 c -3e-5,-0.27613 -0.22387,-0.49997 -0.5,-0.5 z" style="color: rgb(0, 0, 0); fill: #ffffff; fill-rule: evenodd; stroke-linecap: round; stroke-linejoin: round; marker: none;"></path>
    <g id="g21026" transform="translate(188,-63)" style="fill:#ffffff">
      <path id="circle21024" style="color: rgb(0, 0, 0); opacity: 0.6; fill: #ffffff; stroke-linecap: round; stroke-linejoin: round; marker: none;" d="m 162.50391,410 c -0.82054,0 -1.4961,0.67556 -1.4961,1.49609 0,0.82054 0.67556,1.4961 1.4961,1.4961 0.82053,0 1.49609,-0.67556 1.49609,-1.4961 C 164,410.67556 163.32444,410 162.50391,410 Z M 159.5,413 c -0.67616,-0.01 -0.67616,1.00956 0,1 h 1.01562 0.49805 L 161,417.28711 c -1.65939,1.40974 -3.24134,2.62162 -3.98828,6.10742 -0.17787,0.67446 0.86019,0.89868 0.97656,0.21094 0.67528,-3.15139 1.92341,-4.0882 3.51758,-5.42774 1.58398,1.34059 2.83152,2.27747 3.51953,5.42969 0.13318,0.66658 1.13543,0.44609 0.97656,-0.21484 -0.76273,-3.49457 -2.35104,-4.70351 -4.00195,-6.11719 L 162.01367,414 h 2.2168 3.28515 c 0.6573,-0.009 0.6573,-0.9907 0,-1 h -3.04296 c -0.45945,0.59659 -1.17125,0.99219 -1.96875,0.99219 -0.79751,0 -1.50931,-0.3956 -1.96875,-0.99219 h -0.0195 z"></path>
    </g>
  </g>
</svg>