<svg xmlns="http://www.w3.org/2000/svg" style="background: #808080" height="64" width="64" viewBox="163 488 20 20">
  <g transform="translate(-0.0299934)" style="fill: #ffffff;" id="g14346" data-label="Y-9">
    <path style="color: rgb(0, 0, 0); fill: #ffffff; stroke-linecap: round; stroke-linejoin: round; marker: none;" d="m 184.27734,515 c -0.3909,-0.007 -0.822,0.0708 -1.2832,0.25781 -1.22985,0.49878 -2.7569,1.66874 -4.85742,3.90039 -2.09205,2.22266 -3.24657,3.73559 -3.77539,4.91602 -0.26441,0.59022 -0.37396,1.11195 -0.31641,1.58984 0.0576,0.4779 0.29454,0.88243 0.60156,1.18946 0.013,0.0131 0.0267,0.0255 0.041,0.0371 l 2.5,2 c 0.49277,0.39559 1.11361,-0.29808 0.66602,-0.74414 l -2,-2 c -0.36948,-0.36947 -0.29946,-0.99351 0,-1.29296 0.3216,-0.32161 0.86101,-0.43196 1.29296,0 l 2,2 a 0.50005,0.50005 0 1 0 0.70704,-0.70704 l -2,-2 c -0.36948,-0.36947 -0.29946,-0.99351 0,-1.29296 0.3216,-0.32161 0.86101,-0.43196 1.29296,0 l 2,2 a 0.50005,0.50005 0 1 0 0.70704,-0.70704 l -1.97657,-1.9746 c -0.008,-0.009 -0.0153,-0.0172 -0.0234,-0.0254 -0.36948,-0.36947 -0.29946,-0.99351 0,-1.29296 0.3216,-0.32161 0.86101,-0.43196 1.29296,0 l 2,2 a 0.50005,0.50005 0 1 0 0.70704,-0.70704 l -1.97657,-1.9746 c -0.008,-0.009 -0.0153,-0.0172 -0.0234,-0.0254 -0.36948,-0.36947 -0.29946,-0.99351 0,-1.29296 0.3216,-0.32161 0.86101,-0.43196 1.29296,0 l 2,2 a 0.50005,0.50005 0 1 0 0.70704,-0.70704 l -2,-2 c -0.36948,-0.36947 -0.29946,-0.99351 0,-1.29296 0.3216,-0.32161 0.86101,-0.43196 1.29296,0 l 2,2 c 0.44606,0.44759 1.13973,-0.17325 0.74414,-0.66602 l -2,-2.5 c -0.0116,-0.0143 -0.024,-0.028 -0.0371,-0.041 -0.30703,-0.30702 -0.7149,-0.52843 -1.19922,-0.61132 -0.12109,-0.0207 -0.24665,-0.0327 -0.37696,-0.0352 z" id="path14236"></path>
  </g>
</svg>