<svg xmlns="http://www.w3.org/2000/svg" style="background: #808080" height="64" width="64" viewBox="3 508 20 20">
  <g transform="translate(-1.85541e-6,5.18e-5)" style="fill: #ffffff;" id="g13451" data-label="Z-1">
    <g id="g23046" style="fill: #ffffff;">
      <path style="opacity: 0.99; fill: #ffffff; stroke-linecap: round; stroke-linejoin: round; marker: none;" d="m 16.501953,536 c -1.926262,0 -3.498047,1.57178 -3.498047,3.49805 0,1.92626 1.571785,3.49804 3.498047,3.49804 C 18.428216,542.99609 20,541.42431 20,539.49805 20,537.57178 18.428216,536 16.501953,536 Z m 0,0.99609 a 0.50005,0.50005 0 1 1 0,1 C 15.666793,537.99609 15,538.66288 15,539.49805 a 0.50005,0.50005 0 1 1 -1,0 c 0,-1.37561 1.126353,-2.50196 2.501953,-2.50196 z" transform="translate(1.85541e-6,-5.18e-5)" id="circle12697"></path>
    </g>
    <path style="color: rgb(0, 0, 0); opacity: 0.8; fill: #ffffff; stroke-linecap: round;" d="m 10.503906,539.99219 a 0.50005,0.50005 0 0 0 -0.492187,0.39843 L 9.6542969,542 H 7.5 a 0.50005,0.50005 0 1 0 0,1 H 9.4316406 L 8.765625,546 H 6.5 a 0.50005,0.50005 0 1 0 0,1 h 2.0429688 l -0.53125,2.39062 a 0.50038237,0.50038237 0 1 0 0.9765624,0.21876 L 9.5683594,547 H 16.53125 l 0.476562,2.58984 a 0.50032015,0.50032015 0 1 0 0.984376,-0.17968 L 17.546875,547 H 19.5 a 0.50005,0.50005 0 1 0 0,-1 H 17.363281 L 17.0625,544.37109 a 0.50005,0.50005 0 1 0 -0.982422,0.18164 L 16.345703,546 H 9.7910156 l 0.6660154,-3 H 12.5 a 0.50005,0.50005 0 1 0 0,-1 h -1.820312 l 0.308593,-1.39062 a 0.50005,0.50005 0 0 0 -0.484375,-0.61719 z" id="path8399"></path>
  </g>
</svg>