<svg xmlns="http://www.w3.org/2000/svg" height="64" width="64" viewBox="192 533 20 20">
  <g transform="translate(-1602.05,188)" style="" id="g26614" data-label="Z-10">
    <path style="opacity: 0.7; fill: #ffffff; stroke-width: 1px; stroke-linejoin: round;" d="m 1796.5,348 a 0.50005,0.50005 0 0 0 -0.5,0.5 v 5.5 h 1 v -5 h 2 v -1 z m 7.5,0 v 1 h 7 v 5 h 1 v -5.5 a 0.50005,0.50005 0 0 0 -0.5,-0.5 z m -8,11 v 2.5 a 0.50005,0.50005 0 0 0 0.5,0.5 h 2.5 v -1 h -2 v -2 z m 15,0 v 2 h -7 v 1 h 7.5 a 0.50005,0.50005 0 0 0 0.5,-0.5 V 359 Z" id="path33581"></path>
    <path id="path33583" style="fill: #ffffff; stroke-linecap: round; stroke-linejoin: round;" d="m 1800,348 h 3 v 14 h -3 z m -4,7 h 16 v 3 h -16 z"></path>
  </g>
</svg>