<svg xmlns="http://www.w3.org/2000/svg" height="64" width="64" viewBox="213 533 20 20">
  <g transform="translate(-274.031,440)" style="opacity: 0.99; fill: #ffffff;" id="g13513" data-label="Z-11">
    <path style="fill: #ffffff; stroke-width: 0.755428px;" d="m 220.5,536 a 0.50005,0.50005 0 0 0 -0.5,0.5 v 9.64062 a 1.8365096,2.6222708 64.987834 0 0 -1.98242,0.0723 1.8365096,2.6222708 64.987834 0 0 -1.9707,2.68555 1.8365096,2.6222708 64.987834 0 0 2.93554,0.88867 1.8365096,2.6222708 64.987834 0 0 2.00977,-2.18945 A 0.50005,0.50005 0 0 0 221,547.5 V 547.47461 538 h 8 v 7.14062 a 1.8365125,2.6222911 64.988434 0 0 -1.98242,0.0723 1.8365125,2.6222911 64.988434 0 0 -1.9707,2.68555 1.8365125,2.6222911 64.988434 0 0 2.93554,0.88867 1.8365125,2.6222911 64.988434 0 0 2.00977,-2.18945 A 0.50005,0.50005 0 0 0 230,546.5 v -10 a 0.50005,0.50005 0 0 0 -0.5,-0.5 z" transform="translate(274.031,-440)" id="ellipse13504"></path>
  </g>
</svg>