<svg xmlns="http://www.w3.org/2000/svg" height="64" width="64" viewBox="234 533 20 20">
  <g id="g12053" transform="translate(0.999998,210)" style="fill: #ffffff;" data-label="Z-12">
    <path style="color: rgb(0, 0, 0); fill: #ffffff; stroke-width: 0.9; stroke-linejoin: round;" d="m 237.49414,326.05078 c -0.11724,0.001 -0.22936,0.0482 -0.3125,0.13086 l -2,2 c -0.17593,0.17578 -0.17593,0.46094 0,0.63672 l 2,2 c 0.17578,0.17593 0.46094,0.17593 0.63672,0 l 2,-2 c 0.17593,-0.17578 0.17593,-0.46094 0,-0.63672 l -2,-2 c -0.086,-0.0855 -0.20293,-0.13272 -0.32422,-0.13086 z m 11,0 c -0.11724,0.001 -0.22936,0.0482 -0.3125,0.13086 l -2,2 c -0.17593,0.17578 -0.17593,0.46094 0,0.63672 l 2,2 c 0.17578,0.17593 0.46094,0.17593 0.63672,0 l 2,-2 c 0.17593,-0.17578 0.17593,-0.46094 0,-0.63672 l -2,-2 c -0.086,-0.0855 -0.20293,-0.13272 -0.32422,-0.13086 z m -6.02734,6.75 c -0.1137,0.009 -0.21981,0.0605 -0.29688,0.14453 l -3,3.25 c -0.16377,0.17723 -0.15861,0.45209 0.0117,0.62305 l 3,3 c 0.17578,0.17593 0.46094,0.17593 0.63672,0 l 3,-3 c 0.17031,-0.17096 0.17547,-0.44582 0.0117,-0.62305 l -3,-3.25 c -0.0927,-0.10101 -0.22649,-0.15422 -0.36328,-0.14453 z m 0.0332,1.11133 2.37695,2.57617 -2.37695,2.375 -2.37695,-2.37695 z" id="path12048"></path>
    <path style="opacity: 0.5; fill: #ffffff; stroke-linecap: round; stroke-linejoin: round;" d="m 239.12109,326 1.43946,1.43945 c 0.58556,0.5858 0.58556,1.5353 0,2.1211 L 239.12109,331 h 7.75782 l -1.43946,-1.43945 c -0.58556,-0.5858 -0.58556,-1.5353 0,-2.1211 L 246.87891,326 Z" id="path12051"></path>
  </g>
</svg>