<svg xmlns="http://www.w3.org/2000/svg" style="background: #808080" height="64" width="64" viewBox="276 533 20 20">
  <g style="fill: #ffffff;" id="g13226" transform="translate(-189,84)" data-label="Z-14">
    <path style="color: rgb(0, 0, 0); fill: #ffffff;" d="m 285,536 -0.15625,1.90625 c -0.6231,0.14227 -1.07677,0.25145 -1.59375,0.59375 l -1.75,-1.5 -1.5,1.5 1.5,1.75 c -0.34229,0.51699 -0.45148,0.97065 -0.59375,1.59375 L 279,542 v 1 1 l 1.90625,0.15625 c 0.14227,0.6231 0.25145,1.07677 0.59375,1.59375 l -1.5,1.75 1.5,1.5 1.75,-1.5 c 0.51699,0.34229 0.97065,0.45148 1.59375,0.59375 L 285,550 h 1 1 l 0.15625,-1.90625 c 0.6231,-0.14227 1.07677,-0.25145 1.59375,-0.59375 l 1.75,1.5 1.5,-1.5 -1.5,-1.75 c 0.34229,-0.51699 0.45148,-0.97065 0.59375,-1.59375 L 293,544 v -1 -1 l -1.90625,-0.15625 C 290.95148,541.22065 290.8423,540.76698 290.5,540.25 l 1.5,-1.75 -1.5,-1.5 -1.75,1.5 c -0.51699,-0.34229 -0.97065,-0.45148 -1.59375,-0.59375 L 287,536 h -1 z m 1,5 c 1.11641,0 2,0.88359 2,2 0,1.11641 -0.88359,2 -2,2 -1.11641,0 -2,-0.88359 -2,-2 0,-1.11641 0.88359,-2 2,-2 z" transform="translate(189,-84)" id="path52982-3"></path>
  </g>
</svg>