<svg xmlns="http://www.w3.org/2000/svg" style="background: #808080" height="64" width="64" viewBox="318 533 20 20">
  <g style="fill: #ffffff;" id="g14497" data-label="Z-16">
    <path style="color: rgb(0, 0, 0); fill: #ffffff; stroke-linejoin: round;" d="M 324.60938,536 C 323.75288,536 323,536.6483 323,537.5 v 3 c 0,0.8517 0.75288,1.5 1.60938,1.5 h 4.78124 C 330.24712,542 331,541.3517 331,540.5 v -3 c 0,-0.8517 -0.75287,-1.5 -1.60938,-1.5 z M 332,537 v 3 c 0.56267,0 1,-0.50398 1,-1.03125 v -0.9375 C 333,537.50408 332.56269,537 332,537 Z m -7.53516,3 a 0.50005,0.50005 0 0 1 0.0352,0 h 5 a 0.50005,0.50005 0 1 1 0,1 h -5 a 0.50030966,0.50030966 0 0 1 -0.0352,-1 z m -1.85546,4 C 321.75288,544 321,544.6483 321,545.5 v 3 c 0,0.8517 0.75288,1.5 1.60938,1.5 h 4.78124 C 328.24712,550 329,549.3517 329,548.5 v -3 c 0,-0.8517 -0.75287,-1.5 -1.60938,-1.5 z M 330,546 v 3 c 0.56267,0 1,-0.50398 1,-1.03125 v -0.9375 C 331,546.50408 330.56269,546 330,546 Z m -7.53516,2 a 0.50005,0.50005 0 0 1 0.0352,0 h 5 a 0.50005,0.50005 0 1 1 0,1 h -5 a 0.50030966,0.50030966 0 0 1 -0.0352,-1 z" id="rect12085"></path>
    <g transform="translate(0,231)" style="fill: #ffffff;" id="g12112">
      <path style="color: rgb(0, 0, 0); opacity: 0.7; fill: #ffffff; stroke-linecap: round; stroke-linejoin: round;" d="m 332.5,307 v 1 c 0.55917,0 0.9084,0.14278 1.13281,0.36719 C 333.85722,308.5916 334,308.94083 334,309.5 v 5 c 0,0.55917 -0.14278,0.9084 -0.36719,1.13281 C 333.4084,315.85722 333.05917,316 332.5,316 h -2 v 1 h 2 c 0.73927,0 1.38886,-0.20918 1.83984,-0.66016 C 334.79082,315.88886 335,315.23927 335,314.5 v -5 c 0,-0.73927 -0.20918,-1.38886 -0.66016,-1.83984 C 333.88886,307.20918 333.23927,307 332.5,307 Z" id="path12102"></path>
    </g>
  </g>
</svg>