<svg xmlns="http://www.w3.org/2000/svg" height="64" width="64" viewBox="24 533 20 20">
  <g id="g6733" transform="translate(-42,503.9)" style="fill: #ffffff;" data-label="Z-2">
    <rect ry="0" rx="0" y="31" x="68" height="16" width="16" id="rect4338" style="opacity: 0; fill: #ffffff; stroke-linecap: round; stroke-linejoin: round;"></rect>
    <path style="color: rgb(0, 0, 0); fill: #ffffff; stroke-width: 2; stroke-linejoin: round;" d="m 81.75,32.099609 c -1.433114,0 -2.573994,0.599965 -3.328125,1.414063 -0.754131,0.814098 -1.193245,1.779187 -1.615234,2.65039 -0.42199,0.871204 -0.825206,1.64712 -1.308594,2.146485 -0.483388,0.499365 -0.99066,0.789062 -1.998047,0.789062 H 69 v 2 h 4.5 c 1.476988,0 2.648427,-0.585302 3.435547,-1.398437 0.78712,-0.813135 1.246208,-1.787219 1.671875,-2.666016 0.425667,-0.878796 0.819561,-1.663707 1.28125,-2.162109 0.461689,-0.498402 0.919442,-0.773438 1.861328,-0.773438 H 83 v -2 z" id="path4336"></path>
    <g id="g23052" style="opacity:0.7;fill:#ffffff">
      <path style="color: rgb(0, 0, 0); fill: #ffffff; stroke-width: 1.2; stroke-linecap: round; stroke-linejoin: round;" d="m 27,536.90039 v 1.19922 h 0.75 c 0.646429,0 1.301953,0.38 1.880859,1.04297 0.578907,0.66296 1.046871,1.58637 1.289063,2.49023 0.207018,0.77346 1.367174,0.46292 1.160156,-0.31054 -0.287808,-1.07411 -0.818828,-2.13723 -1.544922,-2.96875 -0.726093,-0.83153 -1.681585,-1.45313 -2.785156,-1.45313 z m 13.25,9 c -1.91571,0 -2.93215,0.90502 -3.558594,1.66992 -0.313222,0.38245 -0.555819,0.7142 -0.798828,0.91797 -0.243008,0.20377 -0.458964,0.3125 -0.892578,0.3125 -0.401011,0 -0.71548,-0.20341 -1.054688,-0.64648 -0.339207,-0.44308 -0.639641,-1.1033 -0.878906,-1.79492 -0.238226,-0.80225 -1.442094,-0.38505 -1.132812,0.39257 0.260735,0.7537 0.585301,1.5146 1.058594,2.13282 C 33.46548,549.50298 34.151011,550 35,550 c 0.691386,0 1.25668,-0.25378 1.662109,-0.59375 0.405429,-0.33997 0.678457,-0.73364 0.958985,-1.07617 0.561056,-0.68506 1.044616,-1.23047 2.628906,-1.23047 H 41 v -1.19922 z" transform="translate(42,-503.9)" id="path4334"></path>
    </g>
  </g>
</svg>