<svg xmlns="http://www.w3.org/2000/svg" style="background: #808080" height="64" width="64" viewBox="383 508 20 20">
  <g id="g27722" style="" data-label="Z-20">
    <path style="fill: #ffffff; stroke-linejoin: round; marker: none;" d="m 411,536 v 4 h -2.5 a 0.50005,0.50005 0 0 0 -0.5,0.5 v 2.5 h -4 v 1 h 4 v 2.5 a 0.50005,0.50005 0 0 0 0.5,0.5 h 2.5 v 4 h 1 v -4 h 2.5 a 0.50005,0.50005 0 0 0 0.5,-0.5 V 544 h 4 v -1 h -4 v -2.5 A 0.50005,0.50005 0 0 0 414.5,540 H 412 v -4 z m -2,5 h 5 v 5 h -5 z m 2,2 v 1 h 1 v -1 z" id="rect19268-0"></path>
  </g>
</svg>