<svg xmlns="http://www.w3.org/2000/svg" height="64" width="64" viewBox="423 533 20 20">
  <g id="g27716" style="" data-label="Z-21">
    <path style="fill: #ffffff; stroke-width: 1px; stroke-linejoin: round;" d="m 433.5,536 c -0.27613,3e-5 -0.49997,0.22387 -0.5,0.5 v 4.98242 8.01758 c 3e-5,0.27613 0.22387,0.49997 0.5,0.5 h 2 c 0.27613,-3e-5 0.49997,-0.22387 0.5,-0.5 v -13 c -3e-5,-0.27613 -0.22387,-0.49997 -0.5,-0.5 z m -0.5,5.48242 c -0.007,-0.18325 -0.1131,-0.34814 -0.27734,-0.42969 l -2,-1 c -0.24704,-0.12272 -0.54679,-0.0222 -0.66993,0.22461 l -4,8 c -0.12272,0.24704 -0.0222,0.54679 0.22461,0.66993 l 2,1 c 0.24704,0.12272 0.54679,0.0222 0.66993,-0.22461 l 4,-8 c 0.0373,-0.0744 0.0554,-0.15702 0.0527,-0.24024 z M 434,537 h 1 v 12 h -1 z m 3.5,1 c -0.27613,3e-5 -0.49997,0.22387 -0.5,0.5 v 11 c 3e-5,0.27613 0.22387,0.49997 0.5,0.5 h 2 c 0.27613,-3e-5 0.49997,-0.22387 0.5,-0.5 v -11 c -3e-5,-0.27613 -0.22387,-0.49997 -0.5,-0.5 z" id="rect11443"></path>
  </g>
</svg>