<svg xmlns="http://www.w3.org/2000/svg" style="background: #808080" height="64" width="64" viewBox="423 508 20 20">
  <g style="fill: #ffffff;" id="g14058" data-label="Z-22">
    <path style="color: rgb(0, 0, 0); fill: #ffffff; fill-rule: evenodd; stroke-linecap: round; stroke-linejoin: round;" d="m 451.5,536 a 0.50005,0.50005 0 0 0 -0.5,0.5 v 9 a 0.50005,0.50005 0 0 0 0.5,0.5 h 9 a 0.50005,0.50005 0 0 0 0.5,-0.5 v -9 a 0.50005,0.50005 0 0 0 -0.5,-0.5 z m 0.5,1 h 8 v 8 h -8 z" id="path14208"></path>
    <path style="color: rgb(0, 0, 0); opacity: 0.6; fill: #ffffff; fill-rule: evenodd; stroke-linecap: round; stroke-linejoin: round;" d="M 449.49219,537.99219 A 0.50005,0.50005 0 0 0 449,538.5 v 9 a 0.50005,0.50005 0 0 0 0.5,0.5 h 9 a 0.50005,0.50005 0 1 0 0,-1 H 450 v -8.5 a 0.50005,0.50005 0 0 0 -0.50781,-0.50781 z m -2,2 A 0.50005,0.50005 0 0 0 447,540.5 v 9 a 0.50005,0.50005 0 0 0 0.5,0.5 h 9 a 0.50005,0.50005 0 1 0 0,-1 H 448 v -8.5 a 0.50005,0.50005 0 0 0 -0.50781,-0.50781 z" id="path14212"></path>
    <path style="color: rgb(0, 0, 0); fill: #ffffff; fill-rule: evenodd; stroke-linecap: round; stroke-linejoin: round;" d="m 460.48438,536 c -0.12717,0.004 -0.248,0.0564 -0.3379,0.14648 l -9,9 c -0.31479,0.315 -0.0918,0.85335 0.35352,0.85352 h 9 c 0.27613,-3e-5 0.49997,-0.22387 0.5,-0.5 v -9 c 1.1e-4,-0.28235 -0.23341,-0.50879 -0.51562,-0.5 z" id="path14252"></path>
  </g>
</svg>