<svg xmlns="http://www.w3.org/2000/svg" height="64" width="64" viewBox="465 533 20 20">
  <g id="g7662" style="fill: #ffffff;" transform="matrix(1,0,0,-1,0,1085.98)" data-label="Z-23">
    <path id="path17742-5" d="m 468.50781,535.99219 a 0.50005,0.50005 0 0 0 -0.5,0.5 v 13 a 0.50005,0.50005 0 0 0 0.5,0.5 h 13 a 0.50005,0.50005 0 0 0 0.5,-0.5 v -13 a 0.50005,0.50005 0 0 0 -0.5,-0.5 z m 0.5,1 h 12 v 5.00586 l -1,-0.006 v 2 l 1,0.006 V 546 h -1.00586 l 0.006,-2.00781 h -2 L 478.00195,546 h -2 l 0.006,-2.00781 h -2 L 474.00195,546 h -2 l 0.006,-2.00781 h -2 L 470.00195,546 h -0.99414 v -2.00391 l 1,-0.006 v -2 l -1,0.006 z m 3,7 h 2 v -2 h -2 z m 4,0 h 2 v -2 h -2 z" style="fill: #ffffff; stroke-linecap: round; stroke-linejoin: round;"></path>
    <path id="path17758-8" d="m 470.00781,539.99219 v 2 h 2 v -2 z m 4,0 v 2 h 2 v -2 z m 4,0 v 2 h 2 v -2 z" style="opacity: 0.8; fill: #ffffff; stroke-linecap: round; stroke-linejoin: round;"></path>
  </g>
</svg>