<svg xmlns="http://www.w3.org/2000/svg" height="64" width="64" viewBox="486 533 20 20">
  <g id="g17491" transform="matrix(0.875,0,0,0.875,264.125,159.75)" style="fill: #ffffff; stroke-width: 1.14286;" data-label="Z-24">
    <rect y="430" x="257" height="16" width="16" id="rect17483" style="opacity: 0; fill: #ffffff; stroke-width: 3.42857;"></rect>
    <path style="fill: #ffffff; fill-rule: evenodd; stroke-linecap: round; stroke-linejoin: round;" d="m 496,535.9375 c -2.73936,0 -5.1213,1.56371 -6.29102,3.84961 -0.49329,0.96401 -0.77148,2.05765 -0.77148,3.21289 0,3.89459 3.16791,7.0625 7.0625,7.0625 3.89459,0 7.0625,-3.16791 7.0625,-7.0625 0,-3.89459 -3.16791,-7.0625 -7.0625,-7.0625 z m 0,1 c 3.35415,0 6.0625,2.70835 6.0625,6.0625 0,3.35415 -2.70834,6.0625 -6.0625,6.0625 -3.35415,0 -6.0625,-2.70835 -6.0625,-6.0625 0,-0.99492 0.23889,-1.93072 0.66211,-2.75781 1.00359,-1.96124 3.04116,-3.30469 5.40039,-3.30469 z M 496,538 a 0.99999996,0.99999996 0 0 0 -1,1 0.99999996,0.99999996 0 0 0 1,1 0.99999996,0.99999996 0 0 0 1,-1 0.99999996,0.99999996 0 0 0 -1,-1 z m -2.82422,1.16211 a 1.0001001,1.0001001 0 0 0 -0.6875,0.30469 c -0.61854,0.6208 -1.06287,1.393 -1.28906,2.24023 a 1.0001001,1.0001001 0 1 0 1.93164,0.51563 c 0.13595,-0.50922 0.40262,-0.97353 0.77344,-1.34571 a 1.0001001,1.0001001 0 0 0 -0.72852,-1.71484 z" transform="matrix(1.14286,0,0,1.14286,-301.857,-182.571)" id="path17485"></path>
  </g>
</svg>