<svg xmlns="http://www.w3.org/2000/svg" style="background: #808080" height="64" width="64" viewBox="507 533 20 20">
  <g id="g27728" style="" data-label="Z-25">
    <path d="m 516,545 h 2 v -2 h -2 z m 0,-4 h 2 v -2 h -2 z" style="opacity: 0.8; fill: #ffffff; stroke-linecap: round; stroke-linejoin: round;" id="path19014-3-8"></path>
    <path id="path19004-3" d="m 512,536 c -0.52447,0 -1.0237,0.21715 -1.39258,0.57617 C 510.23866,536.93533 510,537.43678 510,538.00195 V 548 c 8e-5,0.53017 0.21103,1.03915 0.58594,1.41406 C 510.96085,549.78897 511.46978,550 512,550 h 1.5 c 0.27613,-3e-5 0.49997,-0.22387 0.5,-0.5 v -10 c -3e-5,-0.27613 -0.22387,-0.49997 -0.5,-0.5 H 512 c -0.45232,0 -1,-0.47106 -1,-0.99805 0,-0.26349 0.1383,-0.51454 0.33203,-0.69922 C 511.52545,537.11905 511.77501,537 512,537 h 6 v 2 h 2 v -2 h 2 v 2.00586 L 520,539 v 2 l 2,0.006 v 2 L 520,543 v 2 l 2,0.006 V 547 h -1.99414 l -0.01,-2 h -2 l 0.01,2 H 515 v 1 h 8.5 c 0.27613,-3e-5 0.49997,-0.22387 0.5,-0.5 v -11 c -3e-5,-0.27613 -0.22387,-0.49997 -0.5,-0.5 h -11 z m 8,7 v -2 h -2 v 2 z" style="fill: #ffffff; stroke-linecap: round; stroke-linejoin: round;"></path>
  </g>
</svg>