<svg xmlns="http://www.w3.org/2000/svg" style="background: #808080" height="64" width="64" viewBox="43 508 20 20">
  <g id="g7579" style="fill: #ffffff;" data-label="Z-3">
    <path style="color: rgb(0, 0, 0); fill: #ffffff; stroke-linecap: square; stroke-linejoin: round; marker: none;" d="m 48.499998,536.00001 c -0.276131,3e-5 -0.499972,0.22387 -0.5,0.5 v 2 c 2.8e-5,0.27613 0.223869,0.49997 0.5,0.5 h 4 c 0.276131,-3e-5 0.499972,-0.22387 0.5,-0.5 v -2 c -2.8e-5,-0.27613 -0.223869,-0.49997 -0.5,-0.5 z m 7,6 c -0.276131,3e-5 -0.499972,0.22387 -0.5,0.5 v 2 c 2.8e-5,0.27613 0.223869,0.49997 0.5,0.5 h 6 c 0.27613,-3e-5 0.49997,-0.22387 0.5,-0.5 v -2 c -3e-5,-0.27613 -0.22387,-0.49997 -0.5,-0.5 z m 0,5 c -0.276131,3e-5 -0.499972,0.22387 -0.5,0.5 v 2 c 2.8e-5,0.27613 0.223869,0.49997 0.5,0.5 h 6 c 0.27613,-3e-5 0.49997,-0.22387 0.5,-0.5 v -2 c -3e-5,-0.27613 -0.22387,-0.49997 -0.5,-0.5 z" id="rect5843"></path>
    <path style="color: rgb(0, 0, 0); opacity: 0.6; fill: #ffffff; stroke-width: 1px; stroke-linejoin: round;" d="m 50,540 v 8.5 a 0.50005,0.50005 0 0 0 0.5,0.5 H 54 v -1 h -3 v -4 h 3 v -1 h -3 v -3 z" id="path5849"></path>
  </g>
</svg>