<svg xmlns="http://www.w3.org/2000/svg" height="64" width="64" viewBox="66 533 20 20">
  <g id="g27725" style="" data-label="Z-4">
    <path d="m 71.5,536 c -1.3819,0 -2.5,1.1181 -2.5,2.5 v 1 c 0,1.3818 1.118,2.5 2.5,2.5 h 9 c 1.382,0 2.5,-1.1182 2.5,-2.5 v -1 c 0,-1.3857 -1.13452,-2.48443 -2.51172,-2.48633 z m 3.5,1.00586 5.48633,0.008 c 0.8628,0 1.51367,0.63203 1.51367,1.48633 v 1 c 0,0.8578 -0.642,1.5 -1.5,1.5 H 75 Z M 71.5,544 c -1.3819,0 -2.5,1.1181 -2.5,2.5 v 1 c 0,1.3818 1.118,2.5 2.5,2.5 h 9 c 1.382,0 2.5,-1.1182 2.5,-2.5 v -1 c 0,-1.3857 -1.13452,-2.48443 -2.51172,-2.48633 z m 6.50977,1.00977 2.47656,0.004 c 0.8628,0 1.51367,0.63203 1.51367,1.48633 v 1 c 0,0.8578 -0.642,1.5 -1.5,1.5 H 78 Z" style="fill: #ffffff; stroke-linecap: square; stroke-linejoin: round;" id="path18055-4"></path>
  </g>
</svg>