<svg xmlns="http://www.w3.org/2000/svg" height="64" width="64" viewBox="108 533 20 20">
  <g style="fill: #ffffff;" id="g13993" transform="translate(-21,-20.9999)" data-label="Z-6">
    <path style="color: rgb(0, 0, 0); opacity: 0.7; fill: #ffffff; fill-rule: evenodd; stroke-linecap: round; stroke-linejoin: round;" d="m 132.5,557 a 0.50005,0.50005 0 0 0 -0.5,0.5 v 13 a 0.50005,0.50005 0 0 0 0.5,0.5 h 13 a 0.50005,0.50005 0 0 0 0.5,-0.5 v -8 a 0.50005,0.50005 0 1 0 -1,0 v 7.5 h -12 v -12 h 1.5 a 0.50005,0.50005 0 1 0 0,-1 z" id="path13936"></path>
    <path id="path12191-1" d="m 136.5,557 c -0.25,0 -0.5,0.25 -0.5,0.5 v 5.5 c 0,0.5 0.25,1 1,1 0.75,0 1,-0.5 1,-1 v -1 c 0,-0.5 0.53412,-1 1,-1 0.55229,0 1,0.44772 1,1 v 3.5 c 0,0.82843 0.67157,1.5 1.5,1.5 0.82843,0 1.5,-0.67157 1.5,-1.5 V 562 c 0,-0.55228 0.44772,-1 1,-1 h 0.5 c 0.85547,0 1.5,-0.66406 1.5,-1.5 v -2 c 0,-0.25 -0.25,-0.5 -0.5,-0.5 z" style="fill: #ffffff; stroke-width: 2; stroke-linecap: round; stroke-linejoin: round;"></path>
  </g>
</svg>