<svg xmlns="http://www.w3.org/2000/svg" style="background: #808080" height="64" width="64" viewBox="150 533 20 20">
  <g transform="translate(-1162,-873.994)" style="fill: #ffffff;" id="g17413-4-0" data-label="Z-8">
    <path id="path17404-8-7" transform="translate(1162,873.994)" d="m 164.48438,535.00586 a 0.50005,0.50005 0 0 0 -0.1211,0.0195 l -1.36328,0.3887 0.01,2.03906 1.63085,-0.46679 A 0.50005,0.50005 0 0 0 165,536.50586 v -1 a 0.50005,0.50005 0 0 0 -0.51562,-0.5 z M 162,535.70117 l -2,0.57031 0.01,2.03907 2,-0.57227 z m -3,0.85547 -1.63672,0.46875 A 0.50005,0.50005 0 0 0 157,537.50586 v 1 a 0.50005,0.50005 0 0 0 0.63672,0.48047 l 1.36914,-0.39063 z M 157,542 v 1 l 8.5,0.01 c 0.276,-5e-4 0.4995,-0.224 0.5,-0.5 -5e-4,-0.276 -0.224,-0.4995 -0.5,-0.5 z m -3,2.00586 v 5.49219 c 0,0.2761 0.2239,0.5 0.5,0.5 h 11 c 0.2761,0 0.5,-0.2239 0.5,-0.5 v -4.99219 c 0,-0.2761 -0.2239,-0.5 -0.5,-0.5 z" style="color: rgb(0, 0, 0); fill: #ffffff; stroke-width: 1px; stroke-linejoin: round;"></path>
    <path style="color: rgb(0, 0, 0); opacity: 0.7; fill: #ffffff; stroke-width: 1px; stroke-linejoin: round;" d="m 1315.5078,1411.9922 a 0.50005,0.50005 0 0 0 -0.5,0.5 v 4 a 0.50005,0.50005 0 0 0 0.5,0.5 h 2 a 0.50005,0.50005 0 0 0 0.5,-0.5 v -2 -2 a 0.50005,0.50005 0 0 0 -0.5,-0.5 z m 0.5,1 h 1 v 1.5 1.5 h -1 z" id="path17409-0-0"></path>
  </g>
</svg>