<svg xmlns="http://www.w3.org/2000/svg" height="64" width="64" viewBox="24 8 20 20">
  <g transform="matrix(-1,0,0,1,1290,302.99979)" style="opacity: 0.99; fill: #ffffff;" id="seq-preview" data-label="A-2">
    <path style="fill: #ffffff; stroke-linecap: round; stroke-linejoin: round;" d="m 1258.4766,-286 a 0.50005,0.50005 0 0 0 -0.4102,0.25195 l -4,7 A 0.50005,0.50005 0 0 0 1254.5,-278 h 8 a 0.50005,0.50005 0 0 0 0.4336,-0.74805 l -4,-7 A 0.50005,0.50005 0 0 0 1258.4766,-286 Z m 0.023,1.50781 3.1387,5.49219 h -6.2774 z" id="path8523-4"></path>
    <path style="fill: #ffffff; stroke-linecap: round; stroke-linejoin: round;" d="m 1253.5,-289 c -0.8225,0 -1.5,0.67749 -1.5,1.5 0,0.82251 0.6775,1.5 1.5,1.5 0.8225,0 1.5,-0.67749 1.5,-1.5 0,-0.82251 -0.6775,-1.5 -1.5,-1.5 z" id="ellipse8525-5"></path>
    <path style="fill: #ffffff; fill-rule: evenodd; stroke-linecap: round; stroke-linejoin: round;" d="M 27.5,11 A 0.50005,0.50005 0 0 0 27,11.5 v 10.851562 l 1,-1.75 V 12 h 12 v 12 h -3.099609 c 0.122248,0.339531 0.117057,0.686553 0.0039,1 H 40.5 A 0.50005,0.50005 0 0 0 41,24.5 v -13 A 0.50005,0.50005 0 0 0 40.5,11 Z" id="path8528-7" transform="matrix(-1,0,0,1,1290,-302.99979)"></path>
  </g>
</svg>