<svg xmlns="http://www.w3.org/2000/svg" height="64" width="64" viewBox="66 8 20 20">
  <g id="seq-chroma-scope" style="" data-label="A-4">
    <path style="fill: #ffffff; fill-rule: evenodd; stroke-linecap: round; stroke-linejoin: round;" d="m 76,11 c -0.08389,-2.87e-4 -0.166503,0.02054 -0.240234,0.06055 l -5.5,3 C 70.099297,14.148474 69.999666,14.317023 70,14.5 v 7 c -3.35e-4,0.182978 0.0993,0.351528 0.259766,0.439453 l 5.5,3 C 75.833498,24.979467 75.916111,25.000288 76,25 h 1 c 0.08389,2.87e-4 0.166503,-0.02053 0.240234,-0.06055 l 5.5,-3 C 82.900703,21.851526 83.000334,21.682977 83,21.5 v -7 c 3.35e-4,-0.182978 -0.0993,-0.351528 -0.259766,-0.439453 l -5.5,-3 C 77.166502,11.020533 77.083889,10.999712 77,11 Z m 0.382812,2 h 0.240235 L 81,15.390625 v 5.21875 L 76.617188,23 H 76.382812 L 72,20.609375 v -5.21875 z" id="path14426"></path>
  </g>
</svg>