<svg xmlns="http://www.w3.org/2000/svg" height="64" width="64" viewBox="150 8 20 20">
  <g id="seq-strip-duplicate" transform="translate(41.999996,-83.999998)" style="" data-label="A-8">
    <path style="fill: #ffffff; stroke-linecap: round; stroke-linejoin: round;" d="m 114.5,97 c -0.27613,2.8e-5 -0.49997,0.223869 -0.5,0.5 v 3 c 3e-5,0.27613 0.22387,0.49997 0.5,0.5 h 10 c 0.27613,-3e-5 0.49997,-0.22387 0.5,-0.5 v -3 c -3e-5,-0.276131 -0.22387,-0.499972 -0.5,-0.5 z m -3,6 c -0.27613,3e-5 -0.49997,0.22387 -0.5,0.5 v 3 c 3e-5,0.27613 0.22387,0.49997 0.5,0.5 h 10 c 0.27613,-3e-5 0.49997,-0.22387 0.5,-0.5 v -3 c -3e-5,-0.27613 -0.22387,-0.49997 -0.5,-0.5 z" id="path27865"></path>
  </g>
</svg>