<svg xmlns="http://www.w3.org/2000/svg" height="64" width="64" viewBox="24 554 20 20">
  <g style="fill: #ffffff; stroke-width: 1.15384;" id="material" transform="matrix(0.866668,0,0,0.866668,-177.467,184.399)" data-label="AA-2">
    <g style="fill:#ffffff;stroke-width:1.15384" id="g12593">
      <path style="fill: #ffffff; stroke-linecap: round; stroke-linejoin: round;" d="m 34,557 c -3.860079,0 -7,3.13992 -7,7 0,3.86008 3.139921,7 7,7 3.860079,0 7,-3.13992 7,-7 0,-3.86008 -3.139921,-7 -7,-7 z m 0,1 c 3.305801,0 5.975833,2.65852 5.998047,5.95898 C 38.886544,564.90262 36.995365,566 34,566 v 4 c -3.319633,0 -6,-2.68037 -6,-6 0,-0.0145 0.0019,-0.0285 0.002,-0.043 C 29.113203,564.90101 31.002992,566 34,566 Z" transform="matrix(1.15384,0,0,1.15384,204.769,-212.768)" id="path12589"></path>
    </g>
  </g>
</svg>