<svg xmlns="http://www.w3.org/2000/svg" height="64" width="64" viewBox="528 554 20 20">
  <g id="fake-user-on" style="" data-label="AA-26">
    <path id="path22885-3-7" d="m 537.4922,557 c -0.1299,0 -0.2539,0.055 -0.3457,0.1465 -1.4018,1.4018 -2.9571,1.8535 -5.6465,1.8535 -0.2761,0 -0.5,0.2239 -0.5,0.5 v 3 c 0,2.4627 0.6805,4.0682 1.7871,5.2754 1.1066,1.2072 2.5736,2.0242 4.1777,3.1348 0.084,0.058 0.1832,0.09 0.2852,0.09 h 0.5 c 0.102,-2e-4 0.2015,-0.032 0.2852,-0.09 1.6041,-1.1106 3.0711,-1.9276 4.1777,-3.1348 C 543.3195,566.5682 544,564.9627 544,562.5 v -3 c 0,-0.2761 -0.2239,-0.5 -0.5,-0.5 -2.6894,0 -4.2447,-0.4517 -5.6465,-1.8535 -0.096,-0.096 -0.226,-0.1486 -0.3613,-0.1465 z m 3.4766,3.9902 a 1.0001,1.0001 0 0 1 0.8124,1.6348 l -4,5 a 1.0001,1.0001 0 0 1 -1.4882,0.082 l -2,-2 a 1.0001,1.0001 0 1 1 1.414,-1.414 l 1.209,1.209 3.3028,-4.127 a 1.0001,1.0001 0 0 1 0.75,-0.3848 z" style="fill: #ffffff; stroke-width: 1px; stroke-linecap: round; stroke-linejoin: round;"></path>
  </g>
</svg>