<svg xmlns="http://www.w3.org/2000/svg" height="64" width="64" viewBox="507 554 20 20">
  <g id="fake-user-off" style="" data-label="AA-25">
    <path style="opacity: 0.6; fill: #ffffff; stroke-linecap: round; stroke-linejoin: round;" d="m 516.49219,557 a 0.50005,0.50005 0 0 0 -0.34571,0.14648 C 514.74469,558.54828 513.18939,559 510.5,559 a 0.50005,0.50005 0 0 0 -0.5,0.5 v 3 c 0,2.46272 0.6805,4.06818 1.78711,5.27539 1.10661,1.20722 2.57356,2.02419 4.17773,3.13477 A 0.50005,0.50005 0 0 0 516.25,571 h 0.5 a 0.50005,0.50005 0 0 0 0.28516,-0.0898 c 1.60417,-1.11058 3.07112,-1.92755 4.17773,-3.13477 C 522.3195,566.56818 523,564.96272 523,562.5 v -3 a 0.50005,0.50005 0 0 0 -0.5,-0.5 c -2.68939,0 -4.24469,-0.45172 -5.64648,-1.85352 A 0.50005,0.50005 0 0 0 516.49219,557 Z m 0.008,1.07031 c 1.42533,1.26825 3.16641,1.79779 5.5,1.86524 V 562.5 c 0,2.28728 -0.5695,3.55682 -1.52539,4.59961 -0.92707,1.01135 -2.30655,1.81425 -3.88867,2.90039 h -0.17188 c -1.58212,-1.08614 -2.9616,-1.88904 -3.88867,-2.90039 C 511.5695,566.05682 511,564.78728 511,562.5 v -2.56445 c 2.33359,-0.0675 4.07467,-0.59699 5.5,-1.86524 z" id="path22877-22-0"></path>
  </g>
</svg>