<svg xmlns="http://www.w3.org/2000/svg" height="64" width="64" viewBox="276 29 20 20">
  <g id="wordwrap-on" style="" data-label="B-14">
    <path style="opacity: 0.6; fill: #ffffff; stroke-linecap: round; stroke-linejoin: round;" d="m 279.5,32 a 0.50005,0.50005 0 0 0 -0.5,0.5 v 13 a 0.50005,0.50005 0 0 0 0.5,0.5 h 13 a 0.50005,0.50005 0 0 0 0.5,-0.5 v -13 A 0.50005,0.50005 0 0 0 292.5,32 Z m 0.5,1 h 12 v 12 h -12 z" id="rect12615-8"></path>
    <path style="fill: #ffffff; stroke-linecap: round; stroke-linejoin: round;" d="m 282.56641,35 a 0.50005,0.50005 0 1 0 -0.008,1 l 4.9375,0.03125 a 0.50005,0.50005 0 1 0 0.008,-1 z m 0,2 a 0.50005,0.50005 0 1 0 -0.008,1 l 3.9375,0.03125 a 0.50005,0.50005 0 1 0 0.008,-1 z m 0.004,2 a 0.50006099,0.50006099 0 1 0 -0.0156,1 l 1.9375,0.03125 a 0.50006099,0.50006099 0 1 0 0.0156,-1 z m -0.006,2 a 0.50005,0.50005 0 1 0 -0.004,1 l 5.9375,0.03125 a 0.50005,0.50005 0 1 0 0.004,-1 z" id="path12623-2"></path>
  </g>
</svg>