<svg xmlns="http://www.w3.org/2000/svg" height="64" width="64" viewBox="360 29 20 20">
  <g transform="translate(-210.007,-588)" id="linenumbers-on" style="fill: #ffffff;" data-label="B-18">
    <g transform="translate(22)" id="g12463" style="fill:#ffffff">
      <path style="fill: #ffffff; stroke-linecap: round;" d="m 557.5,620 a 0.50005,0.50005 0 1 0 0,1 h 6.99219 a 0.50005,0.50005 0 1 0 0,-1 z m 0,2 a 0.50005,0.50005 0 1 0 0,1 h 6.99219 a 0.50005,0.50005 0 1 0 0,-1 z m 0,2 a 0.50005,0.50005 0 1 0 0,1 h 6.99219 a 0.50005,0.50005 0 1 0 0,-1 z m 0,5 a 0.50005,0.50005 0 1 0 0,1 h 6.99219 a 0.50005,0.50005 0 1 0 0,-1 z m 0,2 a 0.50005,0.50005 0 1 0 0,1 h 6.99219 a 0.50005,0.50005 0 1 0 0,-1 z m 0,2 a 0.50005,0.50005 0 1 0 0,1 h 7 a 0.50005,0.50005 0 1 0 0,-1 z" id="path12459"></path>
      <path style="fill: #ffffff; stroke-linecap: round; stroke-linejoin: round;" d="m 553.48438,620 a 0.50005,0.50005 0 0 0 -0.3379,0.14648 l -2,2 a 0.50005,0.50005 0 1 0 0.70704,0.70704 L 553,621.70703 V 625.5 a 0.50005,0.50005 0 1 0 1,0 v -5 A 0.50005,0.50005 0 0 0 553.48438,620 Z M 553,628 c -0.79172,0 -1.70536,0.42737 -1.98047,1.35938 a 0.50062501,0.50062501 0 1 0 0.96094,0.28124 C 552.10464,629.21999 552.55814,629 553,629 c 0.31942,0 0.59941,0.0632 0.75391,0.16602 0.1545,0.10279 0.25034,0.21211 0.2539,0.58789 5.6e-4,0.20689 -0.076,0.32805 -0.29687,0.52148 -0.22152,0.19398 -0.57835,0.40234 -0.9668,0.64453 -0.38845,0.24219 -0.81151,0.52364 -1.1543,0.93555 -0.34278,0.4119 -0.58774,0.96871 -0.58984,1.64258 A 0.50005,0.50005 0 0 0 551.5,634 h 3 a 0.50005,0.50005 0 1 0 0,-1 h -2.32227 c 0.0615,-0.1621 0.068,-0.36972 0.17969,-0.50391 0.22282,-0.26775 0.55267,-0.50197 0.91602,-0.72851 0.36335,-0.22654 0.7571,-0.44007 1.09765,-0.73828 0.34056,-0.29822 0.6393,-0.73918 0.63672,-1.28125 a 0.50005,0.50005 0 0 0 0,-0.002 c -0.006,-0.62417 -0.29003,-1.13985 -0.69922,-1.41211 C 553.89941,628.06173 553.43058,628 553,628 Z" id="path12461"></path>
    </g>
  </g>
</svg>