<svg xmlns="http://www.w3.org/2000/svg" height="64" width="64" viewBox="87 29 20 20">
  <g id="curves" style="" data-label="B-5">
    <path style="fill: #ffffff; stroke-linecap: round;" d="m 94.513672,32 a 0.50005,0.50005 0 0 0 -0.417969,0.203125 c -2.416051,3.180716 -3.444751,6.003207 -3.857422,8.287109 -0.412671,2.283903 -0.216543,4.049887 -0.21875,5.00586 a 0.50005,0.50005 0 1 0 1,0.0039 c 0.0025,-1.084327 -0.183742,-2.690936 0.203125,-4.832031 0.386868,-2.141095 1.341004,-4.795942 3.667969,-7.859375 A 0.50005,0.50005 0 0 0 94.513672,32 Z m 4.955078,3.001953 a 0.50005,0.50005 0 0 0 -0.304688,0.126953 c -4.123582,3.585034 -5.171874,7.536346 -5.171874,10.376953 a 0.50005,0.50005 0 1 0 1,0 c 0,-2.600212 0.913619,-6.219783 4.828124,-9.623047 A 0.50005,0.50005 0 0 0 99.46875,35.001953 Z m 4.02539,5.003906 c -3.01703,-0.0065 -5.494281,2.470749 -5.501952,5.498047 a 0.50005,0.50005 0 1 0 1,0.0039 c 0.0063,-2.484383 2.030992,-4.507263 4.500002,-4.501953 a 0.50005,0.50005 0 1 0 0.002,-1 z" id="path18476-0-2"></path>
  </g>
</svg>