<svg xmlns="http://www.w3.org/2000/svg" height="64" width="64" viewBox="129 29 20 20">
  <g style="fill: #ffffff;" id="antialiased" transform="translate(-147,-567)" data-label="B-7">
    <rect y="597.99994" x="278" height="16" width="16" id="rect12101" style="opacity: 0; fill: #ffffff; stroke-width: 3;"></rect>
    <path style="fill: #ffffff; fill-rule: evenodd; stroke-width: 2; stroke-linecap: round; stroke-linejoin: round;" d="m 286,599 c -3.8542,0 -7,3.1458 -7,7 0,3.8542 3.1458,7 7,7 3.8542,0 7,-3.1458 7,-7 0,-3.8542 -3.1458,-7 -7,-7 z m 0,2 c 2.77332,0 5,2.22668 5,5 0,2.77332 -2.22668,5 -5,5 -2.77332,0 -5,-2.22668 -5,-5 0,-2.77332 2.22668,-5 5,-5 z" id="path12103"></path>
  </g>
</svg>