<svg xmlns="http://www.w3.org/2000/svg" height="64" width="64" viewBox="234 575 20 20">
  <g style="fill: #ffffff;" id="driver-distance" transform="translate(-558,-200)" data-label="BA-12">
    <path style="fill: #ffffff; stroke-width: 1.2; stroke-linecap: round;" d="m 247.59961,579 a 0.60006002,0.60006002 0 0 0 -0.41797,1.03125 l 2.78711,2.78711 a 0.60076499,0.60076499 0 0 0 0.84961,-0.84961 l -2.78711,-2.78711 A 0.60006002,0.60006002 0 0 0 247.59961,579 Z m -0.11133,2.89453 a 0.60006002,0.60006002 0 0 0 -0.41211,0.18164 l -1,1 a 0.60006002,0.60006002 0 1 0 0.84766,0.84766 l 1,-1 a 0.60006002,0.60006002 0 0 0 -0.43555,-1.0293 z m -3,3 a 0.60006002,0.60006002 0 0 0 -0.41211,0.18164 l -1,1 a 0.60006002,0.60006002 0 1 0 0.84766,0.84766 l 1,-1 a 0.60006002,0.60006002 0 0 0 -0.43555,-1.0293 z m -3,3 a 0.60006002,0.60006002 0 0 0 -0.41211,0.18164 l -1,1 a 0.60006002,0.60006002 0 1 0 0.84766,0.84766 l 1,-1 a 0.60006002,0.60006002 0 0 0 -0.43555,-1.0293 z M 237.59961,589 a 0.60006002,0.60006002 0 0 0 -0.41797,1.03125 l 2.78711,2.78711 a 0.60076499,0.60076499 0 0 0 0.84961,-0.84961 l -2.78711,-2.78711 A 0.60006002,0.60006002 0 0 0 237.59961,589 Z" transform="translate(558,200)" id="path15289-7"></path>
  </g>
</svg>