<svg xmlns="http://www.w3.org/2000/svg" height="64" width="64" viewBox="318 575 20 20">
  <g style="" id="stylus-pressure" transform="translate(-20.9999,105)" data-label="BA-16">
    <path style="opacity: 0.85; fill: #ffffff; stroke-linecap: round; stroke-linejoin: round;" d="m 346.54688,478.16016 a 0.50005,0.50005 0 0 0 -0.18165,0.0293 c -1.54898,0.53108 -2.52602,2.0719 -2.34375,3.69922 0.18228,1.62732 1.47542,2.91657 3.10352,3.0918 1.6281,0.17523 3.16703,-0.80811 3.69141,-2.35938 a 0.50005,0.50005 0 1 0 -0.94727,-0.32031 c -0.37611,1.11265 -1.46896,1.81123 -2.63672,1.68555 -1.16775,-0.12568 -2.08606,-1.04179 -2.2168,-2.20899 -0.13073,-1.1672 0.56282,-2.26166 1.67383,-2.64257 a 0.50005,0.50005 0 0 0 -0.14257,-0.97461 z" id="path27478-1"></path>
    <path style="opacity: 0.6; fill: #ffffff; stroke-linecap: round; stroke-linejoin: round;" d="m 346.52148,476.09375 a 0.50004994,0.50004994 0 0 0 -0.0859,0.01 c -2.69151,0.53044 -4.58334,2.97414 -4.42578,5.71289 0.15755,2.73875 2.31815,4.94772 5.05273,5.16601 2.73458,0.21829 5.21856,-1.61975 5.80859,-4.29883 a 0.50004994,0.50004994 0 1 0 -0.97656,-0.21484 c -0.48423,2.19868 -2.50772,3.69672 -4.75195,3.51758 -2.24424,-0.17915 -4.00546,-1.98086 -4.13477,-4.22852 -0.1293,-2.24766 1.41221,-4.2385 3.6211,-4.67383 a 0.50004994,0.50004994 0 0 0 -0.10743,-0.99023 z" id="circle27480-1"></path>
    <path style="fill: #ffffff; stroke-linecap: round; stroke-linejoin: round;" d="m 353.49219,473 c -0.12989,0.002 -0.25387,0.0546 -0.34571,0.14648 l -5,5 c -0.0938,0.0938 -0.14646,0.22092 -0.14648,0.35352 v 1.79297 l -0.85352,0.85351 c -0.49023,0.47127 0.23577,1.19727 0.70704,0.70704 L 348.70703,481 H 350.5 c 0.1326,-2e-5 0.25976,-0.0527 0.35352,-0.14648 l 5,-5 c 0.19519,-0.19527 0.19519,-0.51177 0,-0.70704 l -2,-2 c -0.0957,-0.0957 -0.22603,-0.14855 -0.36133,-0.14648 z" id="path27485-1"></path>
  </g>
</svg>