<svg xmlns="http://www.w3.org/2000/svg" height="64" width="64" viewBox="3 575 20 20">
  <g style="fill: #ffffff;" id="help" transform="translate(-187,-90)" data-label="BA-1">
    <path style="fill: #ffffff; stroke-width: 1px; stroke-linecap: round; stroke-linejoin: round;" d="M 9.5,578 C 7.96808,578 7,579.29203 7,580.5 v 9 c 0,1.20797 0.96808,2.5 2.5,2.5 h 9 c 0.67616,0.01 0.67616,-1.00956 0,-1 h -9 C 8.53192,591 8,590.17765 8,589.5 8,588.82235 8.53192,588 9.5,588 h 9 c 0.27613,-3e-5 0.49997,-0.22387 0.5,-0.5 v -9 c -3e-5,-0.27613 -0.22387,-0.49997 -0.5,-0.5 z m 4,1 c 1.37479,0 2.5,1.12521 2.5,2.5 0,1.18026 -0.86027,2.25 -2,2.44531 V 585 h -1 v -1.5 c 3e-5,-0.27613 0.22387,-0.49997 0.5,-0.5 0.83435,0 1.5,-0.66565 1.5,-1.5 0,-0.83435 -0.66565,-1.5 -1.5,-1.5 -0.83435,0 -1.5,0.66565 -1.5,1.5 v 0.5 h -1 v -0.5 c 0,-1.37479 1.12521,-2.5 2.5,-2.5 z m -0.5,7 h 1 v 1 h -1 z m -3.5,3 a 0.50005,0.50005 0 1 0 0,1 h 9 a 0.50005,0.50005 0 1 0 0,-1 z" transform="translate(187,90)" id="path13602"></path>
  </g>
</svg>