<svg xmlns="http://www.w3.org/2000/svg" height="64" width="64" viewBox="465 575 20 20">
  <g id="three-dots" style="fill: #ffffff;" data-label="BA-23">
    <path style="fill: #ffffff; stroke-linecap: round; stroke-linejoin: round; stroke-dashoffset: 0.5;" d="m 475.5,579 c -0.82252,0 -1.5,0.67748 -1.5,1.5 0,0.82252 0.67748,1.5 1.5,1.5 0.82252,0 1.5,-0.67748 1.5,-1.5 0,-0.82252 -0.67748,-1.5 -1.5,-1.5 z m 0,5 c -0.82252,0 -1.5,0.67748 -1.5,1.5 0,0.82252 0.67748,1.5 1.5,1.5 0.82252,0 1.5,-0.67748 1.5,-1.5 0,-0.82252 -0.67748,-1.5 -1.5,-1.5 z m 0,5 c -0.82252,0 -1.5,0.67748 -1.5,1.5 0,0.82252 0.67748,1.5 1.5,1.5 0.82252,0 1.5,-0.67748 1.5,-1.5 0,-0.82252 -0.67748,-1.5 -1.5,-1.5 z" id="ellipse12367"></path>
  </g>
</svg>