<svg xmlns="http://www.w3.org/2000/svg" height="64" width="64" viewBox="297 596 20 20">
  <g id="unlocked" style="" data-label="CA-15">
    <path style="opacity: 0.6; fill: #ffffff; stroke-linecap: round; stroke-linejoin: round;" d="m 303.5,600 c -1.92707,0 -3.5,1.57293 -3.5,3.5 v 0.5 h 1 v -0.5 c 0,-1.38663 1.11337,-2.5 2.5,-2.5 1.38663,0 2.5,1.11337 2.5,2.5 v 1.5 h -0.5 a 0.50005,0.50005 0 0 0 -0.5,0.5 v 5 a 0.50005,0.50005 0 0 0 0.5,0.5 h 8 a 0.50005,0.50005 0 0 0 0.5,-0.5 v -5 A 0.50005,0.50005 0 0 0 313.5,605 H 307 v -1.5 c 0,-1.92707 -1.57293,-3.5 -3.5,-3.5 z m 2.5,6 h 7 v 4 h -7 z m 3,1 v 2 h 1 v -2 z" id="path19950-6"></path>
  </g>
</svg>