<svg xmlns="http://www.w3.org/2000/svg" height="64" width="64" viewBox="528 596 20 20">
  <g id="plugin" style="" data-label="CA-26">
    <path style="fill: #ffffff;" d="M 534.49219,599 C 534.2199,599 534,599.223 534,599.5 v 1.5 h -2.5 a 0.50005,0.50005 0 1 0 0,1 h 2.5 v 3 h -2.5 a 0.50005,0.50005 0 1 0 0,1 h 2.5 v 1.5 c 0,0.277 0.2199,0.5 0.49219,0.5 h 0.0156 C 534.7801,608 535,607.777 535,607.5 v -8 c 0,-0.277 -0.2199,-0.5 -0.49219,-0.5 z m 1.25781,1 v 7 H 537 c 1.69468,0 3,-1.30532 3,-3 v -1 c 0,-1.69468 -1.30532,-3 -3,-3 z" id="path22706-5"></path>
    <path style="opacity: 0.6; fill: #ffffff; stroke-width: 1.00157; stroke-linecap: round;" d="m 541.48633,603.02734 c -0.55718,0.017 -0.67407,0.7946 -0.14649,0.97461 1.47614,0.5388 2.51343,1.91841 2.64454,3.53711 0.13105,1.61806 -0.67507,3.15416 -2.04493,3.94532 C 541.32404,611.8398 540.6905,612 540,612 h -9 v 1 h 9 c 0.84916,0 1.67422,-0.20648 2.43945,-0.64844 1.70819,-0.98656 2.70486,-2.89381 2.54297,-4.89258 -0.16183,-1.99811 -1.44941,-3.72267 -3.30078,-4.39843 -0.0622,-0.024 -0.12865,-0.0353 -0.19531,-0.0332 z" id="path22783-2-0"></path>
  </g>
</svg>