<svg xmlns="http://www.w3.org/2000/svg" height="64" width="64" viewBox="276 71 20 20">
  <g transform="translate(-21)" id="newfolder" style="" data-label="D-14">
    <path style="opacity: 0.6; fill: #ffffff; stroke-width: 1px; stroke-linejoin: round;" d="m 300.5,76 c -0.27613,2.8e-5 -0.49997,0.223869 -0.5,0.5 v 11 c 3e-5,0.27613 0.22387,0.49997 0.5,0.5 h 12 c 0.27613,-3e-5 0.49997,-0.22387 0.5,-0.5 v -5.558594 c -0.31959,0.108004 -0.65516,0.175732 -1,0.212891 V 87 h -11 v -7 c 2.01109,0.01725 4.25811,0.0051 6.54102,0 -0.37613,-0.591554 -0.61026,-1.271947 -0.68946,-2 H 304 v -1.5 c -3e-5,-0.276131 -0.22387,-0.499972 -0.5,-0.5 z" id="path28389"></path>
    <path style="fill: #ffffff; stroke-width: 0.8; stroke-linecap: round; stroke-linejoin: round;" d="m 311.5,74 c -1.933,0 -3.5,1.567 -3.5,3.5 0,1.933 1.567,3.5 3.5,3.5 1.933,0 3.5,-1.567 3.5,-3.5 0,-1.933 -1.567,-3.5 -3.5,-3.5 z m -0.5,1 h 1 v 2 h 2 v 1 h -2 v 2 h -1 v -2 h -2 v -1 h 2 z" id="path28385"></path>
  </g>
</svg>