<svg xmlns="http://www.w3.org/2000/svg" height="64" width="64" viewBox="528 71 20 20">
  <g transform="translate(-801,345)" id="file-text" style="opacity: 0.99; fill: #ffffff;" data-label="D-26">
    <path style="fill: #ffffff; stroke-linecap: round; stroke-linejoin: round;" d="m 1339.5,-270 a 0.50004994,0.50004994 0 1 0 0,1 h 6 a 0.50004994,0.50004994 0 1 0 0,-1 z m 0,3 a 0.50004994,0.50004994 0 1 0 0,1 h 6 a 0.50004994,0.50004994 0 1 0 0,-1 z m 0,3 a 0.50004994,0.50004994 0 1 0 0,1 h 6 a 0.50004994,0.50004994 0 1 0 0,-1 z m -7,3 a 0.50004994,0.50004994 0 1 0 0,1 h 13 a 0.50004994,0.50004994 0 1 0 0,-1 z m -0.014,3 a 0.50004994,0.50004994 0 1 0 0,1 h 13.0449 a 0.50004994,0.50004994 0 1 0 0,-1 z" id="path13198"></path>
    <path style="fill: #ffffff; stroke-linecap: round; stroke-linejoin: round;" d="m 1332.4922,-263 c -0.2761,-0.004 -0.4965,-0.23166 -0.4922,-0.50781 v -5.08789 c 0,-0.86662 0.4883,-1.66406 1.2578,-2.08789 0.7696,-0.42387 1.709,-0.42387 2.4785,0 0.7695,0.42383 1.2559,1.22127 1.2559,2.08789 v 5.08789 c 0.01,0.67616 -1.0096,0.67616 -1,0 V -266 H 1333 v 2.49219 c 0,0.28226 -0.2255,0.51222 -0.5078,0.50781 z m 0.5078,-4 h 2.9922 v -1.5957 c 0,-0.49379 -0.2728,-0.95455 -0.7383,-1.21094 -0.4655,-0.25638 -1.0482,-0.25638 -1.5137,0 -0.4655,0.25639 -0.7402,0.71715 -0.7402,1.21094 z" id="path13202"></path>
  </g>
</svg>