<svg xmlns="http://www.w3.org/2000/svg" height="64" width="64" viewBox="45 71 20 20">
  <g id="sorttime" style="" data-label="D-3">
    <path style="fill: #ffffff; stroke-linecap: round; stroke-linejoin: round;" d="M 50.494141,73.992188 A 0.50004997,0.50004997 0 0 0 50.417969,74 H 49.5 a 0.50004997,0.50004997 0 1 0 0,1 H 50 v 1.125 c 0,1.632015 0.971328,2.853007 2.201172,3.775391 L 53,80.5 v 0.5 0.5 l -0.798828,0.599609 C 50.971326,83.021991 50,84.242992 50,85.875 V 87 h -0.5 a 0.50004997,0.50004997 0 1 0 0,1 h 0.921875 a 0.50004997,0.50004997 0 0 0 0.160156,0 h 7.837891 a 0.50004997,0.50004997 0 0 0 0.162109,0 H 59.5 a 0.50004997,0.50004997 0 1 0 0,-1 H 59 v -1.125 c 0,-1.632008 -0.969373,-2.853009 -2.199219,-3.775391 L 56,81.5 V 81.035156 A 0.50004997,0.50004997 0 0 0 56,81 v -0.5 l 0.800781,-0.599609 C 58.030625,78.978007 59,77.757015 59,76.125 V 75 h 0.5 a 0.50004997,0.50004997 0 1 0 0,-1 h -0.919922 a 0.50004997,0.50004997 0 0 0 -0.162109,0 h -7.835938 a 0.50004997,0.50004997 0 0 0 -0.08789,-0.0078 z M 51,75 h 7 v 1.125 c 0,1.245243 -0.698245,2.147707 -1.800781,2.974609 l -1,0.75 A 0.50004997,0.50004997 0 0 0 55,80.25 V 80.964844 81 81.75 a 0.50004997,0.50004997 0 0 0 0.199219,0.400391 l 1,0.75 C 57.301151,83.726838 57.999238,84.628869 58,85.873047 V 87 h -7 v -1.125 -0.002 c 7.62e-4,-1.244178 0.698849,-2.146209 1.800781,-2.972656 l 1,-0.75 A 0.50004997,0.50004997 0 0 0 54,81.75 V 81.035156 A 0.50004997,0.50004997 0 0 0 54,81 v -0.75 a 0.50004997,0.50004997 0 0 0 -0.199219,-0.400391 l -1,-0.75 C 51.698847,78.273158 51.000762,77.371141 51,76.126953 v -0.002 z" id="path14614"></path>
  </g>
</svg>