<svg xmlns="http://www.w3.org/2000/svg" height="64" width="64" viewBox="150 71 20 20">
  <g style="fill: #ffffff;" id="imgdisplay" transform="translate(21)" data-label="D-8">
    <path id="rect14323" style="fill: #ffffff; stroke-linecap: round; stroke-linejoin: round;" d="m 141.51562,82 a 0.50005,0.50005 0 0 0 -0.5,0.5 v 5 a 0.50005,0.50005 0 0 0 0.5,0.5 H 145.5 a 0.50005,0.50005 0 0 0 0.5,-0.5 v -5 A 0.50005,0.50005 0 0 0 145.5,82 Z m 0.5,1 H 145 v 4 h -2.98438 z m -9.5,-1 a 0.50005,0.50005 0 0 0 -0.5,0.5 v 5 a 0.50005,0.50005 0 0 0 0.5,0.5 H 136.5 a 0.50005,0.50005 0 0 0 0.5,-0.5 v -5 A 0.50005,0.50005 0 0 0 136.5,82 Z m 0.5,1 H 136 v 4 h -2.98438 z m 8.5,-9 a 0.50005,0.50005 0 0 0 -0.5,0.5 v 5 a 0.50005,0.50005 0 0 0 0.5,0.5 H 145.5 a 0.50005,0.50005 0 0 0 0.5,-0.5 v -5 A 0.50005,0.50005 0 0 0 145.5,74 Z m 0.5,1 H 145 v 4 h -2.98438 z m -9.5,-1 a 0.50005,0.50005 0 0 0 -0.5,0.5 v 5 a 0.50005,0.50005 0 0 0 0.5,0.5 H 136.5 a 0.50005,0.50005 0 0 0 0.5,-0.5 v -5 A 0.50005,0.50005 0 0 0 136.5,74 Z m 0.5,1 H 136 v 4 h -2.98438 z"></path>
  </g>
</svg>