<svg xmlns="http://www.w3.org/2000/svg" height="64" width="64" viewBox="444 617 20 20">
  <g style="fill: #ffffff;" id="trash" transform="translate(-252,-1102)" data-label="DA-22">
    <rect style="fill: none; stroke-width: 1.627;" id="frame" width="18" height="18" x="696.99982" y="-1738" transform="scale(1,-1)" data-label="frame"></rect>
    <g style="fill: #ffffff; stroke: #ffffff;" id="g19344">
      <g id="g19337" style="opacity:0;fill:#ffffff"></g>
      <path id="path19342" style="fill: #ffffff; stroke-linejoin: round;" d="m 701,1726 v 7.25 c 0,0.4861 0.17047,0.94 0.49023,1.2598 0.31977,0.3197 0.77366,0.4902 1.25977,0.4902 h 6.5 c 0.48611,0 0.94,-0.1705 1.25977,-0.4902 C 710.82953,1734.19 711,1733.7361 711,1733.25 V 1726 h -1 v 7.25 c 0,0.2639 -0.0795,0.435 -0.19727,0.5527 C 709.685,1733.9205 709.51389,1734 709.25,1734 h -6.5 c -0.26389,0 -0.435,-0.08 -0.55273,-0.1973 C 702.07953,1733.685 702,1733.5139 702,1733.25 V 1726 Z m 3.5,-4 c -0.27613,0 -0.49997,0.2239 -0.5,0.5 v 1.5 h -3.5 c -0.67616,-0.01 -0.67616,1.0096 0,1 h 11 c 0.67616,0.01 0.67616,-1.0096 0,-1 H 708 v -1.5 c -3e-5,-0.2761 -0.22387,-0.5 -0.5,-0.5 z m 0.5,1 h 2 v 1 h -2 z"></path>
    </g>
    <path style="opacity: 0.6; fill: #ffffff; stroke-width: 1px; stroke-linecap: round; stroke-linejoin: round;" d="m 704.49219,1726.9922 c -0.27614,0 -0.4965,0.2317 -0.49219,0.5078 v 4 c -0.01,0.6762 1.00956,0.6762 1,0 v -4 c 0.004,-0.2823 -0.22555,-0.5122 -0.50781,-0.5078 z m 3,0 c -0.27614,0 -0.4965,0.2317 -0.49219,0.5078 v 4 c -0.01,0.6762 1.00956,0.6762 1,0 v -4 c 0.004,-0.2823 -0.22555,-0.5122 -0.50781,-0.5078 z" id="path19346"></path>
  </g>
</svg>