<svg xmlns="http://www.w3.org/2000/svg" height="64" width="64" viewBox="465 617 20 20">
  <g id="collection-new" style="" data-label="DA-23">
    <rect style="fill: none; stroke-width: 1.627;" id="frame" width="18" height="18" x="465.99979" y="-636" transform="scale(1,-1)" data-label="frame"></rect>
    <path d="m 473,628 a 1.0001,1.0001 0 1 0 0,2 h 2 a 1.0001,1.0001 0 1 0 0,-2 z m -4.5,-6 a 0.50005,0.50005 0 0 0 -0.5,0.5 v 3 a 0.50005,0.50005 0 0 0 0.5,0.5 h 0.5 v 7.5 a 0.50005,0.50005 0 0 0 0.5,0.5 h 9 a 0.50005,0.50005 0 0 0 0.5,-0.5 v -5 a 0.50005,0.50005 0 1 0 -1,0 v 4.5 h -8 v -7 h 3.5 a 0.50005,0.50005 0 1 0 0,-1 H 469 v -2 h 4.5 a 0.50005,0.50005 0 1 0 0,-1 z" style="opacity: 0.6; fill: #ffffff; stroke-width: 2; stroke-linecap: round;" id="path24739-4"></path>
    <path id="path27428" d="m 478.50003,620.0003 c -1.933,0 -3.5,1.567 -3.5,3.5 0,1.933 1.567,3.5 3.5,3.5 1.933,0 3.5,-1.567 3.5,-3.5 0,-1.933 -1.567,-3.5 -3.5,-3.5 z m -0.5,1 h 1 v 2 h 2 v 1 h -2 v 2 h -1 v -2 h -2 v -1 h 2 z" style="fill: #ffffff; stroke-width: 3; stroke-linecap: round; stroke-linejoin: round;"></path>
  </g>
</svg>