<svg xmlns="http://www.w3.org/2000/svg" height="64" width="64" viewBox="129 92 20 20">
  <g id="outliner-ob-volume" style="" data-label="E-7">
    <path style="fill: #ffffff; stroke-linecap: round; stroke-linejoin: round;" d="m 139.512,94.8218 c -0.39468,0.0302 -0.78775,0.12022 -1.16797,0.27148 -1.52086,0.60507 -2.52148,2.07999 -2.52148,3.716796 -7.6e-4,0.0448 0.004,0.0894 0.0156,0.13281 -0.36519,0.0927 -0.72282,0.22834 -1.0586,0.42774 -1.44139,0.855954 -2.17088,2.516884 -1.8789,4.144534 -0.68715,0.57705 -1.10816,1.44799 -1.07617,2.39648 0.0502,1.48769 1.19214,2.71921 2.67187,2.88086 1.39818,0.15274 2.69975,-0.69789 3.15234,-2.00781 0.89605,0.0388 1.7697,-0.22225 2.49805,-0.74609 1.07373,0.85551 2.55788,1.01607 3.78907,0.37695 1.3017,-0.67573 2.04373,-2.09602 1.85741,-3.55078 -0.16328,-1.27499 -1.01005,-2.34261 -2.17967,-2.80664 0.45466,-1.382424 0.13144,-2.9211 -0.88477,-3.9961 -0.56221,-0.59473 -1.27728,-0.98709 -2.04298,-1.15625 -0.38285,-0.0846 -0.77914,-0.11418 -1.17382,-0.084 z" id="path21574-1"></path>
  </g>
</svg>