<svg xmlns="http://www.w3.org/2000/svg" height="64" width="64" viewBox="360 113 20 20">
  <g id="boid" style="" data-label="F-18">
    <path style="fill: #ffffff; fill-rule: evenodd; stroke-linecap: round; stroke-linejoin: round;" d="m 374.4375,121.17773 c -0.55229,-0.19531 -1.19407,-0.23097 -1.84766,0.002 -0.65359,0.23293 -1.30733,0.71399 -1.9707,1.49609 -0.28137,0.33173 -0.45085,0.79694 -0.61914,1.24219 -0.17701,-0.45587 -0.36207,-0.94012 -0.61914,-1.24219 -0.66249,-0.77846 -1.31558,-1.25837 -1.96875,-1.49023 -0.65317,-0.23186 -1.2953,-0.19616 -1.84766,-0.002 -1.10471,0.38842 -1.89002,1.32506 -2.44922,1.9961 a 0.50064603,0.50064603 0 1 0 0.76954,0.64062 c 0.54481,-0.65377 1.26345,-1.43095 2.00976,-1.69336 0.37316,-0.1312 0.7444,-0.1559 1.18359,0 0.4392,0.1559 0.95757,0.51168 1.54102,1.19727 0.19894,0.23376 0.56603,0.91963 0.64063,1.27734 A 0.50005,0.50005 0 0 0 369.75,125 h 0.5 a 0.50005,0.50005 0 0 0 0.49023,-0.40234 c 0.0736,-0.37229 0.37785,-0.96363 0.64063,-1.27344 0.58467,-0.68931 1.10595,-1.04668 1.54492,-1.20313 0.43897,-0.15644 0.80714,-0.13175 1.17969,0 0.74509,0.2635 1.46354,1.04375 2.00976,1.69922 a 0.50064603,0.50064603 0 1 0 0.76954,-0.64062 c -0.55904,-0.67084 -1.34269,-1.61133 -2.44727,-2.00196 z" id="path17826-1"></path>
  </g>
</svg>