<svg xmlns="http://www.w3.org/2000/svg" height="64" width="64" viewBox="66 113 20 20">
  <g transform="translate(-252,-252)" id="shading-rendered" style="fill: #ffffff;" data-label="F-4">
    <path style="fill: #ffffff; fill-rule: evenodd; stroke-linecap: round; stroke-linejoin: round;" d="m 328,368 c -3.86007,0 -7,3.13993 -7,7 0,3.86007 3.13993,7 7,7 3.86007,0 7,-3.13993 7,-7 0,-3.86007 -3.13993,-7 -7,-7 z m 0,1 c 3.31963,0 6,2.68037 6,6 0,3.31963 -2.68037,6 -6,6 -3.31963,0 -6,-2.68037 -6,-6 0,-3.31963 2.68037,-6 6,-6 z" id="path10721"></path>
    <path style="fill: #ffffff; stroke-width: 2; stroke-linecap: round; stroke-linejoin: round;" d="m 327.12891,369.9668 a 1.0001,1.0001 0 0 0 -0.16797,0.0234 c -2.00329,0.41569 -3.57155,1.99062 -3.97656,3.9961 a 1.0003053,1.0003053 0 1 0 1.96093,0.39648 c 0.24758,-1.22589 1.19732,-2.17949 2.42188,-2.43359 a 1.0001,1.0001 0 0 0 -0.23828,-1.98242 z" id="path10723"></path>
    <path style="fill: #ffffff; stroke-width: 0.8; stroke-linecap: round; stroke-linejoin: round;" d="m 332.49609,373.0957 a 0.40004001,0.40004001 0 0 0 -0.27929,0.6875 l 2,2 a 0.40050528,0.40050528 0 1 0 0.5664,-0.5664 l -2,-2 a 0.40004001,0.40004001 0 0 0 -0.28711,-0.1211 z m -0.75,2.25 a 0.40004001,0.40004001 0 0 0 -0.27929,0.6875 l 2,2 a 0.40050528,0.40050528 0 1 0 0.5664,-0.5664 l -2,-2 a 0.40004001,0.40004001 0 0 0 -0.28711,-0.1211 z m -1.25,1.75 a 0.40004001,0.40004001 0 0 0 -0.27929,0.6875 l 2,2 a 0.40050528,0.40050528 0 1 0 0.5664,-0.5664 l -2,-2 a 0.40004001,0.40004001 0 0 0 -0.28711,-0.1211 z m -1.75,1.25 a 0.40004001,0.40004001 0 0 0 -0.27929,0.6875 l 2,2 a 0.40050528,0.40050528 0 1 0 0.5664,-0.5664 l -2,-2 a 0.40004001,0.40004001 0 0 0 -0.28711,-0.1211 z m -2.23632,0.75 a 0.40004001,0.40004001 0 0 0 -0.27344,0.70508 l 2,1.75 a 0.40004001,0.40004001 0 1 0 0.52734,-0.60156 l -2,-1.75 a 0.40004001,0.40004001 0 0 0 -0.2539,-0.10352 z" id="path10727"></path>
  </g>
</svg>