<svg xmlns="http://www.w3.org/2000/svg" height="64" width="64" viewBox="87 113 20 20">
  <g style="fill: #ffffff;" id="shading-texture" transform="translate(-21,21)" data-label="F-5">
    <path id="path16351" d="m 118,95.5 c -3.58986,0 -6.5,2.41014 -6.5,6 1,1 3,2.5 6.5,2.5 z" style="fill: #ffffff; stroke-linecap: round; stroke-linejoin: round;"></path>
    <path style="fill: #ffffff; fill-rule: evenodd; stroke-linecap: round; stroke-linejoin: round;" d="m 118,95 c -3.86007,0 -7,3.139925 -7,7 0,3.86008 3.13992,7 7,7 3.86008,0 7,-3.13992 7,-7 0,-3.860075 -3.13993,-7 -7,-7 z m 0,1 c 3.31963,0 6,2.680365 6,6 0,3.31964 -2.68036,6 -6,6 -3.31964,0 -6,-2.68036 -6,-6 0,-3.319635 2.68037,-6 6,-6 z" id="path16353"></path>
    <path style="fill: #ffffff; stroke-width: 1.2; stroke-linecap: round; stroke-linejoin: round;" d="m 123.24414,102.64453 a 0.60006002,0.60006002 0 0 0 -0.41797,1.0293 l 0.5,0.5 a 0.60006002,0.60006002 0 1 0 0.84766,-0.84766 l -0.5,-0.5 a 0.60006002,0.60006002 0 0 0 -0.42969,-0.18164 z m -2.25,0.75 a 0.60006002,0.60006002 0 0 0 -0.41797,1.0293 l 1.75,1.75 a 0.60006002,0.60006002 0 1 0 0.84766,-0.84766 l -1.75,-1.75 a 0.60006002,0.60006002 0 0 0 -0.42969,-0.18164 z m -2.5,0.5 a 0.60006002,0.60006002 0 0 0 -0.41797,1.0293 l 2.75,2.75 a 0.60006002,0.60006002 0 1 0 0.84766,-0.84766 l -2.75,-2.75 a 0.60006002,0.60006002 0 0 0 -0.42969,-0.18164 z m 0,3 a 0.60006002,0.60006002 0 0 0 -0.41797,1.0293 l 0.75,0.75 a 0.60006002,0.60006002 0 1 0 0.84766,-0.84766 l -0.75,-0.75 a 0.60006002,0.60006002 0 0 0 -0.42969,-0.18164 z" id="path16355"></path>
  </g>
</svg>