<svg xmlns="http://www.w3.org/2000/svg" height="64" width="64" viewBox="24 134 20 20">
  <g style="fill: #ffffff;" id="pastedown" transform="matrix(-1,0,0,1,-102.984,5.79997e-6)" data-label="G-2">
    <path id="path20230" transform="matrix(-1,0,0,1,-274.984,0)" style="opacity: 0.5; fill: #ffffff; stroke-width: 1px; stroke-linecap: round; stroke-linejoin: round;" d="m -144.5,139 c -0.27613,3e-5 -0.49997,0.22387 -0.5,0.5 v 9 c 3e-5,0.27613 0.22387,0.49997 0.5,0.5 h 7 2 c 0.10658,-1e-5 0.20011,-0.0408 0.28125,-0.0977 l -3.3418,-3.34179 a 1.50015,1.50015 0 1 1 2.1211,-2.1211 L -135,144.87891 V 139.5 c -3e-5,-0.27613 -0.22387,-0.49997 -0.5,-0.5 h -1.48438 L -137,139.5 v 0.5 h -6 v -0.5 l 0.0156,-0.5 z m 5,-2 c 0.27613,3e-5 0.49997,0.22387 0.5,0.5 v 0.5 h 1.5 c 0.32865,0.005 0.51562,0.25232 0.51562,0.5 v 0.5 h -2.51562 -1 -2.48438 v -0.5 c 0,-0.25267 0.14909,-0.49526 0.48438,-0.5 h 1.5 v -0.5 c 3e-5,-0.27613 0.22387,-0.49997 0.5,-0.5 z"></path>
    <g transform="rotate(180,-150.985,147.5)" id="g20236" style="fill:#ffffff">
      <path style="fill: #ffffff; stroke-linecap: round; stroke-linejoin: round;" d="m -158.49414,143.99609 a 0.50005,0.50005 0 0 0 -0.0508,0.004 h -3.93946 a 0.50005,0.50005 0 1 0 0,1 h 2.79297 l -5.14648,5.14648 a 0.50005,0.50005 0 1 0 0.70703,0.70704 l 5.14648,-5.14649 V 148.5 a 0.50005,0.50005 0 1 0 1,0 v -3.94336 a 0.50005,0.50005 0 0 0 -0.50976,-0.56055 z" id="path20234"></path>
    </g>
  </g>
</svg>