<svg xmlns="http://www.w3.org/2000/svg" height="64" width="64" viewBox="318 155 20 20">
  <g style="fill: #ffffff;" id="sticky-uvs-vert" transform="translate(-42)" data-label="H-16">
    <path style="fill: #ffffff; stroke-linecap: round; stroke-linejoin: round;" d="m 373.5,158 a 0.50005,0.50005 0 0 0 -0.5,0.5 v 3 a 0.50005,0.50005 0 0 0 0.5,0.5 h 3 a 0.50005,0.50005 0 0 0 0.5,-0.5 v -3 a 0.50005,0.50005 0 0 0 -0.5,-0.5 z m 0.5,1 h 2 v 2 h -2 z m -10.5,9 a 0.50005,0.50005 0 0 0 -0.5,0.5 v 3 a 0.50005,0.50005 0 0 0 0.5,0.5 h 3 a 0.50005,0.50005 0 0 0 0.5,-0.5 v -3 a 0.50005,0.50005 0 0 0 -0.5,-0.5 z m 0.5,1 h 2 v 2 h -2 z" id="rect14387"></path>
    <path style="opacity: 0.6; fill: #ffffff; stroke-linecap: round; stroke-linejoin: round;" d="m 366.49219,160.99219 a 0.50005,0.50005 0 0 0 -0.31641,0.12109 0.50005,0.50005 0 0 0 -0.0195,0.0156 0.50005,0.50005 0 0 0 -0.0176,0.0176 0.50005,0.50005 0 0 0 -0.002,0.004 0.50005,0.50005 0 0 0 -0.0312,0.0332 0.50005,0.50005 0 0 0 -0.002,0.004 A 0.50005,0.50005 0 0 0 366,161.58203 V 162.5 a 0.50005,0.50005 0 1 0 1,0 V 162 h 0.5 a 0.50005,0.50005 0 1 0 0,-1 h -0.91992 a 0.50005,0.50005 0 0 0 -0.0879,-0.008 z m 7,0 A 0.50005,0.50005 0 0 0 373.41797,161 H 372.5 a 0.50005,0.50005 0 1 0 0,1 h 0.5 v 0.5 a 0.50005,0.50005 0 1 0 1,0 v -0.91992 a 0.50005,0.50005 0 0 0 -0.11328,-0.4043 0.50005,0.50005 0 0 0 -0.002,-0.004 0.50005,0.50005 0 0 0 -0.0312,-0.0332 0.50005,0.50005 0 0 0 -0.004,-0.002 0.50005,0.50005 0 0 0 -0.0332,-0.0312 0.50005,0.50005 0 0 0 -0.004,-0.002 0.50005,0.50005 0 0 0 -0.32031,-0.11133 z M 369.5,161 a 0.50005,0.50005 0 1 0 0,1 h 1 a 0.50005,0.50005 0 1 0 0,-1 z m -3.00781,2.99219 A 0.50005,0.50005 0 0 0 366,164.5 v 1 a 0.50005,0.50005 0 1 0 1,0 v -1 a 0.50005,0.50005 0 0 0 -0.50781,-0.50781 z m 7,0 A 0.50005,0.50005 0 0 0 373,164.5 v 1 a 0.50005,0.50005 0 1 0 1,0 v -1 a 0.50005,0.50005 0 0 0 -0.50781,-0.50781 z m -7,3 A 0.50005,0.50005 0 0 0 366,167.5 v 0.91992 a 0.50005,0.50005 0 0 0 0.11328,0.4043 0.50005,0.50005 0 0 0 0.0156,0.0195 0.50005,0.50005 0 0 0 0.0176,0.0176 0.50005,0.50005 0 0 0 0.004,0.002 0.50005,0.50005 0 0 0 0.0332,0.0312 0.50005,0.50005 0 0 0 0.004,0.002 A 0.50005,0.50005 0 0 0 366.58203,169 H 367.5 a 0.50005,0.50005 0 1 0 0,-1 H 367 v -0.5 a 0.50005,0.50005 0 0 0 -0.50781,-0.50781 z m 7,0 A 0.50005,0.50005 0 0 0 373,167.5 v 0.5 h -0.5 a 0.50005,0.50005 0 1 0 0,1 h 0.91992 a 0.50005,0.50005 0 0 0 0.4043,-0.11328 0.50005,0.50005 0 0 0 0.004,-0.002 0.50005,0.50005 0 0 0 0.0332,-0.0312 0.50005,0.50005 0 0 0 0.002,-0.004 0.50005,0.50005 0 0 0 0.0312,-0.0332 0.50005,0.50005 0 0 0 0.002,-0.004 A 0.50005,0.50005 0 0 0 374,168.41797 V 167.5 a 0.50005,0.50005 0 0 0 -0.50781,-0.50781 z M 369.5,168 a 0.50005,0.50005 0 1 0 0,1 h 1 a 0.50005,0.50005 0 1 0 0,-1 z" id="path14452"></path>
  </g>
</svg>