<svg xmlns="http://www.w3.org/2000/svg" height="64" width="64" viewBox="402 155 20 20">
  <g id="grid" style="" data-label="H-20">
    <path style="opacity: 0.99; fill: #ffffff; stroke-linecap: round;" d="m 414.55664,159.95508 a 0.50005,0.50005 0 0 0 -0.47461,0.61133 L 414.38867,162 h -4.70898 l 0.30859,-1.39062 a 0.5003812,0.5003812 0 1 0 -0.97656,-0.21876 L 408.6543,162 H 406.5 a 0.50005,0.50005 0 1 0 0,1 h 1.93164 l -0.66602,3 H 405.5 a 0.50005,0.50005 0 1 0 0,1 h 2.04297 l -0.53125,2.39062 a 0.5003812,0.5003812 0 1 0 0.97656,0.21876 L 408.56836,167 h 6.88672 l 0.55664,2.60352 a 0.50005,0.50005 0 1 0 0.97656,-0.20704 L 416.47656,167 H 418.5 a 0.50005,0.50005 0 1 0 0,-1 h -2.23633 l -0.63867,-3 h 1.875 a 0.50005,0.50005 0 1 0 0,-1 h -2.08984 l -0.34961,-1.64258 a 0.50005,0.50005 0 0 0 -0.50391,-0.40234 z M 409.45703,163 h 5.14453 l 0.64063,3 h -6.45117 z" id="path13985"></path>
  </g>
</svg>