<svg xmlns="http://www.w3.org/2000/svg" height="64" width="64" viewBox="486 155 20 20">
  <g style="fill: #ffffff;" id="orientation-local" transform="translate(399.01,-125.994)" data-label="H-24">
    <path id="path20888-1" transform="translate(171.99,125.994)" d="m -71.318359,158.00586 a 0.50005,0.50005 0 1 0 0,1 h 1.689453 l -3.382813,4.26953 c -0.291076,-0.16603 -0.621698,-0.26953 -0.978515,-0.26953 -0.733151,0 -1.370542,0.40645 -1.71875,1 h -4.582032 l 1.146485,-1.14648 a 0.50005,0.50005 0 0 0 -0.363281,-0.85743 0.50005,0.50005 0 0 0 -0.34375,0.15039 l -2,2 a 0.50005,0.50005 0 0 0 0,0.70704 l 2,2 a 0.50005,0.50005 0 1 0 0.707031,-0.70704 l -1.146485,-1.14648 h 4.300782 c 0,1.09865 0.901352,2 2,2 1.098648,0 2,-0.90135 2,-2 0,-0.37821 -0.113913,-0.72852 -0.298828,-1.03125 l 3.298828,-4.16211 v 1.52148 a 0.50005,0.50005 0 1 0 1,0 v -2.82812 a 0.50005,0.50005 0 0 0 -0.5,-0.5 z m -2.671875,6 c 0.558208,0 1,0.44179 1,1 0,0.55821 -0.441792,1 -1,1 -0.558208,0 -1,-0.44179 -1,-1 0,-0.55821 0.441792,-1 1,-1 z" style="fill: #ffffff; stroke-linecap: round; stroke-linejoin: round;"></path>
    <path id="path20890-1" d="m 99.244141,291.73828 a 0.50005,0.50005 0 0 0 -0.396485,0.81641 L 102.36133,297 h -1.68945 a 0.50005,0.50005 0 1 0 0,1 H 103.5 a 0.50005,0.50005 0 0 0 0.5,-0.5 v -2.82812 a 0.50005,0.50005 0 1 0 -1,0 v 1.52148 l -3.367188,-4.25977 a 0.50005,0.50005 0 0 0 -0.388671,-0.19531 z" style="opacity: 0.6; fill: #ffffff; stroke-linecap: round; stroke-linejoin: round;"></path>
  </g>
</svg>