<svg xmlns="http://www.w3.org/2000/svg" height="64" width="64" viewBox="108 155 20 20">
  <g id="snap-on" style="" data-label="H-6">
    <path style="opacity: 0.6; fill: #ffffff; stroke-width: 1px; stroke-linecap: round; stroke-linejoin: round;" d="M 114.49219,166.99219 A 0.50005,0.50005 0 0 0 114,167.5 v 1.5 h -2.5 a 0.50005,0.50005 0 0 0 -0.5,0.5 v 2 a 0.50005,0.50005 0 1 0 1,0 V 170 h 2.5 a 0.50005,0.50005 0 0 0 0.5,-0.5 v -2 a 0.50005,0.50005 0 0 0 -0.50781,-0.50781 z" id="path4913-5-0"></path>
    <path style="fill: #ffffff; stroke-linecap: round; stroke-linejoin: round;" d="m 118.89062,157.9668 c -1.59478,-0.0195 -3.16997,0.53887 -4.2539,1.6914 l -0.74024,0.73828 c -0.19519,0.19527 -0.19519,0.51177 0,0.70704 l 2,2 c 0.19527,0.19519 0.51177,0.19519 0.70704,0 l 0.5,-0.5 c 0.5849,-0.58491 1.58165,-0.89809 2.3457,-0.69336 0.80156,0.21477 1.42585,0.83907 1.64062,1.64062 0.20473,0.76404 -0.10844,1.76078 -0.69336,2.3457 l -0.5,0.5 c -0.19519,0.19527 -0.19519,0.51177 0,0.70704 l 2,2 c 0.19527,0.19519 0.51177,0.19519 0.70704,0 l 0.75,-0.75 c 2.22378,-2.22379 2.21818,-6.29752 -0.0977,-8.61329 -1.15793,-1.15796 -2.77045,-1.75392 -4.36524,-1.77343 z m -6.14848,3.7832 c -0.12989,0.002 -0.25387,0.0546 -0.34571,0.14648 l -1.25,1.25 c -0.19519,0.19527 -0.19519,0.51177 0,0.70704 l 2,2 c 0.19527,0.19519 0.51177,0.19519 0.70704,0 l 1.25,-1.25 c 0.19519,-0.19527 0.19519,-0.51177 0,-0.70704 l -2,-2 c -0.0957,-0.0957 -0.226,-0.14854 -0.36128,-0.14648 z m 6.00019,6 c -0.12989,0.002 -0.25387,0.0546 -0.34571,0.14648 l -1.25,1.25 c -0.19519,0.19527 -0.19519,0.51177 0,0.70704 l 2,2 c 0.19527,0.19519 0.51177,0.19519 0.70704,0 l 1.25,-1.25 c 0.19519,-0.19527 0.19519,-0.51177 0,-0.70704 l -2,-2 c -0.0957,-0.0957 -0.22612,-0.14859 -0.36147,-0.14648 z" id="path21201-1"></path>
  </g>
</svg>