<svg xmlns="http://www.w3.org/2000/svg" height="64" width="64" viewBox="234 176 20 20">
  <g transform="matrix(0.930364,0,0,1.00239,215.638,150.908)" id="rootcurve" style="fill: #ffffff; stroke-width: 1.03551;" data-label="I-12">
    <path style="fill: #ffffff; stroke-width: 1.03551; stroke-linecap: round; stroke-linejoin: round;" d="m 30.216797,30 a 0.51780782,0.51780782 0 0 0 -0.337891,0.126953 l -3.761718,3.242188 c -1.859424,1.602556 -3.136719,3.536893 -3.136719,6.128906 a 0.51780782,0.51780782 0 1 0 1.035156,0 c 0,-2.262051 1.045193,-3.852838 2.777344,-5.345703 l 3.615234,-3.115235 h 0.152344 l 3.617187,3.115235 a 0.51780782,0.51780782 0 0 0 0,0.002 c 1.732844,1.491631 2.775391,3.081554 2.775391,5.34375 a 0.5185545,0.5185545 0 1 0 1.037109,0 c 0,-2.591868 -1.275948,-4.527155 -3.136718,-6.128906 L 31.091797,30.126953 A 0.51780782,0.51780782 0 0 0 30.753906,30 Z" id="path19532"></path>
  </g>
</svg>