<svg xmlns="http://www.w3.org/2000/svg" height="64" width="64" viewBox="486 176 20 20">
  <g style="fill: #ffffff;" transform="translate(919,-532)" id="particle-point" data-label="I-24">
    <rect transform="scale(-1,1)" style="opacity: 0; fill: #ffffff; fill-rule: evenodd; stroke-width: 2.8;" id="rect6673" width="16" height="16" x="415" y="710"></rect>
    <path style="opacity: 0.6; fill: #ffffff; stroke-linecap: round; stroke-linejoin: round;" d="m -416.49609,713.99609 a 0.50005,0.50005 0 0 0 -0.31055,0.10938 c -0.21339,0.16596 -0.41872,0.33348 -0.61524,0.50195 -4.0339,3.45843 -4.51787,6.50897 -4.57812,9.88281 a 0.50009544,0.50009544 0 1 0 1,0.0195 c 0.059,-3.3038 0.37586,-5.83955 4.22852,-9.14258 0.1842,-0.15793 0.37703,-0.31626 0.57812,-0.47266 a 0.50005,0.50005 0 0 0 -0.30273,-0.89844 z" id="path6675"></path>
    <path id="path6688" style="fill: #ffffff; fill-rule: evenodd; stroke-linecap: round; stroke-linejoin: round;" d="m -427.5,716 c -0.27613,3e-5 -0.49997,0.22387 -0.5,0.5 v 3 c 3e-5,0.27613 0.22387,0.49997 0.5,0.5 h 3 c 0.27613,-3e-5 0.49997,-0.22387 0.5,-0.5 v -3 c -3e-5,-0.27613 -0.22387,-0.49997 -0.5,-0.5 z m -2,5 c -0.27613,3e-5 -0.49997,0.22387 -0.5,0.5 v 3 c 3e-5,0.27613 0.22387,0.49997 0.5,0.5 h 3 c 0.27613,-3e-5 0.49997,-0.22387 0.5,-0.5 v -3 c -3e-5,-0.27613 -0.22387,-0.49997 -0.5,-0.5 z m 5,-10 c -0.27613,3e-5 -0.49997,0.22387 -0.5,0.5 v 3 c 3e-5,0.27613 0.22387,0.49997 0.5,0.5 h 3 c 0.27613,-3e-5 0.49997,-0.22387 0.5,-0.5 v -3 c -3e-5,-0.27613 -0.22387,-0.49997 -0.5,-0.5 z"></path>
  </g>
</svg>