<svg xmlns="http://www.w3.org/2000/svg" height="64" width="64" viewBox="507 176 20 20">
  <g style="fill: #ffffff;" id="particle-tip" transform="translate(921,-553)" data-label="I-25">
    <rect transform="scale(-1,1)" style="opacity: 0; fill: #ffffff; fill-rule: evenodd; stroke-width: 2.8;" id="rect7240" width="16" height="16" x="396" y="731"></rect>
    <path style="opacity: 0.6; fill: #ffffff; stroke-linecap: round; stroke-linejoin: round;" d="m -408.50391,736.99414 a 0.50005,0.50005 0 0 0 -0.43554,0.26563 c -1.5311,2.80698 -2.01417,5.0457 -2.02149,8.22461 a 0.50005,0.50005 0 1 0 1,0.004 c 0.007,-3.0834 0.43147,-5.05503 1.90039,-7.74805 a 0.50005,0.50005 0 0 0 -0.44336,-0.74609 z m 6.99805,2 a 0.50005,0.50005 0 0 0 -0.37891,0.18555 C -403.15877,740.70849 -404,742.16634 -404,745.5 a 0.50005,0.50005 0 1 0 1,0 c 0,-3.18014 0.65877,-4.20849 1.88477,-5.67969 a 0.50005,0.50005 0 0 0 -0.39063,-0.82617 z" id="path7245"></path>
    <path style="fill: #ffffff; fill-rule: evenodd; stroke-linecap: round; stroke-linejoin: round;" d="m -407.5,732 c -0.27613,3e-5 -0.49997,0.22387 -0.5,0.5 v 3 c 3e-5,0.27613 0.22387,0.49997 0.5,0.5 h 3 c 0.27613,-3e-5 0.49997,-0.22387 0.5,-0.5 v -3 c -3e-5,-0.27613 -0.22387,-0.49997 -0.5,-0.5 z m 7,2 c -0.27613,3e-5 -0.49997,0.22387 -0.5,0.5 v 3 c 3e-5,0.27613 0.22387,0.49997 0.5,0.5 h 3 c 0.27613,-3e-5 0.49997,-0.22387 0.5,-0.5 v -3 c -3e-5,-0.27613 -0.22387,-0.49997 -0.5,-0.5 z" id="path7250"></path>
  </g>
</svg>