<svg xmlns="http://www.w3.org/2000/svg" height="64" width="64" viewBox="45 176 20 20">
  <g id="facesel" style="" data-label="I-3">
    <path style="fill: #ffffff; fill-rule: evenodd; stroke-linecap: round; stroke-linejoin: round;" d="m 48.5,183 c -0.27613,4e-5 -0.49997,0.22388 -0.5,0.5 v 9 c 3e-5,0.27614 0.22387,0.49997 0.5,0.5 h 9 c 0.27613,-3e-5 0.49997,-0.22386 0.5,-0.5 v -9 c -3e-5,-0.27612 -0.22387,-0.49996 -0.5,-0.5 z" id="path5234"></path>
    <path style="opacity: 0.6; fill: #ffffff; stroke-linecap: round; stroke-linejoin: round;" d="m 52.49219,179.00781 c -0.1326,4e-5 -0.25976,0.0527 -0.35352,0.1465 l -1.99219,1.99217 C 50.02584,181.26245 50,181.375 50,181.5 v 0.5 h 1 l 0.003,-0.296 1.69618,-1.69619 h 8.29297 v 8.29298 L 59.29548,189.99745 59,190 v 1 h 0.5 c 0.11717,0 0.23766,-0.0261 0.3457,-0.13867 l 2,-2 c 0.0938,-0.0938 0.14646,-0.22091 0.14649,-0.35352 v -9 c -3e-5,-0.27612 -0.22387,-0.49996 -0.5,-0.5 z" id="path5236"></path>
  </g>
</svg>