<svg xmlns="http://www.w3.org/2000/svg" height="64" width="64" viewBox="171 176 20 20">
  <g style="fill: #ffffff;" id="pivot-median" transform="translate(2.62972e-6,-21)" data-label="I-9">
    <path id="path12908" style="fill: #ffffff; stroke-linecap: round; stroke-linejoin: round;" d="m 183.8125,200.01562 c 2.21359,0.18235 3.97803,1.94071 4.16992,4.1543 0.19189,2.2136 -1.24344,4.25155 -3.39258,4.8125 a 0.5007349,0.5007349 0 1 1 -0.2539,-0.96875 c 1.68376,-0.43948 2.80079,-2.02289 2.65039,-3.75781 -0.1504,-1.73492 -1.52164,-3.10129 -3.25586,-3.24414 -1.73423,-0.14285 -3.31219,0.98104 -3.74414,2.66797 a 0.50005,0.50005 0 1 1 -0.96875,-0.24805 c 0.55114,-2.15241 2.58133,-3.59836 4.79492,-3.41602 z M 178.5,205 a 0.50005,0.50005 0 1 1 0,1 c -1.41705,0 -2.69209,0.85096 -3.23438,2.16016 -0.54228,1.30919 -0.24224,2.81243 0.75977,3.81445 1.00201,1.00201 2.50527,1.30205 3.81445,0.75977 C 181.14903,212.19209 182,210.91706 182,209.5 a 0.50005,0.50005 0 1 1 1,0 c 0,1.81865 -1.09714,3.46223 -2.77734,4.1582 -1.68021,0.69597 -3.61833,0.30942 -4.9043,-0.97656 -1.28598,-1.28598 -1.67253,-3.22408 -0.97656,-4.9043 C 175.03776,206.09713 176.68136,205 178.5,205 Z"></path>
    <path style="fill: #ffffff; stroke-linecap: square; stroke-linejoin: round;" d="M 182.99634,206.50183 A 1.4981741,1.4981725 0 0 1 181.49817,208 a 1.4981741,1.4981725 0 0 1 -1.49818,-1.49817 1.4981741,1.4981725 0 0 1 1.49818,-1.49817 1.4981741,1.4981725 0 0 1 1.49817,1.49817 z" id="circle12958"></path>
  </g>
</svg>