<svg xmlns="http://www.w3.org/2000/svg" height="64" width="64" viewBox="276 197 20 20">
  <g id="ipo-expo" style="" data-label="J-14">
    <path style="fill: #ffffff; stroke-width: 1px; stroke-linecap: round; stroke-linejoin: round;" d="m 291.5,201 a 0.50005,0.50005 0 0 0 -0.5,0.5 c 0,2.47889 -0.15954,4.38104 -0.52734,5.8125 -0.36781,1.43146 -0.92559,2.38009 -1.74024,3.05273 C 287.10312,211.71053 284.21571,212 279.5,212 a 0.50005,0.50005 0 1 0 0,1 c 4.75093,0 7.86511,-0.21053 9.86914,-1.86523 1.00202,-0.82736 1.66924,-2.00373 2.07227,-3.57227 0.36978,-1.43916 0.48747,-3.33151 0.51171,-5.5625 H 292.5 a 0.50005,0.50005 0 1 0 0,-1 z" id="path14276"></path>
  </g>
</svg>