<svg xmlns="http://www.w3.org/2000/svg" height="64" width="64" viewBox="360 218 20 20">
  <g id="keyframe" style="stroke-width: 1.00038044;" transform="matrix(0.77770413,0,0,0.77770413,82.359643,50.7947)" data-label="K-18">
    <path style="fill: #ffffff; stroke-linecap: square; stroke-linejoin: round;" d="m 370.49414,224.00195 a 0.50005,0.50005 0 0 0 -0.34766,0.14649 l -4,3.99804 a 0.50005,0.50005 0 0 0 0,0.70704 l 4,4 a 0.50005,0.50005 0 0 0 0.70508,0 l 3.99219,-3.97852 a 0.50005,0.50005 0 0 0 0.002,-0.70703 l -3.99218,-4.01953 a 0.50005,0.50005 0 0 0 -0.35938,-0.14649 z m 0.004,1.20899 3.28711,3.30859 L 370.5,231.79297 367.20703,228.5 Z" id="path23352-4-7" transform="matrix(1.285836,0,0,1.285836,-105.901,-65.313656)"></path>
  </g>
</svg>