<svg xmlns="http://www.w3.org/2000/svg" height="64" width="64" viewBox="402 218 20 20">
  <g style="" id="key-dehlt" transform="translate(-18,-64)" data-label="K-20">
    <g id="g27675" transform="rotate(90,282.999,687.996)" style="opacity:0.7">
      <path style="fill: #ffffff; stroke-width: 1px; stroke-linejoin: round;" d="m -109.99609,533.99609 -0.004,7.11133 c -1.67885,0.25428 -2.99414,1.64686 -2.99414,3.39453 0,1.92568 1.57041,3.49805 3.49609,3.49805 1.92569,0 3.49805,-1.57236 3.49805,-3.49805 0,-1.74925 -1.31894,-3.14219 -3,-3.39453 l 0.004,-7.11133 z m 0.49804,8.00977 c 1.38524,0 2.49805,1.11085 2.49805,2.49609 0,1.38525 -1.1128,2.49805 -2.49805,2.49805 -1.38524,0 -2.49609,-1.11281 -2.49609,-2.49805 0,-1.38523 1.11086,-2.49609 2.49609,-2.49609 z" id="path27671"></path>
      <path style="fill: #ffffff; stroke-width: 1px; stroke-linejoin: round;" d="m -108.5,534 v 3 h 1 c 0.27613,-3e-5 0.49997,-0.22387 0.5,-0.5 v -2 c -3e-5,-0.27613 -0.22387,-0.49997 -0.5,-0.5 z" id="path27673"></path>
    </g>
    <path style="fill: #ffffff; stroke-linecap: round; stroke-linejoin: round;" d="m 430.49414,284.99414 a 0.50005,0.50005 0 0 0 -0.34766,0.85938 l 2.64649,2.64648 -2.64649,2.64648 a 0.50005,0.50005 0 1 0 0.70704,0.70704 l 2.64648,-2.64649 2.64648,2.64649 a 0.50005,0.50005 0 1 0 0.70704,-0.70704 l -2.64649,-2.64648 2.64649,-2.64648 a 0.50005,0.50005 0 1 0 -0.70704,-0.70704 l -2.64648,2.64649 -2.64648,-2.64649 a 0.50005,0.50005 0 0 0 -0.35938,-0.15234 z" id="path27679"></path>
  </g>
</svg>