<svg xmlns="http://www.w3.org/2000/svg" height="64" width="64" viewBox="3 239 20 20">
  <g style="fill: #ffffff;" id="mod-cloth" data-label="L-1">
    <path style="fill: #ffffff; stroke-linecap: round; stroke-linejoin: round; stroke-dashoffset: 7.4;" d="M 10.492188,241.99219 A 0.50005,0.50005 0 0 0 10.417969,242 H 6.5 A 0.50005,0.50005 0 0 0 6,242.5 v 5 A 0.50005,0.50005 0 0 0 6.5,248 H 8 v 7.5 a 0.50005,0.50005 0 0 0 0.5,0.5 h 9 A 0.50005,0.50005 0 0 0 18,255.5 V 248 h 1.5 a 0.50005,0.50005 0 0 0 0.5,-0.5 v -5 A 0.50005,0.50005 0 0 0 19.5,242 h -3.919922 a 0.50005,0.50005 0 0 0 -0.404297,0.11328 0.50005,0.50005 0 0 0 -0.01953,0.0156 0.50005,0.50005 0 0 0 -0.01758,0.0176 0.50005,0.50005 0 0 0 -0.002,0.004 0.50005,0.50005 0 0 0 -0.03125,0.0332 0.50005,0.50005 0 0 0 -0.002,0.004 A 0.50005,0.50005 0 0 0 15,242.58203 V 243 c 0,0.71532 -0.380592,1.37478 -1,1.73242 -0.619409,0.35765 -1.380591,0.35765 -2,0 -0.619408,-0.35764 -1,-1.0171 -1,-1.73242 v -0.41992 a 0.50005,0.50005 0 0 0 -0.113281,-0.4043 0.50005,0.50005 0 0 0 -0.002,-0.004 0.50005,0.50005 0 0 0 -0.03125,-0.0332 0.50005,0.50005 0 0 0 -0.0039,-0.002 0.50005,0.50005 0 0 0 -0.0332,-0.0312 0.50005,0.50005 0 0 0 -0.0039,-0.002 0.50005,0.50005 0 0 0 -0.320312,-0.11133 z M 7,243 h 3 c 0,1.07096 0.57257,2.06216 1.5,2.59766 0.927429,0.53549 2.072571,0.53549 3,0 0.92743,-0.5355 1.5,-1.5267 1.5,-2.59766 h 3 v 4 H 17.5 A 0.50005,0.50005 0 0 0 17,247.5 V 255 H 9 v -7.5 A 0.50005,0.50005 0 0 0 8.5,247 H 7 Z" id="path22384"></path>
  </g>
</svg>