<svg xmlns="http://www.w3.org/2000/svg" height="64" width="64" viewBox="339 239 20 20">
  <g style="fill: #ffffff;" id="mod-normaledit" data-label="L-17">
    <path style="opacity: 0.5; fill: #ffffff; stroke-linecap: round; stroke-linejoin: round;" d="m 347.75,247 -5.25781,0.002 a 0.50005,0.50005 0 0 0 -0.5,0.5 v 8 a 0.50005,0.50005 0 0 0 0.5,0.5 h 8 a 0.50005,0.50005 0 0 0 0.5,-0.49804 L 351,251.50195 a 0.50005,0.50005 0 1 0 -1,-0.004 l -0.008,3.5039 h -7 v -7 L 347.75,248 a 0.50005,0.50005 0 1 0 0,-1 z" id="path22405"></path>
    <path style="fill: #ffffff; stroke-linecap: round; stroke-linejoin: round;" d="M 350.49219,241.99219 A 0.50005,0.50005 0 0 0 350,242.5 v 4.59766 c -0.58199,0.20687 -1.00586,0.75933 -1.00586,1.4082 0,0.82235 0.67765,1.5 1.5,1.5 0.36227,0 0.69258,-0.13606 0.95313,-0.35352 l 3.79492,2.27735 a 0.50109829,0.50109829 0 1 0 0.51562,-0.85938 l -3.79297,-2.27734 c 0.0184,-0.0931 0.0293,-0.18901 0.0293,-0.28711 0,-0.10213 -0.0114,-0.20218 -0.0312,-0.29883 l 3.79492,-2.27734 a 0.50109829,0.50109829 0 1 0 -0.51562,-0.85938 l -3.80469,2.28321 C 351.30689,247.24613 351.16128,247.1604 351,247.10156 V 242.5 a 0.50005,0.50005 0 0 0 -0.50781,-0.50781 z" id="path22407"></path>
  </g>
</svg>