<svg xmlns="http://www.w3.org/2000/svg" height="64" width="64" viewBox="24 239 20 20">
  <g style="fill: #ffffff;" id="mod-explode" transform="translate(-336,-63)" data-label="L-2">
    <path id="path22236" d="m 363.5,308.5 3,-3 h 6 l -3,3 z" style="fill: #ffffff; stroke: #ffffff; stroke-linecap: square; stroke-linejoin: round;"></path>
    <path style="fill: #ffffff; stroke-linecap: square; stroke-linejoin: round;" d="m 366.5,305 a 0.50005,0.50005 0 0 0 -0.35352,0.14648 l -3,3 A 0.50005,0.50005 0 0 0 363.5,309 h 6 a 0.50005,0.50005 0 0 0 0.35352,-0.14648 l 3,-3 A 0.50005,0.50005 0 0 0 372.5,305 Z m 0.20703,1 h 4.58594 l -2,2 h -4.58594 z m 9.77735,3 a 0.50005,0.50005 0 0 0 -0.3379,0.14648 l -3,3 A 0.50005,0.50005 0 0 0 373,312.5 v 6 a 0.50005,0.50005 0 0 0 0.85352,0.35352 l 3,-3 A 0.50005,0.50005 0 0 0 377,315.5 v -6 A 0.50005,0.50005 0 0 0 376.48438,309 Z M 376,310.70703 v 4.58594 l -2,2 v -4.58594 z M 369.5,312 l -6.00781,0.008 a 0.50005,0.50005 0 0 0 -0.5,0.5 v 6 a 0.50005,0.50005 0 0 0 0.5,0.5 h 6 a 0.50005,0.50005 0 0 0 0.5,-0.5 L 370,312.5 a 0.50005,0.50005 0 0 0 -0.5,-0.5 z m -0.5,1 -0.008,5.00781 h -5 v -5.00195 z" id="path22324"></path>
  </g>
</svg>