<svg xmlns="http://www.w3.org/2000/svg" height="64" width="64" viewBox="486 239 20 20">
  <g style="fill: #ffffff;" id="mod-instance" transform="rotate(180,958,414.9975)" data-label="L-24">
    <path style="opacity: 0.6; fill: #ffffff; stroke-linecap: round; stroke-linejoin: round;" d="m 1419.4941,588.00195 c 4.1402,0 7.5079,-3.36769 7.5079,-7.50781 a 0.50004997,0.50004997 0 1 0 -1,0 c 0,3.59968 -2.9082,6.50781 -6.5079,6.50781 a 0.50004997,0.50004997 0 1 0 0,1 z" id="path23647-2"></path>
    <path style="fill: #ffffff; stroke-width: 1.2; stroke-linecap: round; stroke-linejoin: round;" d="m 1416.4941,585.10156 c 4.1942,0 7.6075,-3.41326 7.6075,-7.60742 a 0.6006,0.6006 0 1 0 -1.2012,0 c 0,3.54564 -2.8606,6.40625 -6.4063,6.40625 a 0.600585,0.600585 0 1 0 0,1.20117 z" id="path23668-9"></path>
    <path style="fill: #ffffff; stroke-width: 1.2; stroke-linecap: round; stroke-linejoin: round;" d="m 1413.4941,582.10156 c 4.1942,0 7.6075,-3.41326 7.6075,-7.60742 a 0.6006,0.6006 0 1 0 -1.2012,0 c 0,3.54564 -2.8606,6.40625 -6.4063,6.40625 a 0.600585,0.600585 0 1 0 0,1.20117 z" id="path23670-8"></path>
  </g>
</svg>