<svg xmlns="http://www.w3.org/2000/svg" height="64" width="64" viewBox="129 239 20 20">
  <g style="fill: #ffffff;" id="mod-screw" transform="translate(-1.85367e-6,-42)" data-label="L-7">
    <g transform="translate(-63)" style="fill: #ffffff; stroke: #f9f9f9;" id="g21667">
      <path style="fill: #ffffff; stroke-linecap: round; stroke-linejoin: round; stroke-dashoffset: 6.6;" d="M 145.49219,241.99219 A 0.50005,0.50005 0 0 0 145,242.5 c 0,1.27778 -0.82701,2.37965 -2.66602,3.44141 -1.66335,0.96034 -4.28314,1.19403 -6.30078,1.06054 -0.9786,-0.0647 -1.78811,-0.30625 -2.3125,-0.61133 -0.52058,-0.30284 -0.71591,-0.62257 -0.71875,-0.88476 0.003,-0.26222 0.19817,-0.58387 0.71875,-0.88672 0.5244,-0.30506 1.3339,-0.54463 2.3125,-0.60937 1.74084,-0.11517 3.90302,0.0169 5.24414,0.6875 a 0.50005,0.50005 0 1 0 0.44532,-0.89454 c -1.65888,-0.82943 -3.92118,-0.91239 -5.75586,-0.79101 -1.10098,0.0728 -2.04234,0.3336 -2.74805,0.74414 -0.63776,0.37101 -1.097,0.90981 -1.18359,1.55273 A 0.50005,0.50005 0 0 0 132,245.5 c 0,0.002 0.002,0.004 0.002,0.006 -1e-5,0.002 -0.002,0.004 -0.002,0.006 a 0.50005,0.50005 0 0 0 0.0352,0.18945 0.50005,0.50005 0 0 0 0.002,0.006 c 0.0881,0.64105 0.54525,1.17861 1.18164,1.54883 0.70571,0.41055 1.64707,0.66937 2.74805,0.74219 2.1415,0.14167 4.88621,-0.0477 6.86718,-1.19141 C 144.82884,245.65491 146,244.22222 146,242.5 a 0.50005,0.50005 0 0 0 -0.50781,-0.50781 z m -0.27539,5.25195 a 0.50005,0.50005 0 0 0 -0.4375,0.67578 C 144.90088,248.25504 145,248.58141 145,249 c 0,1.83333 -0.82701,2.87965 -2.66602,3.94141 -1.66335,0.96034 -4.28314,1.19403 -6.30078,1.06054 -0.9786,-0.0647 -1.78811,-0.30625 -2.3125,-0.61133 -0.52058,-0.30284 -0.71591,-0.62257 -0.71875,-0.88476 0.003,-0.26222 0.19817,-0.58387 0.71875,-0.88672 0.5244,-0.30506 1.3339,-0.54463 2.3125,-0.60937 1.74084,-0.11517 3.90302,0.0169 5.24414,0.6875 a 0.50005,0.50005 0 1 0 0.44532,-0.89454 c -1.65888,-0.82943 -3.92118,-0.91239 -5.75586,-0.79101 -1.10098,0.0728 -2.04234,0.3336 -2.74805,0.74414 -0.63776,0.37101 -1.097,0.90981 -1.18359,1.55273 A 0.50005,0.50005 0 0 0 132,252.5 c 0,0.002 0.002,0.004 0.002,0.006 -1e-5,0.002 -0.002,0.004 -0.002,0.006 a 0.50005,0.50005 0 0 0 0.0371,0.19531 c 0.0881,0.64105 0.54525,1.17861 1.18164,1.54883 0.70571,0.41055 1.64707,0.66937 2.74805,0.74219 2.1415,0.14167 4.88621,-0.0477 6.86718,-1.19141 1.96806,-1.13625 3.12917,-2.60303 3.16016,-4.72266 A 0.50005,0.50005 0 0 0 146,249 a 0.50005,0.50005 0 0 0 -0.0137,-0.12695 c -0.0205,-0.51808 -0.14222,-0.95284 -0.26563,-1.29297 a 0.50005,0.50005 0 0 0 -0.5039,-0.33594 z m 0.043,7 a 0.50005,0.50005 0 0 0 -0.4336,0.76953 c 0,0 0.17383,0.35663 0.17383,0.51953 a 0.50005,0.50005 0 1 0 1,0 c 0,-0.59989 -0.32617,-1.04687 -0.32617,-1.04687 a 0.50005,0.50005 0 0 0 -0.41406,-0.24219 z" transform="translate(63,42)" id="path21655"></path>
    </g>
    <g id="g21673" style="fill: #ffffff; stroke: #f9f9f9;" transform="translate(-63,6)"></g>
  </g>
</svg>