<svg xmlns="http://www.w3.org/2000/svg" height="64" width="64" viewBox="255 260 20 20">
  <g style="fill: #ffffff;" id="mod-array" transform="translate(21,-21)" data-label="M-13">
    <path style="opacity: 0.5; fill: #ffffff; stroke-linecap: round; stroke-linejoin: round;" d="m 240.49805,288 -3.00586,0.008 a 0.50005,0.50005 0 0 0 -0.5,0.5 v 9 a 0.50005,0.50005 0 0 0 0.5,0.5 h 3 a 0.50005,0.50005 0 0 0 0.5,-0.5 L 241,288.5 A 0.50005,0.50005 0 0 0 240.49805,288 Z M 240,289.00195 l -0.008,8.00586 h -2 v -8.00195 z" id="path22383"></path>
    <path style="fill: #ffffff; stroke-linecap: round; stroke-linejoin: round;" d="m 250.49805,284 -3.00586,0.008 a 0.50005,0.50005 0 0 0 -0.5,0.5 v 9 a 0.50005,0.50005 0 0 0 0.5,0.5 h 3 a 0.50005,0.50005 0 0 0 0.5,-0.5 L 251,284.5 A 0.50005,0.50005 0 0 0 250.49805,284 Z M 250,285.00195 l -0.008,8.00586 h -2 v -8.00195 z M 245.49805,286 l -3.00586,0.008 a 0.50005,0.50005 0 0 0 -0.5,0.5 v 9 a 0.50005,0.50005 0 0 0 0.5,0.5 h 3 a 0.50005,0.50005 0 0 0 0.5,-0.5 L 246,286.5 A 0.50005,0.50005 0 0 0 245.49805,286 Z M 245,287.00195 l -0.008,8.00586 h -2 v -8.00195 z" id="path22387"></path>
  </g>
</svg>