<svg xmlns="http://www.w3.org/2000/svg" height="64" width="64" viewBox="108 260 20 20">
  <g style="fill: #ffffff;" id="mod-soft" data-label="M-6">
    <path style="fill: #ffffff; stroke-linecap: round; stroke-linejoin: round;" d="m 120.85938,263.01172 c -2.71113,-0.14985 -5.132,0.84146 -7.07032,2.78125 -2.61921,2.6212 -3.50441,6.90582 -2.24609,9.9043 0.25386,0.60493 0.66496,1.06469 1.2168,1.20507 0.55183,0.14039 1.13738,-0.0925 1.59375,-0.54882 l 10,-10 a 0.50005,0.50005 0 0 0 0.01,-0.01 c 0.45574,-0.48275 0.74002,-1.03795 0.61133,-1.61328 -0.12869,-0.57533 -0.64203,-0.96413 -1.31445,-1.18164 -0.96105,-0.31088 -1.89708,-0.48716 -2.80078,-0.53711 z m -0.0586,0.98437 c 0.81237,0.051 1.66258,0.21855 2.55078,0.50586 0.49509,0.16015 0.62426,0.33915 0.64844,0.44727 0.0242,0.10812 -0.028,0.35187 -0.36328,0.70703 l -9.99024,9.99023 c -0.29363,0.29364 -0.48952,0.32555 -0.64062,0.28711 -0.1511,-0.0384 -0.36452,-0.20246 -0.54102,-0.62304 -1.05362,-2.51071 -0.27172,-6.50583 2.03125,-8.81055 1.77041,-1.77175 3.86758,-2.65679 6.30469,-2.50391 z M 115.48438,267 a 0.50005,0.50005 0 0 0 -0.34376,0.15234 C 113.75486,268.5381 112.997,270.82305 113,272.5 a 0.50005,0.50005 0 1 0 1,0 c -0.002,-1.34281 0.7435,-3.53647 1.84766,-4.64062 A 0.50005,0.50005 0 0 0 115.48438,267 Z m 7.02343,3 a 0.50005,0.50005 0 1 0 0,1 c 0.67897,0 1.01439,0.13886 1.19922,0.33398 0.18483,0.19513 0.30078,0.54691 0.30078,1.16602 a 0.50005,0.50005 0 1 0 1,0 c 0,-0.74159 -0.136,-1.38882 -0.57617,-1.85352 C 123.99147,270.18179 123.32885,270 122.50781,270 Z m -2.01562,1.99219 A 0.50005,0.50005 0 0 0 120,272.5 c 0,0.86111 0.31215,1.53681 0.80469,1.94727 0.49254,0.41045 1.11198,0.55273 1.69531,0.55273 0.41667,0 0.79723,0.10772 1.05469,0.32227 C 123.81215,275.53681 124,275.86111 124,276.5 a 0.50005,0.50005 0 1 0 1,0 c 0,-0.86111 -0.31215,-1.53681 -0.80469,-1.94727 C 123.70277,274.14228 123.08333,274 122.5,274 c -0.41667,0 -0.79723,-0.10772 -1.05469,-0.32227 C 121.18785,273.46319 121,273.13889 121,272.5 a 0.50005,0.50005 0 0 0 -0.50781,-0.50781 z m -2,2 A 0.50005,0.50005 0 0 0 118,274.5 c 0,0.82103 0.18179,1.48561 0.64648,1.92578 C 119.11118,276.86595 119.75841,277 120.5,277 h 1 a 0.50005,0.50005 0 1 0 0,-1 h -1 c -0.61911,0 -0.97089,-0.11595 -1.16602,-0.30078 C 119.13886,275.51439 119,275.17897 119,274.5 a 0.50005,0.50005 0 0 0 -0.50781,-0.50781 z" id="path22545"></path>
  </g>
</svg>