<svg xmlns="http://www.w3.org/2000/svg" height="64" width="64" viewBox="3 281 20 20">
  <g id="con-camerasolver" transform="translate(-21,84)" style="" data-label="N-1">
    <path d="m 29,207 v 1 h -2 v -1 z m 4,4 h 1 v 3 h -1 z m 0,-10 h 1 v 3 h -1 z m -2.5,4 c -0.27613,3e-5 -0.49997,0.22387 -0.5,0.5 v 4 c 3e-5,0.27613 0.22387,0.49997 0.5,0.5 h 6 c 0.27613,-3e-5 0.49997,-0.22387 0.5,-0.5 V 208 h 0.335938 l 2.61914,1.9043 c 0.08568,0.0623 0.188958,0.0958 0.294922,0.0957 h 0.25 c 0.276131,-3e-5 0.499972,-0.22387 0.5,-0.5 v -4 c -2.8e-5,-0.27613 -0.223869,-0.49997 -0.5,-0.5 h -0.25 c -0.105964,-1.5e-4 -0.209238,0.0334 -0.294922,0.0957 L 37.335938,207 H 37 v -1.5 c -3e-5,-0.27613 -0.22387,-0.49997 -0.5,-0.5 z m 0.5,1 h 5.027344 v 3 H 31 Z m 9,0.30078 v 2.39844 L 38.349609,207.5 Z" style="fill: #ffffff; stroke-width: 1.2; stroke-linecap: round;" id="path10313"></path>
  </g>
</svg>