<svg xmlns="http://www.w3.org/2000/svg" height="64" width="64" viewBox="360 281 20 20">
  <g transform="rotate(180,380.4965,-26.99765)" id="con-splineik" style="" data-label="N-18">
    <g transform="translate(1)" id="g10429">
      <path id="path10423-5" transform="rotate(180,390.4965,-26.99765)" d="m 393.49219,289.00391 c -0.27613,3e-5 -0.49997,0.22387 -0.5,0.5 v 1.73047 l -2.76953,2.76953 h -1.73047 c -0.27613,2e-5 -0.49997,0.22386 -0.5,0.5 v 1.02929 c 3e-5,0.27613 0.22387,0.47068 0.5,0.47071 h 1 c 0.2725,0 0.5,0.17071 0.5,0.5 v 1 c 3e-5,0.27613 0.22387,0.49997 0.5,0.5 h 1 c 0.27613,-3e-5 0.49997,-0.22387 0.5,-0.5 v -1.73243 l 2.76758,-2.76757 h 1.73242 c 0.27613,-2e-5 0.49997,-0.22386 0.5,-0.5 v -1.02735 c -3e-5,-0.27613 -0.22387,-0.47262 -0.5,-0.47265 h -1 c -0.2725,0 -0.5,-0.17071 -0.5,-0.5 v -1 c -3e-5,-0.27613 -0.22387,-0.49997 -0.5,-0.5 z" style="fill: #ffffff; stroke-linecap: round; stroke-linejoin: round;"></path>
    </g>
    <path id="path10431-8" d="m 395.47852,-349.00391 a 0.50004997,0.50004997 0 0 0 -0.32032,0.86914 c 1.10925,1.04157 1.85525,2.61894 1.8418,4.13086 -0.0174,1.95759 -1.00719,3.50006 -2.74023,4.44727 -1.67823,0.91724 -3.81516,0.64624 -5.48829,-0.40625 l 0.0234,0.0156 C 387.83199,-340.63237 386.68507,-341 385.50781,-341 H 384.5 a 0.50004997,0.50004997 0 1 0 0,1 h 1.00586 0.002 c 0.96887,0 1.91412,0.30361 2.70899,0.86914 l 0.0117,0.008 0.0117,0.008 c 1.93164,1.2151 4.44119,1.56274 6.5,0.4375 2.004,-1.0953 3.23927,-3.01733 3.25977,-5.31836 0.0163,-1.83862 -0.84967,-3.64045 -2.1582,-4.86914 a 0.50004997,0.50004997 0 0 0 -0.36328,-0.13868 z" style="opacity: 0.8; fill: #ffffff; stroke-linecap: round;"></path>
  </g>
</svg>