<svg xmlns="http://www.w3.org/2000/svg" height="64" width="64" viewBox="402 281 20 20">
  <g transform="translate(-147,636)" id="con-trackto" style="" data-label="N-20">
    <path id="ellipse10386" d="m 560.99219,-349.49609 c 0,-1.37714 1.12676,-2.50391 2.5039,-2.50391 1.37715,0 2.50391,1.12677 2.50391,2.50391 0,1.37713 -1.12676,2.5039 -2.50391,2.5039 -1.37714,0 -2.5039,-1.12677 -2.5039,-2.5039 z" style="fill: #ffffff; stroke-linecap: round; stroke-linejoin: round;"></path>
    <path id="ellipse10388" d="m 552,-339.99219 c 0,-1.09609 0.89673,-1.99609 1.99219,-1.99609 1.09546,0 1.99414,0.9 1.99414,1.99609 0,1.09609 -0.89868,1.99805 -1.99414,1.99805 -1.09546,0 -1.99219,-0.90196 -1.99219,-1.99805 z m 1,0 c 0,0.55685 0.43837,0.99805 0.99219,0.99805 0.55382,0 0.99414,-0.4412 0.99414,-0.99805 0,-0.55685 -0.44032,-0.99609 -0.99414,-0.99609 -0.55382,0 -0.99219,0.43924 -0.99219,0.99609 z" style="fill: #ffffff; stroke-linecap: round; stroke-linejoin: round;"></path>
    <path d="m 560.36798,-346.98792 a 0.60364676,0.60365756 0 0 0 -0.41654,0.18273 l -0.77413,0.77415 a 0.60366279,0.6036736 0 1 0 0.85273,0.8547 l 0.77609,-0.77611 a 0.60364676,0.60365756 0 0 0 -0.43815,-1.03547 z m -2.99662,2.98989 a 0.61117943,0.61029182 0 0 0 -0.42173,0.18473 l -0.78379,0.78265 a 0.61119567,0.61030804 0 1 0 0.86336,0.8641 l 0.78578,-0.78463 a 0.61117943,0.61029182 0 0 0 -0.44362,-1.04685 z" style="opacity: 0.7; fill: #ffffff; stroke-width: 1.2; stroke-linecap: round;" id="path28690"></path>
  </g>
</svg>