<svg xmlns="http://www.w3.org/2000/svg" height="64" width="64" viewBox="423 281 20 20">
  <g transform="translate(-126,636)" id="con-armature" style="" data-label="N-21">
    <path id="path10453" transform="translate(0,-636)" d="m 554.5,284 c -1.37479,0 -2.5,1.12521 -2.5,2.5 v 2.00781 c 0,1.37479 1.12521,2.5 2.5,2.5 1.37479,0 2.5,-1.12521 2.5,-2.5 v -0.5 h 1.51172 0.49805 l -0.0137,3.28711 c -1.65939,1.40974 -3.24134,2.62162 -3.98828,6.10742 -0.17787,0.67446 0.86019,0.89868 0.97657,0.21094 0.67528,-3.15139 1.9234,-4.08819 3.51757,-5.42773 1.58398,1.34059 2.83152,2.27746 3.51953,5.42968 0.13318,0.66658 1.13544,0.44609 0.97657,-0.21484 -0.76273,-3.49457 -2.35105,-4.70351 -4.00196,-6.11719 l 0.0137,-3.27539 h 2.21679 3.28516 c 0.6573,-0.009 0.6573,-0.9907 0,-1 h -3.04297 C 562.0093,287.6044 561.2975,288 560.5,288 c -0.79751,0 -1.50931,-0.3956 -1.96875,-0.99219 H 558.51172 557 V 286.5 c 0,-1.37479 -1.12521,-2.5 -2.5,-2.5 z m 6,0.008 c -0.82054,0 -1.49609,0.67557 -1.49609,1.4961 0,0.82054 0.67555,1.49609 1.49609,1.49609 0.82053,0 1.49609,-0.67555 1.49609,-1.49609 0,-0.82053 -0.67556,-1.4961 -1.49609,-1.4961 z m -6,0.992 c 0.83435,0 1.5,0.66565 1.5,1.5 v 2.00781 c 0,0.83435 -0.66565,1.5 -1.5,1.5 -0.83435,0 -1.5,-0.66565 -1.5,-1.5 V 286.5 c 0,-0.83435 0.66565,-1.5 1.5,-1.5 z" style="fill: #ffffff; stroke-linecap: round; stroke-linejoin: round; stroke-dashoffset: 7.4;"></path>
  </g>
</svg>