<svg xmlns="http://www.w3.org/2000/svg" height="64" width="64" viewBox="465 281 20 20">
  <g transform="translate(0,636)" id="con-floor" style="" data-label="N-23">
    <path style="fill: #ffffff; stroke-linecap: round;" d="m 447.50977,297.01172 a 0.50005,0.50005 0 1 0 0,1 h 6.2832 c -0.26437,-0.28877 -0.47061,-0.62726 -0.60742,-1 z m 11.29882,0 c -0.13697,0.37274 -0.34281,0.71123 -0.60742,1 h 2.3086 a 0.50005,0.50005 0 1 0 0,-1 z" transform="translate(21,-636)" id="path10435"></path>
    <path style="fill: #ffffff; stroke-linecap: round; stroke-linejoin: round;" d="m 476.99609,-342 c 1.09999,0 2.00391,0.90231 2.00391,2.00195 0,1.09965 -0.90392,2 -2.00391,2 -1.09998,0 -2.00195,-0.90035 -2.00195,-2 0,-1.09964 0.90197,-2.00195 2.00195,-2.00195 z" id="ellipse10439"></path>
    <path style="fill: #ffffff; stroke-linecap: round; stroke-linejoin: round;" d="m 472.49805,-351.99805 c 1.37513,0 2.50195,1.12557 2.50195,2.5 0,1.37444 -1.12682,2.49805 -2.50195,2.49805 -1.37514,0 -2.5,-1.12361 -2.5,-2.49805 0,-1.37443 1.12486,-2.5 2.5,-2.5 z m 0,1 c -0.83537,0 -1.5,0.66668 -1.5,1.5 0,0.83332 0.66463,1.49805 1.5,1.49805 0.83537,0 1.50195,-0.66473 1.50195,-1.49805 0,-0.83332 -0.66658,-1.5 -1.50195,-1.5 z" id="ellipse10441"></path>
    <path style="opacity: 0.7; fill: #ffffff; stroke-linecap: round;" d="m 472.50195,-345.99609 a 0.50005,0.50005 0 0 0 -0.49218,0.50781 v 1 a 0.50005,0.50005 0 1 0 1,0 v -1 a 0.50005,0.50005 0 0 0 -0.50782,-0.50781 z m 0,3 a 0.50005,0.50005 0 0 0 -0.49218,0.50781 v 1 a 0.50005,0.50005 0 1 0 1,0 v -1 a 0.50005,0.50005 0 0 0 -0.50782,-0.50781 z" id="path10451"></path>
  </g>
</svg>