<svg xmlns="http://www.w3.org/2000/svg" height="64" width="64" viewBox="507 281 20 20">
  <g transform="translate(43,63)" id="con-pivot" style="" data-label="N-25">
    <path id="path10375" d="m 471.5,221 a 0.50005,0.50005 0 0 0 -0.35352,0.14648 l -3,3 A 0.50005,0.50005 0 0 0 468,224.5 v 10 a 0.50005,0.50005 0 0 0 0.5,0.5 h 8 a 0.50005,0.50005 0 0 0 0.35352,-0.14648 l 3,-3 A 0.50005,0.50005 0 0 0 480,231.5 v -10 a 0.50005,0.50005 0 0 0 -0.5,-0.5 z m 0.20703,1 H 479 v 9.29297 L 476.29297,234 H 469 v -9.29297 z" style="opacity: 0.7; fill: #ffffff; stroke-linecap: round; stroke-linejoin: round;"></path>
    <path id="circle10377" d="m 474,225.99805 c -1.09907,0 -2,0.90288 -2,2.00195 0,1.09907 0.90093,2 2,2 1.09907,0 2.00195,-0.90093 2.00195,-2 0,-1.09907 -0.90288,-2.00195 -2.00195,-2.00195 z" style="fill: #ffffff; stroke-width: 1.00157; stroke-linecap: round; stroke-linejoin: round;"></path>
  </g>
</svg>