<svg xmlns="http://www.w3.org/2000/svg" height="64" width="64" viewBox="381 302 20 20">
  <g transform="translate(167.426,209.695)" style="" id="mod-length" data-label="O-19">
    <path style="fill: #ffffff; stroke-width: 1.2; stroke-linecap: round;" d="m 224.38607,100.78271 c -0.15574,0.005 -0.30353,0.0699 -0.41211,0.18164 l -2.05673,2.00254 c -0.62065,0.56444 0.28322,1.46831 0.84766,0.84765 l 2.05673,-2.00254 c 0.39088,-0.38144 0.1104,-1.04428 -0.43555,-1.02929 z" id="path15289-7-6"></path>
    <path id="path15289-7-6-5" d="m 225.6621,95.349988 c -0.67621,-0.0096 -0.67621,1.009611 0,1 h 2.79493 c -1.0479,1.117288 -1.7641,1.668027 -2.82812,2.732043 -0.62065,0.56444 0.28321,1.468319 0.84765,0.847657 1.06063,-1.101282 1.59202,-1.777197 2.68554,-2.870716 v 2.791016 c -0.01,0.676162 1.00956,0.676162 1,0 v -4 c -3e-5,-0.276131 -0.22387,-0.499973 -0.5,-0.5 z" style="fill: #ffffff; stroke-width: 1.2; stroke-linecap: round;"></path>
    <path id="path15289-7-6-5-2" d="m 221.03217,109.33958 c 0.67621,0.01 0.67621,-1.00961 0,-1 h -2.79493 c 1.0479,-1.11729 1.7641,-1.66802 2.82812,-2.73204 0.62065,-0.56444 -0.28321,-1.46832 -0.84765,-0.84766 -1.06063,1.10128 -1.59202,1.7772 -2.68554,2.87072 v -2.79102 c 0.01,-0.67616 -1.00956,-0.67616 -1,0 v 4 c 3e-5,0.27613 0.22387,0.49998 0.5,0.5 z" style="fill: #ffffff; stroke-width: 1.2; stroke-linecap: round;"></path>
  </g>
</svg>