<svg xmlns="http://www.w3.org/2000/svg" height="64" width="64" viewBox="528 302 20 20">
  <g id="indirect-only-on" style="" data-label="O-26">
    <path style="fill: #ffffff; stroke-width: 2; stroke-linecap: round; stroke-linejoin: round;" d="m 541.77363,306 a 1.0001,1.0001 0 0 0 -0.41211,0.0781 l -4.74024,2 a 1.0004654,1.0004654 0 1 0 0.77735,1.84376 l 1.54883,-0.65235 -2.69532,5.375 -2.78906,-2.30078 a 1.50015,1.50015 0 1 0 -1.9082,2.3125 l 4.24023,3.5 a 1.50015,1.50015 0 0 0 2.29688,-0.48437 l 3.53711,-7.0586 0.41015,1.63086 a 1.0001,1.0001 0 1 0 1.93946,-0.48828 l -1.25977,-5 A 1.0001,1.0001 0 0 0 541.77363,306 Z" id="path25427-8"></path>
  </g>
</svg>