<svg xmlns="http://www.w3.org/2000/svg" height="64" width="64" viewBox="3 344 20 20">
  <g transform="rotate(90,171,281)" id="force-push" style="fill: #ffffff;" data-label="Q-1">
    <g style="fill:#ffffff;stroke:#ffffff" transform="rotate(-90,244.008,459)" id="g24320">
      <path style="opacity: 0.7; fill: #ffffff; stroke-linecap: round; stroke-linejoin: round;" d="m 267.50195,451.98633 a 0.50005,0.50005 0 0 0 -0.34765,0.85937 l 2.66015,2.66016 -2.67383,2.89648 a 0.50005,0.50005 0 0 0 -0.13281,0.33985 v 0.5 a 0.50005,0.50005 0 0 0 0.13281,0.33984 l 2.67383,2.89649 -2.66015,2.66015 a 0.50005,0.50005 0 1 0 0.70703,0.70703 l 3,-3 a 0.50005,0.50005 0 0 0 0.0137,-0.69336 l -2.86719,-3.10546 v -0.10938 l 2.86719,-3.10547 a 0.50005,0.50005 0 0 0 -0.0137,-0.69336 l -3,-3 a 0.50005,0.50005 0 0 0 -0.35938,-0.15234 z" id="path24314"></path>
      <path style="opacity: 0.85; fill: #ffffff; stroke-linecap: round; stroke-linejoin: round;" d="m 263.50195,451.98633 a 0.50005,0.50005 0 0 0 -0.34765,0.85937 l 2.66015,2.66016 -2.67383,2.89648 a 0.50005,0.50005 0 0 0 -0.13281,0.33985 v 0.5 a 0.50005,0.50005 0 0 0 0.13281,0.33984 l 2.67383,2.89649 -2.66015,2.66015 a 0.50005,0.50005 0 1 0 0.70703,0.70703 l 3,-3 a 0.50005,0.50005 0 0 0 0.0137,-0.69336 l -2.86719,-3.10546 v -0.10938 l 2.86719,-3.10547 a 0.50005,0.50005 0 0 0 -0.0137,-0.69336 l -3,-3 a 0.50005,0.50005 0 0 0 -0.35938,-0.15234 z" id="path24324"></path>
      <path style="fill: #ffffff; stroke-linecap: round; stroke-linejoin: round;" d="m 259.50195,451.98633 a 0.50005,0.50005 0 0 0 -0.34765,0.85937 l 2.66015,2.66016 -2.67383,2.89648 a 0.50005,0.50005 0 0 0 -0.13281,0.33985 v 0.5 a 0.50005,0.50005 0 0 0 0.13281,0.33984 l 2.67383,2.89649 -2.66015,2.66015 a 0.50005,0.50005 0 1 0 0.70703,0.70703 l 3,-3 a 0.50005,0.50005 0 0 0 0.0137,-0.69336 l -2.86719,-3.10546 v -0.10938 l 2.86719,-3.10547 a 0.50005,0.50005 0 0 0 -0.0137,-0.69336 l -3,-3 a 0.50005,0.50005 0 0 0 -0.35938,-0.15234 z" id="path24326"></path>
    </g>
  </g>
</svg>