<svg xmlns="http://www.w3.org/2000/svg" height="64" width="64" viewBox="234 344 20 20">
  <g style="fill: #ffffff;" id="force-drag" transform="translate(-1.85367e-6,21)" data-label="Q-12">
    <path style="opacity: 0.6; fill: #ffffff; stroke-linecap: round; stroke-linejoin: round;" d="m 239.00391,336 c 1.09865,0 2,0.90134 2,2 0,1.09866 -0.90135,2 -2,2 -1.09866,0 -2,-0.90134 -2,-2 0,-1.09866 0.90134,-2 2,-2 z" id="circle22541"></path>
    <g id="g22585" style="fill:#ffffff">
      <path style="fill: #ffffff; stroke-linecap: round; stroke-linejoin: round;" d="m 244.04102,347.03125 c -1.67358,-0.0335 -3.28213,0.6908 -3.99805,2.26758 -0.007,0.016 -0.0126,0.0323 -0.0176,0.0488 l -2,5.99414 c -0.21093,0.63281 0.73829,0.94921 0.94922,0.3164 l 1.98437,-5.95117 c 0.004,-0.009 0.0113,-0.0162 0.0156,-0.0254 l 7.3457,7.3457 c -0.008,0.004 -0.0138,0.008 -0.0215,0.0117 l -5.95703,1.98633 c -0.63281,0.21093 -0.31641,1.16015 0.3164,0.94922 l 6,-2 c 0.0166,-0.006 0.0329,-0.0122 0.0488,-0.0195 1.57453,-0.7157 2.29587,-2.32277 2.26172,-3.9961 -0.0342,-1.67332 -0.77095,-3.46821 -2.11523,-4.8125 -1.34429,-1.34428 -3.13893,-2.08176 -4.8125,-2.11523 z m -0.0195,1 c 1.00796,0.0202 2.11393,0.36656 3.0879,0.99414 -1.6826,0.11569 -2.73353,0.941 -3.59961,1.77734 l -1.94336,-1.94335 c 0.60824,-0.57833 1.46627,-0.84791 2.45507,-0.82813 z M 247.5,350 h 0.5 c 0,6.5e-4 0,10e-4 0,0.002 l 0.002,0.5 c -6.4e-4,1.6083 -0.66875,2.43361 -1.50586,3.28711 l -2.2832,-2.2832 C 245.06632,350.66889 245.89088,350 247.5,350 Z m 1.47656,0.89258 c 0.62645,0.97337 0.97164,2.0788 0.99219,3.08594 0.0202,0.98929 -0.2502,1.84704 -0.82813,2.45507 l -1.9414,-1.9414 c 0.83635,-0.86594 1.6611,-1.91749 1.77734,-3.59961 z" transform="translate(1.85367e-6,-21)" id="path24556"></path>
    </g>
  </g>
</svg>