<svg xmlns="http://www.w3.org/2000/svg" height="64" width="64" viewBox="318 344 20 20">
  <g id="rigid-body" style="fill: #ffffff;" data-label="Q-16">
    <path style="opacity: 0.75; fill: #ffffff; stroke-width: 1.03999px; stroke-linecap: round; stroke-linejoin: round;" d="m 329.97518,350.98014 a 0.52004817,0.52004817 0 0 0 -0.38086,0.19532 l -3.61133,4.51562 -3.09179,-3.5332 a 0.52004817,0.52004817 0 1 0 -0.78321,0.68359 l 3.5,4 a 0.52004817,0.52004817 0 0 0 0.79883,-0.0176 l 3.61133,-4.51367 3.08984,3.53125 a 0.52004817,0.52004817 0 1 0 0.78321,-0.68359 l -3.5,-4 a 0.52004817,0.52004817 0 0 0 -0.41602,-0.17774 z" id="path4898"></path>
    <path style="fill: #ffffff; stroke-width: 1.03999px; stroke-linecap: round; stroke-linejoin: round;" d="M 321.49219,347.97266 A 0.52004817,0.52004817 0 0 0 320.97852,348.5 v 11 a 0.520505,0.520505 0 0 0 1.04101,0 V 358 h 11.95899 v 1.5 a 0.520505,0.520505 0 0 0 1.04101,0 v -11 a 0.52004817,0.52004817 0 0 0 -0.52734,-0.52734 0.52004817,0.52004817 0 0 0 -0.51367,0.52734 v 1.5 h -11.95899 v -1.5 a 0.52004817,0.52004817 0 0 0 -0.52734,-0.52734 z M 322.01953,351 h 11.95899 v 6 h -11.95899 z" id="path4902"></path>
  </g>
</svg>