<svg xmlns="http://www.w3.org/2000/svg" height="64" width="64" viewBox="171 344 20 20">
  <g style="fill: #ffffff;" id="force-curve" transform="translate(-1.85367e-6,21)" data-label="Q-9">
    <path style="opacity: 0.6; fill: #ffffff; stroke-linecap: round; stroke-linejoin: round;" d="m 176.49609,335 c -1.37479,0 -2.5,1.12521 -2.5,2.5 0,1.37479 1.12521,2.5 2.5,2.5 1.37479,0 2.5,-1.12521 2.5,-2.5 0,-1.37479 -1.12521,-2.5 -2.5,-2.5 z" id="circle24230"></path>
    <path style="fill: #ffffff; stroke-width: 1.2; stroke-linecap: round; stroke-linejoin: round;" d="m 181.54297,326 a 0.60006002,0.60006002 0 1 0 0,1.19922 h 0.97656 c 1.24133,0 2.31915,0.34169 3.06836,0.9668 0.74922,0.6251 1.21289,1.52687 1.21289,2.85156 0,2.62859 -2.35092,5.18453 -6.32422,5.78906 a 0.60006002,0.60006002 0 1 0 0.18164,1.18555 c 4.40846,-0.67075 7.3418,-3.63746 7.3418,-6.97461 0,-1.62072 -0.62669,-2.92584 -1.64258,-3.77344 C 185.34154,326.39654 183.97898,326 182.51953,326 Z" id="path24226"></path>
  </g>
</svg>