<svg xmlns="http://www.w3.org/2000/svg" height="64" width="64" viewBox="24 365 20 20">
  <g style="fill: #ffffff;" id="surface-ncircle" transform="translate(-231,63)" data-label="R-2">
    <path style="opacity: 0.6; fill: #ffffff; stroke-width: 1px; stroke-linecap: round; stroke-linejoin: round;" d="m 258.49805,304.99414 a 0.50005,0.50005 0 0 0 -0.5,0.5 v 2 a 0.50005,0.50005 0 0 0 0.5,0.5 h 2 a 0.50005,0.50005 0 0 0 0.5,-0.5 v -2 a 0.50005,0.50005 0 0 0 -0.5,-0.5 z m 11.00976,0 a 0.50005,0.50005 0 0 0 -0.5,0.5 v 2 a 0.50005,0.50005 0 0 0 0.5,0.5 h 2 a 0.50005,0.50005 0 0 0 0.5,-0.5 v -2 a 0.50005,0.50005 0 0 0 -0.5,-0.5 z m -10.50976,1 h 1 v 1 h -1 z m 11.00976,0 h 1 v 1 h -1 z m -11.50976,10 a 0.50005,0.50005 0 0 0 -0.5,0.5 v 2 a 0.50005,0.50005 0 0 0 0.5,0.5 h 2 a 0.50005,0.50005 0 0 0 0.5,-0.5 v -2 a 0.50005,0.50005 0 0 0 -0.5,-0.5 z m 11.00976,0 a 0.50005,0.50005 0 0 0 -0.5,0.5 v 2 a 0.50005,0.50005 0 0 0 0.5,0.5 h 2 a 0.50005,0.50005 0 0 0 0.5,-0.5 v -2 a 0.50005,0.50005 0 0 0 -0.5,-0.5 z m -10.50976,1 h 1 v 1 h -1 z m 11.00976,0 h 1 v 1 h -1 z" id="path13555"></path>
    <path style="fill: #ffffff; stroke-linecap: square; stroke-linejoin: round;" d="m 265,307 c -2.75536,0 -5,2.24449 -5,5 0,2.75551 2.24464,5 5,5 2.75536,0 5,-2.24449 5,-5 0,-2.75551 -2.24464,-5 -5,-5 z" id="ellipse13557"></path>
  </g>
</svg>