<svg xmlns="http://www.w3.org/2000/svg" height="64" width="64" viewBox="402 365 20 20">
  <g id="color-red" style="" data-label="R-20">
    <path style="fill: #ffffff; stroke-linecap: round; stroke-linejoin: round;" d="m 408.50391,369 a 0.50005,0.50005 0 0 0 -0.5,0.5 v 5.91992 a 0.50005,0.50005 0 0 0 0,0.16211 V 380.5 a 0.50005,0.50005 0 1 0 1,0 V 376 h 3.25586 l 3.84961,4.8125 a 0.50024018,0.50024018 0 1 0 0.78124,-0.625 l -3.49414,-4.36914 c 1.48603,-0.40423 2.60743,-1.70768 2.60743,-3.31836 0,-1.92707 -1.57293,-3.5 -3.5,-3.5 z m 0.5,1 h 3.5 c 1.38662,0 2.5,1.11337 2.5,2.5 0,1.38663 -1.11338,2.5 -2.5,2.5 a 0.50005,0.50005 0 0 0 -0.004,0 h -3.49609 z" id="path13132"></path>
  </g>
</svg>