<svg xmlns="http://www.w3.org/2000/svg" height="64" width="64" viewBox="66 365 20 20">
  <g style="fill: #ffffff;" id="surface-ncylinder" transform="translate(-252,63)" data-label="R-4">
    <path id="path17351-9" d="m 328,307 c -1.30038,0 -2.48006,0.21939 -3.37891,0.60352 -0.44942,0.19206 -0.83127,0.42394 -1.12304,0.71875 -0.29178,0.2948 -0.49805,0.67796 -0.49805,1.10156 v 2.30664 2.8457 c 0,0.4236 0.20627,0.80676 0.49805,1.10156 0.29177,0.29481 0.67362,0.52669 1.12304,0.71875 C 325.51994,316.78061 326.69962,317 328,317 c 1.30038,0 2.48006,-0.21939 3.37891,-0.60352 0.44942,-0.19206 0.83127,-0.42394 1.12304,-0.71875 0.29178,-0.2948 0.49805,-0.67796 0.49805,-1.10156 v -2.8457 -2.30664 c 0,-0.4236 -0.20627,-0.80676 -0.49805,-1.10156 -0.29177,-0.29481 -0.67362,-0.52669 -1.12304,-0.71875 C 330.48006,307.21939 329.30038,307 328,307 Z m 0,1 c 1.01151,0 1.92459,0.13316 2.61914,0.3418 0.34727,0.10431 0.63991,0.22479 0.88086,0.38281 0.24095,0.15802 0.5,0.38269 0.5,0.77539 0,0.3927 -0.25905,0.61737 -0.5,0.77539 -0.24095,0.15802 -0.53359,0.2785 -0.88086,0.38281 C 329.92459,310.86684 329.01151,311 328,311 c -1.0115,0 -1.92459,-0.13316 -2.61914,-0.3418 -0.34727,-0.10431 -0.63991,-0.22479 -0.88086,-0.38281 -0.24095,-0.15802 -0.5,-0.38268 -0.5,-0.77539 0,-0.3927 0.25905,-0.61737 0.5,-0.77539 0.24095,-0.15802 0.53359,-0.2785 0.88086,-0.38281 C 326.07541,308.13316 326.9885,308 328,308 Z" style="fill: #ffffff; stroke-linecap: round; stroke-linejoin: round;"></path>
    <path style="opacity: 0.6; fill: #ffffff; stroke-width: 1px; stroke-linecap: round; stroke-linejoin: round;" d="m 321.49805,304.99414 a 0.50005,0.50005 0 0 0 -0.5,0.5 v 2 a 0.50005,0.50005 0 0 0 0.5,0.5 h 1 a 0.50005,0.50005 0 1 0 0,-1 h -0.5 v -1 h 1 v 0.5 a 0.50005,0.50005 0 1 0 1,0 v -1 a 0.50005,0.50005 0 0 0 -0.5,-0.5 z m 11.00976,0 a 0.50005,0.50005 0 0 0 -0.5,0.5 v 1 a 0.50005,0.50005 0 1 0 1,0 v -0.5 h 1 v 1 h -0.5 a 0.50005,0.50005 0 1 0 0,1 h 1 a 0.50005,0.50005 0 0 0 0.5,-0.5 v -2 a 0.50005,0.50005 0 0 0 -0.5,-0.5 z m -11.00976,11 a 0.50005,0.50005 0 0 0 -0.5,0.5 v 2 a 0.50005,0.50005 0 0 0 0.5,0.5 h 2 a 0.50005,0.50005 0 0 0 0.5,-0.5 v -1 a 0.50005,0.50005 0 1 0 -1,0 v 0.5 h -1 v -1 h 0.5 a 0.50005,0.50005 0 1 0 0,-1 z m 12.00976,0 a 0.50005,0.50005 0 1 0 0,1 h 0.5 v 1 h -1 v -0.5 a 0.50005,0.50005 0 1 0 -1,0 v 1 a 0.50005,0.50005 0 0 0 0.5,0.5 h 2 a 0.50005,0.50005 0 0 0 0.5,-0.5 v -2 a 0.50005,0.50005 0 0 0 -0.5,-0.5 z" id="path14314"></path>
  </g>
</svg>