<svg xmlns="http://www.w3.org/2000/svg" height="64" width="64" viewBox="87 365 20 20">
  <g style="fill: #ffffff;" id="surface-nsphere" transform="translate(-210,63)" data-label="R-5">
    <path style="fill: #ffffff; stroke-linecap: square; stroke-linejoin: round;" d="m 307,306 c -3.30761,0 -6,2.6922 -6,6 0,3.3078 2.69239,6 6,6 3.30761,0 6,-2.6922 6,-6 0,-3.3078 -2.69239,-6 -6,-6 z m 4.75781,6.73438 a 0.50005,0.50005 0 0 1 0.28516,0.91992 c -1.16187,0.83991 -2.99782,1.34961 -5.04297,1.34961 -2.04361,0 -3.88093,-0.50932 -5.04297,-1.34766 a 0.50005,0.50005 0 0 1 0.25586,-0.91016 0.50005,0.50005 0 0 1 0.33008,0.0977 c 0.89908,0.64864 2.58702,1.16016 4.45703,1.16016 1.87213,0 3.55862,-0.50874 4.45703,-1.15821 a 0.50005,0.50005 0 0 1 0.30078,-0.11132 z" id="ellipse14291"></path>
    <path style="opacity: 0.6; fill: #ffffff; stroke-width: 1px; stroke-linecap: round; stroke-linejoin: round;" d="m 300.49805,304.99414 a 0.50005,0.50005 0 0 0 -0.5,0.5 v 2 a 0.50005,0.50005 0 0 0 0.5,0.5 h 1 a 0.50005,0.50005 0 1 0 0,-1 h -0.5 v -1 h 1 v 0.5 a 0.50005,0.50005 0 1 0 1,0 v -1 a 0.50005,0.50005 0 0 0 -0.5,-0.5 z m 11.00976,0 a 0.50005,0.50005 0 0 0 -0.5,0.5 v 1 a 0.50005,0.50005 0 1 0 1,0 v -0.5 h 1 v 1 h -0.5 a 0.50005,0.50005 0 1 0 0,1 h 1 a 0.50005,0.50005 0 0 0 0.5,-0.5 v -2 a 0.50005,0.50005 0 0 0 -0.5,-0.5 z m -11.00976,11 a 0.50005,0.50005 0 0 0 -0.5,0.5 v 2 a 0.50005,0.50005 0 0 0 0.5,0.5 h 2 a 0.50005,0.50005 0 0 0 0.5,-0.5 v -1 a 0.50005,0.50005 0 1 0 -1,0 v 0.5 h -1 v -1 h 0.5 a 0.50005,0.50005 0 1 0 0,-1 z m 12.00976,0 a 0.50005,0.50005 0 1 0 0,1 h 0.5 v 1 h -1 v -0.5 a 0.50005,0.50005 0 1 0 -1,0 v 1 a 0.50005,0.50005 0 0 0 0.5,0.5 h 2 a 0.50005,0.50005 0 0 0 0.5,-0.5 v -2 a 0.50005,0.50005 0 0 0 -0.5,-0.5 z" id="path14322"></path>
  </g>
</svg>