<svg xmlns="http://www.w3.org/2000/svg" height="64" width="64" viewBox="255 386 20 20">
  <g id="light-point" style="fill: #ffffff;" data-label="S-13">
    <g style="fill: #ffffff;" transform="translate(-84,42)" id="g19210">
      <path d="m 348.48047,347 c -3.16361,0.009 -5.86504,2.31609 -6.39063,5.45117 -0.52558,3.13508 1.27477,6.20467 4.25977,7.25781 a 0.50005,0.50005 0 1 0 0.33203,-0.94336 c -2.52985,-0.89255 -4.05213,-3.48414 -3.60547,-6.14843 0.44666,-2.66429 2.72792,-4.6094 5.40821,-4.61719 2.68028,-0.008 4.97166,1.92234 5.43359,4.58398 0.46193,2.66165 -1.0456,5.26268 -3.57031,6.16993 a 0.50043111,0.50043111 0 1 0 0.33984,0.9414 c 2.9789,-1.07046 4.75841,-4.14926 4.21484,-7.28125 -0.54356,-3.13198 -3.25826,-5.42325 -6.42187,-5.41406 z m 0.0195,4.99999 c -0.8225,0 -1.5,0.6775 -1.5,1.5 0,0.64684 0.42097,1.19777 1,1.40625 v 0.59375 c -0.01,0.67616 1.00956,0.67616 1,0 v -0.59375 c 0.57902,-0.20848 1,-0.75941 1,-1.40625 0,-0.8225 -0.67751,-1.5 -1.5,-1.5 z m 0,1 c 0.28206,0 0.5,0.21794 0.5,0.5 0,0.28206 -0.21794,0.5 -0.5,0.5 -0.28207,0 -0.5,-0.21794 -0.5,-0.5 0,-0.28206 0.21793,-0.5 0.5,-0.5 z m -0.002,3.98438 c -0.27614,0.004 -0.49651,0.23167 -0.49219,0.50781 v 1 c -0.01,0.67616 1.00957,0.67616 1,0 v -1 c 0.004,-0.28226 -0.22555,-0.51223 -0.50781,-0.50781 z m 0,3 c -0.27614,0.004 -0.49651,0.23167 -0.49219,0.50781 v 1.00195 c -0.01,0.67616 1.00957,0.67616 1,0 v -1.00195 c 0.004,-0.28226 -0.22555,-0.51223 -0.50781,-0.50781 z" style="fill: #ffffff; stroke-linecap: round; stroke-linejoin: round;" id="circle19208"></path>
    </g>
  </g>
</svg>