<svg xmlns="http://www.w3.org/2000/svg" height="64" width="64" viewBox="24 386 20 20">
  <g id="mesh-cube" style="fill: #ffffff;" data-label="S-2">
    <path id="path8006-3-4" d="m 30.5,389 a 0.50005,0.50005 0 0 0 -0.353516,0.14648 l -3,3 A 0.50005,0.50005 0 0 0 27,392.5 v 10 a 0.50005,0.50005 0 0 0 0.5,0.5 h 10 a 0.50005,0.50005 0 0 0 0.353516,-0.14648 l 3,-3 A 0.50005,0.50005 0 0 0 41,399.5 v -10 A 0.50005,0.50005 0 0 0 40.5,389 Z m 0.207031,1 H 40 v 9.29297 L 37.292969,402 H 28 v -9.29297 z" style="fill: #ffffff; stroke-linecap: round; stroke-linejoin: round;"></path>
    <path id="path8009-8" d="m 39.490234,389.98828 a 0.50005,0.50005 0 0 0 -0.34375,0.15234 L 37.292969,392 H 29.5 a 0.50005,0.50005 0 1 0 0,1 H 37 v 7.5 a 0.50005,0.50005 0 1 0 1,0 v -7.79297 l 1.853516,-1.86133 a 0.50005,0.50005 0 0 0 -0.363282,-0.85742 z" style="opacity: 0.8; fill: #ffffff; stroke-linecap: round; stroke-linejoin: round;"></path>
  </g>
</svg>