<svg xmlns="http://www.w3.org/2000/svg" height="64" width="64" viewBox="507 386 20 20">
  <g id="meta-capsule" style="fill: #ffffff;" data-label="S-25">
    <path id="path14559-8" d="m 519.02539,389.05664 c -1.23014,0.0645 -2.42356,0.6345 -3.37891,1.58984 l -4,4 c -0.95534,0.95535 -1.53001,2.15146 -1.59765,3.38477 -0.0676,1.23331 0.38786,2.49571 1.41406,3.50977 1.02392,1.0118 2.28158,1.46686 3.51172,1.40234 1.23014,-0.0645 2.42356,-0.6345 3.37891,-1.58984 l 4,-4 c 0.95534,-0.95535 1.53001,-2.15146 1.59765,-3.38477 0.0676,-1.23331 -0.38786,-2.4957 -1.41406,-3.50977 -1.02392,-1.0118 -2.28158,-1.46686 -3.51172,-1.40234 z m 0.0527,0.99805 c 0.95617,-0.0502 1.91199,0.28134 2.75586,1.11523 0.8416,0.83165 1.17171,1.78562 1.11914,2.74414 -0.0526,0.95853 -0.50462,1.93042 -1.30664,2.73242 l -4,4 c -0.80201,0.80202 -1.76844,1.24868 -2.7246,1.29883 -0.95617,0.0502 -1.91199,-0.28134 -2.75586,-1.11523 -0.8416,-0.83164 -1.17171,-1.78562 -1.11914,-2.74414 0.0526,-0.95853 0.50462,-1.93041 1.30664,-2.73242 l 4,-4 c 0.80201,-0.80202 1.76844,-1.24868 2.7246,-1.29883 z" style="fill: #ffffff; stroke-linecap: round; stroke-linejoin: round;"></path>
    <path id="path14564" d="m 517.47266,391.99414 a 0.50005,0.50005 0 0 0 -0.45899,0.62305 c 0.18668,0.77642 0.28491,1.42494 1.14063,2.24414 0.815,0.78022 1.39282,0.94312 2.24023,1.12695 a 0.50005,0.50005 0 1 0 0.21094,-0.97656 c -0.84931,-0.18425 -1.03849,-0.18255 -1.75977,-0.87305 -0.72218,-0.69136 -0.65665,-0.91268 -0.85937,-1.75586 a 0.50005,0.50005 0 0 0 -0.51367,-0.38867 z" style="opacity: 0.8; fill: #ffffff; fill-rule: evenodd; stroke-linecap: round; stroke-linejoin: round;"></path>
  </g>
</svg>