<svg xmlns="http://www.w3.org/2000/svg" height="64" width="64" viewBox="87 386 20 20">
  <g id="mesh-icosphere" style="fill: #ffffff;" data-label="S-5">
    <path id="path17390-7" mask="none" d="m 96,389 a 0.50005,0.50005 0 0 0 -0.240234,0.0605 l -5.5,3 A 0.50005,0.50005 0 0 0 90,392.5 v 7 a 0.50005,0.50005 0 0 0 0.259766,0.43945 l 5.5,3 A 0.50005,0.50005 0 0 0 96,403 h 1 a 0.50005,0.50005 0 0 0 0.240234,-0.0605 l 5.499996,-3 A 0.50005,0.50005 0 0 0 103,399.5 v -7 a 0.50005,0.50005 0 0 0 -0.25977,-0.43945 l -5.499996,-3 A 0.50005,0.50005 0 0 0 97,389 Z m 0.126953,1 h 0.746094 L 102,392.79688 v 6.40624 L 96.873047,402 H 96.126953 L 91,399.20312 v -6.40624 z" style="fill: #ffffff; fill-rule: evenodd; stroke-linecap: round; stroke-linejoin: round;"></path>
    <path id="path17400" d="m 92.5,392 a 0.50005,0.50005 0 1 0 0,1 H 98.513672 100.5 a 0.50005,0.50005 0 1 0 0,-1 z m 6.013672,1 a 0.50005,0.50005 0 0 0 -0.404297,0.1875 l -3.595703,4.49609 -2.613281,-3.48437 a 0.50078095,0.50078095 0 1 0 -0.800782,0.60156 l 3,4 A 0.50005,0.50005 0 0 0 94.486328,399 a 0.50005,0.50005 0 0 0 0.404297,-0.1875 l 3.595703,-4.49609 2.613282,3.48437 a 0.50078015,0.50078015 0 1 0 0.80078,-0.60156 l -2.999999,-4 A 0.50005,0.50005 0 0 0 98.513672,393 Z m -4.027344,6 H 92.5 a 0.50005,0.50005 0 1 0 0,1 h 8 a 0.50005,0.50005 0 1 0 0,-1 z" style="opacity: 0.8; fill: #ffffff; fill-rule: evenodd; stroke-linecap: round; stroke-linejoin: round;"></path>
  </g>
</svg>