<svg xmlns="http://www.w3.org/2000/svg" height="64" width="64" viewBox="234 407 20 20">
  <g id="outliner-data-lightprobe" style="" data-label="T-12">
    <path style="fill: #ffffff; stroke-linecap: round; stroke-linejoin: round; stroke-miterlimit: 3.7;" d="m 240.51382,409.98613 a 0.50005,0.50005 0 0 0 -0.3594,0.1524 l -3,3 a 0.50005,0.50005 0 1 0 0.707,0.707 l 3,-3 a 0.50005,0.50005 0 0 0 -0.3476,-0.8594 z m 5,0 a 0.50005,0.50005 0 0 0 -0.3594,0.1524 l -8,8 a 0.50005,0.50005 0 1 0 0.707,0.707 l 8,-8 a 0.50005,0.50005 0 0 0 -0.3476,-0.8594 z m 5,0 a 0.50005,0.50005 0 0 0 -0.3594,0.1524 l -4.416,4.416 c 0.2729,0.1952 0.5118,0.4341 0.707,0.707 l 4.416,-4.416 a 0.50005,0.50005 0 0 0 -0.3476,-0.8594 z m 0,5 a 0.50005,0.50005 0 0 0 -0.3594,0.1524 l -8,8 a 0.50005,0.50005 0 1 0 0.707,0.707 l 8,-8 a 0.50005,0.50005 0 0 0 -0.3476,-0.8594 z m -6.5059,1.0059 a 1.0000001,1 0 0 0 -1,1 1.0000001,1 0 0 0 1,1 1.0000001,1 0 0 0 1,-1 1.0000001,1 0 0 0 -1,-1 z m -2.4375,2.7305 -4.416,4.416 a 0.50005,0.50005 0 1 0 0.707,0.707 l 4.416,-4.416 c -0.2729,-0.1952 -0.5118,-0.4341 -0.707,-0.707 z m 8.9434,1.2636 a 0.50005,0.50005 0 0 0 -0.3594,0.1524 l -3,3 a 0.50005,0.50005 0 1 0 0.707,0.707 l 3,-3 a 0.50005,0.50005 0 0 0 -0.3476,-0.8594 z" id="path21556-6"></path>
  </g>
</svg>