<svg xmlns="http://www.w3.org/2000/svg" height="64" width="64" viewBox="339 407 20 20">
  <g style="fill: #ffffff;" id="gp-multiframe-editing" data-label="T-17">
    <path id="path20610" d="m 348.51367,409.98828 a 1.50015,1.50015 0 0 0 -0.80859,0.24024 C 343.03811,413.14537 342,418.71429 342,422.5 a 1.50015,1.50015 0 1 0 3,0 c 0,-0.89832 0.0865,-1.89371 0.26758,-2.9043 -0.25845,-3.40076 0.85029,-7.04233 3.87109,-9.4707 a 1.50015,1.50015 0 0 0 -0.625,-0.13672 z" style="opacity: 0.4; fill: #ffffff; stroke-width: 3; stroke-linecap: round;"></path>
    <path id="path20608" d="m 351.51367,409.98828 a 1.50015,1.50015 0 0 0 -0.80859,0.24024 c -4.71461,2.94662 -5.33528,8.77693 -3.58399,12.86328 a 1.5005399,1.5005399 0 1 0 2.75782,-1.1836 c -0.38431,-0.89672 -0.59027,-1.91481 -0.62891,-2.95117 -0.67215,-3.14692 0.29131,-6.6121 2.9043,-8.82422 a 1.50015,1.50015 0 0 0 -0.64063,-0.14453 z" style="opacity: 0.6; fill: #ffffff; stroke-width: 3; stroke-linecap: round;"></path>
    <path id="path20592" d="m 354.51367,409.98828 a 1.50015,1.50015 0 0 0 -0.80859,0.24024 c -4.9147,3.07168 -4.9147,10.47128 0,13.54296 a 1.50015,1.50015 0 1 0 1.58984,-2.54296 c -3.0853,-1.92832 -3.0853,-6.52872 0,-8.45704 a 1.50015,1.50015 0 0 0 -0.78125,-2.7832 z" style="fill: #ffffff; stroke-width: 3; stroke-linecap: round;"></path>
  </g>
</svg>