<svg xmlns="http://www.w3.org/2000/svg" height="64" width="64" viewBox="45 407 20 20">
  <g id="outliner-data-curve" style="" data-label="T-3">
    <path id="path22951-5" d="m 52.5,410 a 0.50005,0.50005 0 0 0 -0.5,0.5 v 3 a 0.50005,0.50005 0 0 0 0.5,0.5 h 3 A 0.50005,0.50005 0 0 0 56,413.5 V 412 h 0.5 c 1.293073,0 2.425866,0.35206 3.21875,1.00977 C 60.511634,413.66747 61,414.62406 61,416 c 0,1.58333 -0.78109,3.05511 -2.240234,4.16406 C 57.300621,421.27301 55.159091,422 52.5,422 H 52 v -1.5 A 0.50005,0.50005 0 0 0 51.5,420 h -3 a 0.50005,0.50005 0 0 0 -0.5,0.5 v 3 a 0.50005,0.50005 0 0 0 0.5,0.5 h 3 A 0.50005,0.50005 0 0 0 52,423.5 V 423 h 0.5 c 2.840909,0 5.199379,-0.77301 6.865234,-2.03906 C 61.03109,419.69489 62,417.91667 62,416 62,414.37594 61.372824,413.08253 60.357422,412.24023 59.34202,411.39794 57.973784,411 56.5,411 H 56 v -0.5 A 0.50005,0.50005 0 0 0 55.5,410 Z m 0.5,1 h 2 v 2 h -2 z m -4,10 h 2 v 2 h -2 z" style="fill: #ffffff; fill-rule: evenodd; stroke-linecap: round; stroke-linejoin: round;"></path>
  </g>
</svg>