<svg xmlns="http://www.w3.org/2000/svg" height="64" width="64" viewBox="171 407 20 20">
  <g id="outliner-data-font" style="" data-label="T-9">
    <path id="path5262" d="m 180.5,410 c -2.08712,0 -3.47816,1.04607 -4.39062,2.1875 a 0.50024408,0.50024408 0 0 0 0.78125,0.625 C 177.69049,411.81193 178.73439,411 180.5,411 c 2.09839,0 3.13411,0.87695 3.75195,1.94531 C 184.8698,414.01367 185,415.31651 185,416 h -5.25 c -1.27344,0 -2.44324,0.36418 -3.31445,1.05469 -0.87121,0.69051 -1.42774,1.72791 -1.42774,2.94531 0,1.2174 0.55653,2.2548 1.42774,2.94531 C 177.30676,423.63582 178.47656,424 179.75,424 h 0.75 c 1.75558,0 3.38771,-0.96684 4.53711,-2.0332 0.0781,0.53303 0.28951,1.00434 0.64062,1.35547 C 186.12862,423.77315 186.775,424 187.5,424 a 0.50005,0.50005 0 1 0 0,-1 c -0.525,0 -0.87862,-0.14815 -1.11523,-0.38477 C 186.14815,422.37862 186,422.025 186,421.5 V 416 c 0,-0.79721 -0.12242,-2.24322 -0.88086,-3.55469 C 184.3607,411.13385 182.89646,410 180.5,410 Z m -0.75,7 H 185 v 3.56055 C 184.04582,421.68473 182.18875,423 180.5,423 h -0.75 c -1.08101,0 -2.03187,-0.31555 -2.69336,-0.83984 -0.66149,-0.52429 -1.04883,-1.23676 -1.04883,-2.16016 0,-0.9234 0.38734,-1.63587 1.04883,-2.16016 C 177.71813,417.31555 178.66899,417 179.75,417 Z" style="fill: #ffffff; stroke-width: 1px; stroke-linecap: round; stroke-linejoin: round;"></path>
  </g>
</svg>