<svg xmlns="http://www.w3.org/2000/svg" height="64" width="64" viewBox="87 428 20 20">
  <g id="outliner-ob-meta" style="" data-label="U-5">
    <path id="path13682" d="m 100.45117,431 c -0.36065,0.005 -0.725199,0.0666 -1.080078,0.1875 -1.419514,0.48381 -2.371094,1.8128 -2.371094,3.3125 a 0.50005006,0.50005006 0 1 1 -1,0 c 0,-0.53249 0.102694,-1.04562 0.277344,-1.52734 -0.0921,0.0103 -0.173784,0.0274 -0.277344,0.0273 -3.307786,0 -6,2.69221 -6,6 0,3.30779 2.692214,6 6,6 3.307786,0 6.000002,-2.69221 6.000002,-6 v -0.002 c -4.7e-4,-0.11093 0.014,-0.19694 0.0332,-0.27344 -0.83987,0.3046 -1.77022,0.36483 -2.67578,0.12695 a 0.50005006,0.50005006 0 1 1 0.253906,-0.96679 c 1.450494,0.38101 2.978064,-0.20116 3.806644,-1.45118 0.82858,-1.25001 0.7694,-2.88277 -0.14649,-4.07031 -0.68691,-0.89068 -1.73836,-1.37897 -2.82031,-1.36328 z" style="fill: #ffffff; stroke-linecap: round; stroke-linejoin: round; stroke-dashoffset: 0.5;"></path>
  </g>
</svg>