<svg xmlns="http://www.w3.org/2000/svg" height="64" width="64" viewBox="87 449 20 20">
  <g id="mouse-lmb-drag" style="" data-label="V-5">
    <path id="path6596" style="fill: #ffffff; stroke-linejoin: round;" d="m 92.484375,452 c -0.752,0 -1.453818,0.239 -2.023438,0.64453 C 89.575267,453.27508 89,454.31514 89,455.48438 V 458.5 c 3e-5,0.27537 0.222677,0.4989 0.498047,0.5 l 4.009765,0.008 c 0.27613,-3e-5 0.49997,-0.22387 0.5,-0.5 L 94,452.53516 v -0.002 -0.0352 C 93.999,452.22272 93.77534,452.00003 93.5,452 Z M 95,452 v 1 h 1.515625 C 97.900145,453 99,454.09985 99,455.48438 v 8.03124 C 99,464.90014 97.900145,466 96.515625,466 h -4.03125 C 91.099855,466 90,464.90014 90,463.51562 V 460 h -1 v 3.51562 C 89,465.43685 90.563145,467 92.484375,467 h 4.03125 C 98.436855,467 100,465.43686 100,463.51562 v -8.03124 C 100,453.56315 98.436855,452 96.515625,452 Z m 6.47656,-0.97852 a 0.50005,0.50005 0 0 0 -0.31445,0.8711 c 0.58809,0.54453 0.8418,1.0856 0.8418,1.60156 L 102,459.5 a 0.50005,0.50005 0 1 0 1,0 l 0.004,-6.00586 c 0,-0.8509 -0.43179,-1.65971 -1.16211,-2.33594 a 0.50005,0.50005 0 0 0 -0.36524,-0.13672 z m 3.01563,2.01563 A 0.50005,0.50005 0 0 0 104,453.54297 v 4.05859 a 0.50005,0.50005 0 1 0 1,0 v -4.05859 a 0.50005,0.50005 0 0 0 -0.50781,-0.50586 z"></path>
  </g>
</svg>