<svg xmlns="http://www.w3.org/2000/svg" height="64" width="64" viewBox="129 449 20 20">
  <g id="mouse-rmb-drag" style="" data-label="V-7">
    <path id="path6600" style="fill: #ffffff; stroke-linejoin: round;" d="m 138.51562,452 c 0.752,0 1.45382,0.239 2.02344,0.64453 0.88567,0.63055 1.46094,1.67061 1.46094,2.83985 V 458.5 c -3e-5,0.27537 -0.22268,0.4989 -0.49805,0.5 l -4.00976,0.008 c -0.27613,-3e-5 -0.49997,-0.22387 -0.5,-0.5 L 137,452.53516 v -0.002 -0.0352 c 0.001,-0.27524 0.22466,-0.49793 0.5,-0.49796 z M 136,452 v 1 h -1.51563 C 133.09986,453 132,454.09985 132,455.48438 v 8.03124 c 0,1.38452 1.09986,2.48438 2.48437,2.48438 h 4.03125 C 139.90014,466 141,464.90014 141,463.51562 V 460 h 1 v 3.51562 C 142,465.43685 140.43685,467 138.51562,467 h -4.03125 C 132.56315,467 131,465.43686 131,463.51562 v -8.03124 C 131,453.56315 132.56315,452 134.48437,452 Z m 7.47656,-0.97852 a 0.50005,0.50005 0 0 0 -0.31445,0.8711 c 0.58809,0.54453 0.8418,1.0856 0.8418,1.60156 L 144,459.5 a 0.50005,0.50005 0 1 0 1,0 l 0.004,-6.00586 c 0,-0.8509 -0.43179,-1.65971 -1.16211,-2.33594 a 0.50005,0.50005 0 0 0 -0.36524,-0.13672 z m 3.01563,2.01563 A 0.50005,0.50005 0 0 0 146,453.54297 v 4.05859 a 0.50005,0.50005 0 1 0 1,0 v -4.05859 a 0.50005,0.50005 0 0 0 -0.50781,-0.50586 z"></path>
  </g>
</svg>