<svg xmlns="http://www.w3.org/2000/svg" height="64" width="64" viewBox="318 470 20 20">
  <g style="fill: #ffffff;" transform="translate(-21)" id="greasepencil" data-label="W-16">
    <path style="fill: #ffffff; stroke-linecap: round; stroke-linejoin: round;" d="m 353.13867,473.0332 c -0.49613,-0.0451 -1.03862,0.15972 -1.49219,0.61328 l -0.75,0.75 c -0.19519,0.19527 -0.19519,0.51177 0,0.70704 l 3,3 c 0.19527,0.19519 0.51177,0.19519 0.70704,0 l 0.75,-0.75 c 0.45356,-0.45357 0.65838,-0.99606 0.61328,-1.49219 -0.0451,-0.49613 -0.30436,-0.90592 -0.61328,-1.21485 l -1,-1 c -0.30893,-0.30892 -0.71872,-0.56817 -1.21485,-0.61328 z m -3.39644,2.7168 c -0.12989,0.002 -0.25387,0.0546 -0.34571,0.14648 l -6.25,6.25 c -0.0639,0.0642 -0.10909,0.14453 -0.13086,0.23243 l -1,4 c -0.0904,0.36537 0.2401,0.69582 0.60547,0.60547 l 4,-1 c 0.0879,-0.0218 0.16823,-0.067 0.23243,-0.13086 l 6.25,-6.25 c 0.19519,-0.19527 0.19519,-0.51177 0,-0.70704 l -3,-3 c -0.0957,-0.0957 -0.22605,-0.14856 -0.36137,-0.14648 z" id="path12837"></path>
  </g>
</svg>