<svg xmlns="http://www.w3.org/2000/svg" height="64" width="64" viewBox="45 470 20 20">
  <g id="file" transform="translate(-104,-19.9999)" style="fill: #ffffff;" data-label="W-3">
    <path style="fill: #ffffff; fill-rule: evenodd; stroke-linecap: round; stroke-linejoin: round;" d="m 158.48048,492.99995 c -0.15153,0.004 -0.29304,0.0766 -0.38477,0.19727 l -4.94922,4.94921 c -0.31479,0.315 -0.0918,0.85335 0.35352,0.85352 h 5 c 0.27613,-3e-5 0.49997,-0.22387 0.5,-0.5 v -4.5 h 5 v 12 h -10 v -6 h -1 v 6.5 c 3e-5,0.27613 0.22387,0.49997 0.5,0.5 h 11 c 0.27613,-3e-5 0.49997,-0.22387 0.5,-0.5 v -13 c -3e-5,-0.27613 -0.22387,-0.49997 -0.5,-0.5 h -6 c -0.005,-6e-5 -0.009,-6e-5 -0.0137,0 -6.7e-4,2e-5 -0.001,-2e-5 -0.002,0 -0.001,4e-5 -0.003,-5e-5 -0.004,0 z" id="path8730-7"></path>
  </g>
</svg>