<svg xmlns="http://www.w3.org/2000/svg" height="64" width="64" viewBox="192 491 20 20">
  <g transform="matrix(0.866668,0,0,0.866668,-9.46699,121.399)" id="material-data" style="fill: #ffffff; stroke-width: 1.15384;" data-label="X-10">
    <g id="g5912" style="fill:#ffffff;stroke-width:1.15384">
      <path style="fill: #ffffff; stroke-linecap: round; stroke-linejoin: round;" d="m 202,494 c -3.86008,0 -7,3.13992 -7,7 0,3.86008 3.13992,7 7,7 3.86008,0 7,-3.13992 7,-7 0,-3.86008 -3.13992,-7 -7,-7 z m 0,1 c 3.3058,0 5.97583,2.65852 5.99805,5.95898 C 206.88654,501.90262 204.99536,503 202,503 v 4 c -3.31963,0 -6,-2.68037 -6,-6 0,-0.0145 0.002,-0.0285 0.002,-0.043 1.1112,0.94401 3.00099,2.043 5.998,2.043 z" transform="matrix(1.15384,0,0,1.15384,10.9234,-140.076)" id="path5908"></path>
    </g>
  </g>
</svg>