<svg xmlns="http://www.w3.org/2000/svg" height="64" width="64" viewBox="423 491 20 20">
  <g style="fill: #ffffff;" id="shapekey-data" transform="rotate(180,359.4965,417.0035)" data-label="X-21">
    <path style="fill: #ffffff; stroke-linecap: round; stroke-linejoin: round;" d="m 283.49219,330.00781 c -0.1326,3e-5 -0.25976,0.0527 -0.35352,0.14649 l -2,2 c -0.0938,0.0938 -0.14645,0.22091 -0.14648,0.35351 v 5 c 3e-5,0.27613 0.22387,0.49997 0.5,0.5 h 5 c 0.1326,-3e-5 0.25975,-0.0527 0.35351,-0.14648 l 2,-2 c 0.0938,-0.0938 0.14646,-0.22092 0.14649,-0.35352 v -5 c -3e-5,-0.27613 -0.22387,-0.49997 -0.5,-0.5 z" id="path20447"></path>
    <path style="opacity: 0.6; fill: #ffffff; stroke-linecap: round; stroke-linejoin: round;" d="m 284.25,326 a 0.50005,0.50005 0 0 0 -0.35352,0.14648 l -4.75,4.75 A 0.50005,0.50005 0 0 0 279,331.25 l -0.008,8.25586 a 0.50005,0.50005 0 0 0 0.50195,0.50195 L 287.75,340 a 0.50005,0.50005 0 0 0 0.35352,-0.14648 l 4.75,-4.75 A 0.50005,0.50005 0 0 0 293,334.75 l -0.008,-8.24414 a 0.50005,0.50005 0 0 0 -0.49805,-0.49805 z m 0.20703,1 7.53711,0.006 0.006,7.53711 -4.45703,4.45703 -7.55078,0.008 0.008,-7.55078 z" id="path20449"></path>
  </g>
</svg>