<svg xmlns="http://www.w3.org/2000/svg" height="64" width="64" viewBox="150 491 20 20">
  <g id="lattice-data" style="" data-label="X-8">
    <path id="path20392" d="m 154.49904,493.99904 a 0.50005,0.50005 0 0 0 -0.5,0.5 v 3 a 0.50005,0.50005 0 0 0 0.5,0.5 h 0.86133 l -0.82812,3.30664 a 0.50005,0.50005 0 0 0 -0.002,0.006 0.50005,0.50005 0 0 0 -0.0352,0.14258 0.50005,0.50005 0 0 0 0,0.004 l -1.48047,5.91993 a 0.50005,0.50005 0 0 0 0.48437,0.62304 h 4.92383 a 0.50005,0.50005 0 0 0 0.14453,0 h 4.90821 a 0.50005,0.50005 0 0 0 0.48437,-0.3789 l 3.03711,-11.99024 a 0.50005,0.50005 0 0 0 -0.48437,-0.62109 l -4.91016,-0.006 a 0.50005,0.50005 0 0 0 -0.20117,0 l -3.40235,-0.006 v -0.5 a 0.50005,0.50005 0 0 0 -0.5,-0.5 z m 0.5,1 h 2 v 2 h -0.92187 a 0.50005,0.50005 0 0 0 -0.14453,0 h -0.9336 z m 3,1 2.85938,0.004 -1.24805,4.99609 h -3.96875 l 0.75,-3 h 1.10742 a 0.50005,0.50005 0 0 0 0.5,-0.5 z m 3.89063,0.006 3.98047,0.006 -1.26367,4.98828 h -3.96485 z m -6.49805,5.99414 h 3.96875 l -1.25195,5.00195 h -3.9668 z m 5,0 h 3.96094 l -1.26758,5.00195 h -3.94336 z" style="fill: #ffffff; stroke-width: 1px; stroke-linecap: round; stroke-linejoin: round;"></path>
  </g>
</svg>