<svg xmlns="http://www.w3.org/2000/svg" height="64" width="64" viewBox="486 512 20 20">
  <g style="fill: #ffffff;" transform="matrix(-1,0,0,1,677,550)" id="tracking-refine-backwards" data-label="Y-24">
    <g id="g14381" transform="matrix(1,0,0,-1,0,-99.005)" style="fill:#ffffff">
      <path style="fill: #ffffff; stroke-linecap: round; stroke-linejoin: round;" d="M 500.50586,518.99219 A 0.50005,0.50005 0 0 0 500,519.5 v 1 a 0.50005,0.50005 0 1 0 1,0 v -1 a 0.50005,0.50005 0 0 0 -0.49219,-0.50781 0.50005,0.50005 0 0 1 -0.002,0 z m -8.00977,2.99609 a 0.50005,0.50005 0 0 0 -0.34961,0.15234 l -3,3 a 0.50005,0.50005 0 0 0 0,0.70704 l 3,3 a 0.50005,0.50005 0 0 0 0.35938,0.15234 0.50005,0.50005 0 0 0 0.34766,-0.85938 l -2.64649,-2.64648 2.64649,-2.64648 a 0.50005,0.50005 0 0 0 -0.35743,-0.85938 z m 7.00977,0.006 a 0.50005,0.50005 0 0 0 -0.35938,0.15234 l -1,1 a 0.50005,0.50005 0 1 0 0.70704,0.70704 l 1,-1 a 0.50005,0.50005 0 0 0 -0.34766,-0.85938 z m -3.0293,2.00391 a 0.50005,0.50005 0 0 0 -0.0976,0.0176 l -1,0.25 a 0.50005,0.50005 0 1 0 0.24218,0.96876 l 1,-0.25 a 0.50005,0.50005 0 0 0 -0.0937,-0.98633 0.50005,0.50005 0 0 0 -0.0508,0 z m -3,0.75 a 0.50005,0.50005 0 0 0 -0.0976,0.0176 l -1,0.25 a 0.50005,0.50005 0 1 0 0.24218,0.96876 l 1,-0.25 a 0.50005,0.50005 0 0 0 -0.0937,-0.98633 0.50005,0.50005 0 0 0 -0.0508,0 z" transform="rotate(180,338.5,225.4975)" id="path14379"></path>
    </g>
    <path style="fill: #ffffff; stroke-linecap: round; stroke-linejoin: round;" d="m 176.5,-32 c 0.8225,0 1.5,-0.677495 1.5,-1.5 0,-0.822505 -0.6775,-1.5 -1.5,-1.5 -0.8225,0 -1.5,0.677495 -1.5,1.5 0,0.822505 0.6775,1.5 1.5,1.5 z" id="circle14385"></path>
  </g>
</svg>