<svg xmlns="http://www.w3.org/2000/svg" height="64" width="64" viewBox="339 533 20 20">
  <g id="geometry-nodes" transform="translate(-20.84,-20.8827)" style="" data-label="Z-17">
    <g id="g7978">
      <path style="fill: #ffffff; stroke-width: 0.928338; stroke-linecap: round; stroke-linejoin: round;" d="m 373.21906,563.36205 c -2.04533,0 -3.71335,1.66802 -3.71335,3.71335 0,2.04534 1.66802,3.71336 3.71335,3.71336 2.04534,0 3.71336,-1.66802 3.71336,-3.71336 0,-2.04533 -1.66802,-3.71335 -3.71336,-3.71335 z" id="path7726"></path>
      <path style="opacity: 0.6; fill: #ffffff; stroke-width: 922.783; stroke-linecap: round; stroke-linejoin: round;" d="m 364.3828,556.88974 c -0.8999,0 -1.63379,0.73389 -1.63379,1.6338 0,0.89988 0.73389,1.6338 1.63379,1.6338 0.89991,0 1.6338,-0.7339 1.6338,-1.6338 0,-0.8999 -0.73389,-1.6338 -1.6338,-1.6338 z" id="path7808"></path>
      <path style="opacity: 0.85; fill: #ffffff; stroke-width: 922.783; stroke-linecap: round; stroke-linejoin: round;" d="m 366.50464,561.82783 c -1.31395,0 -2.38552,1.07155 -2.38552,2.3855 0,1.31395 1.07157,2.38555 2.38552,2.38555 1.31396,0 2.38553,-1.07158 2.38553,-2.38555 0,-1.31395 -1.07157,-2.3855 -2.38553,-2.3855 z" id="path7890"></path>
      <path style="opacity: 0.6; fill: #ffffff; stroke-width: 1881.46; stroke-linecap: round; stroke-linejoin: round;" d="m 368.88012,557.69285 c -1.06196,0 -1.928,0.86602 -1.928,1.92801 0,1.06192 0.86604,1.92798 1.928,1.92798 1.06195,0 1.92801,-0.86606 1.92801,-1.92798 0,-1.06195 -0.86606,-1.92801 -1.92801,-1.92801 z" id="path7972"></path>
    </g>
  </g>
</svg>