<svg xmlns="http://www.w3.org/2000/svg" height="64" width="64" viewBox="444 71 20 20">
  <g id="file-movie" style="" data-label="D-22">
    <path id="path20685" d="m 447.49219,73.99409 c -0.27615,0.0043 -0.49651,0.231666 -0.49219,0.507812 V 87.49409 c -0.005,0.338081 0.24757,0.509435 0.5,0.507812 l 0.5,-0.0039 v -1.996094 h 2 v 1.996094 h 8 v -1.996094 h 2 v 1.996094 h 0.5 c 0.25244,0 0.50478,-0.169732 0.5,-0.507812 V 74.501902 c 0.005,-0.338081 -0.24762,-0.509415 -0.5,-0.507812 l -0.5,0.0039 v 2.003906 h -2 V 73.99799 h -8 v 2.003906 h -2 V 73.99799 Z M 448,77.001902 h 2 v 2 h -2 z m 10,0 h 2 v 2 h -2 z m -5.52344,1.003906 c 0.1005,-0.004 0.20016,0.02317 0.28516,0.07617 l 4,2.5 c 0.3129,0.1959 0.3129,0.651757 0,0.847657 l -4,2.5 c -0.3331,0.2087 -0.76573,-0.03073 -0.76563,-0.423829 v -5 c -2e-4,-0.2687 0.21197,-0.489 0.48047,-0.5 z M 448,80.001902 h 2 v 2 h -2 z m 10,0 h 2 v 2 h -2 z m -10,3 h 2 v 1.992188 h -2 z m 10,0 h 2 v 1.992188 h -2 z" style="opacity: 0.99; fill: #ffffff; stroke-linecap: round; stroke-linejoin: round;"></path>
  </g>
</svg>