<svg xmlns="http://www.w3.org/2000/svg" height="64" width="64" viewBox="381 428 20 20">
  <g transform="translate(-84,22)" id="restrict-color-on" style="fill: #ffffff;" data-label="U-19">
    <path id="path12959" d="m 473.49999,411 -2.99609,0.006 c -0.2754,6.1e-4 -0.49976,0.22265 -0.5,0.49805 l -0.004,8.45884 c 0,1.02328 0.80629,2.03747 2,2.03711 1.19534,0 1.99609,-1.02155 1.99609,-2.04297 l 0.004,-8.45703 c -1.8e-4,-0.27638 -0.22362,-0.50048 -0.5,-0.5 z m -1.5,8 c 0.55228,0 1,0.44772 1,1 0,0.55228 -0.44772,1 -1,1 -0.55228,0 -1,-0.44772 -1,-1 0,-0.55228 0.44772,-1 1,-1 z" style="fill: #ffffff; stroke-linecap: round; stroke-linejoin: round;"></path>
    <path id="path12972" d="m 478.14648,418.14648 -3,3 c -0.31399,0.31533 -0.0915,0.85354 0.35352,0.85352 h 3 2 c 0.27591,-1.9e-4 0.49982,-0.22409 0.5,-0.5 v -3 c -7e-5,-0.28163 -0.23215,-0.50794 -0.51367,-0.5 h -2 c -0.12731,0.004 -0.24956,0.0566 -0.33985,0.14648 z" style="opacity: 0.5; fill: #ffffff; stroke-linecap: round; stroke-linejoin: round;"></path>
    <path id="path12974" d="m 477.49257,412.00014 c -0.12999,0.002 -0.25408,0.0546 -0.34596,0.14655 l -2.00065,1.99942 c -0.094,0.094 -0.14673,0.22146 -0.14655,0.35436 v 4.0001 c -2e-5,0.4458 0.53925,0.66879 0.85409,0.35316 l 3.99954,-4.00067 c 0.19472,-0.19518 0.19472,-0.51115 0,-0.70633 l -2.00009,-2.00004 c -0.0954,-0.0955 -0.2254,-0.14835 -0.36038,-0.14655 z" style="opacity: 0.75; fill: #ffffff; stroke-linecap: round; stroke-linejoin: round;"></path>
  </g>
</svg>