<svg xmlns="http://www.w3.org/2000/svg" height="64" width="64" viewBox="423 512 20 20">
  <g id="tracking-forwards-single" style="" data-label="Y-21">
    <path style="fill: #ffffff; stroke-linecap: round; stroke-linejoin: round;" d="M 426.49214,518.99219 A 0.50005,0.50005 0 0 0 425.99995,519.5 v 6 a 0.50005,0.50005 0 1 0 1,0 v -2.92578 a 0.50005,0.50005 0 0 0 0.5,0.41797 h 1 a 0.50005,0.50005 0 1 0 0,-1 h -1 a 0.50005,0.50005 0 0 0 -0.5,0.42187 V 519.5 a 0.50005,0.50005 0 0 0 -0.50781,-0.50781 z m 13,0 A 0.50005,0.50005 0 0 0 438.99995,519.5 v 6 a 0.50005,0.50005 0 1 0 1,0 v -6 a 0.50005,0.50005 0 0 0 -0.50781,-0.50781 z m -4.99805,0.002 a 0.50005,0.50005 0 0 0 -0.34766,0.85937 l 2.64649,2.64649 -2.64649,2.64648 a 0.50005,0.50005 0 1 0 0.70704,0.70703 l 3,-3 a 0.50005,0.50005 0 0 0 0,-0.70703 l -3,-3 a 0.50005,0.50005 0 0 0 -0.35938,-0.15234 z M 430.49995,522 a 0.50005,0.50005 0 1 0 0,1 h 1 a 0.50005,0.50005 0 1 0 0,-1 z m 3,0 a 0.50005,0.50005 0 1 0 0,1 h 1 a 0.50005,0.50005 0 1 0 0,-1 z" id="path20420"></path>
  </g>
</svg>