<svg xmlns="http://www.w3.org/2000/svg" height="64" width="64" viewBox="339 512 20 20">
  <g id="tracking" transform="translate(42)" style="fill: #ffffff;" data-label="Y-17">
    <g transform="matrix(1,0,0,-1,-42,813.007)" id="g15497" style="fill: #ffffff;">
      <path style="fill: #ffffff; stroke-linecap: round; stroke-linejoin: round;" d="m 346,286.00391 c 0,-1.09977 -0.90081,-2.00196 -2,-2.00196 -1.09919,0 -2,0.90219 -2,2.00196 0,1.09976 0.90081,2.0039 2,2.0039 1.09919,0 2,-0.90414 2,-2.0039 z m -1,0 c 0,0.56041 -0.44233,1.0039 -1,1.0039 -0.55767,0 -1,-0.44349 -1,-1.0039 0,-0.56041 0.44233,-1.00196 1,-1.00196 0.55767,0 1,0.44155 1,1.00196 z" id="ellipse15493"></path>
      <path style="fill: #ffffff; stroke-linecap: round; stroke-linejoin: round;" d="m 356,296.00391 c 0,-1.09734 -0.90199,-1.9961 -2,-1.9961 -1.09801,0 -2,0.89876 -2,1.9961 0,1.09733 0.90199,1.99609 2,1.99609 1.09801,0 2,-0.89876 2,-1.99609 z" id="ellipse15495"></path>
    </g>
    <path style="fill: #ffffff; stroke-linecap: round; stroke-linejoin: round;" d="m 306.49609,516.00391 a 0.50005,0.50005 0 1 0 0,1 h 2 a 0.50005,0.50005 0 1 0 0,-1 z m -2.00976,0.99414 a 0.50005,0.50005 0 0 0 -0.34375,0.15234 l -1,1 a 0.50005,0.50005 0 1 0 0.70703,0.70703 l 1,-1 a 0.50005,0.50005 0 0 0 -0.36328,-0.85937 z m -1.00195,3 a 0.50005,0.50005 0 0 0 -0.34766,0.85937 l 1,1 a 0.50005,0.50005 0 1 0 0.70703,-0.70703 l -1,-1 a 0.50005,0.50005 0 0 0 -0.35937,-0.15234 z m 3.01171,2.00586 a 0.50005,0.50005 0 1 0 0,1 h 1 a 0.50005,0.50005 0 1 0 0,-1 z m 2.9961,0.99414 a 0.50005,0.50005 0 0 0 -0.34961,0.85937 l 1,1 a 0.50005,0.50005 0 1 0 0.70703,-0.70703 l -1,-1 a 0.50005,0.50005 0 0 0 -0.35742,-0.15234 z m 0.99414,3 a 0.50005,0.50005 0 0 0 -0.34375,0.15234 l -1,1 a 0.50005,0.50005 0 1 0 0.70703,0.70703 l 1,-1 a 0.50005,0.50005 0 0 0 -0.36328,-0.85937 z m -4.9961,1.00586 a 0.50005,0.50005 0 1 0 0,1 h 2 a 0.50005,0.50005 0 1 0 0,-1 z" id="path15483-4"></path>
  </g>
</svg>